<?xml version="1.0" encoding="utf-8"?>
<!-- Generator: Adobe Illustrator 27.3.1, SVG Export Plug-In . SVG Version: 6.00 Build 0)  -->
<svg version="1.1" xmlns="http://www.w3.org/2000/svg" xmlns:xlink="http://www.w3.org/1999/xlink" x="0px" y="0px"
	 viewBox="0 0 1420.36 535.98" style="enable-background:new 0 0 1420.36 535.98;" xml:space="preserve">
<style type="text/css">
	.st0{fill:#FFFFFF;}
	.st1{fill:#0C4DA2;}
	.st2{fill:#FFF200;}
	.st3{fill:#D94397;}
</style>
<g id="Elements">
	<path class="st0" d="M437.77,332.22L332.22,122.67L122.67,228.22l78.98,156.8h-53.76v22.64h288.41v-22.64H332.93L437.77,332.22z
		 M153.07,238.26l169.12-85.18l85.18,169.12l-124.75,62.84H227L153.07,238.26z"/>
	<g>
		<path class="st0" d="M516.67,198.04h-12.02l-3.97,13.95h-19.48l3.85-13.95h-8.66v-16.35h13.35l3.97-14.55h-11.42v-16.11h15.99
			l4.21-15.03h19.6l-4.21,15.03h11.9l4.21-15.03h19.48l-4.21,15.03h9.86v16.11h-14.43l-3.97,14.55h12.38v16.35h-17.07l-3.85,13.95
			h-19.36L516.67,198.04z M521.24,181.69l4.09-14.55h-12.02l-4.09,14.55H521.24z"/>
		<path class="st0" d="M571.49,181.81v-49.53h22.48v49.65c0,7.33,5.05,12.14,12.62,12.14c7.69,0,12.62-4.81,12.62-12.14v-49.65
			h22.36v49.53c0,19.96-13.95,33.18-34.99,33.18C585.32,214.99,571.49,201.76,571.49,181.81z"/>
		<path class="st0" d="M649.24,203.21l11.9-15.75c4.93,5.29,12.74,8.66,20.44,8.66c5.05,0,9.98-1.56,9.98-6.49
			c0-5.17-4.45-6.73-12.74-8.42c-17.31-3.49-27.29-10.34-27.29-24.77c0-16.59,15.03-25.61,32.82-25.61
			c12.38,0,22.48,3.49,29.82,10.7l-11.66,15.03c-6.25-4.69-12.14-6.85-17.91-6.85c-5.29,0-9.26,1.56-9.26,5.53s3.13,5.89,12.5,7.93
			c17.91,3.61,27.65,11.78,27.65,26.45c0,16.71-14.79,25.49-34.38,25.49C667.88,215.11,656.22,209.94,649.24,203.21z"/>
		<path class="st0" d="M746.38,162.57h33.66v19.36h-33.66v12.26h39.79v19.36h-61.79V132.4h60.71v19.48h-38.71V162.57z"/>
		<path class="st0" d="M497.32,229.05l14.19,28.73l13.83-28.73h25.37l-28.13,51.34v29.94h-22.48v-30.3l-28.13-50.97H497.32z"/>
		<path class="st0" d="M546.98,269.81c0-24.41,17.91-42.2,42.44-42.2c24.53,0,42.44,17.67,42.44,41.96
			c0,24.53-17.91,42.32-42.56,42.32C564.89,311.89,546.98,294.21,546.98,269.81z M608.66,269.81c0-12.38-8.06-21.52-19.24-21.52
			s-19.36,9.02-19.36,21.4c0,12.5,8.3,21.52,19.36,21.52C600.6,291.21,608.66,282.07,608.66,269.81z"/>
		<path class="st0" d="M641.24,278.58v-49.53h22.48v49.65c0,7.33,5.05,12.14,12.62,12.14c7.69,0,12.62-4.81,12.62-12.14v-49.65
			h22.36v49.53c0,19.96-13.95,33.18-34.99,33.18C655.06,311.77,641.24,298.54,641.24,278.58z"/>
		<path class="st0" d="M725.08,229.17h34.74c18.88,0,31.26,10.46,31.26,26.33c0,11.9-6.85,20.68-18.27,24.41l19.96,30.42h-25.61
			l-18.27-28.49h-1.32v28.49h-22.48V229.17z M759.22,264.4c5.65,0,9.38-3.37,9.38-8.54c0-4.93-3.73-8.3-9.38-8.3h-11.66v16.83
			H759.22z"/>
		<path class="st0" d="M472.55,325.95h23.56l17.07,56.75h0.24l17.43-56.75h23.32l-27.53,81.15h-26.69L472.55,325.95z"/>
		<path class="st0" d="M554.78,366.58c0-24.41,17.91-42.2,42.44-42.2c24.53,0,42.44,17.67,42.44,41.96
			c0,24.53-17.91,42.32-42.56,42.32C572.7,408.66,554.78,390.99,554.78,366.58z M616.46,366.58c0-12.38-8.06-21.52-19.24-21.52
			c-11.18,0-19.36,9.02-19.36,21.4c0,12.5,8.3,21.52,19.36,21.52C608.4,387.98,616.46,378.85,616.46,366.58z"/>
		<path class="st0" d="M689.68,346.63v60.47h-22.48v-60.47h-23.08v-20.8h68.53v20.8H689.68z"/>
		<path class="st0" d="M746.78,356.12h33.66v19.36h-33.66v12.26h39.79v19.36h-61.79v-81.15h60.71v19.48h-38.71V356.12z"/>
	</g>
	<g>
		<rect x="868.89" y="127.23" class="st0" width="428.8" height="286.08"/>
		<rect x="874.52" y="132.86" class="st1" width="417.55" height="274.81"/>
		<polygon class="st2" points="1083.08,158.32 1087.15,171.01 1100.48,170.95 1089.65,178.74 1093.83,191.41 1083.08,183.52 
			1072.35,191.41 1076.52,178.74 1065.69,170.95 1079,171.01 		"/>
		<polygon class="st2" points="1083.08,349.15 1087.15,361.81 1100.48,361.75 1089.65,369.57 1093.83,382.22 1083.08,374.35 
			1072.35,382.22 1076.52,369.57 1065.69,361.75 1079,361.81 		"/>
		<polygon class="st2" points="1035.62,171.01 1039.68,183.7 1053.01,183.66 1042.22,191.43 1046.39,204.07 1035.62,196.19 
			1024.89,204.07 1029.05,191.43 1018.28,183.66 1031.59,183.7 		"/>
		<polygon class="st2" points="1000.7,206.05 1004.75,218.72 1018.07,218.64 1007.24,226.44 1011.41,239.09 1000.7,231.2 
			989.96,239.09 994.13,226.44 983.26,218.64 996.64,218.72 		"/>
		<polygon class="st2" points="987.8,253.64 991.83,266.3 1005.19,266.22 994.37,274.04 998.49,286.67 987.8,278.79 977.06,286.67 
			981.24,274.04 970.4,266.22 983.73,266.3 		"/>
		<polygon class="st2" points="1000.54,301.22 1004.62,313.95 1017.91,313.85 1007.11,321.65 1011.31,334.29 1000.54,326.37 
			989.8,334.29 993.99,321.65 983.15,313.86 996.47,313.95 		"/>
		<polygon class="st2" points="1035.62,336.23 1039.68,348.91 1053.01,348.85 1042.22,356.62 1046.39,369.28 1035.62,361.43 
			1024.89,369.28 1029.05,356.62 1018.28,348.85 1031.59,348.91 		"/>
		<polygon class="st2" points="1130.6,171.01 1126.54,183.7 1113.2,183.66 1124.03,191.43 1119.85,204.07 1130.6,196.19 
			1141.32,204.07 1137.17,191.43 1147.97,183.66 1134.69,183.7 		"/>
		<polygon class="st2" points="1165.55,206.05 1161.49,218.72 1148.15,218.64 1158.96,226.44 1154.78,239.09 1165.55,231.2 
			1176.3,239.09 1172.12,226.44 1182.9,218.64 1169.6,218.72 		"/>
		<polygon class="st2" points="1178.44,253.64 1174.37,266.3 1161.03,266.22 1171.85,274.04 1167.67,286.67 1178.44,278.79 
			1189.18,286.67 1185.01,274.04 1195.8,266.22 1182.49,266.3 		"/>
		<polygon class="st2" points="1165.64,301.22 1161.62,313.95 1148.28,313.85 1159.13,321.65 1154.92,334.29 1165.64,326.37 
			1176.43,334.29 1172.25,321.65 1183.07,313.86 1169.74,313.95 		"/>
		<polygon class="st2" points="1130.6,336.23 1126.54,348.91 1113.2,348.85 1124.03,356.62 1119.85,369.28 1130.6,361.43 
			1141.32,369.28 1137.17,356.62 1147.97,348.85 1134.69,348.91 		"/>
	</g>
</g>
<g id="Clear_space">
</g>
</svg>
