<?xml version="1.0" encoding="utf-8"?>
<!-- Generator: Adobe Illustrator 27.3.1, SVG Export Plug-In . SVG Version: 6.00 Build 0)  -->
<svg version="1.1" xmlns="http://www.w3.org/2000/svg" xmlns:xlink="http://www.w3.org/1999/xlink" x="0px" y="0px"
	 viewBox="0 0 1471.81 535.98" style="enable-background:new 0 0 1471.81 535.98;" xml:space="preserve">
<style type="text/css">
	.st0{fill:#FFFFFF;}
	.st1{fill:#0C4DA2;}
	.st2{fill:#FFF200;}
	.st3{fill:#D94397;}
</style>
<g id="Elements">
	<g>
		<path class="st0" d="M516.07,196.48h-12.02l-3.97,13.95h-19.48l3.85-13.95h-8.66v-16.35h13.34l3.97-14.55h-11.42v-16.11h15.99
			l4.21-15.03h19.6l-4.21,15.03h11.9l4.21-15.03h19.48l-4.21,15.03h9.86v16.11h-14.43l-3.97,14.55h12.38v16.35h-17.07l-3.85,13.95
			h-19.36L516.07,196.48z M520.64,180.13l4.09-14.55h-12.02l-4.09,14.55H520.64z"/>
		<path class="st0" d="M568.44,180.25v-49.53h22.48v49.65c0,7.33,5.05,12.14,12.62,12.14c7.69,0,12.62-4.81,12.62-12.14v-49.65
			h22.36v49.53c0,19.96-13.95,33.18-34.99,33.18C582.27,213.44,568.44,200.21,568.44,180.25z"/>
		<path class="st0" d="M646.19,201.65l11.9-15.75c4.93,5.29,12.74,8.66,20.44,8.66c5.05,0,9.98-1.56,9.98-6.49
			c0-5.17-4.45-6.73-12.74-8.42c-17.31-3.49-27.29-10.34-27.29-24.77c0-16.59,15.03-25.61,32.82-25.61
			c12.38,0,22.48,3.49,29.82,10.7l-11.66,15.03c-6.25-4.69-12.14-6.85-17.91-6.85c-5.29,0-9.26,1.56-9.26,5.53
			c0,3.97,3.13,5.89,12.5,7.94c17.91,3.61,27.65,11.78,27.65,26.45c0,16.71-14.79,25.49-34.38,25.49
			C664.82,213.56,653.16,208.39,646.19,201.65z"/>
		<path class="st0" d="M741.66,130.84h27.05l29.82,81.15h-23.44l-5.05-14.79h-30.18l-5.05,14.79h-23.08L741.66,130.84z
			 M754.88,153.56l-8.54,25.01h17.19L755,153.56H754.88z"/>
		<path class="st0" d="M479.16,227.5h22.6v81.27h-22.6V227.5z"/>
		<path class="st0" d="M516.1,227.5h22.36v60.71h34.26v20.56H516.1V227.5z"/>
		<path class="st0" d="M649.54,248.3v60.47h-22.48V248.3h-23.08v-20.8h68.53v20.8H649.54z"/>
		<path class="st0" d="M678.22,277.03V227.5h22.48v49.65c0,7.33,5.05,12.14,12.62,12.14c7.69,0,12.62-4.81,12.62-12.14V227.5h22.36
			v49.53c0,19.96-13.95,33.18-34.99,33.18C692.04,310.21,678.22,296.99,678.22,277.03z"/>
		<path class="st0" d="M757.67,268.25c0-24.41,17.91-42.2,42.44-42.2c24.53,0,42.44,17.67,42.44,41.96
			c0,24.53-17.91,42.32-42.56,42.32C775.58,310.33,757.67,292.66,757.67,268.25z M819.35,268.25c0-12.38-8.05-21.52-19.24-21.52
			c-11.18,0-19.36,9.02-19.36,21.4c0,12.5,8.29,21.52,19.36,21.52C811.29,289.65,819.35,280.52,819.35,268.25z"/>
		<path class="st0" d="M471.95,324.39h23.56l17.07,56.75h0.24l17.43-56.75h23.32l-27.53,81.15h-26.69L471.95,324.39z"/>
		<path class="st0" d="M552.81,365.03c0-24.41,17.91-42.2,42.44-42.2c24.53,0,42.44,17.67,42.44,41.96
			c0,24.53-17.91,42.32-42.56,42.32C570.73,407.11,552.81,389.43,552.81,365.03z M614.49,365.03c0-12.38-8.05-21.52-19.24-21.52
			c-11.18,0-19.36,9.02-19.36,21.4c0,12.5,8.29,21.52,19.36,21.52C606.43,386.43,614.49,377.29,614.49,365.03z"/>
		<path class="st0" d="M685.96,345.07v60.47h-22.48v-60.47H640.4v-20.8h68.53v20.8H685.96z"/>
		<path class="st0" d="M711.61,365.03c0-24.41,17.91-42.2,42.44-42.2c24.53,0,42.44,17.67,42.44,41.96
			c0,24.53-17.91,42.32-42.56,42.32C729.53,407.11,711.61,389.43,711.61,365.03z M773.29,365.03c0-12.38-8.05-21.52-19.24-21.52
			c-11.18,0-19.36,9.02-19.36,21.4c0,12.5,8.29,21.52,19.36,21.52C765.23,386.43,773.29,377.29,773.29,365.03z"/>
	</g>
	<g>
		<rect x="920.34" y="125.3" class="st0" width="428.8" height="286.08"/>
		<rect x="925.97" y="130.93" class="st1" width="417.55" height="274.81"/>
		<polygon class="st2" points="1134.53,156.39 1138.6,169.08 1151.93,169.02 1141.1,176.81 1145.28,189.48 1134.53,181.59 
			1123.8,189.48 1127.97,176.81 1117.14,169.02 1130.45,169.08 		"/>
		<polygon class="st2" points="1134.53,347.22 1138.6,359.88 1151.93,359.82 1141.1,367.63 1145.28,380.29 1134.53,372.42 
			1123.8,380.29 1127.97,367.63 1117.14,359.82 1130.45,359.88 		"/>
		<polygon class="st2" points="1087.07,169.08 1091.13,181.77 1104.45,181.73 1093.67,189.49 1097.84,202.14 1087.07,194.26 
			1076.34,202.14 1080.49,189.49 1069.72,181.73 1083.04,181.77 		"/>
		<polygon class="st2" points="1052.15,204.12 1056.19,216.79 1069.52,216.7 1058.69,224.51 1062.86,237.16 1052.15,229.27 
			1041.41,237.16 1045.58,224.51 1034.71,216.7 1048.08,216.79 		"/>
		<polygon class="st2" points="1039.25,251.71 1043.28,264.37 1056.64,264.29 1045.82,272.1 1049.94,284.74 1039.25,276.86 
			1028.51,284.74 1032.69,272.1 1021.85,264.29 1035.17,264.37 		"/>
		<polygon class="st2" points="1051.98,299.29 1056.07,312.02 1069.36,311.92 1058.55,319.72 1062.75,332.36 1051.98,324.44 
			1041.24,332.36 1045.44,319.72 1034.6,311.93 1047.92,312.02 		"/>
		<polygon class="st2" points="1087.07,334.29 1091.13,346.98 1104.45,346.92 1093.67,354.69 1097.84,367.35 1087.07,359.5 
			1076.34,367.35 1080.49,354.69 1069.72,346.92 1083.04,346.98 		"/>
		<polygon class="st2" points="1182.05,169.08 1177.99,181.77 1164.64,181.73 1175.48,189.49 1171.29,202.14 1182.05,194.26 
			1192.77,202.14 1188.62,189.49 1199.42,181.73 1186.14,181.77 		"/>
		<polygon class="st2" points="1217,204.12 1212.93,216.79 1199.59,216.7 1210.41,224.51 1206.22,237.16 1217,229.27 
			1227.75,237.16 1223.57,224.51 1234.35,216.7 1221.04,216.79 		"/>
		<polygon class="st2" points="1229.89,251.71 1225.82,264.37 1212.48,264.29 1223.3,272.1 1219.12,284.74 1229.89,276.86 
			1240.63,284.74 1236.46,272.1 1247.25,264.29 1233.94,264.37 		"/>
		<polygon class="st2" points="1217.08,299.29 1213.07,312.02 1199.73,311.92 1210.57,319.72 1206.37,332.36 1217.08,324.44 
			1227.88,332.36 1223.7,319.72 1234.52,311.93 1221.19,312.02 		"/>
		<polygon class="st2" points="1182.05,334.29 1177.99,346.98 1164.64,346.92 1175.48,354.69 1171.29,367.35 1182.05,359.5 
			1192.77,367.35 1188.62,354.69 1199.42,346.92 1186.14,346.98 		"/>
	</g>
	<path class="st0" d="M437.77,330.15L332.22,120.6L122.67,226.15l78.98,156.8h-53.76v22.64h288.41v-22.64H332.93L437.77,330.15z
		 M153.07,236.19L322.18,151l85.18,169.12l-124.75,62.84H227L153.07,236.19z"/>
</g>
<g id="Clear_space">
</g>
</svg>
