<?xml version="1.0" encoding="utf-8"?>
<!-- Generator: Adobe Illustrator 27.3.1, SVG Export Plug-In . SVG Version: 6.00 Build 0)  -->
<svg version="1.1" xmlns="http://www.w3.org/2000/svg" xmlns:xlink="http://www.w3.org/1999/xlink" x="0px" y="0px"
	 viewBox="0 0 1676.3 535.98" style="enable-background:new 0 0 1676.3 535.98;" xml:space="preserve">
<style type="text/css">
	.st0{fill:#FFFFFF;}
	.st1{fill:#0C4DA2;}
	.st2{fill:#FFF200;}
	.st3{fill:#D94397;}
</style>
<g id="Elements">
	<g>
		<rect x="1198.15" y="173.74" class="st0" width="355.48" height="237.17"/>
		<rect x="1202.82" y="178.41" class="st1" width="346.16" height="227.83"/>
		<polygon class="st2" points="1375.71,199.52 1379.09,210.04 1390.14,209.99 1381.16,216.44 1384.63,226.95 1375.71,220.41 
			1366.82,226.95 1370.28,216.44 1361.3,209.99 1372.33,210.04 		"/>
		<polygon class="st2" points="1375.71,357.72 1379.09,368.21 1390.14,368.16 1381.16,374.64 1384.63,385.14 1375.71,378.61 
			1366.82,385.14 1370.28,374.64 1361.3,368.16 1372.33,368.21 		"/>
		<polygon class="st2" points="1336.37,210.04 1339.73,220.56 1350.78,220.52 1341.84,226.96 1345.3,237.44 1336.37,230.91 
			1327.48,237.44 1330.92,226.96 1321.99,220.52 1333.03,220.56 		"/>
		<polygon class="st2" points="1307.42,239.08 1310.77,249.59 1321.82,249.52 1312.84,255.99 1316.3,266.48 1307.42,259.94 
			1298.52,266.48 1301.97,255.99 1292.96,249.52 1304.05,249.59 		"/>
		<polygon class="st2" points="1296.73,278.54 1300.07,289.03 1311.14,288.97 1302.17,295.45 1305.59,305.92 1296.73,299.39 
			1287.82,305.92 1291.29,295.45 1282.3,288.97 1293.35,289.03 		"/>
		<polygon class="st2" points="1307.28,317.98 1310.67,328.54 1321.69,328.45 1312.73,334.92 1316.21,345.4 1307.28,338.84 
			1298.38,345.4 1301.86,334.92 1292.87,328.47 1303.92,328.54 		"/>
		<polygon class="st2" points="1336.37,347 1339.73,357.52 1350.78,357.47 1341.84,363.91 1345.3,374.41 1336.37,367.9 
			1327.48,374.41 1330.92,363.91 1321.99,357.47 1333.03,357.52 		"/>
		<polygon class="st2" points="1415.11,210.04 1411.74,220.56 1400.68,220.52 1409.66,226.96 1406.19,237.44 1415.11,230.91 
			1424,237.44 1420.56,226.96 1429.51,220.52 1418.5,220.56 		"/>
		<polygon class="st2" points="1444.08,239.08 1440.71,249.59 1429.66,249.52 1438.62,255.99 1435.15,266.48 1444.08,259.94 
			1453,266.48 1449.53,255.99 1458.47,249.52 1447.44,249.59 		"/>
		<polygon class="st2" points="1454.77,278.54 1451.39,289.03 1440.33,288.97 1449.31,295.45 1445.84,305.92 1454.77,299.39 
			1463.68,305.92 1460.22,295.45 1469.16,288.97 1458.13,289.03 		"/>
		<polygon class="st2" points="1444.16,317.98 1440.83,328.54 1429.77,328.45 1438.76,334.92 1435.28,345.4 1444.16,338.84 
			1453.11,345.4 1449.64,334.92 1458.61,328.47 1447.56,328.54 		"/>
		<polygon class="st2" points="1415.11,347 1411.74,357.52 1400.68,357.47 1409.66,363.91 1406.19,374.41 1415.11,367.9 
			1424,374.41 1420.56,363.91 1429.51,357.47 1418.5,357.52 		"/>
	</g>
	<g>
		<path class="st0" d="M513.19,272.2h-12.02l-3.97,13.95h-19.48l3.85-13.95h-8.66v-16.35h13.34l3.97-14.55H478.8v-16.11h15.99
			l4.21-15.03h19.6l-4.21,15.03h11.9l4.21-15.03h19.48l-4.21,15.03h9.86v16.11H541.2l-3.97,14.55h12.38v16.35h-17.07l-3.85,13.95
			h-19.36L513.19,272.2z M517.76,255.85l4.09-14.55h-12.02l-4.09,14.55H517.76z"/>
		<path class="st0" d="M566.71,206.43h22.6v81.27h-22.6V206.43z"/>
		<path class="st0" d="M598.47,277.37l11.9-15.75c4.93,5.29,12.74,8.66,20.44,8.66c5.05,0,9.98-1.56,9.98-6.49
			c0-5.17-4.45-6.73-12.74-8.42c-17.31-3.49-27.29-10.34-27.29-24.77c0-16.59,15.03-25.61,32.82-25.61
			c12.38,0,22.48,3.49,29.82,10.7l-11.66,15.03c-6.25-4.69-12.14-6.85-17.91-6.85c-5.29,0-9.26,1.56-9.26,5.53
			c0,3.97,3.13,5.89,12.5,7.93c17.91,3.61,27.65,11.78,27.65,26.45c0,16.71-14.79,25.49-34.38,25.49
			C617.11,289.27,605.45,284.1,598.47,277.37z"/>
		<path class="st0" d="M696.03,251.04v36.67h-22.48v-81.15h22.48v35.11l24.04-35.11h25.85l-28.13,39.79l28.97,41.36h-25.85
			L696.03,251.04z"/>
		<path class="st0" d="M745.67,247.19c0-24.41,17.91-42.2,42.44-42.2c24.53,0,42.44,17.67,42.44,41.96
			c0,24.53-17.91,42.32-42.56,42.32C763.59,289.27,745.67,271.6,745.67,247.19z M807.35,247.19c0-12.38-8.05-21.52-19.24-21.52
			c-11.18,0-19.36,9.02-19.36,21.4c0,12.5,8.29,21.52,19.36,21.52C799.29,268.59,807.35,259.45,807.35,247.19z"/>
		<path class="st0" d="M840.98,206.55h34.74c18.88,0,31.26,10.46,31.26,26.33c0,11.9-6.85,20.68-18.27,24.41l19.96,30.42h-25.61
			l-18.27-28.49h-1.32v28.49h-22.48V206.55z M875.12,241.78c5.65,0,9.38-3.37,9.38-8.54c0-4.93-3.73-8.3-9.38-8.3h-11.66v16.83
			H875.12z"/>
		<path class="st0" d="M917.64,206.43h22.6v81.27h-22.6V206.43z"/>
		<path class="st0" d="M949.41,277.37l11.9-15.75c4.93,5.29,12.74,8.66,20.44,8.66c5.05,0,9.98-1.56,9.98-6.49
			c0-5.17-4.45-6.73-12.74-8.42c-17.31-3.49-27.29-10.34-27.29-24.77c0-16.59,15.03-25.61,32.82-25.61
			c12.38,0,22.48,3.49,29.81,10.7l-11.66,15.03c-6.25-4.69-12.14-6.85-17.91-6.85c-5.29,0-9.26,1.56-9.26,5.53
			c0,3.97,3.13,5.89,12.5,7.93c17.91,3.61,27.65,11.78,27.65,26.45c0,16.71-14.79,25.49-34.38,25.49
			C968.04,289.27,956.38,284.1,949.41,277.37z"/>
		<path class="st0" d="M1063.33,227.23v60.47h-22.48v-60.47h-23.08v-20.8h68.53v20.8H1063.33z"/>
		<path class="st0" d="M1092.48,206.43h22.6v81.27h-22.6V206.43z"/>
		<path class="st0" d="M471.95,394.87l11.9-15.75c4.93,5.29,12.74,8.66,20.44,8.66c5.05,0,9.98-1.56,9.98-6.49
			c0-5.17-4.45-6.73-12.74-8.42c-17.31-3.49-27.29-10.34-27.29-24.77c0-16.59,15.03-25.61,32.82-25.61
			c12.38,0,22.48,3.49,29.82,10.7l-11.66,15.03c-6.25-4.69-12.14-6.85-17.91-6.85c-5.29,0-9.26,1.56-9.26,5.53
			c0,3.97,3.13,5.89,12.5,7.93c17.91,3.61,27.65,11.78,27.65,26.45c0,16.71-14.79,25.49-34.38,25.49
			C490.59,406.77,478.92,401.6,471.95,394.87z"/>
		<path class="st0" d="M538.94,324.05h23.56l17.07,56.75h0.24l17.43-56.75h23.32l-27.53,81.15h-26.69L538.94,324.05z"/>
		<path class="st0" d="M619.8,364.69c0-24.41,17.91-42.2,42.44-42.2c24.53,0,42.44,17.67,42.44,41.96
			c0,24.53-17.91,42.32-42.56,42.32C637.71,406.77,619.8,389.1,619.8,364.69z M681.48,364.69c0-12.38-8.05-21.52-19.24-21.52
			c-11.18,0-19.36,9.02-19.36,21.4c0,12.5,8.29,21.52,19.36,21.52C673.42,386.09,681.48,376.95,681.48,364.69z"/>
		<path class="st0" d="M706.17,389.94l17.79-9.98c1.8,3.85,5.29,5.77,9.38,5.77c5.41,0,8.9-3.85,8.9-9.86v-51.94h22.48v51.34
			c0,19.12-11.18,31.5-29.58,31.5C721.44,406.77,711.34,401.24,706.17,389.94z"/>
		<path class="st0" d="M805.48,364.69c0-26.57,19.96-42.2,41.72-42.2c13.46,0,25.37,6.13,32.82,16.23l-15.39,12.86
			c-3.85-5.05-10.82-8.54-17.19-8.54c-9.74,0-19.36,6.61-19.36,21.76c0,14.19,8.78,21.64,19.12,21.64c8.29,0,14.79-4.33,17.67-10.82
			h-19.48v-17.55h42.56v0.12v6.25c0,24.53-16.47,42.32-40.76,42.32C823.15,406.77,805.48,389.94,805.48,364.69z"/>
		<path class="st0" d="M898.16,323.93h22.36v60.71h34.26v20.56h-56.62V323.93z"/>
		<path class="st0" d="M987.65,324.05h27.05l29.81,81.15h-23.44l-5.05-14.79h-30.18l-5.05,14.79h-23.08L987.65,324.05z
			 M1000.88,346.78l-8.54,25.01h17.19l-8.54-25.01H1000.88z"/>
		<path class="st0" d="M1047.01,394.87l11.9-15.75c4.93,5.29,12.74,8.66,20.44,8.66c5.05,0,9.98-1.56,9.98-6.49
			c0-5.17-4.45-6.73-12.74-8.42c-17.31-3.49-27.29-10.34-27.29-24.77c0-16.59,15.03-25.61,32.82-25.61
			c12.38,0,22.48,3.49,29.81,10.7l-11.66,15.03c-6.25-4.69-12.14-6.85-17.91-6.85c-5.29,0-9.26,1.56-9.26,5.53
			c0,3.97,3.13,5.89,12.5,7.93c17.91,3.61,27.65,11.78,27.65,26.45c0,16.71-14.79,25.49-34.38,25.49
			C1065.64,406.77,1053.98,401.6,1047.01,394.87z"/>
	</g>
	<path class="st0" d="M437.77,330.97L332.22,121.42L122.67,226.97l78.98,156.8h-53.76v22.64h288.41v-22.64H332.93L437.77,330.97z
		 M153.07,237l169.12-85.18l85.18,169.12l-124.75,62.84h-55.62L153.07,237z"/>
</g>
<g id="Clear_space">
</g>
</svg>
