<?xml version="1.0" encoding="utf-8"?>
<!-- Generator: Adobe Illustrator 27.3.1, SVG Export Plug-In . SVG Version: 6.00 Build 0)  -->
<svg version="1.1" xmlns="http://www.w3.org/2000/svg" xmlns:xlink="http://www.w3.org/1999/xlink" x="0px" y="0px"
	 viewBox="0 0 1571.22 535.98" style="enable-background:new 0 0 1571.22 535.98;" xml:space="preserve">
<style type="text/css">
	.st0{fill:#FFFFFF;}
	.st1{fill:#0C4DA2;}
	.st2{fill:#FFF200;}
	.st3{fill:#D94397;}
</style>
<g id="Elements">
	<g>
		<path class="st0" d="M513.2,195.48h-12.02l-3.97,13.95h-19.48l3.85-13.95h-8.66v-16.35h13.34l3.97-14.55h-11.42v-16.11h15.99
			l4.21-15.03h19.6l-4.21,15.03h11.9l4.21-15.03h19.48l-4.21,15.03h9.86v16.11h-14.43l-3.97,14.55h12.38v16.35h-17.07l-3.85,13.95
			h-19.36L513.2,195.48z M517.77,179.13l4.09-14.55h-12.02l-4.09,14.55H517.77z"/>
		<path class="st0" d="M566.56,129.72H587L617.42,173v-43.28h22.48v81.27h-19.96l-31.14-44.36v44.36h-22.24V129.72z"/>
		<path class="st0" d="M653.65,179.25v-49.53h22.48v49.65c0,7.33,5.05,12.14,12.62,12.14c7.69,0,12.62-4.81,12.62-12.14v-49.65
			h22.36v49.53c0,19.96-13.95,33.18-34.99,33.18C667.48,212.43,653.65,199.21,653.65,179.25z"/>
		<path class="st0" d="M775.02,150.52v60.47h-22.48v-60.47h-23.08v-20.8h68.53v20.8H775.02z"/>
		<path class="st0" d="M801.53,196.68l35.83-47.85h-34.74v-19.12h64.32v14.31l-35.71,47.97h36.55v19h-66.24V196.68z"/>
		<path class="st0" d="M900.37,160.01h33.66v19.36h-33.66v12.26h39.79v19.36h-61.79v-81.15h60.71v19.48h-38.71V160.01z"/>
		<path class="st0" d="M476.29,226.61h34.62c23.44,0,40.52,17.07,40.52,40.27c0,23.68-17.07,40.88-40.52,40.88h-34.62V226.61z
			 M528.47,267.01c0-11.3-7.81-19.72-18.51-19.72h-11.18v39.91h11.18C520.53,287.21,528.47,278.67,528.47,267.01z"/>
		<path class="st0" d="M583.84,256.79h33.66v19.36h-33.66v12.26h39.79v19.36h-61.79v-81.15h60.71v19.48h-38.71V256.79z"/>
		<path class="st0" d="M635.62,226.49h22.6v81.27h-22.6V226.49z"/>
		<path class="st0" d="M672.55,226.49h20.44l30.42,43.28v-43.28h22.48v81.27h-19.96l-31.14-44.36v44.36h-22.24V226.49z"/>
		<path class="st0" d="M782.46,256.79h33.66v19.36h-33.66v12.26h39.79v19.36h-61.8v-81.15h60.71v19.48h-38.71V256.79z"/>
		<path class="st0" d="M471.96,394.2l11.9-15.75c4.93,5.29,12.74,8.66,20.44,8.66c5.05,0,9.98-1.56,9.98-6.49
			c0-5.17-4.45-6.73-12.74-8.42c-17.31-3.49-27.29-10.34-27.29-24.77c0-16.59,15.03-25.61,32.82-25.61
			c12.38,0,22.48,3.49,29.82,10.7l-11.66,15.03c-6.25-4.69-12.14-6.85-17.91-6.85c-5.29,0-9.26,1.56-9.26,5.53s3.13,5.89,12.5,7.94
			c17.91,3.61,27.65,11.78,27.65,26.45c0,16.71-14.79,25.49-34.38,25.49C490.6,406.1,478.93,400.93,471.96,394.2z"/>
		<path class="st0" d="M585.88,344.07v60.47H563.4v-60.47h-23.08v-20.8h68.53v20.8H585.88z"/>
		<path class="st0" d="M615.04,323.27h22.6v81.27h-22.6V323.27z"/>
		<path class="st0" d="M651.97,323.27h22l20.8,37.99l20.92-37.99h21.88v81.27h-22.6v-43.16l-16.71,31.02h-6.85l-16.95-31.02v43.16
			h-22.48V323.27z"/>
		<path class="st0" d="M752.2,323.27h22l20.8,37.99l20.92-37.99h21.88v81.27h-22.6v-43.16l-16.71,31.02h-6.85l-16.95-31.02v43.16
			H752.2V323.27z"/>
		<path class="st0" d="M874.43,353.57h33.66v19.36h-33.66v12.26h39.79v19.36h-61.79v-81.15h60.71v19.48h-38.71V353.57z"/>
	</g>
	<g>
		<rect x="1019.75" y="125.3" class="st0" width="428.8" height="286.08"/>
		<rect x="1025.37" y="130.93" class="st1" width="417.55" height="274.81"/>
		<polygon class="st2" points="1233.93,156.39 1238,169.08 1251.33,169.02 1240.5,176.81 1244.68,189.48 1233.93,181.6 
			1223.2,189.48 1227.37,176.81 1216.54,169.02 1229.85,169.08 		"/>
		<polygon class="st2" points="1233.93,347.22 1238,359.89 1251.33,359.83 1240.5,367.64 1244.68,380.3 1233.93,372.43 
			1223.2,380.3 1227.37,367.64 1216.54,359.83 1229.85,359.89 		"/>
		<polygon class="st2" points="1186.47,169.08 1190.53,181.77 1203.86,181.73 1193.07,189.5 1197.24,202.14 1186.47,194.27 
			1175.74,202.14 1179.9,189.5 1169.13,181.73 1182.44,181.77 		"/>
		<polygon class="st2" points="1151.55,204.12 1155.6,216.8 1168.92,216.71 1158.09,224.52 1162.26,237.17 1151.55,229.28 
			1140.81,237.17 1144.98,224.52 1134.11,216.71 1147.49,216.8 		"/>
		<polygon class="st2" points="1138.65,251.71 1142.68,264.37 1156.04,264.29 1145.22,272.11 1149.34,284.74 1138.65,276.87 
			1127.91,284.74 1132.1,272.11 1121.25,264.29 1134.58,264.37 		"/>
		<polygon class="st2" points="1151.39,299.29 1155.47,312.03 1168.76,311.92 1157.96,319.72 1162.16,332.36 1151.39,324.45 
			1140.65,332.36 1144.84,319.72 1134,311.94 1147.32,312.03 		"/>
		<polygon class="st2" points="1186.47,334.3 1190.53,346.99 1203.86,346.93 1193.07,354.7 1197.24,367.36 1186.47,359.5 
			1175.74,367.36 1179.9,354.7 1169.13,346.93 1182.44,346.99 		"/>
		<polygon class="st2" points="1281.45,169.08 1277.39,181.77 1264.05,181.73 1274.88,189.5 1270.7,202.14 1281.45,194.27 
			1292.17,202.14 1288.02,189.5 1298.82,181.73 1285.54,181.77 		"/>
		<polygon class="st2" points="1316.4,204.12 1312.34,216.8 1299,216.71 1309.81,224.52 1305.63,237.17 1316.4,229.28 
			1327.15,237.17 1322.97,224.52 1333.75,216.71 1320.45,216.8 		"/>
		<polygon class="st2" points="1329.29,251.71 1325.22,264.37 1311.88,264.29 1322.7,272.11 1318.52,284.74 1329.29,276.87 
			1340.03,284.74 1335.86,272.11 1346.65,264.29 1333.34,264.37 		"/>
		<polygon class="st2" points="1316.49,299.29 1312.47,312.03 1299.13,311.92 1309.98,319.72 1305.77,332.36 1316.49,324.45 
			1327.29,332.36 1323.1,319.72 1333.92,311.94 1320.59,312.03 		"/>
		<polygon class="st2" points="1281.45,334.3 1277.39,346.99 1264.05,346.93 1274.88,354.7 1270.7,367.36 1281.45,359.5 
			1292.17,367.36 1288.02,354.7 1298.82,346.93 1285.54,346.99 		"/>
	</g>
	<path class="st0" d="M437.78,330.15L332.23,120.6L122.68,226.15l78.98,156.8H147.9v22.64H436.3v-22.64H332.94L437.78,330.15z
		 M153.08,236.18L322.19,151l85.18,169.12l-124.75,62.84H227L153.08,236.18z"/>
</g>
<g id="Clear_space">
</g>
</svg>
