<?xml version="1.0" encoding="utf-8"?>
<!-- Generator: Adobe Illustrator 27.3.1, SVG Export Plug-In . SVG Version: 6.00 Build 0)  -->
<svg version="1.1" xmlns="http://www.w3.org/2000/svg" xmlns:xlink="http://www.w3.org/1999/xlink" x="0px" y="0px"
	 viewBox="0 0 1674.4 535.98" style="enable-background:new 0 0 1674.4 535.98;" xml:space="preserve">
<style type="text/css">
	.st0{fill:#FFFFFF;}
	.st1{fill:#0C4DA2;}
	.st2{fill:#FFF200;}
	.st3{fill:#D94397;}
</style>
<g id="Elements">
	<g>
		<g>
			<g>
				<path class="st0" d="M513.19,273.49h-12.02l-3.97,13.95h-19.48l3.85-13.95h-8.66v-16.35h13.34l3.97-14.55H478.8v-16.11h15.99
					l4.21-15.03h19.6l-4.21,15.03h11.9l4.21-15.03h19.48l-4.21,15.03h9.86v16.11H541.2l-3.97,14.55h12.38v16.35h-17.07l-3.85,13.95
					h-19.36L513.19,273.49z M517.76,257.14l4.09-14.55h-12.02l-4.09,14.55H517.76z"/>
				<path class="st0" d="M565.56,257.26v-49.53h22.48v49.65c0,7.33,5.05,12.14,12.62,12.14c7.69,0,12.62-4.81,12.62-12.14v-49.65
					h22.36v49.53c0,19.96-13.95,33.18-34.99,33.18C579.38,290.44,565.56,277.22,565.56,257.26z"/>
				<path class="st0" d="M649.4,207.73h32.34c19.12,0,31.86,10.58,31.86,27.05c0,16.71-12.62,27.89-31.74,27.89h-9.98V289H649.4
					V207.73z M681.14,243.8c6.01,0,9.74-3.49,9.74-8.78c0-5.05-3.85-8.3-9.62-8.3h-9.38v17.07H681.14z"/>
				<path class="st0" d="M719.24,248.48c0-24.41,17.91-42.2,42.44-42.2c24.53,0,42.44,17.67,42.44,41.96
					c0,24.53-17.91,42.32-42.56,42.32C737.15,290.56,719.24,272.89,719.24,248.48z M780.91,248.48c0-12.38-8.06-21.52-19.24-21.52
					s-19.36,9.02-19.36,21.4c0,12.5,8.29,21.52,19.36,21.52C772.86,269.88,780.91,260.75,780.91,248.48z"/>
				<path class="st0" d="M814.54,207.85h34.75c18.88,0,31.26,10.46,31.26,26.33c0,11.9-6.85,20.68-18.27,24.41L882.23,289h-25.61
					l-18.27-28.49h-1.32V289h-22.48V207.85z M848.68,243.07c5.65,0,9.38-3.37,9.38-8.54c0-4.93-3.73-8.29-9.38-8.29h-11.66v16.83
					H848.68z"/>
				<path class="st0" d="M915.93,207.85h27.05L972.79,289h-23.44l-5.05-14.79h-30.18L909.07,289h-23.08L915.93,207.85z
					 M929.15,230.57l-8.54,25.01h17.19l-8.54-25.01H929.15z"/>
				<path class="st0" d="M978.95,207.85h37.99c17.31,0,28.25,7.57,28.25,20.56c0,8.42-4.57,15.15-12.5,18.27
					c9.14,2.77,15.27,9.5,15.27,19.84c0,14.07-11.06,22.48-30.18,22.48h-38.83V207.85z M1014.29,239.71c5.41,0,8.78-2.52,8.78-6.85
					c0-4.45-3.37-6.97-8.9-6.97h-13.58v13.83H1014.29z M1016.1,270.97c6.25,0,9.74-2.76,9.74-7.45c0-4.57-3.61-7.21-9.62-7.21
					h-15.63v14.67H1016.1z"/>
				<path class="st0" d="M1058.66,207.73h22.6V289h-22.6V207.73z"/>
				<path class="st0" d="M471.95,396.16l11.9-15.75c4.93,5.29,12.74,8.66,20.44,8.66c5.05,0,9.98-1.56,9.98-6.49
					c0-5.17-4.45-6.73-12.74-8.42c-17.31-3.49-27.29-10.34-27.29-24.77c0-16.59,15.03-25.61,32.82-25.61
					c12.38,0,22.48,3.49,29.82,10.7l-11.66,15.03c-6.25-4.69-12.14-6.85-17.91-6.85c-5.29,0-9.26,1.56-9.26,5.53
					s3.13,5.89,12.5,7.93c17.91,3.61,27.65,11.78,27.65,26.45c0,16.71-14.79,25.49-34.38,25.49
					C490.59,408.06,478.92,402.89,471.95,396.16z"/>
				<path class="st0" d="M538.94,325.35h23.56l17.07,56.75h0.24l17.43-56.75h23.32l-27.53,81.15h-26.69L538.94,325.35z"/>
				<path class="st0" d="M619.8,365.98c0-24.41,17.91-42.2,42.44-42.2c24.53,0,42.44,17.67,42.44,41.96
					c0,24.53-17.91,42.32-42.56,42.32C637.72,408.06,619.8,390.39,619.8,365.98z M681.48,365.98c0-12.38-8.05-21.52-19.24-21.52
					s-19.36,9.02-19.36,21.4c0,12.5,8.3,21.52,19.36,21.52C673.42,387.38,681.48,378.25,681.48,365.98z"/>
				<path class="st0" d="M706.17,391.23l17.79-9.98c1.8,3.85,5.29,5.77,9.38,5.77c5.41,0,8.9-3.85,8.9-9.86v-51.94h22.48v51.34
					c0,19.12-11.18,31.5-29.58,31.5C721.44,408.06,711.34,402.53,706.17,391.23z"/>
				<path class="st0" d="M805.48,365.98c0-26.57,19.96-42.2,41.72-42.2c13.46,0,25.37,6.13,32.82,16.23l-15.39,12.86
					c-3.85-5.05-10.82-8.54-17.19-8.54c-9.74,0-19.36,6.61-19.36,21.76c0,14.19,8.78,21.64,19.12,21.64
					c8.3,0,14.79-4.33,17.67-10.82h-19.48v-17.55h42.56v0.12v6.25c0,24.53-16.47,42.32-40.76,42.32
					C823.15,408.06,805.48,391.23,805.48,365.98z"/>
				<path class="st0" d="M898.16,325.23h22.36v60.71h34.26v20.56h-56.62V325.23z"/>
				<path class="st0" d="M987.65,325.35h27.05l29.82,81.15h-23.44l-5.05-14.79h-30.18l-5.05,14.79h-23.08L987.65,325.35z
					 M1000.88,348.07l-8.54,25.01h17.19l-8.54-25.01H1000.88z"/>
				<path class="st0" d="M1047.01,396.16l11.9-15.75c4.93,5.29,12.74,8.66,20.44,8.66c5.05,0,9.98-1.56,9.98-6.49
					c0-5.17-4.45-6.73-12.74-8.42c-17.31-3.49-27.29-10.34-27.29-24.77c0-16.59,15.03-25.61,32.82-25.61
					c12.38,0,22.48,3.49,29.82,10.7l-11.66,15.03c-6.25-4.69-12.14-6.85-17.91-6.85c-5.29,0-9.26,1.56-9.26,5.53
					s3.13,5.89,12.5,7.93c17.91,3.61,27.65,11.78,27.65,26.45c0,16.71-14.79,25.49-34.38,25.49
					C1065.64,408.06,1053.98,402.89,1047.01,396.16z"/>
			</g>
		</g>
	</g>
	<g>
		<rect x="1196.25" y="175.04" class="st0" width="355.48" height="237.17"/>
		<rect x="1200.92" y="179.7" class="st1" width="346.16" height="227.83"/>
		<polygon class="st2" points="1373.81,200.81 1377.19,211.33 1388.24,211.28 1379.26,217.74 1382.73,228.24 1373.81,221.7 
			1364.92,228.24 1368.38,217.74 1359.4,211.28 1370.43,211.33 		"/>
		<polygon class="st2" points="1373.81,359.01 1377.19,369.51 1388.24,369.46 1379.26,375.94 1382.73,386.43 1373.81,379.91 
			1364.92,386.43 1368.38,375.94 1359.4,369.46 1370.43,369.51 		"/>
		<polygon class="st2" points="1334.47,211.33 1337.83,221.85 1348.88,221.82 1339.94,228.26 1343.4,238.74 1334.47,232.21 
			1325.58,238.74 1329.02,228.26 1320.09,221.82 1331.13,221.85 		"/>
		<polygon class="st2" points="1305.52,240.38 1308.87,250.89 1319.92,250.81 1310.94,257.29 1314.4,267.77 1305.52,261.23 
			1296.61,267.77 1300.07,257.29 1291.06,250.81 1302.15,250.89 		"/>
		<polygon class="st2" points="1294.83,279.83 1298.17,290.33 1309.24,290.26 1300.27,296.74 1303.69,307.21 1294.83,300.69 
			1285.92,307.21 1289.39,296.74 1280.4,290.26 1291.45,290.33 		"/>
		<polygon class="st2" points="1305.38,319.28 1308.77,329.83 1319.79,329.74 1310.83,336.21 1314.31,346.69 1305.38,340.13 
			1296.48,346.69 1299.96,336.21 1290.97,329.76 1302.02,329.83 		"/>
		<polygon class="st2" points="1334.47,348.3 1337.83,358.82 1348.88,358.77 1339.94,365.21 1343.4,375.7 1334.47,369.19 
			1325.58,375.7 1329.02,365.21 1320.09,358.77 1331.13,358.82 		"/>
		<polygon class="st2" points="1413.21,211.33 1409.84,221.85 1398.78,221.82 1407.76,228.26 1404.29,238.74 1413.21,232.21 
			1422.1,238.74 1418.66,228.26 1427.61,221.82 1416.6,221.85 		"/>
		<polygon class="st2" points="1442.18,240.38 1438.81,250.89 1427.76,250.81 1436.72,257.29 1433.25,267.77 1442.18,261.23 
			1451.1,267.77 1447.63,257.29 1456.57,250.81 1445.54,250.89 		"/>
		<polygon class="st2" points="1452.87,279.83 1449.49,290.33 1438.43,290.26 1447.41,296.74 1443.94,307.21 1452.87,300.69 
			1461.78,307.21 1458.32,296.74 1467.26,290.26 1456.23,290.33 		"/>
		<polygon class="st2" points="1442.26,319.28 1438.93,329.83 1427.87,329.74 1436.86,336.21 1433.38,346.69 1442.26,340.13 
			1451.21,346.69 1447.74,336.21 1456.71,329.76 1445.66,329.83 		"/>
		<polygon class="st2" points="1413.21,348.3 1409.84,358.82 1398.78,358.77 1407.76,365.21 1404.29,375.7 1413.21,369.19 
			1422.1,375.7 1418.66,365.21 1427.61,358.77 1416.6,358.82 		"/>
	</g>
	<path class="st0" d="M437.77,332.04L332.22,122.5L122.67,228.05l78.98,156.8h-53.76v22.64h288.41v-22.64H332.93L437.77,332.04z
		 M153.07,238.08l169.12-85.18l85.18,169.12l-124.75,62.84H227L153.07,238.08z"/>
</g>
<g id="Clear_space">
</g>
</svg>
