<?xml version="1.0" encoding="utf-8"?>
<!-- Generator: Adobe Illustrator 27.6.1, SVG Export Plug-In . SVG Version: 6.00 Build 0)  -->
<svg version="1.1" id="Layer_1" xmlns="http://www.w3.org/2000/svg" xmlns:xlink="http://www.w3.org/1999/xlink" x="0px" y="0px"
	 viewBox="0 0 774 260" style="enable-background:new 0 0 774 260;" xml:space="preserve">
<style type="text/css">
	.st0{fill:#FFFFFF;}
</style>
<path class="st0" d="M67.7,85.8c-7.2,2.4-14.8,3.6-22.4,3.8c-12.8,0-21.5-3.2-27.4-8.8C11.8,75,8.6,66.6,8.6,57.3
	c0.1-22.6,16.9-34.1,38.1-34.1c8.8,0,15.4,1.5,18.8,3.2L62,40.3c-3.7-1.6-8-2.7-15.5-2.7c-10.7,0-19.6,5.6-19.6,18.8
	c0,12.2,7.8,19.2,18.6,19.2c1.8,0,3.6-0.2,5.4-0.6V63.8h-8.7V50.3h25.5L67.7,85.8z"/>
<path class="st0" d="M119.5,62.7H96.1v12h26.2V89H78.6V23.8H121V38H96.1v10.5h23.4L119.5,62.7z"/>
<path class="st0" d="M187,65.7c-0.2-7.4-0.4-16.1-0.3-26.3h-0.3c-2,8.6-4.7,18.4-6.9,25.5l-6.5,22.7h-13.6L154,65
	c-1.6-7.1-3.7-16.7-5.1-25.6h-0.2c-0.4,9.2-0.8,18.8-1.1,26.3l-1,23.3h-16l4-65.1h23.5l4.4,17.5c1.7,7.2,3.7,15.9,5,23.9h0.4
	c1.8-7.9,4-17.1,5.9-24l4.8-17.4h23l3.3,65.1h-17L187,65.7z"/>
<path class="st0" d="M256.4,62.7H233v12h26.2V89h-43.6V23.8h42.3V38H233v10.5h23.4L256.4,62.7z"/>
<path class="st0" d="M286.3,23.8v65.1h-17.5V23.8H286.3z"/>
<path class="st0" d="M298.3,88.9V23.8h20.6l10.3,20c3.9,7.4,7.3,15,10.2,22.8h0.3c-1-9.1-1.4-18.3-1.4-27.4V23.8h15.9v65.1H336
	l-11-21.6c-4.1-7.7-7.8-15.5-11-23.6h-0.3c0.4,8.8,0.6,18.6,0.6,29.2v16L298.3,88.9z"/>
<path class="st0" d="M367.6,71.5c5.3,2.6,11,4,16.9,4.1c6,0,8.9-2,8.9-5.3s-2.9-5-10.2-7.5c-11-3.9-18.3-10-18.3-19.6
	c0-11.5,9.7-20.4,26.1-20.4c6.1-0.2,12.1,1,17.7,3.3l-3.6,14c-4.5-2-9.3-3.1-14.2-3.1c-5.3,0-8.2,1.9-8.2,4.8
	c0,3.3,3.5,4.6,11.7,7.7c11.7,4.2,17,10.5,17,19.6c0,11.2-8.8,20.8-27.8,20.8c-7.8,0-15.5-2-19.1-4L367.6,71.5z"/>
<path class="st0" d="M437.7,73.9L434,88.9h-18l18.9-65.1h23.2l19.4,65.1h-18.9l-4.2-15.1L437.7,73.9z M452.1,60.9l-3-11.7
	c-1-3.7-2.2-9-3.2-12.9h-0.2c-1,3.9-1.9,9.3-2.9,12.9L440,60.9L452.1,60.9z"/>
<path class="st0" d="M540.9,65.7c-0.2-7.4-0.4-16.1-0.3-26.3h-0.3c-2,8.6-4.7,18.4-6.9,25.5L527,87.6h-13.7L507.8,65
	c-1.6-7.1-3.7-16.7-5.1-25.6h-0.2c-0.4,9.2-0.8,18.8-1.1,26.3l-1,23.3h-16l4-65.1h23.5l4.3,17.5c1.7,7.2,3.7,15.9,5,23.9h0.4
	c1.8-7.9,4-17.1,5.9-24l4.8-17.4h23l3.3,65.1h-17L540.9,65.7z"/>
<path class="st0" d="M593.3,23.8h41.8V38h-24.4v12.1h22.9v14.1h-22.9v24.7h-17.5V23.8z"/>
<path class="st0" d="M663.4,23.8v36.9c0,9.9,3.4,15.5,10.2,15.5S684,71.1,684,60.7V23.8h17.5v35.9c0,20.1-10,30.2-28.3,30.2
	c-17.9,0-27.2-9.8-27.2-30.7V23.8H663.4z M656.5,13c0-4,3.3-7.3,7.3-7.3c0.1,0,0.2,0,0.2,0c3.9,0,7.1,3.2,7.1,7.1c0,0.1,0,0.1,0,0.2
	c0.1,4-3,7.3-7,7.4c0,0,0,0,0,0C659.9,20.5,656.6,17.2,656.5,13C656.5,13,656.5,13,656.5,13z M677.6,13c-0.1-4,3-7.4,7-7.6
	c4-0.1,7.4,3,7.6,7c0,0.2,0,0.4,0,0.5c0.1,4-3,7.4-7,7.6c-4,0.1-7.4-3-7.6-7C677.6,13.4,677.6,13.2,677.6,13z"/>
<path class="st0" d="M713.3,24.7c7-1,14-1.4,21.1-1.3c9.9,0,17.1,1.3,22,5c4.2,3.2,6.5,7.8,6.5,14.2c0,8.1-6.1,13.9-11.2,15.8v0.4
	c4.3,1.8,6.7,6,8.3,11.6c2,6.7,4.2,16.1,5.4,18.6h-17.8c-1-1.9-2.6-7-4.5-15c-1.7-7.8-4.2-9.5-9.6-9.5h-2.8v24.4h-17.3V24.7z
	 M730.6,52h4.5c6.6,0,10.3-3.3,10.3-8.1s-3.2-7.6-9-7.7c-2-0.1-3.9,0.1-5.9,0.4L730.6,52z"/>
<path class="st0" d="M472.6,158.3c-2.4-0.1-4.8,0.1-7.1,0.5v18.7h5.5c8,0,12.5-4,12.5-9.8S479.7,158.4,472.6,158.3z"/>
<path class="st0" d="M319.1,158.8c-10.1,0-16.5,9.6-16.5,24.1c0,14.7,6.4,23.9,16.6,23.9s16.1-10,16.1-24.1
	C335.4,169.1,329.3,158.8,319.1,158.8z"/>
<path class="st0" d="M548.6,158.5h-0.2c-1.2,4.7-2.3,11.2-3.5,15.7l-3.4,14h14.6l-3.6-14.1C551.3,169.7,549.7,163.2,548.6,158.5z"/>
<path class="st0" d="M5.8,112.9v140.7h762.3V112.9H5.8z M92.8,213.3c-8.7,6.8-21.5,9.7-37,9.7c-10.2,0-17-0.6-21.1-1.3v-77.3
	c8.3-1.2,16.7-1.7,25.1-1.6c15.1,0,24.6,2.4,32.4,7.8c8.7,6,14.3,15.8,14.3,30.3C106.6,196.9,100.5,207.3,92.8,213.3z M170.7,222.2
	h-52.9v-78.9H169v17.2h-30v12.8h28.3v17.1H139v14.5h31.7L170.7,222.2z M250,222.2l-0.9-28.2c-0.2-9-0.5-19.5-0.4-31.8h-0.4
	c-2.5,10.4-5.7,22.2-8.3,30.9l-7.8,27.5h-16.5l-6.7-27.4c-2-8.5-4.4-20.2-6.2-31h-0.2c-0.5,11.1-0.9,22.8-1.3,31.8l-1.2,28.2h-19.4
	l4.8-78.9H214l5.3,21.2c2.1,8.8,4.5,19.3,6.1,28.9h0.5c2.2-9.6,4.8-20.7,7.1-29l5.9-21.1h27.9l4,78.9L250,222.2z M318.2,223.5
	c-24.5,0-37.9-18.4-37.9-40.2c0-22.9,15.1-41.2,39.2-41.2c25.4,0,38.3,18.8,38.3,39.9C357.8,207.3,342.5,223.5,318.2,223.5
	L318.2,223.5z M412.9,222.2l-16.6-31.9l-6.3,8.1v23.9H369v-78.9h21v33.5h0.2c1.6-2.9,3.4-5.9,5.1-8.7l15.1-24.8h26l-25,33.6l26,45.3
	L412.9,222.2z M486,222.2c-1.2-2.3-3.2-8.4-5.5-18.1c-2.1-9.5-5-11.5-11.6-11.5h-3.4v29.6h-21v-77.8c8.5-1.2,17-1.7,25.5-1.6
	c12,0,20.7,1.6,26.7,6.1c5,3.9,7.8,9.5,7.8,17.2c0,9.8-7.4,16.9-13.6,19.1v0.5c5.3,2.2,8.1,7.3,10.1,14c2.5,8.1,5,19.5,6.5,22.6
	L486,222.2z M564,222.2l-5-18.2h-20.3l-4.5,18.2h-21.9l22.9-78.9h28.1l23.5,78.9H564z M643.8,161h-20.4v61.2h-21.2V161H582v-17.7
	h61.8L643.8,161z M674.6,222.2h-21.1v-78.9h21.2L674.6,222.2z M742,222.2h-52.8v-78.9h51.2v17.2h-30.1v12.8h28.3v17.1h-28.3v14.5
	h31.7L742,222.2z"/>
<path class="st0" d="M62.3,158.9c-2.2-0.1-4.3,0.1-6.4,0.5v47c1.5,0.2,3,0.3,4.4,0.2c13.7,0.2,23.8-7.4,23.8-25.1
	C84.1,166.2,75,158.9,62.3,158.9z"/>
</svg>
