<?xml version="1.0" encoding="utf-8"?>
<!-- Generator: Adobe Illustrator 27.7.0, SVG Export Plug-In . SVG Version: 6.00 Build 0)  -->
<svg version="1.1" id="Camada_1" xmlns="http://www.w3.org/2000/svg" xmlns:xlink="http://www.w3.org/1999/xlink" x="0px" y="0px"
	 viewBox="0 0 1431 289.5" style="enable-background:new 0 0 1431 289.5;" xml:space="preserve">
<style type="text/css">
	.st0{fill:#FFFFFF;}
	.st1{fill:#0C4DA2;}
	.st2{fill:#FFF200;}
</style>
<g id="Elements">
	<g>
		<rect x="1075.5" y="52.3" class="st0" width="355.5" height="237.2"/>
		<rect x="1080.1" y="57" class="st1" width="346.2" height="227.8"/>
		<polygon class="st2" points="1253,78.1 1256.4,88.6 1267.5,88.6 1258.5,95 1262,105.5 1253,99 1244.1,105.5 1247.6,95 
			1238.6,88.6 1249.7,88.6 		"/>
		<polygon class="st2" points="1253,236.3 1256.4,246.8 1267.5,246.7 1258.5,253.2 1262,263.7 1253,257.2 1244.1,263.7 
			1247.6,253.2 1238.6,246.7 1249.7,246.8 		"/>
		<polygon class="st2" points="1213.7,88.6 1217.1,99.1 1228.1,99.1 1219.2,105.5 1222.6,116 1213.7,109.5 1204.8,116 1208.2,105.5 
			1199.3,99.1 1210.4,99.1 		"/>
		<polygon class="st2" points="1184.8,117.7 1188.1,128.2 1199.1,128.1 1190.2,134.6 1193.6,145.1 1184.8,138.5 1175.8,145.1 
			1179.3,134.6 1170.3,128.1 1181.4,128.2 		"/>
		<polygon class="st2" points="1174.1,157.1 1177.4,167.6 1188.5,167.6 1179.5,174 1182.9,184.5 1174.1,178 1165.1,184.5 
			1168.6,174 1159.6,167.6 1170.7,167.6 		"/>
		<polygon class="st2" points="1184.6,196.6 1188,207.1 1199,207 1190.1,213.5 1193.5,224 1184.6,217.4 1175.7,224 1179.2,213.5 
			1170.2,207.1 1181.2,207.1 		"/>
		<polygon class="st2" points="1213.7,225.6 1217.1,236.1 1228.1,236.1 1219.2,242.5 1222.6,253 1213.7,246.5 1204.8,253 
			1208.2,242.5 1199.3,236.1 1210.4,236.1 		"/>
		<polygon class="st2" points="1292.4,88.6 1289.1,99.1 1278,99.1 1287,105.5 1283.5,116 1292.4,109.5 1301.3,116 1297.9,105.5 
			1306.8,99.1 1295.8,99.1 		"/>
		<polygon class="st2" points="1321.4,117.7 1318,128.2 1307,128.1 1315.9,134.6 1312.5,145.1 1321.4,138.5 1330.3,145.1 
			1326.9,134.6 1335.8,128.1 1324.8,128.2 		"/>
		<polygon class="st2" points="1332.1,157.1 1328.7,167.6 1317.7,167.6 1326.6,174 1323.2,184.5 1332.1,178 1341,184.5 1337.5,174 
			1346.5,167.6 1335.5,167.6 		"/>
		<polygon class="st2" points="1321.5,196.6 1318.2,207.1 1307.1,207 1316.1,213.5 1312.6,224 1321.5,217.4 1330.4,224 1327,213.5 
			1335.9,207.1 1324.9,207.1 		"/>
		<polygon class="st2" points="1292.4,225.6 1289.1,236.1 1278,236.1 1287,242.5 1283.5,253 1292.4,246.5 1301.3,253 1297.9,242.5 
			1306.8,236.1 1295.8,236.1 		"/>
	</g>
	<g>
		<path class="st1" d="M390.5,150.8h-12l-4,14H355l3.9-14h-8.7v-16.4h13.3l4-14.6h-11.4v-16.1h16l4.2-15h19.6l-4.2,15h11.9l4.2-15
			h19.5l-4.2,15h9.9v16.1h-14.4l-4,14.6h12.4v16.4h-17.1l-3.8,14h-19.4L390.5,150.8z M395.1,134.4l4.1-14.6h-12l-4.1,14.6H395.1z"/>
		<path class="st1" d="M444,85h22.6v81.3H444V85z"/>
		<path class="st1" d="M475.8,155.9l11.9-15.8c4.9,5.3,12.7,8.7,20.4,8.7c5,0,10-1.6,10-6.5c0-5.2-4.5-6.7-12.7-8.4
			c-17.3-3.5-27.3-10.3-27.3-24.8c0-16.6,15-25.6,32.8-25.6c12.4,0,22.5,3.5,29.8,10.7l-11.7,15c-6.2-4.7-12.1-6.9-17.9-6.9
			c-5.3,0-9.3,1.6-9.3,5.5s3.1,5.9,12.5,7.9c17.9,3.6,27.7,11.8,27.7,26.5c0,16.7-14.8,25.5-34.4,25.5
			C494.4,167.8,482.8,162.7,475.8,155.9z"/>
		<path class="st1" d="M573.4,129.6v36.7h-22.5V85.1h22.5v35.1l24-35.1h25.8l-28.1,39.8l29,41.4h-25.8L573.4,129.6z"/>
		<path class="st1" d="M623,125.8c0-24.4,17.9-42.2,42.4-42.2s42.4,17.7,42.4,42c0,24.5-17.9,42.3-42.6,42.3
			C640.9,167.8,623,150.2,623,125.8z M684.7,125.8c0-12.4-8-21.5-19.2-21.5c-11.2,0-19.4,9-19.4,21.4c0,12.5,8.3,21.5,19.4,21.5
			C676.6,147.2,684.7,138,684.7,125.8z"/>
		<path class="st1" d="M718.3,85.1H753c18.9,0,31.3,10.5,31.3,26.3c0,11.9-6.8,20.7-18.3,24.4l20,30.4h-25.6l-18.3-28.5h-1.3v28.5
			h-22.5L718.3,85.1L718.3,85.1z M752.5,120.4c5.7,0,9.4-3.4,9.4-8.5c0-4.9-3.7-8.3-9.4-8.3h-11.7v16.8L752.5,120.4L752.5,120.4z"/>
		<path class="st1" d="M795,85h22.6v81.3H795V85z"/>
		<path class="st1" d="M826.7,155.9l11.9-15.8c4.9,5.3,12.7,8.7,20.4,8.7c5,0,10-1.6,10-6.5c0-5.2-4.5-6.7-12.7-8.4
			c-17.3-3.5-27.3-10.3-27.3-24.8c0-16.6,15-25.6,32.8-25.6c12.4,0,22.5,3.5,29.8,10.7l-11.7,15c-6.2-4.7-12.1-6.9-17.9-6.9
			c-5.3,0-9.3,1.6-9.3,5.5s3.1,5.9,12.5,7.9c17.9,3.6,27.7,11.8,27.7,26.5c0,16.7-14.8,25.5-34.4,25.5
			C845.4,167.8,833.7,162.7,826.7,155.9z"/>
		<path class="st1" d="M940.7,105.8v60.5h-22.5v-60.5h-23.1V85h68.5v20.8L940.7,105.8L940.7,105.8z"/>
		<path class="st1" d="M969.8,85h22.6v81.3h-22.6V85z"/>
		<path class="st1" d="M349.3,273.5l11.9-15.8c4.9,5.3,12.7,8.7,20.4,8.7c5,0,10-1.6,10-6.5c0-5.2-4.5-6.7-12.7-8.4
			c-17.3-3.5-27.3-10.3-27.3-24.8c0-16.6,15-25.6,32.8-25.6c12.4,0,22.5,3.5,29.8,10.7l-11.7,15c-6.2-4.7-12.1-6.9-17.9-6.9
			c-5.3,0-9.3,1.6-9.3,5.5s3.1,5.9,12.5,7.9c17.9,3.6,27.7,11.8,27.7,26.4c0,16.7-14.8,25.5-34.4,25.5
			C367.9,285.3,356.2,280.2,349.3,273.5z"/>
		<path class="st1" d="M416.3,202.6h23.6l17.1,56.8h0.2l17.4-56.8h23.3l-27.5,81.1h-26.7L416.3,202.6z"/>
		<path class="st1" d="M497.1,243.3c0-24.4,17.9-42.2,42.4-42.2s42.4,17.7,42.4,42c0,24.5-17.9,42.3-42.6,42.3
			C515,285.3,497.1,267.7,497.1,243.3z M558.8,243.3c0-12.4-8-21.5-19.2-21.5c-11.2,0-19.4,9-19.4,21.4c0,12.5,8.3,21.5,19.4,21.5
			C550.8,264.7,558.8,255.5,558.8,243.3z"/>
		<path class="st1" d="M583.5,268.5l17.8-10c1.8,3.9,5.3,5.8,9.4,5.8c5.4,0,8.9-3.9,8.9-9.9v-51.9H642v51.3
			c0,19.1-11.2,31.5-29.6,31.5C598.8,285.3,588.7,279.8,583.5,268.5z"/>
		<path class="st1" d="M682.8,243.3c0-26.6,20-42.2,41.7-42.2c13.5,0,25.4,6.1,32.8,16.2L742,230.2c-3.8-5-10.8-8.5-17.2-8.5
			c-9.7,0-19.4,6.6-19.4,21.8c0,14.2,8.8,21.6,19.1,21.6c8.3,0,14.8-4.3,17.7-10.8h-19.5v-17.5h42.6v0.1v6.2
			c0,24.5-16.5,42.3-40.8,42.3C700.5,285.3,682.8,268.5,682.8,243.3z"/>
		<path class="st1" d="M775.5,202.5h22.4v60.7h34.3v20.6h-56.6V202.5z"/>
		<path class="st1" d="M865,202.6h27l29.8,81.1h-23.4l-5-14.8h-30.2l-5,14.8H835L865,202.6z M878.2,225.4l-8.5,25h17.2l-8.5-25
			H878.2z"/>
		<path class="st1" d="M924.3,273.5l11.9-15.8c4.9,5.3,12.7,8.7,20.4,8.7c5.1,0,10-1.6,10-6.5c0-5.2-4.4-6.7-12.7-8.4
			c-17.3-3.5-27.3-10.3-27.3-24.8c0-16.6,15-25.6,32.8-25.6c12.4,0,22.5,3.5,29.8,10.7l-11.7,15c-6.2-4.7-12.1-6.9-17.9-6.9
			c-5.3,0-9.3,1.6-9.3,5.5s3.1,5.9,12.5,7.9c17.9,3.6,27.7,11.8,27.7,26.4c0,16.7-14.8,25.5-34.4,25.5
			C943,285.3,931.3,280.2,924.3,273.5z"/>
	</g>
	<path class="st1" d="M315.1,209.6L209.6,0L0,105.6l79,156.8H25.2V285h288.4v-22.6H210.3L315.1,209.6z M30.4,115.6l169.1-85.2
		l85.2,169.1l-124.8,62.8h-55.6L30.4,115.6z"/>
</g>
<g id="Clear_space">
</g>
</svg>
