<?xml version="1.0" encoding="UTF-8"?><svg id="ES" xmlns="http://www.w3.org/2000/svg" viewBox="0 0 188.61 62.38"><defs><style>.cls-1{fill:#224e9c;stroke-width:0px;}</style></defs><path class="cls-1" d="m3.59,15.67H.56v-2.66h9.3v2.66h-3.08v9.21h-3.19v-9.21Z"/><path class="cls-1" d="m21.96,18.82c0,3.82-2.29,6.25-5.95,6.25s-5.71-2.77-5.71-6.06,2.27-6.2,5.9-6.2c3.82,0,5.76,2.84,5.76,6.01Zm-8.3.14c0,2.22.97,3.59,2.5,3.59s2.43-1.5,2.43-3.63-.92-3.59-2.45-3.59-2.47,1.44-2.47,3.63h-.02Z"/><path class="cls-1" d="m23.65,13.17c1.26-.17,2.53-.25,3.79-.24,2.27,0,3.7.37,4.88,1.19,1.3.9,2.15,2.37,2.15,4.56,0,2.41-.92,3.98-2.08,4.88-1.3,1.02-3.24,1.46-5.57,1.46-1.06.02-2.12-.04-3.17-.19v-11.66Zm3.19,9.34c.22.03.45.04.67.04,2.06.04,3.58-1.11,3.58-3.79,0-2.31-1.37-3.4-3.28-3.4-.32,0-.65.01-.97.07v7.09Z"/><path class="cls-1" d="m47.32,18.82c0,3.82-2.29,6.25-5.95,6.25s-5.71-2.77-5.71-6.06,2.27-6.2,5.9-6.2c3.82,0,5.76,2.84,5.76,6.01Zm-8.3.14c0,2.22.97,3.59,2.5,3.59s2.43-1.5,2.43-3.63-.92-3.59-2.45-3.59-2.48,1.44-2.48,3.63h0Z"/><path class="cls-1" d="m49.23,21.71c.96.47,2.01.73,3.08.74,1.09,0,1.62-.37,1.62-.97s-.53-.92-1.87-1.37c-2.01-.71-3.32-1.81-3.32-3.58,0-2.1,1.76-3.72,4.76-3.72,1.11-.03,2.21.18,3.22.62l-.67,2.53c-.81-.37-1.7-.56-2.59-.56-.97,0-1.5.35-1.5.88,0,.6.64.85,2.13,1.41,2.13.78,3.1,1.92,3.1,3.58,0,2.04-1.6,3.79-5.07,3.79-1.42,0-2.82-.37-3.49-.71l.59-2.64Z"/><path class="cls-1" d="m64.66,13.01h3.19v7.33c0,3.45-1.66,4.74-4.51,4.74-.71,0-1.41-.09-2.1-.28l.33-2.56c.45.12.92.19,1.39.19,1.02,0,1.69-.46,1.69-2.09v-7.33Z"/><path class="cls-1" d="m73.11,13.01v6.73c0,1.8.62,2.82,1.87,2.82s1.88-.93,1.88-2.82v-6.73h3.19v6.54c0,3.66-1.83,5.51-5.16,5.51s-4.97-1.78-4.97-5.6v-6.46h3.19Z"/><path class="cls-1" d="m82.2,24.88v-11.87h3.75l1.88,3.65c.71,1.34,1.34,2.73,1.87,4.16h.05c-.17-1.66-.25-3.33-.24-5v-2.8h2.91v11.87h-3.35l-2.01-3.95c-.75-1.39-1.42-2.83-2.01-4.3h-.05c.07,1.6.11,3.4.11,5.32v2.92h-2.91Z"/><path class="cls-1" d="m96.94,15.67h-3.03v-2.66h9.3v2.66h-3.08v9.21h-3.19v-9.21Z"/><path class="cls-1" d="m115.31,18.82c0,3.82-2.29,6.25-5.95,6.25s-5.71-2.77-5.71-6.06,2.27-6.2,5.9-6.2c3.82,0,5.76,2.84,5.76,6.01Zm-8.3.14c0,2.22.97,3.59,2.5,3.59s2.43-1.5,2.43-3.63-.92-3.59-2.45-3.59-2.48,1.44-2.48,3.63h0Z"/><path class="cls-1" d="m117.21,21.71c.96.47,2.01.73,3.08.74,1.09,0,1.62-.37,1.62-.97s-.53-.92-1.87-1.37c-2.01-.71-3.32-1.81-3.32-3.58,0-2.1,1.76-3.72,4.75-3.72,1.11-.03,2.21.18,3.22.62l-.67,2.53c-.81-.37-1.69-.56-2.59-.56-.97,0-1.5.35-1.5.88,0,.6.64.85,2.13,1.41,2.13.78,3.1,1.92,3.1,3.58,0,2.04-1.6,3.79-5.07,3.79-1.42,0-2.82-.37-3.49-.71l.59-2.64Z"/><path class="cls-1" d="m130.37,13.17c1.3-.18,2.61-.26,3.93-.24,1.71,0,2.92.3,3.75.93.88.69,1.38,1.75,1.36,2.87,0,1.19-.41,2.26-1.15,2.92-.97.86-2.36,1.23-3.96,1.23-.3,0-.58-.02-.78-.04v4.03h-3.15v-11.72Zm3.15,5.25c.24.02.48.04.72.04,1.25,0,2.03-.64,2.03-1.66,0-.88-.6-1.48-1.8-1.48-.32,0-.64.02-.95.07v3.04Z"/><path class="cls-1" d="m152.14,18.82c0,3.82-2.29,6.25-5.95,6.25s-5.71-2.77-5.71-6.06,2.27-6.2,5.9-6.2c3.82,0,5.76,2.84,5.76,6.01Zm-8.3.14c0,2.22.97,3.59,2.5,3.59s2.43-1.5,2.43-3.63-.92-3.59-2.45-3.59-2.47,1.44-2.47,3.63h-.01Z"/><path class="cls-1" d="m153.83,13.17c1.27-.17,2.56-.25,3.84-.24,1.81,0,3.12.24,4.02.92.76.58,1.19,1.42,1.19,2.59-.03,1.28-.84,2.42-2.04,2.87v.07c.79.33,1.21,1.09,1.51,2.11.37,1.22.76,2.94.99,3.4h-3.27c-.18-.35-.47-1.27-.83-2.73s-.76-1.73-1.74-1.73h-.51v4.46h-3.15v-11.72Zm3.15,4.98h.83c1.19,0,1.89-.6,1.89-1.48s-.58-1.39-1.64-1.41c-.36-.01-.72.01-1.07.07v2.82Z"/><path class="cls-1" d="m168.19,13.01h3.19v9.21h4.56v2.66h-7.75v-11.87Z"/><path class="cls-1" d="m180.73,22.13l-.67,2.75h-3.29l3.45-11.87h4.23l3.54,11.87h-3.43l-.76-2.75h-3.07Zm2.62-2.36l-.55-2.13c-.18-.67-.41-1.64-.58-2.34h-.03c-.18.71-.35,1.69-.53,2.36l-.51,2.12h2.2Z"/><path class="cls-1" d="m75.88,41.29c-2.39,0-3.91,2.27-3.91,5.71s1.53,5.66,3.94,5.66,3.83-2.36,3.83-5.71c0-3.21-1.44-5.66-3.86-5.66Z"/><path class="cls-1" d="m129.06,41.24h-.06c-.28,1.11-.55,2.67-.83,3.72l-.8,3.32h3.47l-.86-3.35c-.28-1.05-.64-2.58-.92-3.69Z"/><path class="cls-1" d="m172.14,41.24h-.05c-.28,1.11-.55,2.67-.83,3.72l-.81,3.32h3.47l-.86-3.35c-.27-1.05-.64-2.58-.92-3.69Z"/><path class="cls-1" d="m14.98,41.32c-.51-.01-1.02.02-1.52.11v11.14c.35.05.7.07,1.06.05,3.24.06,5.63-1.75,5.63-5.96,0-3.63-2.16-5.35-5.16-5.35Z"/><path class="cls-1" d="m.19,30.41v33.36h188.22V30.41H.19Zm22.01,23.81c-2.05,1.61-5.11,2.3-8.77,2.3-2.41,0-4.03-.14-4.99-.3v-18.34c1.98-.28,3.97-.41,5.97-.39,3.58,0,5.83.58,7.69,1.86,2.05,1.42,3.38,3.74,3.38,7.18,0,3.8-1.44,6.27-3.27,7.69Zm18.47,2.11h-12.53v-18.7h12.15v4.08h-7.14v3.03h6.71v4.05h-6.71v3.44h7.52v4.1Zm18.81,0l-.22-6.68c-.05-2.13-.11-4.63-.08-7.55h-.08c-.58,2.47-1.36,5.27-1.97,7.32l-1.86,6.52h-3.91l-1.58-6.49c-.47-2.03-1.06-4.8-1.47-7.35h-.05c-.11,2.64-.22,5.41-.31,7.55l-.28,6.68h-4.6l1.14-18.7h6.74l1.25,5.02c.5,2.08,1.05,4.58,1.44,6.85h.12c.53-2.27,1.14-4.91,1.69-6.88l1.39-5h6.6l.95,18.7h-4.9Zm16.17.31c-5.8,0-8.99-4.36-8.99-9.54s3.58-9.76,9.3-9.76c6.02,0,9.07,4.47,9.07,9.46,0,6.02-3.61,9.85-9.38,9.85h0Zm22-4.16c1.14,0,2.28-.19,3.36-.55l.69,3.94c-.71.33-2.47.75-4.72.75-6.99,0-10.07-4.35-10.07-9.32,0-6.6,4.83-9.96,10.4-9.96,2.16,0,3.91.41,4.69.83l-.97,3.94c-1.1-.45-2.28-.67-3.47-.67-2.89,0-5.38,1.69-5.38,5.52,0,3.41,2.03,5.52,5.47,5.52h0Zm16.56,3.86c-.28-.55-.75-2-1.3-4.3-.5-2.25-1.19-2.72-2.75-2.72h-.8v7.02h-4.96v-18.45c2-.28,4.02-.41,6.05-.39,2.86,0,4.91.39,6.33,1.44,1.19.92,1.86,2.25,1.86,4.08,0,2.33-1.75,4-3.22,4.52v.11c1.25.53,1.91,1.72,2.39,3.32.58,1.92,1.19,4.63,1.55,5.35h-5.13Zm18.5,0l-1.19-4.33h-4.83l-1.05,4.33h-5.19l5.44-18.7h6.66l5.58,18.7h-5.42Zm16.95-3.86c1.14,0,2.28-.19,3.36-.55l.69,3.94c-.71.33-2.47.75-4.72.75-6.99,0-10.07-4.35-10.07-9.32,0-6.6,4.83-9.96,10.4-9.96,2.16,0,3.91.41,4.69.83l-.97,3.94c-1.1-.45-2.28-.67-3.47-.67-2.89,0-5.38,1.69-5.38,5.52,0,3.41,2.03,5.52,5.48,5.52h0Zm11.76,3.86h-5v-18.7h5.02l-.02,18.7Zm14.37,0l-1.19-4.33h-4.83l-1.06,4.33h-5.19l5.45-18.7h6.64l5.58,18.7h-5.41Z"/><path class="cls-1" d="m111.06,41.18c-.57-.02-1.13.02-1.69.11v4.44h1.3c1.9,0,2.97-.95,2.97-2.33s-.91-2.19-2.57-2.22Z"/></svg>