<?xml version="1.0" encoding="UTF-8"?><svg id="SL" xmlns="http://www.w3.org/2000/svg" viewBox="0 0 188.61 54.89"><defs><style>.cls-1{fill:#224e9c;stroke-width:0px;}</style></defs><path class="cls-1" d="m15.21,14.61c1.18.58,2.48.89,3.8.91,1.35,0,2-.46,2-1.2s-.66-1.13-2.31-1.7c-2.48-.87-4.11-2.24-4.11-4.42,0-2.59,2.17-4.59,5.87-4.59,1.77,0,3,.32,3.98.76l-.83,3.13c-1-.46-2.09-.7-3.2-.7-1.2,0-1.85.44-1.85,1.09,0,.74.78,1.04,2.63,1.74,2.63.96,3.83,2.37,3.83,4.42,0,2.52-1.99,4.67-6.26,4.67-1.77,0-3.48-.46-4.31-.88l.74-3.24Z"/><path class="cls-1" d="m27.15,3.87h3.89v6.22h.04c.3-.54.63-1.09.96-1.61l2.8-4.61h4.83l-4.65,6.25,4.83,8.42h-4.54l-3.09-5.94-1.17,1.5v4.44h-3.89V3.87Z"/><path class="cls-1" d="m45.11,3.87v8.31c0,2.21.76,3.48,2.3,3.48s2.33-1.15,2.33-3.48V3.87h3.94v8.09c0,4.52-2.26,6.81-6.37,6.81s-6.13-2.2-6.13-6.91V3.87h3.94Z"/><path class="cls-1" d="m56.35,4.06c1.61-.23,3.23-.33,4.86-.3,2.11,0,3.61.37,4.64,1.15,1.08.85,1.7,2.16,1.67,3.53,0,1.48-.5,2.78-1.41,3.61-1.2,1.06-2.91,1.52-4.89,1.52-.37,0-.72-.02-.96-.04v4.98h-3.91V4.06Zm3.89,6.48c.29.03.59.05.88.04,1.55,0,2.5-.78,2.5-2.05,0-1.09-.74-1.82-2.21-1.82-.39-.01-.79.02-1.18.08v3.74Z"/><path class="cls-1" d="m72.2,15.13l-.83,3.39h-4.06l4.26-14.66h5.21l4.37,14.66h-4.24l-.93-3.39h-3.78Zm3.24-2.91l-.67-2.63c-.22-.83-.5-2.02-.72-2.89h-.04c-.22.87-.44,2.09-.65,2.91l-.63,2.61h2.72Z"/><path class="cls-1" d="m86.09,3.87h3.93v9.05c0,4.26-2.04,5.85-5.57,5.85-.87,0-1.75-.11-2.59-.35l.41-3.15c.56.15,1.14.23,1.72.24,1.26,0,2.09-.57,2.09-2.59V3.87Z"/><path class="cls-1" d="m92.87,14.61c1.19.58,2.49.9,3.81.91,1.35,0,2-.46,2-1.2s-.66-1.13-2.31-1.7c-2.48-.87-4.11-2.24-4.11-4.42,0-2.59,2.17-4.59,5.87-4.59,1.77,0,3,.32,3.98.76l-.83,3.13c-1-.46-2.09-.7-3.2-.7-1.2,0-1.85.44-1.85,1.09,0,.74.78,1.04,2.63,1.74,2.63.96,3.83,2.37,3.83,4.42,0,2.52-1.99,4.67-6.26,4.67-1.77,0-3.48-.46-4.31-.88l.73-3.24Z"/><path class="cls-1" d="m117.21,13.28c-.04-1.67-.09-3.63-.07-5.91h-.06c-.46,1.94-1.07,4.13-1.55,5.74l-1.46,5.11h-3.06l-1.24-5.08c-.37-1.59-.83-3.76-1.15-5.76h-.04c-.09,2.07-.17,4.24-.24,5.91l-.22,5.24h-3.61l.88-14.66h5.28l.98,3.94c.39,1.63.83,3.59,1.13,5.37h.09c.41-1.78.88-3.85,1.33-5.39l1.09-3.91h5.17l.75,14.65h-3.83l-.17-5.24Z"/><path class="cls-1" d="m137.4,11.04c0,4.72-2.83,7.73-7.35,7.73s-7.04-3.42-7.04-7.48c0-4.26,2.81-7.65,7.29-7.65,4.71-.01,7.1,3.49,7.1,7.4Zm-10.23.18c0,2.74,1.2,4.44,3.09,4.44s3-1.85,3-4.48-1.13-4.44-3.02-4.44-3.07,1.78-3.07,4.48Z"/><path class="cls-1" d="m142.9,16.44l6.48-9.24v-.09h-5.86v-3.24h10.96v2.24l-6.29,9.09v.09h6.39v3.24h-11.68v-2.09Z"/><path class="cls-1" d="m160.69,15.13l-.83,3.39h-4.07l4.26-14.66h5.22l4.37,14.66h-4.24l-.94-3.39h-3.78Zm3.24-2.91l-.66-2.63c-.22-.83-.5-2.02-.72-2.89h-.04c-.22.87-.44,2.09-.66,2.91l-.63,2.61h2.71Z"/><path class="cls-1" d="m120.74,33.85h-.05c-.26,1.03-.51,2.48-.77,3.46l-.75,3.09h3.23l-.8-3.12c-.26-.98-.6-2.4-.85-3.44Z"/><path class="cls-1" d="m103.96,33.8c-.53-.02-1.06.02-1.58.1v4.14h1.21c1.77,0,2.77-.88,2.77-2.17s-.84-2.04-2.4-2.07Z"/><path class="cls-1" d="m70.06,33.9c-2.22,0-3.64,2.12-3.64,5.32s1.42,5.27,3.67,5.27,3.57-2.2,3.57-5.32c0-2.99-1.35-5.27-3.59-5.27Z"/><path class="cls-1" d="m13.33,33.92c-.48-.01-.95.02-1.42.1v10.38c.33.04.65.06.98.05,3.02.05,5.25-1.63,5.25-5.56,0-3.38-2.02-4.98-4.81-4.98Z"/><path class="cls-1" d="m173.04,33.9c-2.22,0-3.64,2.12-3.64,5.32s1.42,5.27,3.67,5.27,3.57-2.2,3.57-5.32-1.34-5.27-3.59-5.27Z"/><path class="cls-1" d="m.53,23.76v31.08h187.02v-31.08H.53Zm19.52,22.18c-1.91,1.5-4.76,2.14-8.17,2.14-2.25,0-3.76-.13-4.65-.28v-17.08c1.84-.26,3.7-.38,5.56-.36,3.33,0,5.43.54,7.16,1.73,1.91,1.33,3.15,3.49,3.15,6.69,0,3.54-1.34,5.84-3.04,7.16Zm17.22,1.96h-11.69v-17.42h11.32v3.8h-6.64v2.82h6.25v3.77h-6.25v3.21h7.01v3.82Zm17.52,0l-.21-6.23c-.05-1.99-.1-4.32-.08-7.03h-.08c-.54,2.3-1.27,4.91-1.84,6.82l-1.73,6.07h-3.65l-1.47-6.05c-.44-1.89-.98-4.47-1.37-6.85h-.05c-.1,2.46-.21,5.04-.28,7.03l-.26,6.23h-4.29l1.06-17.42h6.28l1.16,4.68c.46,1.94.98,4.27,1.34,6.38h.1c.49-2.12,1.06-4.57,1.58-6.41l1.29-4.65h6.15l.88,17.42h-4.55Zm15.07.28c-5.4,0-8.37-4.06-8.37-8.89s3.33-9.1,8.66-9.1c5.61,0,8.45,4.16,8.45,8.81-.02,5.61-3.37,9.18-8.74,9.18h0Zm20.91-.28l-3.67-7.06-1.4,1.78v5.27h-4.63v-17.42h4.63v7.39h.05c.36-.65.75-1.29,1.14-1.91l3.33-5.48h5.74l-5.52,7.42,5.74,10h-5.41Zm16.15,0c-.26-.52-.7-1.86-1.21-4-.47-2.09-1.1-2.53-2.56-2.53h-.75v6.54h-4.63v-17.19c1.87-.26,3.75-.38,5.64-.36,2.65,0,4.57.36,5.89,1.34,1.1.85,1.73,2.09,1.73,3.8,0,2.17-1.63,3.72-3,4.21v.1c1.16.49,1.78,1.6,2.22,3.09.54,1.78,1.1,4.32,1.45,4.99h-4.77Zm17.23,0l-1.1-4.03h-4.5l-.98,4.03h-4.83l5.07-17.42h6.2l5.2,17.42h-5.04Zm15.79-3.59c1.07,0,2.13-.17,3.14-.52l.65,3.67c-.66.31-2.3.7-4.39.7-6.51,0-9.38-4.06-9.38-8.68,0-6.15,4.5-9.28,9.69-9.28,2.02,0,3.64.39,4.37.78l-.91,3.67c-1.03-.41-2.12-.63-3.23-.62-2.69,0-5.01,1.58-5.01,5.14-.01,3.18,1.88,5.14,5.08,5.14Zm10.96,3.59h-4.68v-17.42h4.68v17.42Zm11.22-6.67c0,5.07-2.43,6.95-6.63,6.95-1.04,0-2.07-.13-3.07-.41l.49-3.76c.66.18,1.35.28,2.04.28,1.5,0,2.48-.66,2.48-3.07v-10.75h4.68v10.75Zm10.72,6.95c-5.4,0-8.37-4.06-8.37-8.89,0-5.07,3.33-9.09,8.66-9.09,5.61,0,8.45,4.16,8.45,8.81,0,5.6-3.36,9.16-8.73,9.16h0Z"/></svg>