<?xml version="1.0" encoding="UTF-8"?><svg id="ET" xmlns="http://www.w3.org/2000/svg" viewBox="0 0 188.61 73.62"><defs><style>.cls-1{fill:#224e9c;stroke-width:0px;}</style></defs><path class="cls-1" d="m69.52,32.9c-2.17,0-3.56,2.07-3.56,5.2s1.39,5.15,3.59,5.15,3.49-2.16,3.49-5.21c0-2.93-1.31-5.15-3.51-5.15Z"/><path class="cls-1" d="m136.11,32.85h-.05c-.25,1.01-.51,2.42-.76,3.39l-.73,3.02h3.16l-.78-3.05c-.25-.96-.58-2.35-.83-3.36Z"/><path class="cls-1" d="m119.06,32.85h-.05c-.25,1.01-.51,2.42-.76,3.39l-.73,3.02h3.16l-.78-3.06c-.25-.95-.58-2.34-.83-3.35Z"/><path class="cls-1" d="m14.07,32.92c-.47,0-.93.03-1.39.11v10.15c.32.04.64.06.96.05,2.96.05,5.13-1.59,5.13-5.43,0-3.31-1.97-4.88-4.7-4.88Z"/><path class="cls-1" d="m1.87,22.99v30.38h185.73v-30.38H1.87Zm18.77,21.68c-1.87,1.47-4.65,2.1-7.99,2.1-2.2,0-3.67-.13-4.55-.28v-16.69c1.8-.25,3.62-.37,5.44-.36,3.26,0,5.31.53,7,1.69,1.87,1.3,3.08,3.41,3.08,6.54,0,3.46-1.32,5.71-2.99,7Zm16.82,1.92h-11.42v-17.03h11.07v3.71h-6.49v2.75h6.11v3.7h-6.11v3.13h6.85v3.73Zm17.13,0l-.2-6.09c-.05-1.94-.1-4.22-.08-6.87h-.08c-.53,2.25-1.24,4.8-1.79,6.67l-1.69,5.94h-3.56l-1.44-5.91c-.43-1.84-.96-4.37-1.34-6.69h-.05c-.1,2.4-.2,4.93-.28,6.87l-.25,6.09h-4.2l1.04-17.03h6.14l1.14,4.57c.46,1.89.96,4.17,1.31,6.24h.1c.48-2.07,1.04-4.47,1.54-6.26l1.26-4.55h6.01l.86,17.03h-4.45Zm14.73.28c-5.28,0-8.19-3.97-8.19-8.69s3.26-8.89,8.46-8.89c5.48,0,8.26,4.07,8.26,8.62,0,5.48-3.28,8.97-8.54,8.97h0Zm20.45-.28l-3.59-6.9-1.38,1.74v5.15h-4.52v-17.03h4.52v7.22h.05c.35-.63.73-1.26,1.11-1.87l3.26-5.36h5.61l-5.4,7.25,5.61,9.78h-5.29Zm15.79,0c-.25-.51-.68-1.82-1.19-3.91-.46-2.05-1.08-2.48-2.5-2.48h-.73v6.39h-4.53v-16.8c1.83-.25,3.67-.37,5.51-.35,2.6,0,4.47.35,5.76,1.31,1.08.83,1.69,2.05,1.69,3.71,0,2.12-1.59,3.64-2.93,4.12v.1c1.14.48,1.74,1.57,2.17,3.02.53,1.74,1.08,4.22,1.42,4.88h-4.67Zm16.84,0l-1.08-3.94h-4.4l-.96,3.94h-4.72l4.95-17.03h6.06l5.08,17.03h-4.93Zm17.06,0l-1.08-3.94h-4.41l-.96,3.94h-4.72l4.95-17.03h6.06l5.08,17.03h-4.92Zm17.23-13.21h-4.43v13.21h-4.57v-13.21h-4.34v-3.82h13.34v3.82Zm6.67,13.21h-4.58v-17.03h4.57v17.03Zm13.09,0l-1.08-3.94h-4.4l-.96,3.94h-4.73l4.95-17.03h6.07l5.08,17.03h-4.92Z"/><path class="cls-1" d="m173.09,32.85h-.05c-.25,1.01-.51,2.42-.76,3.39l-.73,3.02h3.16l-.78-3.06c-.25-.95-.58-2.34-.83-3.35Z"/><path class="cls-1" d="m102.67,32.8c-.52-.02-1.03.02-1.54.1v4.04h1.19c1.73,0,2.7-.86,2.7-2.12s-.83-2-2.35-2.02Z"/><path class="cls-1" d="m66.25,58.34v5.29h4.66v-5.29h3.83v14.32h-3.83v-5.67h-4.66v5.67h-3.85v-14.32h3.85Z"/><path class="cls-1" d="m86.38,66.88h-5.14v2.64h5.76v3.15h-9.61v-14.33h9.31v3.12h-5.46v2.32h5.14v3.1Z"/><path class="cls-1" d="m92.88,69.35l-.81,3.31h-3.97l4.17-14.32h5.1l4.27,14.32h-4.15l-.92-3.31h-3.7Zm3.17-2.85l-.66-2.57c-.22-.81-.49-1.98-.7-2.83h-.04c-.22.85-.43,2.04-.65,2.85l-.61,2.55h2.66Z"/><path class="cls-1" d="m103.47,58.34h3.8v6.08h.04c.3-.53.62-1.06.93-1.57l2.74-4.5h4.72l-4.55,6.1,4.72,8.22h-4.44l-3.02-5.8-1.15,1.47v4.34h-3.8v-14.32Z"/><path class="cls-1" d="m117.45,68.84c1.16.57,2.43.88,3.72.9,1.32,0,1.96-.45,1.96-1.17s-.65-1.1-2.25-1.66c-2.42-.85-4.02-2.19-4.02-4.32,0-2.53,2.13-4.48,5.74-4.48,1.73,0,2.93.32,3.89.74l-.81,3.06c-.98-.45-2.05-.68-3.12-.68-1.17,0-1.81.43-1.81,1.06,0,.72.76,1.02,2.57,1.7,2.57.93,3.74,2.32,3.74,4.32,0,2.47-1.94,4.57-6.12,4.57-1.73,0-3.4-.45-4.21-.86l.73-3.19Z"/><path class="cls-1" d="m44.96,3.54v8.11c0,2.16.74,3.4,2.25,3.4s2.28-1.13,2.28-3.4V3.54h3.85v7.9c0,4.42-2.21,6.65-6.23,6.65s-5.99-2.15-5.99-6.76V3.54h3.85Z"/><path class="cls-1" d="m59.79,3.54v5.29h4.66V3.54h3.83v14.32h-3.83v-5.67h-4.66v5.67h-3.85V3.54h3.85Z"/><path class="cls-1" d="m79.92,12.09h-5.15v2.63h5.76v3.14h-9.61V3.54h9.31v3.12h-5.46v2.32h5.15v3.1Z"/><path class="cls-1" d="m82.92,14.04c1.16.57,2.43.87,3.72.89,1.32,0,1.95-.45,1.95-1.17s-.64-1.11-2.25-1.66c-2.42-.85-4.02-2.19-4.02-4.32,0-2.53,2.13-4.48,5.74-4.48,1.73,0,2.93.32,3.89.74l-.8,3.07c-.98-.45-2.05-.68-3.12-.68-1.17,0-1.81.43-1.81,1.06,0,.72.76,1.02,2.57,1.7,2.57.93,3.74,2.32,3.74,4.32,0,2.47-1.93,4.57-6.12,4.57-1.73,0-3.4-.45-4.21-.86l.72-3.19Z"/><path class="cls-1" d="m94.58,3.54h3.8v6.08h.04c.3-.53.62-1.06.93-1.57l2.74-4.51h4.72l-4.55,6.1,4.72,8.22h-4.44l-3.02-5.8-1.15,1.47v4.34h-3.8V3.54Z"/><path class="cls-1" d="m120.94,10.56c0,4.61-2.76,7.55-7.18,7.55s-6.89-3.34-6.89-7.31c0-4.17,2.74-7.48,7.13-7.48,4.61,0,6.94,3.42,6.94,7.24Zm-10.01.17c0,2.68,1.17,4.34,3.02,4.34s2.93-1.81,2.93-4.38-1.1-4.34-2.95-4.34-3,1.74-3,4.38Z"/><path class="cls-1" d="m136.45,10.56c0,4.61-2.76,7.55-7.18,7.55s-6.89-3.34-6.89-7.31,2.74-7.48,7.13-7.48c4.61,0,6.95,3.42,6.95,7.25Zm-10.01.17c0,2.68,1.17,4.34,3.02,4.34s2.93-1.81,2.93-4.38-1.11-4.34-2.95-4.34-3,1.74-3,4.38Z"/><path class="cls-1" d="m138.75,14.04c1.16.57,2.43.87,3.72.89,1.32,0,1.96-.45,1.96-1.17s-.65-1.11-2.25-1.66c-2.42-.85-4.02-2.19-4.02-4.32,0-2.53,2.12-4.48,5.74-4.48,1.73,0,2.93.32,3.89.74l-.81,3.07c-.98-.45-2.05-.68-3.12-.68-1.17,0-1.81.43-1.81,1.06,0,.72.77,1.02,2.57,1.7,2.57.93,3.74,2.32,3.74,4.32,0,2.47-1.94,4.57-6.12,4.57-1.73,0-3.4-.45-4.21-.86l.72-3.19Z"/><path class="cls-1" d="m43.48,1.13c0-.89.72-1.62,1.61-1.62.02,0,.03,0,.05,0,.86,0,1.56.71,1.56,1.58,0,.01,0,.03,0,.04.02.88-.67,1.61-1.55,1.64,0,0,0,0,0,0-.91,0-1.65-.72-1.66-1.63,0,0,0,0,0-.01Zm4.64,0c0-.89.72-1.61,1.61-1.61.89,0,1.61.72,1.61,1.61h0c0,.89-.72,1.61-1.61,1.61-.89,0-1.61-.72-1.61-1.61h0Z"/></svg>