<?xml version="1.0" encoding="utf-8"?>
<!-- Generator: Adobe Illustrator 27.6.1, SVG Export Plug-In . SVG Version: 6.00 Build 0)  -->
<svg version="1.1" id="Layer_1" xmlns="http://www.w3.org/2000/svg" xmlns:xlink="http://www.w3.org/1999/xlink" x="0px" y="0px"
	 viewBox="0 0 838 255.9" style="enable-background:new 0 0 838 255.9;" xml:space="preserve">
<style type="text/css">
	.st0{fill:#FFFFFF;}
</style>
<path class="st0" d="M65.2,60.2H41.3v12.2H68V87H23.4V20.5h43.2V35H41.3v10.8h23.9V60.2z"/>
<path class="st0" d="M79.1,69.2c5.4,2.6,11.3,4.1,17.3,4.1c6.1,0,9.1-2.1,9.1-5.4s-3-5.1-10.5-7.7c-11.2-3.9-18.6-10.2-18.6-20
	c0-11.7,9.9-20.8,26.6-20.8c8,0,13.6,1.5,18.1,3.4l-3.8,14.2c-4.6-2.1-9.5-3.2-14.5-3.2c-5.4,0-8.4,2-8.4,4.9
	c0,3.4,3.6,4.7,11.9,7.9c11.9,4.3,17.4,10.8,17.4,20c0,11.4-9,21.2-28.4,21.2c-8,0-15.8-2.1-19.5-4L79.1,69.2z"/>
<path class="st0" d="M150.7,71.6L147,87h-18.5l19.3-66.5h23.7L191.4,87h-19.2l-4.2-15.4H150.7z M165.4,58.4l-3.1-11.9
	c-1-3.8-2.3-9.2-3.2-13.1h-0.2c-1,4-2,9.5-3,13.2l-2.9,11.8H165.4z"/>
<path class="st0" d="M256.1,63.2c-0.2-7.6-0.4-16.5-0.3-26.8h-0.3c-2.1,8.8-4.8,18.8-7,26.1l-6.6,23.2H228l-5.6-23.1
	c-1.7-7.2-3.8-17.1-5.2-26.1h-0.2c-0.4,9.4-0.8,19.2-1.1,26.8l-1,23.8h-16.4l4-66.5h24l4.4,17.9c1.8,7.4,3.8,16.3,5.1,24.4h0.4
	c1.9-8.1,4-17.5,6-24.5l4.9-17.8h23.5l3.4,66.5h-17.4L256.1,63.2z"/>
<path class="st0" d="M327,60.2h-23.9v12.2h26.8V87h-44.6V20.5h43.2V35h-25.4v10.8H327V60.2z"/>
<path class="st0" d="M360,20.5h17.7v28.2h0.2c1.4-2.5,2.9-4.9,4.4-7.3l12.7-20.9h21.9l-21.1,28.3L417.6,87H397l-14-26.9l-5.3,6.8V87
	H360V20.5z"/>
<path class="st0" d="M442.6,71.6L438.8,87h-18.5l19.3-66.5h23.7L483.2,87H464l-4.2-15.4H442.6z M457.3,58.4l-3.1-11.9
	c-1-3.8-2.3-9.2-3.3-13.1h-0.2c-1,4-2,9.5-3,13.2l-2.9,11.8H457.3z"/>
<path class="st0" d="M491.7,21.4c7.1-1,14.3-1.4,21.5-1.4c10.2,0,17.5,1.4,22.5,5.1c4.2,3.3,6.6,8,6.6,14.5
	c0,8.3-6.2,14.2-11.4,16.1v0.4c4.4,1.9,6.8,6.1,8.5,11.8c2.1,6.8,4.2,16.5,5.5,19h-18.2c-1-2-2.7-7.1-4.6-15.3
	c-1.8-8-4.2-9.7-9.8-9.7h-2.9v25h-17.7V21.4z M509.4,49.3h4.6c6.7,0,10.6-3.4,10.6-8.3s-3.2-7.8-9.2-7.9c-2-0.1-4,0.1-6,0.4
	L509.4,49.3z"/>
<path class="st0" d="M565.2,35.4h-17V20.5h52.1v14.9h-17.2V87h-17.9V35.4z"/>
<path class="st0" d="M626.3,20.5v37.7c0,10.1,3.5,15.8,10.5,15.8s10.6-5.2,10.6-15.8V20.5h17.9v36.7c0,20.5-10.3,30.9-28.9,30.9
	c-18.2,0-27.8-10-27.8-31.4V20.5H626.3z"/>
<path class="st0" d="M714.6,20.5v37.7c0,10.1,3.5,15.8,10.5,15.8s10.6-5.2,10.6-15.8V20.5h17.9v36.7c0,20.5-10.3,30.9-28.9,30.9
	c-18.3,0-27.8-10-27.8-31.4V20.5H714.6z"/>
<path class="st0" d="M761.6,77.5L791,35.6v-0.4h-26.7V20.5h49.7v10.2l-28.5,41.3v0.4h29V87h-53L761.6,77.5z M782.3,16.9l-9.8-12.4
	h11.9l4.4,5.8h0.2l4.3-5.8h11.9l-9.8,12.4H782.3z"/>
<path class="st0" d="M472.3,156.2c-2.4-0.1-4.8,0.1-7.1,0.5v18.7h5.5c8,0,12.5-4,12.5-9.8S479.4,156.3,472.3,156.2z"/>
<path class="st0" d="M318.9,156.7c-10.1,0-16.5,9.6-16.5,24.1c0,14.7,6.4,23.9,16.6,23.9s16.1-10,16.1-24.1
	C335.1,167,329,156.7,318.9,156.7z"/>
<path class="st0" d="M62.1,156.8c-2.2-0.1-4.3,0.1-6.4,0.5v47c1.5,0.2,3,0.3,4.4,0.2c13.7,0.2,23.8-7.4,23.8-25.1
	C83.8,164,74.7,156.8,62.1,156.8z"/>
<path class="st0" d="M548.3,156.4h-0.2c-1.2,4.7-2.3,11.2-3.5,15.7l-3.4,14h14.6l-3.6-14.1C551,167.6,549.5,161.1,548.3,156.4z"/>
<path class="st0" d="M5.8,110.8v140.7h826.4V110.8H5.8z M92.5,211.2c-8.7,6.8-21.5,9.7-37,9.7c-10.2,0-17-0.6-21.1-1.3v-77.3
	c8.3-1.2,16.7-1.7,25.1-1.6c15.1,0,24.6,2.4,32.4,7.8c8.7,6,14.3,15.8,14.3,30.3C106.3,194.8,100.2,205.2,92.5,211.2z M170.4,220.1
	h-52.9v-78.9h51.2v17.2h-30.1v12.8H167v17.1h-28.3v14.5h31.7L170.4,220.1z M249.7,220.1l-0.9-28.2c-0.2-9-0.5-19.5-0.4-31.8h-0.4
	c-2.5,10.4-5.7,22.2-8.3,30.9l-7.8,27.5h-16.5l-6.7-27.4c-2-8.5-4.4-20.2-6.2-31h-0.2c-0.5,11.1-0.9,22.8-1.3,31.8l-1.2,28.2h-19.4
	l4.8-78.9h28.4l5.3,21.2c2.1,8.8,4.5,19.3,6.1,28.9h0.5c2.2-9.6,4.8-20.7,7.1-29l5.9-21.1h27.9l4,78.9L249.7,220.1z M317.9,221.4
	c-24.4,0-37.9-18.4-37.9-40.3c0-22.9,15.1-41.1,39.2-41.1c25.4,0,38.3,18.8,38.3,39.9C357.5,205.2,342.3,221.4,317.9,221.4
	L317.9,221.4z M412.6,220.1L396,188.1l-6.3,8.1v23.9h-21v-78.9h21v33.5h0.2c1.6-2.9,3.4-5.9,5.1-8.7l15.1-24.8h26l-25,33.6l26,45.3
	L412.6,220.1z M485.7,220.1c-1.2-2.3-3.2-8.4-5.5-18.1c-2.1-9.5-5-11.5-11.6-11.5h-3.4v29.6h-21v-77.8c8.5-1.2,17-1.7,25.5-1.6
	c12,0,20.7,1.6,26.7,6.1c5,3.9,7.8,9.5,7.8,17.2c0,9.8-7.4,16.9-13.6,19.1v0.5c5.3,2.2,8.1,7.3,10.1,14c2.5,8.1,5,19.5,6.5,22.6
	L485.7,220.1z M563.7,220.1l-5-18.2h-20.3l-4.5,18.2H512l22.9-78.9H563l23.5,78.9H563.7z M643.5,158.9H623v61.2h-21.1v-61.2h-20.1
	v-17.7h61.8L643.5,158.9z M674.4,220.1h-21.1v-78.9h21.2L674.4,220.1z M725.1,189.9c0,22.9-11,31.5-30,31.5c-4.7,0-9.4-0.6-13.9-1.9
	l2.2-17c3,0.8,6.1,1.3,9.2,1.3c6.8,0,11.2-3,11.2-13.9v-48.7h21.2L725.1,189.9z M796.1,246.3c-8.7,0-14.1-4.3-14.1-13.3
	c0-5.4,2.6-11.1,3.2-12.9l-5-18.2h-20.3l-4.5,18.2h-21.9l22.9-78.9h28.1l23.5,78.8h-11.7c-0.9,2.1-1.5,4.3-1.5,6.6
	c-0.2,3.6,2.6,6.7,6.2,6.9c0.1,0,0.2,0,0.3,0c1.7,0,3.4-0.3,5-0.8l2.9,9.5C805.7,245,800.4,246.3,796.1,246.3L796.1,246.3z"/>
<path class="st0" d="M769.8,156.4h-0.2c-1.2,4.7-2.3,11.2-3.5,15.7l-3.4,14h14.6l-3.6-14.1C772.4,167.6,770.9,161.1,769.8,156.4z"/>
</svg>
