<?xml version="1.0" encoding="UTF-8"?><svg id="RO" xmlns="http://www.w3.org/2000/svg" viewBox="0 0 188.61 62.38"><defs><style>.cls-1{fill:#224e9c;stroke-width:0px;}</style></defs><path class="cls-1" d="m5.68,6.06l2.06,2.62h-2.51l-.91-1.23h-.04l-.94,1.23H.83l2.06-2.62h2.8Zm.48,3.36v13.98h-3.76v-13.98h3.76Z"/><path class="cls-1" d="m20.56,18.4c-.04-1.6-.08-3.47-.06-5.64h-.06c-.43,1.85-1.02,3.94-1.47,5.48l-1.39,4.88h-2.93l-1.18-4.85c-.35-1.51-.79-3.59-1.1-5.5h-.04c-.08,1.97-.17,4.05-.23,5.64l-.21,5h-3.44l.85-13.98h5.04l.93,3.75c.38,1.56.79,3.42,1.08,5.13h.08c.4-1.7.85-3.67,1.27-5.15l1.04-3.73h4.94l.71,13.98h-3.65l-.16-5.01Z"/><path class="cls-1" d="m26.69,9.6c1.53-.22,3.08-.32,4.63-.29,2.01,0,3.44.35,4.42,1.1,1.04.81,1.63,2.07,1.6,3.38,0,1.41-.48,2.67-1.35,3.44-1.14,1.02-2.78,1.45-4.67,1.45-.35,0-.69-.02-.91-.04v4.75h-3.71v-13.8Zm3.71,6.18c.28.03.57.04.85.04,1.47,0,2.39-.75,2.39-1.94,0-1.04-.71-1.75-2.12-1.75-.38,0-.75.02-1.12.08v3.56Z"/><path class="cls-1" d="m39.19,9.6c1.5-.21,3.01-.31,4.52-.29,2.14,0,3.67.29,4.73,1.08.89.69,1.39,1.68,1.39,3.05,0,1.74-1.31,2.99-2.41,3.38v.08c.93.39,1.43,1.28,1.78,2.49.44,1.43.89,3.47,1.16,4h-3.85c-.21-.41-.56-1.49-.97-3.22-.37-1.68-.89-2.03-2.05-2.03h-.6v5.25h-3.71v-13.8Zm3.71,5.87h.97c1.41,0,2.22-.71,2.22-1.74s-.69-1.64-1.94-1.66c-.42-.01-.85.01-1.27.08l.02,3.32Z"/><path class="cls-1" d="m60.76,17.76h-5.02v2.57h5.62v3.07h-9.38v-13.98h9.09v3.05h-5.33v2.26h5.02v3.03Z"/><path class="cls-1" d="m67.17,9.41v7.93c0,2.12.73,3.32,2.2,3.32s2.22-1.1,2.22-3.32v-7.93h3.76v7.72c0,4.32-2.16,6.49-6.08,6.49s-5.85-2.09-5.85-6.6v-7.62h3.76Z"/><path class="cls-1" d="m77.9,23.4v-13.98h4.43l2.22,4.29c.84,1.58,1.58,3.22,2.2,4.9h.06c-.21-1.96-.3-3.93-.29-5.89v-3.3h3.42v13.98h-3.96l-2.37-4.65c-.88-1.64-1.67-3.33-2.37-5.06h-.06c.08,1.89.12,4,.12,6.27v3.44h-3.42Z"/><path class="cls-1" d="m96.2,20.16l-.78,3.24h-3.88l4.07-13.98h4.98l4.17,13.98h-4.05l-.89-3.24h-3.61Zm.87-14.21c.04.46.31.93,1.1.93s1.12-.46,1.21-.93h1.85c-.02,1.64-.97,2.8-3.05,2.8s-3.03-1.16-3.05-2.8h1.94Zm2.22,11.43l-.64-2.51c-.21-.79-.48-1.94-.68-2.76h-.04c-.21.83-.41,1.99-.62,2.78l-.6,2.49h2.6Z"/><path class="cls-1" d="m110.64,9.6c1.53-.22,3.08-.32,4.63-.29,2.01,0,3.44.35,4.42,1.1,1.03.81,1.63,2.07,1.6,3.38,0,1.41-.48,2.67-1.35,3.44-1.14,1.02-2.78,1.45-4.67,1.45-.35,0-.68-.02-.91-.04v4.75h-3.72v-13.8Zm3.72,6.18c.28.03.57.04.85.04,1.47,0,2.38-.75,2.38-1.94,0-1.04-.71-1.75-2.12-1.75-.38,0-.75.02-1.12.08v3.56Z"/><path class="cls-1" d="m131.92,17.76h-5.02v2.57h5.62v3.07h-9.38v-13.98h9.09v3.05h-5.33v2.26h5.02v3.03Z"/><path class="cls-1" d="m134.59,23.4v-13.98h4.42l2.22,4.29c.84,1.58,1.58,3.22,2.2,4.9h.06c-.21-1.96-.3-3.93-.29-5.89v-3.3h3.42v13.98h-3.94l-2.37-4.65c-.88-1.64-1.67-3.33-2.37-5.06h-.06c.08,1.89.12,4,.12,6.27v3.44h-3.42Z"/><path class="cls-1" d="m151.94,12.55h-3.57v-3.13h10.96v3.13h-3.64v10.85h-3.75v-10.85Z"/><path class="cls-1" d="m161.05,9.6c1.5-.21,3.01-.31,4.52-.29,2.14,0,3.67.29,4.73,1.08.89.69,1.39,1.68,1.39,3.05,0,1.74-1.31,2.99-2.41,3.38v.08c.93.39,1.43,1.28,1.78,2.49.44,1.43.89,3.47,1.16,4h-3.84c-.21-.41-.56-1.49-.97-3.22-.37-1.68-.89-2.03-2.05-2.03h-.6v5.25h-3.72v-13.8Zm3.71,5.87h.97c1.41,0,2.22-.71,2.22-1.74s-.69-1.64-1.94-1.66c-.42-.01-.85.01-1.27.08l.02,3.32Z"/><path class="cls-1" d="m177.44,9.41v7.93c0,2.12.73,3.32,2.2,3.32s2.22-1.1,2.22-3.32v-7.93h3.76v7.72c0,4.32-2.16,6.49-6.08,6.49s-5.85-2.09-5.85-6.6v-7.62h3.76Z"/><path class="cls-1" d="m114.83,40.05c-.58-.02-1.16.02-1.73.11v4.54h1.33c1.94,0,3.03-.97,3.03-2.38s-.94-2.24-2.64-2.27Z"/><path class="cls-1" d="m78.87,40.16c-2.44,0-4,2.32-4,5.84s1.56,5.79,4.03,5.79,3.92-2.41,3.92-5.84-1.48-5.79-3.95-5.79Z"/><path class="cls-1" d="m16.63,40.19c-.52-.01-1.05.02-1.56.11v11.39c.36.05.72.07,1.08.06,3.32.06,5.76-1.79,5.76-6.1,0-3.71-2.21-5.47-5.27-5.47Z"/><path class="cls-1" d="m133.23,40.1h-.06c-.28,1.13-.57,2.72-.85,3.8l-.82,3.39h3.55l-.88-3.42c-.28-1.08-.65-2.64-.94-3.77Z"/><path class="cls-1" d="m2.5,29.03v34.1h184.39V29.03H2.5Zm21.5,24.34c-2.1,1.65-5.22,2.35-8.97,2.35-2.47,0-4.12-.14-5.1-.31v-18.74c2.02-.28,4.06-.41,6.1-.4,3.66,0,5.96.59,7.86,1.9,2.1,1.45,3.46,3.83,3.46,7.34,0,3.89-1.47,6.41-3.34,7.86Zm18.89,2.15h-12.82v-19.11h12.42v4.17h-7.29v3.09h6.86v4.14h-6.86v3.52h7.69v4.2Zm19.22,0l-.23-6.83c-.06-2.18-.11-4.74-.08-7.71h-.08c-.6,2.52-1.39,5.39-2.01,7.49l-1.9,6.67h-4l-1.62-6.64c-.48-2.07-1.08-4.91-1.5-7.51h-.06c-.11,2.7-.23,5.53-.31,7.71l-.28,6.83h-4.71l1.16-19.11h6.89l1.28,5.13c.51,2.13,1.08,4.68,1.47,7h.11c.54-2.32,1.16-5.02,1.73-7.03l1.42-5.1h6.75l.97,19.11h-5Zm16.53.31c-5.93,0-9.19-4.45-9.19-9.76s3.66-9.98,9.5-9.98c6.15,0,9.27,4.56,9.27,9.67,0,6.15-3.69,10.07-9.58,10.07h0Zm22.48-4.25c1.17,0,2.33-.19,3.43-.57l.71,4.03c-.73.34-2.53.77-4.82.77-7.15,0-10.29-4.45-10.29-9.53,0-6.75,4.93-10.18,10.64-10.18,2.21,0,4,.42,4.79.85l-.99,4.03c-1.13-.46-2.33-.69-3.55-.68-2.95,0-5.5,1.73-5.5,5.64,0,3.49,2.07,5.64,5.59,5.64h0Zm16.93,3.94c-.28-.57-.77-2.04-1.33-4.39-.51-2.3-1.21-2.78-2.81-2.78h-.82v7.17h-5.07v-18.86c2.05-.28,4.11-.42,6.18-.4,2.91,0,5.02.4,6.46,1.47,1.21.94,1.9,2.3,1.9,4.17,0,2.38-1.79,4.08-3.29,4.62v.11c1.28.54,1.96,1.76,2.44,3.39.6,1.96,1.21,4.74,1.59,5.47h-5.25Zm18.9,0l-1.21-4.42h-4.93l-1.08,4.42h-5.3l5.56-19.11h6.81l5.7,19.11h-5.54Zm9.36,7.09l-.71-2.13c.88-.2,1.76-.79,1.76-1.67,0-.65-.45-1.25-.77-1.67l3.49-.54c.7.56,1.11,1.4,1.11,2.3,0,2.49-2.06,3.66-4.87,3.71h0Zm9.98-21.92h-4.96v14.83h-5.13v-14.83h-4.88v-4.28h14.97v4.28Zm7.48,14.83h-5.13v-19.11h5.13v19.11Zm16.33,0h-12.81v-19.11h12.42v4.17h-7.29v3.09h6.86v4.14h-6.86v3.52h7.69v4.2Z"/></svg>