<?xml version="1.0" encoding="UTF-8"?><svg id="EL" xmlns="http://www.w3.org/2000/svg" viewBox="0 0 188.61 62.38"><defs><style>.cls-1{fill:#224e9c;stroke-width:0px;}</style></defs><path class="cls-1" d="m41.99,17.46c-.05-1.8-.1-3.91-.07-6.37h-.07c-.49,2.09-1.15,4.45-1.67,6.19l-1.57,5.51h-3.3l-1.34-5.47c-.4-1.71-.89-4.05-1.24-6.21h-.05c-.1,2.23-.19,4.57-.26,6.37l-.24,5.65h-3.88l.95-15.79h5.69l1.05,4.24c.42,1.76.89,3.87,1.22,5.79h.1c.45-1.92.95-4.15,1.43-5.81l1.17-4.22h5.58l.8,15.79h-4.12l-.19-5.66Z"/><path class="cls-1" d="m53.04,19.45l-.89,3.66h-4.38l4.6-15.79h5.62l4.71,15.79h-4.57l-1-3.66h-4.09Zm3.49-3.14l-.73-2.83c-.24-.89-.54-2.18-.77-3.12h-.05c-.24.94-.48,2.25-.7,3.14l-.68,2.81h2.93Z"/><path class="cls-1" d="m63.94,20.86l6.98-9.96v-.09h-6.32v-3.49h11.82v2.41l-6.78,9.79v.1h6.89v3.49h-12.58v-2.25Z"/><path class="cls-1" d="m82.91,7.32v15.79h-4.24V7.32h4.24Z"/><path class="cls-1" d="m100.53,7.32v3.54h-5.83v12.26h-4.25V7.32h10.08Z"/><path class="cls-1" d="m106.29,7.32v15.79h-4.24V7.32h4.24Z"/><path class="cls-1" d="m113.35,19.45l-.89,3.66h-4.39l4.59-15.79h5.64l4.71,15.79h-4.58l-1.01-3.66h-4.07Zm3.49-3.14l-.73-2.83c-.24-.89-.54-2.18-.77-3.12h-.05c-.24.94-.48,2.25-.71,3.14l-.68,2.81h2.94Z"/><path class="cls-1" d="m131.83,10.85h-4.03v-3.54h12.38v3.54h-4.11v12.26h-4.24v-12.26Z"/><path class="cls-1" d="m146.36,7.32v5.83h5.13v-5.83h4.22v15.79h-4.22v-6.26h-5.13v6.26h-4.24V7.32h4.24Z"/><path class="cls-1" d="m131.65,39.62h-.06c-.28,1.11-.56,2.68-.84,3.73l-.81,3.33h3.48l-.86-3.36c-.28-1.06-.64-2.59-.92-3.7Z"/><path class="cls-1" d="m79.13,39.68c-2.39,0-3.93,2.28-3.93,5.74s1.53,5.68,3.96,5.68,3.84-2.37,3.84-5.74-1.45-5.68-3.87-5.68Z"/><path class="cls-1" d="m115.47,39.65c-.5-.01-1.01.02-1.5.11v4.79c.38.04.76.06,1.14.06,1.98,0,3.2-1,3.2-2.62,0-1.39-.95-2.34-2.84-2.34Z"/><path class="cls-1" d="m15.8,39.93h-.11c-.22.89-.61,2.56-.95,3.76l-2.14,6.96h6.38l-2.14-6.77c-.36-1.17-.78-2.81-1.03-3.95Z"/><path class="cls-1" d="m172.42,39.62h-.06c-.28,1.11-.56,2.68-.84,3.73l-.81,3.33h3.48l-.86-3.36c-.28-1.06-.64-2.59-.92-3.7Z"/><path class="cls-1" d="m.02,28.75v33.48h188.96V28.75H.02Zm24.75,26.02H7.14v-2.45l5.79-16.32h6.21l5.63,16.29v2.48Zm18.33,0h-5.01v-7.44h-6.11v7.44h-5.04v-18.77h5.04v6.94h6.11v-6.94h5v18.77Zm19.58,0l-.22-6.71c-.05-2.14-.11-4.65-.08-7.58h-.08c-.59,2.48-1.36,5.29-1.98,7.35l-1.86,6.55h-3.93l-1.59-6.52c-.48-2.03-1.06-4.82-1.48-7.38h-.06c-.11,2.65-.22,5.43-.3,7.58l-.28,6.71h-4.63l1.14-18.77h6.77l1.25,5.04c.5,2.09,1.06,4.6,1.45,6.88h.11c.53-2.28,1.14-4.93,1.7-6.9l1.39-5.01h6.63l.95,18.77h-4.9Zm16.24.31c-5.82,0-9.02-4.37-9.02-9.58s3.59-9.8,9.33-9.8c6.04,0,9.11,4.48,9.11,9.49-.01,6.04-3.63,9.89-9.42,9.89h0Zm22.53-.31l-3.96-7.6-1.5,1.92v5.68h-4.99v-18.77h4.98v7.97h.06c.39-.7.81-1.39,1.23-2.06l3.59-5.91h6.19l-5.95,7.99,6.19,10.78h-5.83Zm20.02-8.27c-1.53,1.37-3.73,1.95-6.27,1.95-.48,0-.92-.03-1.23-.05v6.38h-4.99v-18.52c1.36-.22,3.33-.39,6.21-.39,2.7,0,4.62.48,5.93,1.48,1.28.95,2.14,2.62,2.14,4.54s-.64,3.57-1.81,4.62h0Zm13.87,8.27l-1.19-4.34h-4.86l-1.06,4.34h-5.21l5.46-18.77h6.68l5.6,18.77h-5.42Zm18.99-14.56h-4.88v14.56h-5.04v-14.56h-4.79v-4.21h14.7v4.21Zm7.35,14.56h-5.05v-18.77h5.05v18.77Zm14.42,0l-1.19-4.34h-4.86l-1.05,4.34h-5.22l5.45-18.77h6.69l5.6,18.77h-5.42Z"/></svg>