<?xml version="1.0" encoding="utf-8"?>
<!-- Generator: Adobe Illustrator 27.7.0, SVG Export Plug-In . SVG Version: 6.00 Build 0)  -->
<svg version="1.1" id="Camada_1" xmlns="http://www.w3.org/2000/svg" xmlns:xlink="http://www.w3.org/1999/xlink" x="0px" y="0px"
	 viewBox="0 0 1425.3 288.5" style="enable-background:new 0 0 1425.3 288.5;" xml:space="preserve">
<style type="text/css">
	.st0{fill:#0C4DA2;}
	.st1{fill:#FFFFFF;}
	.st2{fill:#FFF200;}
</style>
<g id="Elements">
	<g>
		<path class="st0" d="M389.5,187.8h-12l-4,14h-19.5l3.8-14h-8.7v-16.4h13.3l4-14.5h-11.4v-16.1h16l4.2-15H395l-4.2,15h11.9l4.2-15
			h19.5l-4.2,15h9.9v16.1h-14.4l-4,14.5H426v16.4h-17.1l-3.8,14h-19.4L389.5,187.8z M394.1,171.5l4.1-14.5h-12l-4.1,14.5H394.1z"/>
		<path class="st0" d="M442.9,122.2h38c17.3,0,28.2,7.6,28.2,20.6c0,8.4-4.6,15.1-12.5,18.3c9.1,2.8,15.3,9.5,15.3,19.8
			c0,14.1-11.1,22.5-30.2,22.5h-38.8V122.2z M478.3,154c5.4,0,8.8-2.5,8.8-6.9c0-4.5-3.4-7-8.9-7h-13.6V154L478.3,154L478.3,154z
			 M480.1,185.3c6.2,0,9.7-2.8,9.7-7.5c0-4.6-3.6-7.2-9.6-7.2h-15.6v14.7L480.1,185.3L480.1,185.3z"/>
		<path class="st0" d="M542.9,122.2h27l29.8,81.1h-23.4l-5-14.8h-30.2l-5,14.8H513L542.9,122.2z M556.1,144.9l-8.5,25h17.2l-8.5-25
			H556.1z"/>
		<path class="st0" d="M605.9,122h22.4v60.7h34.3v20.6h-56.6L605.9,122L605.9,122z"/>
		<path class="st0" d="M666.8,193l11.9-15.8c4.9,5.3,12.7,8.7,20.4,8.7c5,0,10-1.6,10-6.5c0-5.2-4.5-6.7-12.7-8.4
			c-17.3-3.5-27.3-10.3-27.3-24.8c0-16.6,15-25.6,32.8-25.6c12.4,0,22.5,3.5,29.8,10.7l-11.7,15c-6.2-4.7-12.1-6.9-17.9-6.9
			c-5.3,0-9.3,1.6-9.3,5.5s3.1,5.9,12.5,7.9c17.9,3.6,27.7,11.8,27.7,26.5c0,16.7-14.8,25.5-34.4,25.5
			C685.5,204.9,673.8,199.7,666.8,193z"/>
		<path class="st0" d="M740.3,171.6V122h22.5v49.6c0,7.3,5,12.1,12.6,12.1c7.7,0,12.6-4.8,12.6-12.1V122h22.4v49.5
			c0,20-14,33.2-35,33.2C754.1,204.8,740.3,191.5,740.3,171.6z"/>
		<path class="st0" d="M819.8,162.8c0-24.4,17.9-42.2,42.4-42.2s42.4,17.7,42.4,42c0,24.5-17.9,42.3-42.6,42.3
			C837.7,204.9,819.8,187.2,819.8,162.8z M881.4,162.8c0-12.4-8-21.5-19.2-21.5c-11.2,0-19.4,9-19.4,21.4c0,12.5,8.3,21.5,19.4,21.5
			C873.4,184.2,881.4,175.1,881.4,162.8z"/>
		<path class="st0" d="M937.5,166.6v36.7H915v-81.1h22.5v35.1l24-35.1h25.8L959.3,162l29,41.4h-25.8L937.5,166.6z"/>
	</g>
	<g>
		<rect x="1069.8" y="51.3" class="st1" width="355.5" height="237.2"/>
		<rect x="1074.4" y="56" class="st0" width="346.2" height="227.8"/>
		<polygon class="st2" points="1247.3,77.1 1250.7,87.6 1261.8,87.6 1252.8,94 1256.3,104.5 1247.3,98 1238.5,104.5 1241.9,94 
			1232.9,87.6 1244,87.6 		"/>
		<polygon class="st2" points="1247.3,235.3 1250.7,245.8 1261.8,245.7 1252.8,252.2 1256.3,262.7 1247.3,256.2 1238.5,262.7 
			1241.9,252.2 1232.9,245.7 1244,245.8 		"/>
		<polygon class="st2" points="1208,87.6 1211.4,98.1 1222.4,98.1 1213.5,104.5 1216.9,115 1208,108.5 1199.1,115 1202.5,104.5 
			1193.6,98.1 1204.7,98.1 		"/>
		<polygon class="st2" points="1179,116.7 1182.4,127.2 1193.4,127.1 1184.5,133.6 1187.9,144 1179,137.5 1170.1,144 1173.6,133.6 
			1164.6,127.1 1175.7,127.2 		"/>
		<polygon class="st2" points="1168.4,156.1 1171.7,166.6 1182.8,166.5 1173.8,173 1177.2,183.5 1168.4,177 1159.5,183.5 
			1162.9,173 1153.9,166.5 1165,166.6 		"/>
		<polygon class="st2" points="1178.9,195.6 1182.3,206.1 1193.3,206 1184.4,212.5 1187.8,223 1178.9,216.4 1170,223 1173.5,212.5 
			1164.5,206 1175.5,206.1 		"/>
		<polygon class="st2" points="1208,224.6 1211.4,235.1 1222.4,235 1213.5,241.5 1216.9,252 1208,245.5 1199.1,252 1202.5,241.5 
			1193.6,235 1204.7,235.1 		"/>
		<polygon class="st2" points="1286.7,87.6 1283.4,98.1 1272.3,98.1 1281.3,104.5 1277.8,115 1286.7,108.5 1295.6,115 1292.2,104.5 
			1301.1,98.1 1290.1,98.1 		"/>
		<polygon class="st2" points="1315.7,116.7 1312.3,127.2 1301.3,127.1 1310.2,133.6 1306.8,144 1315.7,137.5 1324.6,144 
			1321.2,133.6 1330.1,127.1 1319.1,127.2 		"/>
		<polygon class="st2" points="1326.4,156.1 1323,166.6 1312,166.5 1320.9,173 1317.5,183.5 1326.4,177 1335.3,183.5 1331.8,173 
			1340.8,166.5 1329.8,166.6 		"/>
		<polygon class="st2" points="1315.8,195.6 1312.5,206.1 1301.4,206 1310.4,212.5 1306.9,223 1315.8,216.4 1324.7,223 
			1321.3,212.5 1330.2,206 1319.2,206.1 		"/>
		<polygon class="st2" points="1286.7,224.6 1283.4,235.1 1272.3,235 1281.3,241.5 1277.8,252 1286.7,245.5 1295.6,252 
			1292.2,241.5 1301.1,235 1290.1,235.1 		"/>
	</g>
	<path class="st0" d="M315.1,209.5L209.5,0L0,105.6l79,156.8H25.2V285h288.4v-22.6H210.3L315.1,209.5z M30.4,115.6l169.1-85.2
		l85.2,169.1l-124.8,62.8h-55.6L30.4,115.6z"/>
</g>
<g id="Clear_space">
</g>
</svg>
