<?xml version="1.0" encoding="UTF-8"?><svg id="DE" xmlns="http://www.w3.org/2000/svg" viewBox="0 0 186.06 60.56"><defs><style>.cls-1{fill:#224e9c;stroke-width:0px;}</style></defs><path class="cls-1" d="m15.11,19.62c-1.77.58-3.61.89-5.47.92-3.13,0-5.26-.78-6.69-2.15-1.48-1.42-2.26-3.47-2.26-5.75.02-5.52,4.12-8.32,9.29-8.32,2.15,0,3.77.38,4.6.78l-.86,3.4c-.9-.38-1.95-.66-3.77-.66-2.62,0-4.79,1.37-4.79,4.6,0,2.97,1.91,4.69,4.53,4.69.44.01.89-.04,1.32-.14v-2.73h-2.12v-3.3h6.23v8.68Z"/><path class="cls-1" d="m27.74,13.97h-5.71v2.93h6.39v3.49h-10.66V4.49h10.34v3.47h-6.07v2.57h5.71v3.44Z"/><path class="cls-1" d="m44.22,14.7c-.05-1.82-.09-3.94-.07-6.41h-.07c-.49,2.1-1.15,4.48-1.67,6.22l-1.58,5.54h-3.32l-1.34-5.52c-.4-1.72-.9-4.08-1.25-6.25h-.05c-.09,2.24-.19,4.6-.26,6.41l-.24,5.68h-3.9l.98-15.89h5.73l1.06,4.27c.42,1.77.9,3.89,1.22,5.82h.1c.45-1.93.98-4.17,1.44-5.86l1.18-4.24h5.61l.8,15.89h-4.15l-.21-5.67Z"/><path class="cls-1" d="m61.15,13.97h-5.71v2.93h6.39v3.49h-10.65V4.49h10.33v3.47h-6.06v2.57h5.71v3.44Z"/><path class="cls-1" d="m68.46,4.49v15.89h-4.27V4.49h4.27Z"/><path class="cls-1" d="m71.38,20.38V4.49h5.02l2.52,4.88c.96,1.8,1.79,3.66,2.5,5.56h.07c-.23-2.22-.34-4.46-.33-6.7v-3.75h3.89v15.89h-4.48l-2.68-5.28c-1-1.87-1.89-3.79-2.68-5.75h-.07c.1,2.15.14,4.55.14,7.12v3.9h-3.9Z"/><path class="cls-1" d="m88.29,16.13c1.29.63,2.69.97,4.13.99,1.46,0,2.17-.49,2.17-1.3s-.71-1.22-2.5-1.84c-2.68-.94-4.46-2.44-4.46-4.79,0-2.8,2.36-4.97,6.37-4.97,1.48-.04,2.95.24,4.32.82l-.89,3.42c-1.09-.5-2.27-.75-3.47-.75-1.3,0-2,.47-2,1.18,0,.8.85,1.13,2.85,1.89,2.85,1.04,4.15,2.57,4.15,4.79,0,2.73-2.15,5.07-6.79,5.07-1.91,0-3.77-.49-4.67-.98l.79-3.52Z"/><path class="cls-1" d="m105.4,16.7l-.9,3.68h-4.39l4.62-15.89h5.66l4.74,15.89h-4.6l-1.02-3.68h-4.1Zm3.51-3.16l-.73-2.85c-.24-.9-.54-2.2-.78-3.14h-.05c-.24.94-.47,2.26-.71,3.16l-.69,2.83h2.95Z"/><path class="cls-1" d="m130.58,14.7c-.05-1.82-.1-3.94-.07-6.41h-.07c-.49,2.1-1.15,4.48-1.67,6.22l-1.57,5.54h-3.33l-1.34-5.52c-.4-1.72-.9-4.08-1.25-6.25h-.05c-.1,2.24-.19,4.6-.26,6.41l-.24,5.68h-3.9l.98-15.89h5.73l1.06,4.27c.42,1.77.9,3.89,1.22,5.82h.1c.45-1.93.98-4.17,1.44-5.86l1.18-4.24h5.61l.8,15.89h-4.15l-.2-5.67Z"/><path class="cls-1" d="m143.39,4.49h10.21v3.47h-5.94v2.95h5.59v3.44h-5.59v6.04h-4.27V4.49Z"/><path class="cls-1" d="m160.48,4.49v9.01c0,2.41.83,3.77,2.5,3.77s2.54-1.24,2.54-3.77V4.49h4.27v8.77c0,4.9-2.44,7.38-6.91,7.38s-6.65-2.38-6.65-7.5V4.49h4.25Zm-1.67-2.64c0-.99.79-1.79,1.78-1.79.02,0,.04,0,.06,0,.96,0,1.73.79,1.72,1.74,0,.02,0,.03,0,.05.03.98-.74,1.79-1.72,1.82,0,0,0,0,0,0-1.01,0-1.83-.8-1.84-1.8,0,0,0,0,0-.01Zm5.14,0c-.04-.98.73-1.81,1.71-1.85.98-.04,1.81.73,1.85,1.71,0,.04,0,.09,0,.13.04.98-.73,1.81-1.71,1.85-.98.04-1.81-.73-1.85-1.71,0-.04,0-.09,0-.13Z"/><path class="cls-1" d="m172.67,4.7c1.7-.23,3.42-.35,5.14-.33,2.43,0,4.17.33,5.37,1.22,1.01.78,1.58,1.91,1.58,3.47,0,1.98-1.48,3.39-2.73,3.84v.1c1.06.45,1.63,1.46,2.03,2.83.49,1.63,1.02,3.94,1.32,4.55h-4.36c-.24-.47-.64-1.71-1.11-3.66-.42-1.91-1.01-2.31-2.33-2.31h-.68v5.96h-4.22V4.7Zm4.22,6.67h1.11c1.6,0,2.52-.8,2.52-1.98s-.78-1.86-2.2-1.89c-.48-.02-.96.02-1.44.09v3.77Z"/><path class="cls-1" d="m113.93,37.31c-.58-.02-1.17.02-1.74.11v4.57h1.34c1.95,0,3.06-.98,3.06-2.4s-.94-2.26-2.66-2.28Z"/><path class="cls-1" d="m76.47,37.43c-2.46,0-4.03,2.34-4.03,5.88s1.57,5.83,4.05,5.83,3.94-2.43,3.94-5.88-1.48-5.83-3.97-5.83Z"/><path class="cls-1" d="m132.46,37.37h-.06c-.29,1.14-.57,2.74-.86,3.83l-.83,3.42h3.57l-.89-3.45c-.29-1.08-.66-2.66-.94-3.8Z"/><path class="cls-1" d="m0,26.22v34.33h186.06V26.22H0Zm21.22,24.51c-2.11,1.66-5.25,2.37-9.03,2.37-2.48,0-4.15-.14-5.14-.31v-18.88c2.03-.28,4.09-.42,6.14-.4,3.69,0,6,.6,7.91,1.91,2.11,1.46,3.49,3.85,3.49,7.4,0,3.91-1.48,6.45-3.36,7.91Zm19.02,2.17h-12.91v-19.25h12.5v4.2h-7.32v3.11h6.91v4.17h-6.91v3.54h7.74v4.22Zm19.36,0l-.23-6.88c-.06-2.2-.11-4.77-.09-7.77h-.09c-.6,2.54-1.4,5.43-2.03,7.54l-1.91,6.71h-4.03l-1.63-6.68c-.49-2.08-1.08-4.94-1.51-7.57h-.06c-.11,2.71-.23,5.57-.31,7.77l-.29,6.88h-4.74l1.17-19.25h6.95l1.28,5.17c.51,2.14,1.09,4.71,1.49,7.05h.11c.54-2.34,1.17-5.05,1.74-7.08l1.43-5.14h6.8l.98,19.25h-5.04Zm16.65.31c-5.97,0-9.25-4.48-9.25-9.82s3.68-10.05,9.57-10.05c6.2,0,9.34,4.6,9.34,9.74,0,6.2-3.71,10.14-9.65,10.14h0Zm23.1-.31l-4.05-7.8-1.54,1.97v5.83h-5.11v-19.25h5.11v8.17h.06c.4-.72.83-1.43,1.26-2.11l3.68-6.06h6.35l-6.1,8.2,6.35,11.05h-5.99Zm17.85,0c-.29-.57-.77-2.05-1.34-4.42-.51-2.31-1.22-2.8-2.83-2.8h-.83v7.22h-5.13v-18.99c2.06-.29,4.14-.42,6.23-.4,2.93,0,5.05.4,6.51,1.48,1.22.94,1.91,2.31,1.91,4.2,0,2.4-1.8,4.11-3.31,4.65v.11c1.29.54,1.97,1.77,2.46,3.42.6,1.97,1.22,4.77,1.6,5.51h-5.27Zm19.04,0l-1.22-4.45h-4.97l-1.09,4.45h-5.34l5.6-19.25h6.85l5.74,19.25h-5.58Zm19.47-14.93h-4.99v14.93h-5.17v-14.93h-4.92v-4.31h15.08v4.31Zm7.54,14.93h-5.16v-19.25h5.17v19.25Zm16.45,0h-12.9v-19.25h12.51v4.2h-7.34v3.11h6.91v4.17h-6.91v3.54h7.74v4.22Z"/><path class="cls-1" d="m13.79,37.45c-.53-.01-1.05.02-1.57.11v11.47c.36.05.72.07,1.08.06,3.34.06,5.8-1.8,5.8-6.14,0-3.73-2.22-5.5-5.31-5.5Z"/></svg>