<?xml version="1.0" encoding="utf-8"?>
<!-- Generator: Adobe Illustrator 27.6.1, SVG Export Plug-In . SVG Version: 6.00 Build 0)  -->
<svg version="1.1" id="Layer_1" xmlns="http://www.w3.org/2000/svg" xmlns:xlink="http://www.w3.org/1999/xlink" x="0px" y="0px"
	 viewBox="0 0 753 237" style="enable-background:new 0 0 753 237;" xml:space="preserve">
<style type="text/css">
	.st0{fill:#FFFFFF;}
</style>
<path class="st0" d="M48.1,6.8h16.5v37.9c0,17.8-8.6,24.5-23.3,24.5c-3.7,0-7.3-0.5-10.8-1.5l1.7-13.2c2.3,0.6,4.8,1,7.2,1
	c5.3,0,8.7-2.4,8.7-10.8L48.1,6.8z"/>
<path class="st0" d="M76.5,51.8c5,2.4,10.4,3.8,15.9,3.8c5.6,0,8.4-1.9,8.4-5s-2.7-4.7-9.6-7.1C80.7,39.9,73.9,34.1,73.9,25
	c0-10.8,9.1-19.2,24.6-19.2c5.7-0.2,11.4,0.9,16.6,3.2l-3.5,13.1c-4.2-1.9-8.8-2.9-13.4-2.9c-5,0-7.7,1.8-7.7,4.6
	c0,3.1,3.3,4.4,11,7.3c11,4,16,9.9,16,18.5c0,10.6-8.3,19.6-26.2,19.6c-7.4,0-14.6-1.9-18-3.7L76.5,51.8z"/>
<path class="st0" d="M178.3,46.2c-0.2-7-0.4-15.2-0.3-24.8h-0.3c-1.9,8.1-4.5,17.3-6.5,24l-6.1,21.4h-12.8l-5.2-21.3
	c-1.5-6.6-3.5-15.8-4.8-24.1h-0.2c-0.4,8.6-0.7,17.8-1,24.8l-0.9,21.9h-15.1l3.7-61.3H151l4.1,16.5c1.6,6.8,3.5,15,4.7,22.5h0.4
	c1.7-7.5,3.7-16.1,5.6-22.6l4.5-16.4H192l3.1,61.3H179L178.3,46.2z"/>
<path class="st0" d="M243.6,43.4h-22v11.3h24.7v13.5h-41.2V6.8H245v13.4h-23.4v9.9h22L243.6,43.4z"/>
<path class="st0" d="M256.5,51.8c5,2.4,10.4,3.8,15.9,3.8c5.6,0,8.4-1.9,8.4-5s-2.7-4.7-9.6-7.1c-10.4-3.6-17.2-9.4-17.2-18.5
	c0-10.8,9.1-19.2,24.6-19.2c5.7-0.2,11.4,0.9,16.7,3.2l-3.5,13.1c-4.2-1.9-8.8-2.9-13.4-2.9c-5,0-7.7,1.8-7.7,4.6
	c0,3.1,3.3,4.4,11,7.3c11,4,16,9.9,16,18.5c0,10.6-8.3,19.6-26.2,19.6c-7.4,0-14.6-1.9-18-3.7L256.5,51.8z"/>
<path class="st0" d="M306.4,7.7c6.7-1,13.5-1.4,20.3-1.3c8.8,0,15.1,1.6,19.4,4.8c4.5,3.6,7.1,9.1,7,14.8c0,6.2-2.1,11.6-5.9,15.1
	c-5,4.5-12.2,6.4-20.5,6.4c-1.5,0-3-0.1-4-0.2v20.8h-16.3V7.7z M322.7,34.8c1.2,0.1,2.5,0.2,3.7,0.2c6.5,0,10.5-3.3,10.5-8.6
	c0-4.5-3.1-7.6-9.3-7.6c-1.6,0-3.3,0.1-4.9,0.4V34.8z"/>
<path class="st0" d="M418.9,36.9c0,19.8-11.8,32.3-30.8,32.3s-29.5-14.3-29.5-31.3c0-17.8,11.7-32,30.5-32
	C408.9,5.8,418.9,20.5,418.9,36.9z M376,37.6c0,11.5,5,18.6,12.9,18.6s12.6-7.7,12.6-18.7c0-10.6-4.7-18.6-12.6-18.6
	S376,26.3,376,37.6L376,37.6z"/>
<path class="st0" d="M427.6,6.8h16.5v47.6h23.6v13.8h-40L427.6,6.8z"/>
<path class="st0" d="M489.5,6.8v34.8c0,9.3,3.2,14.6,9.7,14.6s9.7-4.8,9.7-14.6V6.8h16.5v33.8c0,18.9-9.5,28.5-26.7,28.5
	c-16.8,0-25.7-9.2-25.7-28.9V6.8H489.5z"/>
<path class="st0" d="M554.6,7.7c6.7-1,13.5-1.4,20.3-1.3c8.8,0,15.1,1.6,19.4,4.8c4.5,3.6,7.1,9.1,7,14.8c0,6.2-2.1,11.6-5.9,15.1
	c-5,4.5-12.2,6.4-20.5,6.4c-1.5,0-3-0.1-4-0.2v20.8h-16.3V7.7z M570.9,34.8c1.2,0.1,2.5,0.2,3.7,0.2c6.5,0,10.5-3.3,10.5-8.6
	c0-4.5-3.1-7.6-9.3-7.6c-1.6,0-3.3,0.1-4.9,0.4L570.9,34.8z"/>
<path class="st0" d="M609.4,7.7c6.6-0.9,13.2-1.3,19.8-1.3c9.4,0,16.1,1.3,20.8,4.7c3.9,3,6.1,7.4,6.1,13.4
	c0,7.6-5.7,13.1-10.6,14.8v0.4c4.1,1.7,6.3,5.6,7.8,10.9c1.9,6.3,3.9,15.2,5.1,17.6h-16.8c-0.9-1.8-2.5-6.6-4.3-14.1
	c-1.6-7.4-3.9-8.9-9-8.9h-2.6v23h-16.3V7.7z M625.6,33.4h4.3c6.2,0,9.7-3.1,9.7-7.6s-3-7.2-8.5-7.3c-1.9-0.1-3.7,0.1-5.5,0.4
	L625.6,33.4z"/>
<path class="st0" d="M722.5,36.9c0,19.8-11.8,32.3-30.8,32.3s-29.5-14.3-29.5-31.3c0-17.8,11.7-32,30.5-32
	C712.5,5.8,722.5,20.5,722.5,36.9z M679.6,37.6c0,11.5,5,18.6,12.9,18.6s12.6-7.7,12.6-18.7c0-10.6-4.7-18.6-12.7-18.6
	S679.6,26.3,679.6,37.6L679.6,37.6z"/>
<path class="st0" d="M472.3,137.3c-2.4-0.1-4.8,0.1-7.1,0.5v18.7h5.5c8,0,12.5-4,12.5-9.8S479.3,137.4,472.3,137.3z"/>
<path class="st0" d="M62,137.9c-2.2-0.1-4.3,0.1-6.4,0.5v47c1.5,0.2,3,0.3,4.4,0.2c13.7,0.2,23.8-7.4,23.8-25.1
	C83.8,145.2,74.7,137.9,62,137.9z"/>
<path class="st0" d="M318.8,137.8c-10.1,0-16.5,9.6-16.5,24.1c0,14.7,6.4,23.9,16.6,23.9s16.1-10,16.1-24.1
	C335.1,148.1,329,137.8,318.8,137.8z"/>
<path class="st0" d="M548.3,137.5H548c-1.2,4.7-2.3,11.2-3.5,15.7l-3.4,14h14.6l-3.6-14.1C551,148.7,549.4,142.2,548.3,137.5z"/>
<path class="st0" d="M6,91.9v140.7h742V91.9H6z M92.5,192.3c-8.7,6.8-21.5,9.7-37,9.7c-10.2,0-17-0.6-21.1-1.3v-77.3
	c8.3-1.2,16.7-1.7,25.1-1.6c15.1,0,24.6,2.4,32.4,7.8c8.7,6,14.3,15.8,14.3,30.3C106.3,175.9,100.2,186.3,92.5,192.3L92.5,192.3z
	 M170.4,201.2h-52.9v-78.9h51.2v17.2h-30.1v12.8H167v17.1h-28.3v14.5h31.7L170.4,201.2z M249.7,201.2l-0.9-28.2
	c-0.2-9-0.5-19.5-0.4-31.8h-0.4c-2.5,10.4-5.7,22.2-8.3,30.9l-7.8,27.5h-16.5l-6.7-27.4c-2-8.5-4.4-20.2-6.2-31h-0.2
	c-0.5,11.1-0.9,22.8-1.3,31.8l-1.2,28.2h-19.5l4.8-78.9h28.4l5.3,21.2c2.1,8.8,4.5,19.3,6.1,28.9h0.5c2.2-9.6,4.8-20.7,7.1-29
	l5.9-21.1h27.9l4,78.9L249.7,201.2z M317.9,202.5c-24.5,0-37.9-18.4-37.9-40.3c0-22.9,15.1-41.2,39.2-41.2
	c25.4,0,38.3,18.8,38.3,39.9C357.5,186.3,342.2,202.5,317.9,202.5L317.9,202.5z M412.6,201.2L396,169.3l-6.3,8.1v23.9h-21v-78.9h21
	v33.5h0.2c1.6-2.9,3.4-5.9,5.2-8.7l15.1-24.8h26l-25,33.6l26,45.3L412.6,201.2z M485.7,201.2c-1.2-2.3-3.2-8.4-5.5-18.1
	c-2.1-9.5-5-11.5-11.6-11.5h-3.4v29.6h-21v-77.8c8.5-1.2,17-1.7,25.5-1.6c12,0,20.7,1.6,26.7,6.1c5,3.9,7.8,9.5,7.8,17.2
	c0,9.8-7.4,16.9-13.6,19.1v0.5c5.3,2.2,8.1,7.3,10.1,14c2.5,8.1,5,19.5,6.5,22.6L485.7,201.2z M563.7,201.2l-5-18.2h-20.4l-4.5,18.2
	H512l22.9-78.9H563l23.5,78.9H563.7z M635.2,184.9c4.8,0,9.6-0.8,14.2-2.3l2.9,16.6c-3,1.4-10.4,3.2-19.9,3.2
	c-29.5,0-42.5-18.4-42.5-39.3c0-27.9,20.4-42,43.9-42c9.1,0,16.5,1.8,19.8,3.5l-4.1,16.6c-4.6-1.9-9.6-2.8-14.6-2.8
	c-12.2,0-22.7,7.1-22.7,23.3C612.1,176,620.7,184.9,635.2,184.9L635.2,184.9z M684.8,201.2h-21.2v-78.9h21.2L684.8,201.2z
	 M720.5,201.2h-21.2v-78.9h21.2L720.5,201.2z"/>
</svg>
