<?xml version="1.0" encoding="UTF-8"?><svg id="MT" xmlns="http://www.w3.org/2000/svg" viewBox="0 0 188.61 37.19"><defs><style>.cls-1{fill:#224e9c;stroke-width:0px;}</style></defs><path class="cls-1" d="m60.12,1.26h6.61v2.24h-3.85v1.91h3.62v2.23h-3.62v3.91h-2.76V1.26Z"/><path class="cls-1" d="m68.44,1.26h2.76v7.98h3.95v2.31h-6.71V1.26Z"/><path class="cls-1" d="m79.25,1.26v10.29h-2.76V1.26h2.76Z"/><path class="cls-1" d="m89.84,7.87c-.03-1.18-.06-2.55-.05-4.15h-.04c-.32,1.36-.75,2.9-1.09,4.03l-1.02,3.59h-2.15l-.87-3.57c-.26-1.11-.58-2.64-.81-4.04h-.03c-.06,1.45-.12,2.97-.17,4.15l-.16,3.68h-2.54l.62-10.29h3.71l.7,2.75c.27,1.14.58,2.52.79,3.77h.06c.29-1.25.62-2.7.93-3.78l.76-2.75h3.63l.52,10.29h-2.69l-.12-3.68Z"/><path class="cls-1" d="m94.34,1.26h2.73v4.36h.03c.21-.38.44-.76.67-1.13l1.97-3.24h3.39l-3.27,4.38,3.39,5.91h-3.19l-2.17-4.17-.82,1.05v3.11h-2.73V1.26Z"/><path class="cls-1" d="m106.96,1.26v10.29h-2.76V1.26h2.76Z"/><path class="cls-1" d="m115.31,7.39h-3.69v1.89h4.14v2.26h-6.9V1.26h6.68v2.24h-3.92v1.66h3.69v2.23Z"/><path class="cls-1" d="m117.28,11.55V1.26h3.26l1.63,3.16c.62,1.16,1.16,2.37,1.62,3.6h.05c-.15-1.44-.22-2.89-.21-4.34V1.26h2.52v10.29h-2.9l-1.74-3.41c-.65-1.21-1.23-2.46-1.74-3.73h-.05c.06,1.4.09,2.95.09,4.61v2.53h-2.53Z"/><path class="cls-1" d="m106.49,22.34c-1.56,0-2.56,1.49-2.56,3.74s1,3.7,2.58,3.7,2.5-1.54,2.5-3.74c0-2.1-.94-3.7-2.52-3.7Z"/><path class="cls-1" d="m142.05,22.3h-.04c-.18.73-.36,1.74-.54,2.43l-.53,2.17h2.27l-.56-2.19c-.18-.69-.42-1.69-.6-2.41Z"/><path class="cls-1" d="m47.85,22.36c-.33,0-.67.02-1,.07v7.29c.23.03.46.04.69.04,2.12.04,3.68-1.14,3.68-3.9,0-2.37-1.42-3.5-3.37-3.5Z"/><path class="cls-1" d="m66.67,22.36c-.33,0-.67.02-1,.07v7.29c.23.03.46.04.69.04,2.12.04,3.68-1.14,3.68-3.9,0-2.37-1.42-3.5-3.37-3.5Z"/><path class="cls-1" d="m36.08,22.3h-.04c-.18.73-.36,1.74-.54,2.43l-.53,2.17h2.27l-.56-2.19c-.18-.69-.42-1.69-.6-2.41Z"/><path class="cls-1" d="m130.28,22.27c-.37-.01-.74.01-1.11.07v2.9h.85c1.24,0,1.94-.62,1.94-1.52s-.6-1.43-1.69-1.45Z"/><path class="cls-1" d="m178.42,22.3h-.04c-.18.73-.36,1.74-.54,2.43l-.53,2.17h2.27l-.56-2.19c-.18-.69-.42-1.69-.6-2.41Z"/><rect class="cls-1" x="21.67" y="23.68" width="3.97" height="1.34"/><path class="cls-1" d="m.64,15.22v21.81h187.99V15.22H.64Zm15.57,16.37c-1.36.44-2.78.68-4.2.71-2.41,0-4.05-.6-5.15-1.65-1.14-1.09-1.74-2.67-1.74-4.43.02-4.24,3.17-6.4,7.15-6.4,1.65,0,2.9.29,3.54.6l-.65,2.61c-.69-.29-1.51-.51-2.9-.51-2.02,0-3.68,1.05-3.68,3.54,0,2.29,1.47,3.61,3.48,3.61.34,0,.68-.03,1.02-.11v-2.11h-1.64v-2.54h4.79v6.68Zm13.93-7.91h-1.22v8.49h-3.28v-4.28h-3.98v4.28h-3.26v-8.49h-1.24v-1.89h1.24v-1.85h3.26v1.85h3.98v-1.85h3.28v1.85h1.21v1.89Zm8.33,8.49l-.78-2.83h-3.16l-.69,2.83h-3.39l3.55-12.23h4.35l3.65,12.23h-3.54Zm14.09-1.38c-1.34,1.05-3.34,1.51-5.74,1.51-1.58,0-2.64-.09-3.26-.2v-11.99c1.29-.18,2.6-.26,3.9-.25,2.34,0,3.81.38,5.02,1.22,1.34.93,2.21,2.45,2.21,4.7,0,2.49-.94,4.1-2.14,5.02h0Zm8.16-3.63h-4.86v-2.12h4.86v2.12Zm10.66,3.63c-1.34,1.05-3.34,1.51-5.74,1.51-1.58,0-2.64-.09-3.26-.2v-11.99c1.29-.18,2.6-.26,3.9-.25,2.34,0,3.81.38,5.02,1.22,1.34.93,2.21,2.45,2.21,4.7,0,2.49-.94,4.1-2.14,5.02Zm12.08,1.38h-8.2v-12.23h7.95v2.67h-4.66v1.98h4.39v2.65h-4.39v2.25h4.92v2.68Zm12.3,0l-.15-4.37c-.04-1.4-.07-3.03-.05-4.93h-.05c-.38,1.61-.89,3.45-1.29,4.79l-1.22,4.26h-2.55l-1.03-4.24c-.31-1.32-.69-3.14-.96-4.81h-.04c-.07,1.72-.14,3.54-.2,4.93l-.18,4.37h-3.01l.74-12.23h4.41l.82,3.28c.33,1.36.69,2.99.94,4.48h.07c.34-1.49.74-3.21,1.11-4.5l.91-3.27h4.32l.62,12.23h-3.19Zm10.57.2c-3.79,0-5.88-2.85-5.88-6.24s2.34-6.38,6.08-6.38c3.94,0,5.93,2.92,5.93,6.18,0,3.94-2.35,6.44-6.13,6.44h0Zm14.67-.2l-2.57-4.95-.98,1.25v3.7h-3.25v-12.23h3.25v5.19h.04c.25-.45.53-.91.8-1.34l2.34-3.85h4.03l-3.88,5.21,4.03,7.02h-3.81Zm11.34,0c-.18-.36-.49-1.31-.85-2.81-.33-1.47-.78-1.78-1.8-1.78h-.53v4.59h-3.24v-12.06c1.31-.18,2.63-.27,3.95-.25,1.86,0,3.21.25,4.13.94.78.6,1.22,1.47,1.22,2.67,0,1.52-1.14,2.61-2.1,2.96v.07c.82.34,1.25,1.13,1.56,2.17.38,1.25.78,3.03,1.02,3.5h-3.36Zm12.09,0l-.78-2.83h-3.15l-.69,2.83h-3.39l3.55-12.23h4.35l3.65,12.23h-3.55Zm14.24,0h-9.74v-1.74l5.41-7.71v-.07h-4.9v-2.7h9.15v1.87l-5.24,7.58v.07h5.33v2.7Zm4.95,0h-3.28v-12.23h3.28v12.23Zm7.87-4.68c0,3.55-1.71,4.88-4.65,4.88-.73,0-1.46-.09-2.16-.29l.34-2.64c.47.13.95.2,1.43.2,1.05,0,1.74-.47,1.74-2.16v-7.54h3.28v7.55Zm9.3,4.68l-.78-2.83h-3.16l-.69,2.83h-3.39l3.55-12.23h4.35l3.64,12.23h-3.55Z"/></svg>