<?xml version="1.0" encoding="utf-8"?>
<!-- Generator: Adobe Illustrator 27.6.1, SVG Export Plug-In . SVG Version: 6.00 Build 0)  -->
<svg version="1.1" id="Layer_1" xmlns="http://www.w3.org/2000/svg" xmlns:xlink="http://www.w3.org/1999/xlink" x="0px" y="0px"
	 viewBox="0 0 802 225" style="enable-background:new 0 0 802 225;" xml:space="preserve">
<style type="text/css">
	.st0{fill:#FFFFFF;}
</style>
<path class="st0" d="M18.5,17.7H5.7V6.5h39.2v11.2h-13v38.9H18.5V17.7z"/>
<path class="st0" d="M95.9,31c0,16.1-9.6,26.4-25.1,26.4S46.8,45.7,46.8,31.8c0-14.6,9.6-26.1,24.9-26.1C87.8,5.7,95.9,17.7,95.9,31
	z M60.9,31.6c0,9.4,4.1,15.1,10.6,15.1s10.2-6.3,10.2-15.3c0-8.6-3.9-15.1-10.3-15.1S61,22.4,60.9,31.6L60.9,31.6z"/>
<path class="st0" d="M103.1,7.2c5.3-0.7,10.6-1.1,16-1c9.6,0,15.6,1.6,20.6,5c5.5,3.8,9.1,10,9.1,19.2c0,10.2-3.9,16.8-8.8,20.6
	c-5.5,4.3-13.7,6.2-23.5,6.2c-4.5,0.1-8.9-0.2-13.4-0.8L103.1,7.2z M116.5,46.5c0.9,0.1,1.9,0.2,2.8,0.1c8.7,0.1,15.1-4.7,15.1-16
	c0-9.7-5.8-14.3-13.8-14.3c-1.4,0-2.7,0.1-4.1,0.3V46.5z"/>
<path class="st0" d="M202.9,31c0,16.1-9.7,26.4-25.1,26.4s-24.1-11.7-24.1-25.6c0-14.6,9.6-26.1,24.9-26.1
	C194.7,5.7,202.9,17.7,202.9,31z M167.9,31.6c0,9.4,4.1,15.1,10.5,15.1s10.2-6.3,10.2-15.3c0-8.6-3.9-15.1-10.3-15.1
	S167.9,22.4,167.9,31.6L167.9,31.6z"/>
<path class="st0" d="M210.9,43.2c4,2,8.5,3.1,13,3.1c4.6,0,6.8-1.6,6.8-4.1s-2.2-3.9-7.9-5.8c-8.5-3-14-7.6-14-15.1
	c0-8.8,7.4-15.7,20.1-15.7c4.7-0.1,9.3,0.8,13.6,2.6L239.7,19c-3.4-1.6-7.2-2.4-10.9-2.4c-4.1,0-6.3,1.5-6.3,3.7
	c0,2.5,2.7,3.6,9,5.9c9,3.3,13.1,8.1,13.1,15.1c0,8.6-6.8,16-21.4,16c-6,0-11.9-1.6-14.7-3L210.9,43.2z"/>
<path class="st0" d="M276,6.5h13.4v30.9c0,14.6-7,20-19,20c-3,0-6-0.4-8.8-1.2l1.4-10.8c1.9,0.5,3.9,0.8,5.9,0.8
	c4.3,0,7.1-1.9,7.1-8.8V6.5z"/>
<path class="st0" d="M311.6,6.5v28.4c0,7.6,2.6,11.9,7.9,11.9s7.9-3.9,7.9-11.9V6.5h13.5v27.6c0,15.4-7.7,23.2-21.8,23.2
	c-13.7,0-20.9-7.5-20.9-23.6V6.5H311.6z"/>
<path class="st0" d="M350,56.6V6.5h15.8l7.9,15.4c3,5.7,5.6,11.5,7.9,17.5h0.2c-0.7-7-1.1-14-1-21.1V6.5h12.3v50.1H379l-8.5-16.6
	c-3.2-5.9-6-11.9-8.5-18.1h-0.2c0.3,6.8,0.5,14.3,0.5,22.4v12.3L350,56.6z"/>
<path class="st0" d="M412.1,17.7h-12.8V6.5h39.2v11.2h-13v38.9h-13.4V17.7z"/>
<path class="st0" d="M489.6,31c0,16.1-9.7,26.4-25.1,26.4s-24.1-11.7-24.1-25.6c0-14.6,9.6-26.1,24.9-26.1
	C481.4,5.7,489.6,17.7,489.6,31z M454.6,31.6c0,9.4,4.1,15.1,10.5,15.1s10.2-6.3,10.2-15.3c0-8.6-3.9-15.1-10.3-15.1
	S454.6,22.4,454.6,31.6L454.6,31.6z"/>
<path class="st0" d="M497.6,43.2c4,2,8.5,3.1,13,3.1c4.6,0,6.8-1.6,6.8-4.1s-2.2-3.9-7.9-5.8c-8.5-3-14-7.6-14-15.1
	c0-8.8,7.4-15.7,20-15.7c4.7-0.1,9.3,0.8,13.6,2.6L526.4,19c-3.4-1.6-7.1-2.4-10.9-2.4c-4.1,0-6.3,1.5-6.3,3.7c0,2.5,2.7,3.6,9,5.9
	c9,3.3,13.1,8.1,13.1,15.1c0,8.6-6.8,16-21.4,16c-6,0-11.9-1.6-14.7-3L497.6,43.2z"/>
<path class="st0" d="M553.1,7.2c5.5-0.8,11-1.1,16.6-1c7.2,0,12.3,1.3,15.8,3.9c3.7,2.9,5.8,7.4,5.7,12.1c0,5-1.7,9.5-4.8,12.3
	c-4.1,3.6-10,5.2-16.7,5.2c-1.3,0-2.5-0.1-3.3-0.1v17h-13.3V7.2z M566.4,29.3c1,0.1,2,0.2,3,0.1c5.3,0,8.5-2.7,8.5-7
	c0-3.7-2.5-6.2-7.6-6.2c-1.3,0-2.7,0.1-4,0.3L566.4,29.3z"/>
<path class="st0" d="M644.9,31c0,16.1-9.7,26.4-25.1,26.4s-24.1-11.7-24.1-25.6c0-14.6,9.6-26.1,24.9-26.1
	C636.8,5.7,644.9,17.7,644.9,31z M609.9,31.6c0,9.4,4.1,15.1,10.5,15.1s10.2-6.3,10.2-15.3c0-8.6-3.9-15.1-10.3-15.1
	S610,22.4,609.9,31.6L609.9,31.6z"/>
<path class="st0" d="M652.1,7.2c5.4-0.7,10.8-1.1,16.2-1c7.7,0,13.2,1,16.9,3.9c3.2,2.4,5,6,5,10.9c-0.1,5.4-3.5,10.2-8.6,12.1v0.3
	c3.3,1.4,5.1,4.6,6.4,8.9c1.6,5.1,3.2,12.4,4.2,14.3h-13.8c-0.7-1.5-2-5.4-3.5-11.5s-3.2-7.3-7.3-7.3h-2.2v18.8h-13.3V7.2z
	 M665.4,28.2h3.5c5,0,8-2.5,8-6.2s-2.5-5.9-6.9-5.9c-1.5,0-3,0.1-4.5,0.3V28.2z"/>
<path class="st0" d="M712.6,6.5H726v38.9h19.2v11.2h-32.7V6.5z"/>
<path class="st0" d="M765.5,45l-2.8,11.6h-13.9l14.6-50.1h17.8l14.9,50.1h-14.5L778.4,45H765.5z M776.6,35l-2.3-9
	c-0.8-2.8-1.7-6.9-2.5-9.9h-0.1c-0.8,3-1.5,7.1-2.2,9.9l-2.2,8.9L776.6,35z"/>
<path class="st0" d="M323.3,125.8c-10.1,0-16.5,9.6-16.5,24.1c0,14.7,6.4,23.9,16.6,23.9s16.1-10,16.1-24.1
	C339.6,136.1,333.5,125.8,323.3,125.8z"/>
<path class="st0" d="M547.6,125.5h-0.2c-1.2,4.7-2.3,11.2-3.5,15.7l-3.4,14h14.6l-3.6-14.1C550.3,136.7,548.8,130.2,547.6,125.5z"/>
<path class="st0" d="M729.3,125.5h-0.2c-1.2,4.7-2.3,11.2-3.5,15.7l-3.4,14h14.6l-3.6-14.1C732,136.7,730.5,130.2,729.3,125.5z"/>
<path class="st0" d="M66.5,125.9c-2.2-0.1-4.3,0.1-6.4,0.5v47c1.5,0.2,3,0.3,4.4,0.2c13.7,0.2,23.8-7.4,23.8-25.1
	C88.3,133.2,79.1,125.9,66.5,125.9z"/>
<path class="st0" d="M4.1,79.9v140.7h793.8V79.9H4.1z M96.9,180.3c-8.7,6.8-21.5,9.7-37,9.7c-10.2,0-17-0.6-21.1-1.3v-77.3
	c8.3-1.2,16.7-1.7,25.2-1.6c15.1,0,24.6,2.4,32.4,7.8c8.7,6,14.3,15.8,14.3,30.3C110.7,163.9,104.7,174.3,96.9,180.3z M174.9,189.2
	H122v-78.9h51.2v17.2h-30.1v12.8h28.3v17.1h-28.3v14.5h31.7V189.2z M254.2,189.2l-0.9-28.2c-0.2-9-0.5-19.5-0.4-31.8h-0.4
	c-2.5,10.4-5.7,22.2-8.3,30.9l-7.8,27.5h-16.5l-6.7-27.4c-2-8.5-4.5-20.2-6.2-31h-0.2c-0.5,11.1-0.9,22.8-1.3,31.8l-1.2,28.2h-19.4
	l4.8-78.9h28.4l5.3,21.2c2.1,8.8,4.4,19.3,6.1,28.9h0.5c2.2-9.6,4.8-20.7,7.1-29l5.9-21.1h27.8l4,78.9L254.2,189.2z M322.4,190.5
	c-24.5,0-37.9-18.4-37.9-40.2c0-22.9,15.1-41.2,39.2-41.2c25.4,0,38.3,18.8,38.3,39.9C361.9,174.3,346.7,190.5,322.4,190.5
	L322.4,190.5z M415.2,172.9c4.8,0,9.6-0.8,14.2-2.3l2.9,16.6c-3,1.4-10.4,3.2-19.9,3.2c-29.5,0-42.5-18.4-42.5-39.3
	c0-27.9,20.4-42,43.9-42c9.1,0,16.5,1.8,19.8,3.5l-4.1,16.6c-4.6-1.9-9.6-2.8-14.6-2.8c-12.2,0-22.7,7.1-22.7,23.3
	C392.1,164,400.6,172.9,415.2,172.9L415.2,172.9z M485,189.2c-1.2-2.3-3.2-8.4-5.5-18.1c-2.1-9.5-5-11.5-11.6-11.5h-3.4v29.6h-20.9
	v-77.8c8.4-1.2,17-1.7,25.5-1.6c12.1,0,20.7,1.6,26.7,6.1c5,3.9,7.8,9.5,7.8,17.2c0,9.8-7.4,16.9-13.6,19.1v0.5
	c5.3,2.2,8.1,7.3,10.1,14c2.5,8.1,5,19.5,6.5,22.6L485,189.2z M563,189.2l-5-18.2h-20.3l-4.4,18.2h-21.9l22.9-78.9h28.1l23.5,78.9
	H563z M634.5,172.9c4.8,0,9.6-0.8,14.2-2.3l2.9,16.6c-3,1.4-10.4,3.2-19.9,3.2c-29.5,0-42.5-18.4-42.5-39.3c0-27.9,20.4-42,43.9-42
	c9.1,0,16.5,1.8,19.8,3.5l-4.1,16.6c-4.6-1.9-9.6-2.8-14.6-2.8c-12.2,0-22.7,7.1-22.7,23.3C611.5,164,620,172.9,634.5,172.9
	L634.5,172.9z M684.1,189.2H663v-78.9h21.2L684.1,189.2z M744.7,189.2l-5-18.2h-20.3l-4.5,18.2H693l23-78.9h28l23.5,78.9H744.7z"/>
<path class="st0" d="M471.7,125.3c-2.4-0.1-4.8,0.1-7.1,0.5v18.7h5.5c8,0,12.5-4,12.5-9.8S478.7,125.4,471.7,125.3z"/>
</svg>
