<?xml version="1.0" encoding="utf-8"?>
<!-- Generator: Adobe Illustrator 28.0.0, SVG Export Plug-In . SVG Version: 6.00 Build 0)  -->
<svg version="1.1" id="ep_ballot_hashtag_flag_logo_en"
	 xmlns="http://www.w3.org/2000/svg" xmlns:xlink="http://www.w3.org/1999/xlink" x="0px" y="0px" viewBox="0 0 1621.1 417.4"
	 style="enable-background:new 0 0 1621.1 417.4;" xml:space="preserve">
<style type="text/css">
	.st0{fill:#FFFFFF;}
	.st1{fill:#0C4DA2;}
	.st2{fill:#FFF200;}
</style>
<g id="Groupe_15817">
	<path id="Tracé_9889" class="st0" d="M440,296.1L296.5,11L11.4,154.7l107.5,213.3H45.7v30.7H438v-30.7H297.5L440,296.1z
		 M52.8,168.3l230-115.9l115.9,230l-169.8,85.4h-75.6L52.8,168.3z"/>
	<g id="Groupe_15815" transform="translate(475.137 11.018)">
		<path id="Tracé_9890" class="st0" d="M72.2,102.6H55.9l-5.4,18.9H23.9l5.3-18.9H17.4V80.2h18.2l5.4-19.9H25.6V38.6h21.8L53,18.2
			h26.7L74,38.6h16.2l5.7-20.4h26.5l-5.7,20.4h13.5v21.9h-19.9l-5.4,19.7h16.9v22.3H98.5l-5.2,18.9H66.9L72.2,102.6z M78.5,80.2
			l5.6-19.9H67.7L62,80.2H78.5z"/>
		<path id="Tracé_9891" class="st0" d="M146.8,80.4V13.1h30.6v67.5c0,9.9,6.8,16.5,17.1,16.5c10.5,0,17.1-6.5,17.1-16.5V13.1h30.5
			v67.3c0,27.2-19,45.2-47.6,45.2C165.7,125.5,146.8,107.6,146.8,80.4z"/>
		<path id="Tracé_9892" class="st0" d="M252.6,109.5L268.8,88c7.3,7.5,17.3,11.8,27.7,11.8c6.8,0,13.6-2.2,13.6-8.8
			c0-7.1-6.1-9.1-17.3-11.4c-23.5-4.8-37.1-14-37.1-33.7c0-22.6,20.4-34.8,44.6-34.8c16.9,0,30.6,4.8,40.5,14.6L325,46
			c-8.4-6.4-16.5-9.4-24.3-9.4c-7.2,0-12.7,2.2-12.7,7.5s4.2,8,17,10.7c24.3,4.9,37.7,16.1,37.7,35.9c0,22.7-20.1,34.7-46.8,34.7
			C277.9,125.7,262,118.7,252.6,109.5z"/>
		<path id="Tracé_9893" class="st0" d="M384.7,54.3h45.8v26.4h-45.8v16.7h54.1v26.4h-84.1V13.2h82.6v26.5h-52.6V54.3z"/>
		<path id="Tracé_9894" class="st0" d="M46,144.7l19.3,39l18.8-39h34.4l-38.2,69.8v40.7H49.6V214l-38.2-69.4L46,144.7L46,144.7z"/>
		<path id="Tracé_9895" class="st0" d="M113.4,200.1c0-33.2,24.3-57.4,57.7-57.4s57.7,24.1,57.7,57.1c0,33.3-24.3,57.5-57.9,57.5
			C137.8,257.4,113.4,233.3,113.4,200.1z M197.4,200.1c0-16.9-11-29.2-26.1-29.2s-26.4,12.2-26.4,29.1c0,17,11.3,29.2,26.4,29.2
			S197.4,216.8,197.4,200.1z"/>
		<path id="Tracé_9896" class="st0" d="M241.7,212.1v-67.3h30.5v67.5c0,9.9,6.8,16.5,17.1,16.5c10.5,0,17.1-6.5,17.1-16.5v-67.5
			h30.5v67.3c0,27.2-19,45.2-47.6,45.2C260.5,257.2,241.7,239.3,241.7,212.1z"/>
		<path id="Tracé_9897" class="st0" d="M355.7,144.9h47.2c25.7,0,42.6,14.3,42.6,35.8c0,16.2-9.2,28.2-24.9,33.2l27.2,41.4H413
			l-24.9-38.8h-1.8v38.8h-30.6V144.9z M402.1,192.7c7.8,0,12.8-4.6,12.8-11.6c0-6.7-5-11.3-12.8-11.3h-15.9v22.9L402.1,192.7z"/>
		<path id="Tracé_9898" class="st0" d="M12.2,276.5h32.1l23.3,77.3h0.3l23.7-77.3h31.7L85.8,386.9H49.5L12.2,276.5z"/>
		<path id="Tracé_9899" class="st0" d="M124,331.8c0-33.2,24.3-57.4,57.7-57.4s57.7,24.1,57.7,57.1c0,33.3-24.3,57.5-57.9,57.5
			C148.4,389,124,365,124,331.8z M208,331.8c0-16.9-11-29.2-26.1-29.2s-26.4,12.2-26.4,29.1c0,17,11.3,29.2,26.4,29.2
			S208,348.5,208,331.8z"/>
		<path id="Tracé_9900" class="st0" d="M307.5,304.7V387h-30.6v-82.3h-31.4v-28.3h93.3v28.3H307.5z"/>
		<path id="Tracé_9901" class="st0" d="M385.2,317.5h45.8v26.4h-45.8v16.7h54.1V387h-84.1V276.5h82.6v26.5h-52.6V317.5z"/>
	</g>
	<g id="Groupe_15816" transform="translate(1015.023 6.257)">
		<rect id="Rectangle_4313" x="11.4" y="11" class="st0" width="583.3" height="389.2"/>
		<rect id="Rectangle_4314" x="19.2" y="18.6" class="st1" width="568" height="373.8"/>
		<path id="Tracé_9902" class="st2" d="M302.8,53.3l5.6,17.1h18.1l-14.7,10.6l5.7,17.1l-14.7-10.6l-14.6,10.6l5.7-17.1l-14.8-10.6
			h18.1L302.8,53.3z"/>
		<path id="Tracé_9903" class="st2" d="M302.8,312.9l5.6,17.1h18.1l-14.7,10.6l5.7,17.1l-14.7-10.6l-14.6,10.6l5.7-17.1L279.1,330
			h18.1L302.8,312.9z"/>
		<path id="Tracé_9904" class="st2" d="M238.3,70.5l5.4,17.3h18.1l-14.7,10.6l5.7,17.1l-14.6-10.7l-14.7,10.7l5.7-17.1l-14.7-10.6
			h18.1L238.3,70.5z"/>
		<path id="Tracé_9905" class="st2" d="M190.7,118.2l5.6,17.3l18.1-0.1l-14.7,10.6l5.6,17.1l-14.6-10.7l-14.6,10.7l5.7-17.1
			L167,135.3l18.2,0.1L190.7,118.2z"/>
		<path id="Tracé_9906" class="st2" d="M173.1,182.9l5.6,17.1h18.1l-14.7,10.6l5.6,17.1l-14.6-10.7l-14.6,10.7l5.7-17.1l-14.8-10.6
			h18.2L173.1,182.9z"/>
		<path id="Tracé_9907" class="st2" d="M190.6,247.7l5.6,17.3l18-0.1l-14.7,10.6l5.7,17.1l-14.6-10.7l-14.7,10.7l5.7-17.1
			l-14.7-10.6L185,265L190.6,247.7z"/>
		<path id="Tracé_9908" class="st2" d="M238.3,295.3l5.4,17.1h18.1l-14.7,10.5l5.7,17.3l-14.6-10.6l-14.7,10.6l5.7-17.3l-14.7-10.5
			h18.1L238.3,295.3z"/>
		<path id="Tracé_9909" class="st2" d="M367.4,70.5L362,87.7h-18.2l14.8,10.6l-5.7,17.1l14.6-10.7l14.6,10.7l-5.6-17.1l14.7-10.6
			H373L367.4,70.5z"/>
		<path id="Tracé_9910" class="st2" d="M415,118.2l-5.6,17.3l-18.1-0.1l14.7,10.6l-5.7,17.1l14.7-10.7l14.6,10.7l-5.7-17.1
			l14.7-10.6l-18.1,0.1L415,118.2z"/>
		<path id="Tracé_9911" class="st2" d="M432.6,182.9l-5.6,17.1h-18.1l14.7,10.6l-5.7,17.1l14.7-10.7l14.6,10.7l-5.7-17.1l14.7-10.6
			H438L432.6,182.9z"/>
		<path id="Tracé_9912" class="st2" d="M415.1,247.7l-5.6,17.3l-18.1-0.1l14.8,10.6l-5.8,17.1l14.7-10.7l14.7,10.7l-5.7-17.1
			l14.7-10.6l-18.1,0.1L415.1,247.7z"/>
		<path id="Tracé_9913" class="st2" d="M367.4,295.3l-5.4,17.1h-18.2l14.8,10.5l-5.7,17.3l14.6-10.6l14.6,10.6l-5.6-17.3l14.7-10.5
			H373L367.4,295.3z"/>
	</g>
</g>
</svg>
