<svg role="presentation" aria-hidden="true" focusable="false" xmlns="http://www.w3.org/2000/svg" viewBox="0 0 24 24">
  <g>
    <g>
      <rect style="fill:none" width="24" height="24"/>
    </g>
    <path style="fill:#0c4da2" d="M18.67,20.02c-.17,0-.34-.03-.51-.1-6.78-2.02-12.05-7.3-14.07-14.12-.15-.39-.12-.82.11-1.18.24-.39.67-.63,1.13-.63h3.32c.51,0,.96.29,1.19.74l1.27,2.53c.26.51.16,1.13-.25,1.53l-2.06,2.06c1.2,1.68,2.66,3.15,4.33,4.35l2.07-2.07c.41-.41,1.03-.51,1.54-.25l2.52,1.27c.45.23.74.69.74,1.19v3.34c0,.47-.23.89-.63,1.14-.22.13-.46.2-.7.2ZM17.95,18.68h0s0,0,0,0ZM18.97,18.04h.01s0,0-.01,0ZM14.9,16.32c.97.54,1.99,1,3.05,1.37v-1.92s-1.67-.84-1.67-.84l-1.38,1.38ZM6.32,6.03c.37,1.06.82,2.08,1.35,3.04l1.36-1.36-.84-1.67h-1.88ZM8.64,6.03h0,0Z"/>
  </g>
</svg>