<svg role="presentation" aria-hidden="true" focusable="false" xmlns="http://www.w3.org/2000/svg" viewBox="0 0 24 24">
  <g>
    <g>
      <g>
        <rect style="fill:none" width="24" height="24"/>
      </g>
      <path style="fill:#0c4da2" d="M17.97,14.02c-1.2,0-2.26.54-3,1.38l-5.09-2.53c.06-.27.09-.56.09-.85s-.04-.58-.1-.86l5.09-2.53c.73.85,1.8,1.39,3.01,1.39,2.21,0,4-1.79,4-4s-1.79-4-4-4-4,1.79-4,4c0,.28.03.56.09.82l-5.1,2.54c-.73-.83-1.79-1.36-2.98-1.36-2.21,0-4,1.79-4,4s1.79,4,4,4c1.2,0,2.26-.54,2.99-1.37l5.1,2.53c-.06.27-.09.55-.09.83,0,2.21,1.79,4,4,4s4-1.79,4-4-1.79-4-4-4ZM17.97,4.02c1.1,0,2,.9,2,2s-.9,2-2,2-2-.9-2-2,.9-2,2-2ZM5.97,14.02c-1.1,0-2-.9-2-2s.9-2,2-2,2,.9,2,2-.9,2-2,2ZM17.97,20.02c-1.1,0-2-.9-2-2s.9-2,2-2,2,.9,2,2-.9,2-2,2Z"/>
    </g>
  </g>
</svg>