<svg role="presentation" aria-hidden="true" focusable="false" xmlns="http://www.w3.org/2000/svg" viewBox="0 0 24 24">
  <g>
    <g>
      <rect style="fill:none" width="24" height="24"/>
    </g>
    <g>
      <path style="fill:#0c4da2" d="M19.07,4.93c-1.95-1.95-4.51-2.93-7.07-2.93s-5.12.98-7.07,2.93c-3.91,3.91-3.91,10.24,0,14.14,1.95,1.95,4.51,2.93,7.07,2.93s5.12-.98,7.07-2.93c3.91-3.91,3.91-10.24,0-14.14ZM17.66,17.66c-1.51,1.51-3.52,2.34-5.66,2.34s-4.15-.83-5.66-2.34c-3.12-3.12-3.12-8.19,0-11.31,1.51-1.51,3.52-2.34,5.66-2.34s4.15.83,5.66,2.34c3.12,3.12,3.12,8.19,0,11.31Z"/>
      <polygon style="fill:#0c4da2" points="10.59 13.42 8.46 11.3 7.05 12.71 10.59 16.25 16.95 9.88 15.54 8.47 10.59 13.42"/>
    </g>
  </g>
</svg>