<svg role="presentation" aria-hidden="true" focusable="false" xmlns="http://www.w3.org/2000/svg" viewBox="0 0 24 24">
  <g>
    <g>
      <g>
        <rect style="fill:none" width="24" height="24"/>
      </g>
      <g>
        <path style="fill:#0c4da2" d="M11.99,4.01c4.41,0,8,3.59,8,8s-3.59,8-8,8S3.99,16.42,3.99,12.01,7.58,4.01,11.99,4.01M11.99,2.01C6.47,2.01,1.99,6.48,1.99,12.01s4.48,10,10,10,10-4.48,10-10S17.51,2.01,11.99,2.01h0Z"/>
        <path style="fill:#0c4da2" d="M11.11,12.49c.16-.43.35-.76.58-1.02.23-.25.53-.52.88-.8.34-.28.6-.53.77-.73.17-.21.25-.48.25-.8,0-.37-.15-.66-.44-.87-.29-.22-.69-.32-1.2-.32s-.97.12-1.35.35c-.38.23-.76.6-1.12,1.11l-1.36-1.39c.47-.7,1.03-1.21,1.68-1.53.65-.32,1.43-.48,2.36-.48,1.14,0,2.04.26,2.7.79.66.53.99,1.23.99,2.1,0,.42-.07.79-.21,1.11s-.31.59-.51.81-.47.48-.8.77c-.33.3-.59.55-.78.75-.18.2-.34.44-.48.73s-.21.62-.22,1h-1.97c-.01-.62.06-1.15.22-1.57ZM10.95,17.61c-.26-.26-.4-.59-.4-.99s.13-.73.4-.99.59-.4.99-.4.73.13.99.4c.26.26.4.6.4.99s-.13.73-.4.99-.6.4-.99.4-.73-.13-.99-.4Z"/>
      </g>
    </g>
  </g>
</svg>