<svg role="presentation" aria-hidden="true" focusable="false" xmlns="http://www.w3.org/2000/svg" viewBox="0 0 24 24">
  <g>
    <g>
      <rect style="fill:none" width="24" height="24"/>
    </g>
    <g>
      <polygon style="fill:#0c4da2" points="20 16 18 16 18 14 16 14 16 16 14.01 16 14.01 18 16 18 16 20 18 20 18 18 20 18 20 16"/>
      <path style="fill:#0c4da2" d="M16,5v-1h-2v1h-4v-1h-2v1h-3.99v15h7.99v-2h-5.99v-6.99h11.99v1h2v-7h-4.01ZM6.01,9v-2h1.99v1h2v-1h4v1h2v-1h2.01v2H6.01Z"/>
    </g>
  </g>
</svg>