<svg role="presentation" aria-hidden="true" focusable="false" xmlns="http://www.w3.org/2000/svg" viewBox="0 0 24 24">
  <g>
    <g>
      <g>
        <rect style="fill:none" width="24" height="24"/>
      </g>
      <g>
        <path style="fill:#0c4da2" d="M20.01,17.01h-2.19c-.41-1.16-1.51-2-2.82-2s-2.4.84-2.82,2H4v2h8.18c.41,1.16,1.51,2,2.82,2s2.4-.84,2.82-2h2.19v-2ZM15,19.01c-.55,0-1-.45-1-1s.45-1,1-1,1,.45,1,1-.45,1-1,1Z"/>
        <path style="fill:#0c4da2" d="M21,11.01h-9.18c-.41-1.16-1.51-2-2.82-2s-2.4.84-2.82,2h-2.18v2h2.18c.41,1.16,1.51,2,2.82,2s2.4-.84,2.82-2h9.18v-2ZM9,13.01c-.55,0-1-.45-1-1s.45-1,1-1,1,.45,1,1-.45,1-1,1Z"/>
        <path style="fill:#0c4da2" d="M20.01,5.01h-2.19c-.41-1.16-1.51-2-2.82-2s-2.4.84-2.82,2H4v2h8.18c.41,1.16,1.51,2,2.82,2s2.4-.84,2.82-2h2.19v-2ZM15,7.01c-.55,0-1-.45-1-1s.45-1,1-1,1,.45,1,1-.45,1-1,1Z"/>
      </g>
    </g>
  </g>
</svg>