<svg xmlns="http://www.w3.org/2000/svg" viewBox="0 0 12.76 10.56"><path d="M7.99.13a2.67 2.67 0 0 0-1.8 2.68v.46l-.47-.06a7.46 7.46 0 0 1-4.39-2.16L.72.44.56.89a2.68 2.68 0 0 0 .58 2.76c.36.39.28.45-.36.21-.22-.07-.41-.13-.43-.1a3.54 3.54 0 0 0 .37 1.25A3 3 0 0 0 1.99 6.2l.45.22H1.9c-.51 0-.53 0-.48.21a2.81 2.81 0 0 0 1.73 1.53l.57.19-.5.3a5.15 5.15 0 0 1-2.47.69 2.52 2.52 0 0 0-.75.08 7.29 7.29 0 0 0 1.77.82 7.82 7.82 0 0 0 6.05-.69 8.08 8.08 0 0 0 3.07-3.62 9.37 9.37 0 0 0 .63-2.79c0-.43 0-.49.54-1a6.57 6.57 0 0 0 .65-.72c.09-.18.08-.18-.39 0-.78.28-.89.24-.51-.17a2.68 2.68 0 0 0 .63-1s-.14 0-.29.1a6.42 6.42 0 0 1-.82.32l-.49.16-.45-.28A3.34 3.34 0 0 0 9.6.14a3.13 3.13 0 0 0-1.61 0" fill="#54acec"/></svg>