<svg xmlns="http://www.w3.org/2000/svg" viewBox="0 0 32 32">
    <g>
        <rect width="32" height="32" fill="none"/>
    </g>
    <path d="M28.357,8.98A5.75,5.75,0,0,0,27.29,6.34a3.813,3.813,0,0,0-2.667-1.133C20.89,4.94,15.29,4.94,15.29,4.94h0s-5.6,0-9.333.267A3.813,3.813,0,0,0,3.29,6.34,5.725,5.725,0,0,0,2.237,8.98,40.407,40.407,0,0,0,1.97,13.3v2.027a40.407,40.407,0,0,0,.267,4.32,5.835,5.835,0,0,0,1.053,2.64,4.56,4.56,0,0,0,2.947,1.147c2.133.2,9.067.267,9.067.267s5.6,0,9.333-.28A3.813,3.813,0,0,0,27.3,22.287a5.8,5.8,0,0,0,1.067-2.64,40.407,40.407,0,0,0,.267-4.32V13.3a40.407,40.407,0,0,0-.267-4.32Zm-15.813,8.8V10.287l7.2,3.76Z" transform="translate(0.657 1.647)"/>
</svg>
