<svg xmlns="http://www.w3.org/2000/svg" viewBox="0 0 21.333 21.333">
    <defs>
        <clipPath>
            <rect width="21.333" height="21.333" fill="none"/>
        </clipPath>
    </defs>
    <g clip-path="url(#clip-path)">
        <g transform="translate(0 0)">
            <path d="M14.677,5.96c2.853,0,3.187,0,4.307.067a6.025,6.025,0,0,1,1.973.36,3.263,3.263,0,0,1,1.227.8,3.432,3.432,0,0,1,.8,1.227,5.755,5.755,0,0,1,.36,1.973c.053,1.12.067,1.467.067,4.307s0,3.187-.067,4.307a6.025,6.025,0,0,1-.36,1.973,3.263,3.263,0,0,1-.8,1.227,3.432,3.432,0,0,1-1.227.8,6.009,6.009,0,0,1-1.973.373c-1.12.053-1.467.067-4.307.067s-3.187,0-4.307-.067A5.6,5.6,0,0,1,8.4,23a3.263,3.263,0,0,1-1.227-.8,3.432,3.432,0,0,1-.8-1.227A6.009,6.009,0,0,1,6,19c-.053-1.12-.067-1.467-.067-4.307s0-3.187.067-4.307A5.6,5.6,0,0,1,6.37,8.413a3.263,3.263,0,0,1,.8-1.227,3.432,3.432,0,0,1,1.227-.8,5.755,5.755,0,0,1,1.973-.36c1.12-.053,1.453-.067,4.307-.067Zm0-1.92c-2.893,0-3.253,0-4.4.067A7.8,7.8,0,0,0,7.69,4.6,5.316,5.316,0,0,0,5.8,5.827,4.979,4.979,0,0,0,4.57,7.72a7.8,7.8,0,0,0-.493,2.587c-.053,1.147-.067,1.507-.067,4.4s0,3.253.067,4.4a7.8,7.8,0,0,0,.493,2.587A5.435,5.435,0,0,0,5.8,23.587,5.142,5.142,0,0,0,7.69,24.813a7.8,7.8,0,0,0,2.587.493c1.133.053,1.493.067,4.4.067s3.253,0,4.4-.067a7.8,7.8,0,0,0,2.587-.493,5.252,5.252,0,0,0,1.893-1.227,5.142,5.142,0,0,0,1.227-1.893,7.8,7.8,0,0,0,.493-2.587c.053-1.133.067-1.507.067-4.4s0-3.253-.067-4.4a7.8,7.8,0,0,0-.493-2.587,4.979,4.979,0,0,0-1.227-1.893A5.142,5.142,0,0,0,21.663,4.6a7.8,7.8,0,0,0-2.587-.493c-1.147-.053-1.507-.067-4.4-.067Z" transform="translate(-4.01 -4.04)"/>
            <path d="M13.38,7.93a5.48,5.48,0,1,0,5.48,5.48,5.48,5.48,0,0,0-5.48-5.48Zm0,9.027a3.56,3.56,0,1,1,3.56-3.56A3.559,3.559,0,0,1,13.38,16.957Z" transform="translate(-2.713 -2.743)"/>
            <path d="M17.88,8.09A1.28,1.28,0,1,1,16.6,6.81a1.28,1.28,0,0,1,1.28,1.28Z" transform="translate(-0.24 -3.117)"/>
        </g>
    </g>
</svg>
