<svg xmlns="http://www.w3.org/2000/svg" width="121" height="111"><g data-name="Rectangle 3024" fill="#fff" stroke="#0c4da2" stroke-width="9"><path d="M0 11h121v100H0z" stroke="none"/><path fill="none" d="M4.5 15.5h112v91H4.5z"/></g><path data-name="Rectangle 3025" fill="#0c4da2" d="M4 14h113v30H4z"/><g data-name="Rectangle 3026" fill="#fff" stroke="#0c4da2" stroke-width="5"><path d="M20 0h16v26H20z" stroke="none"/><path fill="none" d="M22.5 2.5h11v21h-11z"/></g><g data-name="Rectangle 3027" fill="#fff" stroke="#0c4da2" stroke-width="5"><path d="M85 0h16v26H85z" stroke="none"/><path fill="none" d="M87.5 2.5h11v21h-11z"/></g><g data-name="Rectangle 3028" fill="#fff" stroke="#0c4da2" stroke-width="5"><path d="M17 53h24v16H17z" stroke="none"/><path fill="none" d="M19.5 55.5h19v11h-19z"/></g><g data-name="Rectangle 3033" fill="#fff" stroke="#0c4da2" stroke-width="5"><path d="M17 78h24v16H17z" stroke="none"/><path fill="none" d="M19.5 80.5h19v11h-19z"/></g><g data-name="Rectangle 3029" fill="#fff" stroke="#0c4da2" stroke-width="5"><path d="M49 53h24v16H49z" stroke="none"/><path fill="none" d="M51.5 55.5h19v11h-19z"/></g><g data-name="Rectangle 3032" fill="#fff" stroke="#0c4da2" stroke-width="5"><path d="M49 78h24v16H49z" stroke="none"/><path fill="none" d="M51.5 80.5h19v11h-19z"/></g><g data-name="Rectangle 3030" fill="#fff" stroke="#0c4da2" stroke-width="5"><path d="M81 53h24v16H81z" stroke="none"/><path fill="none" d="M83.5 55.5h19v11h-19z"/></g><g data-name="Rectangle 3031" fill="#fff" stroke="#0c4da2" stroke-width="5"><path d="M81 78h24v16H81z" stroke="none"/><path fill="none" d="M83.5 80.5h19v11h-19z"/></g></svg>