<svg xmlns="http://www.w3.org/2000/svg" viewBox="0 0 32 32">
    <defs>
        <clipPath>
            <rect width="26" height="26" fill="none"/>
        </clipPath>
    </defs>
    <g transform="translate(3.02 2.98)" clip-path="url(#clip-path)">
        <path id="Path_12790" d="M16.02,2.98A13,13,0,0,0,12.886,28.6V19.967H10.2V15.994h2.687V14.276c0-4.42,2.008-6.471,6.341-6.471a14.718,14.718,0,0,1,2.831.318v3.6c-.3-.029-.838-.043-1.5-.043-2.138,0-2.961.809-2.961,2.9v1.4h4.247L21.1,19.952h-3.51v8.927A13,13,0,0,0,16.02,2.98Z" transform="translate(-3.02 -2.98)"/>
    </g>
    <g>
        <rect id="Rectangle_5564" width="32" height="32" fill="none"/>
    </g>
</svg>
