<svg xmlns="http://www.w3.org/2000/svg" viewBox="0 0 15.31 15.31"><path d="M7.65 0H4.5a5.66 5.66 0 0 0-1.86.36 3.58 3.58 0 0 0-1.35.88 3.73 3.73 0 0 0-.9 1.4A5.49 5.49 0 0 0 .04 4.5c0 .82-.05 1.08-.05 3.16s0 2.34.05 3.15a5.44 5.44 0 0 0 .35 1.86 3.94 3.94 0 0 0 2.24 2.24 5.44 5.44 0 0 0 1.86.35c.81 0 1.07.05 3.15.05s2.34 0 3.16-.05a5.49 5.49 0 0 0 1.86-.35 3.84 3.84 0 0 0 1.35-.88 3.69 3.69 0 0 0 .88-1.36 5.66 5.66 0 0 0 .36-1.86c0-.81.05-1.08.05-3.15s0-2.34-.05-3.16a5.72 5.72 0 0 0-.36-1.86A3.91 3.91 0 0 0 12.66.41 5.72 5.72 0 0 0 10.8.05H7.64m0 1.38c2 0 2.29 0 3.1.05a4.31 4.31 0 0 1 1.42.26 2.51 2.51 0 0 1 1.46 1.37 4.31 4.31 0 0 1 .26 1.42c0 .81.05 1.05.05 3.1s0 2.28-.05 3.09a4.25 4.25 0 0 1-.26 1.42 2.48 2.48 0 0 1-.57.88 2.43 2.43 0 0 1-.88.57 4.24 4.24 0 0 1-1.42.27H4.56a4.18 4.18 0 0 1-1.42-.27 2.51 2.51 0 0 1-1.45-1.45 4.18 4.18 0 0 1-.3-1.39V4.56a4.24 4.24 0 0 1 .3-1.45 2.43 2.43 0 0 1 .57-.88 2.48 2.48 0 0 1 .88-.57 4.25 4.25 0 0 1 1.42-.26c.81 0 1-.05 3.09-.05"/><path d="M7.65 10.21a2.55 2.55 0 1 1 2.55-2.55 2.55 2.55 0 0 1-2.55 2.55m0-6.48a3.93 3.93 0 1 0 3.93 3.93 3.93 3.93 0 0 0-3.93-3.93m5.01-.16a.92.92 0 1 1-.92-.92.92.92 0 0 1 .92.92"/></svg>