<?xml version="1.0" encoding="UTF-8"?>
<svg id="Layer_1" data-name="Layer 1" xmlns="http://www.w3.org/2000/svg" viewBox="0 0 16 16">
  <defs>
    <style>
      .cls-1 {
        fill: #fdf007;
      }

      .cls-1, .cls-2 {
        stroke-width: 0px;
      }

      .cls-2 {
        fill: #0b4da0;
      }
    </style>
  </defs>
  <rect id="Rectangle_3638" data-name="Rectangle 3638" class="cls-2" x="0" width="15.98" height="16"/>
  <path id="Path_12737" data-name="Path 12737" class="cls-1" d="M7.99,1.67l.23.72h.76l-.62.44.24.72-.61-.45-.61.45.24-.72-.62-.44h.76l.22-.72h.01Z"/>
  <path id="Path_12738" data-name="Path 12738" class="cls-1" d="M7.99,12.45l.23.72h.76l-.62.44.24.72-.61-.45-.61.45.24-.72-.62-.44h.76l.22-.72h.01Z"/>
  <path id="Path_12739" data-name="Path 12739" class="cls-1" d="M5.3,2.39l.24.72h.75l-.61.44.24.72-.62-.45-.6.45.23-.72-.61-.44h.75s.23-.72.23-.72Z"/>
  <path id="Path_12740" data-name="Path 12740" class="cls-1" d="M3.33,4.36l.23.72h.76l-.62.44.24.72-.61-.45-.61.45.24-.72-.62-.44h.76l.22-.72h.01Z"/>
  <path id="Path_12741" data-name="Path 12741" class="cls-1" d="M2.61,7.05l.23.72h.75l-.61.44.23.72-.6-.45-.61.45.24-.72-.62-.44h.75s.24-.72.24-.72Z"/>
  <path id="Path_12742" data-name="Path 12742" class="cls-1" d="M3.32,9.76l.24.72h.75l-.62.44.24.71-.61-.45-.61.45.24-.71-.61-.45h.75s.23-.71.23-.71Z"/>
  <path id="Path_12743" data-name="Path 12743" class="cls-1" d="M5.3,11.72l.24.72h.75l-.61.44.24.72-.62-.45-.6.45.23-.72-.61-.44h.75s.23-.72.23-.72Z"/>
  <path id="Path_12744" data-name="Path 12744" class="cls-1" d="M10.68,2.39l-.24.72h-.75l.61.44-.23.72.62-.45.61.45-.24-.72.61-.44h-.75l-.23-.72h-.01Z"/>
  <path id="Path_12745" data-name="Path 12745" class="cls-1" d="M12.65,4.36l-.23.72h-.76l.62.44-.24.72.61-.45.61.45-.24-.72.61-.44h-.75l-.23-.72Z"/>
  <path id="Path_12746" data-name="Path 12746" class="cls-1" d="M13.38,7.05l-.24.72h-.75l.61.44-.24.72.62-.45.61.45-.24-.72.61-.44h-.75s-.23-.72-.23-.72Z"/>
  <path id="Path_12747" data-name="Path 12747" class="cls-1" d="M12.66,9.76l-.23.72h-.76l.62.44-.24.71.61-.45.61.45-.24-.71.62-.45h-.76l-.22-.71h0Z"/>
  <path id="Path_12748" data-name="Path 12748" class="cls-1" d="M10.68,11.72l-.24.72h-.75l.61.44-.23.72.62-.45.61.45-.24-.72.61-.44h-.75l-.23-.72h-.01Z"/>
</svg>