<svg viewBox="0 0 128 90" xmlns="http://www.w3.org/2000/svg" xml:space="preserve" style="fill-rule:evenodd;clip-rule:evenodd;stroke-linejoin:round;stroke-miterlimit:2;">
    <g>
        <path d="M4.516,81.271l-2.706,0l0,3.621l3.078,0l0,1.572l-4.888,0l0,-11.399l4.686,0l0,1.571l-2.876,0l0,3.131l2.706,0l0,1.504Z" style="fill:#7d878d;fill-rule:nonzero;"/>
        <path d="M12.225,84.062c0,0.894 0.034,1.707 0.067,2.402l-1.573,0l-0.1,-0.863l-0.035,0c-0.321,0.489 -0.981,0.998 -1.844,0.998c-1.504,0 -2.113,-1.133 -2.113,-3.282l0,-5.091l1.809,0l0,4.872c0,1.183 0.203,1.995 0.948,1.995c0.558,0 0.845,-0.474 0.929,-0.812c0.068,-0.185 0.102,-0.438 0.102,-0.709l0,-5.346l1.81,0l0,5.836Z" style="fill:#7d878d;fill-rule:nonzero;"/>
        <path d="M14.569,80.545c0,-0.761 -0.034,-1.624 -0.068,-2.319l1.572,0l0.101,1.236l0.052,0c0.32,-0.827 0.998,-1.37 1.675,-1.37c0.169,0 0.269,0.016 0.388,0.032l0,1.796c-0.119,-0.018 -0.236,-0.018 -0.388,-0.018c-0.626,0 -1.252,0.524 -1.456,1.419c-0.034,0.188 -0.068,0.474 -0.068,0.779l0,4.364l-1.808,0l0,-5.919Z" style="fill:#7d878d;fill-rule:nonzero;"/>
        <path d="M22.602,85.211c0.896,0 1.1,-1.623 1.1,-2.875c0,-1.199 -0.204,-2.857 -1.133,-2.857c-0.981,0 -1.167,1.658 -1.167,2.857c0,1.388 0.236,2.875 1.184,2.875l0.016,0Zm-0.067,1.388c-1.743,0 -2.943,-1.455 -2.943,-4.228c0,-2.994 1.472,-4.279 3.01,-4.279c1.725,0 2.909,1.505 2.909,4.226c0,3.332 -1.725,4.281 -2.959,4.281l-0.017,0Z" style="fill:#7d878d;fill-rule:nonzero;"/>
        <path d="M29.3,83.453c0,0.253 0.034,0.507 0.085,0.693c0.22,0.795 0.643,0.964 0.947,0.964c0.912,0 1.217,-1.302 1.217,-2.756c0,-1.64 -0.389,-2.74 -1.217,-2.74c-0.457,0 -0.862,0.509 -0.964,1.067c-0.051,0.183 -0.068,0.386 -0.068,0.607l0,2.165Zm-1.793,-2.638c0,-1.118 -0.033,-1.894 -0.067,-2.589l1.572,0l0.102,1l0.034,0c0.389,-0.781 1.014,-1.134 1.725,-1.134c1.64,0 2.486,1.759 2.486,4.226c0,3.012 -1.284,4.281 -2.621,4.281c-0.728,0 -1.167,-0.439 -1.404,-0.863l-0.034,0l0,3.974l-1.793,0l0,-8.895Z" style="fill:#7d878d;fill-rule:nonzero;"/>
        <path d="M39.077,81.541c0.016,-1.317 -0.423,-2.097 -1.066,-2.097c-0.777,0 -1.133,1.135 -1.167,2.097l2.233,0Zm-2.233,1.287c0.017,1.843 0.863,2.349 1.827,2.349c0.608,0 1.116,-0.134 1.471,-0.285l0.271,1.285c-0.524,0.236 -1.32,0.387 -2.064,0.387c-2.131,0 -3.264,-1.539 -3.264,-4.091c0,-2.723 1.302,-4.381 3.062,-4.381c1.724,0 2.604,1.574 2.604,3.769c0,0.475 -0.017,0.748 -0.051,0.967l-3.856,0Z" style="fill:#7d878d;fill-rule:nonzero;"/>
        <path d="M45.956,82.336c-0.71,0.018 -1.979,0.205 -1.979,1.642c0,0.93 0.491,1.268 0.897,1.268c0.456,0 0.879,-0.305 1.032,-0.947c0.034,-0.119 0.05,-0.273 0.05,-0.422l0,-1.541Zm1.776,2.25c0,0.643 0.017,1.337 0.101,1.878l-1.623,0l-0.101,-0.831l-0.034,0c-0.422,0.629 -1.032,0.966 -1.742,0.966c-1.184,0 -2.08,-0.982 -2.08,-2.437c0,-2.112 1.792,-3.01 3.653,-3.025l0,-0.22c0,-0.863 -0.338,-1.455 -1.236,-1.455c-0.591,0 -1.082,0.17 -1.539,0.458l-0.337,-1.236c0.406,-0.254 1.268,-0.592 2.266,-0.592c2.13,0 2.672,1.456 2.672,3.212l0,3.282Z" style="fill:#7d878d;fill-rule:nonzero;"/>
        <path d="M50.038,80.545c0,-0.931 -0.035,-1.589 -0.068,-2.319l1.572,0l0.084,0.966l0.034,0c0.389,-0.661 1.083,-1.1 1.945,-1.1c1.387,0 2.114,1.065 2.114,2.975l0,5.397l-1.809,0l0,-5.226c0,-0.83 -0.169,-1.624 -0.964,-1.624c-0.44,0 -0.846,0.338 -1.015,1.014c-0.051,0.171 -0.085,0.439 -0.085,0.745l0,5.091l-1.808,0l0,-5.919Z" style="fill:#7d878d;fill-rule:nonzero;"/>
        <path d="M63.033,80.527c0.135,0.036 0.252,0.036 0.439,0.036c1.187,0 1.845,-0.813 1.845,-2.118c0,-1.062 -0.44,-1.961 -1.66,-1.961c-0.252,0 -0.473,0.033 -0.624,0.085l0,3.958Zm-1.792,-5.293c0.575,-0.135 1.318,-0.22 2.113,-0.22c1.202,0 2.184,0.22 2.859,0.863c0.608,0.575 0.913,1.454 0.913,2.435c0,1.15 -0.32,1.929 -0.846,2.536c-0.677,0.795 -1.776,1.185 -2.741,1.185c-0.185,0 -0.338,0 -0.506,-0.018l0,4.449l-1.792,0l0,-11.23Z" style="fill:#7d878d;fill-rule:nonzero;"/>
        <path d="M72.123,82.336c-0.713,0.018 -1.981,0.205 -1.981,1.642c0,0.93 0.491,1.268 0.896,1.268c0.456,0 0.882,-0.305 1.033,-0.947c0.034,-0.119 0.052,-0.273 0.052,-0.422l0,-1.541Zm1.774,2.25c0,0.643 0.016,1.337 0.102,1.878l-1.623,0l-0.1,-0.831l-0.035,0c-0.422,0.629 -1.033,0.966 -1.744,0.966c-1.184,0 -2.079,-0.982 -2.079,-2.437c0,-2.112 1.794,-3.01 3.653,-3.025l0,-0.22c0,-0.863 -0.339,-1.455 -1.236,-1.455c-0.591,0 -1.08,0.17 -1.537,0.458l-0.339,-1.236c0.406,-0.254 1.268,-0.592 2.266,-0.592c2.131,0 2.672,1.456 2.672,3.212l0,3.282Z" style="fill:#7d878d;fill-rule:nonzero;"/>
        <path d="M76.204,80.545c0,-0.761 -0.035,-1.624 -0.069,-2.319l1.574,0l0.101,1.236l0.05,0c0.321,-0.827 0.999,-1.37 1.678,-1.37c0.166,0 0.268,0.016 0.386,0.032l0,1.796c-0.118,-0.018 -0.235,-0.018 -0.386,-0.018c-0.63,0 -1.254,0.524 -1.458,1.419c-0.033,0.188 -0.068,0.474 -0.068,0.779l0,4.364l-1.808,0l0,-5.919Z" style="fill:#7d878d;fill-rule:nonzero;"/>
        <rect x="81.541" y="74.762" width="1.81" height="11.702" style="fill:#7d878d;fill-rule:nonzero;"/>
        <path d="M85.701,86.464l0,-8.238l1.811,0l0,8.238l-1.811,0Zm0.864,-9.336c-0.525,0 -0.948,-0.423 -0.948,-1.05c0,-0.641 0.438,-1.049 0.964,-1.049c0.577,0 0.981,0.408 0.981,1.049c0,0.627 -0.404,1.05 -0.981,1.05l-0.016,0Z" style="fill:#7d878d;fill-rule:nonzero;"/>
        <path d="M93.043,82.336c-0.709,0.018 -1.978,0.205 -1.978,1.642c0,0.93 0.49,1.268 0.896,1.268c0.456,0 0.879,-0.305 1.031,-0.947c0.035,-0.119 0.051,-0.273 0.051,-0.422l0,-1.541Zm1.777,2.25c0,0.643 0.018,1.337 0.102,1.878l-1.626,0l-0.102,-0.831l-0.032,0c-0.424,0.629 -1.031,0.966 -1.741,0.966c-1.185,0 -2.082,-0.982 -2.082,-2.437c0,-2.112 1.793,-3.01 3.653,-3.025l0,-0.22c0,-0.863 -0.338,-1.455 -1.233,-1.455c-0.592,0 -1.083,0.17 -1.54,0.458l-0.338,-1.236c0.407,-0.254 1.268,-0.592 2.264,-0.592c2.134,0 2.675,1.456 2.675,3.212l0,3.282Z" style="fill:#7d878d;fill-rule:nonzero;"/>
        <path d="M97.121,80.545c0,-0.931 -0.035,-1.589 -0.066,-2.319l1.571,0l0.084,0.983l0.035,0c0.386,-0.626 1.062,-1.117 1.928,-1.117c0.843,0 1.455,0.406 1.757,1.183l0.035,0c0.202,-0.354 0.506,-0.674 0.811,-0.878c0.339,-0.204 0.728,-0.305 1.151,-0.305c1.318,0 2.063,1.016 2.063,3.045l0,5.327l-1.794,0l0,-4.989c0,-0.999 -0.134,-1.878 -0.929,-1.878c-0.473,0 -0.845,0.355 -0.997,0.966c-0.051,0.166 -0.069,0.403 -0.069,0.658l0,5.243l-1.791,0l0,-5.278c0,-0.725 -0.103,-1.589 -0.913,-1.589c-0.442,0 -0.866,0.338 -1.015,0.998c-0.035,0.186 -0.07,0.424 -0.07,0.66l0,5.209l-1.791,0l0,-5.919Z" style="fill:#7d878d;fill-rule:nonzero;"/>
        <path d="M112.483,81.541c0.018,-1.317 -0.422,-2.097 -1.064,-2.097c-0.78,0 -1.133,1.135 -1.166,2.097l2.23,0Zm-2.23,1.287c0.015,1.843 0.861,2.349 1.826,2.349c0.606,0 1.115,-0.134 1.471,-0.285l0.269,1.285c-0.525,0.236 -1.318,0.387 -2.062,0.387c-2.133,0 -3.266,-1.539 -3.266,-4.091c0,-2.723 1.304,-4.381 3.062,-4.381c1.724,0 2.604,1.574 2.604,3.769c0,0.475 -0.018,0.748 -0.051,0.967l-3.853,0Z" style="fill:#7d878d;fill-rule:nonzero;"/>
        <path d="M116.111,80.545c0,-0.931 -0.035,-1.589 -0.067,-2.319l1.574,0l0.083,0.966l0.035,0c0.387,-0.661 1.08,-1.1 1.944,-1.1c1.386,0 2.113,1.065 2.113,2.975l0,5.397l-1.809,0l0,-5.226c0,-0.83 -0.169,-1.624 -0.964,-1.624c-0.441,0 -0.844,0.338 -1.015,1.014c-0.049,0.171 -0.083,0.439 -0.083,0.745l0,5.091l-1.811,0l0,-5.919Z" style="fill:#7d878d;fill-rule:nonzero;"/>
        <path d="M126.207,76.18l0,2.046l1.589,0l0,1.304l-1.589,0l0,4.278c0,1.014 0.39,1.267 0.847,1.267c0.202,0 0.371,-0.017 0.557,-0.05l0.033,1.404c-0.269,0.085 -0.675,0.135 -1.182,0.135c-0.574,0 -1.098,-0.151 -1.455,-0.506c-0.408,-0.408 -0.61,-1 -0.61,-2.233l0,-4.295l-0.98,0l0,-1.304l0.98,0l0,-1.419l1.81,-0.627Z" style="fill:#7d878d;fill-rule:nonzero;"/>
        <rect x="71.093" y="29.812" width="56.697" height="37.825" style="fill:#26337b;fill-rule:nonzero;"/>
        <path d="M99.413,33.922l0.54,1.679l1.761,-0.009l-1.431,1.031l0.552,1.674l-1.422,-1.043l-1.418,1.043l0.552,-1.674l-1.432,-1.031l1.76,0.009l0.538,-1.679Z" style="fill:#fbde04;fill-rule:nonzero;"/>
        <path d="M99.413,59.156l0.54,1.673l1.761,-0.008l-1.431,1.033l0.552,1.675l-1.422,-1.041l-1.418,1.041l0.552,-1.675l-1.432,-1.033l1.76,0.008l0.538,-1.673Z" style="fill:#fbde04;fill-rule:nonzero;"/>
        <path d="M93.138,35.601l0.538,1.677l1.76,-0.005l-1.425,1.026l0.55,1.673l-1.423,-1.041l-1.418,1.041l0.549,-1.673l-1.424,-1.026l1.759,0.005l0.534,-1.677Z" style="fill:#fbde04;fill-rule:nonzero;"/>
        <path d="M88.52,40.233l0.536,1.677l1.762,-0.012l-1.431,1.032l0.549,1.672l-1.416,-1.042l-1.42,1.042l0.552,-1.672l-1.435,-1.032l1.766,0.012l0.537,-1.677Z" style="fill:#fbde04;fill-rule:nonzero;"/>
        <path d="M86.816,46.527l0.533,1.673l1.765,-0.009l-1.43,1.033l0.545,1.67l-1.413,-1.042l-1.421,1.042l0.554,-1.67l-1.434,-1.033l1.762,0.009l0.539,-1.673Z" style="fill:#fbde04;fill-rule:nonzero;"/>
        <path d="M88.5,52.817l0.54,1.684l1.756,-0.014l-1.428,1.031l0.555,1.673l-1.423,-1.047l-1.42,1.047l0.554,-1.673l-1.433,-1.028l1.761,0.011l0.538,-1.684Z" style="fill:#fbde04;fill-rule:nonzero;"/>
        <path d="M93.138,57.447l0.538,1.677l1.76,-0.008l-1.425,1.028l0.55,1.674l-1.423,-1.04l-1.418,1.04l0.549,-1.674l-1.424,-1.028l1.759,0.008l0.534,-1.677Z" style="fill:#fbde04;fill-rule:nonzero;"/>
        <path d="M105.697,35.601l-0.537,1.677l-1.765,-0.005l1.432,1.026l-0.552,1.673l1.422,-1.041l1.418,1.041l-0.549,-1.673l1.427,-1.026l-1.755,0.005l-0.541,-1.677Z" style="fill:#fbde04;fill-rule:nonzero;"/>
        <path d="M110.318,40.233l-0.538,1.677l-1.764,-0.012l1.431,1.032l-0.553,1.672l1.424,-1.042l1.422,1.042l-0.554,-1.672l1.427,-1.032l-1.76,0.012l-0.535,-1.677Z" style="fill:#fbde04;fill-rule:nonzero;"/>
        <path d="M112.022,46.527l-0.538,1.673l-1.764,-0.009l1.431,1.033l-0.552,1.67l1.423,-1.042l1.42,1.042l-0.55,-1.67l1.425,-1.033l-1.76,0.009l-0.535,-1.673Z" style="fill:#fbde04;fill-rule:nonzero;"/>
        <path d="M110.329,52.817l-0.53,1.684l-1.764,-0.014l1.433,1.031l-0.555,1.673l1.416,-1.047l1.428,1.047l-0.552,-1.673l1.43,-1.028l-1.763,0.011l-0.543,-1.684Z" style="fill:#fbde04;fill-rule:nonzero;"/>
        <path d="M105.697,57.447l-0.537,1.677l-1.765,-0.008l1.432,1.028l-0.552,1.674l1.422,-1.04l1.418,1.04l-0.549,-1.674l1.427,-1.028l-1.755,0.008l-0.541,-1.677Z" style="fill:#fbde04;fill-rule:nonzero;"/>
        <path d="M80.121,22.274l0,-3.128c-1.139,-0.975 -5.686,-2.926 -8.457,-3.539l0,2.202c3.17,0.779 7.119,3.071 8.457,4.465Z" style="fill:#7d878d;fill-rule:nonzero;"/>
        <path d="M82.426,26.941l2.693,0c0.082,-3.946 -3.121,-6.389 -3.58,-6.743l0,3.76c1.029,1.667 0.887,2.983 0.887,2.983Z" style="fill:#7d878d;fill-rule:nonzero;"/>
        <path d="M89.129,18.998l0,3.395c1.353,1.417 2.166,2.526 2.81,4.564l2.852,0c-0.762,-3.116 -2.574,-5.663 -5.662,-7.959Z" style="fill:#7d878d;fill-rule:nonzero;"/>
        <path d="M87.392,20.859l0,-3.058c-2.617,-1.692 -7.789,-4.011 -12.957,-5.089l0,2.193c4.965,1.204 10.243,3.777 12.957,5.954Z" style="fill:#7d878d;fill-rule:nonzero;"/>
        <path d="M94.722,19.003l0,-3.026c-3.138,-1.98 -9.601,-4.746 -17.23,-6.357l0,2.19c7.324,1.769 12.883,4.294 17.23,7.193Z" style="fill:#7d878d;fill-rule:nonzero;"/>
        <path d="M96.752,17.265c-0.004,-0.002 -0.008,3.254 -0.008,3.254c2.004,1.589 3.938,3.683 5.229,6.438l3.029,0c-1.035,-3.429 -4.91,-7.585 -8.25,-9.692Z" style="fill:#7d878d;fill-rule:nonzero;"/>
        <path d="M102.9,17.119l0,-3.027c-6.004,-3.552 -15.004,-6.673 -22.15,-7.933l0,2.183c8.072,1.619 17.687,5.609 22.15,8.777Z" style="fill:#7d878d;fill-rule:nonzero;"/>
        <path d="M112.609,26.957l3.172,0c-2.281,-5.46 -7.992,-9.838 -10.66,-11.504l0,3.212c4.039,2.993 5.533,5.133 7.488,8.292Z" style="fill:#7d878d;fill-rule:nonzero;"/>
        <path d="M110.947,15.207l0,-3.136c-4.863,-2.976 -14.703,-7.43 -26.684,-9.738l0,2.278c9.116,1.894 20.739,6.417 26.684,10.596Z" style="fill:#7d878d;fill-rule:nonzero;"/>
        <path d="M122.9,26.957l3.469,0c-3.846,-6.543 -8.246,-10.285 -13,-13.378l0,3.286c3.523,2.475 7.301,6.164 9.531,10.092Z" style="fill:#7d878d;fill-rule:nonzero;"/>
        <path d="M69.392,17.195l0,-2.067c-3.121,-0.587 -8.606,-0.961 -11.016,-0.647l0,1.62c3.619,-0.189 8.95,0.484 11.016,1.094Z" style="fill:#7d878d;fill-rule:nonzero;"/>
        <path d="M55.949,16.249l0,-1.548c-5.79,0.606 -9.763,2.595 -12.06,4.293l0,1.331c3.28,-2.649 7.826,-3.745 12.06,-4.076Z" style="fill:#7d878d;fill-rule:nonzero;"/>
        <path d="M42.55,21.713l0.001,-1.506c-5.328,5.985 1.338,10.969 2.047,11.466l0,-2.046c-3.726,-2.816 -3.289,-6.249 -2.048,-7.914Z" style="fill:#7d878d;fill-rule:nonzero;"/>
        <path d="M46.614,30.895l0,2.194c3.617,2.002 7.258,3.268 12.436,4.196l-0.037,-2.975c-3.519,-0.213 -8.356,-1.217 -12.399,-3.415Z" style="fill:#7d878d;fill-rule:nonzero;"/>
        <path d="M60.779,34.404l-0.016,3.094c3.029,0.252 5.887,0.328 7.447,0.326l0,-3.481c-2.299,0.155 -6.56,0.184 -7.431,0.061Z" style="fill:#7d878d;fill-rule:nonzero;"/>
        <path d="M72.164,14.372l0,-2.109c-3.727,-0.756 -10.956,-1.318 -15.237,-0.918l0,1.64c5.65,-0.208 11.24,0.514 15.237,1.387Z" style="fill:#7d878d;fill-rule:nonzero;"/>
        <path d="M57.097,43.25l0,-3.313c-5.545,-0.49 -14.07,-2.426 -19.364,-6.312l0,2.209c5.805,4.378 14.987,6.806 19.364,7.416Z" style="fill:#7d878d;fill-rule:nonzero;"/>
        <path d="M35.723,34.175l0,-2.187c-4.697,-4.466 -3.78,-9.01 -0.747,-11.938l0,-1.368c-5.83,5.294 -3.694,11.701 0.747,15.493Z" style="fill:#7d878d;fill-rule:nonzero;"/>
        <path d="M59.044,40.115l0,3.429c3.375,0.475 6.301,0.627 9.166,0.627l0,-3.785c-3.088,0.018 -7.795,-0.142 -9.166,-0.271Z" style="fill:#7d878d;fill-rule:nonzero;"/>
        <path d="M36.548,17.393l0,1.289c5.052,-3.759 12.628,-5.274 17.953,-5.563l0,-1.575c-6.595,0.431 -14.171,2.958 -17.953,5.849Z" style="fill:#7d878d;fill-rule:nonzero;"/>
        <path d="M28.328,36.181l0,2.371c7.247,6.535 19.17,10.094 26.373,11.336l0,-3.693c-6.637,-0.744 -18.629,-3.317 -26.373,-10.014Z" style="fill:#7d878d;fill-rule:nonzero;"/>
        <path d="M75.221,11.267l0,-2.082c-4.683,-0.853 -12.776,-1.783 -20.355,-1.089l0,1.649c6.37,-0.444 15.36,0.385 20.355,1.522Z" style="fill:#7d878d;fill-rule:nonzero;"/>
        <path d="M56.833,46.435l0,3.822c3.213,0.643 8.498,0.942 11.377,1.047l0,-4.26c-1.716,0.061 -9.234,-0.371 -11.377,-0.609Z" style="fill:#7d878d;fill-rule:nonzero;"/>
        <path d="M52.434,9.899l0,-1.603c-5.633,0.485 -15.707,2.491 -22.39,7.015l0,1.297c6.504,-4.429 16.57,-6.394 22.39,-6.709Z" style="fill:#7d878d;fill-rule:nonzero;"/>
        <path d="M28.21,17.929l0,-1.321c-3.057,2.306 -10.554,10.081 -1.876,19.921l0,-2.387c-1.929,-2.157 -6.585,-9.141 1.876,-16.213Z" style="fill:#7d878d;fill-rule:nonzero;"/>
        <path d="M78.478,7.853l0,-2.137c-5.673,-1.113 -16.725,-2.077 -25.414,-1.224l0,1.652c7.681,-0.595 18.61,0.272 25.414,1.709Z" style="fill:#7d878d;fill-rule:nonzero;"/>
        <path d="M54.47,52.982l0,4.043c4.277,0.832 9.606,1.348 13.74,1.488l0,-4.588c-4.947,-0.084 -9.213,-0.318 -13.74,-0.943Z" style="fill:#7d878d;fill-rule:nonzero;"/>
        <path d="M52.134,56.642l0,-3.912c-11.893,-1.682 -24.997,-6.014 -33.118,-13.975l0,2.524c9.621,9.582 25.579,14 33.118,15.363Z" style="fill:#7d878d;fill-rule:nonzero;"/>
        <path d="M23.473,13.021l0,1.272c7.951,-5.061 18.843,-7.236 27.164,-7.974l0,-1.609c-7.999,0.693 -19.714,3.418 -27.164,8.311Z" style="fill:#7d878d;fill-rule:nonzero;"/>
        <path d="M17.01,38.834l0,-2.6c-3.113,-4.245 -6.167,-12.616 4.589,-20.632l0,-1.309c-12.081,8.638 -9.069,19.21 -4.589,24.541Z" style="fill:#7d878d;fill-rule:nonzero;"/>
        <path d="M8.668,40.466l0,2.819c9.126,11.838 27.97,18.806 39.686,21.275l0,-4.322c-12.31,-2.084 -31.014,-8.115 -39.686,-19.772Z" style="fill:#7d878d;fill-rule:nonzero;"/>
        <path d="M81.967,4.122l0,-2.219c-5.61,-1.171 -19.247,-2.683 -31.254,-1.433l0,1.705c10.04,-0.884 22.713,0.194 31.254,1.947Z" style="fill:#7d878d;fill-rule:nonzero;"/>
        <path d="M48.287,2.382l0,-1.667c-10.42,1.063 -23.358,4.667 -30.918,9.607l0,1.322c9.498,-5.824 22.102,-8.428 30.918,-9.262Z" style="fill:#7d878d;fill-rule:nonzero;"/>
        <path d="M50.899,60.65l0,4.432c2.676,0.681 12.833,2.134 17.311,2.17l0,-5.081c-6.836,-0.216 -13.817,-0.959 -17.311,-1.521Z" style="fill:#7d878d;fill-rule:nonzero;"/>
        <path d="M15.332,12.985l0,-1.341c-3.058,1.972 -17.539,12.844 -8.644,28.533l0,-3.164c-5.564,-11.566 2.917,-19.959 8.644,-24.028Z" style="fill:#7d878d;fill-rule:nonzero;"/>
    </g>
</svg>