<?xml version="1.0" encoding="utf-8"?>
<!-- Generator: Adobe Illustrator 27.8.1, SVG Export Plug-In . SVG Version: 6.00 Build 0)  -->
<svg version="1.1" id="Calque_1" xmlns="http://www.w3.org/2000/svg" xmlns:xlink="http://www.w3.org/1999/xlink" x="0px" y="0px"
	 viewBox="0 0 146.1 35.5" style="enable-background:new 0 0 146.1 35.5;" xml:space="preserve">
<style type="text/css">
	.st0{fill:#FFFFFF;}
	.st1{fill:#0C4DA2;}
	.st2{fill:#FFF200;}
	.st3{clip-path:url(#SVGID_00000142867335528284650950000004197647285098081183_);}
	.st4{fill:#6C787F;}
</style>
<rect id="Rectangle_4158" x="34.4" y="15.7" class="st0" width="28" height="18.9"/>
<rect id="Rectangle_4159" x="34.7" y="16.1" class="st1" width="27.3" height="18.2"/>
<path id="Tracé_205420" class="st2" d="M48.3,18.1l0.3,0.8h0.8l-0.7,0.5l0.3,0.8l-0.7-0.5l-0.7,0.5l0.3-0.8l-0.7-0.5h0.8L48.3,18.1
	z"/>
<path id="Tracé_205421" class="st2" d="M48.3,30.2l0.3,0.8h0.8l-0.7,0.5l0.3,0.8l-0.7-0.5l-0.7,0.5l0.3-0.8L47.2,31h0.8L48.3,30.2z
	"/>
<path id="Tracé_205422" class="st2" d="M45.3,18.9l0.3,0.8h0.8l-0.7,0.5L46,21l-0.7-0.5L44.6,21l0.3-0.8l-0.7-0.5h0.8L45.3,18.9z"
	/>
<path id="Tracé_205423" class="st2" d="M43.1,21.1l0.3,0.8l0.8,0l-0.7,0.5l0.3,0.8l-0.7-0.5l-0.7,0.5l0.3-0.8L42,21.9l0.8,0
	L43.1,21.1z"/>
<path id="Tracé_205424" class="st2" d="M42.3,24.1l0.3,0.8h0.8l-0.7,0.5l0.3,0.8l-0.7-0.5l-0.7,0.5l0.3-0.8l-0.7-0.5H42L42.3,24.1z
	"/>
<path id="Tracé_205425" class="st2" d="M43.1,27.2l0.3,0.8l0.8,0l-0.7,0.5l0.3,0.8l-0.7-0.5l-0.7,0.5l0.3-0.8L42,28l0.8,0
	L43.1,27.2z"/>
<path id="Tracé_205426" class="st2" d="M45.3,29.4l0.3,0.8h0.8l-0.7,0.5l0.3,0.8L45.3,31l-0.7,0.5l0.3-0.8l-0.7-0.5h0.8L45.3,29.4z
	"/>
<path id="Tracé_205427" class="st2" d="M51.4,18.9l-0.3,0.8h-0.8l0.7,0.5L50.7,21l0.7-0.5L52,21l-0.3-0.8l0.7-0.5h-0.8L51.4,18.9z"
	/>
<path id="Tracé_205428" class="st2" d="M53.6,21.1l-0.3,0.8l-0.8,0l0.7,0.5l-0.3,0.8l0.7-0.5l0.7,0.5L54,22.4l0.7-0.5l-0.8,0
	L53.6,21.1z"/>
<path id="Tracé_205429" class="st2" d="M54.4,24.1l-0.3,0.8h-0.8l0.7,0.5l-0.3,0.8l0.7-0.5l0.7,0.5l-0.3-0.8l0.7-0.5h-0.8
	L54.4,24.1z"/>
<path id="Tracé_205430" class="st2" d="M53.6,27.2L53.3,28l-0.8,0l0.7,0.5l-0.3,0.8l0.7-0.5l0.7,0.5L54,28.5l0.7-0.5l-0.8,0
	L53.6,27.2z"/>
<path id="Tracé_205431" class="st2" d="M51.4,29.4l-0.3,0.8h-0.8l0.7,0.5l-0.3,0.8l0.7-0.5l0.7,0.5l-0.3-0.8l0.7-0.5h-0.8
	L51.4,29.4z"/>
<g id="Groupe_16178">
	<g>
		<defs>
			<rect id="SVGID_1_" x="-8" y="-13" width="161.8" height="73.5"/>
		</defs>
		<clipPath id="SVGID_00000000215168767002192080000000226114977758685826_">
			<use xlink:href="#SVGID_1_"  style="overflow:visible;"/>
		</clipPath>
		<g id="Groupe_16177-2" style="clip-path:url(#SVGID_00000000215168767002192080000000226114977758685826_);">
			<path id="Tracé_205432" class="st4" d="M39.1,12.5V11c-1.3-0.8-2.6-1.4-4.1-1.7v1.1C36.5,10.7,37.9,11.5,39.1,12.5"/>
			<path id="Tracé_205433" class="st4" d="M40.2,14.7h1.3c0-1.3-0.7-2.5-1.7-3.2v1.8C40,13.7,40.2,14.2,40.2,14.7"/>
			<path id="Tracé_205434" class="st4" d="M43.4,10.9v1.6c0.6,0.6,1.1,1.4,1.4,2.2h1.4C45.7,13.2,44.7,11.8,43.4,10.9"/>
			<path id="Tracé_205435" class="st4" d="M42.6,11.8v-1.5c-1.9-1.2-4-2-6.2-2.4v1.1C38.6,9.5,40.7,10.4,42.6,11.8"/>
			<path id="Tracé_205436" class="st4" d="M46.1,10.9V9.4c-2.6-1.5-5.4-2.5-8.3-3.1v1.1C40.7,8.1,43.6,9.3,46.1,10.9"/>
			<path id="Tracé_205437" class="st4" d="M47.1,10.1v1.6c1.1,0.8,1.9,1.9,2.5,3.1H51C50.2,12.8,48.8,11.2,47.1,10.1"/>
			<path id="Tracé_205438" class="st4" d="M50,10V8.5c-3.3-1.8-6.9-3.1-10.7-3.8v1.1C43.1,6.5,46.7,8,50,10"/>
			<path id="Tracé_205439" class="st4" d="M54.7,14.7h1.5c-1.1-2.6-3.8-4.7-5.1-5.5v1.5C52.6,11.8,53.8,13.1,54.7,14.7"/>
			<path id="Tracé_205440" class="st4" d="M53.9,9.1V7.6c-4-2.3-8.3-3.8-12.8-4.7V4C45.4,4.9,51,7.1,53.9,9.1"/>
			<path id="Tracé_205441" class="st4" d="M59.6,14.7h1.7c-1.5-2.6-3.7-4.8-6.3-6.4v1.6C56.9,11.1,58.5,12.8,59.6,14.7"/>
			<path id="Tracé_205442" class="st4" d="M33.9,10V9c-1.7-0.3-3.5-0.4-5.3-0.3v0.8C30.4,9.4,32.2,9.6,33.9,10"/>
			<path id="Tracé_205443" class="st4" d="M27.4,9.6V8.8c-2.1,0.2-4.1,0.9-5.8,2.1v0.6C23.3,10.3,25.3,9.6,27.4,9.6"/>
			<path id="Tracé_205444" class="st4" d="M21,12.2v-0.7c-2.6,2.9,0.6,5.3,1,5.5v-1C20.2,14.6,20.4,13,21,12.2"/>
			<path id="Tracé_205445" class="st4" d="M22.9,16.6v1.1c1.9,1,3.9,1.7,6,2l0-1.4C26.8,18.1,24.8,17.6,22.9,16.6"/>
			<path id="Tracé_205446" class="st4" d="M29.8,18.3l0,1.5c1.5,0.1,2.8,0.2,3.6,0.2v-1.7C32.1,18.3,30.9,18.4,29.8,18.3"/>
			<path id="Tracé_205447" class="st4" d="M35.2,8.7v-1c-2.4-0.4-4.9-0.6-7.3-0.4V8C30.4,7.9,32.8,8.1,35.2,8.7"/>
			<path id="Tracé_205448" class="st4" d="M28,22.6V21c-2.7-0.2-6.8-1.2-9.3-3V19C21.5,20.8,24.7,22.1,28,22.6"/>
			<path id="Tracé_205449" class="st4" d="M17.7,18.2v-1.1c-2.3-2.1-1.8-4.3-0.4-5.7v-0.7C14.5,13.3,15.6,16.4,17.7,18.2"/>
			<path id="Tracé_205450" class="st4" d="M28.9,21v1.6c1.5,0.2,2.9,0.3,4.4,0.3v-1.8C31.8,21.2,29.6,21.1,28.9,21"/>
			<path id="Tracé_205451" class="st4" d="M18.1,10.1v0.6c2.4-1.8,6.1-2.5,8.6-2.7V7.3C23.7,7.5,20.7,8.5,18.1,10.1"/>
			<path id="Tracé_205452" class="st4" d="M14.1,19.2v1.1c3.5,3.1,9.2,4.9,12.7,5.5V24C23.6,23.6,17.9,22.4,14.1,19.2"/>
			<path id="Tracé_205453" class="st4" d="M36.7,7.2v-1c-3.2-0.6-6.5-0.8-9.8-0.5v0.8C30.2,6.3,33.5,6.5,36.7,7.2"/>
			<path id="Tracé_205454" class="st4" d="M27.9,24.1v1.8c1.8,0.3,3.6,0.5,5.5,0.5v-2C32.5,24.4,28.9,24.2,27.9,24.1"/>
			<path id="Tracé_205455" class="st4" d="M25.7,6.5V5.7C23,6,18.2,6.9,15,9.1v0.6C18.1,7.6,22.9,6.7,25.7,6.5"/>
			<path id="Tracé_205456" class="st4" d="M14.1,10.4V9.7c-1.5,1.1-5.1,4.8-0.9,9.6v-1.1C12.3,17.1,10,13.8,14.1,10.4"/>
			<path id="Tracé_205457" class="st4" d="M38.3,5.5v-1c-4-0.7-8.1-0.9-12.2-0.6v0.8C30.1,4.5,34.2,4.7,38.3,5.5"/>
			<path id="Tracé_205458" class="st4" d="M26.7,27.2v1.9c2.2,0.4,4.4,0.6,6.6,0.7v-2.2C31.1,27.7,28.9,27.5,26.7,27.2"/>
			<path id="Tracé_205459" class="st4" d="M25.6,29v-1.9c-5.7-0.8-12-2.9-15.9-6.7v1.2C14.3,26.2,22,28.3,25.6,29"/>
			<path id="Tracé_205460" class="st4" d="M11.8,8v0.6c3.8-2.4,9.1-3.5,13.1-3.8V4C21,4.3,15.4,5.7,11.8,8"/>
			<path id="Tracé_205461" class="st4" d="M8.7,20.4v-1.3c-1.5-2-3-6.1,2.2-9.9V8.6C5.1,12.8,6.5,17.9,8.7,20.4"/>
			<path id="Tracé_205462" class="st4" d="M4.7,21.2v1.4c4.4,5.7,13.5,9,19.1,10.2v-2.1C17.9,29.7,8.9,26.8,4.7,21.2"/>
			<path id="Tracé_205463" class="st4" d="M40,3.7V2.7c-5-0.9-10-1.1-15-0.7v0.8C29.9,2.4,35,2.8,40,3.7"/>
			<path id="Tracé_205464" class="st4" d="M23.7,2.9V2.1c-5,0.5-11.2,2.2-14.9,4.6v0.6C13.4,4.6,19.5,3.3,23.7,2.9"/>
			<path id="Tracé_205465" class="st4" d="M25,30.9v2.1c2.7,0.6,5.5,0.9,8.3,1v-2.4C30.5,31.6,27.8,31.3,25,30.9"/>
			<path id="Tracé_205466" class="st4" d="M7.9,8V7.3c-1.5,0.9-8.4,6.2-4.2,13.7v-1.5C1.1,14,5.1,10,7.9,8"/>
			<path id="Tracé_205467" class="st4" d="M72.9,13.7h4.8v1.6h-4.8V18h5.6v1.6h-7.4v-10h7.3v1.6h-5.5L72.9,13.7z"/>
			<path id="Tracé_205468" class="st4" d="M86.7,12.5v4.1c-0.1,1.8-1.6,3.2-3.4,3.2c-1.7-0.1-3.1-1.5-3.2-3.2v-4.1h1.8v4.1
				c-0.1,0.8,0.5,1.6,1.4,1.6c0.1,0,0.1,0,0.2,0c0.8,0,1.5-0.6,1.5-1.4c0-0.1,0-0.1,0-0.2v-4.1H86.7z"/>
			<path id="Tracé_205469" class="st4" d="M88.8,12.5h1.7l0,1c0.4-0.7,1.2-1.2,2-1.1c0.2,0,0.4,0,0.6,0.1V14c-0.2,0-0.5,0-0.8,0
				c-1.1,0-1.8,0.8-1.8,2.3v3.4h-1.7L88.8,12.5z"/>
			<path id="Tracé_205470" class="st4" d="M93.8,16c0-2.1,1.7-3.7,3.7-3.7c2.1,0,3.7,1.7,3.7,3.7c0,2-1.7,3.7-3.7,3.7
				c-2,0.1-3.7-1.5-3.7-3.5C93.8,16.2,93.8,16.1,93.8,16 M99.5,16c0.1-1.1-0.7-2-1.8-2.1c-1.1-0.1-2,0.7-2.1,1.8c0,0.1,0,0.2,0,0.3
				c-0.1,1.1,0.7,2,1.8,2.1c1.1,0.1,2-0.7,2.1-1.8C99.5,16.3,99.5,16.1,99.5,16"/>
			<path id="Tracé_205471" class="st4" d="M110.4,16.1c0.2,1.9-1.2,3.5-3.1,3.7c-0.1,0-0.2,0-0.2,0c-0.9,0-1.7-0.3-2.3-1v3.3H103
				l0-9.7h1.7l0,0.9c0.6-0.7,1.4-1.1,2.3-1c1.9,0,3.4,1.6,3.4,3.5C110.4,15.9,110.4,16,110.4,16.1 M104.8,16.1
				c0.1,1.1,1.1,1.9,2.2,1.7c1.1-0.1,1.9-1.1,1.7-2.2c-0.1-1-0.9-1.8-2-1.8c-1.1,0-2,0.9-2,2C104.8,16,104.8,16,104.8,16.1"/>
			<path id="Tracé_205472" class="st4" d="M111.5,16c-0.1-2,1.4-3.6,3.4-3.7c0.1,0,0.2,0,0.3,0c1.8-0.1,3.3,1.3,3.3,3
				c0,0.1,0,0.2,0,0.3c0,0.3,0,0.6-0.1,0.9h-5.1c0.1,1,1,1.8,2,1.8c0.8,0,1.5-0.3,2-0.8l1,0.9c-0.8,0.9-1.9,1.4-3,1.3
				c-2,0.1-3.6-1.5-3.7-3.4C111.5,16.2,111.5,16.1,111.5,16 M116.9,15.3c0-0.9-0.8-1.6-1.7-1.6c-0.9,0-1.7,0.7-1.8,1.6H116.9z"/>
			<path id="Tracé_205473" class="st4" d="M124.5,18.5c-0.5,0.8-1.4,1.3-2.3,1.2c-1.2,0.1-2.3-0.7-2.4-1.9c0-0.1,0-0.2,0-0.3
				c0-1.3,1-2.1,2.7-2.1c0.6,0,1.3,0,1.9,0.1v-0.2c0-1-0.5-1.5-1.6-1.5c-0.7,0-1.5,0.3-2,0.7l-0.8-1.2c0.8-0.7,1.9-1.1,3-1.1
				c2.1,0,3.1,1.1,3.1,3v4.3h-1.6L124.5,18.5z M122.4,18.3c1,0.1,1.8-0.7,1.9-1.7c0,0,0,0,0,0c-0.6-0.1-1.2-0.1-1.8-0.1
				c-0.8,0-1.2,0.3-1.2,0.8C121.3,18,121.7,18.3,122.4,18.3"/>
			<path id="Tracé_205474" class="st4" d="M131.5,13.9c-0.9,0-1.7,0.6-1.7,1.5c0,0.1,0,0.1,0,0.2v4H128v-7.2h1.7l0,0.9
				c0.5-0.7,1.3-1.1,2.1-1.1c1.5,0,2.7,1.1,2.7,2.6c0,0.1,0,0.2,0,0.3v4.4h-1.7v-4.1C132.8,14.5,132.3,13.9,131.5,13.9"/>
			<path id="Tracé_205475" class="st4" d="M71.1,24.3h3.7c2.2,0,3.6,1.2,3.6,3.1c0,1.9-1.4,3.1-3.6,3.1h-1.9v3.8h-1.8L71.1,24.3z
				 M74.7,28.9c1.1,0,1.9-0.6,1.9-1.6s-0.7-1.5-1.8-1.5h-1.8v3.1L74.7,28.9z"/>
			<path id="Tracé_205476" class="st4" d="M84.1,33.2c-0.5,0.8-1.4,1.3-2.3,1.2c-1.2,0.1-2.3-0.7-2.4-1.9c0-0.1,0-0.2,0-0.3
				c0-1.3,1-2.1,2.7-2.1c0.6,0,1.3,0,1.9,0.1v-0.2c0-1-0.5-1.5-1.6-1.5c-0.7,0-1.5,0.3-2,0.7L79.6,28c0.8-0.7,1.9-1.1,3-1.1
				c2.1,0,3.1,1.1,3.1,3v4.3h-1.6L84.1,33.2z M82,33c1,0.1,1.8-0.7,1.9-1.7c0,0,0,0,0,0c-0.6-0.1-1.2-0.1-1.8-0.1
				c-0.8,0-1.2,0.3-1.2,0.8C80.9,32.6,81.3,33,82,33"/>
			<path id="Tracé_205477" class="st4" d="M88.1,27.1h1.7l0,1c0.4-0.7,1.2-1.2,2-1.1c0.2,0,0.4,0,0.6,0.1v1.6c-0.2,0-0.5,0-0.8,0
				c-1.1,0-1.8,0.8-1.8,2.3v3.4h-1.7L88.1,27.1z"/>
			<path id="Tracé_205478" class="st4" d="M95.6,34.4c-1.2,0-1.7-0.5-1.7-2v-8.8h1.7v8.7c0,0.4,0.1,0.5,0.4,0.5h0.3v1.5
				C96,34.3,95.8,34.4,95.6,34.4"/>
			<path id="Tracé_205479" class="st4" d="M98.2,25c0-0.6,0.5-1,1-1c0,0,0,0,0,0c0.6,0,1,0.5,1,1c0,0.6-0.5,1-1,1
				C98.6,26,98.2,25.6,98.2,25C98.2,25,98.2,25,98.2,25 M98.3,27.1h1.7v7.2h-1.7V27.1z"/>
			<path id="Tracé_205480" class="st4" d="M106.8,33.2c-0.5,0.8-1.4,1.3-2.3,1.2c-1.2,0.1-2.3-0.7-2.4-1.9c0-0.1,0-0.2,0-0.3
				c0-1.3,1-2.1,2.7-2.1c0.6,0,1.3,0,1.9,0.1v-0.2c0-1-0.5-1.5-1.6-1.5c-0.7,0-1.5,0.3-2,0.7l-0.8-1.2c0.8-0.7,1.9-1.1,3-1.1
				c2.1,0,3.1,1.1,3.1,3v4.3h-1.6L106.8,33.2z M104.8,33c1,0.1,1.8-0.7,1.9-1.7c0,0,0,0,0,0c-0.6-0.1-1.2-0.1-1.8-0.1
				c-0.8,0-1.2,0.3-1.2,0.8C103.6,32.6,104.1,33,104.8,33"/>
			<path id="Tracé_205481" class="st4" d="M110.5,27.1h1.7l0,0.9c0.5-0.7,1.3-1.1,2.1-1.1c0.9-0.1,1.7,0.4,2.1,1.2
				c0.5-0.8,1.4-1.2,2.4-1.2c1.5,0,2.5,1.1,2.5,2.8v4.5h-1.7v-4.2c0-1-0.5-1.6-1.3-1.6c-0.9,0.1-1.6,0.8-1.5,1.7c0,0,0,0,0,0.1v4
				H115v-4.2c0-1-0.5-1.6-1.3-1.6c-0.9,0.1-1.6,0.8-1.5,1.7c0,0,0,0,0,0.1v4h-1.7L110.5,27.1z"/>
			<path id="Tracé_205482" class="st4" d="M122.6,30.7c-0.1-2,1.4-3.6,3.4-3.7c0.1,0,0.2,0,0.3,0c1.8-0.1,3.3,1.3,3.3,3
				c0,0.1,0,0.2,0,0.3c0,0.3,0,0.6-0.1,0.9h-5.1c0.1,1,1,1.8,2,1.8c0.8,0,1.5-0.3,2-0.8l1,0.9c-0.8,0.9-1.9,1.4-3,1.3
				c-2,0.1-3.6-1.5-3.7-3.4C122.6,30.9,122.6,30.8,122.6,30.7 M128,30c0-0.9-0.8-1.6-1.7-1.6c-0.9,0-1.7,0.7-1.8,1.6H128z"/>
			<path id="Tracé_205483" class="st4" d="M134.4,28.5c-0.9,0-1.7,0.6-1.7,1.5c0,0.1,0,0.1,0,0.2v4H131v-7.2h1.7l0,0.9
				c0.5-0.7,1.3-1.1,2.1-1.1c1.5,0,2.7,1.1,2.7,2.6c0,0.1,0,0.2,0,0.3v4.4h-1.7v-4.1C135.8,29.2,135.3,28.5,134.4,28.5"/>
			<path id="Tracé_205484" class="st4" d="M140,32.1v-3.5h-1.2v-1.5h1.2v-1.9h1.7v1.9h2.2v1.5h-2.2v3.2c-0.1,0.5,0.3,1,0.8,1
				c0.1,0,0.1,0,0.2,0c0.4,0,0.7-0.1,1-0.3l0.3,1.4c-0.5,0.3-1.1,0.4-1.7,0.4c-1.1,0.1-2.2-0.7-2.3-1.9C140,32.4,140,32.2,140,32.1"
				/>
		</g>
	</g>
</g>
</svg>
