<?xml version="1.0" encoding="utf-8"?>
<!-- Generator: Adobe Illustrator 28.0.0, SVG Export Plug-In . SVG Version: 6.00 Build 0)  -->
<svg version="1.1" id="Layer_1" xmlns="http://www.w3.org/2000/svg" xmlns:xlink="http://www.w3.org/1999/xlink" x="0px" y="0px"
	 viewBox="0 0 1480.7 714.8" style="enable-background:new 0 0 1480.7 714.8;" xml:space="preserve">
<style type="text/css">
	.st0{fill:#FFFFFF;}
	.st1{fill:#65E2FF;}
</style>
<path class="st0" d="M34.4,31.1h50c16.2,0,29.1,3.8,38.5,11.5S137,61.5,137,76c0,8.9-2.1,16.8-6.4,23.6
	c-4.3,6.8-10.3,11.8-18.2,14.9c9.1,2.6,16.2,7.5,21.5,14.7c5.3,7.3,7.9,16.2,7.9,26.8c0,15-4.9,26.8-14.7,35.4
	c-9.8,8.6-23.5,12.8-40.9,12.8H34.4V31.1z M80.3,103.2c7.2,0,12.7-1.7,16.5-5.1s5.8-8.5,5.8-15.1c0-14.5-7.5-21.8-22.6-21.8H69v42.1
	L80.3,103.2L80.3,103.2z M82.6,173.9c16.2,0,24.4-7.3,24.4-21.8c0-7.3-2.1-12.9-6.2-16.7s-10.1-5.6-18-5.6H69v44.1H82.6z"/>
<path class="st0" d="M189,31.1h47.2l39.2,173.1h-36.7l-6.7-33.8h-39.7l-6.7,33.9h-36.2L189,31.1z M211.8,73.7l-13.3,66.4h27.4
	l-13.3-66.4L211.8,73.7L211.8,73.7z"/>
<path class="st0" d="M290.3,30.9h36.4v140.8h45.6v32.6h-82V30.9L290.3,30.9z"/>
<path class="st0" d="M379.8,195.2l8.2-30c4.1,3.1,8.5,5.5,13.3,7.2s9.5,2.6,14.1,2.6c6.5,0,11.5-1.5,15.1-4.5s5.4-7.5,5.4-13.5
	c0-4.6-1.8-9-5.3-13.2s-8.8-9-15.8-14.5c-9.9-7.2-17.8-15-23.7-23.5s-8.9-17.9-8.9-28.3c0-15.4,4.4-27.4,13.2-36.2
	c8.8-8.7,21-13.1,36.5-13.1c6.5,0,13.2,0.9,20.1,2.7s12.9,4.2,17.8,7.3l-8,30.5c-7.9-5.5-15.6-8.2-23.3-8.2
	c-5.8,0-10.4,1.5-13.7,4.5c-3.3,3-5,7.3-5,12.9c0,4.5,1.8,8.8,5.3,13.1c3.5,4.3,8.7,9,15.5,14.1c10.4,7.5,18.5,15.6,24.4,24.1
	c5.8,8.6,8.7,18.6,8.7,30.3c0,14.5-4.7,26.1-14.1,34.7s-21.9,12.9-37.4,12.9S393.3,203.3,379.8,195.2L379.8,195.2z"/>
<path class="st0" d="M502.1,184.1c-10.9-15.5-16.4-37.6-16.4-66.3s5.4-50,16.1-65.9C512.6,36,527.7,28,547.2,28s33.9,7.7,44.9,23.1
	c10.9,15.4,16.4,37.4,16.4,66.1s-5.4,50.3-16.2,66.1c-10.8,15.9-25.8,23.9-45.1,23.9S513,199.5,502.1,184.1L502.1,184.1z
	 M565.3,158.9c4.4-9.1,6.5-22.9,6.5-41.1s-2.1-31.8-6.4-41.2c-4.3-9.3-10.3-14-18.2-14s-13.9,4.6-18.2,13.7
	c-4.3,9.2-6.4,22.9-6.4,41.2s2.1,31.4,6.3,40.9s10.3,14.2,18.3,14.2S560.9,168.1,565.3,158.9L565.3,158.9z"/>
<path class="st1" d="M37.3,271.9h21L110.6,393V271.9h22.8v177.2H113L60,325.4v123.7H37.4L37.3,271.9L37.3,271.9z"/>
<path class="st1" d="M185.4,348.1h48.1v21.3h-48.1V428h56.7v21.3H162V271.9h78.8v21h-55.4V348.1L185.4,348.1z"/>
<path class="st1" d="M261.4,271.9h24.2v155.7h49.6v21.5h-73.8L261.4,271.9L261.4,271.9z M285.8,454.7l20.7,3.1
	c-4,14.5-9.2,28.6-15.5,42.3l-15-4.2C280,481.9,283.2,468.2,285.8,454.7L285.8,454.7z"/>
<path class="st1" d="M388.5,271.9h29.7l42.3,177.2h-24.7L425,401.4h-43.3l-10.8,47.8h-24.2L388.5,271.9L388.5,271.9z M386.4,379.6
	H420l-16.8-75.1L386.4,379.6L386.4,379.6z"/>
<path class="st1" d="M484.9,438.4c-8.3-8.9-12.5-21.1-12.5-36.5v-130H496v129.5c0,9.1,2.1,16.2,6.3,21.3c4.2,5.1,9.9,7.6,17.1,7.6
	s12.3-2.6,16.5-7.8c4.2-5.2,6.3-12.2,6.3-21.1V271.9h23.6v130c0,15.4-4.2,27.6-12.5,36.5s-19.7,13.4-34,13.4
	S493.2,447.4,484.9,438.4L484.9,438.4z"/>
<path class="st1" d="M588.3,449.6c-4.2-1.5-8-3.5-11.3-6.2l6.6-19.2c2.3,1.6,5,2.8,8.1,3.7s6,1.3,8.7,1.3
	c13.1,0,19.7-10.1,19.7-30.2V271.9H644v126.8c0,17.7-3.8,31-11.4,39.8c-7.6,8.8-18.2,13.3-31.6,13.3
	C596.7,451.8,592.5,451.1,588.3,449.6L588.3,449.6z"/>
<path class="st1" d="M745.3,441.5c-8.9-6.9-15.8-17.2-20.8-30.9c-4.9-13.7-7.3-30.3-7.3-49.9c0-28.5,5.2-50.9,15.5-67.1
	s24.8-24.3,43.3-24.3c11.4,0,22.1,4.1,32.3,12.3l-6.8,20c-7.2-6.3-15.3-9.5-24.4-9.5c-10.9,0-19.3,5.6-25.2,16.7
	c-6,11.1-8.9,28.3-8.9,51.6c0,22.1,2.9,39,8.8,50.8c5.9,11.8,14.2,17.7,25.1,17.7c10,0,18.5-3.3,25.5-10l6.8,21
	c-3.3,3.5-7.8,6.4-13.5,8.5c-5.7,2.2-12,3.3-19,3.3C764.7,451.8,754.3,448.4,745.3,441.5L745.3,441.5z"/>
<path class="st1" d="M828.1,271.9h23.4v177.2h-23.4V271.9z"/>
<path class="st1" d="M924.8,293.5v155.7h-23.6V293.5h-32.8V272h89v21.5H924.8L924.8,293.5z"/>
<path class="st1" d="M974.4,271.9h23.4v177.2h-23.4V271.9z"/>
<path class="st1" d="M1049.5,348.1h48.1v21.3h-48.1V428h56.7v21.3h-80.1V271.9h78.8v21h-55.4V348.1L1049.5,348.1z"/>
<path class="st1" d="M1125.6,271.9h21.5l34.1,97.4l34.1-97.4h21.3v177.3H1214V336.8l-27.1,77.5h-11.8l-27.1-77.7v112.6h-22.6
	L1125.6,271.9L1125.6,271.9z"/>
<path class="st1" d="M37.3,516.9h24.2v155.7h49.6v21.5H37.3V516.9L37.3,516.9z"/>
<path class="st1" d="M151.4,593.1h48.1v21.3h-48.1V673h56.7v21.3H128V516.9h78.8v21h-55.4V593.1L151.4,593.1z"/>
<path class="st1" d="M227.4,516.9H249l34.1,97.4l34.1-97.4h21.3v177.2h-22.6V581.8l-27,77.5h-11.8L250,581.5v112.7h-22.6V516.9
	L227.4,516.9z"/>
<path class="st1" d="M411.8,538.5v155.7h-23.6V538.5h-32.8V517h89v21.5H411.8L411.8,538.5z"/>
<path class="st1" d="M557.3,538.5v155.7h-23.6V538.5h-32.8V517h89v21.5H557.3L557.3,538.5z"/>
<path class="st1" d="M625.5,516.9h29.7l42.3,177.2h-24.7L662,646.4h-43.3l-10.8,47.8h-24.2L625.5,516.9L625.5,516.9z M623.4,624.6
	H657l-16.8-75.1L623.4,624.6L623.4,624.6z"/>
<path class="st1" d="M688.2,516.7h25L741.3,659h0.3l28.9-142.3h24.4l-39.7,177.5h-27.6L688.2,516.7L688.2,516.7z"/>
<path class="st1" d="M827.2,516.9h29.7l42.3,177.2h-24.7l-10.8-47.8h-43.3l-10.8,47.8h-24.2L827.2,516.9L827.2,516.9z M814,481.2
	h56.2v21.3H814V481.2z M825.1,624.6h33.6l-16.8-75.1L825.1,624.6L825.1,624.6z"/>
<path class="st1" d="M957.7,516.7h25l28.1,142.3h0.3l28.9-142.3h24.4l-39.7,177.5h-27.6L957.7,516.7L957.7,516.7z"/>
<path class="st1" d="M1081.7,516.9h23.4v177.2h-23.4V516.9L1081.7,516.9z"/>
<path class="st1" d="M1156.8,593.1h48.1v21.3h-48.1V673h56.7v21.3h-80.1V516.9h78.8v21h-55.4V593.1L1156.8,593.1z"/>
<path class="st1" d="M1282.8,538.5v155.7h-23.6V538.5h-32.8V517h89v21.5H1282.8L1282.8,538.5z"/>
<path class="st1" d="M1351,516.9h29.7l42.3,177.2h-24.7l-10.8-47.8h-43.3l-10.8,47.8h-24.2L1351,516.9L1351,516.9z M1337.9,481.2
	h56.2v21.3h-56.2V481.2z M1348.9,624.6h33.6l-16.8-75.1L1348.9,624.6L1348.9,624.6z"/>
<g>
	<path class="st0" d="M636.4,200.1c-4.7-4.7-7-10.5-7-17.3s2.3-12.6,7-17.3s10.5-7,17.3-7c7,0,12.8,2.3,17.5,7s7,10.5,7,17.3
		s-2.3,12.6-7,17.3s-10.5,7-17.5,7C646.9,207.1,641.1,204.8,636.4,200.1z M673.2,23.7l-3.1,117.6l-34.6,0.5l-3.1-118.1
		C632.4,23.7,673.2,23.7,673.2,23.7z"/>
</g>
<g>
	<path class="st1" d="M1440.5,691.4c-3-3.1-4.5-6.8-4.5-11.4c0-4.5,1.5-8.3,4.6-11.3s6.8-4.5,11.1-4.5c4.5,0,8.3,1.5,11.4,4.5
		s4.6,6.7,4.6,11.3c0,4.5-1.5,8.3-4.6,11.4c-3.1,3.1-6.9,4.6-11.4,4.6C1447.3,695.9,1443.5,694.4,1440.5,691.4z"/>
</g>
</svg>
