<?xml version="1.0" encoding="UTF-8"?>
<svg id="Calque_1" data-name="Calque 1" xmlns="http://www.w3.org/2000/svg" version="1.1" viewBox="0 0 1201.67 480.67">
  <defs>
    <style>
      .cls-1 {
        fill: #fff;
      }

      .cls-1, .cls-2 {
        stroke-width: 0px;
      }

      .cls-2 {
        fill: #7ccdeb;
      }
    </style>
  </defs>
  <g>
    <path class="cls-1" d="M33.41,37.8h32.27l26.83,118.39h-25.08l-4.56-23.15h-27.19l-4.56,23.15H6.4l27.01-118.39ZM49.02,66.91l-9.12,45.42h18.77l-9.12-45.42h-.53Z"/>
    <path class="cls-1" d="M102.69,37.62h22.45l29.11,66.3V37.62h23.68v118.56h-21.75l-29.99-67.88v67.88h-23.5V37.62Z"/>
    <path class="cls-1" d="M188.45,37.8h25.08l15.79,88.04h.18l15.78-88.04h24.91l-25.78,118.39h-30.34l-25.61-118.39Z"/>
    <path class="cls-1" d="M290.88,37.8h32.27l26.83,118.39h-25.08l-4.56-23.15h-27.19l-4.56,23.15h-24.73l27.01-118.39ZM282.64,25.79c-2.34-2.28-3.51-5.23-3.51-8.86s1.17-6.58,3.51-8.86c2.34-2.28,5.26-3.42,8.77-3.42s6.6,1.14,8.95,3.42c2.34,2.28,3.51,5.23,3.51,8.86s-1.17,6.58-3.51,8.86c-2.34,2.28-5.32,3.42-8.95,3.42s-6.43-1.14-8.77-3.42ZM306.49,66.91l-9.12,45.42h18.77l-9.12-45.42h-.53ZM313.24,25.7c-2.4-2.34-3.6-5.26-3.6-8.77s1.2-6.43,3.6-8.77c2.4-2.34,5.35-3.51,8.86-3.51s6.58,1.14,8.86,3.42c2.28,2.28,3.42,5.23,3.42,8.86s-1.14,6.58-3.42,8.86c-2.28,2.28-5.23,3.42-8.86,3.42s-6.46-1.17-8.86-3.51Z"/>
    <path class="cls-1" d="M359.98,37.62h22.45l29.11,66.3V37.62h23.68v118.56h-21.75l-29.99-67.88v67.88h-23.5V37.62Z"/>
    <path class="cls-1" d="M452.76,37.8h33.67c9.35,0,17.42,2.37,24.2,7.1,6.78,4.74,11.95,11.49,15.52,20.26,3.57,8.77,5.35,19.23,5.35,31.39,0,18.71-3.98,33.32-11.93,43.85-7.95,10.52-19,15.78-33.15,15.78h-33.67V37.8ZM500.73,124.27c3.57-6.2,5.35-15.37,5.35-27.54s-1.78-20.75-5.35-26.83c-3.57-6.08-8.74-9.12-15.52-9.12h-8.07v72.79h8.07c6.78,0,11.95-3.1,15.52-9.29Z"/>
    <path class="cls-1" d="M569.92,37.8h33.67c9.35,0,17.42,2.37,24.2,7.1,6.78,4.74,11.95,11.49,15.52,20.26,3.57,8.77,5.35,19.23,5.35,31.39,0,18.71-3.98,33.32-11.93,43.85-7.95,10.52-19,15.78-33.15,15.78h-33.67V37.8ZM617.88,124.27c3.57-6.2,5.35-15.37,5.35-27.54s-1.78-20.75-5.35-26.83c-3.57-6.08-8.74-9.12-15.52-9.12h-8.07v72.79h8.07c6.78,0,11.95-3.1,15.52-9.29Z"/>
    <path class="cls-1" d="M662.52,37.8h24.55v118.39h-24.55V37.8Z"/>
    <path class="cls-1" d="M704.44,37.62h22.45l29.11,66.3V37.62h23.68v118.56h-21.75l-29.99-67.88v67.88h-23.5V37.62Z"/>
    <path class="cls-1" d="M821.59,37.8h32.62c11.81,0,21.22,3.45,28.24,10.35,7.02,6.9,10.52,16.55,10.52,28.94,0,8.19-1.49,15.26-4.47,21.22-2.98,5.96-7.34,10.58-13.07,13.86l18.59,44.02h-25.78l-15.61-39.11h-6.49v39.11h-24.55V37.8ZM853.86,95.68c4.56,0,8.18-1.58,10.87-4.74,2.69-3.16,4.03-7.72,4.03-13.68,0-5.5-1.32-9.85-3.95-13.07-2.63-3.21-6.34-4.82-11.14-4.82h-7.54v36.3h7.72Z"/>
    <path class="cls-1" d="M913.84,142.42c-7.48-10.58-11.22-25.69-11.22-45.34s3.68-34.2,11.05-45.07c7.37-10.87,17.71-16.31,31.04-16.31s23.21,5.26,30.69,15.79c7.48,10.52,11.23,25.61,11.23,45.25s-3.68,34.38-11.05,45.25-17.66,16.31-30.87,16.31-23.39-5.29-30.87-15.87ZM920.33,25.61c-2.34-2.28-3.51-5.23-3.51-8.86s1.17-6.58,3.51-8.86c2.34-2.28,5.26-3.42,8.77-3.42s6.6,1.14,8.94,3.42c2.34,2.28,3.51,5.23,3.51,8.86s-1.17,6.58-3.51,8.86c-2.34,2.28-5.32,3.42-8.94,3.42s-6.43-1.14-8.77-3.42ZM957.08,125.23c2.98-6.25,4.47-15.64,4.47-28.15s-1.46-21.78-4.38-28.15c-2.92-6.37-7.08-9.56-12.45-9.56s-9.53,3.13-12.45,9.38c-2.92,6.26-4.38,15.64-4.38,28.15s1.43,21.48,4.3,27.97c2.86,6.49,7.04,9.73,12.54,9.73s9.38-3.13,12.37-9.38ZM950.94,25.52c-2.4-2.34-3.6-5.26-3.6-8.77s1.2-6.43,3.6-8.77c2.39-2.34,5.35-3.51,8.86-3.51s6.58,1.14,8.86,3.42c2.28,2.28,3.42,5.23,3.42,8.86s-1.14,6.58-3.42,8.86c-2.28,2.28-5.23,3.42-8.86,3.42s-6.46-1.17-8.86-3.51Z"/>
    <path class="cls-1" d="M995.05,150.05l5.61-20.52c2.81,2.1,5.85,3.74,9.12,4.91,3.27,1.17,6.49,1.75,9.65,1.75,4.44,0,7.89-1.02,10.35-3.07,2.46-2.04,3.68-5.11,3.68-9.21,0-3.16-1.2-6.17-3.6-9.03-2.4-2.86-5.99-6.17-10.79-9.91-6.78-4.91-12.19-10.26-16.22-16.05s-6.05-12.25-6.05-19.38c0-10.52,3.01-18.77,9.03-24.73,6.02-5.96,14.35-8.94,24.99-8.94,4.44,0,9.03.61,13.77,1.84s8.8,2.89,12.19,5l-5.44,20.87c-5.38-3.74-10.7-5.61-15.96-5.61-3.98,0-7.1,1.03-9.38,3.07-2.28,2.05-3.42,5-3.42,8.86,0,3.04,1.2,6.02,3.6,8.94,2.39,2.92,5.93,6.14,10.61,9.65,7.13,5.15,12.69,10.64,16.66,16.49,3.97,5.85,5.96,12.75,5.96,20.7,0,9.94-3.22,17.86-9.65,23.77-6.43,5.91-14.97,8.86-25.61,8.86s-19.88-2.75-29.11-8.24Z"/>
    <path class="cls-1" d="M1110.28,60.43v95.76h-24.55V60.43h-21.4v-22.8h67.35v22.8h-21.4Z"/>
  </g>
  <g>
    <path class="cls-2" d="M35.52,197.49h19.82l28.24,118.39h-16.49l-7.19-31.92h-28.94l-7.19,31.92H7.63l27.89-118.39ZM34.11,269.4h22.45l-11.22-50.16-11.22,50.16Z"/>
    <path class="cls-2" d="M96.73,197.49h14.03l34.9,80.85v-80.85h15.26v118.39h-13.68l-35.43-82.61v82.61h-15.08v-118.39Z"/>
    <path class="cls-2" d="M181.96,197.49h14.03l34.9,80.85v-80.85h15.26v118.39h-13.68l-35.43-82.61v82.61h-15.08v-118.39Z"/>
    <path class="cls-2" d="M287.2,197.49h19.82l28.24,118.39h-16.49l-7.19-31.92h-28.94l-7.19,31.92h-16.14l27.89-118.39ZM285.79,269.4h22.45l-11.22-50.16-11.22,50.16Z"/>
    <path class="cls-2" d="M348.4,197.49h23.85c10.99,0,19.7,3.24,26.13,9.73,6.43,6.49,9.65,15.76,9.65,27.8,0,8.54-1.64,15.81-4.91,21.84-3.28,6.02-8.07,10.38-14.38,13.07l20.17,45.95h-17.01l-18.59-42.79h-9.29v42.79h-15.61v-118.39ZM371.91,259.23c6.2,0,11.11-2.07,14.73-6.23,3.62-4.15,5.44-10.14,5.44-17.98,0-7.25-1.75-13.01-5.26-17.28-3.51-4.27-8.48-6.4-14.91-6.4h-7.89v47.88h7.89Z"/>
    <path class="cls-2" d="M420.48,310.09l4.03-14.38c2.81,2.22,5.88,3.95,9.21,5.17s6.52,1.84,9.56,1.84c5.14,0,9.24-1.43,12.28-4.3,3.04-2.86,4.56-6.93,4.56-12.19,0-4.79-1.32-8.91-3.95-12.36-2.63-3.45-6.87-7.74-12.72-12.89-7.01-5.61-12.39-11.08-16.13-16.4-3.74-5.32-5.61-11.43-5.61-18.33,0-9.59,2.63-17.07,7.89-22.45,5.26-5.38,12.39-8.07,21.4-8.07,3.62,0,7.45.59,11.49,1.75,4.03,1.17,7.86,2.87,11.49,5.09l-3.68,14.21c-5.85-4.09-11.64-6.14-17.36-6.14-4.45,0-8.01,1.35-10.7,4.03-2.69,2.69-4.03,6.49-4.03,11.4,0,4.09,1.32,7.95,3.95,11.58,2.63,3.63,6.63,7.72,12.01,12.28,7.37,5.85,12.92,11.52,16.66,17.01,3.74,5.5,5.61,12.16,5.61,19.99,0,9.36-2.81,16.81-8.42,22.36-5.61,5.56-13.21,8.33-22.8,8.33-8.19,0-16.43-2.51-24.73-7.54Z"/>
    <path class="cls-2" d="M522.21,197.49h25.08c10.41,0,18.62,2.6,24.64,7.8,6.02,5.2,9.03,12.66,9.03,22.36,0,6.55-1.52,12.22-4.56,17.01-3.04,4.8-7.31,8.13-12.8,10,6.55,1.52,11.69,4.8,15.43,9.82,3.74,5.03,5.61,11.52,5.61,19.47,0,9.82-3.07,17.6-9.21,23.33-6.14,5.73-14.82,8.59-26.04,8.59h-27.18v-118.39ZM546.41,248.88c5.96,0,10.58-1.58,13.86-4.74,3.27-3.16,4.91-7.72,4.91-13.68s-1.67-10.81-5-14.21c-3.33-3.39-8.1-5.09-14.29-5.09h-8.24v37.71h8.77ZM547.99,302.02c6.67,0,11.81-1.67,15.43-5,3.62-3.33,5.44-8.21,5.44-14.65s-1.78-11.43-5.35-15c-3.57-3.57-8.68-5.35-15.35-5.35h-10.52v39.99h10.35Z"/>
    <path class="cls-2" d="M616.04,248.35h32.1v14.21h-32.1v39.11h37.88v14.21h-53.49v-118.39h52.62v14.03h-37.01v36.83Z"/>
    <path class="cls-2" d="M664.62,310.09l4.03-14.38c2.81,2.22,5.88,3.95,9.21,5.17s6.52,1.84,9.56,1.84c5.14,0,9.24-1.43,12.28-4.3,3.04-2.86,4.56-6.93,4.56-12.19,0-4.79-1.32-8.91-3.95-12.36-2.63-3.45-6.87-7.74-12.72-12.89-7.01-5.61-12.39-11.08-16.13-16.4-3.74-5.32-5.61-11.43-5.61-18.33,0-9.59,2.63-17.07,7.89-22.45,5.26-5.38,12.39-8.07,21.4-8.07,3.62,0,7.45.59,11.49,1.75,4.03,1.17,7.86,2.87,11.49,5.09l-3.68,14.21c-5.85-4.09-11.64-6.14-17.36-6.14-4.45,0-8.01,1.35-10.7,4.03-2.69,2.69-4.03,6.49-4.03,11.4,0,4.09,1.32,7.95,3.95,11.58,2.63,3.63,6.63,7.72,12.01,12.28,7.37,5.85,12.92,11.52,16.66,17.01,3.74,5.5,5.61,12.16,5.61,19.99,0,9.36-2.81,16.81-8.42,22.36-5.61,5.56-13.21,8.33-22.8,8.33-8.19,0-16.43-2.51-24.73-7.54Z"/>
    <path class="cls-2" d="M765.11,211.87v104h-15.79v-104h-21.92v-14.38h59.46v14.38h-21.75Z"/>
    <path class="cls-2" d="M810.71,197.49h19.82l28.24,118.39h-16.49l-7.19-31.92h-28.94l-7.19,31.92h-16.14l27.89-118.39ZM800.72,183.55c-1.75-1.81-2.63-4.06-2.63-6.75s.9-4.74,2.72-6.49c1.81-1.75,4-2.63,6.58-2.63s4.94.88,6.75,2.63c1.81,1.75,2.72,3.92,2.72,6.49s-.91,4.94-2.72,6.75c-1.81,1.81-4.06,2.72-6.75,2.72s-4.91-.9-6.66-2.72ZM809.31,269.4h22.45l-11.22-50.16-11.22,50.16ZM826.67,183.55c-1.75-1.81-2.63-4.06-2.63-6.75s.88-4.74,2.63-6.49,3.97-2.63,6.67-2.63,4.94.88,6.75,2.63c1.81,1.75,2.72,3.92,2.72,6.49s-.91,4.94-2.72,6.75c-1.81,1.81-4.06,2.72-6.75,2.72s-4.91-.9-6.67-2.72Z"/>
    <path class="cls-2" d="M870.87,197.49h14.38l22.8,65.07,22.8-65.07h14.21v118.39h-15.08v-75.07l-18.07,51.74h-7.89l-18.07-51.91v75.24h-15.08v-118.39Z"/>
    <path class="cls-2" d="M966.11,197.49h14.38l22.8,65.07,22.8-65.07h14.21v118.39h-15.08v-75.07l-18.07,51.74h-7.89l-18.07-51.91v75.24h-15.08v-118.39Z"/>
    <path class="cls-2" d="M1076.95,248.35h32.1v14.21h-32.1v39.11h37.88v14.21h-53.49v-118.39h52.62v14.03h-37.01v36.83Z"/>
    <path class="cls-2" d="M1129.92,197.49h23.85c10.99,0,19.7,3.24,26.13,9.73,6.43,6.49,9.65,15.76,9.65,27.8,0,8.54-1.64,15.81-4.91,21.84-3.28,6.02-8.07,10.38-14.38,13.07l20.17,45.95h-17.01l-18.59-42.79h-9.29v42.79h-15.61v-118.39ZM1153.42,259.23c6.2,0,11.11-2.07,14.73-6.23,3.62-4.15,5.44-10.14,5.44-17.98,0-7.25-1.75-13.01-5.26-17.28-3.51-4.27-8.48-6.4-14.91-6.4h-7.89v47.88h7.89Z"/>
    <path class="cls-2" d="M35.52,357.49h19.82l28.24,118.39h-16.49l-7.19-31.92h-28.94l-7.19,31.92H7.63l27.89-118.39ZM34.11,429.4h22.45l-11.22-50.16-11.22,50.16Z"/>
    <path class="cls-2" d="M96.73,357.49h14.03l34.9,80.85v-80.85h15.26v118.39h-13.68l-35.43-82.61v82.61h-15.08v-118.39Z"/>
    <path class="cls-2" d="M181.96,357.49h24.55c13.68,0,24.23,5.09,31.66,15.26,7.42,10.17,11.14,24.73,11.14,43.67s-3.71,33.73-11.14,44.02c-7.43,10.29-17.98,15.43-31.66,15.43h-24.55v-118.39ZM225.55,450.01c4.5-7.66,6.75-18.79,6.75-33.41s-2.25-25.72-6.75-33.32c-4.5-7.6-11.08-11.4-19.73-11.4h-8.24v89.62h8.24c8.65,0,15.23-3.83,19.73-11.49Z"/>
    <path class="cls-2" d="M266.32,357.49h23.85c10.99,0,19.7,3.24,26.13,9.73,6.43,6.49,9.65,15.76,9.65,27.8,0,8.54-1.64,15.82-4.91,21.84-3.28,6.02-8.07,10.38-14.38,13.07l20.17,45.95h-17.01l-18.59-42.79h-9.29v42.79h-15.61v-118.39ZM289.83,419.23c6.2,0,11.11-2.07,14.73-6.23,3.62-4.15,5.44-10.14,5.44-17.98,0-7.25-1.75-13.01-5.26-17.28-3.51-4.27-8.48-6.4-14.91-6.4h-7.89v47.88h7.89Z"/>
    <path class="cls-2" d="M362.26,357.49h19.82l28.24,118.39h-16.49l-7.19-31.92h-28.94l-7.19,31.92h-16.14l27.89-118.39ZM360.86,429.4h22.45l-11.22-50.16-11.22,50.16Z"/>
    <path class="cls-2" d="M473.98,357.49h19.82l28.24,118.39h-16.49l-7.19-31.92h-28.94l-7.19,31.92h-16.14l27.89-118.39ZM473.37,345.3c-2.63-2.75-3.95-6.17-3.95-10.26s1.32-7.54,3.95-10.35,6.11-4.21,10.44-4.21,7.98,1.38,10.61,4.12c2.63,2.75,3.95,6.23,3.95,10.44s-1.32,7.51-3.95,10.26c-2.63,2.75-6.17,4.12-10.61,4.12s-7.8-1.37-10.44-4.12ZM472.58,429.4h22.45l-11.22-50.16-11.22,50.16ZM488.45,339.6c1.11-1.29,1.67-2.81,1.67-4.56,0-1.99-.56-3.6-1.67-4.82-1.11-1.23-2.66-1.84-4.65-1.84s-3.51.64-4.56,1.93c-1.05,1.29-1.58,2.87-1.58,4.74,0,1.75.55,3.27,1.67,4.56,1.11,1.29,2.6,1.93,4.47,1.93,1.99,0,3.54-.64,4.65-1.93Z"/>
    <path class="cls-2" d="M554.84,371.87v104h-15.79v-104h-21.92v-14.38h59.46v14.38h-21.75Z"/>
    <path class="cls-2" d="M619.73,357.49h24.55c13.68,0,24.23,5.09,31.66,15.26,7.42,10.17,11.14,24.73,11.14,43.67s-3.71,33.73-11.14,44.02c-7.43,10.29-17.98,15.43-31.66,15.43h-24.55v-118.39ZM663.31,450.01c4.5-7.66,6.75-18.79,6.75-33.41s-2.25-25.72-6.75-33.32c-4.5-7.6-11.08-11.4-19.73-11.4h-8.24v89.62h8.24c8.65,0,15.23-3.83,19.73-11.49Z"/>
    <path class="cls-2" d="M703.74,357.49h15.61v118.39h-15.61v-118.39Z"/>
    <path class="cls-2" d="M745.48,462.02c-6.08-10.41-9.12-25.49-9.12-45.25s3.36-35.31,10.08-45.6c6.72-10.29,16.28-15.43,28.68-15.43,8.42,0,16.02,2.46,22.8,7.37l-4.74,14.03c-2.1-1.75-4.85-3.24-8.24-4.47-3.39-1.23-6.37-1.84-8.94-1.84-7.72,0-13.45,3.71-17.19,11.14-3.74,7.43-5.61,19.03-5.61,34.81,0,14.85,1.61,26.22,4.82,34.11,3.21,7.89,7.92,11.84,14.12,11.84,5.49,0,9.53-2.66,12.1-7.98,2.57-5.32,3.86-13.77,3.86-25.34v-2.46h-16.84v-13.68h32.1v14.56c0,16.95-2.63,29.5-7.89,37.62-5.26,8.13-13.27,12.19-24.03,12.19s-19.88-5.2-25.96-15.61Z"/>
  </g>
</svg>