<?xml version="1.0" encoding="utf-8"?>
<!-- Generator: Adobe Illustrator 28.0.0, SVG Export Plug-In . SVG Version: 6.00 Build 0)  -->
<svg version="1.1" id="Calque_1" xmlns="http://www.w3.org/2000/svg" xmlns:xlink="http://www.w3.org/1999/xlink" x="0px" y="0px"
	 viewBox="0 0 225 225" style="enable-background:new 0 0 225 225;" xml:space="preserve">
<style type="text/css">
	.st0{clip-path:url(#SVGID_00000098213632062895437350000013491041703173656993_);}
	.st1{fill:#FFFFFF;}
	.st2{fill:none;}
	.st3{fill:none;stroke:#FFFFFF;stroke-width:4;}
</style>
<g>
	<g id="Groupe_19963" transform="translate(45 48)">
		<g>
			<defs>
				<rect id="SVGID_1_" width="135.33" height="129.63"/>
			</defs>
			<clipPath id="SVGID_00000031180980852523802060000001069366686153825438_">
				<use xlink:href="#SVGID_1_"  style="overflow:visible;"/>
			</clipPath>
			<g id="Groupe_19962" style="clip-path:url(#SVGID_00000031180980852523802060000001069366686153825438_);">
				<path id="Tracé_213955" class="st1" d="M13.96,23.88v1.7c0,5.48,0.04,10.96-0.02,16.44c-0.04,4.43-3.16,7.41-7.38,7.22
					c-3.57-0.15-6.42-3.03-6.52-6.61c-0.05-11.98-0.05-23.95,0-35.93c0.02-3.9,3.23-6.67,7.4-6.67l31.55,0.01
					c1.28,0,2.56-0.04,3.84,0.03c3.82,0.25,6.71,3.54,6.47,7.36c-0.23,3.55-3.11,6.35-6.66,6.48c-6.14,0.06-12.28,0.02-18.78,0.02
					c0.51,0.55,0.83,0.91,1.17,1.26c10.52,10.53,21.05,21.07,31.57,31.6c3.02,3.03,3.12,7.29,0.28,10.16
					c-2.83,2.85-7.07,2.71-10.15-0.37c-10.47-10.46-20.94-20.93-31.4-31.4C14.97,24.81,14.59,24.47,13.96,23.88"/>
				<path id="Tracé_213956" class="st1" d="M23.86,115.74c6.39,0,12.43-0.02,18.48,0.01c3.82,0.01,6.91,3.12,6.9,6.95
					c-0.01,3.71-2.95,6.75-6.66,6.89c-6.76,0.06-13.53,0.03-20.29,0.03c-5.08,0-10.17,0.02-15.25-0.02
					c-3.77,0.11-6.91-2.85-7.02-6.62c0-0.14,0-0.28,0-0.43c-0.01-11.67-0.01-23.34,0-35.02c-0.12-3.82,2.87-7.01,6.69-7.13
					c3.72-0.24,6.92,2.58,7.17,6.29c0.01,0.14,0.01,0.29,0.01,0.43c0.15,5.61,0.05,11.23,0.06,16.84c0,0.48,0,0.96,0,1.84
					c0.64-0.61,1.04-0.98,1.42-1.36c10.41-10.41,20.81-20.82,31.22-31.23c2.5-2.5,5.41-3.18,8.18-1.94c3.52,1.54,5.13,5.64,3.6,9.16
					c-0.36,0.83-0.89,1.59-1.54,2.22c-5.4,5.47-10.86,10.89-16.3,16.32c-5.19,5.19-10.37,10.38-15.56,15.57
					C24.67,114.85,24.38,115.18,23.86,115.74"/>
				<path id="Tracé_213957" class="st1" d="M121.37,105.51v-1.28c0-5.44,0-10.88,0-16.31c0-4.42,2.87-7.51,6.98-7.5
					c4.05,0.01,6.94,3.08,6.94,7.41c0.01,11.49,0.01,22.99,0,34.48c0.23,3.81-2.67,7.08-6.47,7.32c-0.27,0.02-0.55,0.02-0.83,0
					c-11.67,0.01-23.34,0.01-35.01-0.01c-3.67,0.05-6.74-2.79-6.95-6.46c-0.21-3.45,2.12-6.54,5.5-7.26
					c0.61-0.11,1.23-0.15,1.84-0.13c5.48-0.01,10.96-0.01,16.44-0.01h1.66c-0.55-0.58-0.89-0.95-1.24-1.3
					c-10.44-10.44-20.87-20.87-31.31-31.31c-3.05-3.05-3.4-7.18-0.82-10.08c2.53-2.88,6.92-3.16,9.8-0.63
					c0.15,0.14,0.3,0.28,0.45,0.43c9.12,9.13,18.24,18.26,27.36,27.39c1.8,1.8,3.54,3.65,5.31,5.48L121.37,105.51"/>
				<path id="Tracé_213958" class="st1" d="M111.43,13.92c-6.29,0-12.25,0.01-18.21,0c-3.62,0.17-6.74-2.5-7.15-6.1
					c-0.48-3.77,2.18-7.22,5.95-7.7c0.06-0.01,0.11-0.01,0.17-0.02c1.98-0.12,3.98-0.05,5.96-0.06c9.85,0,19.71,0.1,29.57-0.05
					c4.06-0.14,7.47,3.03,7.61,7.09c0.01,0.18,0.01,0.36,0,0.53c-0.13,11.53-0.03,23.07-0.05,34.61c0.04,3.85-3.05,7-6.9,7.04
					c-1.7,0.02-3.35-0.59-4.63-1.7c-1.63-1.42-2.51-3.51-2.39-5.66c0.02-5.48,0.01-10.96,0.01-16.44c0-0.43,0-0.87,0-1.57
					c-0.46,0.4-0.75,0.63-1,0.88c-10.66,10.65-21.31,21.31-31.96,31.97c-1.76,1.96-4.5,2.72-7.02,1.94c-2.42-0.62-4.29-2.55-4.81-5
					c-0.65-2.5,0.16-5.16,2.08-6.88c7.13-7.11,14.26-14.23,21.37-21.37c3.5-3.5,7-7,10.49-10.5
					C110.76,14.68,110.98,14.43,111.43,13.92"/>
			</g>
		</g>
	</g>
	<g id="Ellipse_437">
		<circle class="st2" cx="112.5" cy="112.5" r="112.5"/>
		<circle class="st3" cx="112.5" cy="112.5" r="110.5"/>
	</g>
</g>
</svg>
