<svg id="reddit" xmlns="http://www.w3.org/2000/svg" viewBox="0 0 17.9 14.99"><defs><style>.cls-1{fill:#fff}.cls-2{fill:#070606}</style></defs><path class="cls-1" d="M24.57 16.57a1.7 1.7 0 1 1-1.7 1.7 1.7 1.7 0 0 1 1.7-1.7" transform="translate(-8.67 -10.94)"/><path class="cls-2" d="M24.57 16.87a1.4 1.4 0 1 0 1.4 1.4 1.4 1.4 0 0 0-1.4-1.4m0 3.4a2 2 0 1 1 2-2 2 2 0 0 1-2 2" transform="translate(-8.67 -10.94)"/><path class="cls-1" d="M10.67 16.57A1.7 1.7 0 1 1 9 18.27a1.7 1.7 0 0 1 1.7-1.7" transform="translate(-8.67 -10.94)"/><path class="cls-2" d="M10.67 16.87a1.4 1.4 0 1 0 1.4 1.4 1.4 1.4 0 0 0-1.4-1.4m0 3.4a2 2 0 1 1 2-2 2 2 0 0 1-2 2m7.01-4.52h-.09a.3.3 0 0 1-.19-.38l1.25-3.95a.3.3 0 0 1 .35-.2l3.4.8a.3.3 0 0 1 .22.36.31.31 0 0 1-.36.23l-3.13-.74L18 15.54a.3.3 0 0 1-.29.21" transform="translate(-8.67 -10.94)"/><path class="cls-1" d="M23.72 11.24a1.34 1.34 0 1 1-1.34 1.34 1.34 1.34 0 0 1 1.34-1.34" transform="translate(-8.67 -10.94)"/><path class="cls-2" d="M23.72 11.54a1 1 0 1 0 1 1 1 1 0 0 0-1-1m0 2.68a1.64 1.64 0 1 1 1.64-1.64 1.65 1.65 0 0 1-1.64 1.64" transform="translate(-8.67 -10.94)"/><path class="cls-1" d="M17.58 15.58c4.25 0 7.7 2.25 7.7 5s-3.45 5-7.7 5-7.7-2.25-7.7-5 3.45-5 7.7-5" transform="translate(-8.67 -10.94)"/><path class="cls-2" d="M17.58 15.88c-4.08 0-7.4 2.12-7.4 4.73s3.32 4.72 7.4 4.72S25 23.21 25 20.61s-3.32-4.73-7.4-4.73m0 10a10.4 10.4 0 0 1-5.6-1.47 4.65 4.65 0 0 1-2.39-3.8A4.65 4.65 0 0 1 12 16.8a10.4 10.4 0 0 1 5.61-1.52 10.35 10.35 0 0 1 5.61 1.52 4.65 4.65 0 0 1 2.39 3.81 4.65 4.65 0 0 1-2.39 3.8 10.35 10.35 0 0 1-5.61 1.52" transform="translate(-8.67 -10.94)"/><path class="cls-2" d="M17.61 24a3.88 3.88 0 0 1-2.86-.89.3.3 0 0 1 .42-.42 3.36 3.36 0 0 0 2.44.71.3.3 0 0 1 0 .6" transform="translate(-8.67 -10.94)"/><path class="cls-2" d="M17.63 24a.3.3 0 1 1 0-.6 3.36 3.36 0 0 0 2.44-.71.3.3 0 0 1 .42.42 3.88 3.88 0 0 1-2.86.89" transform="translate(-8.67 -10.94)"/><path d="M14.92 18.37a1.27 1.27 0 0 0-1.26 1.26 1.26 1.26 0 0 0 1.26 1.24 1.24 1.24 0 0 0 1.23-1.24 1.26 1.26 0 0 0-1.23-1.26m5.42 0a1.28 1.28 0 0 0-1.26 1.26 1.26 1.26 0 0 0 1.26 1.24 1.24 1.24 0 0 0 1.24-1.24 1.26 1.26 0 0 0-1.24-1.26" transform="translate(-8.67 -10.94)" fill="#ff2500"/></svg>