<svg xmlns="http://www.w3.org/2000/svg" viewBox="0 0 15.2 14.11"><path d="M15.03 11.05V11h-.05a4.62 4.62 0 0 1-3.32-2.95.79.79 0 0 1 .38-1.09 4.53 4.53 0 0 1 .6-.26 3.64 3.64 0 0 0 .57-.25c.11-.06.3-.2.26-.31a.39.39 0 0 0-.33-.27.82.82 0 0 0-.33.07c-.13 0-.25.09-.38.13a1 1 0 0 1-.74 0 .33.33 0 0 1-.22-.37c0-.7.06-1.39.07-2.09A3.22 3.22 0 0 0 10.23.97 4.31 4.31 0 0 0 5.32.81a3.27 3.27 0 0 0-1.53 2.83c0 .65 0 1.31.06 2 0 .37-.05.46-.41.53a1.19 1.19 0 0 1-.42 0c-.22 0-.42-.13-.63-.19a.46.46 0 0 0-.51.17c-.07.21.1.29.23.36s.39.16.59.25a6.14 6.14 0 0 1 .69.32.74.74 0 0 1 .32.9 5 5 0 0 1-.43.9 4.41 4.41 0 0 1-2.92 2.17H.22a1.12 1.12 0 0 0 .79.43c.42.09.63.09 1 .21a.61.61 0 0 1 .3.23.75.75 0 0 1 .09.3c.11.48.11.47.6.38a2.94 2.94 0 0 1 2.51.54c.12.1.26.18.38.27a3 3 0 0 0 2.44.5 3.49 3.49 0 0 0 1.38-.74 3.05 3.05 0 0 1 2.54-.58c.51.09.51.09.63-.42s.15-.44.55-.53a12.38 12.38 0 0 0 1.23-.34 1.24 1.24 0 0 0 .34-.22" fill="#fffc01"/><path d="M15.03 11.05V11h-.05a4.62 4.62 0 0 1-3.32-2.95.79.79 0 0 1 .38-1.09 4.53 4.53 0 0 1 .6-.26 3.64 3.64 0 0 0 .57-.25c.11-.06.3-.2.26-.31a.39.39 0 0 0-.33-.27.82.82 0 0 0-.33.07c-.13 0-.25.09-.38.13a1 1 0 0 1-.74 0 .33.33 0 0 1-.22-.37c0-.7.06-1.39.07-2.09A3.22 3.22 0 0 0 10.23.97 4.31 4.31 0 0 0 5.32.81a3.27 3.27 0 0 0-1.53 2.83c0 .65 0 1.31.06 2 0 .37-.05.46-.41.53a1.19 1.19 0 0 1-.42 0c-.22 0-.42-.13-.63-.19a.46.46 0 0 0-.51.17c-.07.21.1.29.23.36s.39.16.59.25a6.14 6.14 0 0 1 .69.32.74.74 0 0 1 .32.9 5 5 0 0 1-.43.9 4.41 4.41 0 0 1-2.92 2.17H.22a1.12 1.12 0 0 0 .79.43c.42.09.63.09 1 .21a.61.61 0 0 1 .3.23.75.75 0 0 1 .09.3c.11.48.11.47.6.38a2.94 2.94 0 0 1 2.51.54c.12.1.26.18.38.27a3 3 0 0 0 2.44.5 3.49 3.49 0 0 0 1.38-.74 3.05 3.05 0 0 1 2.54-.58c.51.09.51.09.63-.42s.15-.44.55-.53a12.38 12.38 0 0 0 1.23-.34 1.24 1.24 0 0 0 .37-.25z" fill="none" stroke="#000" stroke-width=".25"/></svg>