<svg xmlns="http://www.w3.org/2000/svg" width="45.002" height="45" viewBox="0 0 45.002 45">
  <g id="ep-EE24-elections-campaign-FB-icon" transform="translate(0.5 0.5)">
    <g id="Group">
      <path id="Path" d="M5.019,10.039a22,22,0,0,0,22-22,22,22,0,0,0-22-22,22,22,0,0,0-22,22,22,22,0,0,0,22,22" transform="translate(16.982 33.961)" fill="#fff200" stroke="#1e1e1e" stroke-width="1"/>
    </g>
    <g id="Group-2" data-name="Group" transform="translate(17.625 11.301)">
      <path id="FB" d="M.647,6.471H4.981V-4.364H7.874L8.256-8.1H4.981V-9.97c0-.974.091-1.5,1.443-1.5H8.236V-15.2H5.343c-3.475,0-4.7,1.8-4.7,4.847V-8.11H-1.519v3.745H.647Z" transform="translate(1.519 15.2)" fill="#1e1e1e"/>
    </g>
  </g>
</svg>
