<svg xmlns="http://www.w3.org/2000/svg" width="45.003" height="45" viewBox="0 0 45.003 45">
  <g id="ep-EE24-elections-campaign-whatsapp-icon" transform="translate(0.5 0.5)">
    <g id="Group">
      <path id="Path" d="M5.02,10.039a22,22,0,0,0,22-22,22,22,0,0,0-22-22,22,22,0,0,0-22,22,22,22,0,0,0,22,22" transform="translate(16.982 33.961)" fill="#fff200" stroke="#1e1e1e" stroke-width="1"/>
    </g>
    <path id="whatsapp" d="M14,2A11.968,11.968,0,0,0,3.624,19.943L2,25.962l6.269-1.481a11.959,11.959,0,0,0,5.719,1.455h0a12.559,12.559,0,0,0,3.477-.515A11.971,11.971,0,0,0,22.46,5.508,11.89,11.89,0,0,0,14,2Zm0,2.4A9.572,9.572,0,1,1,9.418,22.377l-.807-.44-.892.211L5.36,22.7l.576-2.139.26-.959-.5-.861A9.571,9.571,0,0,1,13.993,4.4ZM9.76,8.44a1.1,1.1,0,0,0-.8.374,3.344,3.344,0,0,0-1.048,2.492A5.819,5.819,0,0,0,9.135,14.4a12.269,12.269,0,0,0,5.109,4.512c2.526,1,3.039.8,3.587.749a3.016,3.016,0,0,0,2.019-1.42,2.512,2.512,0,0,0,.176-1.423c-.074-.125-.274-.2-.573-.349S17.684,15.6,17.41,15.5s-.475-.15-.674.15-.77.971-.945,1.17-.349.227-.648.077a8.233,8.233,0,0,1-2.406-1.486,9.008,9.008,0,0,1-1.664-2.069c-.174-.3-.016-.462.133-.611.134-.134.3-.349.447-.524a2.08,2.08,0,0,0,.3-.5.553.553,0,0,0-.026-.524c-.074-.15-.656-1.626-.922-2.218-.224-.5-.461-.509-.674-.517C10.157,8.44,9.959,8.44,9.76,8.44Z" transform="translate(8.021 8.02)" fill="#1e1e1e"/>
  </g>
</svg>
