<svg xmlns="http://www.w3.org/2000/svg" width="45.003" height="44.999" viewBox="0 0 45.003 44.999">
  <g id="ep-EE24-elections-campaign-Twitter-icon" transform="translate(0.5 0.5)">
    <g id="Group_" data-name="Group ">
      <path id="Path" d="M5.02,10.038a22,22,0,0,0,22-22,22,22,0,0,0-22-22,22,22,0,0,0-22,22,22,22,0,0,0,22,22" transform="translate(16.982 33.961)" fill="#fff200" stroke="#1e1e1e" stroke-width="1"/>
    </g>
    <g id="Group" transform="translate(13.332 14.957)">
      <path id="Twitter" d="M4.191.065a4,4,0,0,0-2.7,4.027l.043.687L.842,4.695A11.237,11.237,0,0,1-5.744,1.449L-6.658.54l-.234.672a4.041,4.041,0,0,0,.858,4.141c.553.589.429.673-.526.323a1.6,1.6,0,0,0-.65-.154,5.044,5.044,0,0,0,.5,1.874,4.476,4.476,0,0,0,1.9,1.791l.679.323-.8.012c-.768,0-.8.014-.719.307a4.19,4.19,0,0,0,2.588,2.3l.858.294-.747.447A7.769,7.769,0,0,1-6.671,13.9,4.1,4.1,0,0,0-7.8,14.01a10.451,10.451,0,0,0,2.67,1.23,11.681,11.681,0,0,0,9.077-1.034A12.159,12.159,0,0,0,8.553,8.777a14.448,14.448,0,0,0,.941-4.2c0-.644.041-.729.816-1.5a9.286,9.286,0,0,0,.97-1.076c.137-.266.123-.266-.583-.028-1.176.42-1.343.363-.761-.266a4.085,4.085,0,0,0,.939-1.5c0-.041-.207.028-.443.154A7.814,7.814,0,0,1,9.214.848l-.747.238L7.789.625A5.711,5.711,0,0,0,6.613.01,4.725,4.725,0,0,0,4.191.065" transform="translate(7.805 0.122)" fill="#1e1e1e"/>
    </g>
  </g>
</svg>
