<?xml version="1.0" encoding="UTF-8"?>
<svg id="Layer_1" xmlns="http://www.w3.org/2000/svg" version="1.1" viewBox="0 0 377.88 203.6">
  <!-- Generator: Adobe Illustrator 29.1.0, SVG Export Plug-In . SVG Version: 2.1.0 Build 142)  -->
  <defs>
    <style>
      .st0 {
        isolation: isolate;
      }

      .st1 {
        fill: #05509f;
      }
    </style>
  </defs>
  <g id="Invest_in_what_matters" class="st0">
    <g class="st0">
      <path class="st1" d="M-.08,2.66h14.2v57.46H-.08V2.66Z"/>
      <path class="st1" d="M25.51,2.66h12.84l24.23,33.66V2.66h14.11v57.46h-12.58l-24.65-34.26v34.26h-13.94V2.66Z"/>
      <path class="st1" d="M82.88,2.75h14.79l13.6,42.08h.08L125.04,2.75h14.71l-19.98,57.38h-16.92L82.88,2.75Z"/>
      <path class="st1" d="M159.72,24.85h25.16v12.16h-25.16v10.97h29.58v12.16h-43.35V2.75h42.59v12.24h-28.82v9.86Z"/>
      <path class="st1" d="M194.74,52.39l7.82-9.69c3.4,3.91,9.1,6.46,14.71,6.46,4.68,0,8.59-1.7,8.59-5.53,0-4.42-3.74-5.7-10.2-7.06-12.16-2.55-19.13-7.31-19.13-17.26,0-11.39,10.03-17.6,22.53-17.6,8.59,0,15.64,2.55,20.74,7.65l-7.57,9.44c-4.25-3.4-8.59-5.19-13.01-5.19s-7.82,1.53-7.82,5.02c0,3.23,2.72,4.76,9.78,6.38,12.75,2.8,19.64,8.33,19.64,18.53,0,11.39-10.12,17.6-23.8,17.6-9.27,0-17.43-3.66-22.27-8.76Z"/>
      <path class="st1" d="M274.89,15.67v44.46h-14.11V15.67h-16.92V2.66h47.86v13.01h-16.83Z"/>
    </g>
    <g class="st0">
      <path class="st1" d="M-.08,73.66h14.2v57.46H-.08v-57.46Z"/>
      <path class="st1" d="M25.51,73.66h12.84l24.23,33.66v-33.66h14.11v57.46h-12.58l-24.65-34.26v34.26h-13.94v-57.46Z"/>
      <path class="st1" d="M104.04,73.75h14.71l10.71,39.78,9.61-39.78h12.33l9.86,39.78,10.54-39.78h14.71l-16.83,57.38h-14.54l-9.86-33.83-9.86,33.83h-14.54l-16.83-57.38Z"/>
      <path class="st1" d="M192.78,131.13v-57.38h14.03v22.1h21.68v-22.1h14.03v57.38h-14.03v-22.7h-21.68v22.7h-14.03Z"/>
      <path class="st1" d="M270.14,73.75h17l21.51,57.38h-14.71l-4.17-11.56h-22.53l-4.17,11.56h-14.45l21.51-57.38ZM278.47,88.03l-7.05,19.72h14.2l-7.05-19.72h-.09Z"/>
      <path class="st1" d="M333.72,86.67v44.46h-14.11v-44.46h-16.92v-13.01h47.86v13.01h-16.83Z"/>
    </g>
    <g class="st0">
      <path class="st1" d="M-.08,144.66h13.86l15.9,28.99,15.9-28.99h13.77v57.46h-14.11v-33.24l-13.18,24.31h-4.76l-13.26-24.31v33.24H-.08v-57.46Z"/>
      <path class="st1" d="M86.96,144.75h17l21.51,57.38h-14.71l-4.17-11.56h-22.53l-4.17,11.56h-14.45l21.51-57.38ZM95.29,159.03l-7.06,19.72h14.2l-7.06-19.72h-.09Z"/>
      <path class="st1" d="M150.54,157.67v44.46h-14.11v-44.46h-16.92v-13.01h47.86v13.01h-16.83Z"/>
      <path class="st1" d="M204.01,157.67v44.46h-14.11v-44.46h-16.92v-13.01h47.86v13.01h-16.83Z"/>
      <path class="st1" d="M240.73,166.85h25.16v12.16h-25.16v10.97h29.58v12.16h-43.35v-57.38h42.59v12.24h-28.82v9.86Z"/>
      <path class="st1" d="M278.97,144.75h23.72c13.18,0,21.76,7.31,21.76,18.19,0,8.59-5.27,14.88-13.77,17.26l14.71,21.93h-16.07l-13.77-20.91h-2.47v20.91h-14.11v-57.38ZM302.35,170.16c4.84,0,7.99-2.72,7.99-6.97s-3.15-6.8-7.99-6.8h-9.27v13.77h9.27Z"/>
      <path class="st1" d="M330.82,194.39l7.82-9.69c3.4,3.91,9.1,6.46,14.71,6.46,4.67,0,8.58-1.7,8.58-5.53,0-4.42-3.74-5.7-10.2-7.06-12.16-2.55-19.13-7.31-19.13-17.26,0-11.39,10.03-17.6,22.53-17.6,8.58,0,15.64,2.55,20.74,7.65l-7.57,9.44c-4.25-3.4-8.59-5.19-13.01-5.19s-7.82,1.53-7.82,5.02c0,3.23,2.72,4.76,9.78,6.38,12.75,2.8,19.64,8.33,19.64,18.53,0,11.39-10.12,17.6-23.8,17.6-9.27,0-17.43-3.66-22.27-8.76Z"/>
    </g>
  </g>
</svg>