<svg xmlns="http://www.w3.org/2000/svg" width="616.33" height="166.324" viewBox="0 0 616.33 166.324">
  <path id="Tracé_213724" data-name="Tracé 213724" d="M21.01.66a19.466,19.466,0,0,1-9.735-2.42A17.392,17.392,0,0,1,4.538-8.553,20.086,20.086,0,0,1,2.09-18.535a20.269,20.269,0,0,1,2.42-9.983,17.393,17.393,0,0,1,6.71-6.82,19.4,19.4,0,0,1,9.79-2.448,18.687,18.687,0,0,1,8.855,2.118,17.368,17.368,0,0,1,6.49,5.857l-6.49,5.005a10.227,10.227,0,0,0-3.713-3.382A10.333,10.333,0,0,0,21.23-29.37a9.788,9.788,0,0,0-5.087,1.32,9.144,9.144,0,0,0-3.492,3.768,12.231,12.231,0,0,0-1.265,5.692A12.231,12.231,0,0,0,12.65-12.9,9.144,9.144,0,0,0,16.142-9.13,9.788,9.788,0,0,0,21.23-7.81a10.5,10.5,0,0,0,5.088-1.238A9.832,9.832,0,0,0,30.03-12.6L36.465-7.37A17.543,17.543,0,0,1,30.03-1.513,18.645,18.645,0,0,1,21.01.66ZM52.58.605A15.262,15.262,0,0,1,45.1-1.21a13.192,13.192,0,0,1-5.17-5.06,14.383,14.383,0,0,1-1.87-7.315,14.234,14.234,0,0,1,1.87-7.288,13.248,13.248,0,0,1,5.17-5.032,15.262,15.262,0,0,1,7.48-1.815,15.148,15.148,0,0,1,7.425,1.815,13.248,13.248,0,0,1,5.17,5.032,14.127,14.127,0,0,1,1.87,7.233,14.383,14.383,0,0,1-1.87,7.315,13.386,13.386,0,0,1-5.17,5.088A14.968,14.968,0,0,1,52.58.605Zm.055-7.92A5.07,5.07,0,0,0,56.623-9.1a6.552,6.552,0,0,0,1.567-4.482,6.382,6.382,0,0,0-1.6-4.455A5.188,5.188,0,0,0,52.58-19.8a5.287,5.287,0,0,0-4.07,1.733,6.281,6.281,0,0,0-1.6,4.428A6.493,6.493,0,0,0,48.538-9.1,5.3,5.3,0,0,0,52.635-7.315Zm18.975-19.8h8.36l.22,3.3a9.607,9.607,0,0,1,3.272-2.86A9,9,0,0,1,87.78-27.72a8.808,8.808,0,0,1,4.455,1.073,7.8,7.8,0,0,1,2.97,3.052q2.7-4.125,8.415-4.125a8.515,8.515,0,0,1,6.737,2.778q2.447,2.778,2.448,7.727V0H104.06V-15.73a4.921,4.921,0,0,0-.908-3.163A3.1,3.1,0,0,0,100.6-20.02a3.547,3.547,0,0,0-2.915,1.375,5.286,5.286,0,0,0-1.1,3.41V0H87.835V-15.73a4.921,4.921,0,0,0-.908-3.163,3.036,3.036,0,0,0-2.5-1.127,3.624,3.624,0,0,0-2.943,1.375,5.2,5.2,0,0,0-1.128,3.41V0H71.61Zm46.805,0h8.36l.22,3.3a9.607,9.607,0,0,1,3.272-2.86,9,9,0,0,1,4.317-1.045,8.808,8.808,0,0,1,4.455,1.073,7.8,7.8,0,0,1,2.97,3.052q2.7-4.125,8.415-4.125a8.515,8.515,0,0,1,6.738,2.778q2.448,2.778,2.447,7.727V0h-8.745V-15.73a4.921,4.921,0,0,0-.907-3.163A3.1,3.1,0,0,0,147.4-20.02a3.547,3.547,0,0,0-2.915,1.375,5.286,5.286,0,0,0-1.1,3.41V0H134.64V-15.73a4.921,4.921,0,0,0-.908-3.163,3.036,3.036,0,0,0-2.5-1.127,3.624,3.624,0,0,0-2.942,1.375,5.2,5.2,0,0,0-1.128,3.41V0h-8.745Zm72.215.055v15.62a12.486,12.486,0,0,1-1.6,6.38,10.71,10.71,0,0,1-4.51,4.235A14.836,14.836,0,0,1,177.7.66a15.137,15.137,0,0,1-6.9-1.485,10.85,10.85,0,0,1-4.565-4.235,12.32,12.32,0,0,1-1.622-6.38V-27.06h8.855v15.62a4.428,4.428,0,0,0,1.155,3.19,4.059,4.059,0,0,0,3.08,1.21,3.9,3.9,0,0,0,3-1.21,4.491,4.491,0,0,0,1.128-3.19V-27.06Zm22.88,11.77a5.123,5.123,0,0,0-1.073-3.382,3.5,3.5,0,0,0-2.832-1.292,4.364,4.364,0,0,0-3.3,1.32,4.8,4.8,0,0,0-1.265,3.465V0h-8.745V-27.06h8.36l.22,3.025a9.929,9.929,0,0,1,3.383-2.7,9.282,9.282,0,0,1,4.152-.99,9.634,9.634,0,0,1,5.088,1.347,9.148,9.148,0,0,1,3.465,3.8A12.2,12.2,0,0,1,222.2-17V0h-8.69Zm14.355-11.825h8.745V0h-8.745Zm4.29-2.7a4.766,4.766,0,0,1-3.465-1.4,4.759,4.759,0,0,1-1.43-3.547,4.629,4.629,0,0,1,1.43-3.437,4.766,4.766,0,0,1,3.465-1.4,4.926,4.926,0,0,1,3.548,1.4,4.586,4.586,0,0,1,1.457,3.438,4.759,4.759,0,0,1-1.43,3.547A4.9,4.9,0,0,1,232.155-29.81ZM255.53.55a14.88,14.88,0,0,1-7.342-1.815A13.3,13.3,0,0,1,243.045-6.3a14.127,14.127,0,0,1-1.87-7.233,14.33,14.33,0,0,1,1.953-7.535,13.039,13.039,0,0,1,5.225-4.95,15.069,15.069,0,0,1,7.068-1.7,14.21,14.21,0,0,1,6.545,1.485,11.58,11.58,0,0,1,4.675,4.345l-5.83,4.84a8.075,8.075,0,0,0-2.255-2.09,5.1,5.1,0,0,0-2.7-.77,5.482,5.482,0,0,0-4.18,1.76,6.33,6.33,0,0,0-1.65,4.51,6.57,6.57,0,0,0,1.622,4.592A5.42,5.42,0,0,0,255.86-7.26a5.7,5.7,0,0,0,2.75-.715,6.83,6.83,0,0,0,2.255-1.98L266.64-5.28a12.8,12.8,0,0,1-4.675,4.29A13.354,13.354,0,0,1,255.53.55Zm30.195-4.51a8.445,8.445,0,0,1-3.382,3.328A10.074,10.074,0,0,1,277.365.605,8.856,8.856,0,0,1,270.9-1.678a8.4,8.4,0,0,1-2.337-6.3A7.153,7.153,0,0,1,271.315-14q2.75-2.118,7.7-2.117,3.685,0,6.05.22v-.165q0-4.235-4.84-4.235a11.262,11.262,0,0,0-6.985,2.2l-3.355-5.94a14.466,14.466,0,0,1,5.005-2.7,19.857,19.857,0,0,1,6.215-.99q6.325,0,9.46,3.053T293.7-15.84V0h-7.645Zm-9.13-4.9a2.264,2.264,0,0,0,.77,1.815,3.194,3.194,0,0,0,2.145.66,5.951,5.951,0,0,0,3.823-1.293,4.34,4.34,0,0,0,1.733-3.273q-2.035-.165-5.335-.165a3.846,3.846,0,0,0-2.31.6A1.937,1.937,0,0,0,276.6-8.855ZM309.87.605q-9.24,0-9.24-9.625V-19.635h-3.9V-27.06h3.9v-6.82h8.745v6.82h7.535v7.425h-7.535v9.57a3.109,3.109,0,0,0,.742,2.282,2.788,2.788,0,0,0,2.063.743,9.722,9.722,0,0,0,3.8-.715L317.24-.99A14.526,14.526,0,0,1,313.775.193,18.585,18.585,0,0,1,309.87.605Zm11.715-27.72h8.745V0h-8.745Zm4.29-2.7a4.766,4.766,0,0,1-3.465-1.4,4.759,4.759,0,0,1-1.43-3.547,4.629,4.629,0,0,1,1.43-3.437,4.766,4.766,0,0,1,3.465-1.4,4.926,4.926,0,0,1,3.548,1.4,4.586,4.586,0,0,1,1.457,3.438,4.759,4.759,0,0,1-1.43,3.547A4.9,4.9,0,0,1,325.875-29.81ZM349.415.605a15.262,15.262,0,0,1-7.48-1.815,13.192,13.192,0,0,1-5.17-5.06,14.383,14.383,0,0,1-1.87-7.315,14.234,14.234,0,0,1,1.87-7.288,13.248,13.248,0,0,1,5.17-5.032,15.262,15.262,0,0,1,7.48-1.815,15.148,15.148,0,0,1,7.425,1.815,13.248,13.248,0,0,1,5.17,5.032,14.127,14.127,0,0,1,1.87,7.233,14.383,14.383,0,0,1-1.87,7.315,13.386,13.386,0,0,1-5.17,5.088A14.968,14.968,0,0,1,349.415.605Zm.055-7.92A5.07,5.07,0,0,0,353.458-9.1a6.552,6.552,0,0,0,1.568-4.482,6.382,6.382,0,0,0-1.6-4.455,5.188,5.188,0,0,0-4.015-1.76,5.287,5.287,0,0,0-4.07,1.733,6.282,6.282,0,0,0-1.6,4.428A6.493,6.493,0,0,0,345.373-9.1,5.3,5.3,0,0,0,349.47-7.315Zm36.19-7.975a5.124,5.124,0,0,0-1.073-3.382,3.5,3.5,0,0,0-2.832-1.292,4.364,4.364,0,0,0-3.3,1.32,4.8,4.8,0,0,0-1.265,3.465V0h-8.745V-27.06h8.36l.22,3.025a9.928,9.928,0,0,1,3.383-2.7,9.282,9.282,0,0,1,4.152-.99,9.634,9.634,0,0,1,5.087,1.347,9.148,9.148,0,0,1,3.465,3.8A12.2,12.2,0,0,1,394.35-17V0h-8.69Zm28.05-11.825h8.36l.22,3.3a9.607,9.607,0,0,1,3.272-2.86,9,9,0,0,1,4.318-1.045,8.808,8.808,0,0,1,4.455,1.073,7.8,7.8,0,0,1,2.97,3.052Q440-27.72,445.72-27.72a8.515,8.515,0,0,1,6.738,2.778q2.447,2.778,2.447,7.727V0H446.16V-15.73a4.921,4.921,0,0,0-.908-3.163A3.1,3.1,0,0,0,442.7-20.02a3.547,3.547,0,0,0-2.915,1.375,5.286,5.286,0,0,0-1.1,3.41V0h-8.745V-15.73a4.921,4.921,0,0,0-.908-3.163,3.036,3.036,0,0,0-2.5-1.127,3.624,3.624,0,0,0-2.943,1.375,5.2,5.2,0,0,0-1.128,3.41V0H413.71ZM476.025-3.96a8.445,8.445,0,0,1-3.382,3.328A10.074,10.074,0,0,1,467.665.605,8.856,8.856,0,0,1,461.2-1.678a8.4,8.4,0,0,1-2.337-6.3A7.153,7.153,0,0,1,461.615-14q2.75-2.118,7.7-2.117,3.685,0,6.05.22v-.165q0-4.235-4.84-4.235a11.262,11.262,0,0,0-6.985,2.2l-3.355-5.94a14.466,14.466,0,0,1,5.005-2.7,19.857,19.857,0,0,1,6.215-.99q6.325,0,9.46,3.053T484-15.84V0h-7.645Zm-9.13-4.9a2.264,2.264,0,0,0,.77,1.815,3.194,3.194,0,0,0,2.145.66,5.951,5.951,0,0,0,3.823-1.293,4.34,4.34,0,0,0,1.733-3.273q-2.035-.165-5.335-.165a3.846,3.846,0,0,0-2.31.6A1.937,1.937,0,0,0,466.9-8.855ZM500.17.605q-9.24,0-9.24-9.625V-19.635h-3.9V-27.06h3.9v-6.82h8.745v6.82h7.535v7.425h-7.535v9.57a3.109,3.109,0,0,0,.742,2.282,2.788,2.788,0,0,0,2.063.743,9.722,9.722,0,0,0,3.8-.715L507.54-.99A14.526,14.526,0,0,1,504.075.193,18.585,18.585,0,0,1,500.17.605Zm24.09,0a15.286,15.286,0,0,1-7.315-1.733,12.773,12.773,0,0,1-5.115-4.95,14.671,14.671,0,0,1-1.87-7.507,14.572,14.572,0,0,1,1.815-7.288,13.017,13.017,0,0,1,5.033-5.032A14.572,14.572,0,0,1,524.1-27.72a13.085,13.085,0,0,1,6.985,1.76,10.946,10.946,0,0,1,4.262,4.73,15.263,15.263,0,0,1,1.4,6.6,13.614,13.614,0,0,1-.44,3.52H518.87a5.777,5.777,0,0,0,2.09,3.548,6.067,6.067,0,0,0,3.685,1.127,8.784,8.784,0,0,0,3.41-.687,12.5,12.5,0,0,0,2.97-1.733l4.345,4.84a14.7,14.7,0,0,1-4.9,3.355A15.442,15.442,0,0,1,524.26.605Zm4.235-17.05a5.256,5.256,0,0,0-1.513-3.3,4.526,4.526,0,0,0-3.217-1.155,4.55,4.55,0,0,0-3.19,1.155,5.933,5.933,0,0,0-1.705,3.3ZM541.31-27.06h8.2l.22,3.575a8.159,8.159,0,0,1,2.915-3.08,7.713,7.713,0,0,1,4.015-1.045,7.8,7.8,0,0,1,2.145.22v8.03q-1.54-.11-3.245-.11a5.124,5.124,0,0,0-4.1,1.76,7.828,7.828,0,0,0-1.512,5.225V0H541.31Zm21.34-.055H571.4V0H562.65Zm4.29-2.7a4.766,4.766,0,0,1-3.465-1.4,4.76,4.76,0,0,1-1.43-3.547,4.629,4.629,0,0,1,1.43-3.437,4.766,4.766,0,0,1,3.465-1.4,4.926,4.926,0,0,1,3.547,1.4,4.586,4.586,0,0,1,1.458,3.438,4.76,4.76,0,0,1-1.43,3.547A4.9,4.9,0,0,1,566.94-29.81ZM592.845-3.96a8.446,8.446,0,0,1-3.383,3.328A10.074,10.074,0,0,1,584.485.605a8.856,8.856,0,0,1-6.462-2.283,8.4,8.4,0,0,1-2.338-6.3A7.154,7.154,0,0,1,578.435-14q2.75-2.118,7.7-2.117,3.685,0,6.05.22v-.165q0-4.235-4.84-4.235a11.262,11.262,0,0,0-6.985,2.2l-3.355-5.94a14.466,14.466,0,0,1,5.005-2.7,19.857,19.857,0,0,1,6.215-.99q6.325,0,9.46,3.053t3.135,8.827V0h-7.645Zm-9.13-4.9a2.264,2.264,0,0,0,.77,1.815,3.194,3.194,0,0,0,2.145.66,5.951,5.951,0,0,0,3.823-1.293,4.34,4.34,0,0,0,1.732-3.273q-2.035-.165-5.335-.165a3.846,3.846,0,0,0-2.31.6A1.937,1.937,0,0,0,583.715-8.855Zm33.66,8.91a15.439,15.439,0,0,1-3.41.385q-4.235,0-6.133-2.09t-1.9-6.875V-39.6h8.8V-9.075a2.03,2.03,0,0,0,.33,1.348,1.442,1.442,0,0,0,1.1.358h1.155ZM18.205,54.04a8.445,8.445,0,0,1-3.383,3.327A10.074,10.074,0,0,1,9.845,58.6a8.856,8.856,0,0,1-6.463-2.283,8.4,8.4,0,0,1-2.338-6.3A7.153,7.153,0,0,1,3.8,44q2.75-2.118,7.7-2.117,3.685,0,6.05.22V41.94q0-4.235-4.84-4.235A11.262,11.262,0,0,0,5.72,39.9l-3.355-5.94a14.465,14.465,0,0,1,5.005-2.7,19.857,19.857,0,0,1,6.215-.99q6.325,0,9.46,3.053T26.18,42.16V58H18.535Zm-9.13-4.9a2.264,2.264,0,0,0,.77,1.815,3.194,3.194,0,0,0,2.145.66,5.951,5.951,0,0,0,3.823-1.292,4.34,4.34,0,0,0,1.732-3.272q-2.035-.165-5.335-.165a3.846,3.846,0,0,0-2.31.6A1.937,1.937,0,0,0,9.075,49.145Zm39.1,9.46a11.036,11.036,0,0,1-4.455-.935,9.568,9.568,0,0,1-3.41-2.365L40.15,58H31.79V18.4h8.745V33.25A9.323,9.323,0,0,1,43.863,31.1a11.377,11.377,0,0,1,4.262-.825A11.717,11.717,0,0,1,54.588,32.1a12.145,12.145,0,0,1,4.4,5.032,16.3,16.3,0,0,1,1.567,7.233,16.6,16.6,0,0,1-1.567,7.315,12.372,12.372,0,0,1-4.373,5.088A11.455,11.455,0,0,1,48.18,58.6Zm-1.98-7.92A4.989,4.989,0,0,0,50.16,48.9,6.7,6.7,0,0,0,51.7,44.36,6.519,6.519,0,0,0,50.16,39.9a5.022,5.022,0,0,0-3.96-1.76,5.249,5.249,0,0,0-4.07,1.76,6.458,6.458,0,0,0-1.6,4.51,6.458,6.458,0,0,0,1.6,4.51A5.249,5.249,0,0,0,46.2,50.685ZM77.935,58.6a15.262,15.262,0,0,1-7.48-1.815,13.192,13.192,0,0,1-5.17-5.06,14.383,14.383,0,0,1-1.87-7.315,14.234,14.234,0,0,1,1.87-7.288,13.248,13.248,0,0,1,5.17-5.032,16.208,16.208,0,0,1,14.9,0,13.248,13.248,0,0,1,5.17,5.032A14.127,14.127,0,0,1,92.4,44.36a14.383,14.383,0,0,1-1.87,7.315,13.386,13.386,0,0,1-5.17,5.088A14.968,14.968,0,0,1,77.935,58.6Zm.055-7.92A5.07,5.07,0,0,0,81.978,48.9a6.552,6.552,0,0,0,1.567-4.482,6.382,6.382,0,0,0-1.6-4.455,5.188,5.188,0,0,0-4.015-1.76,5.287,5.287,0,0,0-4.07,1.733A6.281,6.281,0,0,0,72.27,44.36,6.493,6.493,0,0,0,73.893,48.9,5.3,5.3,0,0,0,77.99,50.685ZM122.375,30.94V46.56a12.486,12.486,0,0,1-1.6,6.38,10.71,10.71,0,0,1-4.51,4.235,14.836,14.836,0,0,1-6.82,1.485,15.137,15.137,0,0,1-6.9-1.485,10.85,10.85,0,0,1-4.565-4.235,12.32,12.32,0,0,1-1.622-6.38V30.94h8.855V46.56a4.428,4.428,0,0,0,1.155,3.19,4.059,4.059,0,0,0,3.08,1.21,3.9,3.9,0,0,0,3-1.21,4.491,4.491,0,0,0,1.128-3.19V30.94ZM139.37,58.6q-9.24,0-9.24-9.625V38.365h-3.905V30.94h3.905V24.12h8.745v6.82h7.535v7.425h-7.535v9.57a3.109,3.109,0,0,0,.742,2.283,2.788,2.788,0,0,0,2.063.743,9.722,9.722,0,0,0,3.795-.715l1.265,6.765a14.527,14.527,0,0,1-3.465,1.183A18.585,18.585,0,0,1,139.37,58.6Zm36.52,0q-9.24,0-9.24-9.625V38.365h-3.9V30.94h3.9V24.12h8.745v6.82h7.535v7.425h-7.535v9.57a3.109,3.109,0,0,0,.742,2.283,2.788,2.788,0,0,0,2.063.743,9.722,9.722,0,0,0,3.795-.715l1.265,6.765a14.527,14.527,0,0,1-3.465,1.183A18.585,18.585,0,0,1,175.89,58.6Zm28.93-15.9a5.124,5.124,0,0,0-1.073-3.382,3.5,3.5,0,0,0-2.832-1.292,4.412,4.412,0,0,0-3.3,1.292,4.557,4.557,0,0,0-1.265,3.327V58H187.6V18.4h8.745V33.745a9.55,9.55,0,0,1,3.3-2.557,9.429,9.429,0,0,1,4.07-.908,9.634,9.634,0,0,1,5.088,1.347,9.148,9.148,0,0,1,3.465,3.8A12.2,12.2,0,0,1,213.51,41V58h-8.69Zm26.95,15.9a15.285,15.285,0,0,1-7.315-1.732,12.773,12.773,0,0,1-5.115-4.95,14.671,14.671,0,0,1-1.87-7.507,14.572,14.572,0,0,1,1.815-7.288,13.017,13.017,0,0,1,5.033-5.032A14.572,14.572,0,0,1,231.6,30.28a13.085,13.085,0,0,1,6.985,1.76,10.946,10.946,0,0,1,4.262,4.73,15.263,15.263,0,0,1,1.4,6.6,13.614,13.614,0,0,1-.44,3.52H226.38a5.777,5.777,0,0,0,2.09,3.548,6.067,6.067,0,0,0,3.685,1.127,8.784,8.784,0,0,0,3.41-.687,12.5,12.5,0,0,0,2.97-1.732l4.345,4.84a14.7,14.7,0,0,1-4.895,3.355A15.442,15.442,0,0,1,231.77,58.6ZM236,41.555a5.256,5.256,0,0,0-1.512-3.3,5.021,5.021,0,0,0-6.408,0,5.933,5.933,0,0,0-1.705,3.3Zm35.97-6.38h16.28V43.04h-16.28v7.095h19.14V58h-28.05V20.875H290.62v7.92H271.975Zm40.15,23.43a17.791,17.791,0,0,1-8.36-1.87,13.355,13.355,0,0,1-5.528-5.28,15.772,15.772,0,0,1-1.952-7.975V20.82h9.13V43.48a6.541,6.541,0,0,0,1.815,4.84,7.508,7.508,0,0,0,9.79,0,6.541,6.541,0,0,0,1.815-4.84V20.82h9.02V43.48a15.772,15.772,0,0,1-1.953,7.975,13.4,13.4,0,0,1-5.5,5.28A17.5,17.5,0,0,1,312.125,58.6Zm21.34-25.355-.77-14.85h7.26l-.77,14.85ZM351.78,58.6a17.667,17.667,0,0,1-6.49-1.182,14.122,14.122,0,0,1-5.06-3.272l4.07-5.28a12.126,12.126,0,0,0,3.658,2.283,10.48,10.48,0,0,0,3.878.8,4.653,4.653,0,0,0,2.2-.468,1.544,1.544,0,0,0,.88-1.457,1.814,1.814,0,0,0-.99-1.6,12.256,12.256,0,0,0-3.355-1.155q-4.95-1.21-7.068-3a6.289,6.289,0,0,1-2.117-5.088,7.866,7.866,0,0,1,1.485-4.812,9.341,9.341,0,0,1,3.932-3.052,13.515,13.515,0,0,1,5.362-1.045q6.435,0,10.285,3.63l-3.74,5.39a21.119,21.119,0,0,0-3.3-1.76,7.952,7.952,0,0,0-3.025-.605,3.528,3.528,0,0,0-2.062.5,1.548,1.548,0,0,0-.687,1.32,1.723,1.723,0,0,0,.825,1.458,10.515,10.515,0,0,0,3.355,1.127,16.234,16.234,0,0,1,7.1,3.025,6.729,6.729,0,0,1,2.31,5.39,7.56,7.56,0,0,1-3.245,6.545A13.785,13.785,0,0,1,351.78,58.6ZM14.025,116.055a15.438,15.438,0,0,1-3.41.385q-4.235,0-6.132-2.09t-1.9-6.875V76.4h8.8v30.525a2.03,2.03,0,0,0,.33,1.347,1.442,1.442,0,0,0,1.1.357H13.97Zm17.49.55a15.262,15.262,0,0,1-7.48-1.815,13.192,13.192,0,0,1-5.17-5.06,14.383,14.383,0,0,1-1.87-7.315,14.234,14.234,0,0,1,1.87-7.287,13.248,13.248,0,0,1,5.17-5.033,15.262,15.262,0,0,1,7.48-1.815A15.148,15.148,0,0,1,38.94,90.1a13.248,13.248,0,0,1,5.17,5.033,14.127,14.127,0,0,1,1.87,7.232,14.383,14.383,0,0,1-1.87,7.315,13.386,13.386,0,0,1-5.17,5.087A14.968,14.968,0,0,1,31.515,116.605Zm.055-7.92a5.07,5.07,0,0,0,3.988-1.787,6.552,6.552,0,0,0,1.567-4.482,6.382,6.382,0,0,0-1.6-4.455,5.188,5.188,0,0,0-4.015-1.76,5.287,5.287,0,0,0-4.07,1.732,6.282,6.282,0,0,0-1.595,4.428,6.493,6.493,0,0,0,1.622,4.537A5.3,5.3,0,0,0,31.57,108.685Zm36.19-7.975a5.124,5.124,0,0,0-1.073-3.382,3.5,3.5,0,0,0-2.832-1.292,4.364,4.364,0,0,0-3.3,1.32,4.8,4.8,0,0,0-1.265,3.465V116H50.545V88.94H58.9l.22,3.025a9.929,9.929,0,0,1,3.382-2.695,9.282,9.282,0,0,1,4.153-.99,9.634,9.634,0,0,1,5.087,1.348,9.148,9.148,0,0,1,3.465,3.795A12.2,12.2,0,0,1,76.45,99v17H67.76Zm25.85,26.015a17.34,17.34,0,0,1-6.9-1.4,15.325,15.325,0,0,1-5.308-3.6l4.455-5.335a9.64,9.64,0,0,0,3.327,2.145,11.215,11.215,0,0,0,4.153.77,7.091,7.091,0,0,0,5-1.678,6.6,6.6,0,0,0,1.815-5.087V111.6a10.3,10.3,0,0,1-7.315,2.97,12.1,12.1,0,0,1-10.808-6.408,13.809,13.809,0,0,1-1.622-6.682A14.279,14.279,0,0,1,82,94.715a11.977,11.977,0,0,1,4.372-4.73,11.793,11.793,0,0,1,6.3-1.705,10.983,10.983,0,0,1,7.59,2.805l.275-2.2h8.47V112.59a14.256,14.256,0,0,1-1.952,7.59,12.683,12.683,0,0,1-5.417,4.868A18.221,18.221,0,0,1,93.61,126.725Zm.99-19.635a5.564,5.564,0,0,0,4.07-1.567,5.353,5.353,0,0,0,1.6-3.987,5.263,5.263,0,0,0-1.6-3.96,5.619,5.619,0,0,0-4.07-1.54A5.022,5.022,0,0,0,90.832,97.6a5.437,5.437,0,0,0-1.513,3.933,5.532,5.532,0,0,0,1.513,3.96A4.979,4.979,0,0,0,94.6,107.09Zm18.425-3.135V97.08h21.12v6.875Zm36.795,12.65q-9.24,0-9.24-9.625V96.365h-3.9V88.94h3.9V82.12h8.745v6.82h7.535v7.425h-7.535v9.57a3.109,3.109,0,0,0,.743,2.283,2.788,2.788,0,0,0,2.063.743,9.722,9.722,0,0,0,3.795-.715l1.265,6.765a14.527,14.527,0,0,1-3.465,1.182A18.585,18.585,0,0,1,149.82,116.605Zm24.09,0a15.285,15.285,0,0,1-7.315-1.733,12.773,12.773,0,0,1-5.115-4.95,15.772,15.772,0,0,1-.055-14.795,13.017,13.017,0,0,1,5.033-5.033,14.572,14.572,0,0,1,7.288-1.815,13.085,13.085,0,0,1,6.985,1.76,10.946,10.946,0,0,1,4.262,4.73,15.263,15.263,0,0,1,1.4,6.6,13.614,13.614,0,0,1-.44,3.52H168.52a5.777,5.777,0,0,0,2.09,3.548,6.067,6.067,0,0,0,3.685,1.128,8.784,8.784,0,0,0,3.41-.687,12.5,12.5,0,0,0,2.97-1.733l4.345,4.84a14.7,14.7,0,0,1-4.895,3.355A15.442,15.442,0,0,1,173.91,116.605Zm4.235-17.05a5.256,5.256,0,0,0-1.512-3.3,5.021,5.021,0,0,0-6.408,0,5.933,5.933,0,0,0-1.705,3.3ZM190.96,88.94h8.2l.22,3.575a8.159,8.159,0,0,1,2.915-3.08A7.713,7.713,0,0,1,206.3,88.39a7.8,7.8,0,0,1,2.145.22v8.03q-1.54-.11-3.245-.11a5.124,5.124,0,0,0-4.1,1.76,7.828,7.828,0,0,0-1.512,5.225V116H190.96Zm21.285-.055h8.36l.22,3.3a9.607,9.607,0,0,1,3.273-2.86,9,9,0,0,1,4.318-1.045,8.808,8.808,0,0,1,4.455,1.073,7.8,7.8,0,0,1,2.97,3.052q2.7-4.125,8.415-4.125a8.515,8.515,0,0,1,6.738,2.777q2.448,2.778,2.447,7.728V116H244.7V100.27a4.921,4.921,0,0,0-.908-3.162,3.1,3.1,0,0,0-2.557-1.128,3.547,3.547,0,0,0-2.915,1.375,5.286,5.286,0,0,0-1.1,3.41V116H228.47V100.27a4.921,4.921,0,0,0-.908-3.162,3.036,3.036,0,0,0-2.5-1.128,3.624,3.624,0,0,0-2.942,1.375,5.2,5.2,0,0,0-1.128,3.41V116h-8.745Zm76.89,27.72a11.036,11.036,0,0,1-4.455-.935,9.567,9.567,0,0,1-3.41-2.365L281.105,116h-8.36V76.4h8.745V91.25a9.322,9.322,0,0,1,3.327-2.145,11.377,11.377,0,0,1,4.263-.825,11.717,11.717,0,0,1,6.462,1.815,12.145,12.145,0,0,1,4.4,5.033,16.3,16.3,0,0,1,1.568,7.232,16.6,16.6,0,0,1-1.568,7.315,12.373,12.373,0,0,1-4.372,5.087A11.455,11.455,0,0,1,289.135,116.605Zm-1.98-7.92a4.989,4.989,0,0,0,3.96-1.787,6.7,6.7,0,0,0,1.54-4.537,6.519,6.519,0,0,0-1.54-4.455,5.022,5.022,0,0,0-3.96-1.76,5.249,5.249,0,0,0-4.07,1.76,7.174,7.174,0,0,0,0,9.02A5.249,5.249,0,0,0,287.155,108.685Zm44.33-19.745v15.62a12.486,12.486,0,0,1-1.6,6.38,10.71,10.71,0,0,1-4.51,4.235,14.836,14.836,0,0,1-6.82,1.485,15.137,15.137,0,0,1-6.9-1.485,10.85,10.85,0,0,1-4.565-4.235,12.32,12.32,0,0,1-1.622-6.38V88.94h8.855v15.62a4.428,4.428,0,0,0,1.155,3.19,4.059,4.059,0,0,0,3.08,1.21,3.9,3.9,0,0,0,3-1.21,4.491,4.491,0,0,0,1.128-3.19V88.94Zm16.39,27.665a11.588,11.588,0,0,1-6.462-1.843,12.3,12.3,0,0,1-4.4-5.087,16.6,16.6,0,0,1-1.568-7.315,16.3,16.3,0,0,1,1.568-7.232A12.078,12.078,0,0,1,341.44,90.1a11.854,11.854,0,0,1,6.49-1.815,11.169,11.169,0,0,1,4.235.825,9.364,9.364,0,0,1,3.3,2.145V76.4h8.745V116h-8.2l-.22-3.19a9.681,9.681,0,0,1-3.437,2.75A10,10,0,0,1,347.875,116.605Zm1.98-7.92a5.188,5.188,0,0,0,4.015-1.76,7.135,7.135,0,0,0,0-8.993,5.152,5.152,0,0,0-4.015-1.787,5.082,5.082,0,0,0-4.015,1.76,6.519,6.519,0,0,0-1.54,4.455,6.7,6.7,0,0,0,1.54,4.537A5.048,5.048,0,0,0,349.855,108.685Zm32.12,18.04a17.34,17.34,0,0,1-6.9-1.4,15.325,15.325,0,0,1-5.307-3.6l4.455-5.335a9.64,9.64,0,0,0,3.328,2.145,11.215,11.215,0,0,0,4.152.77,7.091,7.091,0,0,0,5.005-1.678,6.6,6.6,0,0,0,1.815-5.087V111.6a10.3,10.3,0,0,1-7.315,2.97,12.1,12.1,0,0,1-10.808-6.408,13.809,13.809,0,0,1-1.622-6.682,14.279,14.279,0,0,1,1.6-6.765,11.977,11.977,0,0,1,4.372-4.73,11.793,11.793,0,0,1,6.3-1.705,10.983,10.983,0,0,1,7.59,2.805l.275-2.2h8.47V112.59a14.256,14.256,0,0,1-1.952,7.59,12.683,12.683,0,0,1-5.418,4.868A18.221,18.221,0,0,1,381.975,126.725Zm.99-19.635a5.564,5.564,0,0,0,4.07-1.567,5.353,5.353,0,0,0,1.6-3.987,5.263,5.263,0,0,0-1.6-3.96,5.619,5.619,0,0,0-4.07-1.54A5.022,5.022,0,0,0,379.2,97.6a5.437,5.437,0,0,0-1.513,3.933,5.532,5.532,0,0,0,1.513,3.96A4.979,4.979,0,0,0,382.965,107.09Zm33.275,9.515a15.285,15.285,0,0,1-7.315-1.733,12.773,12.773,0,0,1-5.115-4.95,15.772,15.772,0,0,1-.055-14.795,13.017,13.017,0,0,1,5.033-5.033,14.572,14.572,0,0,1,7.288-1.815,13.085,13.085,0,0,1,6.985,1.76,10.946,10.946,0,0,1,4.263,4.73,15.263,15.263,0,0,1,1.4,6.6,13.614,13.614,0,0,1-.44,3.52H410.85a5.777,5.777,0,0,0,2.09,3.548,6.067,6.067,0,0,0,3.685,1.128,8.784,8.784,0,0,0,3.41-.687,12.5,12.5,0,0,0,2.97-1.733l4.345,4.84a14.705,14.705,0,0,1-4.895,3.355A15.442,15.442,0,0,1,416.24,116.605Zm4.235-17.05a5.256,5.256,0,0,0-1.512-3.3,5.021,5.021,0,0,0-6.408,0,5.933,5.933,0,0,0-1.705,3.3Zm23.925,17.05q-9.24,0-9.24-9.625V96.365h-3.9V88.94h3.9V82.12H443.9v6.82h7.535v7.425H443.9v9.57a3.109,3.109,0,0,0,.742,2.283,2.788,2.788,0,0,0,2.063.743,9.722,9.722,0,0,0,3.8-.715l1.265,6.765a14.526,14.526,0,0,1-3.465,1.182A18.585,18.585,0,0,1,444.4,116.605Z" transform="translate(-1.045 39.6)" fill="#024ea2"/>
</svg>
