<?xml version="1.0" encoding="utf-8"?>
<!-- Generator: Adobe Illustrator 28.2.0, SVG Export Plug-In . SVG Version: 6.00 Build 0)  -->
<svg version="1.1" id="Layer_1" xmlns="http://www.w3.org/2000/svg" xmlns:xlink="http://www.w3.org/1999/xlink" x="0px" y="0px"
	 viewBox="0 0 1409.6 623.9" style="enable-background:new 0 0 1409.6 623.9;" xml:space="preserve">
<style type="text/css">
	.st0{fill:#FFFFFF;}
	.st1{fill:#65E2FF;}
</style>
<path class="st0" d="M25.7,170.2c-9.7-9.7-14.5-22.8-14.5-39.4V8.6h35.9v122.1c0,6.8,1.6,12.2,4.9,16.1s7.6,5.9,13.1,5.9
	s9.8-2,13.1-5.9c3.2-3.9,4.9-9.3,4.9-16.2V8.6h35.6v122.3c0,16.6-4.8,29.7-14.5,39.4s-22.7,14.5-39.1,14.5S35.4,179.9,25.7,170.2z"
	/>
<path class="st0" d="M134.6,172.9l8.2-30c4.1,3.1,8.6,5.5,13.3,7.2c4.8,1.7,9.5,2.6,14.1,2.6c6.5,0,11.5-1.5,15.1-4.5
	c3.6-3,5.4-7.5,5.4-13.5c0-4.6-1.8-9-5.3-13.2c-3.5-4.2-8.8-9-15.8-14.5c-9.9-7.2-17.8-15-23.7-23.5s-8.9-17.9-8.9-28.3
	c0-15.4,4.4-27.4,13.2-36.2c8.8-8.7,21-13.1,36.5-13.1c6.5,0,13.2,0.9,20.1,2.7s12.9,4.2,17.8,7.3l-7.9,30.5
	c-7.9-5.5-15.6-8.2-23.3-8.2c-5.8,0-10.4,1.5-13.7,4.5c-3.3,3-5,7.3-5,13c0,4.5,1.8,8.8,5.3,13.1c3.5,4.3,8.7,9,15.5,14.1
	c10.4,7.5,18.6,15.6,24.4,24.1c5.8,8.6,8.7,18.6,8.7,30.3c0,14.5-4.7,26.1-14.1,34.7c-9.4,8.6-21.9,12.9-37.4,12.9
	S148.1,180.9,134.6,172.9L134.6,172.9z"/>
<path class="st0" d="M281.2,78.6h44.9v31h-44.9v39.7h54.1v32.6h-89.7V8.8h88.2v32.6h-52.6L281.2,78.6L281.2,78.6z"/>
<path class="st0" d="M416.4,8.6l19.7,77.9l19.2-77.9H493l-39.2,119v54.4h-35.9v-53.6L378.7,8.6H416.4z"/>
<path class="st0" d="M518.4,161.8c-10.9-15.5-16.4-37.6-16.4-66.3s5.4-50,16.1-65.9C528.9,13.7,544,5.7,563.5,5.7
	s33.9,7.7,44.9,23.1c10.9,15.4,16.4,37.4,16.4,66.1s-5.4,50.3-16.2,66.1C597.9,177,582.8,185,563.5,185S529.3,177.2,518.4,161.8
	L518.4,161.8z M581.6,136.6c4.4-9.1,6.5-22.9,6.5-41.2s-2.1-31.8-6.4-41.2c-4.3-9.3-10.3-14-18.2-14s-13.9,4.6-18.2,13.7
	c-4.3,9.2-6.4,22.9-6.4,41.2s2.1,31.4,6.3,40.9s10.3,14.2,18.3,14.2S577.2,145.8,581.6,136.6L581.6,136.6z"/>
<path class="st0" d="M658.8,170.2c-9.7-9.7-14.5-22.8-14.5-39.4V8.6h35.9v122.1c0,6.8,1.6,12.2,4.9,16.1s7.6,5.9,13.1,5.9
	s9.8-2,13.1-5.9c3.2-3.9,4.9-9.3,4.9-16.2V8.6h35.6v122.3c0,16.6-4.8,29.7-14.5,39.4s-22.7,14.5-39.1,14.5S668.4,179.9,658.8,170.2
	L658.8,170.2z"/>
<path class="st0" d="M776.1,8.8h47.7c17.3,0,31,5,41.3,15.1c10.3,10.1,15.4,24.2,15.4,42.3c0,12-2.2,22.3-6.5,31
	s-10.7,15.5-19.1,20.3l27.2,64.4h-37.7l-22.8-57.2H812v57.2h-35.9L776.1,8.8L776.1,8.8z M823.3,93.4c6.7,0,12-2.3,15.9-6.9
	c3.9-4.6,5.9-11.3,5.9-20c0-8-1.9-14.4-5.8-19.1c-3.8-4.7-9.3-7-16.3-7h-11v53.1L823.3,93.4L823.3,93.4z"/>
<path class="st0" d="M923.8,8.8h36.7l23.1,128.7h0.3l23.1-128.7h36.4l-37.7,173.1h-44.4L923.8,8.8z"/>
<path class="st0" d="M1069.9,161.8c-10.9-15.5-16.4-37.6-16.4-66.3s5.4-50,16.2-65.9s25.9-23.9,45.4-23.9s33.9,7.7,44.9,23.1
	c10.9,15.4,16.4,37.4,16.4,66.1s-5.4,50.3-16.2,66.1c-10.8,15.9-25.8,23.9-45.1,23.9S1080.9,177.2,1069.9,161.8L1069.9,161.8z
	 M1133.1,136.6c4.4-9.1,6.5-22.9,6.5-41.2s-2.1-31.8-6.4-41.2s-10.3-14-18.2-14s-13.9,4.6-18.2,13.7c-4.3,9.2-6.4,22.9-6.4,41.2
	s2.1,31.4,6.3,40.9c4.2,9.5,10.3,14.2,18.3,14.2S1128.8,145.8,1133.1,136.6L1133.1,136.6z"/>
<path class="st0" d="M1254,41.9v140h-35.9v-140h-31.3V8.6h98.5v33.3H1254L1254,41.9z"/>
<path class="st0" d="M1335.6,78.6h44.9v31h-44.9v39.7h54.1v32.6h-89.7V8.8h88.2v32.6h-52.6L1335.6,78.6L1335.6,78.6z"/>
<path class="st1" d="M23.6,379.5c-9.4-15.3-14.2-38.1-14.2-68.4S14,259,23.3,243.4S46.1,220,63.8,220s30.5,7.7,40,23
	c9.5,15.3,14.3,38,14.3,68.1s-4.7,52.2-14.2,67.9c-9.4,15.7-22.8,23.5-40.2,23.5S33,394.8,23.6,379.5L23.6,379.5z M92.4,311.1
	c0-45.5-9.5-68.3-28.6-68.3c-9.6,0-16.8,5.5-21.5,16.5c-4.7,11-7.1,28.3-7.1,51.7s2.3,40.3,7,51.6s11.9,16.9,21.7,16.9
	C82.8,379.7,92.4,356.8,92.4,311.1L92.4,311.1z"/>
<path class="st1" d="M145.2,222.6h35.7c16.4,0,29.5,4.9,39.1,14.6c9.6,9.7,14.4,23.6,14.4,41.6c0,12.8-2.4,23.7-7.4,32.7
	c-4.9,9-12.1,15.5-21.5,19.6l30.2,68.8h-25.5l-27.8-64.1h-13.9v64.1h-23.4L145.2,222.6L145.2,222.6z M180.4,315.1
	c9.3,0,16.6-3.1,22.1-9.3c5.4-6.2,8.1-15.2,8.1-26.9c0-10.9-2.6-19.5-7.9-25.9c-5.2-6.4-12.7-9.6-22.3-9.6h-11.8v71.7H180.4
	L180.4,315.1z"/>
<path class="st1" d="M307.2,379.5c-9.5-15.3-14.2-38.1-14.2-68.4s4.6-52.2,13.9-67.8s22.8-23.4,40.4-23.4s30.5,7.7,40,23
	c9.5,15.3,14.3,38,14.3,68.1s-4.7,52.2-14.2,67.9c-9.5,15.7-22.9,23.5-40.2,23.5S316.7,394.8,307.2,379.5L307.2,379.5z M376,311.1
	c0-45.5-9.5-68.3-28.6-68.3c-9.6,0-16.8,5.5-21.5,16.5c-4.7,11-7.1,28.3-7.1,51.7s2.3,40.3,7,51.6c4.6,11.3,11.9,16.9,21.7,16.9
	C366.4,379.7,376,356.8,376,311.1L376,311.1z"/>
<path class="st1" d="M464.5,244.2v155.7h-23.6V244.2H408v-21.5h89v21.5L464.5,244.2L464.5,244.2z"/>
<path class="st1" d="M513.1,399.9V222.6H537v77.2h48.3v-77.2H610v177.2h-24.7v-77.7H537v77.7L513.1,399.9L513.1,399.9z"/>
<path class="st1" d="M663.8,298.8h48.1v21.3h-48.1v58.6h56.7v21.3h-80.1V222.6h78.8v21h-55.4L663.8,298.8L663.8,298.8z"/>
<path class="st1" d="M744.1,222.6h35.7c16.5,0,29.5,4.9,39.1,14.6c9.6,9.7,14.4,23.6,14.4,41.6c0,12.8-2.5,23.7-7.3,32.7
	c-4.9,9-12.1,15.5-21.5,19.6l30.2,68.8h-25.5l-27.8-64.1h-13.9v64.1h-23.4L744.1,222.6L744.1,222.6z M779.3,315.1
	c9.3,0,16.6-3.1,22.1-9.3c5.4-6.2,8.1-15.2,8.1-26.9c0-10.9-2.6-19.5-7.9-25.9c-5.2-6.4-12.7-9.6-22.3-9.6h-11.8v71.7H779.3z"/>
<path class="st1" d="M848.4,391.2l6-21.5c4.2,3.3,8.8,5.9,13.8,7.8s9.8,2.8,14.3,2.8c7.7,0,13.8-2.1,18.4-6.4
	c4.5-4.3,6.8-10.4,6.8-18.2c0-7.2-2-13.4-5.9-18.5s-10.3-11.6-19-19.3c-10.5-8.4-18.6-16.6-24.2-24.5c-5.6-8-8.4-17.1-8.4-27.4
	c0-14.4,3.9-25.6,11.8-33.6s18.5-12.1,32-12.1c5.4,0,11.2,0.9,17.2,2.6c6,1.8,11.8,4.3,17.2,7.6l-5.5,21.3c-8.8-6.1-17.4-9.2-26-9.2
	c-6.7,0-12,2-16,6s-6,9.7-6,17.1c0,6.1,2,11.9,5.9,17.3c3.9,5.4,9.9,11.5,18,18.4c11,8.8,19.3,17.2,25,25.5
	c5.6,8.2,8.4,18.2,8.4,29.9c0,14-4.2,25.2-12.6,33.5c-8.4,8.3-19.8,12.5-34.1,12.5C873.1,402.5,860.8,398.8,848.4,391.2L848.4,391.2
	z"/>
<path class="st1" d="M988.6,222.6h24.2l22.3,140l23.9-140h19.4l24.2,140l22.8-140h23.6l-32.6,177.3h-26.5l-21.3-118.4l-21.5,118.4
	h-26.5L988.6,222.6L988.6,222.6z"/>
<path class="st1" d="M1177.4,222.6h23.4v177.3h-23.4V222.6L1177.4,222.6z"/>
<path class="st1" d="M1234.4,222.6h24.2v155.7h49.6v21.5h-73.8V222.6L1234.4,222.6z"/>
<path class="st1" d="M1328.9,222.6h24.2v155.7h49.6v21.5h-73.8V222.6L1328.9,222.6z"/>
<path class="st1" d="M23.1,440.2h36.8c20.5,0,36.3,7.6,47.4,22.9c11.1,15.2,16.7,37,16.7,65.4c0,28.4-5.6,50.5-16.7,65.9
	c-11.1,15.4-26.9,23.1-47.4,23.1H23.1V440.2L23.1,440.2z M88.3,578.7c6.7-11.5,10.1-28.1,10.1-50c0-21.9-3.4-38.5-10.1-49.9
	s-16.6-17.1-29.5-17.1H46.4v134.2h12.3C71.7,595.9,81.6,590.2,88.3,578.7L88.3,578.7z"/>
<path class="st1" d="M173.8,516.3h48.1v21.3h-48.1v58.6h56.7v21.3h-80.1V440.2h78.8v21h-55.4V516.3L173.8,516.3z"/>
<path class="st1" d="M269.9,609.7c-8.9-6.9-15.9-17.2-20.7-30.8c-4.9-13.7-7.4-30.3-7.4-49.9c0-28.5,5.2-50.9,15.5-67.1
	c10.3-16.2,24.8-24.3,43.3-24.3c11.4,0,22.1,4.1,32.3,12.3l-6.8,20c-7.2-6.3-15.3-9.5-24.4-9.5c-10.9,0-19.3,5.6-25.2,16.7
	c-6,11.1-8.9,28.3-8.9,51.6c0,22.1,2.9,39,8.8,50.8c5.9,11.8,14.2,17.7,25.1,17.7c10,0,18.5-3.3,25.5-10l6.8,21
	c-3.3,3.5-7.8,6.3-13.5,8.5c-5.7,2.2-12,3.3-19,3.3C289.2,620,278.8,616.6,269.9,609.7L269.9,609.7z"/>
<path class="st1" d="M357.9,440.2h23.4v177.2h-23.4V440.2L357.9,440.2z"/>
<path class="st1" d="M414.9,440.2h36.8c20.5,0,36.3,7.6,47.4,22.9c11.1,15.2,16.7,37,16.7,65.4c0,28.4-5.6,50.5-16.7,65.9
	c-11.1,15.4-26.9,23.1-47.4,23.1h-36.8L414.9,440.2L414.9,440.2z M480.1,578.7c6.7-11.5,10.1-28.1,10.1-50
	c0-21.9-3.4-38.5-10.1-49.9s-16.6-17.1-29.5-17.1h-12.3v134.2h12.3C463.5,595.9,473.4,590.2,480.1,578.7L480.1,578.7z"/>
<path class="st1" d="M560.3,516.3h48.1v21.3h-48.1v58.6H617v21.3H537V440.2h78.8v21h-55.4L560.3,516.3L560.3,516.3z"/>
<path class="st1" d="M709.7,522.9h46.5v20.5h-46.5v74h-23.4V440.2h75.9v21h-52.5V522.9z"/>
<path class="st1" d="M787.5,597.1c-9.5-15.3-14.2-38.1-14.2-68.4c0-30.3,4.6-52.2,13.9-67.7c9.3-15.6,22.8-23.4,40.4-23.4
	s30.5,7.7,40,23c9.5,15.3,14.3,38,14.3,68.1c0,30.1-4.7,52.2-14.2,67.9c-9.5,15.7-22.8,23.5-40.2,23.5S796.9,612.4,787.5,597.1
	L787.5,597.1z M856.3,528.6c0-45.5-9.5-68.3-28.6-68.3c-9.6,0-16.8,5.5-21.5,16.5c-4.7,11-7.1,28.3-7.1,51.7s2.3,40.3,7,51.6
	s11.9,16.9,21.7,16.9C846.7,597.2,856.3,574.3,856.3,528.6L856.3,528.6z"/>
<path class="st1" d="M909,440.2h35.7c16.5,0,29.5,4.9,39.1,14.6c9.6,9.7,14.4,23.6,14.4,41.6c0,12.8-2.5,23.7-7.3,32.7
	c-4.9,9-12.1,15.5-21.5,19.6l30.2,68.8h-25.5l-27.8-64.1h-13.9v64.1h-23.4L909,440.2L909,440.2z M944.2,532.6
	c9.3,0,16.6-3.1,22.1-9.3c5.4-6.2,8.1-15.2,8.1-26.9c0-10.9-2.6-19.5-7.9-25.9c-5.2-6.4-12.7-9.6-22.3-9.6h-11.8v71.7H944.2z"/>
<path class="st1" d="M1074.7,440.2l25.5,90.9l25.5-90.9h24.9l-38.9,124.5v52.8h-23.4v-53.6L1050,440.2L1074.7,440.2L1074.7,440.2z"
	/>
<path class="st1" d="M1167.2,597.1c-9.4-15.3-14.2-38.1-14.2-68.4c0-30.3,4.6-52.2,13.9-67.7c9.3-15.6,22.8-23.4,40.4-23.4
	s30.5,7.7,40.1,23c9.5,15.3,14.3,38,14.3,68.1c0,30.1-4.7,52.2-14.2,67.9c-9.4,15.7-22.8,23.5-40.2,23.5S1176.6,612.4,1167.2,597.1
	L1167.2,597.1z M1236,528.6c0-45.5-9.5-68.3-28.6-68.3c-9.6,0-16.8,5.5-21.5,16.5c-4.7,11-7.1,28.3-7.1,51.7s2.3,40.3,7,51.6
	s11.9,16.9,21.7,16.9C1226.4,597.2,1236,574.3,1236,528.6L1236,528.6z"/>
<path class="st1" d="M1299.4,606.6c-8.3-8.9-12.5-21.1-12.5-36.5v-130h23.6v129.5c0,9.1,2.1,16.2,6.3,21.3c4.2,5.1,9.9,7.6,17.1,7.6
	s12.3-2.6,16.5-7.8c4.2-5.2,6.3-12.2,6.3-21.1V440.2h23.6v130c0,15.4-4.2,27.6-12.5,36.5c-8.3,8.9-19.7,13.4-34,13.4
	S1307.7,615.6,1299.4,606.6L1299.4,606.6z"/>
</svg>
