<?xml version="1.0" encoding="utf-8"?>
<!-- Generator: Adobe Illustrator 27.3.1, SVG Export Plug-In . SVG Version: 6.00 Build 0)  -->
<svg version="1.1" xmlns="http://www.w3.org/2000/svg" xmlns:xlink="http://www.w3.org/1999/xlink" x="0px" y="0px"
	 viewBox="0 0 1956.82 535.98" style="enable-background:new 0 0 1956.82 535.98;" xml:space="preserve">
<style type="text/css">
	.st0{fill:#FFFFFF;}
	.st1{fill:#0C4DA2;}
	.st2{fill:#FFF200;}
	.st3{fill:#D94397;}
</style>
<g id="Elements">
	<g>
		<rect x="1478.67" y="173.22" class="st0" width="355.48" height="237.17"/>
		<rect x="1483.33" y="177.88" class="st1" width="346.16" height="227.83"/>
		<polygon class="st2" points="1656.23,198.99 1659.61,209.51 1670.66,209.46 1661.68,215.92 1665.14,226.43 1656.23,219.89 
			1647.34,226.43 1650.79,215.92 1641.82,209.46 1652.85,209.51 		"/>
		<polygon class="st2" points="1656.23,357.2 1659.61,367.69 1670.66,367.64 1661.68,374.12 1665.14,384.61 1656.23,378.09 
			1647.34,384.61 1650.79,374.12 1641.82,367.64 1652.85,367.69 		"/>
		<polygon class="st2" points="1616.88,209.51 1620.25,220.03 1631.3,220 1622.36,226.44 1625.81,236.92 1616.88,230.39 
			1607.99,236.92 1611.44,226.44 1602.51,220 1613.54,220.03 		"/>
		<polygon class="st2" points="1587.94,238.56 1591.29,249.07 1602.34,249 1593.36,255.47 1596.81,265.95 1587.94,259.42 
			1579.03,265.95 1582.49,255.47 1573.48,249 1584.57,249.07 		"/>
		<polygon class="st2" points="1577.24,278.01 1580.58,288.51 1591.66,288.45 1582.69,294.92 1586.11,305.4 1577.24,298.87 
			1568.34,305.4 1571.81,294.92 1562.82,288.45 1573.87,288.51 		"/>
		<polygon class="st2" points="1587.8,317.46 1591.19,328.02 1602.2,327.93 1593.25,334.39 1596.73,344.87 1587.8,338.31 
			1578.9,344.87 1582.38,334.39 1573.39,327.94 1584.43,328.02 		"/>
		<polygon class="st2" points="1616.88,346.48 1620.25,357 1631.3,356.95 1622.36,363.39 1625.81,373.89 1616.88,367.37 
			1607.99,373.89 1611.44,363.39 1602.51,356.95 1613.54,357 		"/>
		<polygon class="st2" points="1695.63,209.51 1692.26,220.03 1681.2,220 1690.18,226.44 1686.71,236.92 1695.63,230.39 
			1704.52,236.92 1701.07,226.44 1710.03,220 1699.02,220.03 		"/>
		<polygon class="st2" points="1724.6,238.56 1721.23,249.07 1710.17,249 1719.14,255.47 1715.67,265.95 1724.6,259.42 
			1733.51,265.95 1730.05,255.47 1738.99,249 1727.95,249.07 		"/>
		<polygon class="st2" points="1735.29,278.01 1731.91,288.51 1720.85,288.45 1729.83,294.92 1726.36,305.4 1735.29,298.87 
			1744.19,305.4 1740.74,294.92 1749.68,288.45 1738.65,288.51 		"/>
		<polygon class="st2" points="1724.67,317.46 1721.34,328.02 1710.28,327.93 1719.28,334.39 1715.79,344.87 1724.67,338.31 
			1733.62,344.87 1730.16,334.39 1739.13,327.94 1728.08,328.02 		"/>
		<polygon class="st2" points="1695.63,346.48 1692.26,357 1681.2,356.95 1690.18,363.39 1686.71,373.89 1695.63,367.37 
			1704.52,373.89 1701.07,363.39 1710.03,356.95 1699.02,357 		"/>
	</g>
	<g>
		<path class="st0" d="M512.22,315.7H500.2l-3.97,13.95h-19.48l3.85-13.95h-8.66v-16.35h13.34l3.97-14.55h-11.42V268.7h15.99
			l4.21-15.03h19.6l-4.21,15.03h11.9l4.21-15.03h19.48l-4.21,15.03h9.86v16.11h-14.43l-3.97,14.55h12.38v16.35h-17.07l-3.85,13.95
			h-19.36L512.22,315.7z M516.79,299.35l4.09-14.55h-12.02l-4.09,14.55H516.79z"/>
		<path class="st0" d="M559.83,320.87l11.9-15.75c4.93,5.29,12.74,8.66,20.44,8.66c5.05,0,9.98-1.56,9.98-6.49
			c0-5.17-4.45-6.73-12.74-8.42c-17.31-3.49-27.29-10.34-27.29-24.77c0-16.59,15.03-25.61,32.82-25.61
			c12.38,0,22.48,3.49,29.82,10.7l-11.66,15.03c-6.25-4.69-12.14-6.85-17.91-6.85c-5.29,0-9.26,1.56-9.26,5.53
			c0,3.97,3.13,5.89,12.5,7.93c17.91,3.61,27.65,11.78,27.65,26.45c0,16.71-14.79,25.49-34.38,25.49
			C578.47,332.78,566.81,327.61,559.83,320.87z"/>
		<path class="st0" d="M629.67,316.91l35.83-47.85h-34.75v-19.12h64.32v14.31l-35.71,47.97h36.55v19h-66.24V316.91z"/>
		<path class="st0" d="M729.88,250.06h27.05l29.82,81.15H763.3l-5.05-14.79h-30.18l-5.05,14.79h-23.08L729.88,250.06z M743.1,272.78
			l-8.54,25.01h17.19l-8.54-25.01H743.1z"/>
		<path class="st0" d="M779.59,250.06h23.56l17.07,56.75h0.24l17.43-56.75h23.32l-27.53,81.15H807L779.59,250.06z"/>
		<path class="st0" d="M883.93,250.06h27.05l29.82,81.15h-23.44l-5.05-14.79h-30.18l-5.05,14.79H854L883.93,250.06z M897.16,272.78
			l-8.54,25.01h17.19l-8.54-25.01H897.16z"/>
		<path class="st0" d="M944.9,316.91l35.83-47.85h-34.74v-19.12h64.32v14.31l-35.71,47.97h36.55v19H944.9V316.91z"/>
		<path class="st0" d="M1017.47,316.91l35.83-47.85h-34.74v-19.12h64.32v14.31l-35.71,47.97h36.55v19h-66.24V316.91z"/>
		<path class="st0" d="M1162.82,270.74v60.47h-22.48v-60.47h-23.08v-20.8h68.53v20.8H1162.82z"/>
		<path class="st0" d="M1213.97,280.24h33.66v19.36h-33.66v12.26h39.79v19.36h-61.79v-81.15h60.71v19.48h-38.71V280.24z"/>
		<path class="st0" d="M1295.48,249.94h22.6v81.27h-22.6V249.94z"/>
		<path class="st0" d="M1327.25,320.87l11.9-15.75c4.93,5.29,12.74,8.66,20.44,8.66c5.05,0,9.98-1.56,9.98-6.49
			c0-5.17-4.45-6.73-12.74-8.42c-17.31-3.49-27.29-10.34-27.29-24.77c0-16.59,15.03-25.61,32.82-25.61
			c12.38,0,22.48,3.49,29.82,10.7l-11.66,15.03c-6.25-4.69-12.14-6.85-17.91-6.85c-5.29,0-9.26,1.56-9.26,5.53
			c0,3.97,3.13,5.89,12.5,7.93c17.91,3.61,27.65,11.78,27.65,26.45c0,16.71-14.79,25.49-34.38,25.49
			C1345.88,332.78,1334.22,327.61,1327.25,320.87z"/>
	</g>
	<path class="st0" d="M437.77,330.44L332.21,120.89L122.67,226.44l78.98,156.8h-53.76v22.64h288.41v-22.64H332.93L437.77,330.44z
		 M153.07,236.48l169.12-85.18l85.18,169.12l-124.75,62.84h-55.62L153.07,236.48z"/>
</g>
<g id="Clear_space">
</g>
</svg>
