<?xml version="1.0" encoding="utf-8"?>
<!-- Generator: Adobe Illustrator 27.3.1, SVG Export Plug-In . SVG Version: 6.00 Build 0)  -->
<svg version="1.1" xmlns="http://www.w3.org/2000/svg" xmlns:xlink="http://www.w3.org/1999/xlink" x="0px" y="0px"
	 viewBox="0 0 1581.79 535.98" style="enable-background:new 0 0 1581.79 535.98;" xml:space="preserve">
<style type="text/css">
	.st0{fill:#FFFFFF;}
	.st1{fill:#0C4DA2;}
	.st2{fill:#FFF200;}
	.st3{fill:#D94397;}
</style>
<g id="Elements">
	<g>
		<path class="st0" d="M513.19,196.48h-12.02l-3.97,13.95h-19.48l3.85-13.95h-8.66v-16.35h13.34l3.97-14.55H478.8v-16.11h15.99
			l4.21-15.03h19.6l-4.21,15.03h11.9l4.21-15.03h19.48l-4.21,15.03h9.86v16.11H541.2l-3.97,14.55h12.38v16.35h-17.07l-3.85,13.95
			h-19.36L513.19,196.48z M517.76,180.13l4.09-14.55h-12.02l-4.09,14.55H517.76z"/>
		<path class="st0" d="M566.55,130.84h37.99c17.31,0,28.25,7.57,28.25,20.56c0,8.42-4.57,15.15-12.5,18.27
			c9.14,2.77,15.27,9.5,15.27,19.84c0,14.07-11.06,22.48-30.18,22.48h-38.83V130.84z M601.9,162.7c5.41,0,8.78-2.52,8.78-6.85
			c0-4.45-3.37-6.97-8.9-6.97h-13.59v13.83H601.9z M603.7,193.96c6.25,0,9.74-2.77,9.74-7.45c0-4.57-3.61-7.21-9.62-7.21h-15.63
			v14.67H603.7z"/>
		<path class="st0" d="M646.09,130.84h34.74c18.88,0,31.26,10.46,31.26,26.33c0,11.9-6.85,20.68-18.27,24.41l19.96,30.42h-25.61
			L669.9,183.5h-1.32v28.49h-22.48V130.84z M680.24,166.06c5.65,0,9.38-3.37,9.38-8.54c0-4.93-3.73-8.3-9.38-8.3h-11.66v16.83
			H680.24z"/>
		<path class="st0" d="M721.07,180.25v-49.53h22.48v49.65c0,7.33,5.05,12.14,12.62,12.14c7.69,0,12.62-4.81,12.62-12.14v-49.65
			h22.36v49.53c0,19.96-13.95,33.18-34.98,33.18C734.89,213.43,721.07,200.21,721.07,180.25z"/>
		<path class="st0" d="M800.52,171.47c0-26.57,19.96-42.2,41.72-42.2c13.46,0,25.37,6.13,32.82,16.23l-15.39,12.86
			c-3.85-5.05-10.82-8.54-17.19-8.54c-9.74,0-19.36,6.61-19.36,21.76c0,14.19,8.78,21.64,19.12,21.64c8.29,0,14.79-4.33,17.67-10.82
			h-19.48v-17.55H883v0.12v6.25c0,24.53-16.47,42.32-40.76,42.32C818.19,213.55,800.52,196.72,800.52,171.47z"/>
		<path class="st0" d="M476.28,227.61h34.62c23.44,0,40.52,17.07,40.52,40.28c0,23.68-17.07,40.88-40.52,40.88h-34.62V227.61z
			 M528.46,268.01c0-11.3-7.81-19.72-18.51-19.72h-11.18v39.91h11.18C520.52,288.21,528.46,279.67,528.46,268.01z"/>
		<path class="st0" d="M562.02,227.49h22.6v81.27h-22.6V227.49z"/>
		<path class="st0" d="M598.95,227.49h20.44l30.42,43.28v-43.28h22.48v81.27h-19.96L621.2,264.4v44.36h-22.24V227.49z"/>
		<path class="st0" d="M471.95,395.2l11.9-15.75c4.93,5.29,12.74,8.66,20.44,8.66c5.05,0,9.98-1.56,9.98-6.49
			c0-5.17-4.45-6.73-12.74-8.42c-17.31-3.49-27.29-10.34-27.29-24.77c0-16.59,15.03-25.61,32.82-25.61
			c12.38,0,22.48,3.49,29.82,10.7l-11.66,15.03c-6.25-4.69-12.14-6.85-17.91-6.85c-5.29,0-9.26,1.56-9.26,5.53s3.13,5.89,12.5,7.93
			c17.91,3.61,27.65,11.78,27.65,26.45c0,16.71-14.79,25.49-34.38,25.49C490.58,407.1,478.92,401.93,471.95,395.2z"/>
		<path class="st0" d="M585.87,345.07v60.47h-22.48v-60.47h-23.08v-20.8h68.53v20.8H585.87z"/>
		<path class="st0" d="M637.03,354.57h33.66v19.36h-33.66v12.26h39.79v19.36h-61.79v-81.15h60.71v19.48h-38.71V354.57z"/>
		<path class="st0" d="M688.7,324.27h22l20.8,37.99l20.92-37.99h21.88v81.27h-22.6v-43.16l-16.71,31.02h-6.85l-16.95-31.02v43.16
			H688.7V324.27z"/>
		<path class="st0" d="M788.93,324.27h22l20.8,37.99l20.92-37.99h21.88v81.27h-22.6v-43.16l-16.71,31.02h-6.85l-16.95-31.02v43.16
			h-22.48V324.27z"/>
		<path class="st0" d="M911.17,354.57h33.66v19.36h-33.66v12.26h39.79v19.36h-61.79v-81.15h60.71v19.48h-38.71V354.57z"/>
	</g>
	<g>
		<rect x="1030.33" y="125.3" class="st0" width="428.8" height="286.08"/>
		<rect x="1035.96" y="130.93" class="st1" width="417.55" height="274.81"/>
		<polygon class="st2" points="1244.51,156.39 1248.59,169.08 1261.91,169.02 1251.08,176.81 1255.26,189.48 1244.51,181.6 
			1233.79,189.48 1237.96,176.81 1227.12,169.02 1240.44,169.08 		"/>
		<polygon class="st2" points="1244.51,347.22 1248.59,359.89 1261.91,359.82 1251.08,367.64 1255.26,380.3 1244.51,372.43 
			1233.79,380.3 1237.96,367.64 1227.12,359.82 1240.44,359.89 		"/>
		<polygon class="st2" points="1197.05,169.08 1201.11,181.77 1214.44,181.73 1203.65,189.5 1207.82,202.14 1197.05,194.27 
			1186.33,202.14 1190.48,189.5 1179.71,181.73 1193.02,181.77 		"/>
		<polygon class="st2" points="1162.13,204.12 1166.18,216.8 1179.51,216.71 1168.67,224.52 1172.84,237.17 1162.13,229.28 
			1151.39,237.17 1155.56,224.52 1144.7,216.71 1158.07,216.8 		"/>
		<polygon class="st2" points="1149.24,251.71 1153.27,264.37 1166.62,264.29 1155.81,272.11 1159.93,284.74 1149.24,276.87 
			1138.5,284.74 1142.68,272.11 1131.83,264.29 1145.16,264.37 		"/>
		<polygon class="st2" points="1161.97,299.29 1166.06,312.03 1179.34,311.92 1168.54,319.72 1172.74,332.36 1161.97,324.45 
			1151.23,332.36 1155.43,319.72 1144.58,311.94 1157.91,312.03 		"/>
		<polygon class="st2" points="1197.05,334.3 1201.11,346.99 1214.44,346.93 1203.65,354.7 1207.82,367.36 1197.05,359.5 
			1186.33,367.36 1190.48,354.7 1179.71,346.93 1193.02,346.99 		"/>
		<polygon class="st2" points="1292.03,169.08 1287.97,181.77 1274.63,181.73 1285.46,189.5 1281.28,202.14 1292.03,194.27 
			1302.76,202.14 1298.6,189.5 1309.41,181.73 1296.12,181.77 		"/>
		<polygon class="st2" points="1326.98,204.12 1322.92,216.8 1309.58,216.71 1320.39,224.52 1316.21,237.17 1326.98,229.28 
			1337.73,237.17 1333.55,224.52 1344.34,216.71 1331.03,216.8 		"/>
		<polygon class="st2" points="1339.88,251.71 1335.8,264.37 1322.46,264.29 1333.29,272.11 1329.11,284.74 1339.88,276.87 
			1350.62,284.74 1346.45,272.11 1357.23,264.29 1343.93,264.37 		"/>
		<polygon class="st2" points="1327.07,299.29 1323.05,312.03 1309.71,311.92 1320.56,319.72 1316.36,332.36 1327.07,324.45 
			1337.87,332.36 1333.69,319.72 1344.5,311.94 1331.18,312.03 		"/>
		<polygon class="st2" points="1292.03,334.3 1287.97,346.99 1274.63,346.93 1285.46,354.7 1281.28,367.36 1292.03,359.5 
			1302.76,367.36 1298.6,354.7 1309.41,346.93 1296.12,346.99 		"/>
	</g>
	<path class="st0" d="M437.77,330.15L332.21,120.6L122.67,226.15l78.98,156.8h-53.76v22.64h288.41v-22.64H332.93L437.77,330.15z
		 M153.07,236.18L322.18,151l85.18,169.12l-124.75,62.84h-55.62L153.07,236.18z"/>
</g>
<g id="Clear_space">
</g>
</svg>
