<?xml version="1.0" encoding="utf-8"?>
<!-- Generator: Adobe Illustrator 27.3.1, SVG Export Plug-In . SVG Version: 6.00 Build 0)  -->
<svg version="1.1" xmlns="http://www.w3.org/2000/svg" xmlns:xlink="http://www.w3.org/1999/xlink" x="0px" y="0px"
	 viewBox="0 0 1672.42 535.98" style="enable-background:new 0 0 1672.42 535.98;" xml:space="preserve">
<style type="text/css">
	.st0{fill:#FFFFFF;}
	.st1{fill:#0C4DA2;}
	.st2{fill:#FFF200;}
	.st3{fill:#D94397;}
</style>
<g id="Elements">
	<g>
		<g>
			<g>
				<path class="st0" d="M513.19,275.51h-12.02l-3.97,13.95h-19.48l3.85-13.95h-8.66v-16.35h13.34l3.97-14.55H478.8V228.5h15.99
					l4.21-15.03h19.6l-4.21,15.03h11.9l4.21-15.03h19.48l-4.21,15.03h9.86v16.11H541.2l-3.97,14.55h12.38v16.35h-17.07l-3.85,13.95
					h-19.36L513.19,275.51z M517.76,259.16l4.09-14.55h-12.02l-4.09,14.55H517.76z"/>
				<path class="st0" d="M557.16,209.87h23.56l17.07,56.75h0.24l17.43-56.75h23.32l-27.53,81.15h-26.69L557.16,209.87z"/>
				<path class="st0" d="M666.8,209.75l14.19,28.73l13.83-28.73h25.37l-28.13,51.34v29.94h-22.48v-30.3l-28.13-50.98H666.8z"/>
				<path class="st0" d="M725.56,259.28v-49.53h22.48v49.65c0,7.33,5.05,12.14,12.62,12.14c7.69,0,12.62-4.81,12.62-12.14v-49.65
					h22.36v49.53c0,19.96-13.95,33.18-34.98,33.18C739.39,292.46,725.56,279.24,725.56,259.28z"/>
				<path class="st0" d="M803.86,276.71l35.83-47.85h-34.75v-19.12h64.32v14.31l-35.71,47.97h36.55v19h-66.24V276.71z M814.32,193.4
					l4.45-10.22l18.03,6.73l18.39-6.73l4.45,10.22l-22.84,12.5L814.32,193.4z"/>
				<path class="st0" d="M880.85,209.75h22.6v81.27h-22.6V209.75z"/>
				<path class="st0" d="M909.88,275.75l17.79-9.98c1.8,3.85,5.29,5.77,9.38,5.77c5.41,0,8.9-3.85,8.9-9.86v-51.94h22.48v51.34
					c0,19.12-11.18,31.5-29.58,31.5C925.15,292.58,915.05,287.05,909.88,275.75z"/>
				<path class="st0" d="M1019.63,230.55v60.47h-22.48v-60.47h-23.08v-20.8h68.53v20.8H1019.63z"/>
				<path class="st0" d="M1070.78,240.05h33.66v19.36h-33.66v12.26h39.79v19.36h-61.79v-81.15h60.71v19.48h-38.71V240.05z"/>
				<path class="st0" d="M471.95,398.18l11.9-15.75c4.93,5.29,12.74,8.66,20.44,8.66c5.05,0,9.98-1.56,9.98-6.49
					c0-5.17-4.45-6.73-12.74-8.42c-17.31-3.49-27.29-10.34-27.29-24.77c0-16.59,15.03-25.61,32.82-25.61
					c12.38,0,22.48,3.49,29.82,10.7l-11.66,15.03c-6.25-4.69-12.14-6.85-17.91-6.85c-5.29,0-9.26,1.56-9.26,5.53
					c0,3.97,3.13,5.89,12.5,7.93c17.91,3.61,27.65,11.78,27.65,26.45c0,16.71-14.79,25.49-34.38,25.49
					C490.59,410.08,478.92,404.91,471.95,398.18z"/>
				<path class="st0" d="M538.94,327.37h23.56l17.07,56.75h0.24l17.43-56.75h23.32l-27.53,81.15h-26.69L538.94,327.37z"/>
				<path class="st0" d="M626.22,376.78v-49.53h22.48v49.65c0,7.33,5.05,12.14,12.62,12.14c7.69,0,12.62-4.81,12.62-12.14v-49.65
					h22.36v49.53c0,19.96-13.95,33.18-34.99,33.18C640.05,409.96,626.22,396.74,626.22,376.78z M646.42,311.62
					c0-7.69,4.69-11.18,15.03-11.18c10.34,0,15.03,3.49,15.03,11.18c0,7.57-4.69,10.82-15.03,10.82
					C651.11,322.44,646.42,319.19,646.42,311.62z M666.98,311.62c0-2.4-0.96-3.37-5.53-3.37s-5.53,0.96-5.53,3.37
					c0,2.16,0.96,3.13,5.53,3.13S666.98,313.78,666.98,311.62z"/>
				<path class="st0" d="M700.81,393.25l17.79-9.98c1.8,3.85,5.29,5.77,9.38,5.77c5.41,0,8.9-3.85,8.9-9.86v-51.94h22.48v51.34
					c0,19.12-11.18,31.5-29.58,31.5C716.08,410.08,705.98,404.55,700.81,393.25z"/>
				<path class="st0" d="M803.48,408.52v-81.15h22.36v30.06h26.69v-30.06h22.48v81.15h-22.48V377.5h-26.69v31.02H803.48z"/>
				<path class="st0" d="M889.58,327.25h22.36v60.71h34.26v20.56h-56.63V327.25z"/>
				<path class="st0" d="M979.08,327.37h27.05l29.82,81.15h-23.44l-5.05-14.79h-30.18l-5.05,14.79h-23.08L979.08,327.37z
					 M992.3,350.09l-8.54,25.01h17.19l-8.54-25.01H992.3z"/>
				<path class="st0" d="M1038.43,398.18l11.9-15.75c4.93,5.29,12.74,8.66,20.44,8.66c5.05,0,9.98-1.56,9.98-6.49
					c0-5.17-4.45-6.73-12.74-8.42c-17.31-3.49-27.29-10.34-27.29-24.77c0-16.59,15.03-25.61,32.82-25.61
					c12.38,0,22.48,3.49,29.82,10.7l-11.66,15.03c-6.25-4.69-12.14-6.85-17.91-6.85c-5.29,0-9.26,1.56-9.26,5.53
					c0,3.97,3.13,5.89,12.5,7.93c17.91,3.61,27.65,11.78,27.65,26.45c0,16.71-14.79,25.49-34.38,25.49
					C1057.07,410.08,1045.41,404.91,1038.43,398.18z"/>
			</g>
		</g>
	</g>
	<g>
		<rect x="1194.27" y="176.06" class="st0" width="355.48" height="237.17"/>
		<rect x="1198.93" y="180.72" class="st1" width="346.16" height="227.83"/>
		<polygon class="st2" points="1371.83,201.83 1375.21,212.35 1386.26,212.3 1377.28,218.76 1380.74,229.26 1371.83,222.72 
			1362.94,229.26 1366.39,218.76 1357.41,212.3 1368.45,212.35 		"/>
		<polygon class="st2" points="1371.83,360.03 1375.21,370.53 1386.26,370.48 1377.28,376.96 1380.74,387.45 1371.83,380.93 
			1362.94,387.45 1366.39,376.96 1357.41,370.48 1368.45,370.53 		"/>
		<polygon class="st2" points="1332.48,212.35 1335.85,222.87 1346.9,222.84 1337.96,229.28 1341.41,239.76 1332.48,233.23 
			1323.59,239.76 1327.04,229.28 1318.11,222.84 1329.14,222.87 		"/>
		<polygon class="st2" points="1303.53,241.4 1306.89,251.91 1317.94,251.83 1308.96,258.31 1312.41,268.79 1303.53,262.25 
			1294.63,268.79 1298.09,258.31 1289.08,251.83 1300.17,251.91 		"/>
		<polygon class="st2" points="1292.84,280.85 1296.18,291.35 1307.26,291.28 1298.29,297.76 1301.71,308.23 1292.84,301.71 
			1283.94,308.23 1287.41,297.76 1278.42,291.28 1289.46,291.35 		"/>
		<polygon class="st2" points="1303.4,320.3 1306.79,330.85 1317.8,330.77 1308.85,337.23 1312.33,347.71 1303.4,341.15 
			1294.5,347.71 1297.98,337.23 1288.98,330.78 1300.03,330.85 		"/>
		<polygon class="st2" points="1332.48,349.32 1335.85,359.84 1346.9,359.79 1337.96,366.23 1341.41,376.72 1332.48,370.21 
			1323.59,376.72 1327.04,366.23 1318.11,359.79 1329.14,359.84 		"/>
		<polygon class="st2" points="1411.22,212.35 1407.86,222.87 1396.8,222.84 1405.78,229.28 1402.31,239.76 1411.22,233.23 
			1420.12,239.76 1416.67,229.28 1425.63,222.84 1414.61,222.87 		"/>
		<polygon class="st2" points="1440.2,241.4 1436.83,251.91 1425.77,251.83 1434.74,258.31 1431.27,268.79 1440.2,262.25 
			1449.11,268.79 1445.65,258.31 1454.59,251.83 1443.55,251.91 		"/>
		<polygon class="st2" points="1450.89,280.85 1447.51,291.35 1436.45,291.28 1445.43,297.76 1441.96,308.23 1450.89,301.71 
			1459.79,308.23 1456.34,297.76 1465.28,291.28 1454.24,291.35 		"/>
		<polygon class="st2" points="1440.27,320.3 1436.94,330.85 1425.88,330.77 1434.87,337.23 1431.39,347.71 1440.27,341.15 
			1449.22,347.71 1445.76,337.23 1454.73,330.78 1443.68,330.85 		"/>
		<polygon class="st2" points="1411.22,349.32 1407.86,359.84 1396.8,359.79 1405.78,366.23 1402.31,376.72 1411.22,370.21 
			1420.12,376.72 1416.67,366.23 1425.63,359.79 1414.61,359.84 		"/>
	</g>
	<path class="st0" d="M437.77,333.04L332.22,123.5L122.67,229.05l78.98,156.8h-53.76v22.64h288.41v-22.64H332.93L437.77,333.04z
		 M153.07,239.08l169.12-85.18l85.18,169.12l-124.75,62.84H227L153.07,239.08z"/>
</g>
<g id="Clear_space">
</g>
</svg>
