<?xml version="1.0" encoding="utf-8"?>
<!-- Generator: Adobe Illustrator 27.3.1, SVG Export Plug-In . SVG Version: 6.00 Build 0)  -->
<svg version="1.1" xmlns="http://www.w3.org/2000/svg" xmlns:xlink="http://www.w3.org/1999/xlink" x="0px" y="0px"
	 viewBox="0 0 1606.94 535.98" style="enable-background:new 0 0 1606.94 535.98;" xml:space="preserve">
<style type="text/css">
	.st0{fill:#FFFFFF;}
	.st1{fill:#0C4DA2;}
	.st2{fill:#FFF200;}
	.st3{fill:#D94397;}
</style>
<g id="Elements">
	<g>
		<path class="st0" d="M515.95,195.93h-12.02l-3.97,13.95h-19.48l3.85-13.95h-8.66v-16.35h13.34l3.97-14.55h-11.42v-16.11h15.99
			l4.21-15.03h19.6l-4.21,15.03h11.9l4.21-15.03h19.48l-4.21,15.03h9.86v16.11h-14.43L540,179.58h12.38v16.35h-17.07l-3.85,13.95
			h-19.36L515.95,195.93z M520.52,179.58l4.09-14.55h-12.02l-4.09,14.55H520.52z"/>
		<path class="st0" d="M568.32,179.7v-49.53h22.48v49.65c0,7.33,5.05,12.14,12.62,12.14c7.69,0,12.62-4.81,12.62-12.14v-49.65h22.36
			v49.53c0,19.96-13.95,33.18-34.99,33.18C582.15,212.88,568.32,199.66,568.32,179.7z"/>
		<path class="st0" d="M646.62,197.13l35.83-47.85h-34.75v-19.12h64.32v14.31l-35.71,47.97h36.55v19h-66.24V197.13z M669.47,115.38
			c0-6.01,4.45-10.22,10.22-10.22c6.01,0,10.34,4.21,10.34,10.22c0,6.01-4.33,10.34-10.34,10.34
			C673.91,125.72,669.47,121.39,669.47,115.38z"/>
		<path class="st0" d="M746.83,130.29h27.05l29.82,81.15h-23.44l-5.05-14.79h-30.18l-5.05,14.79h-23.08L746.83,130.29z
			 M760.06,153.01l-8.54,25.01h17.19l-8.54-25.01H760.06z"/>
		<path class="st0" d="M479.05,226.94h22.36v60.71h34.26v20.56h-56.63V226.94z"/>
		<path class="st0" d="M531.41,268.42v-16.59h46.65v16.59H531.41z"/>
		<path class="st0" d="M581.02,227.06h23.56l17.07,56.75h0.24l17.43-56.75h23.32l-27.53,81.15h-26.69L581.02,227.06z"/>
		<path class="st0" d="M661.88,267.7c0-24.41,17.91-42.2,42.44-42.2c24.53,0,42.44,17.67,42.44,41.96
			c0,24.53-17.91,42.32-42.56,42.32C679.79,309.78,661.88,292.1,661.88,267.7z M723.56,267.7c0-12.38-8.05-21.52-19.24-21.52
			s-19.36,9.02-19.36,21.4c0,12.5,8.3,21.52,19.36,21.52C715.5,289.1,723.56,279.96,723.56,267.7z"/>
		<path class="st0" d="M795.03,247.74v60.47h-22.48v-60.47h-23.08v-20.8h68.53v20.8H795.03z"/>
		<path class="st0" d="M517.52,344.52v60.47h-22.48v-60.47h-23.08v-20.8h68.53v20.8H517.52z"/>
		<path class="st0" d="M546.67,323.72h22.6v81.27h-22.6V323.72z"/>
		<path class="st0" d="M605.6,354.01h33.66v19.36H605.6v12.26h39.79v19.36H583.6v-81.15h60.71v19.48H605.6V354.01z"/>
		<path class="st0" d="M652.06,364.47c0-26.57,19.96-42.2,41.72-42.2c13.46,0,25.37,6.13,32.82,16.23l-15.39,12.86
			c-3.85-5.05-10.82-8.54-17.19-8.54c-9.74,0-19.36,6.61-19.36,21.76c0,14.19,8.78,21.64,19.12,21.64c8.3,0,14.79-4.33,17.67-10.82
			h-19.48v-17.55h42.56v0.12v6.25c0,24.53-16.47,42.32-40.76,42.32C669.73,406.55,652.06,389.72,652.06,364.47z"/>
		<path class="st0" d="M744.81,404.99v-59.15h-5.65v-10.22h5.65v-11.78h22.36v11.78h26.69v-11.78h22.48v11.78h4.21v10.22h-4.21
			v59.15h-22.48v-31.02h-26.69v31.02H744.81z M793.86,353.89v-8.05h-26.69v8.05H793.86z"/>
		<path class="st0" d="M853.73,354.01h33.66v19.36h-33.66v12.26h39.79v19.36h-61.79v-81.15h60.71v19.48h-38.71V354.01z"/>
		<path class="st0" d="M927.89,368.32v36.67H905.4v-81.15h22.48v35.11l24.04-35.11h25.85l-28.13,39.79l28.97,41.36h-25.85
			L927.89,368.32z"/>
	</g>
	<g>
		<rect x="1055.47" y="125.74" class="st0" width="428.8" height="286.08"/>
		<rect x="1061.1" y="131.37" class="st1" width="417.55" height="274.81"/>
		<polygon class="st2" points="1269.65,156.83 1273.73,169.52 1287.06,169.46 1276.22,177.25 1280.41,189.92 1269.65,182.03 
			1258.93,189.92 1263.1,177.25 1252.26,169.46 1265.58,169.52 		"/>
		<polygon class="st2" points="1269.65,347.66 1273.73,360.32 1287.06,360.26 1276.22,368.08 1280.41,380.73 1269.65,372.86 
			1258.93,380.73 1263.1,368.08 1252.26,360.26 1265.58,360.32 		"/>
		<polygon class="st2" points="1222.19,169.52 1226.25,182.21 1239.58,182.17 1228.79,189.94 1232.96,202.58 1222.19,194.71 
			1211.47,202.58 1215.62,189.94 1204.85,182.17 1218.16,182.21 		"/>
		<polygon class="st2" points="1187.27,204.56 1191.32,217.23 1204.65,217.15 1193.81,224.96 1197.98,237.6 1187.27,229.72 
			1176.53,237.6 1180.7,224.96 1169.84,217.15 1183.21,217.23 		"/>
		<polygon class="st2" points="1174.38,252.15 1178.41,264.81 1191.76,264.73 1180.95,272.55 1185.07,285.18 1174.38,277.31 
			1163.64,285.18 1167.82,272.55 1156.97,264.73 1170.3,264.81 		"/>
		<polygon class="st2" points="1187.11,299.73 1191.2,312.46 1204.48,312.36 1193.68,320.16 1197.88,332.8 1187.11,324.88 
			1176.37,332.8 1180.57,320.16 1169.72,312.38 1183.05,312.46 		"/>
		<polygon class="st2" points="1222.19,334.74 1226.25,347.43 1239.58,347.37 1228.79,355.13 1232.96,367.79 1222.19,359.94 
			1211.47,367.79 1215.62,355.13 1204.85,347.37 1218.16,347.43 		"/>
		<polygon class="st2" points="1317.17,169.52 1313.11,182.21 1299.77,182.17 1310.6,189.94 1306.42,202.58 1317.17,194.71 
			1327.9,202.58 1323.74,189.94 1334.55,182.17 1321.26,182.21 		"/>
		<polygon class="st2" points="1352.12,204.56 1348.06,217.23 1334.72,217.15 1345.53,224.96 1341.35,237.6 1352.12,229.72 
			1362.87,237.6 1358.69,224.96 1369.48,217.15 1356.17,217.23 		"/>
		<polygon class="st2" points="1365.02,252.15 1360.94,264.81 1347.6,264.73 1358.43,272.55 1354.25,285.18 1365.02,277.31 
			1375.76,285.18 1371.59,272.55 1382.37,264.73 1369.07,264.81 		"/>
		<polygon class="st2" points="1352.21,299.73 1348.2,312.46 1334.85,312.36 1345.7,320.16 1341.5,332.8 1352.21,324.88 
			1363.01,332.8 1358.83,320.16 1369.64,312.38 1356.32,312.46 		"/>
		<polygon class="st2" points="1317.17,334.74 1313.11,347.43 1299.77,347.37 1310.6,355.13 1306.42,367.79 1317.17,359.94 
			1327.9,367.79 1323.74,355.13 1334.55,347.37 1321.26,347.43 		"/>
	</g>
	<path class="st0" d="M437.77,331.01L332.22,121.46L122.67,227.01l78.98,156.8h-53.76v22.64h288.41v-22.64H332.94L437.77,331.01z
		 M153.07,237.04l169.12-85.18l85.18,169.12l-124.75,62.84H227L153.07,237.04z"/>
</g>
<g id="Clear_space">
</g>
</svg>
