<?xml version="1.0" encoding="utf-8"?>
<!-- Generator: Adobe Illustrator 27.3.1, SVG Export Plug-In . SVG Version: 6.00 Build 0)  -->
<svg version="1.1" xmlns="http://www.w3.org/2000/svg" xmlns:xlink="http://www.w3.org/1999/xlink" x="0px" y="0px"
	 viewBox="0 0 1504.1 535.98" style="enable-background:new 0 0 1504.1 535.98;" xml:space="preserve">
<style type="text/css">
	.st0{fill:#FFFFFF;}
	.st1{fill:#0C4DA2;}
	.st2{fill:#FFF200;}
	.st3{fill:#D94397;}
</style>
<g id="Elements">
	<g>
		<path class="st0" d="M512.23,309.3h-12.02l-3.97,13.95h-19.48l3.85-13.95h-8.66v-16.35h13.35l3.97-14.55h-11.42V262.3h15.99
			l4.21-15.03h19.6l-4.21,15.03h11.9l4.21-15.03h19.48l-4.21,15.03h9.86v16.11h-14.43l-3.97,14.55h12.38v16.35h-17.07l-3.85,13.95
			h-19.36L512.23,309.3z M516.8,292.95l4.09-14.55h-12.02l-4.09,14.55H516.8z"/>
		<path class="st0" d="M565.6,243.66h37.99c17.31,0,28.25,7.57,28.25,20.56c0,8.42-4.57,15.15-12.5,18.27
			c9.14,2.76,15.27,9.5,15.27,19.84c0,14.07-11.06,22.48-30.18,22.48H565.6V243.66z M600.94,275.52c5.41,0,8.78-2.53,8.78-6.85
			c0-4.45-3.37-6.97-8.9-6.97h-13.59v13.83H600.94z M602.74,306.78c6.25,0,9.74-2.77,9.74-7.45c0-4.57-3.61-7.21-9.62-7.21h-15.63
			v14.67H602.74z"/>
		<path class="st0" d="M665.56,243.66h27.05l29.82,81.15h-23.44l-5.05-14.79h-30.18l-5.05,14.79h-23.08L665.56,243.66z
			 M678.79,266.38l-8.54,25.01h17.19l-8.54-25.01H678.79z"/>
		<path class="st0" d="M728.58,243.54h22.36v60.71h34.26v20.56h-56.63V243.54z"/>
		<path class="st0" d="M789.5,314.47l11.9-15.75c4.93,5.29,12.74,8.66,20.44,8.66c5.05,0,9.98-1.56,9.98-6.49
			c0-5.17-4.45-6.73-12.74-8.42c-17.31-3.49-27.29-10.34-27.29-24.77c0-16.59,15.03-25.61,32.82-25.61
			c12.38,0,22.48,3.49,29.82,10.7l-11.66,15.03c-6.25-4.69-12.14-6.85-17.91-6.85c-5.29,0-9.26,1.56-9.26,5.53
			c0,3.97,3.13,5.89,12.5,7.94c17.91,3.61,27.65,11.78,27.65,26.45c0,16.71-14.79,25.49-34.38,25.49
			C808.13,326.38,796.47,321.21,789.5,314.47z"/>
		<path class="st0" d="M859.54,284.3c0-24.41,17.91-42.2,42.44-42.2c24.53,0,42.44,17.67,42.44,41.96
			c0,24.53-17.91,42.32-42.56,42.32C877.45,326.38,859.54,308.7,859.54,284.3z M921.22,284.3c0-12.38-8.06-21.52-19.24-21.52
			s-19.36,9.02-19.36,21.4c0,12.5,8.3,21.52,19.36,21.52C913.16,305.7,921.22,296.56,921.22,284.3z"/>
	</g>
	<g>
		<rect x="1025.94" y="172.82" class="st0" width="355.48" height="237.17"/>
		<rect x="1030.61" y="177.48" class="st1" width="346.16" height="227.83"/>
		<polygon class="st2" points="1203.51,198.59 1206.88,209.11 1217.93,209.06 1208.95,215.52 1212.42,226.02 1203.51,219.48 
			1194.61,226.02 1198.07,215.52 1189.09,209.06 1200.13,209.11 		"/>
		<polygon class="st2" points="1203.51,356.79 1206.88,367.29 1217.93,367.24 1208.95,373.72 1212.42,384.21 1203.51,377.69 
			1194.61,384.21 1198.07,373.72 1189.09,367.24 1200.13,367.29 		"/>
		<polygon class="st2" points="1164.16,209.11 1167.53,219.63 1178.57,219.6 1169.63,226.04 1173.09,236.52 1164.16,229.99 
			1155.27,236.52 1158.71,226.04 1149.78,219.6 1160.82,219.63 		"/>
		<polygon class="st2" points="1135.21,238.16 1138.57,248.67 1149.61,248.59 1140.63,255.07 1144.09,265.55 1135.21,259.01 
			1126.31,265.55 1129.76,255.07 1120.76,248.59 1131.84,248.67 		"/>
		<polygon class="st2" points="1124.52,277.61 1127.86,288.11 1138.93,288.04 1129.97,294.52 1133.38,304.99 1124.52,298.47 
			1115.62,304.99 1119.08,294.52 1110.09,288.04 1121.14,288.11 		"/>
		<polygon class="st2" points="1135.08,317.06 1138.46,327.61 1149.48,327.53 1140.52,333.99 1144,344.47 1135.08,337.91 
			1126.17,344.47 1129.65,333.99 1120.66,327.54 1131.71,327.61 		"/>
		<polygon class="st2" points="1164.16,346.08 1167.53,356.6 1178.57,356.55 1169.63,362.99 1173.09,373.48 1164.16,366.97 
			1155.27,373.48 1158.71,362.99 1149.78,356.55 1160.82,356.6 		"/>
		<polygon class="st2" points="1242.9,209.11 1239.53,219.63 1228.47,219.6 1237.45,226.04 1233.99,236.52 1242.9,229.99 
			1251.79,236.52 1248.35,226.04 1257.3,219.6 1246.29,219.63 		"/>
		<polygon class="st2" points="1271.87,238.16 1268.51,248.67 1257.45,248.59 1266.41,255.07 1262.94,265.55 1271.87,259.01 
			1280.79,265.55 1277.32,255.07 1286.26,248.59 1275.23,248.67 		"/>
		<polygon class="st2" points="1282.56,277.61 1279.19,288.11 1268.13,288.04 1277.1,294.52 1273.64,304.99 1282.56,298.47 
			1291.47,304.99 1288.01,294.52 1296.95,288.04 1285.92,288.11 		"/>
		<polygon class="st2" points="1271.95,317.06 1268.62,327.61 1257.56,327.53 1266.55,333.99 1263.07,344.47 1271.95,337.91 
			1280.9,344.47 1277.43,333.99 1286.4,327.54 1275.35,327.61 		"/>
		<polygon class="st2" points="1242.9,346.08 1239.53,356.6 1228.47,356.55 1237.45,362.99 1233.99,373.48 1242.9,366.97 
			1251.79,373.48 1248.35,362.99 1257.3,356.55 1246.29,356.6 		"/>
	</g>
	<path class="st0" d="M437.77,331.04L332.22,121.5L122.67,227.05l78.98,156.8h-53.76v22.64h288.41v-22.64H332.94L437.77,331.04z
		 M153.07,237.08l169.12-85.18l85.18,169.12l-124.75,62.84H227L153.07,237.08z"/>
</g>
<g id="Clear_space">
</g>
</svg>
