<?xml version="1.0" encoding="utf-8"?>
<!-- Generator: Adobe Illustrator 27.3.1, SVG Export Plug-In . SVG Version: 6.00 Build 0)  -->
<svg version="1.1" xmlns="http://www.w3.org/2000/svg" xmlns:xlink="http://www.w3.org/1999/xlink" x="0px" y="0px"
	 viewBox="0 0 1670.6 535.98" style="enable-background:new 0 0 1670.6 535.98;" xml:space="preserve">
<style type="text/css">
	.st0{fill:#FFFFFF;}
	.st1{fill:#0C4DA2;}
	.st2{fill:#FFF200;}
	.st3{fill:#D94397;}
</style>
<g id="Elements">
	<g>
		<path class="st0" d="M512.22,309.3H500.2l-3.97,13.95h-19.48l3.85-13.95h-8.66v-16.35h13.34l3.97-14.55h-11.42V262.3h15.99
			l4.21-15.03h19.6l-4.21,15.03h11.9l4.21-15.03h19.48l-4.21,15.03h9.86v16.11h-14.43l-3.97,14.55h12.38v16.35h-17.07l-3.85,13.95
			h-19.36L512.22,309.3z M516.79,292.95l4.09-14.55h-12.02l-4.09,14.55H516.79z"/>
		<path class="st0" d="M565.59,243.66h37.99c17.31,0,28.25,7.57,28.25,20.56c0,8.42-4.57,15.15-12.5,18.27
			c9.14,2.76,15.27,9.5,15.27,19.84c0,14.07-11.06,22.48-30.18,22.48h-38.83V243.66z M600.94,275.52c5.41,0,8.78-2.53,8.78-6.85
			c0-4.45-3.37-6.97-8.9-6.97h-13.58v13.83H600.94z M602.74,306.78c6.25,0,9.74-2.76,9.74-7.45c0-4.57-3.61-7.21-9.62-7.21h-15.63
			v14.67H602.74z"/>
		<path class="st0" d="M665.56,243.66h27.05l29.82,81.15h-23.44l-5.05-14.79h-30.18l-5.05,14.79h-23.08L665.56,243.66z
			 M678.78,266.38l-8.54,25.01h17.19l-8.54-25.01H678.78z"/>
		<path class="st0" d="M728.58,243.54h22.36v60.71h34.26v20.56h-56.63V243.54z"/>
		<path class="st0" d="M789.49,314.47l11.9-15.75c4.93,5.29,12.74,8.66,20.44,8.66c5.05,0,9.98-1.56,9.98-6.49
			c0-5.17-4.45-6.73-12.74-8.42c-17.31-3.49-27.29-10.34-27.29-24.77c0-16.59,15.03-25.61,32.82-25.61
			c12.38,0,22.48,3.49,29.82,10.7l-11.66,15.03c-6.25-4.69-12.14-6.85-17.91-6.85c-5.29,0-9.26,1.56-9.26,5.53
			c0,3.97,3.13,5.89,12.5,7.93c17.91,3.61,27.65,11.78,27.65,26.45c0,16.71-14.79,25.49-34.38,25.49
			C808.13,326.38,796.47,321.21,789.49,314.47z"/>
		<path class="st0" d="M862.96,293.07v-49.53h22.48v49.65c0,7.33,5.05,12.14,12.62,12.14c7.69,0,12.62-4.81,12.62-12.14v-49.65
			h22.36v49.53c0,19.96-13.95,33.18-34.98,33.18C876.79,326.26,862.96,313.03,862.96,293.07z"/>
		<path class="st0" d="M942.42,284.3c0-24.41,17.91-42.2,42.44-42.2c24.53,0,42.44,17.67,42.44,41.96
			c0,24.53-17.91,42.32-42.56,42.32C960.33,326.38,942.42,308.7,942.42,284.3z M1004.09,284.3c0-12.38-8.05-21.52-19.24-21.52
			c-11.18,0-19.36,9.02-19.36,21.4c0,12.5,8.29,21.52,19.36,21.52C996.04,305.7,1004.09,296.56,1004.09,284.3z"/>
		<path class="st0" d="M1060.2,288.14v36.67h-22.48v-81.15h22.48v35.1l24.04-35.1h25.85l-28.13,39.79l28.97,41.36h-25.85
			L1060.2,288.14z"/>
	</g>
	<g>
		<rect x="1192.45" y="172.82" class="st0" width="355.48" height="237.17"/>
		<rect x="1197.12" y="177.48" class="st1" width="346.16" height="227.83"/>
		<polygon class="st2" points="1370.02,198.59 1373.4,209.11 1384.44,209.06 1375.46,215.52 1378.93,226.02 1370.02,219.48 
			1361.13,226.02 1364.58,215.52 1355.6,209.06 1366.64,209.11 		"/>
		<polygon class="st2" points="1370.02,356.79 1373.4,367.29 1384.44,367.24 1375.46,373.72 1378.93,384.21 1370.02,377.69 
			1361.13,384.21 1364.58,373.72 1355.6,367.24 1366.64,367.29 		"/>
		<polygon class="st2" points="1330.67,209.11 1334.04,219.63 1345.09,219.6 1336.14,226.04 1339.6,236.52 1330.67,229.99 
			1321.78,236.52 1325.22,226.04 1316.29,219.6 1327.33,219.63 		"/>
		<polygon class="st2" points="1301.72,238.16 1305.08,248.67 1316.12,248.59 1307.15,255.07 1310.6,265.55 1301.72,259.01 
			1292.82,265.55 1296.27,255.07 1287.27,248.59 1298.35,248.67 		"/>
		<polygon class="st2" points="1291.03,277.61 1294.37,288.11 1305.45,288.04 1296.48,294.52 1299.9,304.99 1291.03,298.47 
			1282.13,304.99 1285.59,294.52 1276.6,288.04 1287.65,288.11 		"/>
		<polygon class="st2" points="1301.59,317.06 1304.98,327.61 1315.99,327.53 1307.03,333.99 1310.52,344.47 1301.59,337.91 
			1292.68,344.47 1296.16,333.99 1287.17,327.54 1298.22,327.61 		"/>
		<polygon class="st2" points="1330.67,346.08 1334.04,356.6 1345.09,356.55 1336.14,362.99 1339.6,373.48 1330.67,366.97 
			1321.78,373.48 1325.22,362.99 1316.29,356.55 1327.33,356.6 		"/>
		<polygon class="st2" points="1409.41,209.11 1406.04,219.63 1394.98,219.6 1403.96,226.04 1400.5,236.52 1409.41,229.99 
			1418.3,236.52 1414.86,226.04 1423.82,219.6 1412.8,219.63 		"/>
		<polygon class="st2" points="1438.39,238.16 1435.02,248.67 1423.96,248.59 1432.92,255.07 1429.46,265.55 1438.39,259.01 
			1447.3,265.55 1443.83,255.07 1452.77,248.59 1441.74,248.67 		"/>
		<polygon class="st2" points="1449.08,277.61 1445.7,288.11 1434.64,288.04 1443.61,294.52 1440.15,304.99 1449.08,298.47 
			1457.98,304.99 1454.52,294.52 1463.46,288.04 1452.43,288.11 		"/>
		<polygon class="st2" points="1438.46,317.06 1435.13,327.61 1424.07,327.53 1433.06,333.99 1429.58,344.47 1438.46,337.91 
			1447.41,344.47 1443.94,333.99 1452.91,327.54 1441.86,327.61 		"/>
		<polygon class="st2" points="1409.41,346.08 1406.04,356.6 1394.98,356.55 1403.96,362.99 1400.5,373.48 1409.41,366.97 
			1418.3,373.48 1414.86,362.99 1423.82,356.55 1412.8,356.6 		"/>
	</g>
	<path class="st0" d="M437.76,331.04L332.21,121.5L122.67,227.05l78.98,156.8h-53.76v22.64h288.41v-22.64H332.93L437.76,331.04z
		 M153.07,237.08l169.12-85.18l85.18,169.12l-124.75,62.84h-55.62L153.07,237.08z"/>
</g>
<g id="Clear_space">
</g>
</svg>
