<?xml version="1.0" encoding="utf-8"?>
<!-- Generator: Adobe Illustrator 27.3.1, SVG Export Plug-In . SVG Version: 6.00 Build 0)  -->
<svg version="1.1" xmlns="http://www.w3.org/2000/svg" xmlns:xlink="http://www.w3.org/1999/xlink" x="0px" y="0px"
	 viewBox="0 0 1730.22 535.98" style="enable-background:new 0 0 1730.22 535.98;" xml:space="preserve">
<style type="text/css">
	.st0{fill:#FFFFFF;}
	.st1{fill:#0C4DA2;}
	.st2{fill:#FFF200;}
	.st3{fill:#D94397;}
</style>
<g id="Elements">
	<g>
		<path class="st0" d="M516.08,274.27h-12.02l-3.97,13.95h-19.48l3.85-13.95h-8.66v-16.35h13.34l3.97-14.55h-11.42v-16.11h15.99
			l4.21-15.03h19.6l-4.21,15.03h11.9l4.21-15.03h19.48l-4.21,15.03h9.86v16.11h-14.43l-3.97,14.55h12.38v16.35h-17.07l-3.85,13.95
			h-19.36L516.08,274.27z M520.65,257.92l4.09-14.55h-12.02l-4.09,14.55H520.65z"/>
		<path class="st0" d="M568.45,258.04v-49.53h22.48v49.65c0,7.33,5.05,12.14,12.62,12.14c7.69,0,12.62-4.81,12.62-12.14v-49.65
			h22.36v49.53c0,19.96-13.95,33.18-34.99,33.18C582.27,291.22,568.45,278,568.45,258.04z"/>
		<path class="st0" d="M689.81,229.31v60.47h-22.48v-60.47h-23.08v-20.8h68.53v20.8H689.81z"/>
		<path class="st0" d="M718.97,208.51h22.6v81.27h-22.6V208.51z"/>
		<path class="st0" d="M755.9,208.51h22.36v60.71h34.26v20.56H755.9V208.51z"/>
		<path class="st0" d="M818.75,208.51h22.6v81.27h-22.6V208.51z"/>
		<path class="st0" d="M850.51,279.44l11.9-15.75c4.93,5.29,12.74,8.66,20.44,8.66c5.05,0,9.98-1.56,9.98-6.49
			c0-5.17-4.45-6.73-12.74-8.42c-17.31-3.49-27.29-10.34-27.29-24.77c0-16.59,15.03-25.61,32.82-25.61
			c12.38,0,22.48,3.49,29.82,10.7l-11.66,15.03c-6.25-4.69-12.14-6.85-17.91-6.85c-5.29,0-9.26,1.56-9.26,5.53
			c0,3.97,3.13,5.89,12.5,7.93c17.91,3.61,27.65,11.78,27.65,26.45c0,16.71-14.79,25.49-34.38,25.49
			C869.15,291.34,857.48,286.17,850.51,279.44z"/>
		<path class="st0" d="M947.59,238.81h33.66v19.36h-33.66v12.26h39.79v19.36h-61.79v-81.15h60.71v19.48h-38.71V238.81z"/>
		<path class="st0" d="M995.13,275.47l35.83-47.85h-34.75v-19.12h64.32v14.31l-35.71,47.97h36.55v19h-66.24V275.47z"/>
		<path class="st0" d="M471.96,326.13h23.56l17.07,56.75h0.24l17.43-56.75h23.32l-27.53,81.15h-26.69L471.96,326.13z"/>
		<path class="st0" d="M552.82,366.77c0-24.41,17.91-42.2,42.44-42.2c24.53,0,42.44,17.67,42.44,41.96
			c0,24.53-17.91,42.32-42.56,42.32C570.73,408.84,552.82,391.17,552.82,366.77z M614.49,366.77c0-12.38-8.05-21.52-19.24-21.52
			s-19.36,9.02-19.36,21.4c0,12.5,8.3,21.52,19.36,21.52C606.44,388.17,614.49,379.03,614.49,366.77z"/>
		<path class="st0" d="M685.97,346.81v60.47h-22.48v-60.47H640.4v-20.8h68.53v20.8H685.97z"/>
		<path class="st0" d="M715.12,326.13h34.75c18.88,0,31.26,10.46,31.26,26.33c0,11.9-6.85,20.68-18.27,24.41l19.96,30.42H757.2
			l-18.27-28.49h-1.32v28.49h-22.48V326.13z M749.26,361.36c5.65,0,9.38-3.37,9.38-8.54c0-4.93-3.73-8.29-9.38-8.29H737.6v16.83
			H749.26z"/>
		<path class="st0" d="M813.85,356.31h33.66v19.36h-33.66v12.26h39.79v19.36h-61.79v-81.15h60.71v19.48h-38.71V356.31z"/>
		<path class="st0" d="M888.14,326.13h23.56l17.07,56.75h0.24l17.43-56.75h23.32l-27.53,81.15h-26.69L888.14,326.13z"/>
		<path class="st0" d="M969.01,366.77c0-24.41,17.91-42.2,42.44-42.2c24.53,0,42.44,17.67,42.44,41.96
			c0,24.53-17.91,42.32-42.56,42.32C986.92,408.84,969.01,391.17,969.01,366.77z M1030.68,366.77c0-12.38-8.06-21.52-19.24-21.52
			s-19.36,9.02-19.36,21.4c0,12.5,8.29,21.52,19.36,21.52C1022.63,388.17,1030.68,379.03,1030.68,366.77z"/>
		<path class="st0" d="M1064.5,326.01h22.6v81.27h-22.6V326.01z"/>
		<path class="st0" d="M1133.41,380.59l-14.31,26.69h-25.85l24.29-41.72l-22.48-39.55h25.61l12.74,24.89l12.74-24.89h25.49
			l-22.6,39.55l24.41,41.72h-25.61L1133.41,380.59z"/>
	</g>
	<g>
		<rect x="1252.06" y="174.82" class="st0" width="355.48" height="237.17"/>
		<rect x="1256.73" y="179.48" class="st1" width="346.16" height="227.83"/>
		<polygon class="st2" points="1429.62,200.59 1433,211.11 1444.05,211.06 1435.07,217.52 1438.54,228.02 1429.62,221.48 
			1420.73,228.02 1424.19,217.52 1415.21,211.06 1426.24,211.11 		"/>
		<polygon class="st2" points="1429.62,358.79 1433,369.29 1444.05,369.24 1435.07,375.72 1438.54,386.21 1429.62,379.69 
			1420.73,386.21 1424.19,375.72 1415.21,369.24 1426.24,369.29 		"/>
		<polygon class="st2" points="1390.28,211.11 1393.64,221.63 1404.69,221.6 1395.75,228.04 1399.21,238.52 1390.28,231.99 
			1381.38,238.52 1384.83,228.04 1375.9,221.6 1386.94,221.63 		"/>
		<polygon class="st2" points="1361.33,240.16 1364.68,250.67 1375.73,250.59 1366.75,257.07 1370.21,267.55 1361.33,261.01 
			1352.42,267.55 1355.88,257.07 1346.87,250.59 1357.96,250.67 		"/>
		<polygon class="st2" points="1350.64,279.61 1353.98,290.11 1365.05,290.04 1356.08,296.52 1359.5,306.99 1350.64,300.47 
			1341.73,306.99 1345.2,296.52 1336.21,290.04 1347.26,290.11 		"/>
		<polygon class="st2" points="1361.19,319.06 1364.58,329.61 1375.6,329.53 1366.64,335.99 1370.12,346.47 1361.19,339.91 
			1352.29,346.47 1355.77,335.99 1346.78,329.54 1357.82,329.61 		"/>
		<polygon class="st2" points="1390.28,348.08 1393.64,358.6 1404.69,358.55 1395.75,364.99 1399.21,375.48 1390.28,368.97 
			1381.38,375.48 1384.83,364.99 1375.9,358.55 1386.94,358.6 		"/>
		<polygon class="st2" points="1469.02,211.11 1465.65,221.63 1454.59,221.6 1463.57,228.04 1460.1,238.52 1469.02,231.99 
			1477.91,238.52 1474.46,228.04 1483.42,221.6 1472.41,221.63 		"/>
		<polygon class="st2" points="1497.99,240.16 1494.62,250.67 1483.56,250.59 1492.53,257.07 1489.06,267.55 1497.99,261.01 
			1506.9,267.55 1503.44,257.07 1512.38,250.59 1501.35,250.67 		"/>
		<polygon class="st2" points="1508.68,279.61 1505.3,290.11 1494.24,290.04 1503.22,296.52 1499.75,306.99 1508.68,300.47 
			1517.58,306.99 1514.13,296.52 1523.07,290.04 1512.04,290.11 		"/>
		<polygon class="st2" points="1498.06,319.06 1494.74,329.61 1483.68,329.53 1492.67,335.99 1489.18,346.47 1498.06,339.91 
			1507.02,346.47 1503.55,335.99 1512.52,329.54 1501.47,329.61 		"/>
		<polygon class="st2" points="1469.02,348.08 1465.65,358.6 1454.59,358.55 1463.57,364.99 1460.1,375.48 1469.02,368.97 
			1477.91,375.48 1474.46,364.99 1483.42,358.55 1472.41,358.6 		"/>
	</g>
	<path class="st0" d="M437.77,332.04L332.22,122.5L122.67,228.05l78.98,156.8h-53.76v22.64H436.3v-22.64H332.94L437.77,332.04z
		 M153.07,238.08l169.12-85.18l85.18,169.12l-124.75,62.84H227L153.07,238.08z"/>
</g>
<g id="Clear_space">
</g>
</svg>
