<?xml version="1.0" encoding="utf-8"?>
<!-- Generator: Adobe Illustrator 27.3.1, SVG Export Plug-In . SVG Version: 6.00 Build 0)  -->
<svg version="1.1" xmlns="http://www.w3.org/2000/svg" xmlns:xlink="http://www.w3.org/1999/xlink" x="0px" y="0px"
	 viewBox="0 0 1620.49 535.98" style="enable-background:new 0 0 1620.49 535.98;" xml:space="preserve">
<style type="text/css">
	.st0{fill:#FFFFFF;}
	.st1{fill:#0C4DA2;}
	.st2{fill:#FFF200;}
	.st3{fill:#D94397;}
</style>
<g id="Elements">
	<g>
		<g>
			<g>
				<path class="st0" d="M512.23,273.86h-12.02l-3.97,13.95h-19.48l3.85-13.95h-8.66v-16.35h13.34l3.97-14.55h-11.42v-16.11h15.99
					l4.21-15.03h19.6l-4.21,15.03h11.9l4.21-15.03h19.48l-4.21,15.03h9.86v16.11h-14.43l-3.97,14.55h12.38v16.35h-17.07l-3.85,13.95
					h-19.36L512.23,273.86z M516.8,257.51l4.09-14.55h-12.02l-4.09,14.55H516.8z"/>
				<path class="st0" d="M583.79,208.22h27.05l29.82,81.15h-23.44l-5.05-14.79h-30.18l-5.05,14.79h-23.08L583.79,208.22z
					 M597.01,230.94l-8.54,25.01h17.19l-8.54-25.01H597.01z"/>
				<path class="st0" d="M646.81,208.09h20.44l30.42,43.28v-43.28h22.48v81.27h-19.96L669.05,245v44.36h-22.24V208.09z"/>
				<path class="st0" d="M726.29,208.22h23.56l17.07,56.75h0.24l17.43-56.75h23.32l-27.53,81.15H753.7L726.29,208.22z"/>
				<path class="st0" d="M830.63,208.22h27.05l29.82,81.15h-23.44L859,274.58h-30.18l-5.05,14.79h-23.08L830.63,208.22z
					 M819.93,193.31c0-6.01,4.45-10.22,10.22-10.22c6.01,0,10.22,4.21,10.22,10.22c0,6.01-4.21,10.22-10.22,10.22
					C824.38,203.53,819.93,199.32,819.93,193.31z M843.86,230.94l-8.54,25.01h17.19l-8.54-25.01H843.86z M847.46,193.31
					c0-6.01,4.45-10.22,10.22-10.22c6.01,0,10.22,4.21,10.22,10.22c0,6.01-4.21,10.22-10.22,10.22
					C851.91,203.53,847.46,199.32,847.46,193.31z"/>
				<path class="st0" d="M893.65,208.09h20.44l30.42,43.28v-43.28h22.48v81.27h-19.96L915.89,245v44.36h-22.24V208.09z"/>
				<path class="st0" d="M981.56,208.22h34.62c23.44,0,40.51,17.07,40.51,40.28c0,23.68-17.07,40.88-40.51,40.88h-34.62V208.22z
					 M1033.74,248.61c0-11.3-7.82-19.72-18.51-19.72h-11.18v39.92h11.18C1025.8,268.81,1033.74,260.27,1033.74,248.61z"/>
				<path class="st0" d="M475.32,325.72h34.62c23.44,0,40.52,17.07,40.52,40.28c0,23.68-17.07,40.88-40.52,40.88h-34.62V325.72z
					 M527.5,366.11c0-11.3-7.81-19.72-18.51-19.72H497.8v39.92h11.18C519.56,386.31,527.5,377.77,527.5,366.11z"/>
				<path class="st0" d="M561.06,325.59h22.6v81.27h-22.6V325.59z"/>
				<path class="st0" d="M598,325.59h20.44l30.42,43.28v-43.28h22.48v81.27h-19.96l-31.14-44.36v44.36H598V325.59z"/>
				<path class="st0" d="M716.54,325.72h34.74c18.88,0,31.26,10.46,31.26,26.33c0,11.9-6.85,20.68-18.27,24.41l19.96,30.42h-25.61
					l-18.27-28.49h-1.32v28.49h-22.48V325.72z M750.68,360.94c5.65,0,9.38-3.37,9.38-8.54c0-4.93-3.73-8.29-9.38-8.29h-11.66v16.83
					H750.68z"/>
				<path class="st0" d="M788.38,366.35c0-24.4,17.91-42.2,42.44-42.2c24.53,0,42.44,17.67,42.44,41.96
					c0,24.53-17.91,42.32-42.56,42.32C806.3,408.43,788.38,390.76,788.38,366.35z M806.78,310.81c0-6.01,4.45-10.22,10.22-10.22
					c6.01,0,10.22,4.21,10.22,10.22s-4.21,10.22-10.22,10.22C811.23,321.03,806.78,316.82,806.78,310.81z M850.06,366.35
					c0-12.38-8.06-21.52-19.24-21.52s-19.36,9.02-19.36,21.4c0,12.5,8.3,21.52,19.36,21.52C842,387.75,850.06,378.61,850.06,366.35z
					 M834.31,310.81c0-6.01,4.45-10.22,10.22-10.22c6.01,0,10.22,4.21,10.22,10.22s-4.21,10.22-10.22,10.22
					C838.76,321.03,834.31,316.82,834.31,310.81z"/>
				<path class="st0" d="M877.6,396.53l11.9-15.75c4.93,5.29,12.74,8.66,20.44,8.66c5.05,0,9.98-1.56,9.98-6.49
					c0-5.17-4.45-6.73-12.74-8.42c-17.31-3.49-27.29-10.34-27.29-24.77c0-16.59,15.03-25.61,32.82-25.61
					c12.38,0,22.48,3.49,29.82,10.7l-11.66,15.03c-6.25-4.69-12.14-6.85-17.91-6.85c-5.29,0-9.26,1.56-9.26,5.53
					c0,3.97,3.13,5.89,12.5,7.94c17.91,3.61,27.65,11.78,27.65,26.45c0,16.71-14.79,25.49-34.38,25.49
					C896.24,408.43,884.58,403.26,877.6,396.53z"/>
				<path class="st0" d="M991.53,346.39v60.47h-22.48v-60.47h-23.08v-20.8h68.53v20.8H991.53z"/>
			</g>
		</g>
	</g>
	<g>
		<rect x="1142.33" y="174.81" class="st0" width="355.48" height="237.17"/>
		<rect x="1147" y="179.48" class="st1" width="346.16" height="227.83"/>
		<polygon class="st2" points="1319.9,200.59 1323.27,211.11 1334.32,211.06 1325.34,217.51 1328.81,228.02 1319.9,221.48 
			1311,228.02 1314.46,217.51 1305.48,211.06 1316.52,211.11 		"/>
		<polygon class="st2" points="1319.9,358.79 1323.27,369.29 1334.32,369.24 1325.34,375.71 1328.81,386.21 1319.9,379.68 
			1311,386.21 1314.46,375.71 1305.48,369.24 1316.52,369.29 		"/>
		<polygon class="st2" points="1280.55,211.11 1283.92,221.63 1294.96,221.59 1286.02,228.03 1289.48,238.51 1280.55,231.98 
			1271.66,238.51 1275.1,228.03 1266.17,221.59 1277.21,221.63 		"/>
		<polygon class="st2" points="1251.6,240.15 1254.96,250.66 1266,250.59 1257.02,257.06 1260.48,267.55 1251.6,261.01 
			1242.7,267.55 1246.15,257.06 1237.15,250.59 1248.23,250.66 		"/>
		<polygon class="st2" points="1240.91,279.61 1244.25,290.1 1255.32,290.04 1246.36,296.52 1249.77,306.99 1240.91,300.46 
			1232.01,306.99 1235.47,296.52 1226.48,290.04 1237.53,290.1 		"/>
		<polygon class="st2" points="1251.46,319.05 1254.85,329.61 1265.87,329.52 1256.91,335.99 1260.39,346.47 1251.46,339.91 
			1242.56,346.47 1246.04,335.99 1237.05,329.54 1248.1,329.61 		"/>
		<polygon class="st2" points="1280.55,348.07 1283.92,358.59 1294.96,358.54 1286.02,364.98 1289.48,375.48 1280.55,368.97 
			1271.66,375.48 1275.1,364.98 1266.17,358.54 1277.21,358.59 		"/>
		<polygon class="st2" points="1359.29,211.11 1355.92,221.63 1344.86,221.59 1353.84,228.03 1350.38,238.51 1359.29,231.98 
			1368.18,238.51 1364.74,228.03 1373.69,221.59 1362.68,221.63 		"/>
		<polygon class="st2" points="1388.26,240.15 1384.9,250.66 1373.84,250.59 1382.8,257.06 1379.33,267.55 1388.26,261.01 
			1397.18,267.55 1393.71,257.06 1402.65,250.59 1391.62,250.66 		"/>
		<polygon class="st2" points="1398.95,279.61 1395.58,290.1 1384.52,290.04 1393.49,296.52 1390.02,306.99 1398.95,300.46 
			1407.86,306.99 1404.4,296.52 1413.34,290.04 1402.31,290.1 		"/>
		<polygon class="st2" points="1388.34,319.05 1385.01,329.61 1373.95,329.52 1382.94,335.99 1379.46,346.47 1388.34,339.91 
			1397.29,346.47 1393.82,335.99 1402.79,329.54 1391.74,329.61 		"/>
		<polygon class="st2" points="1359.29,348.07 1355.92,358.59 1344.86,358.54 1353.84,364.98 1350.38,375.48 1359.29,368.97 
			1368.18,375.48 1364.74,364.98 1373.69,358.54 1362.68,358.59 		"/>
	</g>
	<path class="st0" d="M437.77,332.04L332.22,122.5L122.67,228.05l78.98,156.8h-53.76v22.64h288.41v-22.64H332.94L437.77,332.04z
		 M153.07,238.08l169.12-85.18l85.18,169.12l-124.75,62.84H227L153.07,238.08z"/>
</g>
<g id="Clear_space">
</g>
</svg>
