<?xml version="1.0" encoding="utf-8"?>
<!-- Generator: Adobe Illustrator 28.0.0, SVG Export Plug-In . SVG Version: 6.00 Build 0)  -->
<svg version="1.1" id="Calque_1" xmlns="http://www.w3.org/2000/svg" xmlns:xlink="http://www.w3.org/1999/xlink" x="0px" y="0px"
	 viewBox="0 0 226.17 54.98" style="enable-background:new 0 0 226.17 54.98;" xml:space="preserve">
<style type="text/css">
	.st0{clip-path:url(#SVGID_00000150796423673431523660000009399672312429293443_);}
	.st1{fill:#134E9E;}
	.st2{fill:#FFFFFF;}
	.st3{fill:#FAEA26;}
</style>
<g>
	<defs>
		<rect id="SVGID_1_" width="227.27" height="56.08"/>
	</defs>
	<clipPath id="SVGID_00000047051136055123134770000010239557921776229304_">
		<use xlink:href="#SVGID_1_"  style="overflow:visible;"/>
	</clipPath>
	<g id="Groupe_18935" style="clip-path:url(#SVGID_00000047051136055123134770000010239557921776229304_);">
		<path id="Tracé_213683" class="st1" d="M88.06,11.31v-9.6h4.36v9.62c0.05,1.35,1.19,2.4,2.55,2.35c1.27-0.05,2.3-1.07,2.35-2.35
			V1.71h4.34v9.6c0,3.87-2.7,6.43-6.78,6.43C90.74,17.74,88.07,15.18,88.06,11.31"/>
		<path id="Tracé_213684" class="st1" d="M103.13,15.46l2.31-3.05c1.04,1.07,2.47,1.67,3.96,1.68c0.98,0,1.93-0.3,1.93-1.26
			c0-1-0.86-1.31-2.47-1.63c-3.36-0.68-5.29-2-5.29-4.8c0-3.22,2.91-4.96,6.36-4.96c2.13-0.11,4.21,0.63,5.78,2.07l-2.26,2.91
			c-0.98-0.81-2.2-1.28-3.47-1.33c-1.03,0-1.79,0.3-1.79,1.07s0.61,1.14,2.42,1.54c3.47,0.7,5.36,2.28,5.36,5.13
			c0,3.24-2.87,4.94-6.66,4.94C107.03,17.8,104.83,16.98,103.13,15.46"/>
		<path id="Tracé_213685" class="st1" d="M121.95,7.58h6.53v3.75h-6.53v2.38h7.71v3.75h-11.98V1.73h11.77v3.78h-7.5L121.95,7.58z"
			/>
		<path id="Tracé_213686" class="st1" d="M73.61,20.47l2.75,5.57l2.68-5.57h4.92l-5.45,9.95v5.8h-4.36v-5.87l-5.45-9.88H73.61z"/>
		<path id="Tracé_213687" class="st1" d="M83.24,28.37c-0.04-4.54,3.61-8.26,8.16-8.29c4.54-0.04,8.26,3.61,8.29,8.16
			s-3.61,8.26-8.16,8.29c-0.03,0-0.06,0-0.09,0c-4.39,0.14-8.06-3.3-8.2-7.68C83.24,28.68,83.23,28.52,83.24,28.37 M95.19,28.37
			c0-2.4-1.56-4.17-3.73-4.17c-2.3-0.25-4.36,1.41-4.62,3.7c-0.25,2.3,1.41,4.36,3.7,4.62c2.3,0.25,4.36-1.41,4.62-3.7
			C95.18,28.66,95.19,28.52,95.19,28.37"/>
		<path id="Tracé_213688" class="st1" d="M101.51,30.07v-9.6h4.36v9.62c0.05,1.35,1.19,2.4,2.55,2.35c1.27-0.05,2.3-1.07,2.35-2.35
			v-9.62h4.33v9.6c0,3.87-2.7,6.43-6.78,6.43C104.19,36.5,101.51,33.94,101.51,30.07"/>
		<path id="Tracé_213689" class="st1" d="M117.76,20.49h6.73c3.66,0,6.06,2.03,6.06,5.1c0.05,2.2-1.41,4.16-3.54,4.73l3.87,5.9
			h-4.96l-3.54-5.52h-0.26v5.52h-4.36L117.76,20.49z M124.38,27.32c0.9,0.1,1.71-0.55,1.81-1.46c0.1-0.9-0.55-1.71-1.46-1.81
			c-0.12-0.01-0.24-0.01-0.35,0h-2.26v3.26H124.38z"/>
		<path id="Tracé_213690" class="st1" d="M68.81,39.25h4.57l3.31,11h0.05l3.38-11h4.52L79.3,54.98h-5.17L68.81,39.25z"/>
		<path id="Tracé_213691" class="st1" d="M84.81,47.13c-0.04-4.54,3.61-8.26,8.16-8.29c4.54-0.04,8.26,3.61,8.29,8.16
			c0.04,4.54-3.61,8.26-8.16,8.29c-0.03,0-0.06,0-0.09,0c-4.39,0.14-8.06-3.3-8.2-7.68C84.8,47.44,84.8,47.28,84.81,47.13
			 M96.76,47.13c0-2.4-1.56-4.17-3.73-4.17c-2.3-0.25-4.36,1.41-4.62,3.7s1.41,4.36,3.7,4.62c2.3,0.25,4.36-1.41,4.62-3.7
			C96.75,47.42,96.76,47.27,96.76,47.13"/>
		<path id="Tracé_213692" class="st1" d="M111.02,43.26v11.72h-4.36V43.26h-4.47v-4.03h13.28v4.03H111.02z"/>
		<path id="Tracé_213693" class="st1" d="M122.13,45.1h6.53v3.75h-6.53v2.38h7.71v3.75h-11.98V39.25h11.77v3.78h-7.5L122.13,45.1z"
			/>
		<path id="Tracé_213694" class="st1" d="M76.17,14.35h-2.33l-0.77,2.7h-3.77l0.75-2.7h-1.68v-3.17h2.59l0.77-2.82H69.5V5.24h3.1
			l0.82-2.91h3.8L76.4,5.24h2.31l0.82-2.91h3.77l-0.82,2.91h1.91v3.12h-2.8l-0.77,2.82h2.4v3.17h-3.31l-0.75,2.7h-3.75L76.17,14.35z
			 M77.05,11.18l0.79-2.82h-2.33l-0.79,2.82H77.05z"/>
		<path id="Tracé_213695" class="st1" d="M60.79,40.43L40.43,0L0,20.36l15.24,30.25H4.86v4.37h55.64v-4.37H40.57L60.79,40.43z
			 M5.86,22.3L38.49,5.86l16.43,32.63L30.86,50.61H20.13L5.86,22.3z"/>
		<rect id="Rectangle_4733" x="143.99" y="0.52" class="st2" width="83.28" height="55.56"/>
		<rect id="Rectangle_4734" x="145.08" y="1.61" class="st1" width="81.09" height="53.37"/>
		<path id="Tracé_213696" class="st3" d="M185.59,6.56l0.79,2.46l2.59-0.01l-2.1,1.51l0.81,2.46l-2.09-1.53l-2.08,1.53l0.81-2.46
			l-2.1-1.51l2.58,0.01L185.59,6.56z"/>
		<path id="Tracé_213697" class="st3" d="M185.59,43.62l0.79,2.46l2.59-0.01l-2.1,1.52l0.81,2.46l-2.09-1.53l-2.08,1.53l0.81-2.46
			l-2.1-1.52l2.58,0.01L185.59,43.62z"/>
		<path id="Tracé_213698" class="st3" d="M176.37,9.02l0.79,2.46l2.59-0.01l-2.09,1.51l0.81,2.46l-2.09-1.53l-2.08,1.53l0.81-2.46
			L173,11.48l2.58,0.01L176.37,9.02z"/>
		<path id="Tracé_213699" class="st3" d="M169.59,15.83l0.79,2.46l2.59-0.02l-2.1,1.52l0.81,2.46l-2.08-1.53l-2.09,1.53l0.81-2.46
			l-2.11-1.52l2.6,0.02L169.59,15.83z"/>
		<path id="Tracé_213700" class="st3" d="M167.08,25.07l0.78,2.46l2.59-0.01l-2.1,1.52l0.8,2.45l-2.08-1.53l-2.09,1.53l0.81-2.45
			l-2.11-1.52l2.59,0.01L167.08,25.07z"/>
		<path id="Tracé_213701" class="st3" d="M169.55,34.31l0.79,2.47l2.58-0.02l-2.1,1.51l0.82,2.46l-2.09-1.54l-2.08,1.54l0.81-2.46
			l-2.11-1.51l2.59,0.02L169.55,34.31z"/>
		<path id="Tracé_213702" class="st3" d="M176.37,41.11l0.79,2.46l2.59-0.01l-2.09,1.51l0.81,2.46L176.37,46l-2.08,1.53l0.81-2.46
			L173,43.56l2.58,0.01L176.37,41.11z"/>
		<path id="Tracé_213703" class="st3" d="M194.81,9.02l-0.79,2.46l-2.59-0.01l2.1,1.51l-0.81,2.46l2.09-1.53l2.08,1.53l-0.81-2.46
			l2.1-1.51l-2.58,0.01L194.81,9.02z"/>
		<path id="Tracé_213704" class="st3" d="M201.6,15.83l-0.79,2.46l-2.59-0.02l2.1,1.52l-0.81,2.46l2.09-1.53l2.09,1.53l-0.81-2.46
			l2.09-1.52l-2.58,0.02L201.6,15.83z"/>
		<path id="Tracé_213705" class="st3" d="M204.11,25.07l-0.79,2.46l-2.59-0.01l2.1,1.52l-0.81,2.45l2.09-1.53l2.08,1.53l-0.81-2.45
			l2.09-1.52l-2.58,0.01L204.11,25.07z"/>
		<path id="Tracé_213706" class="st3" d="M201.62,34.31l-0.78,2.47l-2.59-0.02l2.11,1.51l-0.82,2.46l2.08-1.54l2.1,1.54l-0.81-2.46
			l2.1-1.51l-2.59,0.02L201.62,34.31z"/>
		<path id="Tracé_213707" class="st3" d="M194.81,41.11l-0.79,2.46l-2.59-0.01l2.1,1.51l-0.81,2.46l2.09-1.53l2.08,1.53l-0.81-2.46
			l2.1-1.51l-2.58,0.01L194.81,41.11z"/>
	</g>
</g>
</svg>
