<?xml version="1.0" encoding="utf-8"?>
<!-- Generator: Adobe Illustrator 27.7.0, SVG Export Plug-In . SVG Version: 6.00 Build 0)  -->
<svg version="1.1" id="Camada_1" xmlns="http://www.w3.org/2000/svg" xmlns:xlink="http://www.w3.org/1999/xlink" x="0px" y="0px"
	 viewBox="0 0 1390.4 288.5" style="enable-background:new 0 0 1390.4 288.5;" xml:space="preserve">
<style type="text/css">
	.st0{fill:#0C4DA2;}
	.st1{fill:#FFFFFF;}
	.st2{fill:#FFF200;}
</style>
<g id="Elements">
	<g>
		<path class="st0" d="M392.3,163.2h-12l-4,14h-19.5l3.9-14H352v-16.4h13.3l4-14.6h-11.4v-16.1h16l4.2-15h19.6l-4.2,15h11.9l4.2-15
			h19.5l-4.2,15h9.9v16.1h-14.4l-4,14.6h12.4v16.4h-17.1l-3.8,14h-19.4L392.3,163.2z M396.9,146.8l4.1-14.6h-12l-4.1,14.6H396.9z"/>
		<path class="st0" d="M441.1,138.2c0-26.6,20-42.2,41.7-42.2c13.5,0,25.4,6.1,32.8,16.2l-15.4,12.9c-3.8-5.1-10.8-8.5-17.2-8.5
			c-9.7,0-19.4,6.6-19.4,21.8c0,14.2,8.8,21.6,19.1,21.6c8.3,0,14.8-4.3,17.7-10.8H481v-17.6h42.6v0.1v6.3
			c0,24.5-16.5,42.3-40.8,42.3C458.8,180.2,441.1,163.4,441.1,138.2z"/>
		<path class="st0" d="M555.8,127.7h33.7v19.4h-33.7v12.3h39.8v19.4h-61.8V97.5h60.7V117h-38.7V127.7z"/>
		<path class="st0" d="M607.5,97.5h38c17.3,0,28.2,7.6,28.2,20.6c0,8.4-4.6,15.1-12.5,18.3c9.1,2.8,15.3,9.5,15.3,19.8
			c0,14.1-11.1,22.5-30.2,22.5h-38.8V97.5z M642.8,129.4c5.4,0,8.8-2.5,8.8-6.9c0-4.4-3.4-7-8.9-7h-13.6v13.8L642.8,129.4
			L642.8,129.4z M644.6,160.6c6.2,0,9.7-2.8,9.7-7.5c0-4.6-3.6-7.2-9.6-7.2h-15.6v14.7L644.6,160.6L644.6,160.6z"/>
		<path class="st0" d="M687,97.5h34.7c18.9,0,31.3,10.5,31.3,26.3c0,11.9-6.8,20.7-18.3,24.4l20,30.4h-25.6l-18.3-28.5h-1.3v28.5
			H687V97.5z M721.2,132.8c5.7,0,9.4-3.4,9.4-8.5c0-4.9-3.7-8.3-9.4-8.3h-11.7v16.8L721.2,132.8L721.2,132.8z"/>
		<path class="st0" d="M762,147V97.4h22.5v49.6c0,7.3,5,12.1,12.6,12.1c7.7,0,12.6-4.8,12.6-12.1V97.4h22.4V147
			c0,20-14,33.2-35,33.2C775.8,180.1,762,166.9,762,147z"/>
		<path class="st0" d="M846,97.4h22.6v81.3H846V97.4z"/>
		<path class="st0" d="M905.4,142v36.7h-22.5V97.5h22.5v35.1l24-35.1h25.8l-28.1,39.8l29,41.4h-25.8L905.4,142z"/>
		<path class="st0" d="M349.3,268.4l17.8-10c1.8,3.9,5.3,5.8,9.4,5.8c5.4,0,8.9-3.9,8.9-9.9v-51.9h22.5v51.3
			c0,19.1-11.2,31.5-29.6,31.5C364.6,285.2,354.5,279.7,349.3,268.4z"/>
		<path class="st0" d="M443.6,232.7h33.7v19.4h-33.7v12.3h39.8v19.4h-61.8v-81.1h60.7V222h-38.7V232.7z"/>
		<path class="st0" d="M520.8,273.4l11.9-15.8c4.9,5.3,12.7,8.7,20.4,8.7c5,0,10-1.6,10-6.5c0-5.2-4.5-6.7-12.7-8.4
			c-17.3-3.5-27.3-10.3-27.3-24.8c0-16.6,15-25.6,32.8-25.6c12.4,0,22.5,3.5,29.8,10.7l-11.7,15c-6.2-4.7-12.1-6.9-17.9-6.9
			c-5.3,0-9.3,1.6-9.3,5.5s3.1,5.9,12.5,7.9c17.9,3.6,27.7,11.8,27.7,26.5c0,16.7-14.8,25.5-34.4,25.5
			C539.4,285.2,527.8,280.1,520.8,273.4z"/>
		<path class="st0" d="M634.7,223.2v60.5h-22.5v-60.5h-23.1v-20.8h68.5v20.8H634.7z"/>
		<path class="st0" d="M685.9,232.7h33.7v19.4h-33.7v12.3h39.8v19.4h-61.8v-81.1h60.7V222h-38.7V232.7z"/>
		<path class="st0" d="M737.5,202.4h22l20.8,38l20.9-38h21.9v81.3h-22.6v-43.2l-16.7,31H777l-17-31v43.2h-22.5L737.5,202.4
			L737.5,202.4z"/>
	</g>
	<g>
		<rect x="1034.9" y="51.3" class="st1" width="355.5" height="237.2"/>
		<rect x="1039.6" y="56" class="st0" width="346.2" height="227.8"/>
		<polygon class="st2" points="1212.5,77.1 1215.8,87.6 1226.9,87.6 1217.9,94 1221.4,104.5 1212.5,98 1203.6,104.5 1207,94 
			1198,87.6 1209.1,87.6 		"/>
		<polygon class="st2" points="1212.5,235.3 1215.8,245.8 1226.9,245.7 1217.9,252.2 1221.4,262.7 1212.5,256.2 1203.6,262.7 
			1207,252.2 1198,245.7 1209.1,245.8 		"/>
		<polygon class="st2" points="1173.1,87.6 1176.5,98.1 1187.5,98.1 1178.6,104.5 1182,115 1173.1,108.5 1164.2,115 1167.7,104.5 
			1158.7,98.1 1169.8,98.1 		"/>
		<polygon class="st2" points="1144.2,116.7 1147.5,127.2 1158.6,127.1 1149.6,133.6 1153,144 1144.2,137.5 1135.3,144 
			1138.7,133.6 1129.7,127.1 1140.8,127.2 		"/>
		<polygon class="st2" points="1133.5,156.1 1136.8,166.6 1147.9,166.5 1138.9,173 1142.3,183.5 1133.5,177 1124.6,183.5 1128,173 
			1119,166.5 1130.1,166.6 		"/>
		<polygon class="st2" points="1144,195.6 1147.4,206.1 1158.4,206 1149.5,212.5 1153,223 1144,216.4 1135.1,223 1138.6,212.5 
			1129.6,206 1140.7,206.1 		"/>
		<polygon class="st2" points="1173.1,224.6 1176.5,235.1 1187.5,235 1178.6,241.5 1182,252 1173.1,245.5 1164.2,252 1167.7,241.5 
			1158.7,235 1169.8,235.1 		"/>
		<polygon class="st2" points="1251.8,87.6 1248.5,98.1 1237.4,98.1 1246.4,104.5 1242.9,115 1251.8,108.5 1260.8,115 1257.3,104.5 
			1266.3,98.1 1255.2,98.1 		"/>
		<polygon class="st2" points="1280.8,116.7 1277.5,127.2 1266.4,127.1 1275.4,133.6 1271.9,144 1280.8,137.5 1289.7,144 
			1286.3,133.6 1295.2,127.1 1284.2,127.2 		"/>
		<polygon class="st2" points="1291.5,156.1 1288.1,166.6 1277.1,166.5 1286.1,173 1282.6,183.5 1291.5,177 1300.4,183.5 1297,173 
			1305.9,166.5 1294.9,166.6 		"/>
		<polygon class="st2" points="1280.9,195.6 1277.6,206.1 1266.5,206 1275.5,212.5 1272,223 1280.9,216.4 1289.8,223 1286.4,212.5 
			1295.4,206 1284.3,206.1 		"/>
		<polygon class="st2" points="1251.8,224.6 1248.5,235.1 1237.4,235 1246.4,241.5 1242.9,252 1251.8,245.5 1260.8,252 
			1257.3,241.5 1266.3,235 1255.2,235.1 		"/>
	</g>
	<path class="st0" d="M315.1,209.5L209.6,0L0,105.6l79,156.8H25.2V285h288.4v-22.6H210.3L315.1,209.5z M30.4,115.6l169.1-85.2
		l85.2,169.1L160,262.4h-55.6L30.4,115.6z"/>
</g>
<g id="Clear_space">
</g>
</svg>
