<?xml version="1.0" encoding="UTF-8"?><svg id="NL" xmlns="http://www.w3.org/2000/svg" viewBox="0 0 188.61 62.38"><defs><style>.cls-1{fill:#224e9c;stroke-width:0px;}</style></defs><path class="cls-1" d="m11.22,22.56L7.34,5.73h4.84l.99,6.24c.3,1.95.6,4.21.88,5.92h.05c.25-1.9.6-3.92.98-5.97l1.07-6.19h4.82l1.04,6.48c.3,1.92.52,3.65.74,5.55h.05c.25-1.87.55-3.87.85-5.85l.99-6.19h4.57l-4.15,16.83h-4.91l-1.12-6.6c-.25-1.49-.48-3.05-.7-5.05h-.05c-.27,2-.5,3.57-.8,5.07l-1.27,6.57h-5Z"/><path class="cls-1" d="m31.16,18.07c1.36.67,2.86,1.03,4.37,1.05,1.55,0,2.3-.52,2.3-1.37s-.74-1.3-2.65-1.95c-2.85-.99-4.72-2.57-4.72-5.07,0-2.97,2.5-5.27,6.75-5.27,2.02,0,3.45.38,4.57.87l-.95,3.6c-1.15-.53-2.41-.8-3.67-.8-1.37,0-2.12.5-2.12,1.24,0,.85.9,1.2,3.02,2,3.02,1.1,4.4,2.72,4.4,5.07,0,2.9-2.27,5.37-7.2,5.37-2.02,0-4-.52-4.95-1.02l.85-3.71Z"/><path class="cls-1" d="m44.87,5.95c1.85-.26,3.71-.38,5.57-.35,2.42,0,4.15.42,5.32,1.32,1.25.98,1.96,2.49,1.92,4.07,0,1.7-.57,3.2-1.62,4.15-1.37,1.24-3.35,1.75-5.62,1.75-.43,0-.82-.02-1.1-.05v5.72h-4.47V5.95Zm4.47,7.45c.34.04.68.05,1.02.05,1.77,0,2.87-.9,2.87-2.35,0-1.25-.85-2.1-2.55-2.1-.45-.01-.91.02-1.35.1v4.3Z"/><path class="cls-1" d="m75.76,13.97c0,5.42-3.25,8.87-8.45,8.87s-8.1-3.92-8.1-8.59,3.22-8.8,8.37-8.8c5.43,0,8.17,4.02,8.17,8.52Zm-11.77.2c0,3.15,1.37,5.1,3.55,5.1s3.45-2.12,3.45-5.15-1.3-5.1-3.47-5.1-3.53,2.05-3.53,5.15Z"/><path class="cls-1" d="m78.16,5.72h4.52v13.07h6.48v3.77h-11.01V5.72Z"/><path class="cls-1" d="m91.35,22.56V5.73h5.32l2.67,5.17c1.01,1.91,1.9,3.87,2.65,5.9h.08c-.25-2.36-.37-4.73-.35-7.1v-3.96h4.12v16.83h-4.75l-2.85-5.61c-1.06-1.98-2.01-4.01-2.85-6.1h-.07c.1,2.27.15,4.82.15,7.55v4.15h-4.12Z"/><path class="cls-1" d="m113.49,5.72v16.83h-4.52V5.72h4.52Z"/><path class="cls-1" d="m127.15,15.77h-6.05v3.1h6.77v3.7h-11.29V5.73h10.94v3.66h-6.42v2.72h6.05v3.65Z"/><path class="cls-1" d="m135.33,5.95c1.78-.25,3.58-.36,5.37-.35,3.22,0,5.25.52,6.93,1.67,1.85,1.27,3.05,3.37,3.05,6.47,0,3.42-1.3,5.65-2.95,6.93-1.85,1.45-4.6,2.07-7.9,2.07-1.5.03-3.01-.06-4.5-.27V5.95Zm4.52,13.24c.31.05.63.06.95.05,2.92.05,5.07-1.57,5.07-5.37,0-3.27-1.95-4.82-4.65-4.82-.46-.01-.92.02-1.38.1v10.04Z"/><path class="cls-1" d="m153.07,5.72h4.52v13.07h6.47v3.77h-10.99V5.72Z"/><path class="cls-1" d="m170.86,18.67l-.95,3.9h-4.67l4.9-16.83h6l5.02,16.83h-4.87l-1.07-3.9h-4.35Zm3.71-3.35l-.76-3.02c-.25-.95-.57-2.32-.82-3.32h-.05c-.25.99-.5,2.4-.74,3.35l-.73,3h3.1Z"/><path class="cls-1" d="m77.88,39.61c-2.49,0-4.08,2.37-4.08,5.97s1.59,5.91,4.11,5.91,4-2.46,4-5.97c0-3.35-1.51-5.91-4.03-5.91Z"/><path class="cls-1" d="m115.88,39.5c-.59-.02-1.18.02-1.77.12v4.63h1.36c1.98,0,3.1-.99,3.1-2.43s-.94-2.29-2.69-2.32Z"/><path class="cls-1" d="m134.67,39.55h-.06c-.29,1.16-.58,2.78-.87,3.88l-.84,3.47h3.62l-.9-3.49c-.29-1.1-.67-2.69-.96-3.85Z"/><path class="cls-1" d="m14.32,39.64c-.53-.01-1.07.02-1.59.12v11.63c.36.05.73.07,1.1.06,3.39.06,5.88-1.82,5.88-6.22,0-3.78-2.26-5.58-5.39-5.58Z"/><path class="cls-1" d="m.19,28.25v34.82h188.11V28.25H.19Zm21.66,24.86c-2.14,1.68-5.33,2.4-9.16,2.4-2.52,0-4.21-.14-5.21-.32v-19.14c2.06-.29,4.14-.42,6.22-.41,3.74,0,6.08.61,8.02,1.94,2.14,1.49,3.53,3.91,3.53,7.5,0,3.97-1.5,6.54-3.41,8.02Zm19.29,2.2h-13.1v-19.52h12.68v4.26h-7.44v3.16h7.01v4.23h-7.01v3.59h7.86v4.28Zm19.63,0l-.23-6.98c-.06-2.23-.12-4.84-.09-7.88h-.09c-.61,2.58-1.42,5.5-2.05,7.65l-1.94,6.81h-4.09l-1.65-6.78c-.5-2.11-1.1-5.01-1.53-7.67h-.06c-.12,2.75-.23,5.65-.32,7.88l-.29,6.98h-4.81l1.19-19.52h7.04l1.3,5.24c.52,2.17,1.1,4.78,1.5,7.15h.12c.55-2.37,1.19-5.13,1.77-7.18l1.45-5.21h6.89l.99,19.52h-5.09Zm16.88.32c-6.05,0-9.38-4.55-9.38-9.96s3.73-10.19,9.7-10.19c6.28,0,9.47,4.66,9.47,9.87,0,6.28-3.77,10.28-9.8,10.28h0Zm23.43-.32l-4.11-7.91-1.56,2v5.91h-5.2v-19.52h5.2v8.28h.06c.41-.73.84-1.45,1.27-2.14l3.73-6.14h6.44l-6.19,8.31,6.44,11.21h-6.07Zm18.1,0c-.29-.58-.78-2.08-1.36-4.49-.52-2.35-1.24-2.84-2.87-2.84h-.84v7.33h-5.19v-19.26c2.09-.29,4.2-.43,6.31-.41,2.97,0,5.13.41,6.6,1.5,1.24.96,1.94,2.35,1.94,4.26,0,2.43-1.82,4.17-3.36,4.72v.12c1.3.55,2,1.8,2.49,3.47.61,2,1.24,4.84,1.62,5.59h-5.35Zm19.31,0l-1.24-4.52h-5.04l-1.1,4.52h-5.42l5.68-19.52h6.95l5.82,19.52h-5.65Zm17.69-4.02c1.2,0,2.39-.19,3.52-.58l.72,4.11c-.74.35-2.58.78-4.92.78-7.3,0-10.51-4.55-10.51-9.73,0-6.89,5.04-10.4,10.86-10.4,2.26,0,4.08.43,4.89.87l-1.01,4.11c-1.15-.46-2.38-.7-3.62-.7-3.01,0-5.62,1.77-5.62,5.76-.01,3.56,2.1,5.76,5.69,5.76h0Zm16.36-3.45c0,5.68-2.72,7.79-7.41,7.79-1.17.01-2.33-.14-3.45-.46l.55-4.21c.75.21,1.51.31,2.29.32,1.68,0,2.78-.74,2.78-3.45v-12.04h5.24v12.05Zm8.69,7.47h-5.24v-19.52h5.24v19.52Z"/></svg>