<?xml version="1.0" encoding="utf-8"?>
<!-- Generator: Adobe Illustrator 27.7.0, SVG Export Plug-In . SVG Version: 6.00 Build 0)  -->
<svg version="1.1" id="Camada_1" xmlns="http://www.w3.org/2000/svg" xmlns:xlink="http://www.w3.org/1999/xlink" x="0px" y="0px"
	 viewBox="0 0 1711.5 289.5" style="enable-background:new 0 0 1711.5 289.5;" xml:space="preserve">
<style type="text/css">
	.st0{fill:#FFFFFF;}
	.st1{fill:#0C4DA2;}
	.st2{fill:#FFF200;}
</style>
<g id="Elements">
	<g>
		<rect x="1356" y="52.3" class="st0" width="355.5" height="237.2"/>
		<rect x="1360.7" y="57" class="st1" width="346.2" height="227.8"/>
		<polygon class="st2" points="1533.6,78.1 1536.9,88.6 1548,88.6 1539,95 1542.5,105.5 1533.6,99 1524.7,105.5 1528.1,95 
			1519.1,88.6 1530.2,88.6 		"/>
		<polygon class="st2" points="1533.6,236.3 1536.9,246.8 1548,246.8 1539,253.2 1542.5,263.7 1533.6,257.2 1524.7,263.7 
			1528.1,253.2 1519.1,246.8 1530.2,246.8 		"/>
		<polygon class="st2" points="1494.2,88.6 1497.6,99.1 1508.6,99.1 1499.7,105.6 1503.1,116 1494.2,109.5 1485.3,116 1488.8,105.6 
			1479.8,99.1 1490.9,99.1 		"/>
		<polygon class="st2" points="1465.3,117.7 1468.6,128.2 1479.7,128.1 1470.7,134.6 1474.1,145.1 1465.3,138.5 1456.4,145.1 
			1459.8,134.6 1450.8,128.1 1461.9,128.2 		"/>
		<polygon class="st2" points="1454.6,157.1 1457.9,167.6 1469,167.6 1460,174 1463.4,184.5 1454.6,178 1445.7,184.5 1449.1,174 
			1440.1,167.6 1451.2,167.6 		"/>
		<polygon class="st2" points="1465.1,196.6 1468.5,207.1 1479.5,207 1470.6,213.5 1474.1,224 1465.1,217.4 1456.2,224 
			1459.7,213.5 1450.7,207.1 1461.8,207.1 		"/>
		<polygon class="st2" points="1494.2,225.6 1497.6,236.1 1508.6,236.1 1499.7,242.5 1503.1,253 1494.2,246.5 1485.3,253 
			1488.8,242.5 1479.8,236.1 1490.9,236.1 		"/>
		<polygon class="st2" points="1573,88.6 1569.6,99.1 1558.5,99.1 1567.5,105.6 1564,116 1573,109.5 1581.8,116 1578.4,105.6 
			1587.4,99.1 1576.3,99.1 		"/>
		<polygon class="st2" points="1601.9,117.7 1598.6,128.2 1587.5,128.1 1596.5,134.6 1593,145.1 1601.9,138.5 1610.8,145.1 
			1607.4,134.6 1616.3,128.1 1605.3,128.2 		"/>
		<polygon class="st2" points="1612.6,157.1 1609.2,167.6 1598.2,167.6 1607.2,174 1603.7,184.5 1612.6,178 1621.5,184.5 
			1618.1,174 1627,167.6 1616,167.6 		"/>
		<polygon class="st2" points="1602,196.6 1598.7,207.1 1587.6,207 1596.6,213.5 1593.1,224 1602,217.4 1610.9,224 1607.5,213.5 
			1616.5,207.1 1605.4,207.1 		"/>
		<polygon class="st2" points="1573,225.6 1569.6,236.1 1558.5,236.1 1567.5,242.5 1564,253 1573,246.5 1581.8,253 1578.4,242.5 
			1587.4,236.1 1576.3,236.1 		"/>
	</g>
	<g>
		<path class="st1" d="M389.5,194.8h-12l-4,14h-19.5l3.8-14h-8.7v-16.4h13.3l4-14.5h-11.4v-16.1h16l4.2-15H395l-4.2,15h11.9l4.2-15
			h19.5l-4.2,15h9.9v16.1h-14.4l-4,14.5H426v16.4h-17.1l-3.8,14h-19.4L389.5,194.8z M394.1,178.5l4.1-14.5h-12l-4.1,14.5H394.1z"/>
		<path class="st1" d="M437.2,200l11.9-15.8c4.9,5.3,12.7,8.7,20.4,8.7c5,0,10-1.6,10-6.5c0-5.2-4.5-6.7-12.7-8.4
			c-17.3-3.5-27.3-10.3-27.3-24.8c0-16.6,15-25.6,32.8-25.6c12.4,0,22.5,3.5,29.8,10.7l-11.7,15c-6.2-4.7-12.1-6.9-17.9-6.9
			c-5.3,0-9.3,1.6-9.3,5.5s3.1,5.9,12.5,7.9c17.9,3.6,27.7,11.8,27.7,26.5c0,16.7-14.8,25.5-34.4,25.5
			C455.8,211.9,444.1,206.7,437.2,200z"/>
		<path class="st1" d="M507,196l35.8-47.9h-34.8v-19.1h64.3v14.3l-35.7,48h36.5v19H507V196z"/>
		<path class="st1" d="M607.2,129.2h27l29.8,81.1h-23.5l-5-14.8h-30.2l-5,14.8h-23.1L607.2,129.2z M620.4,151.9l-8.5,25h17.2
			l-8.5-25H620.4z"/>
		<path class="st1" d="M656.9,129.2h23.6l17.1,56.8h0.2l17.4-56.8h23.3L711,210.3h-26.7L656.9,129.2z"/>
		<path class="st1" d="M761.3,129.2h27l29.8,81.1h-23.4l-5-14.8h-30.2l-5,14.8h-23.1L761.3,129.2z M774.5,151.9l-8.5,25h17.2
			l-8.5-25H774.5z"/>
		<path class="st1" d="M822.2,196l35.8-47.9h-34.7v-19.1h64.3v14.3l-35.7,48h36.5v19h-66.2V196z"/>
		<path class="st1" d="M894.8,196l35.8-47.9h-34.7v-19.1h64.3v14.3l-35.7,48H961v19h-66.2L894.8,196L894.8,196z"/>
		<path class="st1" d="M1040.1,149.8v60.5h-22.5v-60.5h-23.1V129h68.5v20.8H1040.1z"/>
		<path class="st1" d="M1091.3,159.3h33.7v19.4h-33.7V191h39.8v19.4h-61.8v-81.1h60.7v19.5h-38.7V159.3z"/>
		<path class="st1" d="M1172.8,129.1h22.6v81.3h-22.6V129.1z"/>
		<path class="st1" d="M1204.6,200l11.9-15.8c4.9,5.3,12.7,8.7,20.4,8.7c5.1,0,10-1.6,10-6.5c0-5.2-4.4-6.7-12.7-8.4
			c-17.3-3.5-27.3-10.3-27.3-24.8c0-16.6,15-25.6,32.8-25.6c12.4,0,22.5,3.5,29.8,10.7l-11.7,15c-6.2-4.7-12.1-6.9-17.9-6.9
			c-5.3,0-9.3,1.6-9.3,5.5s3.1,5.9,12.5,7.9c17.9,3.6,27.7,11.8,27.7,26.5c0,16.7-14.8,25.5-34.4,25.5
			C1223.2,211.9,1211.5,206.7,1204.6,200z"/>
	</g>
	<path class="st1" d="M315.1,209.6L209.5,0L0,105.6l79,156.8H25.2V285h288.4v-22.6H210.3L315.1,209.6z M30.4,115.6l169.1-85.2
		l85.2,169.1l-124.8,62.8h-55.6L30.4,115.6z"/>
</g>
<g id="Clear_space">
</g>
</svg>
