<?xml version="1.0" encoding="utf-8"?>
<!-- Generator: Adobe Illustrator 27.6.1, SVG Export Plug-In . SVG Version: 6.00 Build 0)  -->
<svg version="1.1" id="Layer_1" xmlns="http://www.w3.org/2000/svg" xmlns:xlink="http://www.w3.org/1999/xlink" x="0px" y="0px"
	 viewBox="0 0 772 234" style="enable-background:new 0 0 772 234;" xml:space="preserve">
<style type="text/css">
	.st0{fill:#FFFFFF;}
</style>
<path class="st0" d="M42.6,40.8H22.5v10.3H45v12.3H7.4v-56h36.4v12.2H22.5v9.1h20.1V40.8z"/>
<path class="st0" d="M53.3,63.4v-56H71l8.9,17.2c3.4,6.3,6.3,12.9,8.8,19.6H89c-0.8-7.8-1.2-15.7-1.2-23.6V7.3h13.7v56H85.8
	l-9.5-18.6c-3.5-6.6-6.7-13.4-9.5-20.3h-0.2c0.3,7.6,0.5,16,0.5,25.1v13.8L53.3,63.4z"/>
<path class="st0" d="M112.9,48.4c4.5,2.2,9.5,3.4,14.6,3.5c5.1,0,7.6-1.8,7.6-4.6s-2.5-4.3-8.8-6.5c-9.5-3.3-15.7-8.6-15.7-16.9
	c0-9.9,8.3-17.5,22.4-17.5c5.2-0.1,10.4,0.9,15.2,2.9l-3.2,12c-3.8-1.8-8-2.7-12.2-2.7c-4.6,0-7.1,1.7-7.1,4.2c0,2.8,3,4,10.1,6.6
	c10.1,3.7,14.6,9.1,14.6,16.9c0,9.6-7.6,17.9-23.9,17.9c-6.7,0-13.3-1.7-16.5-3.4L112.9,48.4z"/>
<path class="st0" d="M193.8,40.8h-20.1v10.3h22.5v12.3h-37.6v-56H195v12.2h-21.4v9.1h20.1V40.8z"/>
<path class="st0" d="M251.9,43.3c-0.2-6.4-0.3-13.9-0.2-22.6h-0.2c-1.7,7.4-4.1,15.8-5.9,22l-5.6,19.5h-11.7l-4.7-19.5
	c-1.4-6.1-3.2-14.4-4.4-22h-0.2c-0.3,7.9-0.7,16.2-0.9,22.6l-0.8,20h-13.8l3.4-56h20.2l3.7,15c1.5,6.2,3.2,13.7,4.3,20.5h0.3
	c1.6-6.8,3.4-14.7,5.1-20.6l4.2-15h19.8l2.8,56h-14.6L251.9,43.3z"/>
<path class="st0" d="M276.4,8.1c5.9-0.8,11.8-1.2,17.7-1.2c8,0,12.7,0.5,17.1,2.7c4.6,2,7.5,6.4,7.6,11.4c0,4.7-2.6,9.3-9.1,11.8
	v0.2c6.9,1.9,11,7,11,13.6c0,4.8-2.3,9.4-6.2,12.2c-4.2,3.1-11.2,5-23.2,5c-4.9,0.1-9.9-0.2-14.8-0.9L276.4,8.1z M291.3,28.9h3
	c6.4,0,9.5-2.2,9.5-5.8c0-3.3-2.5-5.4-7.6-5.4c-1.6,0-3.3,0.1-4.9,0.3L291.3,28.9z M291.3,52.8c1.4,0.2,2.9,0.2,4.3,0.2
	c5,0,9.2-2,9.2-6.9c0-4.7-4.3-6.6-10-6.6h-3.6L291.3,52.8z"/>
<path class="st0" d="M328.9,7.3h15v43.5h21.5v12.6h-36.5V7.3z"/>
<path class="st0" d="M407.9,40.8h-20.1v10.3h22.5v12.3h-37.6v-56h36.4v12.2h-21.4v9.1h20.1V40.8z"/>
<path class="st0" d="M435.1,8.1c6.1-0.9,12.3-1.3,18.5-1.2c8.1,0,13.8,1.4,17.7,4.4c4.1,3.3,6.5,8.3,6.4,13.6
	c0,5.6-1.9,10.6-5.4,13.8c-4.6,4.1-11.1,5.8-18.7,5.8c-1.4,0-2.7-0.1-3.7-0.2v19h-14.9V8.1z M450,32.9c1.1,0.1,2.3,0.2,3.4,0.2
	c5.9,0,9.6-3,9.6-7.8c0-4.2-2.8-7-8.5-7c-1.5,0-3,0.1-4.5,0.3V32.9z"/>
<path class="st0" d="M537.9,34.8c0,18-10.8,29.5-28.1,29.5s-26.9-13.1-26.9-28.6c0-16.3,10.7-29.3,27.8-29.3
	C528.7,6.4,537.9,19.8,537.9,34.8z M498.7,35.4c0,10.5,4.6,17,11.8,17S522,45.3,522,35.3c0-9.6-4.3-17-11.6-17
	S498.7,25.1,498.7,35.4z"/>
<path class="st0" d="M560.8,7.3v31.8c0,8.5,2.9,13.3,8.8,13.3s8.9-4.4,8.9-13.3V7.3h15v30.9c0,17.3-8.6,26-24.4,26
	c-15.4,0-23.4-8.4-23.4-26.4V7.3H560.8z"/>
<path class="st0" d="M603.8,8.1c6-0.8,12.1-1.2,18.1-1.2c8.6,0,14.7,1.2,19,4.3c3.6,2.7,5.6,6.7,5.6,12.2c0,7-5.2,12-9.6,13.6v0.3
	c3.7,1.6,5.7,5.1,7.2,10c1.7,5.7,3.6,13.9,4.7,16.1h-15.4c-0.8-1.7-2.2-6-3.9-12.9c-1.5-6.7-3.6-8.1-8.2-8.1h-2.4v21h-14.9V8.1z
	 M618.7,31.6h3.9c5.7,0,8.9-2.8,8.9-7s-2.8-6.6-7.7-6.7c-1.7-0.1-3.4,0.1-5.1,0.3V31.6z"/>
<path class="st0" d="M671.5,7.3h15v43.5h21.5v12.6h-36.5V7.3z"/>
<path class="st0" d="M730.7,50.4l-3.2,13H712l16.3-56h20l16.7,56h-16.2l-3.6-13H730.7z M743.1,39.3l-2.6-10.1
	c-0.8-3.2-1.9-7.7-2.7-11.1h-0.2c-0.8,3.3-1.7,8-2.5,11.1l-2.4,10L743.1,39.3z"/>
<path class="st0" d="M319.7,132.8c-10.1,0-16.5,9.6-16.5,24.1c0,14.7,6.4,23.9,16.6,23.9s16.2-9.9,16.2-24.1
	C336,143.1,329.9,132.8,319.7,132.8z"/>
<path class="st0" d="M468.1,132.3c-2.4-0.1-4.8,0.1-7.1,0.5v18.7h5.5c8,0,12.5-4,12.5-9.8S475.1,132.4,468.1,132.3z"/>
<path class="st0" d="M544,132.5h-0.2c-1.2,4.7-2.3,11.2-3.5,15.7l-3.4,14h14.6l-3.6-14.1C546.7,143.7,545.2,137.2,544,132.5z"/>
<path class="st0" d="M6.4,86.9v140.7h760V86.9H6.4z M144.2,98.4h21.5l-14.2,14.7h-16.7L144.2,98.4z M93.3,187.3
	c-8.7,6.8-21.5,9.7-37,9.7c-10.2,0-17-0.6-21.1-1.3v-77.3c8.3-1.2,16.7-1.7,25.2-1.6c15.1,0,24.6,2.4,32.4,7.8
	c8.7,6,14.3,15.8,14.3,30.3C107.1,170.9,101.1,181.3,93.3,187.3z M171.3,196.2h-52.9v-78.9h51.2v17.2h-30.1v12.8h28.3v17.1h-28.3
	v14.5h31.7V196.2z M250.6,196.2l-0.9-28.2c-0.2-9-0.5-19.5-0.4-31.8h-0.4c-2.5,10.4-5.7,22.2-8.3,30.9l-7.8,27.5h-16.5l-6.7-27.4
	c-2-8.5-4.5-20.2-6.2-31h-0.2c-0.5,11.1-0.9,22.8-1.3,31.8l-1.2,28.2h-19.4l4.8-78.9h28.4l5.3,21.2c2.1,8.8,4.4,19.3,6.1,28.9h0.5
	c2.2-9.6,4.8-20.7,7.1-29l5.9-21.1h27.8l4,78.9L250.6,196.2z M318.8,197.5c-24.5,0-37.9-18.4-37.9-40.2c0-22.9,15.1-41.2,39.2-41.2
	c25.4,0,38.3,18.8,38.3,39.9C358.3,181.3,343.1,197.5,318.8,197.5L318.8,197.5z M411.6,179.9c4.8,0,9.6-0.8,14.2-2.3l2.9,16.6
	c-3,1.4-10.4,3.2-19.9,3.2c-29.5,0-42.5-18.4-42.5-39.3c0-27.9,20.4-42,43.9-42c9.1,0,16.5,1.8,19.8,3.5l-4.1,16.6
	c-4.6-1.9-9.6-2.8-14.6-2.8c-12.2,0-22.7,7.1-22.7,23.3C388.5,171,397,179.9,411.6,179.9L411.6,179.9z M481.4,196.2
	c-1.2-2.3-3.2-8.4-5.5-18.1c-2.1-9.5-5-11.5-11.6-11.5h-3.4v29.6H440v-77.8c8.5-1.2,17-1.7,25.5-1.6c12,0,20.7,1.6,26.7,6.1
	c5,3.9,7.8,9.5,7.8,17.2c0,9.8-7.4,16.9-13.6,19.1v0.5c5.3,2.2,8.1,7.3,10.1,14c2.5,8.1,5,19.5,6.5,22.6L481.4,196.2z M559.4,196.2
	l-5-18.2H534l-4.4,18.2h-21.9l22.9-78.9h28.1l23.5,78.9H559.4z M639.2,135h-20.4v61.2h-21.2V135h-20.1v-17.7h61.8L639.2,135z
	 M670.1,196.2h-21.1v-78.9h21.2L670.1,196.2z M737.5,196.2h-52.9v-78.9h51.2v17.2h-30.1v12.8h28.3v17.1h-28.3v14.5h31.7L737.5,196.2
	z"/>
<path class="st0" d="M62.9,132.9c-2.2-0.1-4.3,0.1-6.4,0.5v47c1.5,0.2,3,0.3,4.4,0.2c13.7,0.2,23.8-7.4,23.8-25.1
	C84.7,140.2,75.6,132.9,62.9,132.9z"/>
</svg>
