<?xml version="1.0" encoding="utf-8"?>
<!-- Generator: Adobe Illustrator 27.7.0, SVG Export Plug-In . SVG Version: 6.00 Build 0)  -->
<svg version="1.1" id="Camada_1" xmlns="http://www.w3.org/2000/svg" xmlns:xlink="http://www.w3.org/1999/xlink" x="0px" y="0px"
	 viewBox="0 0 1744.4 288.7" style="enable-background:new 0 0 1744.4 288.7;" xml:space="preserve">
<style type="text/css">
	.st0{fill:#0C4DA2;}
	.st1{fill:#FFFFFF;}
	.st2{fill:#FFF200;}
</style>
<g id="Elements">
	<g>
		<g>
			<g>
				<path class="st0" d="M390.5,150h-12l-4,14H355l3.9-14h-8.7v-16.4h13.3l4-14.6h-11.4V103h16l4.2-15h19.6l-4.2,15h11.9l4.2-15
					h19.5l-4.2,15h9.9v16.1h-14.4l-4,14.6h12.4V150h-17.1l-3.8,14h-19.4L390.5,150z M395.1,133.7l4.1-14.6h-12l-4.1,14.6H395.1z"/>
				<path class="st0" d="M439.2,84.4h23.4l13.7,53.1l11.8-53.1h19.6l12.1,53.1l13.6-53.1h23.4l-23.6,81.2h-23.1L498,121.8
					l-12.3,43.8h-23.1L439.2,84.4z"/>
				<path class="st0" d="M585,84.2l14.2,28.7l13.8-28.7h25.4l-28.1,51.3v29.9h-22.5v-30.3l-28.1-51L585,84.2L585,84.2z"/>
				<path class="st0" d="M666.8,128.9v36.7h-22.5V84.4h22.5v35.1l24-35.1h25.8l-28.1,39.8l29,41.4h-25.8L666.8,128.9z"/>
				<path class="st0" d="M716.4,125c0-24.4,17.9-42.2,42.4-42.2s42.4,17.7,42.4,42c0,24.5-17.9,42.3-42.6,42.3
					C734.3,167.1,716.4,149.4,716.4,125z M778.1,125c0-12.4-8-21.5-19.2-21.5c-11.2,0-19.4,9-19.4,21.4c0,12.5,8.3,21.5,19.4,21.5
					C770,146.4,778.1,137.3,778.1,125z"/>
				<path class="st0" d="M811.7,84.4h34.8c18.9,0,31.3,10.5,31.3,26.3c0,11.9-6.8,20.7-18.3,24.4l20,30.4h-25.6L835.5,137h-1.3v28.5
					h-22.5L811.7,84.4L811.7,84.4z M845.9,119.6c5.7,0,9.4-3.4,9.4-8.5c0-4.9-3.7-8.3-9.4-8.3h-11.7v16.8L845.9,119.6L845.9,119.6z"
					/>
				<path class="st0" d="M884.4,151.2l35.8-47.9h-34.7V84.2h64.3v14.3l-35.7,48h36.6v19h-66.2L884.4,151.2L884.4,151.2z"/>
				<path class="st0" d="M979.4,84.2l14.2,28.7l13.8-28.7h25.4l-28.1,51.3v29.9h-22.5v-30.3l-28.1-51L979.4,84.2L979.4,84.2z"/>
				<path class="st0" d="M1030.8,155.2l11.9-15.8c4.9,5.3,12.7,8.7,20.4,8.7c5.1,0,10-1.6,10-6.5c0-5.2-4.4-6.7-12.7-8.4
					c-17.3-3.5-27.3-10.3-27.3-24.8c0-16.6,15-25.6,32.8-25.6c12.4,0,22.5,3.5,29.8,10.7l-11.7,15c-6.2-4.7-12.1-6.9-17.9-6.9
					c-5.3,0-9.3,1.6-9.3,5.5s3.1,5.9,12.5,7.9c17.9,3.6,27.7,11.8,27.7,26.5c0,16.7-14.8,25.5-34.4,25.5
					C1049.4,167.1,1037.8,161.9,1030.8,155.2z"/>
				<path class="st0" d="M1144.7,105.1v60.5h-22.5v-60.5h-23.1V84.3h68.5v20.8L1144.7,105.1L1144.7,105.1z"/>
				<path class="st0" d="M1188.6,84.4h27.1l29.8,81.1H1222l-5.1-14.8h-30.2l-5.1,14.8h-23.1L1188.6,84.4z M1201.8,107.1l-8.5,25
					h17.2l-8.5-25H1201.8z"/>
				<path class="st0" d="M1246.2,150.2l17.8-10c1.8,3.9,5.3,5.8,9.4,5.8c5.4,0,8.9-3.9,8.9-9.9V84.2h22.5v51.3
					c0,19.1-11.2,31.5-29.6,31.5C1261.5,167.1,1251.4,161.5,1246.2,150.2z"/>
				<path class="st0" d="M349.3,272.7l11.9-15.8c4.9,5.3,12.7,8.7,20.4,8.7c5,0,10-1.6,10-6.5c0-5.2-4.5-6.7-12.7-8.4
					c-17.3-3.5-27.3-10.3-27.3-24.8c0-16.6,15-25.6,32.8-25.6c12.4,0,22.5,3.5,29.8,10.7l-11.7,15c-6.2-4.7-12.1-6.9-17.9-6.9
					c-5.3,0-9.3,1.6-9.3,5.5s3.1,5.9,12.5,7.9c17.9,3.6,27.7,11.8,27.7,26.5c0,16.7-14.8,25.5-34.4,25.5
					C367.9,284.6,356.3,279.4,349.3,272.7z"/>
				<path class="st0" d="M416.5,201.9h23.4l13.7,53.1l11.8-53.1H485l12.1,53.1l13.6-53.1h23.4L510.6,283h-23.1l-12.3-43.8L463,283
					h-23.1L416.5,201.9z"/>
				<path class="st0" d="M534.5,242.5c0-24.4,17.9-42.2,42.4-42.2s42.4,17.7,42.4,42c0,24.5-17.9,42.3-42.6,42.3
					C552.5,284.6,534.5,266.9,534.5,242.5z M596.2,242.5c0-12.4-8-21.5-19.2-21.5c-11.2,0-19.4,9-19.4,21.4
					c0,12.5,8.3,21.5,19.4,21.5C588.2,263.9,596.2,254.8,596.2,242.5z M560.6,185.8l26.8-14.8l9.9,14.4L568,197.7L560.6,185.8z"/>
				<path class="st0" d="M620.9,267.8l17.8-10c1.8,3.9,5.3,5.8,9.4,5.8c5.4,0,8.9-3.9,8.9-9.9v-51.9h22.5v51.3
					c0,19.1-11.2,31.5-29.6,31.5C636.2,284.6,626.1,279,620.9,267.8z"/>
				<path class="st0" d="M720.2,242.5c0-26.6,20-42.2,41.7-42.2c13.5,0,25.4,6.1,32.8,16.2l-15.4,12.9c-3.8-5-10.8-8.5-17.2-8.5
					c-9.7,0-19.4,6.6-19.4,21.8c0,14.2,8.8,21.6,19.1,21.6c8.3,0,14.8-4.3,17.7-10.8h-19.5v-17.5h42.6v0.1v6.2
					c0,24.5-16.5,42.3-40.8,42.3C737.9,284.6,720.2,267.8,720.2,242.5z"/>
				<path class="st0" d="M815.4,254.6l-8.7,5.9v-13.5l8.7-5.6v-39.7h22.4v27.6l22-13.7V229l-22,14.3v19.1H872V283h-56.6V254.6z"/>
				<path class="st0" d="M874.8,242.5c0-24.4,17.9-42.2,42.4-42.2s42.4,17.7,42.4,42c0,24.5-17.9,42.3-42.6,42.3
					C892.7,284.6,874.8,266.9,874.8,242.5z M936.5,242.5c0-12.4-8.1-21.5-19.2-21.5c-11.2,0-19.4,9-19.4,21.4
					c0,12.5,8.3,21.5,19.4,21.5C928.4,263.9,936.5,254.8,936.5,242.5z"/>
				<path class="st0" d="M964,272.7l11.9-15.8c4.9,5.3,12.7,8.7,20.4,8.7c5.1,0,10-1.6,10-6.5c0-5.2-4.4-6.7-12.7-8.4
					c-17.3-3.5-27.3-10.3-27.3-24.8c0-16.6,15-25.6,32.8-25.6c12.4,0,22.5,3.5,29.8,10.7l-11.7,15c-6.2-4.7-12.1-6.9-17.9-6.9
					c-5.3,0-9.3,1.6-9.3,5.5s3.1,5.9,12.5,7.9c17.9,3.6,27.6,11.8,27.6,26.5c0,16.7-14.8,25.5-34.4,25.5
					C982.6,284.6,971,279.4,964,272.7z"/>
			</g>
		</g>
	</g>
	<g>
		<rect x="1388.9" y="51.6" class="st1" width="355.5" height="237.2"/>
		<rect x="1393.6" y="56.2" class="st0" width="346.2" height="227.8"/>
		<polygon class="st2" points="1566.5,77.3 1569.9,87.9 1580.9,87.8 1571.9,94.2 1575.4,104.8 1566.5,98.2 1557.6,104.8 
			1561.1,94.2 1552.1,87.8 1563.1,87.9 		"/>
		<polygon class="st2" points="1566.5,235.5 1569.9,246 1580.9,246 1571.9,252.5 1575.4,263 1566.5,256.4 1557.6,263 1561.1,252.5 
			1552.1,246 1563.1,246 		"/>
		<polygon class="st2" points="1527.1,87.9 1530.5,98.4 1541.6,98.3 1532.6,104.8 1536.1,115.2 1527.1,108.7 1518.3,115.2 
			1521.7,104.8 1512.8,98.3 1523.8,98.4 		"/>
		<polygon class="st2" points="1498.2,116.9 1501.5,127.4 1512.6,127.3 1503.6,133.8 1507.1,144.3 1498.2,137.8 1489.3,144.3 
			1492.8,133.8 1483.7,127.3 1494.8,127.4 		"/>
		<polygon class="st2" points="1487.5,156.4 1490.8,166.9 1501.9,166.8 1492.9,173.3 1496.4,183.7 1487.5,177.2 1478.6,183.7 
			1482.1,173.3 1473.1,166.8 1484.1,166.9 		"/>
		<polygon class="st2" points="1498.1,195.8 1501.4,206.4 1512.5,206.3 1503.5,212.7 1507,223.2 1498.1,216.6 1489.2,223.2 
			1492.6,212.7 1483.6,206.3 1494.7,206.4 		"/>
		<polygon class="st2" points="1527.1,224.8 1530.5,235.3 1541.6,235.3 1532.6,241.7 1536.1,252.2 1527.1,245.7 1518.3,252.2 
			1521.7,241.7 1512.8,235.3 1523.8,235.3 		"/>
		<polygon class="st2" points="1605.9,87.9 1602.5,98.4 1591.5,98.3 1600.4,104.8 1597,115.2 1605.9,108.7 1614.8,115.2 
			1611.3,104.8 1620.3,98.3 1609.3,98.4 		"/>
		<polygon class="st2" points="1634.9,116.9 1631.5,127.4 1620.4,127.3 1629.4,133.8 1625.9,144.3 1634.9,137.8 1643.8,144.3 
			1640.3,133.8 1649.2,127.3 1638.2,127.4 		"/>
		<polygon class="st2" points="1645.5,156.4 1642.2,166.9 1631.1,166.8 1640.1,173.3 1636.6,183.7 1645.5,177.2 1654.4,183.7 
			1651,173.3 1659.9,166.8 1648.9,166.9 		"/>
		<polygon class="st2" points="1634.9,195.8 1631.6,206.4 1620.5,206.3 1629.5,212.7 1626,223.2 1634.9,216.6 1643.9,223.2 
			1640.4,212.7 1649.4,206.3 1638.3,206.4 		"/>
		<polygon class="st2" points="1605.9,224.8 1602.5,235.3 1591.5,235.3 1600.4,241.7 1597,252.2 1605.9,245.7 1614.8,252.2 
			1611.3,241.7 1620.3,235.3 1609.3,235.3 		"/>
	</g>
	<path class="st0" d="M315.1,209.5L209.6,0L0,105.6l79,156.8H25.2V285h288.4v-22.6H210.3L315.1,209.5z M30.4,115.6l169.1-85.2
		l85.2,169.1l-124.8,62.8h-55.6L30.4,115.6z"/>
</g>
<g id="Clear_space">
</g>
</svg>
