<?xml version="1.0" encoding="utf-8"?>
<!-- Generator: Adobe Illustrator 27.6.1, SVG Export Plug-In . SVG Version: 6.00 Build 0)  -->
<svg version="1.1" id="Layer_1" xmlns="http://www.w3.org/2000/svg" xmlns:xlink="http://www.w3.org/1999/xlink" x="0px" y="0px"
	 viewBox="0 0 771 244" style="enable-background:new 0 0 771 244;" xml:space="preserve">
<style type="text/css">
	.st0{fill:#FFFFFF;}
</style>
<path class="st0" d="M51.1,75.9l-15.6-68H55l4,25.2c1.2,7.9,2.4,17,3.5,23.9h0.2c1-7.7,2.4-15.9,3.9-24.1l4.3-25h19.5l4.2,26.2
	c1.2,7.8,2.1,14.7,3,22.4h0.2c1-7.6,2.2-15.6,3.4-23.6l4-25h18.5l-16.8,68H87.2l-4.5-26.6c-1-6-1.9-12.3-2.8-20.4h-0.2
	c-1.1,8.1-2,14.4-3.2,20.5l-5.1,26.6L51.1,75.9z"/>
<path class="st0" d="M131.6,57.7c5.5,2.7,11.5,4.2,17.7,4.2c6.3,0,9.3-2.1,9.3-5.6s-3-5.2-10.7-7.9c-11.5-4-19.1-10.4-19.1-20.5
	c0-12,10.1-21.3,27.3-21.3c8.2,0,13.9,1.5,18.5,3.5l-3.8,14.5c-4.7-2.1-9.7-3.2-14.8-3.2c-5.5,0-8.6,2-8.6,5c0,3.4,3.6,4.8,12.2,8.1
	c12.2,4.4,17.8,11,17.8,20.5c0,11.7-9.2,21.7-29.1,21.7c-8.2,0-16.2-2.1-20-4.1L131.6,57.7z"/>
<path class="st0" d="M187.1,8.8c7.5-1.1,15-1.5,22.5-1.4c9.8,0,16.8,1.7,21.5,5.3c5,4,7.9,10.1,7.8,16.5c0,6.9-2.3,12.9-6.6,16.8
	c-5.5,5-13.5,7.1-22.7,7.1c-1.7,0-3.3-0.1-4.5-0.2v23.1h-18.1V8.8z M205.1,38.9c1.4,0.1,2.8,0.2,4.1,0.2c7.2,0,11.6-3.6,11.6-9.5
	c0-5.1-3.4-8.5-10.3-8.5c-1.8,0-3.7,0.1-5.5,0.4V38.9z"/>
<path class="st0" d="M311.8,41.2c0,21.9-13.1,35.8-34.1,35.8S245,61.2,245,42.3c0-19.8,13-35.5,33.8-35.5
	C300.7,6.8,311.8,23,311.8,41.2z M264.3,42c0,12.7,5.5,20.6,14.3,20.6s13.9-8.6,13.9-20.8c0-11.7-5.2-20.6-14-20.6
	S264.3,29.5,264.3,42z"/>
<path class="st0" d="M321.5,7.9h18.3v52.8H366v15.2h-44.5V7.9z"/>
<path class="st0" d="M374.8,75.9v-68h21.5l10.8,20.9c4.1,7.7,7.7,15.7,10.7,23.8h0.3c-1-9.5-1.5-19.1-1.4-28.7V8h16.7v68h-19.2
	l-11.5-22.7c-4.3-8-8.1-16.2-11.5-24.6h-0.3c0.4,9.2,0.6,19.5,0.6,30.5v16.8H374.8z"/>
<path class="st0" d="M464.3,7.9v68H446v-68L464.3,7.9z"/>
<path class="st0" d="M519.5,48.4h-24.4V61h27.4v14.9h-45.6v-68H521v14.8h-25.9v11h24.4V48.4z"/>
<path class="st0" d="M552.5,8.8c7.2-1,14.4-1.5,21.7-1.4c13,0,21.2,2.1,28,6.8c7.5,5.2,12.3,13.6,12.3,26.2c0,13.8-5.2,22.8-11.9,28
	c-7.5,5.9-18.6,8.4-31.9,8.4c-6.1,0.1-12.2-0.3-18.2-1.1L552.5,8.8z M570.8,62.3c1.3,0.2,2.6,0.3,3.8,0.2
	c11.8,0.2,20.5-6.4,20.5-21.7c0-13.2-7.9-19.5-18.8-19.5c-1.9-0.1-3.7,0.1-5.6,0.4V62.3z"/>
<path class="st0" d="M624.2,7.9h18.3v52.8h26.2v15.2h-44.4V7.9z"/>
<path class="st0" d="M696.1,60.2l-3.8,15.8h-18.9l19.8-68h24.2l20.3,68H718l-4.3-15.8H696.1z M711.1,46.6L708,34.4
	c-1-3.8-2.3-9.4-3.3-13.4h-0.2c-1,4-2,9.7-3,13.5l-2.9,12.1H711.1z"/>
<path class="st0" d="M320.4,144.8c-10.1,0-16.5,9.6-16.5,24.1c0,14.7,6.4,23.9,16.6,23.9s16.1-10,16.1-24.1
	C336.7,155.1,330.6,144.8,320.4,144.8z"/>
<path class="st0" d="M473.9,144.3c-2.4-0.1-4.8,0.1-7.1,0.5v18.7h5.5c8,0,12.5-4,12.5-9.8S481,144.4,473.9,144.3z"/>
<path class="st0" d="M549.9,144.5h-0.2c-1.2,4.7-2.3,11.2-3.5,15.7l-3.4,14h14.6l-3.6-14.1C552.5,155.7,551,149.2,549.9,144.5z"/>
<path class="st0" d="M63.6,144.9c-2.2-0.1-4.3,0.1-6.4,0.5v47c1.5,0.2,3,0.3,4.4,0.2c13.7,0.2,23.8-7.4,23.8-25.1
	C85.4,152.2,76.3,144.9,63.6,144.9z"/>
<path class="st0" d="M6.5,98.9v140.7h760V98.9H6.5z M94.1,199.3c-8.7,6.8-21.5,9.7-37,9.7c-10.2,0-17-0.6-21.1-1.3v-77.3
	c8.3-1.2,16.7-1.7,25.1-1.6c15.1,0,24.6,2.4,32.4,7.8c8.7,6,14.3,15.8,14.3,30.3C107.9,182.9,101.8,193.3,94.1,199.3z M172,208.2
	h-52.9v-78.9h51.3v17.2h-30.1v12.8h28.3v17.1h-28.3v14.5H172V208.2z M251.3,208.2l-0.9-28.2c-0.2-9-0.5-19.5-0.4-31.8h-0.4
	c-2.5,10.4-5.7,22.2-8.3,30.9l-7.8,27.5H217l-6.7-27.4c-2-8.5-4.5-20.2-6.2-31h-0.2c-0.5,11.1-0.9,22.8-1.3,31.8l-1.2,28.2H182
	l4.8-78.9h28.4l5.3,21.2c2.1,8.8,4.5,19.3,6.1,28.9h0.5c2.2-9.6,4.8-20.7,7.1-29l5.9-21.1h27.9l4,78.9L251.3,208.2z M319.5,209.5
	c-24.5,0-37.9-18.4-37.9-40.2c0-22.9,15.1-41.2,39.2-41.2c25.4,0,38.3,18.8,38.3,39.9C359,193.3,343.8,209.5,319.5,209.5
	L319.5,209.5z M414.2,208.2l-16.6-31.9l-6.3,8.1v23.9h-21v-78.9h21v33.5h0.2c1.6-2.9,3.4-5.9,5.1-8.7l15.1-24.8h26l-25,33.6l26,45.3
	H414.2z M487.3,208.2c-1.2-2.3-3.2-8.4-5.5-18.1c-2.1-9.5-5-11.5-11.6-11.5h-3.4v29.6h-21v-77.8c8.5-1.2,17-1.7,25.5-1.6
	c12,0,20.7,1.6,26.7,6.1c5,3.9,7.8,9.5,7.8,17.2c0,9.8-7.4,16.9-13.6,19.1v0.5c5.3,2.2,8.1,7.3,10.1,14c2.5,8.1,5,19.5,6.6,22.6
	L487.3,208.2z M565.3,208.2l-5-18.2h-20.4l-4.5,18.2h-21.9l22.9-78.9h28.1l23.5,78.9H565.3z M636.8,191.9c4.8,0,9.6-0.8,14.2-2.3
	l2.9,16.6c-3,1.4-10.4,3.2-19.9,3.2c-29.5,0-42.5-18.4-42.5-39.3c0-27.9,20.4-42,43.9-42c9.1,0,16.5,1.8,19.8,3.5l-4.1,16.6
	c-4.6-1.9-9.6-2.8-14.6-2.8c-12.2,0-22.7,7.1-22.7,23.3C613.7,183,622.3,191.9,636.8,191.9L636.8,191.9z M702.9,178
	c0,22.9-11,31.5-30,31.5c-4.7,0-9.4-0.6-13.9-1.9l2.2-17c3,0.8,6.1,1.3,9.2,1.3c6.8,0,11.2-3,11.2-13.9v-48.7h21.2V178z M738,208.2
	h-21.2v-78.9H738V208.2z"/>
</svg>
