<?xml version="1.0" encoding="utf-8"?>
<!-- Generator: Adobe Illustrator 27.6.1, SVG Export Plug-In . SVG Version: 6.00 Build 0)  -->
<svg version="1.1" id="Layer_1" xmlns="http://www.w3.org/2000/svg" xmlns:xlink="http://www.w3.org/1999/xlink" x="0px" y="0px"
	 viewBox="0 0 840 236" style="enable-background:new 0 0 840 236;" xml:space="preserve">
<style type="text/css">
	.st0{fill:#FFFFFF;}
</style>
<path class="st0" d="M6.6,7.7h15.8v45.8h22.7v13.2H6.6V7.7z"/>
<path class="st0" d="M89.8,42.9H68.6v10.9h23.7v12.9H52.8v-59h38.3v12.9H68.6v9.5h21.2V42.9z"/>
<path class="st0" d="M145.3,65.2c-2.3,1-7.8,2.4-14.9,2.4c-22,0-31.8-13.7-31.8-29.4c0-20.8,15.2-31.4,32.8-31.4
	c6.8,0,12.3,1.3,14.8,2.6l-3.1,12.4c-3.5-1.4-7.2-2.1-10.9-2.1c-9.1,0-17,5.3-17,17.4c0,10.8,6.4,17.4,17.2,17.4
	c3.6,0,7.2-0.6,10.6-1.8L145.3,65.2z"/>
<path class="st0" d="M169.6,7.7v21.8h19.2V7.7h15.7v59h-15.7V43.3h-19.2v23.4h-15.8v-59L169.6,7.7z"/>
<path class="st0" d="M252.5,42.9h-21.2v10.9H255v12.9h-39.6v-59h38.3v12.9h-22.5v9.5h21.2V42.9z"/>
<path class="st0" d="M279.6,7.7v59h-15.8v-59H279.6z"/>
<path class="st0" d="M290.4,7.7h15.8v45.8h22.7v13.2h-38.5V7.7z"/>
<path class="st0" d="M373.6,42.9h-21.2v10.9h23.7v12.9h-39.5v-59h38.3v12.9h-22.5v9.5h21.2L373.6,42.9z"/>
<path class="st0" d="M417.7,53.1l-3.3,13.6H398l17.1-59h21l17.6,59h-17.1l-3.8-13.6H417.7z M430.7,41.4L428,30.7
	c-0.9-3.3-2-8.1-2.9-11.6H425c-0.9,3.5-1.8,8.4-2.6,11.7l-2.5,10.5L430.7,41.4z"/>
<path class="st0" d="M461.3,8.5c6.3-0.9,12.7-1.3,19.1-1.2c9,0,15.5,1.2,20,4.6c3.8,2.9,5.9,7.1,5.9,12.9c0,7.4-5.5,12.6-10.2,14.3
	v0.4c3.9,1.7,6,5.4,7.5,10.5c1.8,6,3.8,14.6,4.9,16.9h-16.2c-0.9-1.8-2.4-6.3-4.1-13.6c-1.6-7.1-3.8-8.6-8.7-8.6h-2.5v22.1h-15.7
	V8.5z M476.9,33.3h4.1c6,0,9.4-3,9.4-7.4s-2.9-6.9-8.1-7c-1.8-0.1-3.6,0.1-5.3,0.4L476.9,33.3z"/>
<path class="st0" d="M533.6,51c4.8,2.3,10,3.6,15.3,3.7c5.4,0,8-1.8,8-4.8s-2.6-4.5-9.3-6.8c-10-3.5-16.5-9-16.5-17.8
	c0-10.4,8.8-18.4,23.6-18.4c5.5-0.1,10.9,0.9,16,3.1l-3.3,12.6c-4-1.8-8.4-2.8-12.9-2.8c-4.8,0-7.4,1.8-7.4,4.4c0,3,3.2,4.2,10.6,7
	c10.6,3.9,15.4,9.5,15.4,17.8c0,10.1-8,18.8-25.2,18.8c-7.1,0-14-1.8-17.3-3.6L533.6,51z"/>
<path class="st0" d="M637.1,36.6c0,19-11.4,31.1-29.6,31.1s-28.3-13.7-28.3-30.1c0-17.1,11.3-30.8,29.3-30.8
	C627.5,6.8,637.1,20.9,637.1,36.6z M595.9,37.3c0,11,4.8,17.8,12.4,17.8s12.1-7.4,12.1-18c0-10.1-4.5-17.9-12.2-17.9
	S595.9,26.5,595.9,37.3L595.9,37.3z"/>
<path class="st0" d="M645.5,66.7v-59h18.6l9.4,18.1c3.5,6.7,6.6,13.6,9.3,20.6h0.2c-0.9-8.3-1.3-16.5-1.2-24.8V7.7h14.4v59h-16.6
	l-10-19.6c-3.7-6.9-7-14.1-10-21.3h-0.3c0.3,8,0.5,16.9,0.5,26.4v14.5H645.5z"/>
<path class="st0" d="M740,53.1l-3.3,13.6h-16.3l17.1-59h21l17.6,59h-17l-3.8-13.6H740z M753,41.4l-2.7-10.6c-0.9-3.3-2-8.1-2.9-11.6
	h-0.2c-0.9,3.5-1.8,8.4-2.6,11.7l-2.5,10.5H753z"/>
<path class="st0" d="M783.6,66.7v-59h18.6l9.4,18.1c3.5,6.7,6.6,13.6,9.3,20.6h0.3c-0.9-8.3-1.3-16.5-1.2-24.8V7.7h14.4v59h-16.6
	l-10-19.6c-3.7-6.9-7-14.1-10-21.3h-0.3c0.3,8,0.5,16.9,0.5,26.4v14.5H783.6z"/>
<path class="st0" d="M670.4,135.5h-0.2c-1.2,4.7-2.3,11.2-3.5,15.7l-3.4,14h14.6l-3.6-14.1C673.1,146.7,671.6,140.2,670.4,135.5z"/>
<path class="st0" d="M146.3,135.5h-0.2c-1.2,4.7-2.3,11.2-3.5,15.7l-3.4,14h14.6l-3.6-14.1C149,146.7,147.5,140.2,146.3,135.5z"/>
<path class="st0" d="M452.3,135.5h-0.2c-1.2,4.7-2.3,11.2-3.5,15.7l-3.4,14h14.6l-3.6-14.1C455,146.7,453.5,140.2,452.3,135.5z"/>
<path class="st0" d="M226.8,135.8c-10.1,0-16.5,9.6-16.5,24.1c0,14.7,6.4,23.9,16.6,23.9s16.1-10,16.1-24.1
	C243,146.1,237,135.8,226.8,135.8z"/>
<path class="st0" d="M62.1,135.9c-2.2-0.1-4.3,0.1-6.4,0.5v47c1.5,0.2,3,0.3,4.4,0.2c13.7,0.2,23.8-7.4,23.8-25.1
	C83.8,143.2,74.7,135.9,62.1,135.9z"/>
<path class="st0" d="M5.9,89.9v140.7h828.2V89.9H5.9z M92.5,190.3c-8.7,6.8-21.5,9.7-37,9.7c-10.2,0-17-0.6-21.1-1.3v-77.3
	c8.3-1.2,16.7-1.7,25.2-1.6c15.1,0,24.6,2.4,32.4,7.8c8.7,6,14.3,15.8,14.3,30.3C106.3,173.9,100.2,184.3,92.5,190.3z M161.7,199.2
	l-5-18.2h-20.4l-4.4,18.2H110l23-78.9h28l23.5,78.9L161.7,199.2z M225.8,200.5c-24.5,0-37.9-18.4-37.9-40.2
	c0-22.9,15.1-41.2,39.2-41.2c25.4,0,38.3,18.8,38.3,39.9C265.4,184.3,250.2,200.5,225.8,200.5L225.8,200.5z M344.5,199.2h-22.2
	L308.9,173c-5-9.3-9.4-18.8-13.3-28.5h-0.4c0.5,10.6,0.7,22.6,0.7,35.3v19.4h-19.3v-78.9h24.9l12.5,24.2c4.7,8.9,8.9,18.2,12.4,27.6
	h0.4c-1.2-11-1.7-22.1-1.6-33.2v-18.6h19.3L344.5,199.2z M410.6,199.2h-51.5v-78.9h21.2v61.2h30.3V199.2z M467.8,199.2l-5-18.2
	h-20.4l-4.4,18.2h-21.9l22.9-78.9h28.1l23.5,78.9L467.8,199.2z M547.6,138h-20.5v61.2h-21.2V138h-20.1v-17.7h61.8V138z M625.2,199.2
	h-21.1V168h-25.6v31.2h-21.2v-78.9h21.2v29.1h25.6v-29.1h21.1V199.2z M685.9,199.2l-5-18.2h-20.4l-4.5,18.2h-21.8l22.9-78.9h28.1
	l23.5,78.9L685.9,199.2z M739.9,199.2h-21.1v-78.9h21.2L739.9,199.2z M775,200.4c-9.5,0-18.7-2.5-23.2-4.8l4-17.4
	c6.4,3.2,13.4,4.9,20.5,5c7.2,0,10.8-2.5,10.8-6.4s-3.5-6.1-12.4-9.1c-13.3-4.7-22.1-12.1-22.1-23.8c0-13.9,11.7-24.7,31.6-24.7
	c9.5,0,16.2,1.8,21.4,4.1l-4.4,16.9c-5.4-2.5-11.3-3.7-17.2-3.7c-6.4,0-10,2.3-10,5.8c0,4,4.2,5.6,14.2,9.4
	c14.2,5.1,20.6,12.8,20.6,23.8C808.7,188.8,798.1,200.4,775,200.4z"/>
</svg>
