<?xml version="1.0" encoding="utf-8"?>
<!-- Generator: Adobe Illustrator 27.7.0, SVG Export Plug-In . SVG Version: 6.00 Build 0)  -->
<svg version="1.1" id="Camada_1" xmlns="http://www.w3.org/2000/svg" xmlns:xlink="http://www.w3.org/1999/xlink" x="0px" y="0px"
	 viewBox="0 0 1258.7 288.5" style="enable-background:new 0 0 1258.7 288.5;" xml:space="preserve">
<style type="text/css">
	.st0{fill:#0C4DA2;}
	.st1{fill:#FFFFFF;}
	.st2{fill:#FFF200;}
</style>
<g id="Elements">
	<g>
		<path class="st0" d="M389.6,187.8h-12l-4,14h-19.5l3.9-14h-8.7v-16.4h13.4l4-14.5h-11.4v-16.1h16l4.2-15H395l-4.2,15h11.9l4.2-15
			h19.5l-4.2,15h9.9v16.1h-14.4l-4,14.5H426v16.4h-17.1l-3.8,14h-19.4L389.6,187.8z M394.1,171.5l4.1-14.5h-12l-4.1,14.5H394.1z"/>
		<path class="st0" d="M442.9,122.2h38c17.3,0,28.2,7.6,28.2,20.6c0,8.4-4.6,15.1-12.5,18.3c9.1,2.8,15.3,9.5,15.3,19.8
			c0,14.1-11.1,22.5-30.2,22.5h-38.8V122.2z M478.3,154c5.4,0,8.8-2.5,8.8-6.9c0-4.5-3.4-7-8.9-7h-13.6V154L478.3,154L478.3,154z
			 M480.1,185.3c6.2,0,9.7-2.8,9.7-7.5c0-4.6-3.6-7.2-9.6-7.2h-15.6v14.7L480.1,185.3L480.1,185.3z"/>
		<path class="st0" d="M542.9,122.2h27l29.8,81.1h-23.4l-5-14.8h-30.2l-5,14.8H513L542.9,122.2z M556.1,144.9l-8.5,25h17.2l-8.5-25
			H556.1z"/>
		<path class="st0" d="M605.9,122h22.4v60.7h34.3v20.6h-56.6L605.9,122L605.9,122z"/>
		<path class="st0" d="M666.8,193l11.9-15.8c4.9,5.3,12.7,8.7,20.4,8.7c5,0,10-1.6,10-6.5c0-5.2-4.5-6.7-12.7-8.4
			c-17.3-3.5-27.3-10.3-27.3-24.8c0-16.6,15-25.6,32.8-25.6c12.4,0,22.5,3.5,29.8,10.7l-11.7,15c-6.2-4.7-12.1-6.9-17.9-6.9
			c-5.3,0-9.3,1.6-9.3,5.5s3.1,5.9,12.5,7.9c17.9,3.6,27.7,11.8,27.7,26.5c0,16.7-14.8,25.5-34.4,25.5
			C685.5,204.9,673.8,199.7,666.8,193z"/>
		<path class="st0" d="M736.9,162.8c0-24.4,17.9-42.2,42.4-42.2s42.4,17.7,42.4,42c0,24.5-17.9,42.3-42.6,42.3
			C754.8,204.9,736.9,187.2,736.9,162.8z M798.5,162.8c0-12.4-8.1-21.5-19.2-21.5s-19.4,9-19.4,21.4c0,12.5,8.3,21.5,19.4,21.5
			C790.5,184.2,798.5,175.1,798.5,162.8z"/>
	</g>
	<g>
		<rect x="903.3" y="51.3" class="st1" width="355.5" height="237.2"/>
		<rect x="907.9" y="56" class="st0" width="346.2" height="227.8"/>
		<polygon class="st2" points="1080.8,77.1 1084.2,87.6 1095.3,87.6 1086.3,94 1089.8,104.5 1080.8,98 1071.9,104.5 1075.4,94 
			1066.4,87.6 1077.5,87.6 		"/>
		<polygon class="st2" points="1080.8,235.3 1084.2,245.8 1095.3,245.7 1086.3,252.2 1089.8,262.7 1080.8,256.2 1071.9,262.7 
			1075.4,252.2 1066.4,245.7 1077.5,245.8 		"/>
		<polygon class="st2" points="1041.5,87.6 1044.9,98.1 1055.9,98.1 1047,104.5 1050.4,115 1041.5,108.5 1032.6,115 1036,104.5 
			1027.1,98.1 1038.1,98.1 		"/>
		<polygon class="st2" points="1012.5,116.7 1015.9,127.2 1026.9,127.1 1018,133.6 1021.4,144 1012.5,137.5 1003.6,144 
			1007.1,133.6 998.1,127.1 1009.2,127.2 		"/>
		<polygon class="st2" points="1001.9,156.1 1005.2,166.6 1016.3,166.5 1007.3,173 1010.7,183.5 1001.9,177 993,183.5 996.4,173 
			987.4,166.5 998.5,166.6 		"/>
		<polygon class="st2" points="1012.4,195.6 1015.8,206.1 1026.8,206 1017.9,212.5 1021.3,223 1012.4,216.4 1003.5,223 1007,212.5 
			998,206 1009,206.1 		"/>
		<polygon class="st2" points="1041.5,224.6 1044.9,235.1 1055.9,235 1047,241.5 1050.4,252 1041.5,245.5 1032.6,252 1036,241.5 
			1027.1,235 1038.1,235.1 		"/>
		<polygon class="st2" points="1120.2,87.6 1116.9,98.1 1105.8,98.1 1114.8,104.5 1111.3,115 1120.2,108.5 1129.1,115 1125.7,104.5 
			1134.6,98.1 1123.6,98.1 		"/>
		<polygon class="st2" points="1149.2,116.7 1145.8,127.2 1134.8,127.1 1143.7,133.6 1140.3,144 1149.2,137.5 1158.1,144 
			1154.6,133.6 1163.6,127.1 1152.6,127.2 		"/>
		<polygon class="st2" points="1159.9,156.1 1156.5,166.6 1145.5,166.5 1154.4,173 1151,183.5 1159.9,177 1168.8,183.5 1165.3,173 
			1174.3,166.5 1163.2,166.6 		"/>
		<polygon class="st2" points="1149.3,195.6 1145.9,206.1 1134.9,206 1143.9,212.5 1140.4,223 1149.3,216.4 1158.2,223 
			1154.8,212.5 1163.7,206 1152.7,206.1 		"/>
		<polygon class="st2" points="1120.2,224.6 1116.9,235.1 1105.8,235 1114.8,241.5 1111.3,252 1120.2,245.5 1129.1,252 
			1125.7,241.5 1134.6,235 1123.6,235.1 		"/>
	</g>
	<path class="st0" d="M315.1,209.5L209.6,0L0,105.6l79,156.8H25.2V285h288.4v-22.6H210.3L315.1,209.5z M30.4,115.6l169.1-85.2
		l85.2,169.1l-124.8,62.8h-55.6L30.4,115.6z"/>
</g>
<g id="Clear_space">
</g>
</svg>
