<?xml version="1.0" encoding="utf-8"?>
<!-- Generator: Adobe Illustrator 27.6.1, SVG Export Plug-In . SVG Version: 6.00 Build 0)  -->
<svg version="1.1" id="Layer_1" xmlns="http://www.w3.org/2000/svg" xmlns:xlink="http://www.w3.org/1999/xlink" x="0px" y="0px"
	 viewBox="0 0 775 245" style="enable-background:new 0 0 775 245;" xml:space="preserve">
<style type="text/css">
	.st0{fill:#FFFFFF;}
</style>
<path class="st0" d="M77.8,57.5c5.4,2.6,11.3,4,17.2,4.1c6.1,0,9.1-2.1,9.1-5.4s-2.9-5.1-10.4-7.7C82.4,44.6,75,38.4,75,28.5
	c0-11.7,9.8-20.8,26.6-20.8c8,0,13.6,1.5,18,3.4l-3.7,14.2c-4.5-2.1-9.5-3.2-14.5-3.1c-5.4,0-8.4,2-8.4,4.9c0,3.4,3.5,4.7,11.9,7.9
	c11.9,4.3,17.3,10.7,17.3,20c0,11.4-9,21.2-28.4,21.2c-8,0-15.7-2.1-19.5-4L77.8,57.5z"/>
<path class="st0" d="M149.2,59.8l-3.7,15.4h-18.4l19.3-66.3H170l19.8,66.3h-19.2l-4.2-15.4H149.2z M163.9,46.6l-3-11.9
	c-1-3.7-2.3-9.1-3.2-13.1h-0.2c-1,3.9-2,9.4-3,13.2l-2.9,11.8H163.9z"/>
<path class="st0" d="M254.3,51.4c-0.2-7.6-0.4-16.4-0.3-26.8h-0.3c-2.1,8.8-4.8,18.7-7,26l-6.6,23.1h-13.9l-5.6-23
	c-1.7-7.2-3.7-17-5.2-26.1h-0.2c-0.4,9.4-0.8,19.2-1.1,26.8l-1,23.7h-16.3l4-66.3h23.9l4.4,17.8c1.8,7.4,3.7,16.2,5.1,24.3h0.4
	c1.9-8.1,4-17.4,6-24.4l4.9-17.7h23.5l3.4,66.3h-17.3L254.3,51.4z"/>
<path class="st0" d="M325,48.4h-23.8v12.2h26.7v14.6h-44.5V8.8h43.1v14.5h-25.3V34H325V48.4z"/>
<path class="st0" d="M337.7,75.2V8.8h21l10.5,20.4c4,7.5,7.5,15.3,10.4,23.2h0.3c-1-9.3-1.4-18.6-1.4-28V8.8h16.2v66.4h-18.7
	l-11.2-22c-4.2-7.8-7.9-15.8-11.2-24h-0.3c0.4,9,0.6,19,0.6,29.7v16.4L337.7,75.2z"/>
<path class="st0" d="M439,75.2L417.9,8.8h19.5l7,26.1c2.2,7.6,4.1,15.4,5.5,23.2h0.2c1.7-8.2,3.5-15.9,5.5-22.9l7.2-26.4h18.9
	L460,75.2H439z"/>
<path class="st0" d="M550.1,41.3c0,21.4-12.8,35-33.3,35S485,60.8,485,42.4c0-19.3,12.7-34.7,33-34.7
	C539.3,7.7,550.1,23.6,550.1,41.3z M503.8,42.1c0,12.4,5.4,20.1,14,20.1s13.6-8.4,13.6-20.3c0-11.4-5.1-20.1-13.7-20.1
	S503.8,29.9,503.8,42.1L503.8,42.1z"/>
<path class="st0" d="M622,41.3c0,21.4-12.8,35-33.3,35s-31.9-15.5-31.9-33.9c0-19.3,12.7-34.7,33-34.7C611.1,7.7,622,23.6,622,41.3z
	 M575.6,42.1c0,12.4,5.4,20.1,14,20.1s13.6-8.4,13.6-20.3c0-11.4-5.1-20.1-13.7-20.1S575.6,29.9,575.6,42.1L575.6,42.1z"/>
<path class="st0" d="M631.4,9.7c7.1-1,14.3-1.4,21.5-1.4c10.1,0,17.4,1.4,22.5,5.1c4.2,3.2,6.6,8,6.6,14.5c0,8.3-6.2,14.2-11.4,16
	v0.4c4.4,1.9,6.8,6.1,8.5,11.8c2.1,6.8,4.2,16.4,5.5,19h-18.2c-1-2-2.7-7.1-4.6-15.3c-1.8-8-4.2-9.6-9.7-9.6H649v24.9h-17.6V9.7z
	 M649,37.6h4.6c6.7,0,10.5-3.3,10.5-8.3s-3.2-7.8-9.2-7.9c-2-0.1-4,0.1-6,0.4V37.6z"/>
<path class="st0" d="M322.7,144.8c-10.1,0-16.5,9.6-16.5,24.1c0,14.7,6.4,23.9,16.6,23.9s16.2-9.9,16.2-24.1
	C339,155.1,332.9,144.8,322.7,144.8z"/>
<path class="st0" d="M471.1,144.3c-2.4-0.1-4.8,0.1-7.1,0.5v18.7h5.5c8,0,12.5-4,12.5-9.8S478.1,144.4,471.1,144.3z"/>
<path class="st0" d="M5.6,98.9v140.7h764.8V98.9H5.6z M96.3,199.3c-8.7,6.8-21.5,9.7-37,9.7c-10.2,0-17-0.6-21.1-1.3v-77.3
	c8.3-1.2,16.7-1.7,25.2-1.6c15.1,0,24.6,2.4,32.4,7.8c8.7,6,14.3,15.8,14.3,30.3C110.1,182.9,104.1,193.3,96.3,199.3z M174.3,208.2
	h-52.9v-78.9h51.2v17.2h-30.1v12.8h28.3v17.1h-28.3v14.5h31.7V208.2z M253.6,208.2l-0.9-28.2c-0.2-9-0.5-19.5-0.4-31.8h-0.4
	c-2.5,10.4-5.7,22.2-8.3,30.9l-7.8,27.5h-16.5l-6.7-27.4c-2-8.5-4.5-20.2-6.2-31h-0.2c-0.5,11.1-0.9,22.8-1.3,31.8l-1.2,28.2h-19.4
	l4.8-78.9h28.4l5.3,21.2c2.1,8.8,4.4,19.3,6.1,28.9h0.5c2.2-9.6,4.8-20.7,7.1-29l5.9-21.1h27.8l4,78.9L253.6,208.2z M321.8,209.5
	c-24.5,0-37.9-18.4-37.9-40.2c0-22.9,15.1-41.2,39.2-41.2c25.4,0,38.3,18.8,38.3,39.9C361.3,193.3,346.1,209.5,321.8,209.5
	L321.8,209.5z M414.6,191.9c4.8,0,9.6-0.8,14.2-2.3l2.9,16.6c-3,1.4-10.4,3.2-19.9,3.2c-29.5,0-42.5-18.4-42.5-39.3
	c0-27.9,20.4-42,43.9-42c9.1,0,16.5,1.8,19.8,3.5l-4.1,16.6c-4.6-1.9-9.6-2.8-14.6-2.8c-12.2,0-22.7,7.1-22.7,23.3
	C391.5,183,400,191.9,414.6,191.9L414.6,191.9z M484.4,208.2c-1.2-2.3-3.2-8.4-5.5-18.1c-2.1-9.5-5-11.5-11.6-11.5h-3.4v29.6H443
	v-77.8c8.5-1.2,17-1.7,25.5-1.6c12,0,20.7,1.6,26.7,6.1c5,3.9,7.8,9.5,7.8,17.2c0,9.8-7.4,16.9-13.6,19.1v0.5
	c5.3,2.2,8.1,7.3,10.1,14c2.5,8.1,5,19.5,6.5,22.6L484.4,208.2z M562.4,208.2l-5-18.2H537l-4.4,18.2h-21.9l22.9-78.9h28.1l23.5,78.9
	H562.4z M642.2,147h-20.4v61.2h-21.2V147h-20.1v-17.7h61.8L642.2,147z M673.1,208.2h-21.1v-78.9h21.2L673.1,208.2z M740.5,208.2
	h-52.9v-78.9h51.2v17.2h-30.1v12.8h28.3v17.1h-28.3v14.5h31.7L740.5,208.2z"/>
<path class="st0" d="M547,144.5h-0.2c-1.2,4.7-2.3,11.2-3.5,15.7l-3.4,14h14.6l-3.6-14.1C549.7,155.7,548.2,149.2,547,144.5z"/>
<path class="st0" d="M65.9,144.9c-2.2-0.1-4.3,0.1-6.4,0.5v47c1.5,0.2,3,0.3,4.4,0.2c13.7,0.2,23.8-7.4,23.8-25.1
	C87.7,152.2,78.6,144.9,65.9,144.9z"/>
</svg>
