<?xml version="1.0" encoding="utf-8"?>
<!-- Generator: Adobe Illustrator 27.6.1, SVG Export Plug-In . SVG Version: 6.00 Build 0)  -->
<svg version="1.1" id="Layer_1" xmlns="http://www.w3.org/2000/svg" xmlns:xlink="http://www.w3.org/1999/xlink" x="0px" y="0px"
	 viewBox="0 0 869 350" style="enable-background:new 0 0 869 350;" xml:space="preserve">
<style type="text/css">
	.st0{fill:#FFFFFF;}
</style>
<path class="st0" d="M241.5,91.1V64.3l-21-39.6H241l5.6,15c1.9,4.6,3,8,4.5,12.2h0.2c1.3-4,2.7-7.7,4.2-12.2l5.5-15h20l-21.8,38.9
	v27.5H241.5z"/>
<path class="st0" d="M303.5,24.8v24.5h21.6V24.8h17.7v66.3h-17.7V64.8h-21.6v26.3h-17.8V24.8H303.5z"/>
<path class="st0" d="M355.1,25.6c7-1,14.1-1.4,21.2-1.4c12.7,0,20.7,2.1,27.3,6.6c7.3,5,12,13.3,12,25.5c0,13.5-5.1,22.2-11.6,27.3
	c-7.3,5.7-18.1,8.2-31.1,8.2c-5.9,0.1-11.8-0.2-17.7-1.1L355.1,25.6z M372.9,77.8c1.2,0.2,2.5,0.2,3.7,0.2c11.5,0.2,20-6.2,20-21.2
	c0-12.9-7.7-19-18.3-19c-1.8,0-3.6,0.1-5.4,0.4L372.9,77.8z"/>
<path class="st0" d="M466.7,64.3h-23.8v12.2h26.7v14.6H425V24.8h43.1v14.5h-25.3V50h23.8L466.7,64.3z"/>
<path class="st0" d="M480.5,73.4c5.4,2.6,11.3,4,17.2,4.1c6.1,0,9.1-2.1,9.1-5.4s-3-5.1-10.4-7.7c-11.2-3.9-18.6-10.1-18.6-20
	c0-11.7,9.8-20.8,26.6-20.8c8,0,13.6,1.5,18,3.4l-3.7,14.2c-4.5-2.1-9.5-3.2-14.5-3.2c-5.4,0-8.4,2-8.4,4.9c0,3.3,3.5,4.7,11.9,7.9
	c11.9,4.3,17.3,10.7,17.3,20c0,11.4-9,21.2-28.3,21.2c-8,0-15.8-2.1-19.5-4L480.5,73.4z"/>
<path class="st0" d="M535.7,73.4c5.4,2.6,11.3,4,17.3,4.1c6.1,0,9-2.1,9-5.4s-3-5.1-10.4-7.7c-11.2-3.9-18.6-10.1-18.6-20
	c0-11.7,9.8-20.8,26.6-20.8c8,0,13.6,1.5,18,3.4l-3.7,14.2c-4.5-2.1-9.4-3.2-14.4-3.2c-5.4,0-8.4,2-8.4,5c0,3.3,3.5,4.7,11.9,7.9
	c11.9,4.3,17.3,10.7,17.3,20c0,11.4-9,21.2-28.3,21.2c-8,0-15.8-2.1-19.5-4L535.7,73.4z"/>
<path class="st0" d="M607.2,75.7l-3.7,15.4h-18.4l19.3-66.3H628l19.8,66.3h-19.2l-4.2-15.3L607.2,75.7z M598.9,13.7
	c0-4.1,3.3-7.5,7.5-7.5c0.1,0,0.1,0,0.2,0c4,0,7.3,3.3,7.3,7.3c0,0,0,0.1,0,0.1c0.1,4.1-3.2,7.5-7.3,7.6
	C602.4,21.4,599,18,598.9,13.7C598.9,13.8,598.9,13.8,598.9,13.7L598.9,13.7z M621.9,62.6l-3-11.9c-1-3.7-2.3-9.2-3.2-13.1h-0.2
	c-1,3.9-2,9.4-3,13.2l-2.8,11.8H621.9z M620.4,13.7c0-4.1,3.4-7.5,7.5-7.5s7.5,3.4,7.5,7.5s-3.4,7.5-7.5,7.5S620.4,17.9,620.4,13.7z
	"/>
<path class="st0" d="M318.7,160.7c-10.1,0-16.5,9.6-16.5,24.1c0,14.7,6.4,23.9,16.6,23.9s16.2-10,16.2-24.1
	C335,171,328.9,160.7,318.7,160.7z"/>
<path class="st0" d="M548.1,160.5h-0.2c-1.2,4.7-2.3,11.2-3.5,15.7l-3.4,14h14.6L552,176C550.8,171.6,549.3,165.2,548.1,160.5z"/>
<path class="st0" d="M472.2,160.2c-2.4-0.1-4.8,0.1-7.1,0.5v18.7h5.5c8,0,12.5-4,12.5-9.8S479.2,160.4,472.2,160.2z"/>
<path class="st0" d="M61.9,160.8c-2.2-0.1-4.3,0.1-6.4,0.5v47c1.5,0.2,3,0.3,4.4,0.2c13.7,0.2,23.8-7.4,23.8-25.2
	C83.7,168.1,74.5,160.8,61.9,160.8z"/>
<path class="st0" d="M719.4,160.5h-0.2c-1.2,4.7-2.3,11.2-3.5,15.7l-3.4,14h14.6l-3.6-14.2C722.1,171.6,720.6,165.2,719.4,160.5z"/>
<path class="st0" d="M5.4,114.8v140.7h859.2V114.8H5.4z M92.3,215.2c-8.7,6.8-21.5,9.7-37,9.7c-10.2,0-17-0.6-21.1-1.3v-77.3
	c8.3-1.2,16.7-1.7,25.2-1.6c15.1,0,24.6,2.4,32.4,7.8c8.7,6,14.3,15.8,14.3,30.3C106.1,198.9,100.1,209.3,92.3,215.2z M170.2,224.1
	h-52.9v-78.8h51.2v17.2h-30.1v12.8h28.3v17.1h-28.3v14.5h31.7V224.1z M249.6,224.1l-0.9-28.2c-0.2-9-0.5-19.5-0.4-31.8h-0.4
	c-2.5,10.4-5.7,22.2-8.3,30.9l-7.8,27.5h-16.5l-6.7-27.4c-2-8.5-4.5-20.2-6.2-31h-0.2c-0.5,11.1-0.9,22.8-1.3,31.8l-1.2,28.2h-19.4
	l4.8-78.9h28.4l5.3,21.2c2.1,8.8,4.4,19.3,6.1,28.9h0.5c2.2-9.6,4.8-20.7,7.1-29l5.9-21.1h27.8l4,78.9L249.6,224.1z M317.8,225.4
	c-24.5,0-37.9-18.4-37.9-40.2c0-22.9,15.1-41.2,39.2-41.2c25.4,0,38.3,18.8,38.3,39.9C357.3,209.3,342.1,225.4,317.8,225.4
	L317.8,225.4z M412.4,224.1l-16.6-31.9l-6.3,8.1v23.9h-20.9v-78.8h20.9v33.5h0.2c1.6-2.9,3.4-5.9,5.1-8.6l15.1-24.8h26l-25,33.6
	l26,45.3L412.4,224.1z M485.5,224.1c-1.2-2.3-3.2-8.4-5.5-18.1c-2.1-9.5-5-11.5-11.6-11.5h-3.4v29.6h-20.9v-77.8
	c8.4-1.2,17-1.7,25.5-1.6c12.1,0,20.7,1.6,26.7,6.1c5,3.9,7.8,9.5,7.8,17.2c0,9.8-7.4,16.9-13.6,19.1v0.5c5.3,2.2,8.1,7.2,10.1,14
	c2.5,8.1,5,19.5,6.5,22.6L485.5,224.1z M563.5,224.1l-5-18.2h-20.4l-4.4,18.2h-21.9l22.9-78.9h28.1l23.5,78.9H563.5z M643.3,162.9
	h-20.4v61.2h-21.2v-61.2h-20.1v-17.7h61.8L643.3,162.9z M674.3,224.1h-21.2v-78.8h21.2V224.1z M734.9,224.1l-5-18.2h-20.4l-4.5,18.2
	h-21.8l22.9-78.9h28.1l23.5,78.9H734.9z M835.6,224.1h-22.2L800,197.9c-5-9.3-9.4-18.8-13.3-28.6h-0.3c0.5,10.6,0.7,22.6,0.7,35.3
	v19.4h-19.3v-78.8h24.9l12.5,24.2c4.7,8.9,8.9,18.2,12.4,27.6h0.3c-1.2-11-1.7-22.1-1.6-33.2v-18.6h19.3V224.1z"/>
<path class="st0" d="M202.7,279.4c7.3-1,14.6-1.5,22-1.4c9.5,0,16.3,1.7,21,5.2c4.9,3.9,7.7,9.8,7.6,16c0,6.7-2.3,12.6-6.4,16.3
	c-5.4,4.8-13.2,6.9-22.1,6.9c-1.7,0-3.2-0.1-4.3-0.2v22.5h-17.7V279.4z M220.3,308.8c1.3,0.1,2.7,0.2,4,0.2c7,0,11.3-3.5,11.3-9.2
	c0-4.9-3.3-8.3-10-8.3c-1.8,0-3.6,0.1-5.3,0.4L220.3,308.8z"/>
<path class="st0" d="M279.6,278.5v37.6c0,10,3.5,15.8,10.4,15.8s10.5-5.2,10.5-15.8v-37.6h17.8v36.6c0,20.5-10.2,30.8-28.8,30.8
	c-18.2,0-27.8-9.9-27.8-31.3v-36.1H279.6z"/>
<path class="st0" d="M392.9,311c0,21.4-12.8,34.9-33.3,34.9s-31.9-15.5-31.9-33.9c0-19.3,12.7-34.6,33-34.6
	C382.1,277.4,392.9,293.3,392.9,311z M346.6,311.8c0,12.4,5.4,20.1,14,20.1s13.6-8.4,13.6-20.3c0-11.4-5.1-20.1-13.7-20.1
	S346.6,299.6,346.6,311.8z"/>
<path class="st0" d="M402.4,278.5h17.8V330h25.5v14.9h-43.3V278.5z"/>
<path class="st0" d="M496,318.1h-23.8v12.2h26.7v14.6h-44.5v-66.3h43.1V293h-25.3v10.7H496V318.1z"/>
<path class="st0" d="M509.9,327.2c5.4,2.6,11.2,4.1,17.2,4.1c6.1,0,9.1-2.1,9.1-5.4s-3-5.1-10.4-7.7c-11.2-3.9-18.6-10.1-18.6-20
	c0-11.7,9.8-20.8,26.6-20.8c8,0,13.6,1.5,18,3.5l-3.7,14.2c-4.5-2.1-9.5-3.2-14.5-3.1c-5.4,0-8.4,2-8.4,4.9c0,3.3,3.5,4.7,11.9,7.9
	c11.9,4.3,17.3,10.7,17.3,20c0,11.4-9,21.2-28.3,21.2c-8,0-15.8-2.1-19.5-4L509.9,327.2z"/>
<path class="st0" d="M576.8,293.4h-16.9v-14.9h52v14.9h-17.3v51.5h-17.8V293.4z"/>
<path class="st0" d="M630.5,329.5l-3.7,15.4h-18.4l19.3-66.3h23.6l19.8,66.3h-19.2l-4.2-15.4H630.5z M645.2,316.3l-3-11.9
	c-1-3.7-2.3-9.1-3.2-13.1h-0.2c-1,3.9-2,9.5-3,13.2l-2.9,11.8H645.2z"/>
</svg>
