<?xml version="1.0" encoding="utf-8"?>
<!-- Generator: Adobe Illustrator 27.6.1, SVG Export Plug-In . SVG Version: 6.00 Build 0)  -->
<svg version="1.1" id="Layer_1" xmlns="http://www.w3.org/2000/svg" xmlns:xlink="http://www.w3.org/1999/xlink" x="0px" y="0px"
	 viewBox="0 0 805 240" style="enable-background:new 0 0 805 240;" xml:space="preserve">
<style type="text/css">
	.st0{fill:#FFFFFF;}
</style>
<path class="st0" d="M182.4,47.4c-0.2-7.6-0.4-16.4-0.3-26.8h-0.3c-2.1,8.8-4.8,18.7-7,26l-6.6,23.1h-13.9l-5.6-23
	c-1.7-7.2-3.7-17-5.2-26.1h-0.2c-0.4,9.4-0.8,19.2-1.1,26.8l-1,23.7h-16.3l4-66.3h23.9l4.4,17.8c1.8,7.4,3.7,16.2,5.1,24.3h0.4
	c1.9-8.1,4-17.4,6-24.4l4.9-17.7h23.4l3.4,66.4h-17.3L182.4,47.4z"/>
<path class="st0" d="M228.8,55.8l-3.7,15.4h-18.4L226,4.8h23.6l19.8,66.4h-19.2L246,55.8H228.8z M243.5,42.6l-3-11.9
	c-1-3.7-2.3-9.2-3.2-13.1H237c-1,3.9-2,9.4-3,13.2l-2.9,11.8H243.5z"/>
<path class="st0" d="M274.6,61.7l29.3-41.8v-0.4h-26.6V4.8H327V15l-28.5,41.1v0.4h28.9v14.7h-52.9V61.7z"/>
<path class="st0" d="M354.3,4.8v66.4h-17.8V4.8H354.3z"/>
<path class="st0" d="M428.3,4.8v14.9h-24.5v51.5H386V4.8H428.3z"/>
<path class="st0" d="M452.6,4.8v66.4h-17.8V4.8H452.6z"/>
<path class="st0" d="M482.2,55.8l-3.7,15.4H460l19.3-66.3H503l19.8,66.3h-19.2l-4.2-15.4H482.2z M496.8,42.6l-3-11.9
	c-1-3.7-2.3-9.2-3.2-13.1h-0.2c-1,3.9-2,9.4-3,13.2l-2.8,11.8H496.8z"/>
<path class="st0" d="M559.8,19.7h-16.9V4.8h52v14.9h-17.3v51.5h-17.8V19.7z"/>
<path class="st0" d="M620.9,4.8v24.5h21.6V4.8h17.7v66.4h-17.7V44.9h-21.6v26.3h-17.8V4.8H620.9z"/>
<path class="st0" d="M559.1,140.5h-0.2c-1.2,4.7-2.3,11.2-3.5,15.7l-3.4,14h14.6l-3.6-14.1C561.8,151.7,560.2,145.2,559.1,140.5z"/>
<path class="st0" d="M338.4,140.8c-10.1,0-16.5,9.6-16.5,24.1c0,14.7,6.4,23.9,16.6,23.9s16.1-10,16.1-24.1
	C354.7,151.1,348.6,140.8,338.4,140.8z"/>
<path class="st0" d="M491.1,140.7c-2.1-0.1-4.2,0.1-6.3,0.5v20.1c1.6,0.2,3.2,0.2,4.8,0.2c8.3,0,13.5-4.2,13.5-11
	C503,144.6,499.1,140.7,491.1,140.7z"/>
<path class="st0" d="M72.4,141.8h-0.5c-0.9,3.7-2.6,10.8-4,15.8l-9,29.2h26.8l-9-28.4C75.2,153.5,73.4,146.6,72.4,141.8z"/>
<path class="st0" d="M730.4,140.5h-0.2c-1.2,4.7-2.3,11.2-3.5,15.7l-3.4,14h14.6l-3.6-14.1C733,151.7,731.5,145.2,730.4,140.5z"/>
<path class="st0" d="M6.1,94.9v140.7h793.9V94.9H6.1z M110.1,204.2H36v-10.3l24.3-68.6h26.1l23.6,68.5V204.2z M187.1,204.2H166V173
	h-25.6v31.2h-21.2v-78.9h21.2v29.1H166v-29.1h21L187.1,204.2z M269.3,204.2l-0.9-28.2c-0.2-9-0.5-19.5-0.4-31.8h-0.4
	c-2.5,10.4-5.7,22.2-8.3,30.9l-7.8,27.5H235l-6.7-27.4c-2-8.5-4.5-20.2-6.2-31h-0.2c-0.5,11.1-0.9,22.8-1.3,31.8l-1.2,28.2H200
	l4.8-78.9h28.4l5.3,21.2c2.1,8.8,4.4,19.3,6.1,28.9h0.5c2.2-9.6,4.8-20.7,7.1-29l5.9-21.1h27.8l4,78.9L269.3,204.2z M337.5,205.5
	c-24.5,0-37.9-18.4-37.9-40.2c0-22.9,15.1-41.2,39.2-41.2c25.4,0,38.3,18.8,38.3,39.9C377,189.3,361.8,205.5,337.5,205.5
	L337.5,205.5z M432.2,204.2l-16.6-31.9l-6.3,8.1v23.9h-21v-78.9h20.9v33.5h0.2c1.6-2.9,3.4-5.9,5.1-8.7l15.1-24.8h26l-25,33.6
	l26,45.3H432.2z M516.3,169.4c-6.4,5.7-15.7,8.2-26.3,8.2c-2,0-3.9-0.1-5.2-0.2v26.8h-21v-77.8c5.7-0.9,14-1.6,26.1-1.6
	c11.3,0,19.4,2,24.9,6.2c5.4,4,9,11,9,19.1C523.9,158.1,521.2,165,516.3,169.4L516.3,169.4z M574.5,204.2l-5-18.2h-20.4l-4.4,18.2
	h-21.9l22.9-78.9h28.1l23.5,78.9H574.5z M654.3,143h-20.5v61.2h-21.2V143h-20.1v-17.7h61.8L654.3,143z M685.2,204.2H664v-78.9h21.2
	L685.2,204.2z M745.8,204.2l-5-18.2h-20.4l-4.4,18.2h-21.9l22.9-78.9h28.1l23.5,78.9H745.8z"/>
</svg>
