<?xml version="1.0" encoding="utf-8"?>
<!-- Generator: Adobe Illustrator 27.6.1, SVG Export Plug-In . SVG Version: 6.00 Build 0)  -->
<svg version="1.1" id="Layer_1" xmlns="http://www.w3.org/2000/svg" xmlns:xlink="http://www.w3.org/1999/xlink" x="0px" y="0px"
	 viewBox="0 0 800 257" style="enable-background:new 0 0 800 257;" xml:space="preserve">
<style type="text/css">
	.st0{fill:#FFFFFF;}
</style>
<path class="st0" d="M319.5,157.8c-10.1,0-16.5,9.6-16.5,24.1c0,14.7,6.4,23.9,16.6,23.9s16.1-10,16.1-24.1
	C335.7,168.1,329.6,157.8,319.5,157.8z"/>
<path class="st0" d="M548.9,157.5h-0.2c-1.2,4.7-2.3,11.2-3.5,15.7l-3.4,14h14.6l-3.6-14.1C551.6,168.7,550,162.2,548.9,157.5z"/>
<path class="st0" d="M473,157.3c-2.4-0.1-4.8,0.1-7.1,0.5v18.7h5.5c8,0,12.5-4,12.5-9.8S480,157.4,473,157.3z"/>
<path class="st0" d="M62.6,157.9c-2.2-0.1-4.3,0.1-6.4,0.5v47c1.5,0.2,3,0.3,4.4,0.2c13.7,0.2,23.8-7.4,23.8-25.1
	C84.4,165.2,75.3,157.9,62.6,157.9z"/>
<path class="st0" d="M6.1,111.9v140.7h789.6V111.9H6.1z M93.1,212.3c-8.6,6.8-21.5,9.7-37,9.7c-10.2,0-17-0.6-21.1-1.3v-77.3
	c8.3-1.2,16.7-1.7,25.2-1.6c15.1,0,24.6,2.4,32.4,7.8c8.6,6,14.3,15.8,14.3,30.3C106.9,195.9,100.8,206.3,93.1,212.3z M171,221.2
	h-52.9v-78.9h51.2v17.2h-30.1v12.8h28.3v17.1h-28.3v14.5H171V221.2z M250.3,221.2l-0.9-28.2c-0.2-9-0.5-19.5-0.4-31.8h-0.4
	c-2.5,10.4-5.7,22.2-8.3,30.9l-7.8,27.5H216l-6.7-27.4c-2-8.5-4.4-20.2-6.2-31h-0.2c-0.5,11.1-0.9,22.8-1.3,31.8l-1.2,28.2H181
	l4.8-78.9h28.4l5.3,21.2c2.1,8.8,4.5,19.3,6.1,28.9h0.5c2.2-9.6,4.8-20.7,7.1-29l5.9-21.1h27.9l4,78.9L250.3,221.2z M318.5,222.5
	c-24.5,0-37.9-18.4-37.9-40.2c0-22.9,15.1-41.2,39.2-41.2c25.4,0,38.3,18.8,38.3,39.9C358.1,206.3,342.9,222.5,318.5,222.5
	L318.5,222.5z M413.2,221.2l-16.6-31.9l-6.3,8.1v23.9h-21v-78.9h20.9v33.5h0.2c1.6-2.9,3.4-5.9,5.1-8.7l15.1-24.8h26l-25,33.6
	l26,45.3H413.2z M486.3,221.2c-1.2-2.3-3.2-8.4-5.5-18.1c-2.1-9.5-5-11.5-11.6-11.5h-3.4v29.6h-21v-77.8c8.5-1.2,17-1.7,25.5-1.6
	c12,0,20.7,1.6,26.7,6.1c5,3.9,7.8,9.5,7.8,17.2c0,9.8-7.4,16.9-13.6,19.1v0.5c5.3,2.2,8.1,7.3,10.1,14c2.5,8.1,5,19.5,6.5,22.6
	L486.3,221.2z M564.3,221.2l-5-18.2h-20.4l-4.5,18.2h-21.9l22.9-78.9h28.1l23.5,78.9H564.3z M635.8,204.9c4.8,0,9.6-0.8,14.2-2.3
	l2.9,16.6c-3,1.4-10.4,3.2-19.9,3.2c-29.5,0-42.5-18.4-42.5-39.3c0-27.9,20.4-42,43.9-42c9.1,0,16.5,1.8,19.8,3.5l-4.1,16.6
	c-4.6-1.9-9.6-2.8-14.6-2.8c-12.2,0-22.7,7.1-22.7,23.3C612.8,196,621.3,204.9,635.8,204.9L635.8,204.9z M685.4,221.2h-21.2v-78.9
	h21.2L685.4,221.2z M767.1,185.9c0,24.3-12.2,36.6-34.3,36.6c-21.6,0-33-11.8-33-37.2v-42.9H721V187c0,11.9,4.1,18.7,12.4,18.7
	s12.5-6.2,12.5-18.7v-44.7h21.2L767.1,185.9z"/>
<path class="st0" d="M91.3,70.6c5.4,2.6,11.3,4.1,17.2,4.1c6.1,0,9.1-2.1,9.1-5.4s-3-5.1-10.4-7.7c-11.2-3.9-18.6-10.1-18.6-20
	c0-11.7,9.9-20.8,26.6-20.8c8,0,13.6,1.5,18,3.4l-3.7,14.2c-4.5-2.1-9.5-3.2-14.5-3.1c-5.4,0-8.4,2-8.4,4.9c0,3.4,3.5,4.7,11.9,7.9
	c11.9,4.3,17.3,10.7,17.3,20c0,11.4-9,21.2-28.4,21.2c-8,0-15.8-2.1-19.5-4L91.3,70.6z"/>
<path class="st0" d="M145.4,22.8c7.3-1,14.6-1.5,22-1.4c9.6,0,16.4,1.7,21,5.2c4.9,3.9,7.7,9.8,7.6,16.1c0,6.7-2.3,12.6-6.4,16.4
	c-5.4,4.8-13.2,6.9-22.2,6.9c-1.7,0-3.2-0.1-4.3-0.2v22.6h-17.7V22.8z M163,52.2c1.3,0.1,2.7,0.2,4,0.2c7,0,11.3-3.6,11.3-9.3
	c0-4.9-3.4-8.3-10-8.3c-1.8,0-3.6,0.1-5.3,0.4L163,52.2z"/>
<path class="st0" d="M267.2,54.4c0,21.4-12.8,35-33.3,35S201.9,74,201.9,55.5c0-19.3,12.7-34.7,33-34.7
	C256.3,20.8,267.2,36.7,267.2,54.4z M220.8,55.2c0,12.4,5.4,20.1,14,20.1s13.6-8.4,13.6-20.3c0-11.4-5.1-20.1-13.7-20.1
	S220.8,43,220.8,55.2z"/>
<path class="st0" d="M276.6,21.9h17.8v51.5H320v14.9h-43.4V21.9z"/>
<path class="st0" d="M387.4,54.4c0,21.4-12.8,35-33.3,35S322.2,74,322.2,55.5c0-19.3,12.7-34.7,33-34.7
	C376.6,20.8,387.4,36.7,387.4,54.4z M341,55.2c0,12.4,5.4,20.1,14,20.1s13.6-8.4,13.6-20.3c0-11.4-5.1-20.1-13.7-20.1
	S341,43,341,55.2L341,55.2z"/>
<path class="st0" d="M446.6,86.6c-2.6,1.2-8.8,2.7-16.8,2.7c-24.8,0-35.8-15.5-35.8-33.1c0-23.4,17.1-35.4,37-35.4
	c7.7,0,13.9,1.5,16.7,3l-3.5,14c-3.9-1.6-8.1-2.4-12.3-2.4c-10.2,0-19.1,6-19.1,19.6c0,12.1,7.2,19.6,19.4,19.6
	c4.1,0,8.1-0.7,11.9-2L446.6,86.6z M420.9,18.4L411,5.9h12l4.3,5.8h0.2l4.3-5.8h11.9L434,18.4H420.9z"/>
<path class="st0" d="M456.2,88.3V21.9h21l10.5,20.4c4,7.5,7.5,15.3,10.4,23.2h0.3c-1-9.3-1.4-18.6-1.4-28V21.9h16.3v66.4h-18.7
	l-11.2-22.1c-4.2-7.8-7.9-15.8-11.2-24h-0.3c0.4,9,0.6,19,0.6,29.8v16.4L456.2,88.3z"/>
<path class="st0" d="M567.3,61.5h-23.9v12.2h26.7v14.6h-44.5V21.9h43.2v14.5h-25.3v10.7h23.8L567.3,61.5z"/>
<path class="st0" d="M595.5,78.9L624.9,37v-0.4h-26.6V21.9h49.7v10.2l-28.5,41.2v0.4h29v14.7h-52.9V78.9z"/>
<path class="st0" d="M676.1,72.9l-3.7,15.4h-18.4l19.3-66.4h23.7l19.8,66.4h-19.2l-4.2-15.4H676.1z M690.8,59.7l-3.1-11.9
	c-1-3.7-2.3-9.2-3.2-13.1h-0.2c-1,3.9-2,9.5-3,13.2l-2.9,11.8H690.8z"/>
</svg>
