<?xml version="1.0" encoding="utf-8"?>
<!-- Generator: Adobe Illustrator 27.6.1, SVG Export Plug-In . SVG Version: 6.00 Build 0)  -->
<svg version="1.1" id="Layer_1" xmlns="http://www.w3.org/2000/svg" xmlns:xlink="http://www.w3.org/1999/xlink" x="0px" y="0px"
	 viewBox="0 0 841 242" style="enable-background:new 0 0 841 242;" xml:space="preserve">
<style type="text/css">
	.st0{fill:#FFFFFF;}
</style>
<path class="st0" d="M319.1,141.8c-10.1,0-16.5,9.6-16.5,24.1c0,14.7,6.4,23.9,16.6,23.9s16.1-10,16.1-24.1
	C335.4,152.1,329.3,141.8,319.1,141.8z"/>
<path class="st0" d="M538.2,141.5h-0.2c-1.2,4.7-2.3,11.2-3.5,15.7l-3.4,14h14.6l-3.6-14.1C540.8,152.7,539.3,146.2,538.2,141.5z"/>
<path class="st0" d="M66.1,152.1c0,7.9-1.1,15.7-3.3,23.3c-1.3,4.4-2.9,8.7-5,12.8h22.5v-44.6H66.1V152.1z"/>
<path class="st0" d="M470.3,141.7c-2.1-0.1-4.2,0.1-6.3,0.4v20.1c1.6,0.2,3.2,0.2,4.8,0.2c8.3,0,13.5-4.2,13.5-11
	C482.2,145.6,478.3,141.7,470.3,141.7z"/>
<path class="st0" d="M771.9,151.1c0,6.3,5.8,9.4,12.6,9.4c1.8,0.1,3.6,0,5.4-0.4v-18.2c-2-0.4-4.1-0.6-6.2-0.6
	C777.1,141.3,771.9,144.4,771.9,151.1z"/>
<path class="st0" d="M5.5,95.9v140.7h829.2V95.9H5.5z M108.8,225.6H92.9l-1-20.4H47.2l-1,20.4h-16l-0.7-36.4l6.9-0.6
	c3.2-5.5,5.6-11.4,7.4-17.5c1.9-7.6,2.8-15.4,2.8-23.2v-21.5h54.8v62.2l8.3,0.6L108.8,225.6z M171.4,205.2h-52.9v-78.9h51.2v17.2
	h-30.1v12.8H168v17.1h-28.3v14.5h31.7V205.2z M250.7,205.2l-0.9-28.2c-0.2-9-0.5-19.5-0.4-31.8h-0.4c-2.5,10.4-5.7,22.2-8.3,30.9
	l-7.8,27.5h-16.5l-6.7-27.4c-2-8.5-4.4-20.2-6.2-31h-0.2c-0.5,11.1-0.9,22.8-1.3,31.8l-1.2,28.2h-19.4l4.8-78.9h28.4l5.3,21.2
	c2.1,8.8,4.5,19.3,6.1,28.9h0.5c2.2-9.6,4.8-20.7,7.1-29l5.9-21.1h27.9l4,78.9L250.7,205.2z M318.2,206.5
	c-24.5,0-37.9-18.4-37.9-40.2c0-22.9,15.1-41.2,39.2-41.2c25.4,0,38.3,18.8,38.3,39.9C357.8,190.3,342.5,206.5,318.2,206.5
	L318.2,206.5z M425.6,179.2c2.8,8.8,5.5,17.7,9.4,26h-22.7c-2.7-5.4-4-11.1-5.6-16.8c-2.3-8.1-5.4-14.9-13.3-14.9h-3.5v31.7H369
	v-78.9h20.8v31.8h0.9l19.5-31.8h25.6l-26.4,34.5C418.4,163.7,422.8,170.3,425.6,179.2L425.6,179.2z M495.5,170.5
	c-6.4,5.7-15.7,8.2-26.3,8.2c-2,0-3.9-0.1-5.2-0.2v26.8h-21v-77.8c5.7-0.9,14-1.6,26.1-1.6c11.3,0,19.4,2,24.9,6.2
	c5.4,4,9,11,9,19.1C503,159.1,500.4,166,495.5,170.5L495.5,170.5z M553.6,205.2l-5-18.2h-20.4l-4.5,18.2h-21.9l22.9-78.9h28.1
	l23.5,78.9H553.6z M660.1,225.6h-15.9l-1-20.4h-56.7v-78.9h21.2v61.6h23.9v-61.6h21.2v62.2l8.3,0.6L660.1,225.6z M737.6,205.2h-19.3
	v-18.8c-0.2-11.3,0.3-22.5,1.4-33.7h-0.3c-3.6,9.9-7.9,19.5-12.9,28.8l-12.3,23.8h-24.3v-78.9h19.4v19.2c0,12.6-0.5,26.1-0.9,36.6
	h0.4c4.2-9.7,9.7-20.9,13.9-29l13.3-26.8h21.6L737.6,205.2z M810.9,205.2h-20.9v-29.6H787c-2.6,0-5.2,0.9-7.1,2.7
	c-4.9,4.3-6.7,13.8-8.9,19.9c-0.8,2.4-1.8,4.7-2.9,7h-22.3c1.8-3,3.2-6.2,4.2-9.6c3.2-9,4.9-17.7,10.7-23c1.9-1.7,4.1-3,6.4-4v-0.4
	c-8.2-1.6-16.2-7.4-16.2-19.2c-0.1-6.7,3.1-13.1,8.5-17c6.5-4.9,17-6.2,27.1-6.2c8.1-0.1,16.3,0.5,24.3,1.6V205.2z"/>
<path class="st0" d="M152.4,10c6.8-3.7,14.4-5.5,22.1-5.4c15.8,0,24.6,7.9,24.6,17.4c0,8.4-5.3,13.5-13,15.5v0.2
	c7.8,1.1,15.2,6.7,15.2,15.4c0,15.3-16.2,20.2-28.8,20.2c-7.2,0-15.3-1.5-21-4.8l3.6-13.6c2.8,1.4,10.1,4,16.6,4s11-2.4,11-7.1
	c0-6.2-6.9-7.1-12.1-7.1H163V31.5h7.3c5.9,0,10.3-2.1,10.3-6.6c0-3.4-3.2-5.9-9.2-5.9c-5.1,0-11.1,2-15,3.6L152.4,10z"/>
<path class="st0" d="M227.6,56.8l-3.8,15.4h-18.4l19.3-66.5h23.7l19.8,66.5H249l-4.2-15.4H227.6z M242.3,43.6l-3.1-11.9
	c-1-3.8-2.3-9.2-3.3-13.1h-0.2c-1,3.9-2,9.5-3,13.2L230,43.6L242.3,43.6z"/>
<path class="st0" d="M318.5,45.3h-23.9v12.2h26.7v14.6h-44.6V5.7H320v14.5h-25.4v10.8h23.9V45.3z"/>
<path class="st0" d="M387.5,5.7v52.5l7,0.5l-0.7,30.7h-13.4l-0.9-17.2h-37.7L341,89.3h-13.5l-0.6-30.7l5.8-0.5
	c2.7-4.7,4.8-9.6,6.2-14.8c1.6-6.4,2.4-12.9,2.4-19.5V5.7H387.5z M357.8,27.4c0,6.6-1,13.2-2.8,19.6c-1.1,3.7-2.5,7.3-4.2,10.8h18.9
	V20.2h-11.9L357.8,27.4z"/>
<path class="st0" d="M419.9,5.7v24.6h21.6V5.7h17.8v66.5h-17.8V45.8h-21.6v26.3H402V5.7H419.9z"/>
<path class="st0" d="M534.1,38.2c0,21.4-12.8,35-33.3,35s-32-15.5-32-33.9c0-19.3,12.7-34.7,33-34.7
	C523.2,4.6,534.1,20.5,534.1,38.2z M487.6,39c0,12.4,5.4,20.1,14,20.1s13.6-8.4,13.6-20.3c0-11.4-5.1-20.1-13.7-20.1
	S487.6,26.8,487.6,39z"/>
<path class="st0" d="M560.7,10c6.8-3.7,14.4-5.5,22.1-5.4c15.8,0,24.6,7.9,24.6,17.4c0,8.4-5.3,13.5-13,15.5v0.2
	c7.8,1.1,15.2,6.7,15.2,15.4c0,15.3-16.2,20.2-28.8,20.2c-7.2,0-15.3-1.5-21-4.8l3.6-13.6c2.8,1.4,10.1,4,16.6,4s10.9-2.4,10.9-7.1
	c0-6.2-6.9-7.1-12.1-7.1h-7.4V31.5h7.3c5.9,0,10.3-2.1,10.3-6.6c0-3.4-3.2-5.9-9.2-5.9c-5.1,0-11.2,2-15,3.6L560.7,10z"/>
<path class="st0" d="M636,56.8l-3.8,15.4h-18.5l19.3-66.5h23.7l19.8,66.5h-19.2l-4.2-15.4H636z M650.7,43.6l-3.1-11.9
	c-1-3.8-2.3-9.2-3.3-13.1h-0.2c-1,3.9-2,9.5-3,13.2l-2.9,11.8H650.7z"/>
</svg>
