<?xml version="1.0" encoding="UTF-8"?><svg id="IT" xmlns="http://www.w3.org/2000/svg" viewBox="0 0 188.61 62.38"><defs><style>.cls-1{fill:#224e9c;stroke-width:0px;}</style></defs><path class="cls-1" d="m14.48,6.87v15.96h-4.28V6.87h4.28Z"/><path class="cls-1" d="m17.42,22.83V6.87h5.05l2.53,4.9c.96,1.81,1.8,3.67,2.51,5.59h.07c-.24-2.24-.35-4.49-.33-6.74v-3.76h3.91v15.96h-4.5l-2.7-5.29c-1-1.87-1.91-3.8-2.7-5.77h-.07c.09,2.17.14,4.57.14,7.15v3.93l-3.91-.02Z"/><path class="cls-1" d="m34.4,18.57c1.29.63,2.71.97,4.15.99,1.47,0,2.18-.5,2.18-1.3s-.71-1.23-2.51-1.85c-2.7-.95-4.48-2.44-4.48-4.81,0-2.82,2.37-5,6.4-5,1.92,0,3.27.35,4.33.83l-.9,3.41c-1.09-.5-2.28-.76-3.48-.76-1.3,0-2.01.48-2.01,1.18,0,.81.85,1.14,2.87,1.89,2.87,1.04,4.17,2.58,4.17,4.81,0,2.75-2.15,5.09-6.82,5.09-1.92,0-3.79-.5-4.69-.96l.81-3.53Z"/><path class="cls-1" d="m51.69,6.87v15.96h-4.28V6.87h4.28Z"/><path class="cls-1" d="m64.65,16.39h-5.74v2.94h6.42v3.51h-10.7V6.87h10.37v3.48h-6.08v2.58h5.74v3.46Z"/><path class="cls-1" d="m81.2,17.12c-.05-1.82-.09-3.96-.07-6.44h-.07c-.5,2.11-1.16,4.5-1.68,6.26l-1.59,5.56h-3.34l-1.35-5.53c-.4-1.73-.9-4.09-1.25-6.27h-.05c-.09,2.25-.19,4.62-.26,6.44l-.24,5.71h-3.93l.96-15.96h5.76l1.07,4.29c.43,1.78.9,3.91,1.23,5.85h.09c.45-1.94.96-4.19,1.44-5.87l1.19-4.26h5.63l.81,15.96h-4.16l-.19-5.72Z"/><path class="cls-1" d="m98.2,16.39h-5.73v2.94h6.42v3.51h-10.7V6.87h10.37v3.48h-6.09v2.58h5.73v3.46Z"/><path class="cls-1" d="m105.94,7.08c1.75-.25,3.52-.36,5.29-.33,2.3,0,3.93.4,5.05,1.26,1.18.93,1.85,2.35,1.82,3.85,0,1.61-.54,3.03-1.54,3.93-1.3,1.16-3.17,1.66-5.33,1.66-.4,0-.78-.02-1.04-.05v5.43h-4.26V7.08Zm4.24,7.06c.32.03.64.05.96.05,1.68,0,2.72-.85,2.72-2.23,0-1.18-.81-1.99-2.41-1.99-.43-.01-.86.02-1.28.09v4.07Z"/><path class="cls-1" d="m130.22,16.39h-5.73v2.94h6.42v3.51h-10.7V6.87h10.37v3.48h-6.09v2.58h5.73v3.46Z"/><path class="cls-1" d="m133.27,7.08c1.71-.24,3.44-.35,5.16-.33,2.44,0,4.19.33,5.4,1.23,1.02.78,1.59,1.92,1.59,3.48,0,1.99-1.49,3.41-2.75,3.85v.1c1.07.45,1.63,1.47,2.04,2.84.5,1.63,1.02,3.96,1.33,4.57h-4.38c-.24-.48-.64-1.71-1.11-3.67-.43-1.92-1.02-2.32-2.35-2.32h-.69v5.99h-4.24V7.08Zm4.24,6.7h1.11c1.61,0,2.53-.8,2.53-1.99s-.78-1.87-2.2-1.9c-.48-.01-.97.02-1.44.09v3.79Z"/><path class="cls-1" d="m152.57,6.87h4.29v12.39h6.13v3.58h-10.42V6.87Z"/><path class="cls-1" d="m169.43,19.13l-.9,3.7h-4.43l4.64-15.96h5.68l4.76,15.96h-4.62l-1.02-3.7h-4.12Zm3.53-3.17l-.72-2.87c-.24-.9-.55-2.2-.78-3.15h-.05c-.24.95-.48,2.27-.71,3.17l-.69,2.84h2.95Z"/><path class="cls-1" d="m129.19,39.52h-.06c-.28,1.13-.56,2.7-.84,3.77l-.82,3.37h3.52l-.87-3.4c-.28-1.07-.65-2.62-.93-3.74Z"/><path class="cls-1" d="m110.92,39.46c-.57-.02-1.15.02-1.72.11v4.5h1.32c1.91,0,3.01-.96,3.01-2.37s-.93-2.22-2.62-2.25Z"/><path class="cls-1" d="m75.24,39.58c-2.42,0-3.97,2.31-3.97,5.8s1.55,5.74,4,5.74,3.89-2.39,3.89-5.8c0-3.26-1.47-5.74-3.91-5.74Z"/><path class="cls-1" d="m13.44,39.6c-.52-.01-1.04.02-1.55.11v11.31c.35.05.71.07,1.07.06,3.29.06,5.71-1.77,5.71-6.05,0-3.68-2.19-5.43-5.24-5.43Z"/><path class="cls-1" d="m-.15,28.53v33.85h188.79V28.53H-.15Zm20.91,24.16c-2.08,1.63-5.18,2.34-8.9,2.34-2.45,0-4.09-.14-5.07-.31v-18.61c2-.28,4.03-.41,6.05-.39,3.63,0,5.91.59,7.8,1.89,2.08,1.44,3.44,3.8,3.44,7.29,0,3.86-1.46,6.36-3.32,7.8Zm18.75,2.14h-12.73v-18.97h12.33v4.14h-7.23v3.07h6.81v4.11h-6.81v3.49h7.63v4.16Zm19.08,0l-.22-6.78c-.06-2.17-.11-4.7-.09-7.66h-.08c-.59,2.5-1.38,5.35-2,7.43l-1.89,6.62h-3.97l-1.6-6.59c-.48-2.05-1.07-4.87-1.49-7.46h-.06c-.11,2.68-.23,5.49-.31,7.66l-.28,6.78h-4.67l1.15-18.97h6.84l1.27,5.1c.51,2.11,1.07,4.65,1.46,6.95h.11c.53-2.31,1.15-4.98,1.72-6.98l1.41-5.07h6.7l.96,18.97h-4.96Zm16.4.31c-5.88,0-9.12-4.42-9.12-9.68s3.63-9.91,9.43-9.91c6.11,0,9.21,4.53,9.21,9.6,0,6.11-3.65,9.99-9.52,9.99Zm22.32-4.22c1.16,0,2.32-.19,3.42-.56l.7,4c-.72.34-2.5.76-4.79.76-7.1,0-10.22-4.42-10.22-9.46,0-6.7,4.9-10.1,10.55-10.1,2.2,0,3.97.42,4.76.84l-.99,4c-1.12-.45-2.31-.68-3.52-.68-2.93,0-5.46,1.72-5.46,5.6,0,3.46,2.05,5.6,5.54,5.6h0Zm16.8,3.91c-.28-.56-.76-2.03-1.32-4.36-.51-2.28-1.2-2.76-2.79-2.76h-.82v7.12h-5.05v-18.72c2.03-.28,4.08-.41,6.14-.39,2.89,0,4.98.39,6.42,1.46,1.2.93,1.89,2.28,1.89,4.14,0,2.37-1.78,4.05-3.27,4.59v.11c1.27.53,1.94,1.75,2.42,3.37.59,1.94,1.2,4.7,1.58,5.43h-5.2Zm18.77,0l-1.2-4.39h-4.89l-1.07,4.39h-5.26l5.52-18.97h6.75l5.66,18.97h-5.51Zm22.1,0h-15.1v-2.7l8.39-11.96v-.11h-7.6v-4.2h14.2v2.9l-8.13,11.77v.11h8.28l-.03,4.19Zm7.68,0h-5.08v-18.97h5.1l-.02,18.97Zm14.58,0l-1.2-4.39h-4.89l-1.07,4.39h-5.26l5.52-18.97h6.76l5.66,18.97h-5.51Z"/><path class="cls-1" d="m173.55,39.52h-.06c-.28,1.13-.56,2.7-.84,3.77l-.82,3.37h3.52l-.87-3.4c-.28-1.07-.65-2.62-.93-3.74Z"/></svg>