<?xml version="1.0" encoding="utf-8"?>
<!-- Generator: Adobe Illustrator 27.7.0, SVG Export Plug-In . SVG Version: 6.00 Build 0)  -->
<svg version="1.1" id="Camada_1" xmlns="http://www.w3.org/2000/svg" xmlns:xlink="http://www.w3.org/1999/xlink" x="0px" y="0px"
	 viewBox="0 0 1429.1 289.7" style="enable-background:new 0 0 1429.1 289.7;" xml:space="preserve">
<style type="text/css">
	.st0{fill:#0C4DA2;}
	.st1{fill:#FFFFFF;}
	.st2{fill:#FFF200;}
</style>
<g id="Elements">
	<g>
		<g>
			<g>
				<path class="st0" d="M390.5,151h-12l-4,14H355l3.9-14h-8.7v-16.4h13.3l4-14.6h-11.4V104h16l4.2-15h19.6l-4.2,15h11.9l4.2-15
					h19.5l-4.2,15h9.9v16.1h-14.4l-4,14.6h12.4V151h-17.1l-3.8,14h-19.4L390.5,151z M395.1,134.6l4.1-14.6h-12l-4.1,14.6H395.1z"/>
				<path class="st0" d="M442.9,134.8V85.2h22.5v49.6c0,7.3,5,12.1,12.6,12.1c7.7,0,12.6-4.8,12.6-12.1V85.2H513v49.5
					c0,20-14,33.2-35,33.2C456.7,167.9,442.9,154.7,442.9,134.8z"/>
				<path class="st0" d="M526.7,85.2h32.3c19.1,0,31.9,10.6,31.9,27.1c0,16.7-12.6,27.9-31.7,27.9h-10v26.3h-22.5V85.2z
					 M558.5,121.3c6,0,9.7-3.5,9.7-8.8c0-5.1-3.8-8.3-9.6-8.3h-9.4v17.1L558.5,121.3L558.5,121.3z"/>
				<path class="st0" d="M596.6,126c0-24.4,17.9-42.2,42.4-42.2s42.4,17.7,42.4,42c0,24.5-17.9,42.3-42.6,42.3
					C614.5,168.1,596.6,150.4,596.6,126z M658.2,126c0-12.4-8.1-21.5-19.2-21.5s-19.4,9-19.4,21.4c0,12.5,8.3,21.5,19.4,21.5
					C650.2,147.4,658.2,138.2,658.2,126z"/>
				<path class="st0" d="M691.9,85.4h34.8c18.9,0,31.3,10.5,31.3,26.3c0,11.9-6.8,20.7-18.3,24.4l20,30.4H734L715.7,138h-1.3v28.5
					h-22.5L691.9,85.4L691.9,85.4z M726,120.6c5.7,0,9.4-3.4,9.4-8.5c0-4.9-3.7-8.3-9.4-8.3h-11.7v16.8L726,120.6L726,120.6z"/>
				<path class="st0" d="M793.3,85.4h27l29.8,81.1h-23.4l-5-14.8h-30.2l-5,14.8h-23.1L793.3,85.4z M806.5,108.1l-8.5,25h17.2
					l-8.5-25H806.5z"/>
				<path class="st0" d="M856.3,85.4h38c17.3,0,28.2,7.6,28.2,20.6c0,8.4-4.6,15.1-12.5,18.3c9.1,2.8,15.3,9.5,15.3,19.8
					c0,14.1-11.1,22.5-30.2,22.5h-38.8L856.3,85.4L856.3,85.4z M891.6,117.2c5.4,0,8.8-2.5,8.8-6.9c0-4.4-3.4-7-8.9-7h-13.6v13.8
					L891.6,117.2L891.6,117.2z M893.4,148.5c6.2,0,9.7-2.8,9.7-7.5c0-4.6-3.6-7.2-9.6-7.2h-15.6v14.7L893.4,148.5L893.4,148.5z"/>
				<path class="st0" d="M936,85.2h22.6v81.3H936V85.2z"/>
				<path class="st0" d="M349.3,273.7l11.9-15.8c4.9,5.3,12.7,8.7,20.4,8.7c5,0,10-1.6,10-6.5c0-5.2-4.5-6.7-12.7-8.4
					c-17.3-3.5-27.3-10.3-27.3-24.8c0-16.6,15-25.6,32.8-25.6c12.4,0,22.5,3.5,29.8,10.7l-11.7,15c-6.2-4.7-12.1-6.9-17.9-6.9
					c-5.3,0-9.3,1.6-9.3,5.5s3.1,5.9,12.5,7.9c17.9,3.6,27.7,11.8,27.7,26.5c0,16.7-14.8,25.5-34.4,25.5
					C367.9,285.6,356.2,280.4,349.3,273.7z"/>
				<path class="st0" d="M416.3,202.9h23.6l17.1,56.8h0.2l17.4-56.8h23.3L470.4,284h-26.7L416.3,202.9z"/>
				<path class="st0" d="M497.1,243.5c0-24.4,17.9-42.2,42.4-42.2s42.4,17.7,42.4,42c0,24.5-17.9,42.3-42.6,42.3
					C515,285.6,497.1,267.9,497.1,243.5z M558.8,243.5c0-12.4-8-21.5-19.2-21.5s-19.4,9-19.4,21.4c0,12.5,8.3,21.5,19.4,21.5
					C550.8,264.9,558.8,255.8,558.8,243.5z"/>
				<path class="st0" d="M583.5,268.7l17.8-10c1.8,3.9,5.3,5.8,9.4,5.8c5.4,0,8.9-3.9,8.9-9.9v-51.9H642v51.3
					c0,19.1-11.2,31.5-29.6,31.5C598.8,285.6,588.7,280,583.5,268.7z"/>
				<path class="st0" d="M682.8,243.5c0-26.6,20-42.2,41.7-42.2c13.5,0,25.4,6.1,32.8,16.2L742,230.4c-3.8-5-10.8-8.5-17.2-8.5
					c-9.7,0-19.4,6.6-19.4,21.8c0,14.2,8.8,21.6,19.1,21.6c8.3,0,14.8-4.3,17.7-10.8h-19.5v-17.5h42.6v0.1v6.2
					c0,24.5-16.5,42.3-40.8,42.3C700.5,285.6,682.8,268.7,682.8,243.5z"/>
				<path class="st0" d="M775.5,202.7h22.4v60.7h34.3V284h-56.6V202.7z"/>
				<path class="st0" d="M865,202.9h27l29.8,81.1h-23.4l-5-14.8h-30.2l-5,14.8h-23.1L865,202.9z M878.2,225.6l-8.5,25h17.2l-8.5-25
					H878.2z"/>
				<path class="st0" d="M924.3,273.7l11.9-15.8c4.9,5.3,12.7,8.7,20.4,8.7c5.1,0,10-1.6,10-6.5c0-5.2-4.4-6.7-12.7-8.4
					c-17.3-3.5-27.3-10.3-27.3-24.8c0-16.6,15-25.6,32.8-25.6c12.4,0,22.5,3.5,29.8,10.7l-11.7,15c-6.2-4.7-12.1-6.9-17.9-6.9
					c-5.3,0-9.3,1.6-9.3,5.5s3.1,5.9,12.5,7.9c17.9,3.6,27.7,11.8,27.7,26.5c0,16.7-14.8,25.5-34.4,25.5
					C943,285.6,931.3,280.4,924.3,273.7z"/>
			</g>
		</g>
	</g>
	<g>
		<rect x="1073.6" y="52.5" class="st1" width="355.5" height="237.2"/>
		<rect x="1078.2" y="57.2" class="st0" width="346.2" height="227.8"/>
		<polygon class="st2" points="1251.1,78.3 1254.5,88.8 1265.6,88.8 1256.6,95.2 1260.1,105.7 1251.1,99.2 1242.2,105.7 
			1245.7,95.2 1236.7,88.8 1247.8,88.8 		"/>
		<polygon class="st2" points="1251.1,236.5 1254.5,247 1265.6,247 1256.6,253.4 1260.1,263.9 1251.1,257.4 1242.2,263.9 
			1245.7,253.4 1236.7,247 1247.8,247 		"/>
		<polygon class="st2" points="1211.8,88.8 1215.2,99.4 1226.2,99.3 1217.3,105.8 1220.7,116.2 1211.8,109.7 1202.9,116.2 
			1206.3,105.8 1197.4,99.3 1208.5,99.4 		"/>
		<polygon class="st2" points="1182.8,117.9 1186.2,128.4 1197.2,128.3 1188.3,134.8 1191.7,145.3 1182.8,138.7 1173.9,145.3 
			1177.4,134.8 1168.4,128.3 1179.5,128.4 		"/>
		<polygon class="st2" points="1172.2,157.3 1175.5,167.8 1186.6,167.8 1177.6,174.2 1181,184.7 1172.2,178.2 1163.2,184.7 
			1166.7,174.2 1157.7,167.8 1168.8,167.8 		"/>
		<polygon class="st2" points="1182.7,196.8 1186.1,207.3 1197.1,207.2 1188.2,213.7 1191.6,224.2 1182.7,217.6 1173.8,224.2 
			1177.3,213.7 1168.3,207.3 1179.3,207.3 		"/>
		<polygon class="st2" points="1211.8,225.8 1215.2,236.3 1226.2,236.3 1217.3,242.7 1220.7,253.2 1211.8,246.7 1202.9,253.2 
			1206.3,242.7 1197.4,236.3 1208.5,236.3 		"/>
		<polygon class="st2" points="1290.5,88.8 1287.2,99.4 1276.1,99.3 1285.1,105.8 1281.6,116.2 1290.5,109.7 1299.4,116.2 
			1296,105.8 1304.9,99.3 1293.9,99.4 		"/>
		<polygon class="st2" points="1319.5,117.9 1316.1,128.4 1305.1,128.3 1314,134.8 1310.6,145.3 1319.5,138.7 1328.4,145.3 
			1325,134.8 1333.9,128.3 1322.9,128.4 		"/>
		<polygon class="st2" points="1330.2,157.3 1326.8,167.8 1315.8,167.8 1324.7,174.2 1321.3,184.7 1330.2,178.2 1339.1,184.7 
			1335.6,174.2 1344.6,167.8 1333.6,167.8 		"/>
		<polygon class="st2" points="1319.6,196.8 1316.3,207.3 1305.2,207.2 1314.2,213.7 1310.7,224.2 1319.6,217.6 1328.5,224.2 
			1325.1,213.7 1334,207.3 1323,207.3 		"/>
		<polygon class="st2" points="1290.5,225.8 1287.2,236.3 1276.1,236.3 1285.1,242.7 1281.6,253.2 1290.5,246.7 1299.4,253.2 
			1296,242.7 1304.9,236.3 1293.9,236.3 		"/>
	</g>
	<path class="st0" d="M315.1,209.5L209.6,0L0,105.6l79,156.8H25.2V285h288.4v-22.6H210.3L315.1,209.5z M30.4,115.6l169.1-85.2
		l85.2,169.1l-124.8,62.8h-55.6L30.4,115.6z"/>
</g>
<g id="Clear_space">
</g>
</svg>
