<?xml version="1.0" encoding="utf-8"?>
<!-- Generator: Adobe Illustrator 27.7.0, SVG Export Plug-In . SVG Version: 6.00 Build 0)  -->
<svg version="1.1" id="Camada_1" xmlns="http://www.w3.org/2000/svg" xmlns:xlink="http://www.w3.org/1999/xlink" x="0px" y="0px"
	 viewBox="0 0 1691.5 289.7" style="enable-background:new 0 0 1691.5 289.7;" xml:space="preserve">
<style type="text/css">
	.st0{fill:#0C4DA2;}
	.st1{fill:#FFFFFF;}
	.st2{fill:#FFF200;}
</style>
<g id="Elements">
	<g>
		<path class="st0" d="M393.3,152h-12l-4,14h-19.5l3.9-14H353v-16.4h13.3l4-14.6h-11.4V105h16l4.2-15h19.6l-4.2,15h11.9l4.2-15h19.5
			l-4.2,15h9.9v16.1h-14.4l-4,14.6h12.4V152h-17.1l-3.8,14h-19.4L393.3,152z M397.9,135.7l4.1-14.6h-12l-4.1,14.6H397.9z"/>
		<path class="st0" d="M464.2,86.4h27l29.8,81.1h-23.4l-5-14.8h-30.2l-5,14.8h-23.1L464.2,86.4z M477.5,109.1l-8.5,25h17.2l-8.5-25
			L477.5,109.1L477.5,109.1z"/>
		<path class="st0" d="M525.3,147.7h63.2v19.8h-63.2V147.7z M525.9,86.3h62.2v19.8h-62.2V86.3z M533,117.3h47.8V136H533V117.3z"/>
		<path class="st0" d="M598.8,86.3h22.6v81.3h-22.6V86.3z"/>
		<path class="st0" d="M630.4,127c0-24.4,17.9-42.2,42.4-42.2s42.4,17.7,42.4,42c0,24.5-17.9,42.3-42.6,42.3
			C648.3,169.1,630.4,151.4,630.4,127z M692.1,127c0-12.4-8-21.5-19.2-21.5c-11.2,0-19.4,9-19.4,21.4c0,12.5,8.3,21.5,19.4,21.5
			C684,148.4,692.1,139.3,692.1,127z"/>
		<path class="st0" d="M772.5,105.5h-25.7v62h-22.2V86.4h70.2v81.1h-22.2L772.5,105.5L772.5,105.5z"/>
		<path class="st0" d="M804,127c0-24.4,17.9-42.2,42.4-42.2s42.4,17.7,42.4,42c0,24.5-17.9,42.3-42.6,42.3
			C821.9,169.1,804,151.4,804,127z M865.7,127c0-12.4-8-21.5-19.2-21.5c-11.2,0-19.4,9-19.4,21.4c0,12.5,8.3,21.5,19.4,21.5
			C857.6,148.4,865.7,139.3,865.7,127z"/>
		<path class="st0" d="M898.1,86.3h22.6v81.3h-22.6V86.3z"/>
		<path class="st0" d="M933.6,167.5V86.4H956v30.1h26.7V86.4h22.5v81.1h-22.5v-31H956v31H933.6z"/>
		<path class="st0" d="M1014.7,151.7l21.9-25.7l-20.9-24V86.4h57.2v19.8h-29.1l13.2,15.6v9.6l-13.3,16.2h29.8v19.8h-58.8
			L1014.7,151.7L1014.7,151.7z"/>
		<path class="st0" d="M1105.5,116.6h33.7v19.4h-33.7v12.3h39.8v19.4h-61.8V86.4h60.7v19.5h-38.7V116.6z"/>
		<path class="st0" d="M394.9,224.6V285h-22.5v-60.5h-23.1v-20.8h68.5v20.8H394.9z"/>
		<path class="st0" d="M424,285v-81.1h22.4v30.1h26.7v-30.1h22.5V285h-22.5v-31h-26.7v31H424z"/>
		<path class="st0" d="M508.7,203.8h19l30.1,42.6v-42.6h22.6V285h-18.9L531,241.6V285h-22.2V203.8z"/>
		<path class="st0" d="M623.9,233.8v-30.1H646v31.1c0,8.7,4.7,12.1,10.8,12.1h2v-43.3H681V247h1.8c6.1,0,10.8-3.4,10.8-12v-31.3
			h22.1v30.1c0,19.8-11.2,32.5-32.5,32.5H681V285h-22.1v-18.8h-2.5C634.9,266.3,623.9,253.3,623.9,233.8z"/>
		<path class="st0" d="M726.4,285v-81.1h22.4v30.1h26.7v-30.1h22.5V285h-22.5v-31h-26.7v31H726.4z"/>
		<path class="st0" d="M844.6,279.7c-23.6-0.8-38.3-14.9-38.3-35.2s14.8-34.5,38.3-35.2v-7.9h22v7.9c23.6,0.7,38.5,14.8,38.5,35
			c0,20.2-14.8,34.5-38.5,35.5v7.7h-22V279.7z M844.6,262.3v-35.8c-9.7,0.5-16,7.7-16,17.9S834.8,261.8,844.6,262.3z M882.5,244.5
			c0-10.1-6.1-17.5-16-18v35.8C876.4,261.8,882.5,254.6,882.5,244.5z"/>
		<path class="st0" d="M911.3,244.5c0-24.4,17.9-42.2,42.4-42.2c24.5,0,42.4,17.7,42.4,42c0,24.5-17.9,42.3-42.6,42.3
			C929.2,286.6,911.3,268.9,911.3,244.5z M973,244.5c0-12.4-8.1-21.5-19.2-21.5c-11.2,0-19.4,9-19.4,21.4c0,12.5,8.3,21.5,19.4,21.5
			C964.9,265.9,973,256.8,973,244.5z"/>
		<path class="st0" d="M1034.4,269.2l21.9-25.7l-20.9-24v-15.5h57.2v19.8h-29.1l13.2,15.6v9.6l-13.3,16.2h29.8V285h-58.8
			L1034.4,269.2L1034.4,269.2z"/>
		<path class="st0" d="M1097.3,244.5c0-24.4,17.9-42.2,42.4-42.2c24.5,0,42.4,17.7,42.4,42c0,24.5-17.9,42.3-42.6,42.3
			C1115.2,286.6,1097.3,268.9,1097.3,244.5z M1159,244.5c0-12.4-8.1-21.5-19.2-21.5c-11.2,0-19.4,9-19.4,21.4
			c0,12.5,8.3,21.5,19.4,21.5C1150.9,265.9,1159,256.8,1159,244.5z"/>
		<path class="st0" d="M1203.8,203.8l14.2,28.7l13.8-28.7h25.4l-28.1,51.3V285h-22.5v-30.3l-28.1-51H1203.8z"/>
	</g>
	<g>
		<rect x="1336.1" y="52.6" class="st1" width="355.5" height="237.2"/>
		<rect x="1340.7" y="57.2" class="st0" width="346.2" height="227.8"/>
		<polygon class="st2" points="1513.6,78.3 1517,88.9 1528,88.8 1519.1,95.3 1522.5,105.8 1513.6,99.2 1504.7,105.8 1508.2,95.3 
			1499.2,88.8 1510.2,88.9 		"/>
		<polygon class="st2" points="1513.6,236.5 1517,247 1528,247 1519.1,253.5 1522.5,264 1513.6,257.4 1504.7,264 1508.2,253.5 
			1499.2,247 1510.2,247 		"/>
		<polygon class="st2" points="1474.3,88.9 1477.6,99.4 1488.7,99.3 1479.8,105.8 1483.2,116.3 1474.3,109.7 1465.4,116.3 
			1468.8,105.8 1459.9,99.3 1470.9,99.4 		"/>
		<polygon class="st2" points="1445.3,117.9 1448.7,128.4 1459.7,128.3 1450.8,134.8 1454.2,145.3 1445.3,138.8 1436.4,145.3 
			1439.9,134.8 1430.9,128.3 1442,128.4 		"/>
		<polygon class="st2" points="1434.6,157.4 1438,167.9 1449,167.8 1440.1,174.3 1443.5,184.7 1434.6,178.2 1425.7,184.7 
			1429.2,174.3 1420.2,167.8 1431.3,167.9 		"/>
		<polygon class="st2" points="1445.2,196.8 1448.6,207.4 1459.6,207.3 1450.6,213.7 1454.1,224.2 1445.2,217.7 1436.3,224.2 
			1439.8,213.7 1430.8,207.3 1441.8,207.4 		"/>
		<polygon class="st2" points="1474.3,225.8 1477.6,236.4 1488.7,236.3 1479.8,242.7 1483.2,253.2 1474.3,246.7 1465.4,253.2 
			1468.8,242.7 1459.9,236.3 1470.9,236.4 		"/>
		<polygon class="st2" points="1553,88.9 1549.6,99.4 1538.6,99.3 1547.6,105.8 1544.1,116.3 1553,109.7 1561.9,116.3 1558.5,105.8 
			1567.4,99.3 1556.4,99.4 		"/>
		<polygon class="st2" points="1582,117.9 1578.6,128.4 1567.6,128.3 1576.5,134.8 1573.1,145.3 1582,138.8 1590.9,145.3 
			1587.4,134.8 1596.4,128.3 1585.3,128.4 		"/>
		<polygon class="st2" points="1592.7,157.4 1589.3,167.9 1578.2,167.8 1587.2,174.3 1583.8,184.7 1592.7,178.2 1601.6,184.7 
			1598.1,174.3 1607.1,167.8 1596,167.9 		"/>
		<polygon class="st2" points="1582.1,196.8 1578.7,207.4 1567.7,207.3 1576.7,213.7 1573.2,224.2 1582.1,217.7 1591,224.2 
			1587.5,213.7 1596.5,207.3 1585.5,207.4 		"/>
		<polygon class="st2" points="1553,225.8 1549.6,236.4 1538.6,236.3 1547.6,242.7 1544.1,253.2 1553,246.7 1561.9,253.2 
			1558.5,242.7 1567.4,236.3 1556.4,236.4 		"/>
	</g>
	<path class="st0" d="M315.1,209.5L209.6,0L0,105.6l79,156.8H25.2V285h288.4v-22.6H210.3L315.1,209.5z M30.4,115.6l169.1-85.2
		l85.2,169.1l-124.8,62.8h-55.6L30.4,115.6z"/>
</g>
<g id="Clear_space">
</g>
</svg>
