<?xml version="1.0" encoding="utf-8"?>
<!-- Generator: Adobe Illustrator 27.7.0, SVG Export Plug-In . SVG Version: 6.00 Build 0)  -->
<svg version="1.1" id="Camada_1" xmlns="http://www.w3.org/2000/svg" xmlns:xlink="http://www.w3.org/1999/xlink" x="0px" y="0px"
	 viewBox="0 0 1484.9 289.5" style="enable-background:new 0 0 1484.9 289.5;" xml:space="preserve">
<style type="text/css">
	.st0{fill:#0C4DA2;}
	.st1{fill:#FFFFFF;}
	.st2{fill:#FFF200;}
</style>
<g id="Elements">
	<g>
		<path class="st0" d="M393.4,151.8h-12l-4,14h-19.5l3.9-14h-8.7v-16.4h13.3l4-14.6H359v-16.1h16l4.2-15h19.6l-4.2,15h11.9l4.2-15
			h19.5l-4.2,15h9.9v16.1h-14.4l-4,14.6h12.4v16.4h-17.1l-3.8,14h-19.4L393.4,151.8z M398,135.4l4.1-14.6h-12l-4.1,14.6H398z"/>
		<path class="st0" d="M445.8,135.5V86h22.5v49.6c0,7.3,5,12.1,12.6,12.1c7.7,0,12.6-4.8,12.6-12.1V86h22.4v49.5
			c0,20-14,33.2-35,33.2C459.6,168.7,445.8,155.5,445.8,135.5z"/>
		<path class="st0" d="M567.1,106.8v60.5h-22.5v-60.5h-23.1V86h68.5v20.8H567.1z"/>
		<path class="st0" d="M596.3,86h22.6v81.3h-22.6V86z"/>
		<path class="st0" d="M633.2,86h22.4v60.7h34.3v20.6h-56.6V86z"/>
		<path class="st0" d="M696.1,86h22.6v81.3h-22.6V86z"/>
		<path class="st0" d="M727.8,156.9l11.9-15.8c4.9,5.3,12.7,8.7,20.4,8.7c5,0,10-1.6,10-6.5c0-5.2-4.5-6.7-12.7-8.4
			c-17.3-3.5-27.3-10.3-27.3-24.8c0-16.6,15-25.6,32.8-25.6c12.4,0,22.5,3.5,29.8,10.7l-11.7,15c-6.2-4.7-12.1-6.9-17.9-6.9
			c-5.3,0-9.3,1.6-9.3,5.5s3.1,5.9,12.5,7.9c17.9,3.6,27.7,11.8,27.7,26.4c0,16.7-14.8,25.5-34.4,25.5
			C746.5,168.8,734.8,163.7,727.8,156.9z"/>
		<path class="st0" d="M824.9,116.3h33.7v19.4h-33.7v12.3h39.8v19.4h-61.8V86.1h60.7v19.5h-38.7V116.3z"/>
		<path class="st0" d="M872.5,153l35.8-47.9h-34.8V86h64.3v14.3l-35.7,48h36.6v19h-66.2V153z"/>
		<path class="st0" d="M349.3,203.6h23.6l17.1,56.8h0.2l17.4-56.8h23.3l-27.5,81.1h-26.7L349.3,203.6z"/>
		<path class="st0" d="M430.2,244.3c0-24.4,17.9-42.2,42.4-42.2s42.4,17.7,42.4,42c0,24.5-17.9,42.3-42.6,42.3
			C448.1,286.3,430.2,268.7,430.2,244.3z M491.8,244.3c0-12.4-8-21.5-19.2-21.5s-19.4,9-19.4,21.4c0,12.5,8.3,21.5,19.4,21.5
			C483.8,265.7,491.8,256.5,491.8,244.3z"/>
		<path class="st0" d="M563.3,224.3v60.5h-22.5v-60.5h-23.1v-20.8h68.5v20.8H563.3z"/>
		<path class="st0" d="M592.5,203.6h34.8c18.9,0,31.3,10.5,31.3,26.3c0,11.9-6.8,20.7-18.3,24.4l20,30.4h-25.6l-18.3-28.5h-1.3v28.5
			h-22.5L592.5,203.6L592.5,203.6z M626.6,238.9c5.7,0,9.4-3.4,9.4-8.5c0-4.9-3.7-8.3-9.4-8.3h-11.7v16.8L626.6,238.9L626.6,238.9z"
			/>
		<path class="st0" d="M691.2,233.8h33.7v19.4h-33.7v12.3H731v19.4h-61.8v-81.1h60.7v19.5h-38.7V233.8z"/>
		<path class="st0" d="M765.5,203.6H789l17.1,56.8h0.2l17.4-56.8h23.3l-27.5,81.1h-26.7L765.5,203.6z"/>
		<path class="st0" d="M846.3,244.3c0-24.4,17.9-42.2,42.4-42.2c24.5,0,42.4,17.7,42.4,42c0,24.5-17.9,42.3-42.6,42.3
			C864.2,286.3,846.3,268.7,846.3,244.3z M908,244.3c0-12.4-8.1-21.5-19.2-21.5s-19.4,9-19.4,21.4c0,12.5,8.3,21.5,19.4,21.5
			C900,265.7,908,256.5,908,244.3z"/>
		<path class="st0" d="M941.8,203.5h22.6v81.3h-22.6V203.5z"/>
		<path class="st0" d="M1010.7,258.1l-14.3,26.7h-25.8l24.3-41.7l-22.5-39.5H998l12.7,24.9l12.7-24.9h25.5l-22.6,39.5l24.4,41.7
			h-25.6L1010.7,258.1z"/>
	</g>
	<g>
		<rect x="1129.4" y="52.3" class="st1" width="355.5" height="237.2"/>
		<rect x="1134.1" y="57" class="st0" width="346.2" height="227.8"/>
		<polygon class="st2" points="1306.9,78.1 1310.3,88.6 1321.4,88.6 1312.4,95 1315.9,105.5 1306.9,99 1298.1,105.5 1301.5,95 
			1292.5,88.6 1303.6,88.6 		"/>
		<polygon class="st2" points="1306.9,236.3 1310.3,246.8 1321.4,246.7 1312.4,253.2 1315.9,263.7 1306.9,257.2 1298.1,263.7 
			1301.5,253.2 1292.5,246.7 1303.6,246.8 		"/>
		<polygon class="st2" points="1267.6,88.6 1271,99.1 1282,99.1 1273.1,105.5 1276.5,116 1267.6,109.5 1258.7,116 1262.2,105.5 
			1253.2,99.1 1264.3,99.1 		"/>
		<polygon class="st2" points="1238.7,117.7 1242,128.2 1253.1,128.1 1244.1,134.6 1247.5,145 1238.7,138.5 1229.8,145 
			1233.2,134.6 1224.2,128.1 1235.3,128.2 		"/>
		<polygon class="st2" points="1228,157.1 1231.3,167.6 1242.4,167.5 1233.4,174 1236.8,184.5 1228,178 1219.1,184.5 1222.5,174 
			1213.5,167.5 1224.6,167.6 		"/>
		<polygon class="st2" points="1238.5,196.6 1241.9,207.1 1252.9,207 1244,213.5 1247.4,224 1238.5,217.4 1229.6,224 1233.1,213.5 
			1224.1,207 1235.1,207.1 		"/>
		<polygon class="st2" points="1267.6,225.6 1271,236.1 1282,236 1273.1,242.5 1276.5,253 1267.6,246.5 1258.7,253 1262.2,242.5 
			1253.2,236 1264.3,236.1 		"/>
		<polygon class="st2" points="1346.3,88.6 1343,99.1 1331.9,99.1 1340.9,105.5 1337.4,116 1346.3,109.5 1355.2,116 1351.8,105.5 
			1360.8,99.1 1349.7,99.1 		"/>
		<polygon class="st2" points="1375.3,117.7 1371.9,128.2 1360.9,128.1 1369.9,134.6 1366.4,145 1375.3,138.5 1384.2,145 
			1380.8,134.6 1389.7,128.1 1378.7,128.2 		"/>
		<polygon class="st2" points="1386,157.1 1382.6,167.6 1371.6,167.5 1380.5,174 1377.1,184.5 1386,178 1394.9,184.5 1391.5,174 
			1400.4,167.5 1389.4,167.6 		"/>
		<polygon class="st2" points="1375.4,196.6 1372.1,207.1 1361,207 1370,213.5 1366.5,224 1375.4,217.4 1384.3,224 1380.9,213.5 
			1389.8,207 1378.8,207.1 		"/>
		<polygon class="st2" points="1346.3,225.6 1343,236.1 1331.9,236 1340.9,242.5 1337.4,253 1346.3,246.5 1355.2,253 1351.8,242.5 
			1360.8,236 1349.7,236.1 		"/>
	</g>
	<path class="st0" d="M315.1,209.5L209.6,0L0,105.6l79,156.8H25.2V285h288.4v-22.6H210.3L315.1,209.5z M30.4,115.6l169.1-85.2
		l85.2,169.1l-124.8,62.8h-55.6L30.4,115.6z"/>
</g>
<g id="Clear_space">
</g>
</svg>
