<?xml version="1.0" encoding="utf-8"?>
<!-- Generator: Adobe Illustrator 27.6.1, SVG Export Plug-In . SVG Version: 6.00 Build 0)  -->
<svg version="1.1" id="Layer_1" xmlns="http://www.w3.org/2000/svg" xmlns:xlink="http://www.w3.org/1999/xlink" x="0px" y="0px"
	 viewBox="0 0 860 240" style="enable-background:new 0 0 860 240;" xml:space="preserve">
<style type="text/css">
	.st0{fill:#FFFFFF;}
</style>
<path class="st0" d="M73.1,53.5c5.4,2.6,11.2,4,17.2,4.1c6.1,0,9.1-2.1,9.1-5.4s-3-5.1-10.4-7.7c-11.2-3.9-18.6-10.1-18.6-20
	c0-11.7,9.8-20.8,26.6-20.8c8,0,13.6,1.5,18,3.4l-3.7,14.2c-4.5-2.1-9.5-3.2-14.5-3.1c-5.4,0-8.4,2-8.4,4.9c0,3.4,3.6,4.7,11.9,7.9
	c11.9,4.3,17.3,10.7,17.3,20c0,11.4-9,21.2-28.4,21.2c-8,0-15.8-2.1-19.5-4L73.1,53.5z"/>
<path class="st0" d="M127.2,4.8h17.6V33h0.2c1.4-2.5,2.9-4.9,4.3-7.3L162,4.8h21.9l-21,28.3l21.9,38.1h-20.6l-14-26.9l-5.3,6.8v20.1
	h-17.6V4.8z"/>
<path class="st0" d="M208.5,4.8v37.6c0,10,3.4,15.8,10.4,15.8s10.5-5.2,10.5-15.8V4.8h17.8v36.6c0,20.5-10.2,30.8-28.8,30.8
	c-18.2,0-27.8-9.9-27.8-31.3V4.8H208.5z"/>
<path class="st0" d="M259.4,5.7c7.3-1,14.6-1.5,22-1.4c9.5,0,16.3,1.7,21,5.2c4.9,3.8,7.7,9.8,7.6,16c0,6.7-2.3,12.6-6.4,16.3
	c-5.4,4.8-13.2,6.9-22.1,6.9c-1.7,0-3.2-0.1-4.3-0.2v22.6h-17.7V5.7z M277,35c1.3,0.1,2.7,0.2,4,0.2c7,0,11.3-3.6,11.3-9.3
	c0-4.9-3.4-8.3-10-8.3c-1.8,0-3.6,0.1-5.3,0.4V35z"/>
<path class="st0" d="M331.1,55.8l-3.7,15.4H309l19.3-66.3h23.6l19.8,66.3h-19.2l-4.2-15.4H331.1z M345.8,42.6l-3-11.9
	c-1-3.7-2.3-9.1-3.2-13.1h-0.2c-1,3.9-2,9.4-3,13.2l-2.9,11.8H345.8z"/>
<path class="st0" d="M394,4.8h17.8v40.9c0,19.3-9.2,26.5-25.2,26.5c-4,0-7.9-0.5-11.7-1.6l1.9-14.3c2.5,0.7,5.2,1.1,7.8,1.1
	c5.7,0,9.5-2.6,9.5-11.7V4.8z"/>
<path class="st0" d="M424.7,53.5c5.4,2.6,11.3,4.1,17.3,4.1c6.1,0,9.1-2.1,9.1-5.4s-3-5.1-10.4-7.7c-11.2-3.9-18.6-10.1-18.6-20
	c0-11.7,9.8-20.8,26.6-20.8c8,0,13.6,1.5,18,3.4l-3.7,14.2c-4.5-2.1-9.5-3.2-14.5-3.1c-5.4,0-8.4,2-8.4,4.9c0,3.4,3.5,4.7,11.9,7.9
	c11.9,4.3,17.3,10.7,17.3,20c0,11.4-9,21.2-28.4,21.2c-8,0-15.8-2.1-19.5-4L424.7,53.5z"/>
<path class="st0" d="M534.9,47.4c-0.2-7.6-0.4-16.4-0.3-26.8h-0.3c-2.1,8.8-4.8,18.7-7,26l-6.6,23.1h-13.9l-5.6-23
	c-1.7-7.2-3.7-17-5.2-26.1h-0.2c-0.4,9.4-0.8,19.2-1.1,26.8l-1,23.7h-16.3l4-66.3h23.9l4.4,17.8c1.8,7.4,3.7,16.2,5.1,24.3h0.4
	c1.9-8.1,4-17.4,6-24.4l4.9-17.7h23.4l3.4,66.3h-17.3L534.9,47.4z"/>
<path class="st0" d="M626.3,37.3c0,21.4-12.8,35-33.3,35s-31.9-15.5-31.9-33.9c0-19.3,12.7-34.7,33-34.7
	C615.5,3.7,626.3,19.6,626.3,37.3z M580,38.1c0,12.4,5.4,20.1,14,20.1s13.6-8.4,13.6-20.3c0-11.4-5.1-20.1-13.7-20.1
	S580,25.9,580,38.1z"/>
<path class="st0" d="M651.2,61.7l29.3-41.8v-0.4H654V4.8h49.6V15l-28.5,41.1v0.4h28.9v14.7h-52.9V61.7z"/>
<path class="st0" d="M731.7,55.8L728,71.2h-18.4l19.3-66.3h23.6l19.8,66.3h-19.2l-4.2-15.4H731.7z M746.4,42.6l-3-11.9
	c-1-3.7-2.3-9.1-3.2-13.1H740c-1,3.9-2,9.4-3,13.2l-2.8,11.8H746.4z"/>
<path class="st0" d="M550.9,140.5h-0.2c-1.2,4.7-2.3,11.2-3.5,15.7l-3.4,14h14.6l-3.6-14.1C553.5,151.7,552,145.2,550.9,140.5z"/>
<path class="st0" d="M474.9,140.3c-2.4-0.1-4.8,0.1-7.1,0.5v18.7h5.5c8,0,12.5-4,12.5-9.8S482,140.4,474.9,140.3z"/>
<path class="st0" d="M321.4,140.8c-10.1,0-16.5,9.6-16.5,24.1c0,14.7,6.4,23.9,16.6,23.9s16.1-10,16.1-24.1
	C337.7,151.1,331.6,140.8,321.4,140.8z"/>
<path class="st0" d="M64.6,140.9c-2.2-0.1-4.3,0.1-6.4,0.5v47c1.5,0.2,3,0.3,4.4,0.2c13.7,0.2,23.8-7.4,23.8-25.1
	C86.4,148.2,77.3,140.9,64.6,140.9z"/>
<path class="st0" d="M787.7,140.8c-10.1,0-16.5,9.6-16.5,24.1c0,14.7,6.4,23.9,16.6,23.9s16.2-10,16.2-24.1
	C803.9,151.1,797.8,140.8,787.7,140.8z"/>
<path class="st0" d="M6.7,94.9v140.7h846.6V94.9H6.7z M95.1,195.3c-8.7,6.8-21.5,9.7-37,9.7c-10.2,0-17-0.6-21.1-1.3v-77.3
	c8.3-1.2,16.7-1.7,25.2-1.6c15.1,0,24.6,2.4,32.4,7.8c8.7,6,14.3,15.8,14.3,30.3C108.9,178.9,102.8,189.3,95.1,195.3z M173,204.2
	h-52.9v-78.9h51.2v17.2h-30.1v12.8h28.3v17.1h-28.3v14.5H173V204.2z M252.3,204.2l-0.9-28.2c-0.2-9-0.5-19.5-0.4-31.8h-0.4
	c-2.5,10.4-5.7,22.2-8.3,30.9l-7.8,27.5H218l-6.7-27.4c-2-8.5-4.5-20.2-6.2-31h-0.2c-0.5,11.1-0.9,22.8-1.3,31.8l-1.2,28.2H183
	l4.8-78.9h28.4l5.3,21.2c2.1,8.8,4.4,19.3,6.1,28.9h0.5c2.2-9.6,4.8-20.7,7.1-29l5.9-21.1h27.9l4,78.9L252.3,204.2z M320.5,205.5
	c-24.5,0-37.9-18.4-37.9-40.2c0-22.9,15.1-41.2,39.2-41.2c25.4,0,38.3,18.8,38.3,39.9C360,189.3,344.8,205.5,320.5,205.5
	L320.5,205.5z M415.2,204.2l-16.6-31.9l-6.3,8.1v23.9h-21v-78.9h20.9v33.5h0.2c1.6-2.9,3.4-5.9,5.1-8.7l15.1-24.8h26l-25,33.6
	l26,45.3H415.2z M488.3,204.2c-1.2-2.3-3.2-8.4-5.5-18.1c-2.1-9.5-5-11.5-11.6-11.5h-3.4v29.6h-21v-77.8c8.5-1.2,17-1.7,25.5-1.6
	c12,0,20.7,1.6,26.7,6.1c5,3.9,7.8,9.5,7.8,17.2c0,9.8-7.4,16.9-13.6,19.1v0.5c5.3,2.2,8.1,7.3,10.1,14c2.5,8.1,5,19.5,6.5,22.6
	L488.3,204.2z M566.3,204.2l-5-18.2h-20.4l-4.4,18.2h-21.9l22.9-78.9h28.1l23.5,78.9H566.3z M637.8,187.9c4.8,0,9.6-0.8,14.2-2.3
	l2.9,16.6c-3,1.4-10.4,3.2-19.9,3.2c-29.5,0-42.5-18.4-42.5-39.3c0-27.9,20.4-42,43.9-42c9.1,0,16.5,1.8,19.8,3.5l-4.1,16.6
	c-4.6-1.9-9.6-2.8-14.6-2.8c-12.2,0-22.7,7.1-22.7,23.3C614.7,179,623.3,187.9,637.8,187.9z M687.4,204.2h-21.2v-78.9h21.2
	L687.4,204.2z M738.2,174c0,22.9-11,31.5-30,31.5c-4.7,0-9.4-0.6-13.9-1.9l2.2-17c3,0.8,6.1,1.3,9.2,1.3c6.8,0,11.2-3,11.2-13.9
	v-48.7h21.2L738.2,174z M786.7,205.5c-24.5,0-37.9-18.4-37.9-40.2c0-22.9,15.1-41.1,39.2-41.1c25.4,0,38.3,18.8,38.3,39.9
	C826.3,189.3,811.1,205.5,786.7,205.5L786.7,205.5z"/>
</svg>
