<svg xmlns="http://www.w3.org/2000/svg" width="227.259" height="70.586" viewBox="0 0 227.259 70.586">
  <g id="democracy_Text_block_White_en" data-name="democracy_Text block_White_en" transform="translate(-129 -113.69)">
    <path id="Tracé_82649" data-name="Tracé 82649" d="M160.144,119.246H155V114.72h15.837v4.526h-5.266v15.682h-5.427Z" transform="translate(-18.081 -0.716)" fill="#fff"/>
    <path id="Tracé_82650" data-name="Tracé 82650" d="M229.235,123.9c0,6.505-3.9,10.66-10.133,10.66s-9.712-4.709-9.712-10.312c0-5.878,3.868-10.553,10.051-10.553C225.937,113.675,229.235,118.5,229.235,123.9Zm-14.12.241c0,3.777,1.648,6.116,4.264,6.116s4.136-2.546,4.136-6.177c0-3.475-1.559-6.116-4.166-6.116s-4.233,2.461-4.233,6.18Z" transform="translate(-55.906 0)" fill="#fff"/>
    <path id="Tracé_82651" data-name="Tracé 82651" d="M299.559,133.5a23.85,23.85,0,0,1-6.953,1.167c-3.987,0-6.685-.987-8.528-2.726a9.916,9.916,0,0,1-2.878-7.31c.03-7,5.248-10.584,11.814-10.584a14.494,14.494,0,0,1,5.845.99l-1.078,4.319a11.514,11.514,0,0,0-4.8-.841c-3.329,0-6.091,1.739-6.091,5.845,0,3.78,2.437,5.966,5.753,5.966a6.452,6.452,0,0,0,1.681-.18v-3.484h-2.68v-4.2h7.919Z" transform="translate(-105.846 -0.25)" fill="#fff"/>
    <path id="Tracé_82652" data-name="Tracé 82652" d="M365.282,126.772h-7.255v3.719h8.126v4.438H352.6V114.72h13.133v4.407h-7.705v3.268h7.255Z" transform="translate(-155.5 -0.716)" fill="#fff"/>
    <path id="Tracé_82653" data-name="Tracé 82653" d="M408.056,119.246H402.9V114.72h15.837v4.526h-5.254v15.682h-5.427Z" transform="translate(-190.48 -0.716)" fill="#fff"/>
    <path id="Tracé_82654" data-name="Tracé 82654" d="M468.439,114.72v7.465H475V114.72h5.4v20.208H475v-8.007h-6.563v8.007H463V114.72Z" transform="translate(-232.276 -0.716)" fill="#fff"/>
    <path id="Tracé_82655" data-name="Tracé 82655" d="M545.112,126.772h-7.255v3.719h8.126v4.438H532.43V114.72h13.133v4.407h-7.706v3.268h7.255Z" transform="translate(-280.56 -0.716)" fill="#fff"/>
    <path id="Tracé_82656" data-name="Tracé 82656" d="M586.77,114.646a44.624,44.624,0,0,1,6.533-.42c3.088,0,5.308.42,6.837,1.559a5.233,5.233,0,0,1,2.007,4.407,5.337,5.337,0,0,1-3.478,4.873v.122c1.349.57,2.068,1.858,2.58,3.6.63,2.068,1.288,5.007,1.678,5.787h-5.546a27.432,27.432,0,0,1-1.41-4.648c-.539-2.436-1.288-2.939-2.966-2.939h-.871v7.587H586.77Zm5.363,8.482h1.407c2.041,0,3.207-1.017,3.207-2.516s-.99-2.369-2.787-2.4a9.6,9.6,0,0,0-1.827.119Z" transform="translate(-318.35 -0.371)" fill="#fff"/>
    <path id="Tracé_82657" data-name="Tracé 82657" d="M667,114.72h12.983v4.407h-7.562v3.749h7.105v4.377h-7.105v7.675H667Z" transform="translate(-374.145 -0.716)" fill="#fff"/>
    <path id="Tracé_82658" data-name="Tracé 82658" d="M737.678,123.9c0,6.505-3.9,10.66-10.133,10.66s-9.716-4.709-9.716-10.312c0-5.878,3.868-10.553,10.051-10.553C734.392,113.675,737.678,118.5,737.678,123.9Zm-14.123.241c0,3.777,1.651,6.116,4.264,6.116s4.139-2.546,4.139-6.177c0-3.475-1.559-6.116-4.169-6.116s-4.221,2.461-4.221,6.18Z" transform="translate(-409.494 0)" fill="#fff"/>
    <path id="Tracé_82659" data-name="Tracé 82659" d="M792.48,114.646a44.639,44.639,0,0,1,6.536-.42c3.088,0,5.305.42,6.834,1.559a5.227,5.227,0,0,1,2.01,4.407,5.337,5.337,0,0,1-3.478,4.873v.122c1.349.57,2.068,1.858,2.58,3.6.627,2.068,1.288,5.007,1.678,5.787h-5.546a27.438,27.438,0,0,1-1.41-4.648c-.539-2.436-1.288-2.939-2.966-2.939h-.871v7.587H792.48Zm5.366,8.482h1.41c2.038,0,3.207-1.017,3.207-2.516s-.99-2.37-2.787-2.4a9.6,9.6,0,0,0-1.827.119Z" transform="translate(-461.409 -0.371)" fill="#fff"/>
    <path id="Tracé_82660" data-name="Tracé 82660" d="M661.641,250.44h-.07c-.356,1.425-.713,3.423-1.069,4.776l-1.032,4.264h4.453l-1.106-4.3C662.461,253.827,662,251.865,661.641,250.44Z" transform="translate(-368.909 -95.101)" fill="#fff"/>
    <path id="Tracé_82661" data-name="Tracé 82661" d="M585.711,250.2a10.932,10.932,0,0,0-2.172.143v5.7H585.2c2.437,0,3.813-1.218,3.813-2.994S587.853,250.232,585.711,250.2Z" transform="translate(-316.104 -94.927)" fill="#fff"/>
    <path id="Tracé_82662" data-name="Tracé 82662" d="M430.855,250.68c-3.067,0-5.025,2.921-5.025,7.34,0,4.489,1.958,7.27,5.059,7.27s4.919-3.03,4.919-7.34C435.807,253.823,433.953,250.68,430.855,250.68Z" transform="translate(-206.427 -95.268)" fill="#fff"/>
    <path id="Tracé_82663" data-name="Tracé 82663" d="M181.041,250.782a9.872,9.872,0,0,0-1.961.143v14.314a8.141,8.141,0,0,0,1.355.07c4.169.073,7.233-2.245,7.233-7.66C187.669,252.993,184.891,250.782,181.041,250.782Z" transform="translate(-34.827 -95.336)" fill="#fff"/>
    <path id="Tracé_82664" data-name="Tracé 82664" d="M129,204.77v42.846H356.259V204.77Zm26.479,30.587c-2.638,2.068-6.557,2.957-11.269,2.957a40.342,40.342,0,0,1-6.414-.39V214.37a52.387,52.387,0,0,1,7.66-.5c4.6,0,7.483.746,9.871,2.388,2.638,1.827,4.349,4.809,4.349,9.228C159.685,230.368,157.83,233.539,155.479,235.357Zm23.732,2.708h-16.1V214.047H178.72v5.238h-9.167v3.886h8.625v5.2h-8.625v4.419h9.658Zm24.158,0-.283-8.586c-.073-2.741-.143-5.951-.107-9.694h-.11c-.746,3.171-1.745,6.77-2.528,9.408l-2.388,8.375h-5.025l-2.031-8.339c-.609-2.6-1.352-6.167-1.888-9.441h-.07c-.143,3.387-.286,6.95-.393,9.694l-.356,8.586h-5.915l1.459-24.018h8.662L194,220.5c.643,2.674,1.355,5.881,1.855,8.8H196c.679-2.921,1.462-6.307,2.175-8.832l1.785-6.423h8.467l1.218,24.018Zm20.774.393c-7.447,0-11.546-5.595-11.546-12.259,0-6.984,4.6-12.542,11.939-12.542,7.733,0,11.653,5.735,11.653,12.149C236.188,233.539,231.555,238.458,224.142,238.458Zm28.257-5.345a13.215,13.215,0,0,0,4.31-.713l.892,5.059a16.339,16.339,0,0,1-6.058.962c-8.982,0-12.935-5.595-12.935-11.972,0-8.482,6.2-12.792,13.361-12.792a14.426,14.426,0,0,1,6.024,1.069l-1.249,5.059a11.75,11.75,0,0,0-4.453-.856c-3.707,0-6.914,2.175-6.914,7.093C245.38,230.405,247.98,233.113,252.4,233.113Zm21.268,4.952a32.737,32.737,0,0,1-1.675-5.522c-.64-2.887-1.523-3.493-3.527-3.493h-1.032v9.015h-6.378v-23.7a53.043,53.043,0,0,1,7.769-.5c3.655,0,6.307.5,8.126,1.852a6.232,6.232,0,0,1,2.388,5.238,6.381,6.381,0,0,1-4.136,5.808v.143c1.605.676,2.461,2.211,3.067,4.264.746,2.458,1.523,5.951,1.995,6.877Zm23.756,0-1.523-5.558h-6.195l-1.355,5.558h-6.664l6.987-24.018h8.552l7.16,24.018Zm21.77-4.952a13.249,13.249,0,0,0,4.313-.713l.892,5.059a16.358,16.358,0,0,1-6.061.962c-8.978,0-12.935-5.595-12.935-11.972,0-8.482,6.2-12.792,13.364-12.792a14.409,14.409,0,0,1,6.021,1.069l-1.246,5.059a11.754,11.754,0,0,0-4.456-.856c-3.707,0-6.914,2.175-6.914,7.093.015,4.383,2.61,7.09,7.035,7.09Zm21.015-4.989v9.941h-6.39v-9.691l-7.59-14.314H333.6l2.031,5.4c.679,1.675,1.106,2.887,1.642,4.419h.07c.463-1.462.962-2.781,1.523-4.419l1.995-5.418H348.1Z" transform="translate(0 -63.341)" fill="#fff"/>
  </g>
</svg>
