<?xml version="1.0" encoding="utf-8"?>
<!-- Generator: Adobe Illustrator 27.7.0, SVG Export Plug-In . SVG Version: 6.00 Build 0)  -->
<svg version="1.1" id="Camada_1" xmlns="http://www.w3.org/2000/svg" xmlns:xlink="http://www.w3.org/1999/xlink" x="0px" y="0px"
	 viewBox="0 0 1336.5 290.8" style="enable-background:new 0 0 1336.5 290.8;" xml:space="preserve">
<style type="text/css">
	.st0{fill:#0C4DA2;}
	.st1{fill:#FFFFFF;}
	.st2{fill:#FFF200;}
</style>
<g id="Elements">
	<g>
		<path class="st0" d="M390.5,75.9h-12l-4,13.9H355l3.9-13.9h-8.7V59.5h13.3l4-14.6h-11.4V28.9h16l4.2-15h19.6l-4.2,15h11.9l4.2-15
			h19.5l-4.2,15h9.9V45h-14.4l-4,14.6h12.4v16.4h-17.1L406,89.8h-19.4L390.5,75.9z M395.1,59.5l4.1-14.6h-12l-4.1,14.6H395.1z"/>
		<path class="st0" d="M443.9,10.2h38c17.3,0,28.2,7.6,28.2,20.6c0,8.4-4.6,15.1-12.5,18.3c9.1,2.8,15.3,9.5,15.3,19.8
			c0,14.1-11.1,22.5-30.2,22.5h-38.8V10.2z M479.2,42.1c5.4,0,8.8-2.5,8.8-6.9c0-4.4-3.4-7-8.9-7h-13.6v13.8L479.2,42.1L479.2,42.1z
			 M481,73.4c6.2,0,9.7-2.8,9.7-7.4c0-4.6-3.6-7.2-9.6-7.2h-15.6v14.7L481,73.4L481,73.4z"/>
		<path class="st0" d="M523.4,10.2h34.7c18.9,0,31.3,10.5,31.3,26.3c0,11.9-6.8,20.7-18.3,24.4l20,30.4h-25.6l-18.3-28.5h-1.3v28.5
			h-22.5L523.4,10.2L523.4,10.2z M557.6,45.5c5.7,0,9.4-3.4,9.4-8.5c0-4.9-3.7-8.3-9.4-8.3h-11.7v16.8L557.6,45.5L557.6,45.5z"/>
		<path class="st0" d="M598.4,59.7V10.1h22.5v49.6c0,7.3,5,12.1,12.6,12.1c7.7,0,12.6-4.8,12.6-12.1V10.1h22.4v49.5
			c0,20-14,33.2-35,33.2C612.2,92.8,598.4,79.6,598.4,59.7z"/>
		<path class="st0" d="M677.9,50.9c0-26.6,20-42.2,41.7-42.2c13.5,0,25.4,6.1,32.8,16.2L737,37.8c-3.8-5.1-10.8-8.5-17.2-8.5
			c-9.7,0-19.4,6.6-19.4,21.8c0,14.2,8.8,21.6,19.1,21.6c8.3,0,14.8-4.3,17.7-10.8h-19.5V44.2h42.6v0.1v6.2
			c0,24.5-16.5,42.3-40.8,42.3C695.5,93,677.9,76.1,677.9,50.9z"/>
		<path class="st0" d="M353.6,107h34.6c23.4,0,40.5,17.1,40.5,40.3c0,23.7-17.1,40.9-40.5,40.9h-34.6V107z M405.8,147.4
			c0-11.3-7.8-19.7-18.5-19.7h-11.2v39.9h11.2C397.9,167.6,405.8,159.1,405.8,147.4z"/>
		<path class="st0" d="M439.4,106.9H462v81.3h-22.6V106.9z"/>
		<path class="st0" d="M476.3,106.9h20.4l30.4,43.3v-43.3h22.5v81.3h-20l-31.1-44.4v44.4h-22.2L476.3,106.9L476.3,106.9z"/>
		<path class="st0" d="M349.3,274.6l11.9-15.8c4.9,5.3,12.7,8.7,20.4,8.7c5,0,10-1.6,10-6.5c0-5.2-4.5-6.7-12.7-8.4
			c-17.3-3.5-27.3-10.3-27.3-24.8c0-16.6,15-25.6,32.8-25.6c12.4,0,22.5,3.5,29.8,10.7l-11.7,15c-6.2-4.7-12.1-6.9-17.9-6.9
			c-5.3,0-9.3,1.6-9.3,5.5s3.1,5.9,12.5,7.9c17.9,3.6,27.7,11.8,27.7,26.5c0,16.7-14.8,25.5-34.4,25.5
			C367.9,286.5,356.2,281.3,349.3,274.6z"/>
		<path class="st0" d="M463.2,224.5v60.5h-22.5v-60.5h-23.1v-20.8h68.5v20.8H463.2z"/>
		<path class="st0" d="M514.4,234H548v19.4h-33.7v12.3h39.8v19.4h-61.8v-81.1h60.7v19.5h-38.7V234z"/>
		<path class="st0" d="M566,203.7h22l20.8,38l20.9-38h21.9v81.3H629v-43.2l-16.7,31h-6.8l-17-31v43.2H566V203.7z"/>
		<path class="st0" d="M666.3,203.7h22l20.8,38l20.9-38h21.9v81.3h-22.6v-43.2l-16.7,31h-6.8l-17-31v43.2h-22.5L666.3,203.7
			L666.3,203.7z"/>
		<path class="st0" d="M788.5,234h33.7v19.4h-33.7v12.3h39.8v19.4h-61.8v-81.1h60.7v19.5h-38.7V234z"/>
	</g>
	<g>
		<rect x="907.7" y="4.7" class="st1" width="428.8" height="286.1"/>
		<rect x="913.3" y="10.3" class="st0" width="417.6" height="274.8"/>
		<polygon class="st2" points="1121.8,35.8 1125.9,48.5 1139.2,48.4 1128.4,56.2 1132.6,68.9 1121.8,61 1111.1,68.9 1115.3,56.2 
			1104.4,48.4 1117.8,48.5 		"/>
		<polygon class="st2" points="1121.8,226.6 1125.9,239.3 1139.2,239.2 1128.4,247 1132.6,259.7 1121.8,251.8 1111.1,259.7 
			1115.3,247 1104.4,239.2 1117.8,239.3 		"/>
		<polygon class="st2" points="1074.4,48.5 1078.4,61.2 1091.8,61.1 1081,68.9 1085.1,81.5 1074.4,73.7 1063.7,81.5 1067.8,68.9 
			1057,61.1 1070.3,61.2 		"/>
		<polygon class="st2" points="1039.5,83.5 1043.5,96.2 1056.8,96.1 1046,103.9 1050.2,116.6 1039.5,108.7 1028.7,116.6 
			1032.9,103.9 1022,96.1 1035.4,96.2 		"/>
		<polygon class="st2" points="1026.6,131.1 1030.6,143.8 1043.9,143.7 1033.1,151.5 1037.3,164.1 1026.6,156.3 1015.8,164.1 
			1020,151.5 1009.2,143.7 1022.5,143.8 		"/>
		<polygon class="st2" points="1039.3,178.7 1043.4,191.4 1056.7,191.3 1045.9,199.1 1050.1,211.8 1039.3,203.9 1028.6,211.8 
			1032.8,199.1 1021.9,191.3 1035.2,191.4 		"/>
		<polygon class="st2" points="1074.4,213.7 1078.4,226.4 1091.8,226.3 1081,234.1 1085.1,246.8 1074.4,238.9 1063.7,246.8 
			1067.8,234.1 1057,226.3 1070.3,226.4 		"/>
		<polygon class="st2" points="1169.4,48.5 1165.3,61.2 1152,61.1 1162.8,68.9 1158.6,81.5 1169.4,73.7 1180.1,81.5 1175.9,68.9 
			1186.7,61.1 1173.4,61.2 		"/>
		<polygon class="st2" points="1204.3,83.5 1200.2,96.2 1186.9,96.1 1197.7,103.9 1193.5,116.6 1204.3,108.7 1215.1,116.6 
			1210.9,103.9 1221.7,96.1 1208.4,96.2 		"/>
		<polygon class="st2" points="1217.2,131.1 1213.1,143.8 1199.8,143.7 1210.6,151.5 1206.4,164.1 1217.2,156.3 1227.9,164.1 
			1223.8,151.5 1234.6,143.7 1221.3,143.8 		"/>
		<polygon class="st2" points="1204.4,178.7 1200.4,191.4 1187,191.3 1197.9,199.1 1193.7,211.8 1204.4,203.9 1215.2,211.8 
			1211,199.1 1221.8,191.3 1208.5,191.4 		"/>
		<polygon class="st2" points="1169.4,213.7 1165.3,226.4 1152,226.3 1162.8,234.1 1158.6,246.8 1169.4,238.9 1180.1,246.8 
			1175.9,234.1 1186.7,226.3 1173.4,226.4 		"/>
	</g>
	<path class="st0" d="M315.1,209.5L209.5,0L0,105.5l79,156.8H25.2V285h288.4v-22.6H210.3L315.1,209.5z M30.4,115.6l169.1-85.2
		l85.2,169.1l-124.8,62.8h-55.6L30.4,115.6z"/>
</g>
<g id="Clear_space">
</g>
</svg>
