<?xml version="1.0" encoding="UTF-8"?><svg id="fr" xmlns="http://www.w3.org/2000/svg" viewBox="0 0 188.61 62.38"><defs><style>.cls-1{fill:#224e9c;stroke-width:0px;}</style></defs><path class="cls-1" d="m9.97,16.04h-4.95v2.54h5.54v3.02H1.32V7.83h8.96v3h-5.25v2.23h4.95v2.97Z"/><path class="cls-1" d="m12.6,21.6V7.83h4.35l2.19,4.23c.83,1.56,1.55,3.17,2.17,4.83h.07c-.21-1.93-.3-3.87-.29-5.81v-3.26h3.37v13.77h-3.89l-2.33-4.58c-.87-1.62-1.64-3.29-2.33-4.99h-.06c.08,1.86.12,3.93.12,6.17v3.39h-3.37Z"/><path class="cls-1" d="m27.26,17.92c1.11.55,2.34.84,3.58.86,1.27,0,1.88-.43,1.88-1.13s-.61-1.06-2.17-1.59c-2.33-.82-3.86-2.1-3.86-4.15,0-2.43,2.04-4.31,5.52-4.31,1.28-.03,2.56.21,3.74.72l-.78,2.95c-.94-.43-1.97-.65-3-.65-1.12,0-1.74.41-1.74,1.02,0,.69.74.98,2.47,1.64,2.47.9,3.6,2.23,3.6,4.15,0,2.37-1.86,4.39-5.89,4.39-1.65,0-3.27-.43-4.05-.84l.7-3.05Z"/><path class="cls-1" d="m47.13,16.04h-4.95v2.54h5.54v3.02h-9.24V7.83h8.96v3h-5.25v2.23h4.95v2.97Z"/><path class="cls-1" d="m61.42,16.67c-.04-1.57-.08-3.41-.06-5.56h-.06c-.43,1.82-1,3.89-1.45,5.41l-1.37,4.8h-2.88l-1.17-4.79c-.35-1.49-.78-3.54-1.08-5.41h-.04c-.08,1.94-.16,3.99-.22,5.56l-.2,4.92h-3.39l.84-13.77h4.97l.92,3.69c.37,1.53.78,3.37,1.06,5.05h.08c.39-1.68.84-3.62,1.25-5.07l1.02-3.69h4.86l.7,13.77h-3.6l-.16-4.92Z"/><path class="cls-1" d="m67.45,8c1.44-.2,2.9-.29,4.35-.29,1.97,0,3.13.12,4.21.67,1.12.48,1.85,1.59,1.86,2.81,0,1.17-.63,2.29-2.25,2.9v.05c1.7.47,2.7,1.72,2.7,3.35,0,1.19-.57,2.31-1.53,3.01-1.04.77-2.76,1.23-5.7,1.23-1.22.02-2.43-.06-3.64-.22v-13.51Zm3.66,5.11h.74c1.57,0,2.33-.55,2.33-1.43,0-.82-.61-1.33-1.86-1.33-.4,0-.81.02-1.2.08v2.68Zm0,5.89c.35.04.71.05,1.06.04,1.23,0,2.27-.49,2.27-1.7s-1.06-1.62-2.46-1.62h-.88v3.27Z"/><path class="cls-1" d="m80.35,7.82h3.69v10.69h5.29v3.09h-8.98V7.82Z"/><path class="cls-1" d="m99.8,16.04h-4.95v2.54h5.54v3.02h-9.24V7.83h8.95v3h-5.25v2.23h4.95v2.97Z"/><path class="cls-1" d="m106.48,8c1.51-.21,3.03-.31,4.56-.29,1.98,0,3.39.35,4.35,1.08,1.02.8,1.6,2.04,1.57,3.33,0,1.39-.47,2.62-1.33,3.39-1.13,1-2.74,1.43-4.6,1.43-.35,0-.67-.02-.9-.04v4.67h-3.66v-13.59Zm3.66,6.09c.28.03.56.04.84.04,1.45,0,2.35-.74,2.35-1.92,0-1.02-.7-1.72-2.09-1.72-.37,0-.74.02-1.1.08v3.52Z"/><path class="cls-1" d="m131.75,14.57c0,4.43-2.66,7.26-6.91,7.26s-6.62-3.21-6.62-7.04,2.64-7.2,6.85-7.2c4.44,0,6.69,3.29,6.69,6.97Zm-9.63.16c0,2.58,1.12,4.18,2.9,4.18s2.83-1.75,2.83-4.22-1.06-4.18-2.84-4.18-2.89,1.68-2.89,4.22Z"/><path class="cls-1" d="m137.39,7.82v7.81c0,2.09.72,3.27,2.17,3.27s2.19-1.08,2.19-3.27v-7.81h3.69v7.61c0,4.25-2.12,6.39-5.99,6.39s-5.76-2.07-5.76-6.5v-7.5h3.71Z"/><path class="cls-1" d="m147.96,8c1.48-.2,2.97-.3,4.46-.29,2.11,0,3.62.29,4.67,1.06.88.67,1.37,1.65,1.37,3,0,1.72-1.29,2.95-2.37,3.33v.08c.92.39,1.41,1.27,1.76,2.46.43,1.41.88,3.42,1.14,3.95h-3.79c-.2-.41-.55-1.48-.96-3.17-.37-1.65-.88-2-2.02-2h-.59v5.16h-3.66v-13.6Zm3.66,5.79h.96c1.39,0,2.19-.7,2.19-1.72s-.68-1.62-1.9-1.64c-.42-.01-.83.01-1.25.08v3.28Z"/><path class="cls-1" d="m164.62,7.82h3.69v10.69h5.3v3.09h-8.99V7.82Z"/><path class="cls-1" d="m179.18,18.41l-.78,3.2h-3.83l4.01-13.77h4.91l4.11,13.77h-3.98l-.88-3.2h-3.56Zm3.05-2.74l-.63-2.47c-.2-.78-.47-1.9-.67-2.72h-.04c-.2.82-.41,1.97-.61,2.74l-.59,2.46h2.55Z"/><path class="cls-1" d="m78.11,38.66c-2.47,0-4.06,2.36-4.06,5.93s1.58,5.87,4.09,5.87,3.97-2.45,3.97-5.93-1.5-5.87-4-5.87Z"/><path class="cls-1" d="m114.59,38.55c-.59-.02-1.18.02-1.76.12v4.6h1.35c1.97,0,3.08-.98,3.08-2.42s-.95-2.27-2.68-2.3Z"/><path class="cls-1" d="m133.26,38.6h-.06c-.29,1.15-.58,2.76-.86,3.86l-.84,3.44h3.6l-.89-3.47c-.29-1.09-.66-2.68-.95-3.83Z"/><path class="cls-1" d="m1.06,27.37v34.59h186.88V27.37H1.06Zm33.89,2.83h5.29l-3.48,3.62h-4.11l2.3-3.62Zm-12.51,21.87c-2.13,1.67-5.29,2.39-9.1,2.39-2.5,0-4.18-.14-5.18-.31v-19.02c2.05-.29,4.12-.42,6.19-.4,3.71,0,6.04.6,7.97,1.93,2.13,1.48,3.51,3.88,3.51,7.45,0,3.94-1.49,6.5-3.39,7.97Zm19.16,2.19h-13.01v-19.39h12.6v4.23h-7.39v3.14h6.96v4.2h-6.96v3.57h7.8v4.26Zm19.5,0l-.23-6.93c-.06-2.21-.12-4.8-.09-7.83h-.09c-.6,2.56-1.41,5.47-2.04,7.6l-1.93,6.76h-4.05l-1.64-6.73c-.49-2.1-1.09-4.98-1.52-7.62h-.06c-.12,2.73-.23,5.61-.31,7.83l-.29,6.93h-4.78l1.18-19.39h6.99l1.3,5.21c.52,2.16,1.09,4.75,1.5,7.11h.12c.55-2.36,1.18-5.09,1.76-7.13l1.44-5.18h6.85l.98,19.39h-5.07Zm16.77.32c-6.01,0-9.32-4.52-9.32-9.9s3.71-10.13,9.64-10.13c6.24,0,9.41,4.63,9.41,9.81,0,6.24-3.74,10.21-9.72,10.21h0Zm22.81-4.32c1.18,0,2.36-.19,3.48-.58l.72,4.08c-.74.35-2.56.78-4.89.78-7.25,0-10.44-4.51-10.44-9.67,0-6.85,5.01-10.33,10.79-10.33,2.25,0,4.06.43,4.86.86l-1.01,4.08c-1.14-.46-2.36-.7-3.6-.69-2.99,0-5.58,1.76-5.58,5.73,0,3.54,2.1,5.72,5.67,5.72h0Zm17.18,4c-.29-.58-.78-2.07-1.35-4.46-.52-2.33-1.23-2.82-2.85-2.82h-.84v7.28h-5.15v-19.13c2.08-.29,4.17-.42,6.27-.4,2.95,0,5.09.4,6.56,1.5,1.23.95,1.93,2.33,1.93,4.23,0,2.42-1.81,4.14-3.34,4.69v.12c1.3.55,1.98,1.79,2.47,3.44.6,1.99,1.23,4.8,1.61,5.55h-5.32Zm19.18,0l-1.23-4.49h-5.01l-1.09,4.49h-5.38l5.64-19.39h6.9l5.78,19.39h-5.62Zm19.62-15.05h-5.03v15.05h-5.21v-15.05h-4.95v-4.35h15.19v4.35Zm7.59,15.05h-5.2v-19.39h5.21v19.39Zm16.57,0h-13v-19.39h12.6v4.23h-7.39v3.14h6.96v4.2h-6.96v3.57h7.8v4.26Z"/><path class="cls-1" d="m14.96,38.69c-.53-.01-1.06.02-1.58.12v11.56c.36.05.73.07,1.09.06,3.37.06,5.84-1.81,5.84-6.18,0-3.76-2.25-5.55-5.35-5.55Z"/></svg>