<?xml version="1.0" encoding="UTF-8"?><svg id="LV" xmlns="http://www.w3.org/2000/svg" viewBox="0 0 188.61 62.38"><defs><style>.cls-1{fill:#224e9c;stroke-width:0px;}</style></defs><path class="cls-1" d="m71.86,41.44c-2.28,0-3.74,2.17-3.74,5.46s1.46,5.4,3.76,5.4,3.65-2.25,3.65-5.46c0-3.07-1.38-5.4-3.68-5.4Z"/><path class="cls-1" d="m123.8,41.38h-.05c-.26,1.06-.53,2.54-.79,3.55l-.77,3.17h3.31l-.82-3.2c-.26-1.01-.61-2.46-.87-3.52Z"/><path class="cls-1" d="m106.61,41.33c-.54-.02-1.08.02-1.62.11v4.24h1.25c1.81,0,2.83-.91,2.83-2.23s-.87-2.09-2.46-2.12Z"/><path class="cls-1" d="m.53,31.04v31.85h188.11v-31.85H.53Zm119.94,2.84h7.1v2.44h-7.1v-2.44ZM20.6,53.78c-1.96,1.54-4.87,2.2-8.38,2.2-2.3,0-3.85-.13-4.77-.29v-17.51c1.89-.26,3.79-.39,5.7-.37,3.42,0,5.56.55,7.34,1.78,1.96,1.36,3.23,3.58,3.23,6.86,0,3.63-1.37,5.99-3.12,7.34Zm17.64,2.01h-11.97v-17.85h11.6v3.89h-6.81v2.89h6.41v3.87h-6.41v3.29h7.18v3.92Zm17.96,0l-.21-6.38c-.05-2.04-.11-4.42-.08-7.21h-.08c-.56,2.36-1.3,5.03-1.88,6.99l-1.78,6.23h-3.74l-1.51-6.2c-.45-1.93-1.01-4.58-1.41-7.02h-.06c-.11,2.52-.21,5.17-.29,7.21l-.26,6.38h-4.39l1.09-17.85h6.44l1.19,4.8c.48,1.99,1.01,4.37,1.38,6.54h.11c.5-2.17,1.08-4.69,1.61-6.57l1.32-4.77h6.3l.91,17.85h-4.66Zm15.44.29c-5.54,0-8.58-4.16-8.58-9.11s3.42-9.32,8.88-9.32c5.75,0,8.66,4.26,8.66,9.03,0,5.75-3.44,9.41-8.95,9.41h0Zm21.43-.29l-3.76-7.23-1.43,1.83v5.4h-4.74v-17.85h4.74v7.58h.05c.37-.66.77-1.32,1.17-1.96l3.42-5.62h5.89l-5.66,7.6,5.89,10.25h-5.56Zm16.56,0c-.26-.53-.72-1.91-1.25-4.1-.48-2.15-1.13-2.6-2.62-2.6h-.77v6.7h-4.74v-17.61c1.91-.27,3.84-.39,5.77-.37,2.72,0,4.69.37,6.04,1.38,1.13.87,1.78,2.15,1.78,3.89,0,2.23-1.67,3.82-3.07,4.32v.11c1.19.5,1.83,1.64,2.28,3.17.56,1.83,1.13,4.42,1.48,5.11h-4.9Zm17.66,0l-1.13-4.13h-4.61l-1.01,4.13h-4.95l5.19-17.85h6.36l5.33,17.85h-5.17Zm18.07-13.85h-4.63v13.85h-4.8v-13.85h-4.56v-4h13.99v4Zm6.99,13.85h-4.79v-17.85h4.8v17.85Zm11.5-6.83c0,5.19-2.49,7.13-6.78,7.13-1.06,0-2.13-.13-3.15-.42l.5-3.85c.68.19,1.38.29,2.09.29,1.54,0,2.54-.68,2.54-3.15v-11.02h4.8v11.02Zm18.37-1.17c0,5.51-2.76,8.29-7.76,8.29s-7.47-2.68-7.47-8.42v-9.72h4.8v10.12c0,2.7.93,4.24,2.81,4.24s2.83-1.4,2.83-4.24v-10.12h4.8v9.86Z"/><path class="cls-1" d="m13.71,41.46c-.49-.01-.98.02-1.46.11v10.64c.33.05.67.06,1.01.05,3.1.05,5.38-1.67,5.38-5.69,0-3.46-2.07-5.11-4.93-5.11Z"/><path class="cls-1" d="m12.47,21c-.04-1.51-.08-3.27-.06-5.33h-.06c-.41,1.74-.96,3.72-1.39,5.17l-1.31,4.59h-2.76l-1.12-4.58c-.33-1.43-.74-3.4-1.04-5.19h-.04c-.08,1.86-.16,3.82-.23,5.33l-.19,4.72H1.03l.8-13.18h4.75l.88,3.54c.35,1.47.74,3.23,1.02,4.84h.07c.37-1.61.8-3.46,1.2-4.85l.99-3.52h4.66l.67,13.19h-3.45l-.16-4.73Z"/><path class="cls-1" d="m26.52,20.39h-4.74v2.43h5.3v2.9h-8.85v-13.19h8.57v2.88h-5.03v2.14h4.74v2.85Zm-1.47-10.87v1.81h-5.23v-1.81h5.23Z"/><path class="cls-1" d="m29.28,22.19c1.07.53,2.24.81,3.43.82,1.21,0,1.81-.41,1.81-1.08s-.59-1.02-2.08-1.53c-2.23-.78-3.7-2.02-3.7-3.97,0-2.33,1.96-4.13,5.29-4.13,1.23-.03,2.45.2,3.58.68l-.75,2.83c-.9-.41-1.88-.63-2.88-.63-1.08,0-1.66.39-1.66.98,0,.67.7.94,2.37,1.56,2.37.86,3.44,2.14,3.44,3.97,0,2.26-1.78,4.21-5.64,4.21-1.58,0-3.13-.41-3.88-.8l.66-2.92Z"/><path class="cls-1" d="m52.18,20.39h-4.74v2.43h5.3v2.9h-8.85v-13.19h8.58v2.88h-5.04v2.14h4.74v2.85Z"/><path class="cls-1" d="m54.94,22.19c1.07.53,2.24.81,3.43.82,1.21,0,1.8-.41,1.8-1.08s-.59-1.02-2.07-1.53c-2.23-.78-3.7-2.02-3.7-3.97,0-2.33,1.96-4.13,5.28-4.13,1.23-.03,2.45.2,3.58.68l-.74,2.82c-.9-.41-1.88-.63-2.88-.63-1.08,0-1.66.39-1.66.98,0,.67.7.94,2.37,1.56,2.37.86,3.44,2.14,3.44,3.97,0,2.26-1.78,4.21-5.64,4.21-1.58,0-3.13-.41-3.88-.8l.66-2.91Z"/><path class="cls-1" d="m69.15,22.66l-.74,3.05h-3.66l3.84-13.19h4.7l3.93,13.19h-3.82l-.84-3.05h-3.41Zm2.92-2.62l-.61-2.37c-.2-.74-.45-1.81-.65-2.6h-.04c-.19.78-.39,1.88-.59,2.62l-.57,2.35h2.45Z"/><path class="cls-1" d="m90.07,21c-.04-1.51-.08-3.27-.06-5.33h-.06c-.41,1.74-.96,3.72-1.39,5.17l-1.32,4.59h-2.76l-1.12-4.58c-.33-1.43-.74-3.4-1.04-5.19h-.04c-.08,1.86-.16,3.82-.23,5.33l-.19,4.72h-3.24l.8-13.18h4.75l.88,3.54c.35,1.47.74,3.23,1.02,4.84h.08c.37-1.61.8-3.46,1.2-4.85l.98-3.52h4.66l.67,13.19h-3.45l-.15-4.73Z"/><path class="cls-1" d="m99.71,12.53h3.5v5.6h.04c.27-.49.57-.98.86-1.45l2.53-4.15h4.34l-4.19,5.62,4.34,7.58h-4.09l-2.78-5.35-1.06,1.36v3.99h-3.5v-13.2Z"/><path class="cls-1" d="m123.98,18.98c0,4.25-2.54,6.95-6.62,6.95s-6.34-3.07-6.34-6.73c0-3.84,2.53-6.89,6.57-6.89,4.24,0,6.39,3.15,6.39,6.68Zm-9.22.16c0,2.47,1.08,3.99,2.78,3.99s2.7-1.66,2.7-4.03-1.02-3.99-2.72-3.99-2.76,1.61-2.76,4.03h0Z"/><path class="cls-1" d="m125.86,12.7c1.45-.21,2.91-.3,4.37-.27,1.9,0,3.25.33,4.17,1.04.98.77,1.54,1.95,1.51,3.19,0,1.33-.45,2.5-1.27,3.25-1.08.96-2.62,1.37-4.4,1.37-.33,0-.65-.02-.86-.04v4.48h-3.5v-13.02Zm3.5,5.83c.27.03.54.04.8.04,1.39,0,2.25-.7,2.25-1.84,0-.98-.67-1.64-2-1.64-.35,0-.71.02-1.06.08v3.37Z"/><path class="cls-1" d="m140.13,22.66l-.74,3.05h-3.66l3.85-13.19h4.7l3.94,13.19h-3.83l-.84-3.05h-3.41Zm4.44-13.13v1.81h-5.25v-1.81h5.25Zm-1.53,10.51l-.61-2.37c-.2-.74-.45-1.81-.65-2.6h-.04c-.19.78-.39,1.88-.59,2.62l-.57,2.35h2.45Z"/><path class="cls-1" d="m153.76,12.7c1.45-.21,2.91-.3,4.37-.27,1.9,0,3.25.33,4.17,1.04.98.77,1.54,1.95,1.51,3.19,0,1.33-.45,2.5-1.27,3.25-1.08.96-2.62,1.37-4.4,1.37-.33,0-.65-.02-.86-.04v4.48h-3.5v-13.02Zm3.5,5.83c.27.03.54.04.8.04,1.39,0,2.25-.7,2.25-1.84,0-.98-.67-1.64-2-1.64-.35,0-.71.02-1.06.08v3.37Z"/><path class="cls-1" d="m168.03,22.66l-.75,3.05h-3.65l3.84-13.19h4.7l3.94,13.19h-3.82l-.84-3.05h-3.41Zm2.92-2.62l-.61-2.37c-.2-.74-.45-1.81-.65-2.6h-.04c-.19.78-.39,1.88-.59,2.62l-.57,2.35h2.45Z"/><path class="cls-1" d="m177.77,12.7c1.41-.2,2.84-.29,4.27-.27,2.02,0,3.46.27,4.46,1.02.84.65,1.31,1.58,1.31,2.88,0,1.64-1.23,2.82-2.26,3.19v.08c.88.37,1.36,1.21,1.68,2.35.41,1.36.84,3.27,1.1,3.78h-3.62c-.2-.39-.53-1.41-.92-3.03-.35-1.58-.84-1.92-1.94-1.92h-.57v4.95h-3.51v-13.02Zm3.5,5.54h.92c1.33,0,2.09-.67,2.09-1.64s-.65-1.55-1.81-1.57c-.4-.01-.8.01-1.19.08v3.13Z"/></svg>