<?xml version="1.0" encoding="utf-8"?>
<!-- Generator: Adobe Illustrator 27.7.0, SVG Export Plug-In . SVG Version: 6.00 Build 0)  -->
<svg version="1.1" id="CS" xmlns="http://www.w3.org/2000/svg" xmlns:xlink="http://www.w3.org/1999/xlink" x="0px" y="0px"
	 viewBox="0 0 188.6 65.8" style="enable-background:new 0 0 188.6 65.8;" xml:space="preserve">
<style type="text/css">
	.st0{fill:#224E9C;}
</style>
<path class="st0" d="M118.4,41.7c-0.6,0-1.2,0-1.8,0.1v4.8h1.4c2,0,3.2-1,3.2-2.5S120.2,41.7,118.4,41.7L118.4,41.7z"/>
<path class="st0" d="M13.9,41.8c-0.6,0-1.1,0-1.6,0.1v12c0.4,0,0.8,0.1,1.1,0.1c3.5,0.1,6.1-1.9,6.1-6.4
	C19.5,43.7,17.2,41.8,13.9,41.8L13.9,41.8z"/>
<path class="st0" d="M79.3,41.8c-2.6,0-4.2,2.4-4.2,6.1s1.6,6.1,4.2,6.1s4.1-2.5,4.1-6.1S81.9,41.8,79.3,41.8z"/>
<path class="st0" d="M137.8,41.7L137.8,41.7c-0.4,1.2-0.7,2.9-1,4l-0.9,3.6h3.7l-0.9-3.6C138.4,44.6,138.1,42.9,137.8,41.7
	L137.8,41.7z"/>
<path class="st0" d="M-0.3,30.1v35.8h188.9V30.1H-0.3z M21.7,55.7c-2.2,1.7-5.5,2.5-9.4,2.5c-2.6,0-4.3-0.2-5.4-0.3V38.1
	c2.1-0.3,4.3-0.4,6.4-0.4c3.8,0,6.3,0.6,8.3,2c2.2,1.5,3.6,4,3.6,7.7C25.2,51.5,23.7,54.2,21.7,55.7C21.7,55.7,21.7,55.7,21.7,55.7z
	 M41.6,57.9H28.1V37.9h13v4.4h-7.7v3.2h7.2v4.3h-7.2v3.7h8.1L41.6,57.9L41.6,57.9z M61.8,57.9l-0.2-7.2c-0.1-2.3-0.1-5-0.1-8.1h-0.1
	c-0.6,2.7-1.5,5.7-2.1,7.9l-2,7H53l-1.7-7c-0.5-2.2-1.1-5.2-1.6-7.9h-0.1c-0.1,2.8-0.2,5.8-0.3,8.1L49,58h-5l1.2-20.1h7.2l1.3,5.4
	c0.5,2.2,1.1,4.9,1.5,7.4h0.1c0.6-2.4,1.2-5.3,1.8-7.4l1.5-5.4h7.1L67,58L61.8,57.9L61.8,57.9z M79.1,58.3c-6.2,0-9.7-4.7-9.7-10.2
	s3.8-10.5,10-10.5c6.5,0,9.7,4.8,9.7,10.2C89.2,54.2,85.3,58.3,79.1,58.3L79.1,58.3z M103.2,57.9L99,49.8l-1.6,2v6.1H92V37.9h5.3
	v8.5h0.1c0.4-0.8,0.9-1.5,1.3-2.2l3.8-6.3h6.6l-6.4,8.5l6.6,11.5L103.2,57.9L103.2,57.9z M121.8,57.9c-0.3-0.6-0.8-2.1-1.4-4.6
	c-0.5-2.4-1.3-2.9-2.9-2.9h-0.9v7.5h-5.3V38.1c2.2-0.3,4.3-0.4,6.5-0.4c3.1,0,5.3,0.4,6.8,1.5c1.3,1,2,2.4,2,4.4
	c0,2.5-1.9,4.3-3.5,4.9v0.1c1.3,0.6,2.1,1.8,2.6,3.6c0.6,2,1.3,5,1.7,5.8L121.8,57.9L121.8,57.9z M141.7,57.9l-1.3-4.7h-5.2
	l-1.1,4.7h-5.6l5.8-20.1h7.1l6,20.1H141.7L141.7,57.9z M159.9,53.8c1.2,0,2.4-0.2,3.6-0.6l0.8,4.2c-0.8,0.4-2.6,0.8-5.1,0.8
	c-7.5,0-10.8-4.7-10.8-10c0-7.1,5.2-10.7,11.2-10.7c2.3,0,4.2,0.5,5,0.9l-1,4.2c-1.2-0.5-2.4-0.7-3.7-0.7c-3.1,0-5.8,1.8-5.8,5.9
	C154,51.5,156.2,53.8,159.9,53.8L159.9,53.8L159.9,53.8z M172.5,57.9h-5.4V37.9h5.4L172.5,57.9L172.5,57.9z M181.6,57.9h-5.4V37.9
	h5.4L181.6,57.9L181.6,57.9z"/>
<g>
	<path class="st0" d="M9.2,21.5c1.1,0.5,2.7,1.1,4.4,1.1c1.8,0,2.8-0.7,2.8-1.9c0-1.1-0.8-1.7-2.9-2.4c-2.9-1-4.8-2.6-4.8-5.1
		c0-3,2.5-5.2,6.6-5.2c2,0,3.4,0.4,4.4,0.9l-0.9,3.2c-0.7-0.3-1.9-0.8-3.6-0.8c-1.7,0-2.5,0.8-2.5,1.7c0,1.1,1,1.6,3.2,2.4
		c3.1,1.1,4.5,2.7,4.5,5.2c0,2.9-2.2,5.4-7,5.4c-2,0-3.9-0.5-4.9-1.1L9.2,21.5z"/>
	<path class="st0" d="M23,8.4C24.2,8.2,25.9,8,28.3,8c2.4,0,4.2,0.5,5.3,1.4c1.1,0.9,1.9,2.3,1.9,4s-0.6,3.1-1.6,4.1
		c-1.3,1.3-3.3,1.8-5.6,1.8c-0.5,0-1,0-1.3-0.1v6.2H23V8.4z M26.9,16.3c0.3,0.1,0.7,0.1,1.3,0.1c2.1,0,3.4-1.1,3.4-2.8
		c0-1.6-1.1-2.6-3.1-2.6c-0.8,0-1.3,0.1-1.6,0.2V16.3z"/>
	<path class="st0" d="M53.9,16.6c0,5.7-3.5,9.2-8.5,9.2c-5.2,0-8.2-3.9-8.2-8.8c0-5.2,3.3-9.1,8.5-9.1C51,7.8,53.9,11.8,53.9,16.6z
		 M41.3,16.9c0,3.4,1.6,5.8,4.2,5.8c2.7,0,4.2-2.5,4.2-5.9c0-3.1-1.5-5.8-4.2-5.8C42.9,11,41.3,13.5,41.3,16.9z"/>
	<path class="st0" d="M56.4,8.1h3.9v14.1h6.9v3.3H56.4V8.1z"/>
	<path class="st0" d="M80,18.2h-6.4v4.1h7.1v3.2H69.6V8.1h10.7v3.2h-6.8V15H80V18.2z"/>
	<path class="st0" d="M96.2,25c-0.7,0.4-2.3,0.7-4.5,0.7c-6,0-9.1-3.7-9.1-8.7c0-5.9,4.2-9.2,9.5-9.2c2,0,3.6,0.4,4.3,0.8l-0.8,3.1
		c-0.8-0.3-1.9-0.6-3.3-0.6c-3.1,0-5.5,1.9-5.5,5.8c0,3.5,2.1,5.7,5.6,5.7c1.2,0,2.5-0.3,3.3-0.6L96.2,25z"/>
	<path class="st0" d="M98.7,25.5V8.1h4.6l3.6,6.4c1,1.8,2.1,4,2.8,6h0.1c-0.3-2.3-0.3-4.6-0.3-7.2V8.1h3.6v17.4H109l-3.7-6.7
		c-1-1.9-2.2-4.1-3-6.1l-0.1,0c0.1,2.3,0.2,4.7,0.2,7.6v5.2H98.7z"/>
	<path class="st0" d="M126.9,18.2h-6.4v4.1h7.1v3.2h-11.1V8.1h10.7v3.2h-6.8V15h6.4V18.2z"/>
	<path class="st0" d="M135.5,8.4c1.2-0.2,2.9-0.4,5.3-0.4c2.4,0,4.2,0.5,5.3,1.4c1.1,0.9,1.9,2.3,1.9,4s-0.6,3.1-1.6,4.1
		c-1.3,1.3-3.3,1.8-5.6,1.8c-0.5,0-1,0-1.3-0.1v6.2h-3.9V8.4z M139.4,16.3c0.3,0.1,0.7,0.1,1.3,0.1c2.1,0,3.4-1.1,3.4-2.8
		c0-1.6-1.1-2.6-3.1-2.6c-0.8,0-1.3,0.1-1.6,0.2V16.3z"/>
	<path class="st0" d="M150.5,8.4c1.3-0.2,3.1-0.4,5.2-0.4c2.6,0,4.4,0.4,5.6,1.4c1,0.8,1.6,2,1.6,3.6c0,2.2-1.6,3.7-3.1,4.3v0.1
		c1.2,0.5,1.9,1.7,2.3,3.3c0.5,2,1.1,4.2,1.4,4.9h-4c-0.3-0.5-0.7-1.9-1.2-4c-0.5-2.2-1.2-2.8-2.8-2.8h-1.2v6.8h-3.9V8.4z
		 M154.4,15.8h1.5c2,0,3.1-1,3.1-2.5c0-1.6-1.1-2.4-2.9-2.4c-1,0-1.5,0.1-1.8,0.1V15.8z"/>
	<path class="st0" d="M181.6,16.6c0,5.7-3.5,9.2-8.5,9.2c-5.2,0-8.2-3.9-8.2-8.8c0-5.2,3.3-9.1,8.5-9.1
		C178.7,7.8,181.6,11.8,181.6,16.6z M169.1,16.9c0,3.4,1.6,5.8,4.2,5.8c2.7,0,4.2-2.5,4.2-5.9c0-3.1-1.5-5.8-4.2-5.8
		C170.6,11,169.1,13.5,169.1,16.9z"/>
</g>
</svg>
