<?xml version="1.0" encoding="UTF-8"?><svg id="PT" xmlns="http://www.w3.org/2000/svg" viewBox="0 0 188.61 62.38"><defs><style>.cls-1{fill:#224e9c;stroke-width:0px;}</style></defs><path class="cls-1" d="m26.16,7.12v9.01c0,2.4.82,3.78,2.5,3.78s2.52-1.25,2.52-3.78V7.12h4.26v8.78c0,4.91-2.45,7.39-6.91,7.39s-6.65-2.38-6.65-7.5V7.12h4.28Z"/><path class="cls-1" d="m38.35,23.02V7.12h5.03l2.52,4.89c.95,1.8,1.79,3.66,2.5,5.57h.07c-.23-2.23-.35-4.47-.33-6.71v-3.74h3.9v15.9h-4.49l-2.69-5.29c-1-1.87-1.9-3.79-2.69-5.75h-.07c.1,2.16.14,4.55.14,7.13v3.92h-3.9Z"/><path class="cls-1" d="m59.26,7.12v15.9h-4.27V7.12h4.27Z"/><path class="cls-1" d="m62.19,7.33c1.68-.23,3.38-.34,5.07-.33,3.04,0,4.95.5,6.54,1.58,1.75,1.2,2.88,3.19,2.88,6.11,0,3.23-1.22,5.33-2.78,6.53-1.75,1.37-4.34,1.96-7.46,1.96-1.42.03-2.84-.06-4.25-.26V7.33Zm4.27,12.51c.3.04.6.05.9.05,2.76.05,4.79-1.49,4.79-5.07,0-3.09-1.84-4.55-4.39-4.55-.44-.01-.87.02-1.3.1v9.49Z"/><path class="cls-1" d="m93.9,14.9c0,5.12-3.07,8.39-7.97,8.39s-7.65-3.71-7.65-8.12c0-4.63,3.04-8.31,7.91-8.31,5.11-.01,7.71,3.79,7.71,8.03Zm-11.11.19c0,2.97,1.3,4.81,3.36,4.81s3.24-2,3.24-4.86-1.23-4.81-3.28-4.81-3.32,1.94-3.32,4.86h0Z"/><path class="cls-1" d="m96.44,18.77c1.29.63,2.7.97,4.13.99,1.46,0,2.17-.49,2.17-1.3s-.72-1.23-2.5-1.84c-2.69-.94-4.46-2.43-4.46-4.79,0-2.81,2.36-4.98,6.37-4.98,1.92,0,3.26.35,4.31.82l-.9,3.4c-1.09-.5-2.27-.76-3.47-.76-1.3,0-2.01.48-2.01,1.18,0,.8.85,1.13,2.85,1.89,2.85,1.04,4.15,2.57,4.15,4.79,0,2.74-2.16,5.07-6.8,5.07-1.92,0-3.78-.5-4.67-.96l.81-3.52Z"/><path class="cls-1" d="m114.07,7.33c1.75-.25,3.51-.36,5.27-.33,2.29,0,3.92.4,5.03,1.25,1.17.92,1.85,2.34,1.82,3.84,0,1.6-.54,3.02-1.53,3.92-1.3,1.16-3.16,1.65-5.31,1.65-.4,0-.78-.02-1.04-.05v5.41h-4.24V7.33Zm4.22,7.03c.32.03.64.05.96.05,1.68,0,2.71-.85,2.71-2.22,0-1.18-.8-1.98-2.4-1.98-.43-.01-.85.02-1.28.09v4.06Z"/><path class="cls-1" d="m138.25,16.6h-5.71v2.93h6.4v3.49h-10.66V7.12h10.33v3.47h-6.06v2.57h5.71v3.44Z"/><path class="cls-1" d="m141.29,7.12h4.27v12.34h6.11v3.56h-10.38V7.12Z"/><path class="cls-1" d="m158.09,19.34l-.9,3.68h-4.41l4.63-15.9h5.66l4.74,15.9h-4.61l-1.01-3.68h-4.1Zm3.52-3.16l-.73-2.85c-.24-.9-.54-2.19-.78-3.14h-.05c-.24.94-.48,2.27-.72,3.16l-.68,2.83h2.96Z"/><path class="cls-1" d="m75.79,39.71c-2.41,0-3.96,2.3-3.96,5.78s1.54,5.72,3.98,5.72,3.87-2.39,3.87-5.78c0-3.25-1.46-5.72-3.9-5.72Z"/><path class="cls-1" d="m129.55,39.65h-.06c-.28,1.12-.56,2.69-.84,3.76l-.81,3.36h3.51l-.87-3.38c-.28-1.06-.64-2.61-.93-3.73Z"/><path class="cls-1" d="m111.35,39.6c-.57-.02-1.15.02-1.71.11v4.49h1.31c1.92,0,3-.96,3-2.36s-.92-2.21-2.6-2.24Z"/><path class="cls-1" d="m173.11,39.65h-.06c-.28,1.12-.56,2.69-.84,3.76l-.81,3.36h3.51l-.87-3.38c-.28-1.06-.64-2.61-.93-3.73Z"/><path class="cls-1" d="m.53,28.7v33.72h187.77V28.7H.53Zm21,24.07c-2.08,1.63-5.16,2.33-8.87,2.33-2.44,0-4.07-.14-5.05-.31v-18.54c2-.28,4.01-.41,6.03-.39,3.62,0,5.89.59,7.77,1.88,2.08,1.44,3.42,3.78,3.42,7.26,0,3.84-1.45,6.34-3.3,7.77Zm18.68,2.13h-12.67v-18.9h12.28v4.12h-7.22v3.06h6.79v4.09h-6.79v3.48h7.6v4.15Zm19.02,0l-.23-6.76c-.06-2.16-.11-4.68-.08-7.63h-.08c-.59,2.5-1.37,5.33-1.99,7.4l-1.88,6.59h-3.96l-1.6-6.56c-.48-2.05-1.07-4.85-1.49-7.43h-.06c-.11,2.67-.23,5.47-.31,7.63l-.28,6.76h-4.66l1.15-18.9h6.81l1.26,5.08c.5,2.1,1.06,4.63,1.46,6.93h.12c.53-2.3,1.15-4.96,1.71-6.95l1.4-5.05h6.68l.96,18.9h-4.95Zm16.35.31c-5.86,0-9.09-4.4-9.09-9.65s3.62-9.87,9.4-9.87c6.09,0,9.17,4.51,9.17,9.56,0,6.09-3.65,9.96-9.48,9.96h0Zm22.24-4.21c1.15,0,2.3-.19,3.39-.56l.7,3.98c-.72.34-2.5.76-4.77.76-7.07,0-10.18-4.4-10.18-9.42,0-6.68,4.88-10.07,10.52-10.07,2.19,0,3.95.42,4.74.84l-.98,3.98c-1.11-.45-2.31-.68-3.51-.67-2.92,0-5.44,1.71-5.44,5.58,0,3.45,2.05,5.58,5.53,5.58h0Zm16.74,3.9c-.28-.56-.76-2.02-1.32-4.35-.51-2.27-1.2-2.75-2.78-2.75h-.81v7.1h-5.02v-18.65c2.03-.28,4.07-.41,6.11-.39,2.89,0,4.96.39,6.4,1.46,1.2.93,1.88,2.27,1.88,4.12,0,2.36-1.77,4.04-3.25,4.57v.11c1.26.53,1.93,1.74,2.41,3.36.59,1.93,1.2,4.68,1.57,5.41h-5.19Zm18.7,0l-1.2-4.37h-4.88l-1.06,4.37h-5.24l5.5-18.9h6.73l5.64,18.9h-5.48Zm17.14-3.9c1.15,0,2.3-.19,3.39-.56l.7,3.98c-.72.34-2.5.76-4.77.76-7.07,0-10.18-4.4-10.18-9.42,0-6.68,4.88-10.07,10.52-10.07,2.19,0,3.96.42,4.74.84l-.98,3.98c-1.11-.45-2.3-.68-3.5-.67-2.92,0-5.44,1.71-5.44,5.58,0,3.45,2.05,5.58,5.53,5.58h0Zm11.89,3.9h-5.06v-18.9h5.08l-.02,18.9Zm14.53,0l-1.2-4.37h-4.88l-1.07,4.37h-5.25l5.51-18.9h6.71l5.64,18.9h-5.47Z"/><path class="cls-1" d="m14.24,39.73c-.52-.01-1.03.02-1.54.11v11.27c.35.05.71.07,1.07.06,3.28.06,5.69-1.77,5.69-6.03,0-3.67-2.19-5.41-5.22-5.41Z"/></svg>