<?xml version="1.0" encoding="UTF-8"?><svg id="SV" xmlns="http://www.w3.org/2000/svg" viewBox="0 0 188.61 62.38"><defs><style>.cls-1{fill:#224e9c;stroke-width:0px;}</style></defs><path class="cls-1" d="m125.51,37.74c-.63-.02-1.27.02-1.9.12v4.97h1.46c2.13,0,3.33-1.06,3.33-2.61s-1.03-2.45-2.89-2.49Z"/><path class="cls-1" d="m16.52,37.89c-.57-.02-1.15.03-1.71.12v12.48c.39.05.79.07,1.18.06,3.64.06,6.31-1.96,6.31-6.68,0-4.06-2.43-5.99-5.78-5.99Z"/><path class="cls-1" d="m145.67,37.8h-.06c-.31,1.24-.62,2.99-.93,4.17l-.9,3.72h3.89l-.96-3.75c-.31-1.18-.71-2.89-1.03-4.13Z"/><path class="cls-1" d="m84.73,37.86c-2.67,0-4.38,2.55-4.38,6.4s1.71,6.34,4.41,6.34,4.29-2.64,4.29-6.4c0-3.6-1.62-6.34-4.32-6.34Z"/><path class="cls-1" d="m.87,25.67v37.37h186.05V25.67H.87Zm23.73,26.68c-2.3,1.8-5.72,2.58-9.83,2.58-2.7,0-4.52-.15-5.59-.34v-20.54c2.21-.31,4.45-.45,6.68-.44,4.01,0,6.53.65,8.61,2.08,2.3,1.59,3.79,4.19,3.79,8.05,0,4.26-1.61,7.02-3.66,8.61Zm20.69,2.36h-14.04v-20.95h13.61v4.57h-7.99v3.39h7.52v4.54h-7.52v3.85h8.42v4.6Zm21.07,0l-.25-7.49c-.06-2.39-.12-5.19-.1-8.45h-.09c-.65,2.77-1.52,5.9-2.2,8.21l-2.08,7.3h-4.38l-1.77-7.27c-.53-2.27-1.18-5.38-1.65-8.23h-.05c-.12,2.95-.25,6.06-.34,8.45l-.31,7.49h-5.17l1.28-20.95h7.55l1.4,5.63c.56,2.33,1.18,5.13,1.62,7.68h.12c.59-2.55,1.28-5.5,1.9-7.7l1.55-5.59h7.41l1.06,20.95h-5.49Zm18.12.34c-6.5,0-10.07-4.88-10.07-10.69s4.01-10.94,10.41-10.94c6.74,0,10.16,5,10.16,10.6,0,6.74-4.03,11.03-10.5,11.03h0Zm25.14-.34l-4.41-8.48-1.68,2.14v6.34h-5.56v-20.95h5.56v8.89h.06c.44-.78.9-1.55,1.37-2.3l4.01-6.59h6.91l-6.64,8.92,6.91,12.03h-6.52Zm19.42,0c-.31-.62-.84-2.24-1.46-4.82-.56-2.52-1.33-3.05-3.08-3.05h-.9v7.86h-5.56v-20.67c2.24-.31,4.51-.46,6.78-.44,3.2,0,5.5.44,7.08,1.62,1.33,1.03,2.08,2.52,2.08,4.57,0,2.61-1.96,4.48-3.6,5.07v.12c1.4.59,2.14,1.93,2.67,3.72.65,2.14,1.33,5.19,1.74,6h-5.76Zm20.72,0l-1.33-4.85h-5.39l-1.18,4.85h-5.82l6.09-20.95h7.46l6.25,20.95h-6.07Zm21.19-16.25h-5.42v16.25h-5.63v-16.25h-5.34v-4.69h16.41l-.02,4.69Zm8.21,16.25h-5.62v-20.95h5.62v20.95Z"/><path class="cls-1" d="m4.59,8.2H.87v-3.25h11.41v3.25h-3.78v11.3h-3.91v-11.3Z"/><path class="cls-1" d="m17.55,4.94v14.56h-3.91V4.94h3.91Z"/><path class="cls-1" d="m19.79,4.94h3.91v11.3h5.59v3.26h-9.5V4.94Z"/><path class="cls-1" d="m30.78,4.94h3.91v11.3h5.6v3.26h-9.51V4.94Z"/><path class="cls-1" d="m42.01,15.61c1.18.58,2.47.89,3.78.91,1.33,0,1.99-.45,1.99-1.19s-.65-1.12-2.29-1.68c-2.46-.87-4.08-2.23-4.08-4.39,0-2.57,2.16-4.56,5.84-4.56,1.36-.04,2.71.22,3.96.76l-.82,3.11c-1-.46-2.09-.69-3.19-.69-1.19,0-1.84.43-1.84,1.08,0,.73.78,1.04,2.61,1.73,2.61.95,3.8,2.36,3.8,4.39,0,2.5-1.97,4.64-6.22,4.64-1.75,0-3.45-.45-4.28-.88l.74-3.22Z"/><path class="cls-1" d="m57.26,16.13l-.82,3.37h-4.04l4.23-14.56h5.19l4.34,14.56h-4.22l-.93-3.37h-3.76Zm3.22-2.89l-.67-2.61c-.22-.82-.5-2.01-.71-2.87h-.04c-.22.87-.43,2.07-.65,2.9l-.64,2.59h2.71Z"/><path class="cls-1" d="m79.91,14.31c-.04-1.67-.09-3.61-.06-5.88h-.07c-.45,1.92-1.06,4.11-1.53,5.71l-1.45,5.08h-3.05l-1.23-5.05c-.37-1.58-.82-3.74-1.14-5.73h-.05c-.09,2.05-.17,4.21-.24,5.88l-.22,5.21h-3.59l.88-14.56h5.25l.97,3.91c.39,1.62.82,3.56,1.12,5.34h.09c.41-1.77.89-3.83,1.33-5.36l1.08-3.89h5.14l.74,14.56h-3.8l-.18-5.21Z"/><path class="cls-1" d="m98.17,14.31c-.04-1.67-.09-3.61-.06-5.88h-.06c-.45,1.92-1.06,4.11-1.54,5.71l-1.45,5.08h-3.05l-1.23-5.05c-.37-1.58-.82-3.74-1.14-5.73h-.05c-.09,2.05-.17,4.21-.24,5.88l-.22,5.21h-3.59l.89-14.56h5.25l.97,3.91c.39,1.62.82,3.56,1.12,5.34h.09c.41-1.77.88-3.83,1.33-5.36l1.08-3.89h5.14l.71,14.55h-3.79l-.18-5.2Z"/><path class="cls-1" d="m107.93,16.13l-.82,3.37h-4.04l4.23-14.56h5.19l4.34,14.56h-4.21l-.92-3.37h-3.76Zm3.23-2.89l-.67-2.61c-.22-.82-.5-2.01-.71-2.87h-.05c-.22.87-.43,2.07-.65,2.9l-.64,2.59h2.71Z"/><path class="cls-1" d="m118.26,19.5V4.94h4.59l2.31,4.47c.88,1.65,1.64,3.35,2.29,5.1h.06c-.21-2.04-.32-4.09-.3-6.14v-3.43h3.56v14.56h-4.09l-2.47-4.84c-.91-1.71-1.74-3.47-2.46-5.27h-.06c.09,1.97.13,4.17.13,6.53v3.59h-3.57Z"/><path class="cls-1" d="m133.32,15.61c1.18.58,2.47.89,3.78.91,1.34,0,1.99-.45,1.99-1.19s-.65-1.12-2.29-1.68c-2.47-.87-4.09-2.23-4.09-4.39,0-2.57,2.16-4.56,5.84-4.56,1.36-.04,2.7.22,3.95.76l-.82,3.11c-1-.46-2.09-.69-3.19-.69-1.19,0-1.84.43-1.84,1.08,0,.73.78,1.04,2.61,1.73,2.61.95,3.8,2.36,3.8,4.39,0,2.5-1.97,4.64-6.22,4.64-1.75,0-3.45-.45-4.28-.88l.74-3.22Z"/><path class="cls-1" d="m148.6,4.94h9.36v3.17h-5.45v2.7h5.12v3.16h-5.12v5.53h-3.91V4.94Z"/><path class="cls-1" d="m173.64,12.07c0,4.69-2.81,7.67-7.3,7.67s-7-3.39-7-7.44,2.79-7.6,7.24-7.6c4.69,0,7.06,3.5,7.06,7.37Zm-11.16-9.55c0-.91.73-1.64,1.64-1.64.02,0,.03,0,.05,0,.88,0,1.59.71,1.59,1.59,0,.02,0,.03,0,.05.01.9-.7,1.64-1.59,1.66-.92,0-1.67-.74-1.68-1.66h0s0,0,0,0Zm.97,9.72c0,2.72,1.19,4.41,3.07,4.41s2.98-1.84,2.98-4.45-1.12-4.41-3-4.41-3.04,1.77-3.04,4.45h0Zm3.76-9.72c.04-.91.8-1.61,1.71-1.58.86.03,1.54.72,1.58,1.58.04.91-.67,1.67-1.58,1.71-.91.04-1.67-.67-1.71-1.58,0-.04,0-.09,0-.13Z"/><path class="cls-1" d="m175.28,5.14c1.56-.22,3.13-.32,4.71-.3,2.23,0,3.83.3,4.93,1.12.93.71,1.45,1.75,1.45,3.19,0,1.81-1.36,3.11-2.51,3.52v.09c.97.41,1.49,1.33,1.86,2.59.45,1.49.93,3.61,1.21,4.17h-4c-.22-.43-.58-1.56-1.01-3.35-.39-1.75-.93-2.13-2.14-2.13h-.63v5.47h-3.87V5.14Zm3.87,6.11h1.01c1.47,0,2.31-.74,2.31-1.81s-.71-1.71-2.01-1.73c-.44-.01-.89.01-1.33.09v3.46Z"/></svg>