<?xml version="1.0" encoding="utf-8"?>
<!-- Generator: Adobe Illustrator 27.6.1, SVG Export Plug-In . SVG Version: 6.00 Build 0)  -->
<svg version="1.1" id="Layer_1" xmlns="http://www.w3.org/2000/svg" xmlns:xlink="http://www.w3.org/1999/xlink" x="0px" y="0px"
	 viewBox="0 0 781 245.3" style="enable-background:new 0 0 781 245.3;" xml:space="preserve">
<style type="text/css">
	.st0{fill:#FFFFFF;}
</style>
<path class="st0" d="M27.8,6.1l8.5,10.8H25.9l-3.8-5.1h-0.2l-3.9,5.1H7.7l8.5-10.8H27.8z M29.8,20v57.7H14.3V20L29.8,20z"/>
<path class="st0" d="M89.1,57c-0.2-6.6-0.4-14.3-0.3-23.3h-0.3c-1.8,7.6-4.2,16.3-6.1,22.6l-5.7,20.1H64.8l-4.9-20
	c-1.5-6.2-3.3-14.8-4.5-22.7h-0.2c-0.4,8.1-0.7,16.7-0.9,23.3l-0.9,20.6H39.1L42.7,20h20.8l3.9,15.5c1.6,6.4,3.3,14.1,4.5,21.1h0.3
	c1.6-7,3.5-15.1,5.2-21.2L81.6,20H102l2.9,57.7H89.8L89.1,57z"/>
<path class="st0" d="M114.4,20.7c6.3-0.9,12.7-1.3,19.1-1.2c8.3,0,14.2,1.4,18.2,4.5c4.3,3.4,6.7,8.5,6.6,14c0,5.8-2,11-5.6,14.2
	c-4.7,4.2-11.5,6-19.3,6c-1.5,0-2.8-0.1-3.8-0.2v19.6h-15.3V20.7z M129.7,46.2c1.2,0.1,2.3,0.2,3.5,0.2c6.1,0,9.9-3.1,9.9-8
	c0-4.3-2.9-7.2-8.7-7.2c-1.5,0-3.1,0.1-4.6,0.4V46.2z"/>
<path class="st0" d="M166,20.7c6.2-0.9,12.4-1.3,18.7-1.2c8.8,0,15.2,1.2,19.5,4.4c3.7,2.8,5.7,6.9,5.7,12.6
	c0,7.2-5.4,12.3-9.9,13.9v0.4c3.9,1.6,5.9,5.3,7.4,10.3c1.8,5.9,3.7,14.3,4.8,16.5h-15.9c-0.9-1.7-2.3-6.2-4-13.3
	c-1.5-6.9-3.7-8.4-8.5-8.4h-2.5v21.7H166V20.7z M181.3,44.9h4c5.8,0,9.2-2.9,9.2-7.2s-2.8-6.8-8-6.9c-1.8-0.1-3.5,0.1-5.2,0.3
	L181.3,44.9z"/>
<path class="st0" d="M255,54.3h-20.7V65h23.2v12.7h-38.7V19.9h37.5v12.6h-22v9.3H255V54.3z"/>
<path class="st0" d="M281.5,19.9v32.7c0,8.7,3,13.7,9.1,13.7s9.2-4.5,9.2-13.7V19.9h15.5v31.9c0,17.8-8.9,26.8-25.1,26.8
	c-15.8,0-24.1-8.6-24.1-27.2V19.9H281.5z"/>
<path class="st0" d="M325.7,77.6V19.9H344l9.2,17.7c3.5,6.5,6.5,13.3,9.1,20.2h0.2c-0.8-8.1-1.3-16.2-1.2-24.3V19.9h14.1v57.7h-16.3
	l-9.8-19.2c-3.6-6.8-6.9-13.8-9.8-20.9h-0.2c0.3,7.8,0.5,16.5,0.5,25.9v14.2H325.7z"/>
<path class="st0" d="M401.2,64.3L398,77.6h-16l16.8-57.7h20.5l17.2,57.7h-16.7l-3.7-13.4H401.2z M404.8,5.6c0.2,1.9,1.3,3.8,4.5,3.8
	c3.2,0,4.6-1.9,5-3.8h7.6c-0.1,6.8-4,11.6-12.6,11.6c-8.9,0-12.5-4.8-12.6-11.6H404.8z M414,52.8l-2.7-10.4c-0.8-3.2-2-8-2.8-11.4
	h-0.2c-0.8,3.4-1.7,8.2-2.6,11.5l-2.5,10.3H414z"/>
<path class="st0" d="M460.8,20.7c6.3-0.9,12.7-1.3,19.1-1.2c8.3,0,14.2,1.4,18.2,4.5c4.3,3.4,6.7,8.5,6.6,14c0,5.8-2,11-5.6,14.2
	c-4.7,4.2-11.5,6-19.3,6c-1.5,0-2.8-0.1-3.8-0.2v19.6h-15.3V20.7z M476.2,46.2c1.2,0.1,2.3,0.2,3.5,0.2c6.1,0,9.8-3.1,9.8-8
	c0-4.3-2.9-7.2-8.7-7.2c-1.5,0-3.1,0.1-4.6,0.4L476.2,46.2z"/>
<path class="st0" d="M548.6,54.3h-20.7V65h23.2v12.7h-38.7V19.9h37.5v12.6h-22v9.3h20.7L548.6,54.3z"/>
<path class="st0" d="M559.6,77.6V19.9h18.2l9.1,17.7c3.5,6.5,6.5,13.3,9.1,20.2h0.2c-0.8-8.1-1.3-16.2-1.2-24.3V19.9h14.1v57.7H593
	l-9.8-19.2c-3.6-6.8-6.9-13.8-9.8-20.9h-0.2c0.3,7.8,0.5,16.5,0.5,25.9v14.2H559.6z"/>
<path class="st0" d="M631.2,32.9h-14.7V19.9h45.2v12.9h-15v44.8h-15.5V32.9z"/>
<path class="st0" d="M668.8,20.7c6.2-0.9,12.4-1.3,18.7-1.2c8.8,0,15.2,1.2,19.5,4.4c3.7,2.8,5.7,6.9,5.7,12.6
	c0,7.2-5.4,12.3-9.9,13.9v0.4c3.8,1.6,5.9,5.3,7.4,10.3c1.8,5.9,3.7,14.3,4.8,16.5h-15.8c-0.9-1.7-2.3-6.2-4-13.3
	c-1.5-6.9-3.7-8.4-8.5-8.4h-2.5v21.7h-15.4V20.7z M684.1,44.9h4c5.8,0,9.2-2.9,9.2-7.2s-2.8-6.8-8-6.9c-1.8-0.1-3.5,0.1-5.2,0.3
	L684.1,44.9z"/>
<path class="st0" d="M736.4,19.9v32.7c0,8.7,3,13.7,9.1,13.7s9.2-4.5,9.2-13.7V19.9h15.5v31.9c0,17.8-8.9,26.8-25.1,26.8
	c-15.8,0-24.1-8.6-24.1-27.2V19.9H736.4z"/>
<path class="st0" d="M478.1,146.3c-2.4-0.1-4.8,0.1-7.1,0.5v18.7h5.5c8,0,12.5-4,12.5-9.8S485.1,146.4,478.1,146.3z"/>
<path class="st0" d="M329.7,146.8c-10.1,0-16.5,9.6-16.5,24.1c0,14.7,6.4,23.9,16.6,23.9s16.2-9.9,16.2-24.1
	C346,157.1,339.9,146.8,329.7,146.8z"/>
<path class="st0" d="M72.9,146.9c-2.2-0.1-4.3,0.1-6.4,0.5v47c1.5,0.2,3,0.3,4.4,0.2c13.7,0.2,23.8-7.4,23.8-25.1
	C94.7,154.2,85.6,146.9,72.9,146.9z"/>
<path class="st0" d="M554,146.5h-0.2c-1.2,4.7-2.3,11.2-3.5,15.7l-3.4,14h14.6l-3.6-14.1C556.7,157.7,555.2,151.2,554,146.5z"/>
<path class="st0" d="M14.6,100.9v140.7h760.8V100.9H14.6z M103.3,201.3c-8.7,6.8-21.5,9.7-37,9.7c-10.2,0-17-0.6-21.1-1.3v-77.3
	c8.3-1.2,16.7-1.7,25.2-1.6c15.1,0,24.6,2.4,32.4,7.8c8.7,6,14.3,15.8,14.3,30.3C117.1,184.9,111.1,195.3,103.3,201.3z M181.3,210.2
	h-52.9v-78.9h51.2v17.2h-30.1v12.8h28.3v17.1h-28.3v14.5h31.7V210.2z M260.6,210.2l-0.9-28.2c-0.2-9-0.5-19.5-0.4-31.8h-0.4
	c-2.5,10.4-5.7,22.2-8.3,30.9l-7.8,27.5h-16.5l-6.7-27.4c-2-8.5-4.5-20.2-6.2-31h-0.2c-0.5,11.1-0.9,22.8-1.3,31.8l-1.2,28.2h-19.4
	l4.8-78.9h28.4l5.3,21.2c2.1,8.8,4.4,19.3,6.1,28.9h0.5c2.2-9.6,4.8-20.7,7.1-29l5.9-21.1h27.8l4,78.9L260.6,210.2z M328.8,211.5
	c-24.5,0-37.9-18.4-37.9-40.2c0-22.9,15.1-41.2,39.2-41.2c25.4,0,38.3,18.8,38.3,39.9C368.3,195.3,353.1,211.5,328.8,211.5
	L328.8,211.5z M421.6,193.9c4.8,0,9.6-0.8,14.2-2.3l2.9,16.6c-3,1.4-10.4,3.2-19.9,3.2c-29.5,0-42.5-18.4-42.5-39.3
	c0-27.9,20.4-42,43.9-42c9.1,0,16.5,1.8,19.8,3.5l-4.1,16.6c-4.6-1.9-9.6-2.8-14.6-2.8c-12.2,0-22.7,7.1-22.7,23.3
	C398.5,185,407,193.9,421.6,193.9L421.6,193.9z M491.4,210.2c-1.2-2.3-3.2-8.4-5.5-18.1c-2.1-9.5-5-11.5-11.6-11.5h-3.4v29.6H450
	v-77.8c8.5-1.2,17-1.7,25.5-1.6c12,0,20.7,1.6,26.7,6.1c5,3.9,7.8,9.5,7.8,17.2c0,9.8-7.4,16.9-13.6,19.1v0.5
	c5.3,2.2,8.1,7.3,10.1,14c2.5,8.1,5,19.5,6.5,22.6L491.4,210.2z M569.4,210.2l-5-18.2H544l-4.4,18.2h-21.9l22.9-78.9h28.1l23.5,78.9
	H569.4z M608,239.5l-2.9-8.8c3.6-0.8,7.3-3.3,7.3-6.9c0-2.7-1.9-5.1-3.2-6.9l14.4-2.2c2.9,2.3,4.6,5.8,4.6,9.5
	C628.2,234.4,619.6,239.2,608,239.5L608,239.5z M649.2,149h-20.4v61.2h-21.2V149h-20.1v-17.7h61.8L649.2,149z M680.1,210.2h-21.1
	v-78.9h21.2L680.1,210.2z M747.5,210.2h-52.9v-78.9h51.2v17.2h-30.1v12.8h28.3v17.1h-28.3v14.5h31.7L747.5,210.2z"/>
</svg>
