<?xml version="1.0" encoding="utf-8"?>
<!-- Generator: Adobe Illustrator 27.7.0, SVG Export Plug-In . SVG Version: 6.00 Build 0)  -->
<svg version="1.1" id="Camada_1" xmlns="http://www.w3.org/2000/svg" xmlns:xlink="http://www.w3.org/1999/xlink" x="0px" y="0px"
	 viewBox="0 0 1422.6 289" style="enable-background:new 0 0 1422.6 289;" xml:space="preserve">
<style type="text/css">
	.st0{fill:#0C4DA2;}
	.st1{fill:#FFFFFF;}
	.st2{fill:#FFF200;}
</style>
<g id="Elements">
</g>
<g id="Clear_space">
	<path class="st0" d="M315.1,209.6L209.5,0L0,105.6l79,156.8H25.2V285h288.4v-22.6H210.3L315.1,209.6z M30.4,115.6l169.1-85.2
		l85.2,169.1L160,262.4h-55.6L30.4,115.6z"/>
	<g>
		<rect x="1067.2" y="51.8" class="st1" width="355.5" height="237.2"/>
		<rect x="1071.8" y="56.5" class="st0" width="346.2" height="227.8"/>
		<polygon class="st2" points="1244.7,77.6 1248.1,88.1 1259.1,88.1 1250.2,94.5 1253.6,105.1 1244.7,98.5 1235.8,105.1 
			1239.3,94.5 1230.3,88.1 1241.3,88.1 		"/>
		<polygon class="st2" points="1244.7,235.8 1248.1,246.3 1259.1,246.3 1250.2,252.7 1253.6,263.2 1244.7,256.7 1235.8,263.2 
			1239.3,252.7 1230.3,246.3 1241.3,246.3 		"/>
		<polygon class="st2" points="1205.4,88.1 1208.8,98.7 1219.8,98.6 1210.8,105.1 1214.3,115.5 1205.4,109 1196.5,115.5 
			1199.9,105.1 1191,98.6 1202,98.7 		"/>
		<polygon class="st2" points="1176.4,117.2 1179.8,127.7 1190.8,127.6 1181.8,134.1 1185.3,144.6 1176.4,138 1167.5,144.6 
			1171,134.1 1162,127.6 1173.1,127.7 		"/>
		<polygon class="st2" points="1165.7,156.6 1169.1,167.1 1180.1,167.1 1171.2,173.5 1174.6,184 1165.7,177.5 1156.8,184 
			1160.3,173.5 1151.3,167.1 1162.4,167.1 		"/>
		<polygon class="st2" points="1176.3,196.1 1179.7,206.6 1190.7,206.6 1181.7,213 1185.2,223.5 1176.3,216.9 1167.4,223.5 
			1170.9,213 1161.9,206.6 1172.9,206.6 		"/>
		<polygon class="st2" points="1205.4,225.1 1208.8,235.6 1219.8,235.6 1210.8,242 1214.3,252.5 1205.4,246 1196.5,252.5 
			1199.9,242 1191,235.6 1202,235.6 		"/>
		<polygon class="st2" points="1284.1,88.1 1280.8,98.7 1269.7,98.6 1278.7,105.1 1275.2,115.5 1284.1,109 1293,115.5 1289.6,105.1 
			1298.5,98.6 1287.5,98.7 		"/>
		<polygon class="st2" points="1313.1,117.2 1309.7,127.7 1298.7,127.6 1307.6,134.1 1304.2,144.6 1313.1,138 1322,144.6 
			1318.5,134.1 1327.5,127.6 1316.4,127.7 		"/>
		<polygon class="st2" points="1323.8,156.6 1320.4,167.1 1309.3,167.1 1318.3,173.5 1314.9,184 1323.8,177.5 1332.7,184 
			1329.2,173.5 1338.2,167.1 1327.1,167.1 		"/>
		<polygon class="st2" points="1313.2,196.1 1309.8,206.6 1298.8,206.6 1307.8,213 1304.3,223.5 1313.2,216.9 1322.1,223.5 
			1318.6,213 1327.6,206.6 1316.6,206.6 		"/>
		<polygon class="st2" points="1284.1,225.1 1280.8,235.6 1269.7,235.6 1278.7,242 1275.2,252.5 1284.1,246 1293,252.5 1289.6,242 
			1298.5,235.6 1287.5,235.6 		"/>
	</g>
	<g>
		<g>
			<g>
				<path class="st0" d="M393.4,150.9h-12l-4,14h-19.5l3.9-14h-8.7v-16.4h13.3l4-14.6H359v-16.1h16l4.2-15h19.6l-4.2,15h11.9l4.2-15
					h19.5l-4.2,15h9.9V120h-14.4l-4,14.6h12.4v16.4h-17.1l-3.8,14h-19.4L393.4,150.9z M398,134.5L402,120h-12l-4.1,14.6H398z"/>
				<path class="st0" d="M437.4,85.2h23.6L478,142h0.2l17.4-56.8H519l-27.5,81.1h-26.7L437.4,85.2z"/>
				<path class="st0" d="M547,85.1l14.2,28.7L575,85.1h25.4l-28.1,51.3v29.9h-22.5v-30.3l-28.1-51L547,85.1L547,85.1z"/>
				<path class="st0" d="M605.8,134.7V85.1h22.5v49.6c0,7.3,5,12.1,12.6,12.1c7.7,0,12.6-4.8,12.6-12.1V85.1h22.4v49.5
					c0,20-14,33.2-35,33.2C619.6,167.8,605.8,154.6,605.8,134.7z"/>
				<path class="st0" d="M684.1,152.1l35.8-47.9h-34.8V85.1h64.3v14.3l-35.7,48h36.5v19h-66.2V152.1z M694.5,68.8l4.5-10.2l18,6.7
					l18.4-6.7l4.5,10.2L717,81.3L694.5,68.8z"/>
				<path class="st0" d="M761,85.1h22.6v81.3H761V85.1z"/>
				<path class="st0" d="M352.1,273.6l11.9-15.8c4.9,5.3,12.7,8.7,20.4,8.7c5.1,0,10-1.6,10-6.5c0-5.2-4.5-6.7-12.7-8.4
					c-17.3-3.5-27.3-10.3-27.3-24.8c0-16.6,15-25.6,32.8-25.6c12.4,0,22.5,3.5,29.8,10.7l-11.7,15c-6.2-4.7-12.1-6.9-17.9-6.9
					c-5.3,0-9.3,1.6-9.3,5.5s3.1,5.9,12.5,7.9c17.9,3.6,27.7,11.8,27.7,26.4c0,16.7-14.8,25.5-34.4,25.5
					C370.8,285.5,359.1,280.3,352.1,273.6z"/>
				<path class="st0" d="M419.1,202.7h23.6l17.1,56.7h0.2l17.4-56.7h23.3l-27.5,81.2h-26.7L419.1,202.7z"/>
				<path class="st0" d="M500,243.4c0-24.4,17.9-42.2,42.4-42.2s42.4,17.7,42.4,42c0,24.5-17.9,42.3-42.6,42.3
					C517.9,285.5,500,267.8,500,243.4z M561.7,243.4c0-12.4-8-21.5-19.2-21.5s-19.4,9-19.4,21.4c0,12.5,8.3,21.5,19.4,21.5
					C553.6,264.8,561.7,255.6,561.7,243.4z"/>
				<path class="st0" d="M586.4,268.6l17.8-10c1.8,3.9,5.3,5.8,9.4,5.8c5.4,0,8.9-3.9,8.9-9.9v-51.9h22.5V254
					c0,19.1-11.2,31.5-29.6,31.5C601.6,285.5,591.5,279.9,586.4,268.6z"/>
				<path class="st0" d="M689,283.9v-81.2h22.4v30.1h26.7v-30.1h22.5v81.2h-22.5v-31h-26.7v31H689z"/>
				<path class="st0" d="M775.1,202.6h22.4v60.7h34.3v20.6h-56.6L775.1,202.6L775.1,202.6z"/>
				<path class="st0" d="M864.6,202.7h27l29.8,81.2h-23.4l-5-14.8h-30.2l-5,14.8h-23.1L864.6,202.7z M877.9,225.5l-8.5,25h17.2
					l-8.5-25L877.9,225.5L877.9,225.5z"/>
				<path class="st0" d="M924,273.6l11.9-15.8c4.9,5.3,12.7,8.7,20.4,8.7c5.1,0,10-1.6,10-6.5c0-5.2-4.4-6.7-12.7-8.4
					c-17.3-3.5-27.3-10.3-27.3-24.8c0-16.6,15-25.6,32.8-25.6c12.4,0,22.5,3.5,29.8,10.7l-11.7,15c-6.2-4.7-12.1-6.9-17.9-6.9
					c-5.3,0-9.3,1.6-9.3,5.5s3.1,5.9,12.5,7.9c17.9,3.6,27.7,11.8,27.7,26.4c0,16.7-14.8,25.5-34.4,25.5
					C942.6,285.5,931,280.3,924,273.6z"/>
			</g>
		</g>
	</g>
</g>
</svg>
