<svg xmlns="http://www.w3.org/2000/svg" width="190.598" height="51.432" viewBox="0 0 190.598 51.432">
  <g id="NL" transform="translate(-2959.376 -415.135)">
    <g id="Group_19353" data-name="Group 19353" transform="translate(2959.376 415.135)">
      <rect id="Rectangle_3187" data-name="Rectangle 3187" width="38.586" height="24.869" transform="translate(46.342 20.367)" fill="#034ea2"/>
      <path id="Path_10535" data-name="Path 10535" d="M63.359,23.386l.378,1.148,1.231,0-1,.7.386,1.146-.995-.712-.991.712.386-1.146-1-.7,1.232,0Z" transform="translate(2.277 -0.97)" fill="#fde021"/>
      <path id="Path_10536" data-name="Path 10536" d="M63.359,39.48l.378,1.144,1.231,0-1,.709.386,1.146-.995-.714-.991.714.386-1.146-1-.709,1.232,0Z" transform="translate(2.277 0.203)" fill="#fde021"/>
      <path id="Path_10537" data-name="Path 10537" d="M59.355,24.456l.378,1.148,1.231,0-1,.7.386,1.145-1-.714-.989.714.382-1.145-.995-.7,1.229,0Z" transform="translate(1.893 -0.893)" fill="#fde021"/>
      <path id="Path_10538" data-name="Path 10538" d="M56.411,27.411l.373,1.146,1.235-.008-1,.708L57.4,30.4l-.991-.716-.994.716.386-1.145-1-.708,1.234.008Z" transform="translate(1.612 -0.677)" fill="#fde021"/>
      <path id="Path_10539" data-name="Path 10539" d="M55.322,31.425l.371,1.145,1.236,0-1,.7.381,1.144-.987-.714-.993.714.388-1.144-1-.7,1.232,0Z" transform="translate(1.507 -0.383)" fill="#fde021"/>
      <path id="Path_10540" data-name="Path 10540" d="M56.4,35.437l.378,1.152L58,36.581l-1,.7.388,1.145-1-.715-.993.715.388-1.145-1-.7,1.231.008Z" transform="translate(1.609 -0.092)" fill="#fde021"/>
      <path id="Path_10541" data-name="Path 10541" d="M59.355,38.391l.378,1.147,1.231-.005-1,.7.386,1.143-1-.71-.989.71.382-1.143-.995-.7,1.229.005Z" transform="translate(1.893 0.123)" fill="#fde021"/>
      <path id="Path_10542" data-name="Path 10542" d="M67.368,24.456,66.992,25.6l-1.233,0,1,.7-.386,1.145.995-.714.992.714L67.975,26.3l1-.7-1.228,0Z" transform="translate(2.661 -0.893)" fill="#fde021"/>
      <path id="Path_10543" data-name="Path 10543" d="M70.315,27.411l-.376,1.146-1.233-.008,1,.708L69.321,30.4l.994-.716.993.716-.388-1.145,1-.708-1.231.008Z" transform="translate(2.942 -0.677)" fill="#fde021"/>
      <path id="Path_10544" data-name="Path 10544" d="M71.4,31.425l-.375,1.145-1.235,0,1,.7-.386,1.144L71.4,33.7l1,.714-.389-1.144,1-.7-1.229,0Z" transform="translate(3.045 -0.383)" fill="#fde021"/>
      <path id="Path_10545" data-name="Path 10545" d="M70.321,35.437l-.371,1.152-1.231-.009,1,.7-.388,1.145.989-.715,1,.715-.385-1.145,1-.7-1.229.008Z" transform="translate(2.945 -0.092)" fill="#fde021"/>
      <path id="Path_10546" data-name="Path 10546" d="M67.368,38.391l-.376,1.147-1.233-.005,1,.7-.386,1.143.995-.71.992.71-.385-1.143,1-.7-1.228.005Z" transform="translate(2.661 0.123)" fill="#fde021"/>
      <path id="Path_10547" data-name="Path 10547" d="M51.44,16.261V14.12A20.448,20.448,0,0,0,45.527,11.7v1.507A15.357,15.357,0,0,1,51.44,16.261Z" transform="translate(1.194 -1.361)" fill="#7a868e"/>
      <path id="Path_10548" data-name="Path 10548" d="M52.447,19.243H54.33a5.954,5.954,0,0,0-2.5-4.616V17.2A3.472,3.472,0,0,1,52.447,19.243Z" transform="translate(1.731 -1.194)" fill="#7a868e"/>
      <path id="Path_10549" data-name="Path 10549" d="M56.668,13.861v2.323a7.169,7.169,0,0,1,1.966,3.125h1.993A9.471,9.471,0,0,0,56.668,13.861Z" transform="translate(2.104 -1.241)" fill="#7a868e"/>
      <path id="Path_10550" data-name="Path 10550" d="M56.354,15.428V13.335A30.2,30.2,0,0,0,47.3,9.851v1.5A26.278,26.278,0,0,1,56.354,15.428Z" transform="translate(1.308 -1.469)" fill="#7a868e"/>
      <path id="Path_10551" data-name="Path 10551" d="M61.292,14.3V12.231A40.986,40.986,0,0,0,49.245,7.879v1.5A37.484,37.484,0,0,1,61.292,14.3Z" transform="translate(1.428 -1.479)" fill="#7a868e"/>
      <path id="Path_10552" data-name="Path 10552" d="M61.532,12.756s0,2.227,0,2.227a12.378,12.378,0,0,1,3.654,4.407H67.3C66.574,17.042,63.866,14.2,61.532,12.756Z" transform="translate(2.475 -1.31)" fill="#7a868e"/>
      <path id="Path_10553" data-name="Path 10553" d="M66.807,13.173V11.1A51.731,51.731,0,0,0,51.323,5.671V7.166C56.966,8.274,63.689,11,66.807,13.173Z" transform="translate(1.551 -1.64)" fill="#7a868e"/>
      <path id="Path_10554" data-name="Path 10554" d="M72.107,19.474h2.217c-1.6-3.738-5.587-6.734-7.452-7.874v2.2A17.358,17.358,0,0,1,72.107,19.474Z" transform="translate(2.769 -1.38)" fill="#7a868e"/>
      <path id="Path_10555" data-name="Path 10555" d="M72.218,12.041V9.9A60.7,60.7,0,0,0,53.564,3.229V4.788C59.939,6.085,68.062,9.182,72.218,12.041Z" transform="translate(1.493 -1.819)" fill="#7a868e"/>
      <path id="Path_10556" data-name="Path 10556" d="M78.8,19.562h2.425A26.5,26.5,0,0,0,72.133,10.4v2.25A23.132,23.132,0,0,1,78.8,19.562Z" transform="translate(3.271 -1.452)" fill="#7a868e"/>
      <path id="Path_10557" data-name="Path 10557" d="M44.751,12.843V11.427a33.777,33.777,0,0,0-7.7-.443v1.109A30.579,30.579,0,0,1,44.751,12.843Z" transform="translate(0.504 -1.397)" fill="#7a868e"/>
      <path id="Path_10558" data-name="Path 10558" d="M36.239,12.179V11.12a17.38,17.38,0,0,0-8.431,2.939v.911C30.1,13.156,33.279,12.406,36.239,12.179Z" transform="translate(-0.232 -1.392)" fill="#7a868e"/>
      <path id="Path_10559" data-name="Path 10559" d="M27.08,15.664V14.633c-3.723,4.1.935,7.508,1.431,7.848v-1.4C25.905,19.152,26.212,16.8,27.08,15.664Z" transform="translate(-0.377 -1.213)" fill="#7a868e"/>
      <path id="Path_10560" data-name="Path 10560" d="M29.547,21.451v1.5a26.92,26.92,0,0,0,8.693,2.871l-.025-2.035A22.223,22.223,0,0,1,29.547,21.451Z" transform="translate(-0.099 -0.805)" fill="#7a868e"/>
      <path id="Path_10561" data-name="Path 10561" d="M38.583,23.691l-.01,2.119c2.117.173,4.117.224,5.206.223V23.65A47.879,47.879,0,0,1,38.583,23.691Z" transform="translate(0.644 -0.663)" fill="#7a868e"/>
      <path id="Path_10562" data-name="Path 10562" d="M46.779,11.057V9.614a46.745,46.745,0,0,0-10.653-.628v1.122A45.3,45.3,0,0,1,46.779,11.057Z" transform="translate(0.411 -1.515)" fill="#7a868e"/>
      <path id="Path_10563" data-name="Path 10563" d="M37.417,29.781V27.513c-3.876-.336-9.836-1.66-13.535-4.32v1.513C27.94,27.7,34.358,29.363,37.417,29.781Z" transform="translate(-0.568 -0.725)" fill="#7a868e"/>
      <path id="Path_10564" data-name="Path 10564" d="M22.862,24.265v-1.5C19.578,19.71,20.22,16.6,22.34,14.6V13.66C18.265,17.283,19.757,21.67,22.862,24.265Z" transform="translate(-0.844 -1.283)" fill="#7a868e"/>
      <path id="Path_10565" data-name="Path 10565" d="M37.478,27.333v2.348a46.012,46.012,0,0,0,6.407.429V27.518C41.725,27.53,38.435,27.421,37.478,27.333Z" transform="translate(0.549 -0.455)" fill="#7a868e"/>
      <path id="Path_10566" data-name="Path 10566" d="M23.125,13.109v.883c3.533-2.573,8.828-3.61,12.55-3.808V9.106C31.066,9.4,25.769,11.131,23.125,13.109Z" transform="translate(-0.621 -1.509)" fill="#7a868e"/>
      <path id="Path_10567" data-name="Path 10567" d="M17.882,24.823v1.623c5.067,4.474,13.4,6.909,18.436,7.76V31.678C31.678,31.169,23.3,29.407,17.882,24.823Z" transform="translate(-1.055 -0.664)" fill="#7a868e"/>
      <path id="Path_10568" data-name="Path 10568" d="M49.041,9.088V7.663a57.821,57.821,0,0,0-14.23-.746V8.046A59.152,59.152,0,0,1,49.041,9.088Z" transform="translate(0.281 -1.56)" fill="#7a868e"/>
      <path id="Path_10569" data-name="Path 10569" d="M36.067,31.364v2.617a61.3,61.3,0,0,0,7.952.716V31.781C42.82,31.824,37.564,31.529,36.067,31.364Z" transform="translate(0.425 -0.229)" fill="#7a868e"/>
      <path id="Path_10570" data-name="Path 10570" d="M34.628,8.132v-1.1c-3.938.333-10.981,1.7-15.652,4.8v.888C23.522,9.693,30.559,8.346,34.628,8.132Z" transform="translate(-0.963 -1.542)" fill="#7a868e"/>
      <path id="Path_10571" data-name="Path 10571" d="M18.168,13.241v-.9c-2.136,1.578-7.378,6.9-1.311,13.636V24.339C15.509,22.861,12.253,18.082,18.168,13.241Z" transform="translate(-1.133 -1.373)" fill="#7a868e"/>
      <path id="Path_10572" data-name="Path 10572" d="M51.427,6.923V5.461a72.716,72.716,0,0,0-17.764-.838v1.13A74.22,74.22,0,0,1,51.427,6.923Z" transform="translate(0.162 -1.733)" fill="#7a868e"/>
      <path id="Path_10573" data-name="Path 10573" d="M34.558,35.54v2.769a67.989,67.989,0,0,0,9.606,1.019V36.187A79.463,79.463,0,0,1,34.558,35.54Z" transform="translate(0.295 -0.084)" fill="#7a868e"/>
      <path id="Path_10574" data-name="Path 10574" d="M35.091,38.707V36.03c-8.314-1.151-17.474-4.116-23.15-9.565v1.726C18.666,34.751,29.822,37.775,35.091,38.707Z" transform="translate(-1.328 -0.612)" fill="#7a868e"/>
      <path id="Path_10575" data-name="Path 10575" d="M14.785,10.435v.87C20.343,7.84,27.957,6.352,33.772,5.848v-1.1C28.181,5.22,19.991,7.085,14.785,10.435Z" transform="translate(-1.297 -1.708)" fill="#7a868e"/>
      <path id="Path_10576" data-name="Path 10576" d="M10.9,27.658v-1.78c-2.175-2.9-4.311-8.635,3.208-14.122v-.9C5.664,16.772,7.769,24.009,10.9,27.658Z" transform="translate(-1.693 -1.47)" fill="#7a868e"/>
      <path id="Path_10577" data-name="Path 10577" d="M5.339,27.558v1.929c6.38,8.1,19.552,12.872,27.743,14.561V41.09C24.477,39.663,11.4,35.535,5.339,27.558Z" transform="translate(-1.963 -0.666)" fill="#7a868e"/>
      <path id="Path_10578" data-name="Path 10578" d="M54.01,4.563V3.045a84.244,84.244,0,0,0-21.849-.981V3.23A85.9,85.9,0,0,1,54.01,4.563Z" transform="translate(0.217 -1.742)" fill="#7a868e"/>
      <path id="Path_10579" data-name="Path 10579" d="M32.5,3.339V2.2c-7.285.727-16.328,3.2-21.614,6.576v.9C17.53,5.692,26.342,3.909,32.5,3.339Z" transform="translate(-1.43 -1.894)" fill="#7a868e"/>
      <path id="Path_10580" data-name="Path 10580" d="M32.281,40.434v3.032a83.014,83.014,0,0,0,12.1,1.485V41.473A110.531,110.531,0,0,1,32.281,40.434Z" transform="translate(0.097 0.272)" fill="#7a868e"/>
      <path id="Path_10581" data-name="Path 10581" d="M10.292,10.087V9.17C8.155,10.52-1.967,17.961,4.25,28.7V26.535C.361,18.617,6.29,12.873,10.292,10.087Z" transform="translate(-2.257 -1.573)" fill="#7a868e"/>
    </g>
    <text id="European_Parliament" data-name="European Parliament" transform="translate(3053.974 439.567)" fill="#6c787f" font-size="24" font-family="EuropeaNarrow-Semibold, EuropeaNarrow" font-weight="600" letter-spacing="0.09em"><tspan x="0" y="0">Europees </tspan><tspan x="0" y="21">Parlement</tspan></text>
  </g>
</svg>
