<svg xmlns="http://www.w3.org/2000/svg" viewBox="0 0 602 149"><g data-name="Layer 1"><path style="fill:#164194;stroke:#fff;stroke-miterlimit:10" d="M1.44 9h211.62v131H1.44z"/><path d="m109.84 18.13 1.79 5.58 5.85-.02-4.75 3.42 1.83 5.56-4.72-3.46-4.73 3.46 1.84-5.56-4.76-3.42 5.86.02 1.79-5.58zm0 96.52 1.79 5.58 5.85-.03-4.75 3.43 1.83 5.56-4.72-3.47-4.73 3.47 1.84-5.56-4.76-3.43 5.86.03 1.79-5.58zm-24.01-90.1 1.79 5.58 5.86-.02-4.76 3.42 1.84 5.56-4.73-3.46-4.72 3.46 1.83-5.56-4.75-3.42 5.86.02 1.78-5.58zM68.16 42.26l1.78 5.58 5.86-.03-4.75 3.43 1.83 5.56-4.72-3.46-4.73 3.46 1.84-5.56-4.76-3.43 5.86.03 1.79-5.58zm-6.52 24.07 1.79 5.58 5.86-.03-4.76 3.43 1.84 5.56-4.73-3.46-4.72 3.46 1.83-5.56L54 71.88l5.85.03 1.79-5.58zm6.45 24.08 1.79 5.58 5.86-.03-4.76 3.43 1.84 5.56-4.73-3.47-4.72 3.47 1.83-5.56-4.75-3.43 5.86.03 1.78-5.58zm17.74 17.7 1.79 5.58 5.86-.02-4.76 3.42 1.84 5.56-4.73-3.46-4.72 3.46 1.83-5.56-4.75-3.42 5.86.02 1.78-5.58zm48.04-83.56-1.79 5.58-5.86-.02 4.76 3.42-1.84 5.56 4.73-3.46 4.72 3.46-1.83-5.56 4.75-3.42-5.86.02-1.78-5.58zm17.67 17.71-1.79 5.58-5.85-.03 4.75 3.43-1.83 5.56 4.72-3.46 4.73 3.46-1.84-5.56 4.76-3.43-5.86.03-1.79-5.58zm6.52 24.07-1.79 5.58-5.86-.03 4.76 3.43-1.84 5.56 4.73-3.46 4.72 3.46-1.83-5.56 4.75-3.43-5.86.03-1.78-5.58zm-6.45 24.08-1.79 5.58-5.86-.03 4.76 3.43-1.84 5.56 4.73-3.47 4.72 3.47-1.83-5.56 4.75-3.43-5.86.03-1.78-5.58zm-17.74 17.7-1.79 5.58-5.86-.02 4.76 3.42-1.84 5.56 4.73-3.46 4.72 3.46-1.83-5.56 4.75-3.42-5.86.02-1.78-5.58z" style="fill:#ffed00"/><path d="m248.42 19.23-3.79 3.94v10.48h-4.09v-31h4.09V18L258.4 2.65h4.94l-12.2 13.69 13.16 17.31h-4.9Zm16.36 2.69a13.69 13.69 0 0 1 1.33-6.09 9.89 9.89 0 0 1 3.71-4.18 10.06 10.06 0 0 1 5.41-1.46 9.73 9.73 0 0 1 7.62 3.25 12.57 12.57 0 0 1 2.9 8.67v.27a13.7 13.7 0 0 1-1.29 6 9.74 9.74 0 0 1-3.68 4.16 10.23 10.23 0 0 1-5.5 1.49 9.67 9.67 0 0 1-7.59-3.26 12.44 12.44 0 0 1-2.91-8.62Zm4 .46a9.84 9.84 0 0 0 1.78 6.16 6 6 0 0 0 9.53 0 10.79 10.79 0 0 0 1.76-6.58 9.85 9.85 0 0 0-1.8-6.15 5.74 5.74 0 0 0-4.78-2.35 5.64 5.64 0 0 0-4.7 2.32 10.71 10.71 0 0 0-1.83 6.6Zm25.16-11.77.12 2.9a8.38 8.38 0 0 1 6.9-3.32q7.31 0 7.37 8.23v15.23h-3.94V18.4a5.24 5.24 0 0 0-1.14-3.68 4.53 4.53 0 0 0-3.48-1.19 5.66 5.66 0 0 0-3.36 1 6.87 6.87 0 0 0-2.26 2.68v16.44h-3.94v-23Zm21.32 23.04v-20h-3.64v-3.04h3.64V8.25a7.85 7.85 0 0 1 2-5.73 7.48 7.48 0 0 1 5.6-2 10.46 10.46 0 0 1 2.71.36L325.33 4a11 11 0 0 0-2.13-.19A3.81 3.81 0 0 0 320.25 5a4.54 4.54 0 0 0-1.05 3.22v2.43h4.92v3.05h-4.92v20Zm21.46.42A10.07 10.07 0 0 1 329.1 31a11.44 11.44 0 0 1-2.94-8.23V22a13.89 13.89 0 0 1 1.31-6.12 10.31 10.31 0 0 1 3.66-4.21 9.17 9.17 0 0 1 5.1-1.52 8.64 8.64 0 0 1 7 3c1.66 2 2.49 4.8 2.49 8.48v1.64H330.1a8.2 8.2 0 0 0 2 5.5 6.26 6.26 0 0 0 4.85 2.1 6.94 6.94 0 0 0 3.53-.85 8.88 8.88 0 0 0 2.52-2.27l2.41 1.87a9.67 9.67 0 0 1-8.69 4.45Zm-.49-20.65a5.24 5.24 0 0 0-4 1.74 8.34 8.34 0 0 0-2 4.86h11.54v-.3a7.57 7.57 0 0 0-1.62-4.65 5 5 0 0 0-3.92-1.65Zm24.95.72a12.87 12.87 0 0 0-1.93-.14 5.18 5.18 0 0 0-5.25 3.3v16.35h-3.94v-23h3.83l.06 2.66a6.14 6.14 0 0 1 5.5-3.08 4 4 0 0 1 1.74.29Zm12.41 19.93A10.07 10.07 0 0 1 366 31a11.44 11.44 0 0 1-3-8.23V22a13.89 13.89 0 0 1 1.31-6.12 10.17 10.17 0 0 1 3.69-4.17 9.17 9.17 0 0 1 5.1-1.52 8.63 8.63 0 0 1 7 3c1.66 2 2.49 4.8 2.49 8.48v1.64H367a8.15 8.15 0 0 0 2 5.5 6.24 6.24 0 0 0 4.84 2.1 7 7 0 0 0 3.54-.85 8.88 8.88 0 0 0 2.53-2.26l2.4 1.87a9.66 9.66 0 0 1-8.72 4.4Zm-.49-20.65a5.24 5.24 0 0 0-4 1.74 8.34 8.34 0 0 0-2 4.86h11.53v-.3a7.51 7.51 0 0 0-1.63-4.65 5 5 0 0 0-3.9-1.65Zm17.54-2.81.13 2.9a8.38 8.38 0 0 1 6.9-3.32q7.29 0 7.36 8.23v15.23h-3.94V18.4a5.29 5.29 0 0 0-1.09-3.68 4.57 4.57 0 0 0-3.49-1.19 5.71 5.71 0 0 0-3.36 1 7 7 0 0 0-2.26 2.68v16.44h-3.93v-23Zm29.1 20.25a5.69 5.69 0 0 0 3.69-1.28 4.48 4.48 0 0 0 1.74-3.19h3.73a7.16 7.16 0 0 1-1.36 3.76 9 9 0 0 1-3.36 2.85 9.62 9.62 0 0 1-4.44 1.06 9.5 9.5 0 0 1-7.48-3.14c-1.85-2.09-2.78-5-2.78-8.59v-.66a13.89 13.89 0 0 1 1.24-6 9.39 9.39 0 0 1 3.54-4.07 10.11 10.11 0 0 1 5.46-1.44 9.21 9.21 0 0 1 6.44 2.32 8.26 8.26 0 0 1 2.74 6h-3.73a5.39 5.39 0 0 0-1.69-3.67 5.26 5.26 0 0 0-3.76-1.44 5.51 5.51 0 0 0-4.65 2.16 10.14 10.14 0 0 0-1.65 6.25v.75a10 10 0 0 0 1.64 6.13 5.54 5.54 0 0 0 4.68 2.2Zm22.83 3.21A10.07 10.07 0 0 1 435 31a11.44 11.44 0 0 1-3-8.23V22a13.89 13.89 0 0 1 1.31-6.12 10.31 10.31 0 0 1 3.69-4.17 9.17 9.17 0 0 1 5.1-1.52 8.64 8.64 0 0 1 7 3c1.66 2 2.49 4.8 2.49 8.48v1.64H436a8.2 8.2 0 0 0 2 5.5 6.26 6.26 0 0 0 4.85 2.1 6.94 6.94 0 0 0 3.53-.85 8.88 8.88 0 0 0 2.53-2.26l2.41 1.87a9.67 9.67 0 0 1-8.75 4.4Zm-.49-20.65a5.24 5.24 0 0 0-4 1.74 8.34 8.34 0 0 0-2 4.86h11.54v-.3a7.57 7.57 0 0 0-1.62-4.65 5 5 0 0 0-3.92-1.65Zm17.54-2.81.13 2.9a8.38 8.38 0 0 1 6.9-3.32q7.31 0 7.37 8.23v15.23h-3.94V18.4a5.34 5.34 0 0 0-1.14-3.68 4.56 4.56 0 0 0-3.48-1.19 5.72 5.72 0 0 0-3.37 1 6.93 6.93 0 0 0-2.25 2.68v16.44h-3.94v-23ZM238.88 74.92a13.69 13.69 0 0 1 1.33-6.09 9.89 9.89 0 0 1 3.71-4.18 10 10 0 0 1 5.41-1.46 9.73 9.73 0 0 1 7.67 3.25 12.57 12.57 0 0 1 2.9 8.67v.27a13.7 13.7 0 0 1-1.29 6 9.74 9.74 0 0 1-3.68 4.16 10.23 10.23 0 0 1-5.5 1.49 9.66 9.66 0 0 1-7.59-3.26 12.44 12.44 0 0 1-2.91-8.62Zm4 .46a9.84 9.84 0 0 0 1.78 6.16 6 6 0 0 0 9.53 0 10.79 10.79 0 0 0 1.76-6.58 9.85 9.85 0 0 0-1.8-6.15 5.74 5.74 0 0 0-4.78-2.35 5.64 5.64 0 0 0-4.7 2.32 10.71 10.71 0 0 0-1.83 6.6ZM268 63.61l.1 2.56a8.51 8.51 0 0 1 6.84-3q4.83 0 6.58 3.7a8.6 8.6 0 0 1 3-2.68 8.83 8.83 0 0 1 4.35-1q7.58 0 7.71 8v15.46h-3.94v-15.2a5.32 5.32 0 0 0-1.13-3.7 5 5 0 0 0-3.79-1.22 5.11 5.11 0 0 0-5.32 4.83v15.29h-4v-15.1q0-5-4.92-5a5.27 5.27 0 0 0-5.3 3.3v16.8h-3.94v-23Zm63.78 9.56h-12.27v8.34h14.4v5.14h-20.78v-31h20.73v5.17h-14.35v7.39h12.27Zm18.95 11.13a7.7 7.7 0 0 1-6.3 2.77 7.27 7.27 0 0 1-5.65-2.13q-1.95-2.13-2-6.24V63.61h6.15v14.9q0 3.6 3.28 3.6t4.3-2.17V63.61h6.17v23h-5.78Zm23.32-14.92a17.44 17.44 0 0 0-2.22-.17c-2.32 0-3.85.79-4.57 2.36v15.08h-6.16v-23h5.82l.17 2.75a5.68 5.68 0 0 1 5.13-3.17 6.53 6.53 0 0 1 1.91.27Zm1.64 5.54a13.62 13.62 0 0 1 1.31-6.11 9.7 9.7 0 0 1 3.8-4.16 11.06 11.06 0 0 1 5.76-1.46 10.48 10.48 0 0 1 7.62 2.81 11.43 11.43 0 0 1 3.29 7.75v1.57a12 12 0 0 1-3 8.51 11.48 11.48 0 0 1-15.89 0q-3-3.19-3-8.69Zm6.15.43a8.63 8.63 0 0 0 1.24 5 4.43 4.43 0 0 0 7 0q1.26-1.71 1.26-5.49a8.46 8.46 0 0 0-1.26-5 4.07 4.07 0 0 0-3.53-1.77 4 4 0 0 0-3.49 1.75 9.63 9.63 0 0 0-1.22 5.51Zm39.89-.01a13.84 13.84 0 0 1-2.42 8.53 7.75 7.75 0 0 1-6.52 3.2 7.16 7.16 0 0 1-5.64-2.43V95.5H401V63.61h5.71l.21 2.26a7.23 7.23 0 0 1 5.83-2.68 7.82 7.82 0 0 1 6.63 3.15q2.36 3.15 2.36 8.68Zm-6.15-.47a9.07 9.07 0 0 0-1.14-5 3.71 3.71 0 0 0-3.31-1.75 4 4 0 0 0-4 2.22v9.46a4.09 4.09 0 0 0 4 2.28q4.45.03 4.45-7.21Zm22.87 11.78a7.13 7.13 0 0 1-.62-2.07 7.43 7.43 0 0 1-5.83 2.49 8.18 8.18 0 0 1-5.61-2 6.29 6.29 0 0 1-2.22-4.94 6.51 6.51 0 0 1 2.71-5.62q2.72-2 7.85-2h2.83v-1.26a3.78 3.78 0 0 0-.82-2.55 3.23 3.23 0 0 0-2.59-1 3.67 3.67 0 0 0-2.44.75 2.53 2.53 0 0 0-.88 2h-6.13a6.18 6.18 0 0 1 1.23-3.7 8.24 8.24 0 0 1 3.49-2.68 12.87 12.87 0 0 1 5.07-1 10.09 10.09 0 0 1 6.76 2.13 7.5 7.5 0 0 1 2.5 6v10a11 11 0 0 0 .92 5v.37Zm-5.09-4.28a5.39 5.39 0 0 0 2.52-.61 4 4 0 0 0 1.7-1.63v-4h-2.3c-3.08 0-4.72 1.07-4.92 3.19v.37a2.47 2.47 0 0 0 .81 1.89 3.13 3.13 0 0 0 2.19.79Zm27.08-2.09a2 2 0 0 0-1.12-1.78 12.7 12.7 0 0 0-3.59-1.16q-8.21-1.73-8.21-7a6.35 6.35 0 0 1 2.54-5.12 10.26 10.26 0 0 1 6.65-2 11 11 0 0 1 7 2.06 6.52 6.52 0 0 1 2.63 5.36h-6.15a3 3 0 0 0-.86-2.18 3.6 3.6 0 0 0-2.66-.86 3.65 3.65 0 0 0-2.4.7 2.22 2.22 0 0 0-.85 1.79 1.9 1.9 0 0 0 1 1.65 10.11 10.11 0 0 0 3.27 1.09 26.65 26.65 0 0 1 3.88 1c3.25 1.19 4.87 3.26 4.87 6.19a6 6 0 0 1-2.7 5.1 11.65 11.65 0 0 1-7 1.95 12.21 12.21 0 0 1-5.15-1 8.66 8.66 0 0 1-3.52-2.83 6.61 6.61 0 0 1-1.28-3.89h5.84a3.18 3.18 0 0 0 1.21 2.51 4.76 4.76 0 0 0 3 .88 4.49 4.49 0 0 0 2.67-.67 2.09 2.09 0 0 0 .93-1.79ZM241 139.65v-18.53h-3.43v-4.51H241v-2a8 8 0 0 1 2.22-6 8.62 8.62 0 0 1 6.23-2.14 14.55 14.55 0 0 1 3.13.42l-.06 4.73a7.78 7.78 0 0 0-1.88-.19q-3.47 0-3.47 3.28v1.87h4.58v4.51h-4.58v18.53Zm26.3-17.27a17.44 17.44 0 0 0-2.22-.17c-2.32 0-3.85.79-4.57 2.36v15.08h-6.16v-23h5.82l.17 2.75a5.68 5.68 0 0 1 5.13-3.17 6.53 6.53 0 0 1 1.91.27Zm13.1 17.69a11.26 11.26 0 0 1-8.24-3.11 11 11 0 0 1-3.19-8.28v-.59a14 14 0 0 1 1.34-6.21 9.93 9.93 0 0 1 3.8-4.22 10.72 10.72 0 0 1 5.61-1.47 9.55 9.55 0 0 1 7.44 3q2.71 3 2.72 8.45v2.51h-14.67a5.74 5.74 0 0 0 1.8 3.62 5.43 5.43 0 0 0 3.8 1.36 6.65 6.65 0 0 0 5.56-2.58l3 3.39a9.15 9.15 0 0 1-3.75 3.05 12.14 12.14 0 0 1-5.22 1.08Zm-.7-18.92a3.84 3.84 0 0 0-3 1.24 6.45 6.45 0 0 0-1.46 3.55h8.56v-.5a4.57 4.57 0 0 0-1.1-3.17 4 4 0 0 0-3-1.12Zm19.36-4.54.19 2.58a8.09 8.09 0 0 1 6.62-3q4.44 0 6.11 3.51a7.91 7.91 0 0 1 6.92-3.51c2.5 0 4.35.72 5.58 2.18s1.83 3.64 1.83 6.56v14.72h-6.18v-14.73a4.42 4.42 0 0 0-.76-2.87 3.44 3.44 0 0 0-2.71-.9 3.84 3.84 0 0 0-3.83 2.64v15.86h-6.13v-14.71a4.33 4.33 0 0 0-.79-2.9 3.41 3.41 0 0 0-2.68-.89 4 4 0 0 0-3.79 2.17v16.33h-6.15v-23ZM338 111v5.66h3.94v4.51H338v11.5a2.78 2.78 0 0 0 .49 1.83 2.47 2.47 0 0 0 1.88.55 10.83 10.83 0 0 0 1.81-.14v4.66a12.66 12.66 0 0 1-3.73.55q-6.46 0-6.6-6.53v-12.47h-3.36v-4.51h3.36V111Zm6.75-.35a3 3 0 0 1 .92-2.28 4 4 0 0 1 5 0 3.27 3.27 0 0 1 0 4.58 4 4 0 0 1-5 0 3 3 0 0 1-.92-2.3Zm6.53 29h-6.17v-23h6.17Zm3.6-11.65a13.89 13.89 0 0 1 2.42-8.58 7.83 7.83 0 0 1 6.61-3.19 7 7 0 0 1 5.55 2.51V107h6.18v32.7h-5.56l-.3-2.45a7.24 7.24 0 0 1-5.92 2.87 7.82 7.82 0 0 1-6.52-3.2q-2.46-3.26-2.46-8.92Zm6.15.44a9.18 9.18 0 0 0 1.13 5 3.68 3.68 0 0 0 3.28 1.73 4.1 4.1 0 0 0 4-2.42v-9.13a4 4 0 0 0-4-2.41c-2.92-.06-4.44 2.35-4.44 7.19Z" style="fill:#fff"/></g></svg>