<svg xmlns="http://www.w3.org/2000/svg" viewBox="0 0 602 149"><g data-name="Layer 1"><path style="fill:#164194;stroke:#fff;stroke-miterlimit:10" d="M1.44 9h211.62v131H1.44z"/><path d="m109.84 18.13 1.79 5.58 5.85-.02-4.75 3.42 1.83 5.56-4.72-3.46-4.73 3.46 1.84-5.56-4.76-3.42 5.86.02 1.79-5.58zm0 96.52 1.79 5.58 5.85-.03-4.75 3.43 1.83 5.56-4.72-3.47-4.73 3.47 1.84-5.56-4.76-3.43 5.86.03 1.79-5.58zm-24.01-90.1 1.79 5.58 5.86-.02-4.76 3.42 1.84 5.56-4.73-3.46-4.72 3.46 1.83-5.56-4.75-3.42 5.86.02 1.78-5.58zM68.16 42.26l1.78 5.58 5.86-.03-4.75 3.43 1.83 5.56-4.72-3.46-4.73 3.46 1.84-5.56-4.76-3.43 5.86.03 1.79-5.58zm-6.52 24.07 1.79 5.58 5.86-.03-4.76 3.43 1.84 5.56-4.73-3.46-4.72 3.46 1.83-5.56L54 71.88l5.85.03 1.79-5.58zm6.45 24.08 1.79 5.58 5.86-.03-4.76 3.43 1.84 5.56-4.73-3.47-4.72 3.47 1.83-5.56-4.75-3.43 5.86.03 1.78-5.58zm17.74 17.7 1.79 5.58 5.86-.02-4.76 3.42 1.84 5.56-4.73-3.46-4.72 3.46 1.83-5.56-4.75-3.42 5.86.02 1.78-5.58zm48.04-83.56-1.79 5.58-5.86-.02 4.76 3.42-1.84 5.56 4.73-3.46 4.72 3.46-1.83-5.56 4.75-3.42-5.86.02-1.78-5.58zm17.67 17.71-1.79 5.58-5.85-.03 4.75 3.43-1.83 5.56 4.72-3.46 4.73 3.46-1.84-5.56 4.76-3.43-5.86.03-1.79-5.58zm6.52 24.07-1.79 5.58-5.86-.03 4.76 3.43-1.84 5.56 4.73-3.46 4.72 3.46-1.83-5.56 4.75-3.43-5.86.03-1.78-5.58zm-6.45 24.08-1.79 5.58-5.86-.03 4.76 3.43-1.84 5.56 4.73-3.47 4.72 3.47-1.83-5.56 4.75-3.43-5.86.03-1.78-5.58zm-17.74 17.7-1.79 5.58-5.86-.02 4.76 3.42-1.84 5.56 4.73-3.46 4.72 3.46-1.83-5.56 4.75-3.42-5.86.02-1.78-5.58z" style="fill:#ffed00"/><path d="M257.68 25.31h-13l-2.91 8.11h-4.22l11.84-31H253l11.86 31h-4.19ZM245.93 22h10.54l-5.28-14.5Zm26.18-11.61.13 2.89a8.41 8.41 0 0 1 6.9-3.32q7.31 0 7.37 8.24v15.22h-3.94V18.18a5.34 5.34 0 0 0-1.14-3.68 4.56 4.56 0 0 0-3.43-1.2 5.65 5.65 0 0 0-3.37 1 6.93 6.93 0 0 0-2.3 2.7v16.42h-3.94v-23Zm54.55 13.2a11.48 11.48 0 0 1-3.66 7.59 11.92 11.92 0 0 1-8.13 2.67 10.91 10.91 0 0 1-8.8-3.94q-3.32-3.94-3.31-10.54v-3a17.81 17.81 0 0 1 1.54-7.6 11.54 11.54 0 0 1 4.38-5A12.11 12.11 0 0 1 315.27 2a11.2 11.2 0 0 1 7.92 2.76 11.57 11.57 0 0 1 3.47 7.63h-4.11A9 9 0 0 0 320.24 7a7 7 0 0 0-5-1.67 7.35 7.35 0 0 0-6.15 2.9q-2.22 2.89-2.22 8.25v3a13.62 13.62 0 0 0 2.11 8 6.8 6.8 0 0 0 5.89 3 7.85 7.85 0 0 0 5.26-1.48q1.81-1.55 2.42-5.37Zm8.49-10.41A8.34 8.34 0 0 1 342 10q7.31 0 7.36 8.24v15.18h-3.93V18.18a5.34 5.34 0 0 0-1.14-3.68 4.56 4.56 0 0 0-3.48-1.2 5.65 5.65 0 0 0-3.37 1 6.85 6.85 0 0 0-2.29 2.7v16.42h-3.94V.72h3.94Zm18.51 8.51A13.75 13.75 0 0 1 355 15.6a9.81 9.81 0 0 1 9.12-5.6 9.73 9.73 0 0 1 7.61 3.26 12.56 12.56 0 0 1 2.9 8.66v.28a13.9 13.9 0 0 1-1.28 6 9.82 9.82 0 0 1-3.69 4.16 10.21 10.21 0 0 1-5.5 1.49 9.71 9.71 0 0 1-7.59-3.26 12.44 12.44 0 0 1-2.91-8.59Zm4 .47a9.87 9.87 0 0 0 1.78 6.15 6 6 0 0 0 9.53 0 10.76 10.76 0 0 0 1.76-6.59 9.9 9.9 0 0 0-1.79-6.14 5.72 5.72 0 0 0-4.78-2.35 5.65 5.65 0 0 0-4.71 2.32 10.71 10.71 0 0 0-1.83 6.61Zm25.16-11.77.1 2.55a8.51 8.51 0 0 1 6.84-3q4.83 0 6.58 3.71a8.62 8.62 0 0 1 3-2.69 8.85 8.85 0 0 1 4.35-1q7.57 0 7.71 8v15.46h-3.94v-15.2a5.29 5.29 0 0 0-1.13-3.69 4.94 4.94 0 0 0-3.79-1.23 5.25 5.25 0 0 0-3.64 1.31 5.37 5.37 0 0 0-1.68 3.53v15.28h-4V18.33q0-5-4.92-5a5.27 5.27 0 0 0-5.3 3.3v16.79h-3.94v-23Zm38.01 2.79a8.34 8.34 0 0 1 6.81-3.18q7.31 0 7.37 8.24v15.18h-3.94V18.18a5.34 5.34 0 0 0-1.14-3.68 4.56 4.56 0 0 0-3.48-1.2 5.65 5.65 0 0 0-3.37 1 6.93 6.93 0 0 0-2.25 2.7v16.42h-3.94V.72h3.94Zm18.63 8.53a13.45 13.45 0 0 1 2.54-8.52 8.53 8.53 0 0 1 13-.46V.72h3.94v32.7h-3.62l-.24-2.42a8 8 0 0 1-6.58 2.9 7.84 7.84 0 0 1-6.5-3.33 13.67 13.67 0 0 1-2.54-8.57Zm3.93.45a10.19 10.19 0 0 0 1.61 6.13 5.23 5.23 0 0 0 4.47 2.22 5.75 5.75 0 0 0 5.53-3.37V16.56a5.78 5.78 0 0 0-5.42-3.26 5.27 5.27 0 0 0-4.58 2.24q-1.61 2.24-1.61 6.62Zm25.05-8.98a8.37 8.37 0 0 1 6.81-3.18q7.31 0 7.37 8.24v15.18h-3.94V18.18a5.24 5.24 0 0 0-1.14-3.68 4.53 4.53 0 0 0-3.48-1.2 5.6 5.6 0 0 0-3.36 1 6.87 6.87 0 0 0-2.26 2.7v16.42h-3.94V.72h3.94ZM502 33.42a8.41 8.41 0 0 1-.55-2.43 8.77 8.77 0 0 1-6.56 2.86 8.12 8.12 0 0 1-5.59-1.93 6.23 6.23 0 0 1-2.17-4.92 6.49 6.49 0 0 1 2.74-5.59c1.82-1.33 4.39-2 7.69-2h3.84v-1.76a4.43 4.43 0 0 0-1.24-3.29 5 5 0 0 0-3.64-1.23A5.74 5.74 0 0 0 493 14.2a3.14 3.14 0 0 0-1.43 2.57h-4a5.46 5.46 0 0 1 1.22-3.33 8.36 8.36 0 0 1 3.33-2.54 11 11 0 0 1 4.6-.94A9.13 9.13 0 0 1 503 12a7.15 7.15 0 0 1 2.34 5.48V28a12.94 12.94 0 0 0 .81 5v.34Zm-6.53-3a6.92 6.92 0 0 0 3.51-1A5.82 5.82 0 0 0 501.4 27v-4.75h-3.09q-7.24 0-7.24 4.23a3.6 3.6 0 0 0 1.23 2.9 4.81 4.81 0 0 0 3.18 1.04Zm3.65-29.7h4.77L498.18 7H495Zm11.64 3.56a2.35 2.35 0 0 1 .58-1.62 2.62 2.62 0 0 1 3.48 0 2.32 2.32 0 0 1 .6 1.62 2.21 2.21 0 0 1-.6 1.59 2.69 2.69 0 0 1-3.48 0 2.24 2.24 0 0 1-.58-1.59ZM515 33.42h-3.94v-23H515Zm9.84 0h-3.94V.72h3.94Zm-270.67 53a8 8 0 0 1-.56-2.43 8.75 8.75 0 0 1-6.55 2.86 8.1 8.1 0 0 1-5.59-1.93 6.2 6.2 0 0 1-2.18-4.92 6.51 6.51 0 0 1 2.71-5.55c1.83-1.33 4.39-2 7.7-2h3.83v-1.8a4.39 4.39 0 0 0-1.24-3.29 4.93 4.93 0 0 0-3.64-1.23 5.74 5.74 0 0 0-3.53 1.07 3.14 3.14 0 0 0-1.43 2.57h-4a5.41 5.41 0 0 1 1.31-3.33 8.26 8.26 0 0 1 3.32-2.54 11.08 11.08 0 0 1 4.61-.94 9.16 9.16 0 0 1 6.24 2 7.22 7.22 0 0 1 2.34 5.48V81a12.94 12.94 0 0 0 .81 5v.34Zm-6.54-3a6.87 6.87 0 0 0 3.51-1 5.82 5.82 0 0 0 2.41-2.42v-4.75h-3.09c-4.82 0-7.24 1.41-7.24 4.23a3.61 3.61 0 0 0 1.24 2.9 4.76 4.76 0 0 0 3.17 1.04Zm26.61-16.5a11.75 11.75 0 0 0-1.94-.15 5.19 5.19 0 0 0-5.26 3.3v16.35h-3.94v-23h3.84l.06 2.66a6.13 6.13 0 0 1 5.49-3.08 4 4 0 0 1 1.75.3Zm37.53-6.32h-9.49v25.82h-6.39V60.6h-9.37v-5.17h25.25Zm8.92 5.3a7.67 7.67 0 0 1 6.15-2.9q7.49 0 7.6 8.71v14.71h-6.15V71.84a4.32 4.32 0 0 0-.85-2.93 3.68 3.68 0 0 0-2.84-1 4.18 4.18 0 0 0-3.91 2.09v16.42h-6.16v-32.7h6.16Zm17.05 8.79a13.55 13.55 0 0 1 1.32-6.11 9.65 9.65 0 0 1 3.79-4.15 11.12 11.12 0 0 1 5.76-1.43 10.48 10.48 0 0 1 7.61 2.85 11.43 11.43 0 0 1 3.29 7.75l.05 1.58a12 12 0 0 1-3 8.5 11.45 11.45 0 0 1-15.89 0c-2-2.12-3-5-3-8.68Zm6.15.44a8.63 8.63 0 0 0 1.23 5 4.44 4.44 0 0 0 7 0c.84-1.14 1.25-3 1.25-5.49a8.5 8.5 0 0 0-1.25-5 4.09 4.09 0 0 0-3.54-1.77 4 4 0 0 0-3.49 1.76 9.61 9.61 0 0 0-1.2 5.5Zm18.2-.4q0-5.39 2.41-8.57a7.85 7.85 0 0 1 6.61-3.2 7.06 7.06 0 0 1 5.56 2.51V53.72h6.17v32.7h-5.55L377 84a7.24 7.24 0 0 1-5.92 2.88 7.81 7.81 0 0 1-6.52-3.21q-2.47-3.22-2.47-8.94Zm6.15.46a9.12 9.12 0 0 0 1.13 5 3.67 3.67 0 0 0 3.28 1.73 4.12 4.12 0 0 0 4-2.41v-9.14a4.07 4.07 0 0 0-4-2.41q-4.41.04-4.41 7.23Zm25.17-9.29a7.67 7.67 0 0 1 6.15-2.9q7.5 0 7.6 8.71v14.71H401V71.84a4.27 4.27 0 0 0-.85-2.93 3.66 3.66 0 0 0-2.83-1A4.2 4.2 0 0 0 393.4 70v16.42h-6.15v-32.7h6.15Zm27.66 15.99a4 4 0 0 0 2.77-.94 3.27 3.27 0 0 0 1.16-2.49h5.76a7.92 7.92 0 0 1-1.27 4.29 8.42 8.42 0 0 1-3.44 3 10.73 10.73 0 0 1-4.82 1.08 10 10 0 0 1-7.79-3.14q-2.86-3.15-2.86-8.68v-.4a12.34 12.34 0 0 1 2.83-8.5 9.9 9.9 0 0 1 7.72-3.11 9.66 9.66 0 0 1 6.93 2.46 8.67 8.67 0 0 1 2.65 6.54H425a4.21 4.21 0 0 0-1.11-2.92 4.11 4.11 0 0 0-6.06.44c-.73 1-1.09 2.74-1.09 5.08v.64c0 2.38.36 4.08 1.08 5.12a3.75 3.75 0 0 0 3.25 1.53ZM440.1 65.9a7.67 7.67 0 0 1 6.15-2.9q7.5 0 7.6 8.71v14.71h-6.15V71.84a4.27 4.27 0 0 0-.85-2.93A3.66 3.66 0 0 0 444 68a4.2 4.2 0 0 0-3.92 2.09v16.33H434v-32.7h6.15Zm31.33 20.52a6.69 6.69 0 0 1-.61-2.06 7.45 7.45 0 0 1-5.82 2.49 8.18 8.18 0 0 1-5.61-2 6.31 6.31 0 0 1-2.22-4.85 6.51 6.51 0 0 1 2.71-5.62q2.72-2 7.85-2h2.83V71a3.76 3.76 0 0 0-.82-2.55 3.23 3.23 0 0 0-2.59-1 3.69 3.69 0 0 0-2.43.74 2.54 2.54 0 0 0-.89 2h-6.15a6.15 6.15 0 0 1 1.24-3.71 8.18 8.18 0 0 1 3.49-2.67 12.61 12.61 0 0 1 5.06-1 10 10 0 0 1 6.76 2.14 7.48 7.48 0 0 1 2.5 6v10a11 11 0 0 0 .92 5v.36Zm-5.09-4.28a5.38 5.38 0 0 0 2.52-.6 4.06 4.06 0 0 0 1.7-1.63V76h-2.3q-4.62 0-4.92 3.19v.36a2.47 2.47 0 0 0 .81 1.9 3.17 3.17 0 0 0 2.19.69Zm21.18 4.28h-6.15v-23h6.15ZM485.71 54h6.71l-5.9 6.6h-5ZM245 116.39l.19 2.66a8.05 8.05 0 0 1 6.61-3.05 6.69 6.69 0 0 1 5.45 2.15q1.8 2.16 1.83 6.43v14.88h-6.15v-14.77a4 4 0 0 0-.85-2.84 3.81 3.81 0 0 0-2.83-.89 4.24 4.24 0 0 0-3.9 2.22v16.24h-6.15v-23Zm31.67 23.03a7 7 0 0 1-.62-2.06 7.43 7.43 0 0 1-5.81 2.49 8.18 8.18 0 0 1-5.61-2 6.31 6.31 0 0 1-2.22-4.94 6.51 6.51 0 0 1 2.71-5.62q2.72-2 7.85-2h2.83V124a3.76 3.76 0 0 0-.82-2.55 3.23 3.23 0 0 0-2.59-1 3.67 3.67 0 0 0-2.43.74 2.54 2.54 0 0 0-.89 2h-6.15a6.21 6.21 0 0 1 1.23-3.71 8.27 8.27 0 0 1 3.5-2.67 12.61 12.61 0 0 1 5.06-1 10 10 0 0 1 6.76 2.14 7.48 7.48 0 0 1 2.5 6v10a11 11 0 0 0 .92 5v.36Zm-5.09-4.28a5.38 5.38 0 0 0 2.52-.6 4.06 4.06 0 0 0 1.7-1.63v-4h-2.3q-4.62 0-4.92 3.19v.36a2.47 2.47 0 0 0 .81 1.9 3.17 3.17 0 0 0 2.19.78Zm31.98-16.24a7.67 7.67 0 0 1 6.15-2.94q7.5 0 7.6 8.71v14.75h-6.15v-14.58a4.27 4.27 0 0 0-.85-2.93 3.66 3.66 0 0 0-2.83-1 4.2 4.2 0 0 0-3.92 2.09v16.37h-6.15v-32.7h6.15Zm37.33 7.1h-12.26v8.3H343v5.13h-20.76v-31H343v5.17h-14.37v7.4h12.26Zm4.03 1.69a13.68 13.68 0 0 1 1.32-6.11 9.67 9.67 0 0 1 3.8-4.15 11.07 11.07 0 0 1 5.76-1.43 10.5 10.5 0 0 1 7.61 2.85 11.47 11.47 0 0 1 3.29 7.75v1.58a12 12 0 0 1-3 8.5 11.45 11.45 0 0 1-15.89 0c-2-2.12-3-5-3-8.68Zm6.15.44a8.55 8.55 0 0 0 1.24 5 4.43 4.43 0 0 0 7 0q1.26-1.71 1.26-5.49a8.5 8.5 0 0 0-1.26-5 4.08 4.08 0 0 0-3.53-1.77 4 4 0 0 0-3.49 1.76q-1.22 1.8-1.22 5.5Zm32.09-5.97A15.54 15.54 0 0 0 381 122c-2.33 0-3.85.78-4.58 2.36v15.07h-6.15v-23H376l.17 2.74a5.72 5.72 0 0 1 5.13-3.17 6.28 6.28 0 0 1 1.92.28Zm23.29 5.96a13.78 13.78 0 0 1-2.41 8.52 7.75 7.75 0 0 1-6.53 3.21 7.16 7.16 0 0 1-5.64-2.43v10.86h-6.15v-31.89h5.7l.22 2.25a7.24 7.24 0 0 1 5.83-2.68 7.79 7.79 0 0 1 6.62 3.15c1.58 2.1 2.36 5 2.36 8.69Zm-6.15-.45a9.06 9.06 0 0 0-1.14-5 3.72 3.72 0 0 0-3.31-1.75 4 4 0 0 0-4 2.22v9.43a4.09 4.09 0 0 0 4 2.28q4.45.04 4.45-7.18Zm22.88 11.75a6.68 6.68 0 0 1-.62-2.06 7.45 7.45 0 0 1-5.81 2.49 8.15 8.15 0 0 1-5.61-2 6.29 6.29 0 0 1-2.23-4.94 6.52 6.52 0 0 1 2.72-5.62q2.72-2 7.84-2h2.83V124a3.76 3.76 0 0 0-.82-2.55 3.19 3.19 0 0 0-2.58-1 3.7 3.7 0 0 0-2.44.74 2.54 2.54 0 0 0-.88 2h-6.16a6.22 6.22 0 0 1 1.24-3.71 8.24 8.24 0 0 1 3.49-2.67 12.63 12.63 0 0 1 5.07-1 10 10 0 0 1 6.78 2.29 7.51 7.51 0 0 1 2.5 6v10a11 11 0 0 0 .91 5v.36Zm-5.09-4.28a5.34 5.34 0 0 0 2.51-.6 4 4 0 0 0 1.7-1.63v-4H420c-3.08 0-4.71 1.06-4.91 3.19v.36a2.46 2.46 0 0 0 .8 1.9 3.18 3.18 0 0 0 2.2.78Z" style="fill:#fff"/></g></svg>