<svg xmlns="http://www.w3.org/2000/svg" viewBox="0 0 602 149"><g data-name="Layer 1"><path style="fill:#164194;stroke:#fff;stroke-miterlimit:10" d="M1.44 9h211.62v131H1.44z"/><path d="m109.84 18.13 1.79 5.58 5.85-.02-4.75 3.42 1.83 5.56-4.72-3.46-4.73 3.46 1.84-5.56-4.76-3.42 5.86.02 1.79-5.58zm0 96.52 1.79 5.58 5.85-.03-4.75 3.43 1.83 5.56-4.72-3.47-4.73 3.47 1.84-5.56-4.76-3.43 5.86.03 1.79-5.58zm-24.01-90.1 1.79 5.58 5.86-.02-4.76 3.42 1.84 5.56-4.73-3.46-4.72 3.46 1.83-5.56-4.75-3.42 5.86.02 1.78-5.58zM68.16 42.26l1.78 5.58 5.86-.03-4.75 3.43 1.83 5.56-4.72-3.46-4.73 3.46 1.84-5.56-4.76-3.43 5.86.03 1.79-5.58zm-6.52 24.07 1.79 5.58 5.86-.03-4.76 3.43 1.84 5.56-4.73-3.46-4.72 3.46 1.83-5.56L54 71.88l5.85.03 1.79-5.58zm6.45 24.08 1.79 5.58 5.86-.03-4.76 3.43 1.84 5.56-4.73-3.47-4.72 3.47 1.83-5.56-4.75-3.43 5.86.03 1.78-5.58zm17.74 17.7 1.79 5.58 5.86-.02-4.76 3.42 1.84 5.56-4.73-3.46-4.72 3.46 1.83-5.56-4.75-3.42 5.86.02 1.78-5.58zm48.04-83.56-1.79 5.58-5.86-.02 4.76 3.42-1.84 5.56 4.73-3.46 4.72 3.46-1.83-5.56 4.75-3.42-5.86.02-1.78-5.58zm17.67 17.71-1.79 5.58-5.85-.03 4.75 3.43-1.83 5.56 4.72-3.46 4.73 3.46-1.84-5.56 4.76-3.43-5.86.03-1.79-5.58zm6.52 24.07-1.79 5.58-5.86-.03 4.76 3.43-1.84 5.56 4.73-3.46 4.72 3.46-1.83-5.56 4.75-3.43-5.86.03-1.78-5.58zm-6.45 24.08-1.79 5.58-5.86-.03 4.76 3.43-1.84 5.56 4.73-3.47 4.72 3.47-1.83-5.56 4.75-3.43-5.86.03-1.78-5.58zm-17.74 17.7-1.79 5.58-5.86-.02 4.76 3.42-1.84 5.56 4.73-3.46 4.72 3.46-1.83-5.56 4.75-3.42-5.86.02-1.78-5.58z" style="fill:#ffed00"/><path d="M247.42 19.5h-3.77v13.92h-4.09v-31h4.09v13.67h3.19l10.84-13.66h5.09l-11.84 15 12.71 16h-5Zm17.02 2.19a13.61 13.61 0 0 1 1.33-6.09 9.9 9.9 0 0 1 3.7-4.17 10.08 10.08 0 0 1 5.42-1.43 9.72 9.72 0 0 1 7.61 3.26 12.51 12.51 0 0 1 2.91 8.66v.28a13.76 13.76 0 0 1-1.29 6 9.87 9.87 0 0 1-3.68 4.16 10.27 10.27 0 0 1-5.51 1.49 9.71 9.71 0 0 1-7.59-3.26 12.49 12.49 0 0 1-2.9-8.62Zm4 .47a9.87 9.87 0 0 0 1.77 6.15 6 6 0 0 0 9.53 0 10.76 10.76 0 0 0 1.77-6.59 9.84 9.84 0 0 0-1.8-6.14 5.71 5.71 0 0 0-4.78-2.35 5.64 5.64 0 0 0-4.7 2.32c-1.23 1.52-1.83 3.73-1.83 6.61ZM309 33.42h-3.9v-9.83h-10.58v9.83h-4v-23h4v10h10.58v-10h3.9Zm5.43-11.09q0-5.77 2.24-9.07A7 7 0 0 1 322.8 10a7.66 7.66 0 0 1 3.17.62V.72h3.94v10a7.67 7.67 0 0 1 3.49-.72 7 7 0 0 1 6.15 3.3q2.24 3.3 2.24 9.52a13.25 13.25 0 0 1-2.23 8.09 7.19 7.19 0 0 1-6.12 3 8.42 8.42 0 0 1-3.53-.68v9.09H326v-9a8 8 0 0 1-3.21.62 7.17 7.17 0 0 1-6.1-3q-2.24-3-2.23-8.22Zm3.94.45a10.32 10.32 0 0 0 1.38 5.87 4.54 4.54 0 0 0 4 2 6.12 6.12 0 0 0 2.24-.38V13.56a5.91 5.91 0 0 0-2.19-.36 4.42 4.42 0 0 0-4 2.32q-1.43 2.33-1.43 7.26Zm19.48-.45a12.83 12.83 0 0 0-1.49-6.74 4.62 4.62 0 0 0-4.11-2.39 6 6 0 0 0-2.34.42v16.67a6.81 6.81 0 0 0 2.38.36 4.75 4.75 0 0 0 4.1-2q1.46-2.08 1.46-6.32Zm18.59 11.52a10.07 10.07 0 0 1-7.62-3.08 11.41 11.41 0 0 1-2.94-8.23v-.72a13.83 13.83 0 0 1 1.31-6.12 10.19 10.19 0 0 1 3.66-4.22A9.25 9.25 0 0 1 356 10a8.64 8.64 0 0 1 7 3c1.66 2 2.49 4.8 2.49 8.47V23h-15.6a8.23 8.23 0 0 0 2 5.51 6.27 6.27 0 0 0 4.84 2.09 6.87 6.87 0 0 0 3.54-.85 9 9 0 0 0 2.53-2.25l2.4 1.87a9.68 9.68 0 0 1-8.76 4.48ZM356 13.2a5.27 5.27 0 0 0-4 1.73 8.4 8.4 0 0 0-2 4.87h11.53v-.3a7.51 7.51 0 0 0-1.61-4.65A5 5 0 0 0 356 13.2Zm33.76 8.96a13.79 13.79 0 0 1-2.4 8.47 7.71 7.71 0 0 1-6.52 3.22 8.48 8.48 0 0 1-6.6-2.66v11.09h-3.93V10.39h3.59l.2 2.55a8.09 8.09 0 0 1 6.68-3 7.85 7.85 0 0 1 6.57 3.13q2.41 3.14 2.41 8.71Zm-3.93-.45a10.24 10.24 0 0 0-1.66-6.15 5.37 5.37 0 0 0-4.56-2.26 5.8 5.8 0 0 0-5.37 3.18v11a5.8 5.8 0 0 0 5.41 3.15 5.32 5.32 0 0 0 4.5-2.24c1.12-1.5 1.68-3.72 1.68-6.68Zm18.52 12.14a10.07 10.07 0 0 1-7.62-3.08 11.41 11.41 0 0 1-2.94-8.23v-.72a13.83 13.83 0 0 1 1.31-6.12 10.19 10.19 0 0 1 3.66-4.22 9.25 9.25 0 0 1 5.1-1.52 8.62 8.62 0 0 1 7 3c1.67 2 2.5 4.8 2.5 8.47V23h-15.63a8.23 8.23 0 0 0 2 5.51 6.28 6.28 0 0 0 4.84 2.09 6.85 6.85 0 0 0 3.54-.85 9 9 0 0 0 2.53-2.25l2.36 1.9a9.69 9.69 0 0 1-8.65 4.45Zm-.49-20.65a5.27 5.27 0 0 0-4 1.73 8.4 8.4 0 0 0-2 4.87h11.54v-.3a7.57 7.57 0 0 0-1.62-4.65 5 5 0 0 0-3.92-1.65Zm32.99 20.22h-3.93v-9.83h-10.58v9.83h-4v-23h4v10h10.58v-10h3.93Zm6.39-23.03h4v19.82h10.61V10.39h3.93v19.82h2.75l-.38 10h-3.54v-6.79h-17.37Zm40.31 0h3.93v23h-3.93V16.62l-10.63 16.8H469v-23h3.94v16.79Zm27.73 0v23h-4v-9h-5.94l-5.43 9h-4.26l5.79-9.56a6.89 6.89 0 0 1-3.39-2.5 6.7 6.7 0 0 1-1.18-3.95 6.19 6.19 0 0 1 2.36-5.07 9.72 9.72 0 0 1 6.32-1.95Zm-14.41 7.07a3.46 3.46 0 0 0 1.13 2.71 4.42 4.42 0 0 0 3 1h6.26v-7.59h-5.66a5.31 5.31 0 0 0-3.5 1.08 3.46 3.46 0 0 0-1.23 2.8Zm44.19-.77a3.08 3.08 0 0 0-1.23-2.57 6.35 6.35 0 0 0-6.87.14 3.19 3.19 0 0 0-1.39 2.56h-3.92a5.94 5.94 0 0 1 2.51-4.92 11.73 11.73 0 0 1 12.58-.18 5.87 5.87 0 0 1 2.26 5 4.76 4.76 0 0 1-.94 2.86 6.39 6.39 0 0 1-2.66 2.07 5.28 5.28 0 0 1 4 5.36A6 6 0 0 1 543 32a12.26 12.26 0 0 1-13.11-.1 6.27 6.27 0 0 1-2.58-5.27h3.91a3.6 3.6 0 0 0 1.51 2.88 5.73 5.73 0 0 0 3.73 1.21 5.91 5.91 0 0 0 3.64-1 3.26 3.26 0 0 0 1.39-2.7 3.19 3.19 0 0 0-1.16-2.77 6.22 6.22 0 0 0-3.61-.84h-3.94V20H537q4.06-.09 4.06-3.31Zm23.47 16.73A8.41 8.41 0 0 1 564 31a8.77 8.77 0 0 1-6.56 2.86 8.12 8.12 0 0 1-5.59-1.93 6.23 6.23 0 0 1-2.2-4.93 6.49 6.49 0 0 1 2.74-5.59c1.82-1.33 4.39-2 7.69-2h3.84v-1.76a4.43 4.43 0 0 0-1.24-3.29 4.93 4.93 0 0 0-3.68-1.23 5.74 5.74 0 0 0-3.53 1.07 3.14 3.14 0 0 0-1.43 2.57h-4a5.41 5.41 0 0 1 1.23-3.33 8.26 8.26 0 0 1 3.32-2.54 11 11 0 0 1 4.61-.94 9.12 9.12 0 0 1 6.23 2 7.15 7.15 0 0 1 2.34 5.48V28a12.94 12.94 0 0 0 .81 5v.34Zm-6.53-3a6.92 6.92 0 0 0 3.51-1 5.82 5.82 0 0 0 2.41-2.42v-4.75h-3.09q-7.25 0-7.24 4.23a3.58 3.58 0 0 0 1.24 2.9 4.76 4.76 0 0 0 3.17 1.04ZM249.57 64.66a9 9 0 0 1 7.07 2.94 11.51 11.51 0 0 1 2.64 8v.29a10.93 10.93 0 0 1-2.94 8 10.55 10.55 0 0 1-7.9 3 10.18 10.18 0 0 1-7.93-3.25q-3-3.24-2.95-8.82v-1q0-7.77 2.63-12.17a11.53 11.53 0 0 1 7.81-5.59 10.43 10.43 0 0 0 3.51-1.18 1.9 1.9 0 0 0 .79-1.63h5a6.59 6.59 0 0 1-1.79 5c-1.2 1.12-3.34 2-6.4 2.6a8 8 0 0 0-4.3 2.15 8.48 8.48 0 0 0-2.13 4.49 9.64 9.64 0 0 1 6.89-2.83Zm-1.17 5a4.28 4.28 0 0 0-3.4 1.44q-1.25 1.47-1.25 4.77a7.13 7.13 0 0 0 1.22 4.49 4.71 4.71 0 0 0 7 0 7 7 0 0 0 1.23-4.45v-.51a6.53 6.53 0 0 0-1.24-4.32 4.3 4.3 0 0 0-3.56-1.46Zm12.48-6.27h12.73v6.75H278a12.79 12.79 0 0 1 5.24 1 7.66 7.66 0 0 1 3.47 2.86 7.75 7.75 0 0 1 1.21 4.33 7.24 7.24 0 0 1-2.7 5.87 11.17 11.17 0 0 1-7.33 2.22h-10.43V68.35h-6.58Zm12.73 11.71v6.4H278a4.21 4.21 0 0 0 2.81-.84 2.93 2.93 0 0 0 1-2.32 3 3 0 0 0-1-2.36 4 4 0 0 0-2.81-.88Zm18.33 6.36a12.37 12.37 0 0 0 2.84-4.38 21.61 21.61 0 0 0 .83-6.16l.17-7.53h16.94v18.07H316v11.88h-6.15v-6.92h-13.6v6.92H290V81.46Zm7.26 0h7.39v-13h-4.79v2.76q-.23 6.37-2.6 10.24Zm30.3 5.39a11.31 11.31 0 0 1-8.25-3.11 11.05 11.05 0 0 1-3.19-8.28v-.6a13.81 13.81 0 0 1 1.35-6.2 9.81 9.81 0 0 1 3.8-4.22 10.61 10.61 0 0 1 5.61-1.44 9.55 9.55 0 0 1 7.44 3q2.72 3 2.71 8.45v2.52H324.3a5.74 5.74 0 0 0 1.8 3.62 5.48 5.48 0 0 0 3.8 1.36 6.65 6.65 0 0 0 5.56-2.58l3 3.39a9.23 9.23 0 0 1-3.75 3 12.28 12.28 0 0 1-5.21 1.09Zm-.71-18.93a3.87 3.87 0 0 0-3 1.24 6.4 6.4 0 0 0-1.45 3.55h8.55v-.49a4.55 4.55 0 0 0-1.1-3.18 4 4 0 0 0-3-1.12Zm20.04-4.53v18.07h6.33V63.39h6.17v18.07h6.3V63.39h6.18V81.5h4.57L378 93.26h-5.73v-6.84h-29.59v-23Zm43.23 23.46a11.31 11.31 0 0 1-8.25-3.11 11 11 0 0 1-3.18-8.28v-.6a13.81 13.81 0 0 1 1.34-6.2 9.81 9.81 0 0 1 3.8-4.22 10.64 10.64 0 0 1 5.61-1.44 9.55 9.55 0 0 1 7.44 3q2.71 3 2.71 8.45v2.52h-14.66a5.68 5.68 0 0 0 1.79 3.62 5.48 5.48 0 0 0 3.8 1.36 6.64 6.64 0 0 0 5.54-2.64l3 3.39a9.26 9.26 0 0 1-3.74 3 12.32 12.32 0 0 1-5.2 1.15Zm-.7-18.93a3.87 3.87 0 0 0-3 1.24 6.41 6.41 0 0 0-1.46 3.55h8.56v-.49a4.6 4.6 0 0 0-1.08-3.22 4 4 0 0 0-3.02-1.08Zm32.87.43h-7.39v18.07h-6.18V68.35h-7.26v-5h20.83Zm1.89 6.34a13.68 13.68 0 0 1 1.32-6.11 9.67 9.67 0 0 1 3.8-4.15A11.12 11.12 0 0 1 437 63a10.48 10.48 0 0 1 7.61 2.85 11.47 11.47 0 0 1 3.29 7.75v1.58a12 12 0 0 1-3 8.5 11.45 11.45 0 0 1-15.89 0c-2-2.12-3-5-3-8.68Zm6.16.44a8.63 8.63 0 0 0 1.23 5 4.44 4.44 0 0 0 7 0q1.24-1.71 1.25-5.49a8.58 8.58 0 0 0-1.25-5 4.09 4.09 0 0 0-3.51-1.72 4 4 0 0 0-3.49 1.76 9.61 9.61 0 0 0-1.23 5.45ZM482 86.42h-3.94v-9.83h-10.55v9.83h-4v-23h4v10h10.58v-10H482Zm20.24 0a8 8 0 0 1-.56-2.43 8.75 8.75 0 0 1-6.55 2.86 8.09 8.09 0 0 1-5.59-1.93 6.21 6.21 0 0 1-2.19-4.92 6.52 6.52 0 0 1 2.74-5.59q2.73-2 7.7-2h3.83v-1.76a4.39 4.39 0 0 0-1.24-3.29 4.93 4.93 0 0 0-3.64-1.23 5.74 5.74 0 0 0-3.53 1.07 3.14 3.14 0 0 0-1.43 2.57h-4a5.41 5.41 0 0 1 1.23-3.33 8.26 8.26 0 0 1 3.32-2.54A11.08 11.08 0 0 1 497 63a9.16 9.16 0 0 1 6.24 2 7.22 7.22 0 0 1 2.34 5.48V81a12.94 12.94 0 0 0 .81 5v.34Zm-6.54-3a6.87 6.87 0 0 0 3.51-1 5.82 5.82 0 0 0 2.41-2.42v-4.75h-3.09c-4.82 0-7.24 1.41-7.24 4.23a3.61 3.61 0 0 0 1.24 2.9 4.76 4.76 0 0 0 3.17 1.04ZM257.19 126h-12.26v8.3h14.39v5.13h-20.78v-31h20.74v5.17h-14.35v7.4h12.26Zm5.69 13.42v-23h9.63c3.13 0 5.54.55 7.21 1.66a5.36 5.36 0 0 1 2.51 4.77 4.36 4.36 0 0 1-1.05 2.86 6.72 6.72 0 0 1-3.08 1.95 7.35 7.35 0 0 1 3.89 1.84 4.54 4.54 0 0 1 1.42 3.37 5.59 5.59 0 0 1-2.42 4.9q-2.42 1.68-7 1.68Zm6.12-13.69h3.81c2.15 0 3.23-.72 3.23-2.07a1.89 1.89 0 0 0-.88-1.78 5.3 5.3 0 0 0-2.69-.53H269Zm0 4.13v4.64h5c2.17 0 3.25-.75 3.25-2.27s-1-2.34-3.11-2.37Zm38.86-1.74a13.79 13.79 0 0 1-2.42 8.52 7.74 7.74 0 0 1-6.52 3.21 7.2 7.2 0 0 1-5.65-2.43v10.86h-6.15v-31.89h5.71l.21 2.25a7.24 7.24 0 0 1 5.83-2.68 7.79 7.79 0 0 1 6.62 3.15q2.37 3.15 2.37 8.69Zm-6.16-.45a9.15 9.15 0 0 0-1.13-5 3.74 3.74 0 0 0-3.32-1.75 4 4 0 0 0-4 2.22v9.43a4.11 4.11 0 0 0 4 2.28c2.99.04 4.45-2.37 4.45-7.18Zm8.99.02a13.68 13.68 0 0 1 1.32-6.11 9.67 9.67 0 0 1 3.8-4.15 11.12 11.12 0 0 1 5.76-1.47 10.48 10.48 0 0 1 7.61 2.85 11.47 11.47 0 0 1 3.29 7.75v1.58a12 12 0 0 1-3 8.5 11.45 11.45 0 0 1-15.89 0c-2-2.12-3-5-3-8.68Zm6.16.44a8.63 8.63 0 0 0 1.23 5 4.44 4.44 0 0 0 7 0q1.25-1.71 1.25-5.49a8.58 8.58 0 0 0-1.25-5 4.09 4.09 0 0 0-3.54-1.77 4 4 0 0 0-3.49 1.76 9.61 9.61 0 0 0-1.2 5.5Zm39.5 11.29h-6.17v-18.07h-7.71v18.07h-6.15v-23h20Zm18.14 0a6.68 6.68 0 0 1-.62-2.06 7.45 7.45 0 0 1-5.81 2.49 8.15 8.15 0 0 1-5.61-2 6.29 6.29 0 0 1-2.23-4.94 6.52 6.52 0 0 1 2.72-5.62q2.71-2 7.84-2h2.83V124a3.76 3.76 0 0 0-.82-2.55 3.21 3.21 0 0 0-2.58-1 3.7 3.7 0 0 0-2.44.74 2.54 2.54 0 0 0-.88 2h-6.16a6.15 6.15 0 0 1 1.27-3.59 8.18 8.18 0 0 1 3.49-2.67 12.63 12.63 0 0 1 5.07-1 10 10 0 0 1 6.75 2.14 7.48 7.48 0 0 1 2.51 6v10a11 11 0 0 0 .91 5v.36Zm-5.09-4.28a5.34 5.34 0 0 0 2.51-.6 4 4 0 0 0 1.7-1.63v-4h-2.3q-4.62 0-4.91 3.19v.36a2.47 2.47 0 0 0 .81 1.9 3.18 3.18 0 0 0 2.19.78Z" style="fill:#fff"/></g></svg>