<svg xmlns="http://www.w3.org/2000/svg" viewBox="0 0 602 149"><g data-name="Layer 1"><path style="fill:#164194;stroke:#fff;stroke-miterlimit:10" d="M1.44 9h211.62v131H1.44z"/><path d="m109.84 18.13 1.79 5.58 5.85-.02-4.75 3.42 1.83 5.56-4.72-3.46-4.73 3.46 1.84-5.56-4.76-3.42 5.86.02 1.79-5.58zm0 96.52 1.79 5.58 5.85-.03-4.75 3.43 1.83 5.56-4.72-3.47-4.73 3.47 1.84-5.56-4.76-3.43 5.86.03 1.79-5.58zm-24.01-90.1 1.79 5.58 5.86-.02-4.76 3.42 1.84 5.56-4.73-3.46-4.72 3.46 1.83-5.56-4.75-3.42 5.86.02 1.78-5.58zM68.16 42.26l1.78 5.58 5.86-.03-4.75 3.43 1.83 5.56-4.72-3.46-4.73 3.46 1.84-5.56-4.76-3.43 5.86.03 1.79-5.58zm-6.52 24.07 1.79 5.58 5.86-.03-4.76 3.43 1.84 5.56-4.73-3.46-4.72 3.46 1.83-5.56L54 71.88l5.85.03 1.79-5.58zm6.45 24.08 1.79 5.58 5.86-.03-4.76 3.43 1.84 5.56-4.73-3.47-4.72 3.47 1.83-5.56-4.75-3.43 5.86.03 1.78-5.58zm17.74 17.7 1.79 5.58 5.86-.02-4.76 3.42 1.84 5.56-4.73-3.46-4.72 3.46 1.83-5.56-4.75-3.42 5.86.02 1.78-5.58zm48.04-83.56-1.79 5.58-5.86-.02 4.76 3.42-1.84 5.56 4.73-3.46 4.72 3.46-1.83-5.56 4.75-3.42-5.86.02-1.78-5.58zm17.67 17.71-1.79 5.58-5.85-.03 4.75 3.43-1.83 5.56 4.72-3.46 4.73 3.46-1.84-5.56 4.76-3.43-5.86.03-1.79-5.58zm6.52 24.07-1.79 5.58-5.86-.03 4.76 3.43-1.84 5.56 4.73-3.46 4.72 3.46-1.83-5.56 4.75-3.43-5.86.03-1.78-5.58zm-6.45 24.08-1.79 5.58-5.86-.03 4.76 3.43-1.84 5.56 4.73-3.47 4.72 3.47-1.83-5.56 4.75-3.43-5.86.03-1.78-5.58zm-17.74 17.7-1.79 5.58-5.86-.02 4.76 3.42-1.84 5.56 4.73-3.46 4.72 3.46-1.83-5.56 4.75-3.42-5.86.02-1.78-5.58z" style="fill:#ffed00"/><path d="m251.06 19-3.79 4v10.42h-4.09v-31h4.09v15.33L261 2.43h5l-12.2 13.68 13.16 17.31H262Zm16.36 2.69a13.75 13.75 0 0 1 1.33-6.09 9.92 9.92 0 0 1 3.71-4.17 10 10 0 0 1 5.41-1.43 9.74 9.74 0 0 1 7.62 3.26 12.56 12.56 0 0 1 2.9 8.66v.28a13.76 13.76 0 0 1-1.29 6 9.8 9.8 0 0 1-3.68 4.16 10.23 10.23 0 0 1-5.5 1.49 9.69 9.69 0 0 1-7.59-3.26 12.44 12.44 0 0 1-2.91-8.59Zm4 .47a9.81 9.81 0 0 0 1.78 6.15 6 6 0 0 0 9.53 0 10.83 10.83 0 0 0 1.76-6.59 9.84 9.84 0 0 0-1.8-6.14 5.71 5.71 0 0 0-4.78-2.35 5.64 5.64 0 0 0-4.7 2.32 10.71 10.71 0 0 0-1.83 6.61Zm25.16-11.77.12 2.89a8.41 8.41 0 0 1 6.9-3.28q7.31 0 7.37 8.24v15.18H307V18.18a5.24 5.24 0 0 0-1.14-3.68 4.53 4.53 0 0 0-3.48-1.2 5.6 5.6 0 0 0-3.36 1 6.87 6.87 0 0 0-2.23 2.7v16.42h-3.94v-23Zm21.32 23.03v-20h-3.64v-3h3.64V8a7.83 7.83 0 0 1 2-5.72 7.48 7.48 0 0 1 5.6-2 10.46 10.46 0 0 1 2.71.36L328 3.81a11 11 0 0 0-2.13-.19 3.85 3.85 0 0 0-3 1.12 4.57 4.57 0 0 0-1 3.21v2.44h4.92v3h-4.92v20Zm21.46.43a10.07 10.07 0 0 1-7.62-3.08 11.41 11.41 0 0 1-2.94-8.23v-.72a13.83 13.83 0 0 1 1.31-6.12 10.27 10.27 0 0 1 3.66-4.22 9.25 9.25 0 0 1 5.1-1.52 8.62 8.62 0 0 1 7 3c1.67 2 2.5 4.8 2.5 8.47V23h-15.63a8.23 8.23 0 0 0 2 5.51 6.28 6.28 0 0 0 4.84 2.09 6.85 6.85 0 0 0 3.54-.85 9 9 0 0 0 2.53-2.25l2.41 1.87a9.69 9.69 0 0 1-8.7 4.48Zm-.49-20.65a5.27 5.27 0 0 0-4 1.73 8.4 8.4 0 0 0-2 4.87h11.54v-.3a7.57 7.57 0 0 0-1.62-4.65 5 5 0 0 0-3.92-1.65Zm24.95.72a11.63 11.63 0 0 0-1.93-.15 5.18 5.18 0 0 0-5.26 3.3v16.35h-3.94v-23h3.83l.06 2.66a6.15 6.15 0 0 1 5.5-3.09 4 4 0 0 1 1.74.3Zm12.41 19.93a10.07 10.07 0 0 1-7.62-3.08 11.41 11.41 0 0 1-2.94-8.23v-.72A13.83 13.83 0 0 1 367 15.7a10.19 10.19 0 0 1 3.66-4.22 9.25 9.25 0 0 1 5.1-1.52 8.64 8.64 0 0 1 7 3c1.66 2 2.49 4.8 2.49 8.47V23h-15.6a8.18 8.18 0 0 0 2 5.51 6.27 6.27 0 0 0 4.84 2.09 6.87 6.87 0 0 0 3.54-.85 9 9 0 0 0 2.53-2.25l2.4 1.87a9.68 9.68 0 0 1-8.73 4.48Zm-.49-20.65a5.25 5.25 0 0 0-4 1.73 8.4 8.4 0 0 0-2 4.87h11.53v-.3a7.51 7.51 0 0 0-1.61-4.65 5 5 0 0 0-3.92-1.65Zm17.54-2.81.13 2.89a8.41 8.41 0 0 1 6.9-3.32q7.29 0 7.36 8.24v15.22h-3.94V18.18a5.24 5.24 0 0 0-1.14-3.68 4.53 4.53 0 0 0-3.48-1.2 5.65 5.65 0 0 0-3.36 1 7 7 0 0 0-2.26 2.7v16.42h-3.93v-23Zm29.1 20.24a5.68 5.68 0 0 0 3.69-1.27 4.5 4.5 0 0 0 1.74-3.2h3.73a7.19 7.19 0 0 1-1.36 3.77 9 9 0 0 1-3.36 2.85 9.63 9.63 0 0 1-4.44 1.07 9.5 9.5 0 0 1-7.48-3.14q-2.77-3.15-2.78-8.59v-.66a13.75 13.75 0 0 1 1.24-6 9.33 9.33 0 0 1 3.54-4.07 10 10 0 0 1 5.46-1.39 9.26 9.26 0 0 1 6.44 2.32 8.34 8.34 0 0 1 2.74 6h-3.73a5.41 5.41 0 0 0-1.69-3.68 5.29 5.29 0 0 0-3.76-1.43 5.51 5.51 0 0 0-4.65 2.16 10.14 10.14 0 0 0-1.65 6.25v.74a9.94 9.94 0 0 0 1.64 6.13 5.51 5.51 0 0 0 4.68 2.14Zm13.16-26.35a2.36 2.36 0 0 1 .59-1.62 2.2 2.2 0 0 1 1.73-.66 2.24 2.24 0 0 1 1.75.66 2.32 2.32 0 0 1 .6 1.62 2.21 2.21 0 0 1-.6 1.59 2.27 2.27 0 0 1-1.75.64 2.22 2.22 0 0 1-1.73-.64 2.25 2.25 0 0 1-.59-1.59Zm4.26 29.14h-3.94v-23h3.94Zm19.64 0a8.08 8.08 0 0 1-.55-2.43 8.79 8.79 0 0 1-6.56 2.86 8.1 8.1 0 0 1-5.59-1.93 6.23 6.23 0 0 1-2.18-4.92 6.51 6.51 0 0 1 2.73-5.59c1.83-1.33 4.39-2 7.7-2h3.83v-1.76a4.42 4.42 0 0 0-1.23-3.29 5 5 0 0 0-3.59-1.23 5.75 5.75 0 0 0-3.54 1.07 3.13 3.13 0 0 0-1.46 2.57h-4a5.4 5.4 0 0 1 1.22-3.33 8.33 8.33 0 0 1 3.32-2.54 11.11 11.11 0 0 1 4.61-.94 9.16 9.16 0 0 1 6.24 2 7.22 7.22 0 0 1 2.34 5.48V28a12.94 12.94 0 0 0 .81 5v.34Zm-6.54-3a6.93 6.93 0 0 0 3.52-1 5.86 5.86 0 0 0 2.4-2.49v-4.68h-3.09q-7.23 0-7.23 4.23a3.6 3.6 0 0 0 1.23 2.9 4.76 4.76 0 0 0 3.17 1.04ZM261 73h-12.26v8.34h14.39v5.13h-20.78v-31h20.74v5.13h-14.35V68H261Zm19 11.08a7.7 7.7 0 0 1-6.3 2.77 7.29 7.29 0 0 1-5.7-2.13c-1.29-1.42-2-3.5-2-6.24V63.39h6.16v14.9q0 3.6 3.27 3.6t4.3-2.18V63.39h6.18v23h-5.79Zm23.27-14.92a15.54 15.54 0 0 0-2.21-.17c-2.33 0-3.85.78-4.58 2.36v15.07h-6.15v-23h5.81l.17 2.74a5.72 5.72 0 0 1 5.13-3.16 6.32 6.32 0 0 1 1.92.28Zm1.65 5.53a13.68 13.68 0 0 1 1.32-6.11 9.61 9.61 0 0 1 3.8-4.15 11.05 11.05 0 0 1 5.75-1.43 10.52 10.52 0 0 1 7.62 2.85 11.46 11.46 0 0 1 3.28 7.75l.05 1.58a12 12 0 0 1-3 8.5 11.45 11.45 0 0 1-15.89 0c-2-2.12-3-5-3-8.68Zm6.15.44a8.63 8.63 0 0 0 1.23 5 4.44 4.44 0 0 0 7 0c.84-1.14 1.25-3 1.25-5.49a8.5 8.5 0 0 0-1.25-5 4.09 4.09 0 0 0-3.54-1.77 4 4 0 0 0-3.49 1.76 9.61 9.61 0 0 0-1.2 5.5ZM317 53.72h6.7l-5.89 6.6h-5Zm34 21.4a13.78 13.78 0 0 1-2.41 8.52 7.75 7.75 0 0 1-6.59 3.21 7.16 7.16 0 0 1-5.64-2.43v10.86h-6.15V63.39h5.7l.22 2.25A7.24 7.24 0 0 1 342 63a7.8 7.8 0 0 1 6.62 3.15c1.58 2.1 2.36 5 2.36 8.69Zm-6.15-.47a9.13 9.13 0 0 0-1.14-5 3.72 3.72 0 0 0-3.31-1.75 4 4 0 0 0-4 2.22v9.48a4.08 4.08 0 0 0 4 2.29c2.93 0 4.4-2.42 4.4-7.24Zm22.83 11.77a6.68 6.68 0 0 1-.62-2.06 7.45 7.45 0 0 1-5.81 2.49 8.15 8.15 0 0 1-5.61-2 6.29 6.29 0 0 1-2.23-4.85 6.52 6.52 0 0 1 2.72-5.62q2.72-2 7.84-2h2.83V71a3.76 3.76 0 0 0-.82-2.55 3.19 3.19 0 0 0-2.58-1 3.7 3.7 0 0 0-2.44.74 2.54 2.54 0 0 0-.88 2h-6.16a6.15 6.15 0 0 1 1.24-3.71 8.24 8.24 0 0 1 3.49-2.67 12.63 12.63 0 0 1 5.07-1 10.06 10.06 0 0 1 6.76 2.14 7.52 7.52 0 0 1 2.5 6v10a11 11 0 0 0 .91 5v.36Zm-5.09-4.28a5.34 5.34 0 0 0 2.51-.6 4 4 0 0 0 1.7-1.63V76h-2.3c-3.08 0-4.71 1.06-4.91 3.19v.36a2.47 2.47 0 0 0 .81 1.9 3.18 3.18 0 0 0 2.19.69Zm-114.13 34.25v24.29a8.25 8.25 0 0 1-2 5.93 7.69 7.69 0 0 1-5.83 2.12 12.61 12.61 0 0 1-3.05-.37v-4.87a11.38 11.38 0 0 0 1.94.19c1.86 0 2.79-1 2.79-3v-24.29Zm-6.66-6a3 3 0 0 1 .92-2.28 4 4 0 0 1 5.05 0 3 3 0 0 1 .93 2.28 3 3 0 0 1-.95 2.3 4 4 0 0 1-5 0 3 3 0 0 1-.95-2.26Zm10.06 17.3a13.68 13.68 0 0 1 1.32-6.11 9.67 9.67 0 0 1 3.8-4.15 11.07 11.07 0 0 1 5.76-1.47 10.5 10.5 0 0 1 7.61 2.85 11.47 11.47 0 0 1 3.29 7.75v1.58a12 12 0 0 1-3 8.5 11.45 11.45 0 0 1-15.89 0c-2-2.12-3-5-3-8.68Zm2.7-17.34a2.58 2.58 0 0 1 .82-1.93 3 3 0 0 1 2.12-.78 2.87 2.87 0 0 1 2.13.8 2.59 2.59 0 0 1 .81 1.91 2.55 2.55 0 0 1-.81 1.9 2.91 2.91 0 0 1-2.13.79 3 3 0 0 1-2.09-.75 2.48 2.48 0 0 1-.85-1.94Zm3.44 17.78a8.63 8.63 0 0 0 1.24 5 4.43 4.43 0 0 0 7 0q1.26-1.71 1.26-5.49a8.5 8.5 0 0 0-1.26-5 4.07 4.07 0 0 0-3.53-1.77 4 4 0 0 0-3.49 1.76 9.6 9.6 0 0 0-1.22 5.5Zm6.92-17.78a2.55 2.55 0 0 1 .84-1.92 2.93 2.93 0 0 1 2.1-.79 3 3 0 0 1 2.1.78 2.51 2.51 0 0 1 .86 1.93 2.56 2.56 0 0 1-.82 1.91 2.92 2.92 0 0 1-2.14.81 2.88 2.88 0 0 1-2.13-.81 2.59 2.59 0 0 1-.8-1.91Zm19.97 21.56 4.28-15.52h6.43l-7.77 23H282l-7.77-23h6.43Zm11.43-4.22a13.68 13.68 0 0 1 1.32-6.11 9.61 9.61 0 0 1 3.8-4.15 11.05 11.05 0 0 1 5.75-1.47 10.52 10.52 0 0 1 7.62 2.85 11.46 11.46 0 0 1 3.28 7.75l.05 1.58a12 12 0 0 1-3 8.5 11.45 11.45 0 0 1-15.89 0c-2-2.12-3-5-3-8.68Zm8.32-21h5.43l-4.88 6.41h-4.51Zm-2.17 21.39a8.63 8.63 0 0 0 1.23 5 4.44 4.44 0 0 0 7 0c.84-1.14 1.25-3 1.25-5.49a8.5 8.5 0 0 0-1.25-5 4.09 4.09 0 0 0-3.54-1.77 4 4 0 0 0-3.49 1.76 9.61 9.61 0 0 0-1.2 5.55ZM313 106.74h5.52l-5.66 6.41h-4.65Zm14.85 9.65v24.29a8.25 8.25 0 0 1-2 5.93 7.69 7.69 0 0 1-5.83 2.12 12.61 12.61 0 0 1-3.05-.37v-4.87a11.38 11.38 0 0 0 1.94.19c1.86 0 2.79-1 2.79-3v-24.29Zm-6.66-6a3 3 0 0 1 .93-2.28 4 4 0 0 1 5 0 3 3 0 0 1 .93 2.28 3 3 0 0 1-.95 2.3 4 4 0 0 1-5 0 3 3 0 0 1-.91-2.26Zm21.55 29.46a11.31 11.31 0 0 1-8.25-3.11 11 11 0 0 1-3.18-8.28v-.6a13.94 13.94 0 0 1 1.34-6.2 9.87 9.87 0 0 1 3.8-4.22 10.64 10.64 0 0 1 5.61-1.48 9.55 9.55 0 0 1 7.44 3q2.72 3 2.72 8.45v2.52h-14.67a5.74 5.74 0 0 0 1.8 3.62 5.46 5.46 0 0 0 3.8 1.36 6.62 6.62 0 0 0 5.55-2.58l3 3.39a9.29 9.29 0 0 1-3.75 3.05 12.32 12.32 0 0 1-5.21 1.08Zm-.7-18.93a3.87 3.87 0 0 0-3 1.24 6.48 6.48 0 0 0-1.46 3.55h8.56v-.49a4.6 4.6 0 0 0-1.11-3.18 4 4 0 0 0-3.03-1.12Zm.55-14.2h6.71l-5.9 6.6h-5Zm25.98 15.44a15.77 15.77 0 0 0-2.22-.17c-2.32 0-3.85.78-4.57 2.36v15.07h-6.16v-23h5.82l.17 2.74a5.7 5.7 0 0 1 5.13-3.17 6.21 6.21 0 0 1 1.91.28Zm1.84 5.53a13.68 13.68 0 0 1 1.32-6.11 9.67 9.67 0 0 1 3.8-4.15 11.07 11.07 0 0 1 5.76-1.47 10.5 10.5 0 0 1 7.61 2.85 11.52 11.52 0 0 1 3.29 7.75v1.58a12 12 0 0 1-3 8.5 11.45 11.45 0 0 1-15.89 0c-2-2.12-3-5-3-8.68Zm8.32-21h5.43l-4.87 6.41h-4.52Zm-2.17 21.39a8.55 8.55 0 0 0 1.24 5 4.43 4.43 0 0 0 7 0q1.26-1.71 1.26-5.49a8.5 8.5 0 0 0-1.26-5 4.08 4.08 0 0 0-3.53-1.77 4 4 0 0 0-3.49 1.76q-1.22 1.85-1.22 5.55Zm10.5-21.39h5.51l-5.66 6.41h-4.64Zm15.03 32.73h-6.17v-32.7h6.17Z" style="fill:#fff"/></g></svg>