<svg xmlns="http://www.w3.org/2000/svg" viewBox="0 0 602 149"><defs><style>.cls-3{fill:#fff}</style></defs><g id="Layer_1" data-name="Layer 1"><path style="fill:#164194;stroke:#fff;stroke-miterlimit:10" d="M1.44 9h211.62v131H1.44z"/><path d="m109.84 18.13 1.79 5.58 5.85-.02-4.75 3.42 1.83 5.56-4.72-3.46-4.73 3.46 1.84-5.56-4.76-3.42 5.86.02 1.79-5.58zm0 96.52 1.79 5.58 5.85-.03-4.75 3.43 1.83 5.56-4.72-3.47-4.73 3.47 1.84-5.56-4.76-3.43 5.86.03 1.79-5.58zm-24.01-90.1 1.79 5.58 5.86-.02-4.76 3.42 1.84 5.56-4.73-3.46-4.72 3.46 1.83-5.56-4.75-3.42 5.86.02 1.78-5.58zM68.16 42.26l1.78 5.58 5.86-.03-4.75 3.43 1.83 5.56-4.72-3.46-4.73 3.46 1.84-5.56-4.76-3.43 5.86.03 1.79-5.58zm-6.52 24.07 1.79 5.58 5.86-.03-4.76 3.43 1.84 5.56-4.73-3.46-4.72 3.46 1.83-5.56L54 71.88l5.85.03 1.79-5.58zm6.45 24.08 1.79 5.58 5.86-.03-4.76 3.43 1.84 5.56-4.73-3.47-4.72 3.47 1.83-5.56-4.75-3.43 5.86.03 1.78-5.58zm17.74 17.7 1.79 5.58 5.86-.02-4.76 3.42 1.84 5.56-4.73-3.46-4.72 3.46 1.83-5.56-4.75-3.42 5.86.02 1.78-5.58zm48.04-83.56-1.79 5.58-5.86-.02 4.76 3.42-1.84 5.56 4.73-3.46 4.72 3.46-1.83-5.56 4.75-3.42-5.86.02-1.78-5.58zm17.67 17.71-1.79 5.58-5.85-.03 4.75 3.43-1.83 5.56 4.72-3.46 4.73 3.46-1.84-5.56 4.76-3.43-5.86.03-1.79-5.58zm6.52 24.07-1.79 5.58-5.86-.03 4.76 3.43-1.84 5.56 4.73-3.46 4.72 3.46-1.83-5.56 4.75-3.43-5.86.03-1.78-5.58zm-6.45 24.08-1.79 5.58-5.86-.03 4.76 3.43-1.84 5.56 4.73-3.47 4.72 3.47-1.83-5.56 4.75-3.43-5.86.03-1.78-5.58zm-17.74 17.7-1.79 5.58-5.86-.02 4.76 3.42-1.84 5.56 4.73-3.46 4.72 3.46-1.83-5.56 4.75-3.42-5.86.02-1.78-5.58z" style="fill:#ffed00"/><path class="cls-3" d="M263.26 23.81a11.46 11.46 0 0 1-3.63 7.59 11.92 11.92 0 0 1-8.13 2.67 10.91 10.91 0 0 1-8.8-3.94q-3.3-3.93-3.31-10.54v-3A17.81 17.81 0 0 1 240.93 9a11.54 11.54 0 0 1 4.38-5 12.19 12.19 0 0 1 6.56-1.76A11.2 11.2 0 0 1 259.79 5a11.59 11.59 0 0 1 3.47 7.63h-4.11a9 9 0 0 0-2.31-5.38 7 7 0 0 0-5-1.66 7.31 7.31 0 0 0-6.14 2.89c-1.49 1.94-2.23 4.68-2.23 8.25v3a13.66 13.66 0 0 0 2.11 8 6.82 6.82 0 0 0 5.89 3 7.9 7.9 0 0 0 5.23-1.54c1.22-1 2-2.83 2.42-5.38Zm3.74-1.89a13.55 13.55 0 0 1 1.33-6.09 9.89 9.89 0 0 1 3.67-4.18 10 10 0 0 1 5.41-1.46 9.7 9.7 0 0 1 7.59 3.25 12.52 12.52 0 0 1 2.91 8.67v.27a13.7 13.7 0 0 1-1.29 6 9.74 9.74 0 0 1-3.62 4.2 10.23 10.23 0 0 1-5.5 1.49 9.64 9.64 0 0 1-7.59-3.26 12.44 12.44 0 0 1-2.91-8.62Zm4 .46a9.84 9.84 0 0 0 1.78 6.16 5.7 5.7 0 0 0 4.76 2.32 5.63 5.63 0 0 0 4.76-2.36 10.73 10.73 0 0 0 1.7-6.58 9.85 9.85 0 0 0-1.8-6.15 5.74 5.74 0 0 0-4.78-2.35 5.64 5.64 0 0 0-4.7 2.32 10.71 10.71 0 0 0-1.8 6.64Zm25.12-11.77.12 2.9a8.38 8.38 0 0 1 6.9-3.32q7.31 0 7.37 8.23v15.23h-3.94V18.4a5.34 5.34 0 0 0-1.14-3.68 4.56 4.56 0 0 0-3.43-1.19 5.72 5.72 0 0 0-3.37 1 6.93 6.93 0 0 0-2.25 2.68v16.44h-3.94v-23Zm21.32 23.04v-20h-3.64v-3.04h3.64V8.25a7.85 7.85 0 0 1 2-5.73 7.48 7.48 0 0 1 5.6-2 10.33 10.33 0 0 1 2.7.36L327.51 4a11.1 11.1 0 0 0-2.13-.19 3.85 3.85 0 0 0-3 1.12 4.58 4.58 0 0 0-1 3.22v2.43h4.92v3.05h-4.92v20Zm21.46.42a10.07 10.07 0 0 1-7.62-3.07 11.44 11.44 0 0 1-2.94-8.23V22a13.89 13.89 0 0 1 1.31-6.12 10.17 10.17 0 0 1 3.66-4.21 9.17 9.17 0 0 1 5.1-1.52 8.62 8.62 0 0 1 7 3c1.66 2 2.5 4.8 2.5 8.48v1.64h-15.63a8.2 8.2 0 0 0 2 5.5 6.26 6.26 0 0 0 4.84 2.1 7 7 0 0 0 3.54-.85 8.88 8.88 0 0 0 2.53-2.26l2.41 1.87a9.67 9.67 0 0 1-8.7 4.44Zm-.49-20.65a5.24 5.24 0 0 0-4 1.74 8.34 8.34 0 0 0-2 4.86H344v-.3a7.57 7.57 0 0 0-1.62-4.65 5 5 0 0 0-3.97-1.65Zm24.95.72a13 13 0 0 0-1.94-.14 5.18 5.18 0 0 0-5.25 3.3v16.35h-3.94v-23h3.83l.06 2.66a6.13 6.13 0 0 1 5.5-3.08 4 4 0 0 1 1.74.29Zm12.41 19.93a10.05 10.05 0 0 1-7.62-3.07 11.44 11.44 0 0 1-2.94-8.23V22a13.89 13.89 0 0 1 1.31-6.12 10.17 10.17 0 0 1 3.66-4.21 9.17 9.17 0 0 1 5.1-1.52 8.63 8.63 0 0 1 7 3c1.66 2 2.49 4.8 2.49 8.48v1.64h-15.6a8.15 8.15 0 0 0 2 5.5 6.24 6.24 0 0 0 4.84 2.1 6.91 6.91 0 0 0 3.53-.85 8.92 8.92 0 0 0 2.54-2.26l2.4 1.87a9.66 9.66 0 0 1-8.71 4.44Zm-.49-20.65a5.23 5.23 0 0 0-4 1.74 8.41 8.41 0 0 0-2 4.86h11.54v-.3a7.51 7.51 0 0 0-1.61-4.65 5 5 0 0 0-3.93-1.65Zm17.54-2.81.13 2.9a8.37 8.37 0 0 1 6.89-3.32q7.31 0 7.37 8.23v15.23h-3.94V18.4a5.24 5.24 0 0 0-1.14-3.68 4.53 4.53 0 0 0-3.48-1.19 5.69 5.69 0 0 0-3.36 1 6.87 6.87 0 0 0-2.29 2.7v16.42h-3.94v-23ZM418.13 5v5.58h4.3v3.05h-4.3V28a3.24 3.24 0 0 0 .57 2 2.44 2.44 0 0 0 2 .69 9.5 9.5 0 0 0 1.87-.26v3.18a11.5 11.5 0 0 1-3 .42 4.88 4.88 0 0 1-4-1.6 6.86 6.86 0 0 1-1.34-4.53V13.66H410v-3.05h4.19V5Zm7.95-.5a2.36 2.36 0 0 1 .59-1.62 2.2 2.2 0 0 1 1.74-.66 2.23 2.23 0 0 1 1.74.66 2.32 2.32 0 0 1 .6 1.62 2.25 2.25 0 0 1-.6 1.6 2.29 2.29 0 0 1-1.74.64 2.26 2.26 0 0 1-1.74-.64 2.29 2.29 0 0 1-.59-1.6Zm4.26 29.15h-3.94v-23h3.94Zm15.16.42a10.07 10.07 0 0 1-7.62-3.07 11.44 11.44 0 0 1-2.94-8.23V22a13.89 13.89 0 0 1 1.31-6.12 10.17 10.17 0 0 1 3.66-4.21 9.17 9.17 0 0 1 5.1-1.52 8.63 8.63 0 0 1 7 3c1.66 2 2.49 4.8 2.49 8.48v1.64h-15.6a8.2 8.2 0 0 0 2 5.5 6.24 6.24 0 0 0 4.84 2.1 7 7 0 0 0 3.54-.85 8.88 8.88 0 0 0 2.53-2.26l2.41 1.87a9.67 9.67 0 0 1-8.72 4.44Zm-.5-20.65a5.24 5.24 0 0 0-4 1.74 8.34 8.34 0 0 0-2 4.84h11.54v-.3a7.57 7.57 0 0 0-1.62-4.65 5 5 0 0 0-3.92-1.63Zm23.79 8.5a13.55 13.55 0 0 1 1.33-6.09 9.89 9.89 0 0 1 3.71-4.18 10 10 0 0 1 5.41-1.46 9.7 9.7 0 0 1 7.61 3.25 12.52 12.52 0 0 1 2.91 8.67v.27a13.7 13.7 0 0 1-1.29 6 9.74 9.74 0 0 1-3.68 4.16 10.23 10.23 0 0 1-5.5 1.49 9.64 9.64 0 0 1-7.59-3.26 12.44 12.44 0 0 1-2.91-8.62Zm4 .46a9.84 9.84 0 0 0 1.78 6.16 5.7 5.7 0 0 0 4.76 2.32 5.63 5.63 0 0 0 4.76-2.36 10.73 10.73 0 0 0 1.77-6.58 9.85 9.85 0 0 0-1.8-6.15 5.74 5.74 0 0 0-4.78-2.35 5.64 5.64 0 0 0-4.7 2.32 10.71 10.71 0 0 0-1.83 6.64ZM501 28.3l5.71-17.69h4l-8.26 23h-3l-8.35-23h4Zm21.75 5.77a10.07 10.07 0 0 1-7.62-3.07 11.44 11.44 0 0 1-2.94-8.23V22a13.89 13.89 0 0 1 1.31-6.12 10.24 10.24 0 0 1 3.66-4.21 9.17 9.17 0 0 1 5.1-1.52 8.65 8.65 0 0 1 7 3c1.66 2 2.49 4.8 2.49 8.48v1.64h-15.62a8.2 8.2 0 0 0 2 5.5 6.26 6.26 0 0 0 4.84 2.1 7 7 0 0 0 3.53-.87 8.88 8.88 0 0 0 2.5-2.25l2.41 1.87a9.67 9.67 0 0 1-8.66 4.45Zm-.49-20.65a5.24 5.24 0 0 0-4 1.74 8.34 8.34 0 0 0-2 4.86h11.54v-.3a7.57 7.57 0 0 0-1.62-4.65 5 5 0 0 0-3.92-1.65Zm24.95.72a12.91 12.91 0 0 0-1.94-.14 5.18 5.18 0 0 0-5.27 3.3v16.35h-3.94v-23h3.83l.06 2.66a6.13 6.13 0 0 1 5.5-3.08 4 4 0 0 1 1.74.29Zm-308.33 60.8a13.52 13.52 0 0 1 2.51-8.53 8.56 8.56 0 0 1 13-.46V54h3.94v32.7h-3.63l-.19-2.47a8 8 0 0 1-6.58 2.89 7.86 7.86 0 0 1-6.53-3.28 13.65 13.65 0 0 1-2.52-8.56Zm3.94.44a10.17 10.17 0 0 0 1.62 6.13 5.23 5.23 0 0 0 4.47 2.22 5.74 5.74 0 0 0 5.47-3.36V69.78a5.79 5.79 0 0 0-5.38-3.25 5.25 5.25 0 0 0-4.51 2.23q-1.67 2.24-1.67 6.62Zm30.67 11.69a10.07 10.07 0 0 1-7.62-3.07 11.44 11.44 0 0 1-2.94-8.23V75a13.89 13.89 0 0 1 1.31-6.12 10.26 10.26 0 0 1 3.67-4.21 9.12 9.12 0 0 1 5.09-1.48 8.64 8.64 0 0 1 7 3c1.66 2 2.49 4.8 2.49 8.48v1.64h-15.62a8.2 8.2 0 0 0 2 5.5 6.26 6.26 0 0 0 4.85 2.1 6.91 6.91 0 0 0 3.53-.85 8.75 8.75 0 0 0 2.53-2.26l2.41 1.87a9.67 9.67 0 0 1-8.7 4.4ZM273 66.42a5.26 5.26 0 0 0-4 1.74 8.41 8.41 0 0 0-2 4.84h11.54v-.3a7.45 7.45 0 0 0-1.62-4.65 4.94 4.94 0 0 0-3.92-1.63ZM304.58 58v5.66h3.93v4.51h-3.93v11.5a2.73 2.73 0 0 0 .49 1.83 2.44 2.44 0 0 0 1.87.55 10.83 10.83 0 0 0 1.81-.14v4.66a12.66 12.66 0 0 1-3.73.55q-6.47 0-6.6-6.53V68.12h-3.36v-4.51h3.36V58Zm5.65 16.92a13.62 13.62 0 0 1 1.32-6.11 9.7 9.7 0 0 1 3.8-4.16 11.06 11.06 0 0 1 5.76-1.46 10.5 10.5 0 0 1 7.61 2.81 11.48 11.48 0 0 1 3.28 7.79v1.57a12.06 12.06 0 0 1-3 8.51 11.48 11.48 0 0 1-15.89 0q-3-3.19-3-8.69Zm6.15.43a8.55 8.55 0 0 0 1.24 5 4.43 4.43 0 0 0 7 0q1.26-1.71 1.26-5.49a8.46 8.46 0 0 0-1.26-5 4.08 4.08 0 0 0-3.53-1.77 4 4 0 0 0-3.49 1.75 9.54 9.54 0 0 0-1.22 5.51ZM346 87.07a11.27 11.27 0 0 1-8.27-3.07 11 11 0 0 1-3.19-8.28v-.59a14 14 0 0 1 1.34-6.21 10 10 0 0 1 3.8-4.22 10.72 10.72 0 0 1 5.61-1.47 9.57 9.57 0 0 1 7.45 3c1.8 2 2.71 4.8 2.71 8.45v2.51h-14.67a5.74 5.74 0 0 0 1.8 3.62 5.43 5.43 0 0 0 3.8 1.36 6.65 6.65 0 0 0 5.56-2.58l3 3.39a9.15 9.15 0 0 1-3.75 3 12.13 12.13 0 0 1-5.19 1.09Zm-.71-18.92a3.84 3.84 0 0 0-3 1.24 6.45 6.45 0 0 0-1.46 3.55h8.56v-.5a4.57 4.57 0 0 0-1.1-3.17 4 4 0 0 0-3.02-1.12Zm21.93 9.26L365 79.62v7h-6.15V54H365v18.06l1.19-1.53 5.9-6.92h7.39l-8.33 9.6 9 13.44h-7.07Z"/><path class="cls-3" d="M379.9 74.92a13.62 13.62 0 0 1 1.31-6.11 9.7 9.7 0 0 1 3.8-4.16 11.11 11.11 0 0 1 5.76-1.46 10.48 10.48 0 0 1 7.61 2.81 11.38 11.38 0 0 1 3.29 7.75l.05 1.57a12.06 12.06 0 0 1-3 8.51 11.49 11.49 0 0 1-15.9 0c-2-2.13-3-5-3-8.69Zm6.15.43a8.63 8.63 0 0 0 1.23 5 4.44 4.44 0 0 0 7 0c.84-1.14 1.25-3 1.25-5.49a8.47 8.47 0 0 0-1.25-5 4.09 4.09 0 0 0-3.54-1.77 4 4 0 0 0-3.49 1.75 9.63 9.63 0 0 0-1.2 5.51ZM411 63.61l.19 2.58a8.09 8.09 0 0 1 6.62-3q4.44 0 6.11 3.51a7.91 7.91 0 0 1 6.92-3.51c2.49 0 4.35.72 5.57 2.18s1.84 3.64 1.84 6.56v14.72H432V71.92a4.42 4.42 0 0 0-.76-2.87 3.44 3.44 0 0 0-2.71-.9 3.84 3.84 0 0 0-3.83 2.64v15.86h-6.15V71.94a4.39 4.39 0 0 0-.79-2.9 3.41 3.41 0 0 0-2.68-.89 4 4 0 0 0-3.79 2.17v16.33h-6.09v-23Zm43.93 16.67a2 2 0 0 0-1.12-1.78 12.7 12.7 0 0 0-3.59-1.16q-8.21-1.73-8.21-7a6.32 6.32 0 0 1 2.54-5.12 10.26 10.26 0 0 1 6.65-2 11 11 0 0 1 7 2.06 6.52 6.52 0 0 1 2.63 5.36h-6.16a3 3 0 0 0-.85-2.18 3.6 3.6 0 0 0-2.66-.86 3.65 3.65 0 0 0-2.4.7 2.23 2.23 0 0 0-.86 1.79 1.91 1.91 0 0 0 1 1.65 10.11 10.11 0 0 0 3.27 1.09 26.65 26.65 0 0 1 3.88 1c3.25 1.19 4.87 3.26 4.87 6.19a6 6 0 0 1-2.7 5.1 11.66 11.66 0 0 1-7 1.95 12.16 12.16 0 0 1-5.14-1 8.59 8.59 0 0 1-3.52-2.83 6.61 6.61 0 0 1-1.28-3.89h5.84a3.18 3.18 0 0 0 1.21 2.51 4.76 4.76 0 0 0 3 .88A4.49 4.49 0 0 0 454 82a2.09 2.09 0 0 0 .93-1.72ZM472.24 58v5.66h3.93v4.51h-3.93v11.5a2.73 2.73 0 0 0 .49 1.83 2.44 2.44 0 0 0 1.87.55 10.83 10.83 0 0 0 1.81-.14v4.66a12.66 12.66 0 0 1-3.73.55q-6.46 0-6.6-6.53V68.12h-3.36v-4.51h3.36V58Zm-224.8 76.3 5.7-17.69h4l-8.26 23h-3l-8.35-23h4Zm26.56 5.35a8.59 8.59 0 0 1-.55-2.43 8.8 8.8 0 0 1-6.56 2.85 8.08 8.08 0 0 1-5.58-1.93 6.21 6.21 0 0 1-2.19-4.88 6.53 6.53 0 0 1 2.74-5.59q2.73-2 7.7-2h3.83v-1.81a4.4 4.4 0 0 0-1.24-3.29 5 5 0 0 0-3.64-1.22 5.73 5.73 0 0 0-3.53 1.06 3.15 3.15 0 0 0-1.43 2.58h-4a5.41 5.41 0 0 1 1.23-3.33 8.28 8.28 0 0 1 3.32-2.55 11.2 11.2 0 0 1 4.61-.93 9.07 9.07 0 0 1 6.23 2 7.12 7.12 0 0 1 2.34 5.48v10.6a12.9 12.9 0 0 0 .81 5v.35Zm-6.53-3a7 7 0 0 0 3.51-.95 5.79 5.79 0 0 0 2.41-2.5v-4.72h-3.09c-4.82 0-7.24 1.41-7.24 4.24a3.56 3.56 0 0 0 1.24 2.89 4.71 4.71 0 0 0 3.18 1.03Zm19.21-20.04.12 2.9a8.38 8.38 0 0 1 6.9-3.32q7.31 0 7.37 8.23v15.23h-3.94V124.4a5.24 5.24 0 0 0-1.14-3.68 4.54 4.54 0 0 0-3.48-1.19 5.66 5.66 0 0 0-3.36 1 6.87 6.87 0 0 0-2.26 2.68v16.42H283v-23Zm49.56 9.56H324v8.34h14.39v5.14h-20.8v-31h20.73v5.17H324v7.39h12.26Zm18.95 11.13a7.68 7.68 0 0 1-6.3 2.77 7.27 7.27 0 0 1-5.65-2.13q-2-2.13-2-6.24v-15.09h6.15v14.9c0 2.4 1.1 3.6 3.28 3.6s3.52-.72 4.3-2.17v-16.33h6.18v23h-5.8Zm23.32-14.92a17.42 17.42 0 0 0-2.21-.17q-3.49 0-4.58 2.36v15.08h-6.15v-23h5.81l.17 2.75a5.68 5.68 0 0 1 5.13-3.17 6.53 6.53 0 0 1 1.91.27Zm1.64 5.54a13.62 13.62 0 0 1 1.32-6.11 9.7 9.7 0 0 1 3.8-4.16 11.11 11.11 0 0 1 5.76-1.46 10.48 10.48 0 0 1 7.61 2.85 11.43 11.43 0 0 1 3.29 7.75v1.57a12 12 0 0 1-3 8.51 11.48 11.48 0 0 1-15.89 0q-3-3.19-3-8.69Zm6.16.43a8.63 8.63 0 0 0 1.23 5 4.44 4.44 0 0 0 7 0q1.24-1.71 1.25-5.49a8.54 8.54 0 0 0-1.25-5 4.09 4.09 0 0 0-3.54-1.77 4 4 0 0 0-3.49 1.75 9.63 9.63 0 0 0-1.2 5.51Zm39.88-.01a13.84 13.84 0 0 1-2.42 8.53 7.75 7.75 0 0 1-6.52 3.2 7.16 7.16 0 0 1-5.64-2.43v10.86h-6.16v-31.89h5.71l.21 2.26a7.23 7.23 0 0 1 5.84-2.68 7.82 7.82 0 0 1 6.62 3.15q2.35 3.15 2.36 8.68Zm-6.15-.47a9.07 9.07 0 0 0-1.14-5 3.7 3.7 0 0 0-3.31-1.75 4 4 0 0 0-4 2.22v9.46a4.09 4.09 0 0 0 4 2.28q4.41.03 4.41-7.21Zm22.87 11.78a6.85 6.85 0 0 1-.61-2.07 7.45 7.45 0 0 1-5.82 2.49 8.18 8.18 0 0 1-5.61-2 6.29 6.29 0 0 1-2.22-4.94 6.51 6.51 0 0 1 2.71-5.62q2.72-2 7.85-2H442v-1.32a3.78 3.78 0 0 0-.82-2.55 3.23 3.23 0 0 0-2.59-1 3.64 3.64 0 0 0-2.43.75 2.51 2.51 0 0 0-.89 2h-6.15a6.13 6.13 0 0 1 1.24-3.7 8.12 8.12 0 0 1 3.49-2.68 12.79 12.79 0 0 1 5.06-1 10.09 10.09 0 0 1 6.76 2.13 7.5 7.5 0 0 1 2.5 6v10a11 11 0 0 0 .92 5v.37Zm-5.08-4.28a5.38 5.38 0 0 0 2.51-.61 4 4 0 0 0 1.7-1.63v-4h-2.3c-3.08 0-4.72 1.07-4.92 3.19v.37a2.47 2.47 0 0 0 .81 1.89 3.14 3.14 0 0 0 2.2.79Z"/></g></svg>