<svg xmlns="http://www.w3.org/2000/svg" viewBox="0 0 602 149"><g data-name="Layer 1"><path style="fill:#164194;stroke:#fff;stroke-miterlimit:10" d="M1.44 9h211.62v131H1.44z"/><path d="m109.84 18.13 1.79 5.58 5.85-.02-4.75 3.42 1.83 5.56-4.72-3.46-4.73 3.46 1.84-5.56-4.76-3.42 5.86.02 1.79-5.58zm0 96.52 1.79 5.58 5.85-.03-4.75 3.43 1.83 5.56-4.72-3.47-4.73 3.47 1.84-5.56-4.76-3.43 5.86.03 1.79-5.58zm-24.01-90.1 1.79 5.58 5.86-.02-4.76 3.42 1.84 5.56-4.73-3.46-4.72 3.46 1.83-5.56-4.75-3.42 5.86.02 1.78-5.58zM68.16 42.26l1.78 5.58 5.86-.03-4.75 3.43 1.83 5.56-4.72-3.46-4.73 3.46 1.84-5.56-4.76-3.43 5.86.03 1.79-5.58zm-6.52 24.07 1.79 5.58 5.86-.03-4.76 3.43 1.84 5.56-4.73-3.46-4.72 3.46 1.83-5.56L54 71.88l5.85.03 1.79-5.58zm6.45 24.08 1.79 5.58 5.86-.03-4.76 3.43 1.84 5.56-4.73-3.47-4.72 3.47 1.83-5.56-4.75-3.43 5.86.03 1.78-5.58zm17.74 17.7 1.79 5.58 5.86-.02-4.76 3.42 1.84 5.56-4.73-3.46-4.72 3.46 1.83-5.56-4.75-3.42 5.86.02 1.78-5.58zm48.04-83.56-1.79 5.58-5.86-.02 4.76 3.42-1.84 5.56 4.73-3.46 4.72 3.46-1.83-5.56 4.75-3.42-5.86.02-1.78-5.58zm17.67 17.71-1.79 5.58-5.85-.03 4.75 3.43-1.83 5.56 4.72-3.46 4.73 3.46-1.84-5.56 4.76-3.43-5.86.03-1.79-5.58zm6.52 24.07-1.79 5.58-5.86-.03 4.76 3.43-1.84 5.56 4.73-3.46 4.72 3.46-1.83-5.56 4.75-3.43-5.86.03-1.78-5.58zm-6.45 24.08-1.79 5.58-5.86-.03 4.76 3.43-1.84 5.56 4.73-3.47 4.72 3.47-1.83-5.56 4.75-3.43-5.86.03-1.78-5.58zm-17.74 17.7-1.79 5.58-5.86-.02 4.76 3.42-1.84 5.56 4.73-3.46 4.72 3.46-1.83-5.56 4.75-3.42-5.86.02-1.78-5.58z" style="fill:#ffed00"/><path d="m247 19.23-3.79 3.94v10.48h-4.08v-31h4.08V18L257 2.65h4.94l-12.2 13.69 13.15 17.31H258Zm16.37 2.69a13.55 13.55 0 0 1 1.33-6.09 9.87 9.87 0 0 1 3.7-4.18 10.08 10.08 0 0 1 5.42-1.47 9.72 9.72 0 0 1 7.61 3.26 12.52 12.52 0 0 1 2.91 8.67v.27a13.7 13.7 0 0 1-1.29 6 9.76 9.76 0 0 1-3.69 4.16 10.21 10.21 0 0 1-5.5 1.49 9.67 9.67 0 0 1-7.59-3.26 12.44 12.44 0 0 1-2.9-8.62Zm4 .46a9.9 9.9 0 0 0 1.77 6.16 6 6 0 0 0 9.53 0 10.73 10.73 0 0 0 1.77-6.58 9.85 9.85 0 0 0-1.8-6.15 5.74 5.74 0 0 0-4.78-2.35 5.66 5.66 0 0 0-4.71 2.32q-1.82 2.28-1.82 6.6Zm25.15-11.77.13 2.9a8.39 8.39 0 0 1 6.9-3.33q7.29 0 7.36 8.24v15.23H303V18.4a5.24 5.24 0 0 0-1.14-3.68 4.57 4.57 0 0 0-3.48-1.19 5.71 5.71 0 0 0-3.36 1 7 7 0 0 0-2.26 2.68v16.44h-3.96v-23Zm21.33 23.04v-20h-3.64v-3.04h3.64V8.25a7.85 7.85 0 0 1 2-5.73 7.46 7.46 0 0 1 5.6-2 10.38 10.38 0 0 1 2.7.36L323.92 4a11.18 11.18 0 0 0-2.13-.19 3.82 3.82 0 0 0-3 1.12 4.54 4.54 0 0 0-1 3.22v2.43h4.91v3.05h-4.91v20Zm21.46.42a10.07 10.07 0 0 1-7.63-3.07 11.48 11.48 0 0 1-2.93-8.23V22a13.75 13.75 0 0 1 1.31-6.12 10.17 10.17 0 0 1 3.66-4.21 9.18 9.18 0 0 1 5.1-1.53 8.64 8.64 0 0 1 7 3c1.66 2 2.49 4.8 2.49 8.48v1.64h-15.6a8.15 8.15 0 0 0 2 5.5 6.24 6.24 0 0 0 4.84 2.1 6.91 6.91 0 0 0 3.53-.85 9.07 9.07 0 0 0 2.54-2.26l2.4 1.87a9.66 9.66 0 0 1-8.71 4.45Zm-.49-20.65a5.26 5.26 0 0 0-4 1.74 8.48 8.48 0 0 0-2 4.86h11.54v-.3a7.45 7.45 0 0 0-1.62-4.65 4.93 4.93 0 0 0-3.92-1.65Zm24.95.72a13.11 13.11 0 0 0-1.94-.14 5.19 5.19 0 0 0-5.26 3.3v16.35h-3.94v-23h3.83l.07 2.66a6.13 6.13 0 0 1 5.47-3.13 4 4 0 0 1 1.75.3Zm12.4 19.93a10.07 10.07 0 0 1-7.62-3.07 11.44 11.44 0 0 1-2.94-8.23V22a13.89 13.89 0 0 1 1.31-6.12 10.31 10.31 0 0 1 3.66-4.21 9.18 9.18 0 0 1 5.1-1.53 8.64 8.64 0 0 1 7 3c1.66 2 2.49 4.8 2.49 8.48v1.64h-15.62a8.2 8.2 0 0 0 2 5.5 6.26 6.26 0 0 0 4.85 2.1 6.94 6.94 0 0 0 3.53-.85 9 9 0 0 0 2.53-2.26l2.41 1.87a9.67 9.67 0 0 1-8.7 4.45Zm-.49-20.65a5.24 5.24 0 0 0-4 1.74 8.41 8.41 0 0 0-2 4.86h11.54v-.3a7.51 7.51 0 0 0-1.62-4.65 4.94 4.94 0 0 0-3.92-1.65Zm17.55-2.81.12 2.9a8.39 8.39 0 0 1 6.9-3.33q7.31 0 7.37 8.24v15.23h-3.94V18.4a5.34 5.34 0 0 0-1.14-3.68 4.6 4.6 0 0 0-3.48-1.19 5.72 5.72 0 0 0-3.37 1 6.93 6.93 0 0 0-2.25 2.68v16.44h-3.94v-23Zm29.1 20.25a5.69 5.69 0 0 0 3.67-1.28 4.53 4.53 0 0 0 1.75-3.19h3.72a7.08 7.08 0 0 1-1.36 3.76 9 9 0 0 1-3.34 2.85 9.68 9.68 0 0 1-4.44 1.06 9.49 9.49 0 0 1-7.48-3.14c-1.86-2.09-2.78-5-2.78-8.59v-.66a13.89 13.89 0 0 1 1.23-6 9.41 9.41 0 0 1 3.55-4.07 10.11 10.11 0 0 1 5.46-1.45 9.24 9.24 0 0 1 6.44 2.33 8.25 8.25 0 0 1 2.73 6h-3.72a5.47 5.47 0 0 0-1.69-3.67 5.27 5.27 0 0 0-3.76-1.44 5.5 5.5 0 0 0-4.65 2.16 10.14 10.14 0 0 0-1.66 6.3v.75a9.92 9.92 0 0 0 1.64 6.13 5.54 5.54 0 0 0 4.69 2.15ZM431.49 4.5a2.35 2.35 0 0 1 .58-1.62 2.62 2.62 0 0 1 3.48 0 2.32 2.32 0 0 1 .6 1.62 2.25 2.25 0 0 1-.6 1.6 2.69 2.69 0 0 1-3.48 0 2.28 2.28 0 0 1-.58-1.6Zm4.26 29.15h-3.94v-23h3.94Zm9.75-23.04v25.7q0 6.63-6 6.64a7.47 7.47 0 0 1-2.41-.38v-3.13a7.85 7.85 0 0 0 1.79.17 2.66 2.66 0 0 0 2-.72 3.52 3.52 0 0 0 .7-2.48v-25.8Zm-4.34-6.11a2.38 2.38 0 0 1 .58-1.61 2.58 2.58 0 0 1 3.46 0 2.32 2.32 0 0 1 .6 1.62 2.25 2.25 0 0 1-.6 1.6 2.26 2.26 0 0 1-1.74.64 2.2 2.2 0 0 1-1.72-.64 2.28 2.28 0 0 1-.58-1.61Zm24.03 29.15a8.25 8.25 0 0 1-.55-2.43 8.8 8.8 0 0 1-6.56 2.85 8.12 8.12 0 0 1-5.59-1.93 6.23 6.23 0 0 1-2.18-4.88 6.51 6.51 0 0 1 2.74-5.59q2.73-2 7.69-2h3.83v-1.8a4.44 4.44 0 0 0-1.23-3.29 4.94 4.94 0 0 0-3.64-1.22 5.77 5.77 0 0 0-3.54 1.06 3.14 3.14 0 0 0-1.42 2.58h-4a5.46 5.46 0 0 1 1.26-3.33 8.42 8.42 0 0 1 3.32-2.55 11.27 11.27 0 0 1 4.61-.94 9.08 9.08 0 0 1 6.24 2 7.15 7.15 0 0 1 2.34 5.48v10.6a12.9 12.9 0 0 0 .81 5v.35Zm-6.53-3a7 7 0 0 0 3.51-.95 5.71 5.71 0 0 0 2.4-2.5v-4.73h-3.08q-7.25 0-7.24 4.24a3.58 3.58 0 0 0 1.23 2.89 4.74 4.74 0 0 0 3.18 1.04ZM237.47 74.92a13.55 13.55 0 0 1 1.33-6.09 9.87 9.87 0 0 1 3.7-4.18 10.08 10.08 0 0 1 5.42-1.47 9.72 9.72 0 0 1 7.61 3.26 12.52 12.52 0 0 1 2.91 8.67v.27a13.7 13.7 0 0 1-1.29 6 9.76 9.76 0 0 1-3.69 4.16 10.21 10.21 0 0 1-5.5 1.49 9.67 9.67 0 0 1-7.59-3.26 12.44 12.44 0 0 1-2.9-8.62Zm4 .46a9.9 9.9 0 0 0 1.77 6.16 6 6 0 0 0 9.53 0 10.73 10.73 0 0 0 1.77-6.58 9.85 9.85 0 0 0-1.8-6.15 5.74 5.74 0 0 0-4.78-2.35 5.66 5.66 0 0 0-4.71 2.32q-1.82 2.29-1.82 6.6Zm52.84-.04q0 5.53-2.37 8.63a7.8 7.8 0 0 1-6.6 3.1 7.21 7.21 0 0 1-6-2.87l-.27 2.45h-5.54V54h6.15v11.68a7 7 0 0 1 5.6-2.5 7.9 7.9 0 0 1 6.61 3.1c1.6 2.07 2.4 5 2.4 8.72Zm-6.16-.47a9.19 9.19 0 0 0-1.1-5.11 3.73 3.73 0 0 0-3.3-1.61 4.06 4.06 0 0 0-4.05 2.41v9.12a4.12 4.12 0 0 0 4.09 2.43 3.8 3.8 0 0 0 3.92-3 15.22 15.22 0 0 0 .44-4.24Zm23.53 9.43a7.7 7.7 0 0 1-6.3 2.77 7.27 7.27 0 0 1-5.65-2.13q-2-2.13-2-6.24V63.61h6.15v14.9q0 3.6 3.28 3.6t4.3-2.17V63.61h6.17v23h-5.79Zm9.47-9.3a13.89 13.89 0 0 1 2.42-8.58 7.84 7.84 0 0 1 6.61-3.2 7.07 7.07 0 0 1 5.56 2.52V54h6.17v32.7h-5.56l-.29-2.45a7.27 7.27 0 0 1-5.92 2.87 7.84 7.84 0 0 1-6.53-3.2q-2.46-3.26-2.46-8.92Zm6.16.44a9.18 9.18 0 0 0 1.12 5 3.7 3.7 0 0 0 3.28 1.73 4.12 4.12 0 0 0 4-2.42v-9.19a4.07 4.07 0 0 0-4-2.41c-2.92 0-4.4 2.41-4.4 7.25Zm32.92 8.86a7.7 7.7 0 0 1-6.3 2.77 7.26 7.26 0 0 1-5.65-2.13q-1.95-2.13-2-6.24V63.61h6.16v14.9q0 3.6 3.28 3.6c2.08 0 3.52-.72 4.3-2.17V63.61h6.17v23h-5.79Zm20.13-2.19a4 4 0 0 0 2.77-.94 3.27 3.27 0 0 0 1.11-2.49H390a7.93 7.93 0 0 1-1.27 4.32 8.45 8.45 0 0 1-3.44 3 10.82 10.82 0 0 1-4.82 1.07 10 10 0 0 1-7.79-3.14q-2.85-3.14-2.85-8.67v-.41a12.25 12.25 0 0 1 2.83-8.49 9.85 9.85 0 0 1 7.77-3.18 9.69 9.69 0 0 1 6.93 2.46 8.76 8.76 0 0 1 2.64 6.55h-5.77a4.23 4.23 0 0 0-1.11-2.92 3.69 3.69 0 0 0-2.81-1.12 3.73 3.73 0 0 0-3.25 1.56c-.73 1.05-1.09 2.74-1.09 5.09v.64c0 2.37.36 4.08 1.08 5.11a3.76 3.76 0 0 0 3.31 1.56ZM381 54h6.71l-5.9 6.6h-5Zm18.23 9.61.19 2.66a8 8 0 0 1 6.58-3.09 6.67 6.67 0 0 1 5.45 2.16q1.78 2.14 1.83 6.42v14.89h-6.15V71.88a4 4 0 0 0-.85-2.85 3.83 3.83 0 0 0-2.84-.88 4.23 4.23 0 0 0-3.89 2.21v16.29h-6.15v-23Zm17.39 11.31a13.69 13.69 0 0 1 1.32-6.12 9.73 9.73 0 0 1 3.8-4.15 11.12 11.12 0 0 1 5.76-1.47 10.49 10.49 0 0 1 7.61 2.82 11.43 11.43 0 0 1 3.29 7.75v1.57a12.06 12.06 0 0 1-2.95 8.51 11.49 11.49 0 0 1-15.9 0q-3-3.19-3-8.69Zm6.16.43a8.61 8.61 0 0 0 1.23 5 4.44 4.44 0 0 0 7 0q1.24-1.71 1.25-5.49a8.54 8.54 0 0 0-1.25-5 4.09 4.09 0 0 0-3.54-1.77A4 4 0 0 0 424 69.9a9.63 9.63 0 0 0-1.22 5.45Zm31.46 4.93a2 2 0 0 0-1.12-1.78 12.72 12.72 0 0 0-3.58-1.16q-8.22-1.73-8.22-7a6.35 6.35 0 0 1 2.54-5.12 10.29 10.29 0 0 1 6.66-2.06 11 11 0 0 1 7 2.07 6.52 6.52 0 0 1 2.63 5.36H454a3 3 0 0 0-.85-2.18 3.63 3.63 0 0 0-2.66-.86 3.68 3.68 0 0 0-2.41.7 2.22 2.22 0 0 0-.85 1.79 1.89 1.89 0 0 0 1 1.65 9.94 9.94 0 0 0 3.27 1.09 26.48 26.48 0 0 1 3.87 1c3.25 1.19 4.88 3.26 4.88 6.19a6 6 0 0 1-2.71 5.1 11.65 11.65 0 0 1-7 1.95 12.13 12.13 0 0 1-5.14-1 8.69 8.69 0 0 1-3.53-2.83 6.6 6.6 0 0 1-1.27-3.89h5.83a3.21 3.21 0 0 0 1.21 2.51 4.79 4.79 0 0 0 3 .88 4.53 4.53 0 0 0 2.67-.67 2.11 2.11 0 0 0 .93-1.74ZM471.55 58v5.66h3.94v4.51h-3.94v11.5a2.73 2.73 0 0 0 .49 1.83 2.46 2.46 0 0 0 1.87.55 10.74 10.74 0 0 0 1.81-.14v4.66a12.55 12.55 0 0 1-3.72.55q-6.48 0-6.6-6.53V68.12H462v-4.51h3.37V58Zm6.75-.35a3 3 0 0 1 .93-2.28 4 4 0 0 1 5 0 3.25 3.25 0 0 1 0 4.58 4 4 0 0 1-5 0 3 3 0 0 1-.93-2.3Zm6.54 29h-6.18v-23h6.18ZM257 126.17h-12.32v8.34h14.39v5.14H238.3v-31H259v5.17h-14.32v7.39H257Zm18.9 11.13a7.7 7.7 0 0 1-6.3 2.77 7.27 7.27 0 0 1-5.65-2.13q-1.95-2.13-2-6.24v-15.09h6.15v14.9q0 3.6 3.28 3.6c2.08 0 3.52-.72 4.3-2.17v-16.33h6.17v23h-5.79Zm23.32-14.92a17.44 17.44 0 0 0-2.22-.17c-2.32 0-3.85.79-4.57 2.36v15.08h-6.16v-23h5.81l.18 2.75a5.69 5.69 0 0 1 5.13-3.18 6.53 6.53 0 0 1 1.91.28Zm1.64 5.54a13.69 13.69 0 0 1 1.32-6.12 9.73 9.73 0 0 1 3.8-4.15 11.07 11.07 0 0 1 5.76-1.47 10.5 10.5 0 0 1 7.61 2.86 11.43 11.43 0 0 1 3.29 7.75v1.57a12 12 0 0 1-3 8.51 11.48 11.48 0 0 1-15.89 0q-3-3.19-3-8.69Zm6.15.43a8.53 8.53 0 0 0 1.24 5 4.43 4.43 0 0 0 7 0q1.26-1.71 1.26-5.49a8.46 8.46 0 0 0-1.26-5 4.07 4.07 0 0 0-3.53-1.77 4 4 0 0 0-3.49 1.75 9.54 9.54 0 0 0-1.23 5.51Zm39.89-.01a13.84 13.84 0 0 1-2.42 8.53 7.76 7.76 0 0 1-6.52 3.2 7.2 7.2 0 0 1-5.65-2.43v10.86h-6.15v-31.89h5.71l.21 2.26a7.22 7.22 0 0 1 5.83-2.69 7.8 7.8 0 0 1 6.62 3.16q2.37 3.15 2.37 8.68Zm-6.16-.47a9.08 9.08 0 0 0-1.13-5 3.71 3.71 0 0 0-3.31-1.75 4 4 0 0 0-4 2.22v9.46a4.11 4.11 0 0 0 4 2.28c2.98.03 4.44-2.38 4.44-7.21Zm20.19 12.2a11.27 11.27 0 0 1-8.25-3.11 11 11 0 0 1-3.18-8.28v-.59a14 14 0 0 1 1.34-6.21 9.87 9.87 0 0 1 3.8-4.22 10.73 10.73 0 0 1 5.61-1.48 9.56 9.56 0 0 1 7.44 3q2.71 3 2.71 8.45v2.51h-14.66a5.68 5.68 0 0 0 1.79 3.62 5.45 5.45 0 0 0 3.8 1.36 6.63 6.63 0 0 0 5.56-2.58l3 3.39a9.18 9.18 0 0 1-3.74 3.05 12.18 12.18 0 0 1-5.22 1.09Zm-.7-18.92a3.84 3.84 0 0 0-3 1.24 6.38 6.38 0 0 0-1.46 3.55h8.56v-.5a4.57 4.57 0 0 0-1.11-3.17 4 4 0 0 0-2.99-1.12Z" style="fill:#fff"/></g></svg>