<svg xmlns="http://www.w3.org/2000/svg" viewBox="0 0 602 149"><g data-name="Layer 1"><path style="fill:#164194;stroke:#fff;stroke-miterlimit:10" d="M1.44 9h211.62v131H1.44z"/><path d="m109.84 18.13 1.79 5.58 5.85-.02-4.75 3.42 1.83 5.56-4.72-3.46-4.73 3.46 1.84-5.56-4.76-3.42 5.86.02 1.79-5.58zm0 96.52 1.79 5.58 5.85-.03-4.75 3.43 1.83 5.56-4.72-3.47-4.73 3.47 1.84-5.56-4.76-3.43 5.86.03 1.79-5.58zm-24.01-90.1 1.79 5.58 5.86-.02-4.76 3.42 1.84 5.56-4.73-3.46-4.72 3.46 1.83-5.56-4.75-3.42 5.86.02 1.78-5.58zM68.16 42.26l1.78 5.58 5.86-.03-4.75 3.43 1.83 5.56-4.72-3.46-4.73 3.46 1.84-5.56-4.76-3.43 5.86.03 1.79-5.58zm-6.52 24.07 1.79 5.58 5.86-.03-4.76 3.43 1.84 5.56-4.73-3.46-4.72 3.46 1.83-5.56L54 71.88l5.85.03 1.79-5.58zm6.45 24.08 1.79 5.58 5.86-.03-4.76 3.43 1.84 5.56-4.73-3.47-4.72 3.47 1.83-5.56-4.75-3.43 5.86.03 1.78-5.58zm17.74 17.7 1.79 5.58 5.86-.02-4.76 3.42 1.84 5.56-4.73-3.46-4.72 3.46 1.83-5.56-4.75-3.42 5.86.02 1.78-5.58zm48.04-83.56-1.79 5.58-5.86-.02 4.76 3.42-1.84 5.56 4.73-3.46 4.72 3.46-1.83-5.56 4.75-3.42-5.86.02-1.78-5.58zm17.67 17.71-1.79 5.58-5.85-.03 4.75 3.43-1.83 5.56 4.72-3.46 4.73 3.46-1.84-5.56 4.76-3.43-5.86.03-1.79-5.58zm6.52 24.07-1.79 5.58-5.86-.03 4.76 3.43-1.84 5.56 4.73-3.46 4.72 3.46-1.83-5.56 4.75-3.43-5.86.03-1.78-5.58zm-6.45 24.08-1.79 5.58-5.86-.03 4.76 3.43-1.84 5.56 4.73-3.47 4.72 3.47-1.83-5.56 4.75-3.43-5.86.03-1.78-5.58zm-17.74 17.7-1.79 5.58-5.86-.02 4.76 3.42-1.84 5.56 4.73-3.46 4.72 3.46-1.83-5.56 4.75-3.42-5.86.02-1.78-5.58z" style="fill:#ffed00"/><path d="M248.82 19.23 245 23.17v10.48h-4v-31h4V18l13.81-15.35h4.94l-12.2 13.69 13.16 17.31h-4.9Zm16.37 2.69a13.55 13.55 0 0 1 1.33-6.09 9.87 9.87 0 0 1 3.7-4.18 10.07 10.07 0 0 1 5.42-1.46 9.71 9.71 0 0 1 7.61 3.25 12.52 12.52 0 0 1 2.91 8.67v.27a13.7 13.7 0 0 1-1.29 6 9.81 9.81 0 0 1-3.68 4.16 10.27 10.27 0 0 1-5.51 1.49 9.67 9.67 0 0 1-7.59-3.26 12.49 12.49 0 0 1-2.9-8.62Zm4 .46a9.9 9.9 0 0 0 1.77 6.16 5.73 5.73 0 0 0 4.76 2.32 5.66 5.66 0 0 0 4.77-2.36 10.73 10.73 0 0 0 1.77-6.58 9.85 9.85 0 0 0-1.8-6.15 5.74 5.74 0 0 0-4.78-2.35 5.67 5.67 0 0 0-4.71 2.32q-1.82 2.32-1.82 6.64Zm25.15-11.77.13 2.9a8.38 8.38 0 0 1 6.9-3.32q7.31 0 7.36 8.23v15.23h-3.94V18.4a5.29 5.29 0 0 0-1.13-3.68 4.57 4.57 0 0 0-3.49-1.19 5.71 5.71 0 0 0-3.36 1 7 7 0 0 0-2.26 2.68v16.44h-3.93v-23Zm21.33 23.04v-20H312v-3h3.64v-2.4a7.85 7.85 0 0 1 2-5.73 7.46 7.46 0 0 1 5.6-2 10.33 10.33 0 0 1 2.7.36l-.2 3.12a11.18 11.18 0 0 0-2.13-.19 3.82 3.82 0 0 0-3 1.12 4.54 4.54 0 0 0-1 3.22v2.43h4.91v3h-4.91v20Zm21.46.42a10 10 0 0 1-7.62-3.07 11.44 11.44 0 0 1-2.94-8.23V22a13.75 13.75 0 0 1 1.31-6.12 10.17 10.17 0 0 1 3.66-4.21 9.17 9.17 0 0 1 5.1-1.52 8.63 8.63 0 0 1 7 3c1.66 2 2.49 4.8 2.49 8.48v1.64h-15.6a8.15 8.15 0 0 0 2 5.5 6.24 6.24 0 0 0 4.84 2.1 6.91 6.91 0 0 0 3.53-.85 8.92 8.92 0 0 0 2.54-2.26l2.4 1.87a9.66 9.66 0 0 1-8.71 4.44Zm-.49-20.65a5.23 5.23 0 0 0-4 1.74 8.41 8.41 0 0 0-2 4.86h11.54v-.3a7.45 7.45 0 0 0-1.62-4.65 4.93 4.93 0 0 0-3.92-1.65Zm24.95.72a13 13 0 0 0-1.94-.14 5.19 5.19 0 0 0-5.26 3.3v16.35h-3.94v-23h3.84l.06 2.66a6.12 6.12 0 0 1 5.49-3.08 4 4 0 0 1 1.75.29ZM374 34.07a10.07 10.07 0 0 1-7.63-3.07 11.44 11.44 0 0 1-2.94-8.23V22a13.89 13.89 0 0 1 1.31-6.12 10.26 10.26 0 0 1 3.67-4.21 9.12 9.12 0 0 1 5.09-1.52 8.64 8.64 0 0 1 7 3c1.66 2 2.49 4.8 2.49 8.48v1.64h-15.62a8.2 8.2 0 0 0 2 5.5 6.26 6.26 0 0 0 4.85 2.1 6.91 6.91 0 0 0 3.53-.85 8.75 8.75 0 0 0 2.53-2.26l2.41 1.87a9.67 9.67 0 0 1-8.69 4.44Zm-.49-20.65a5.26 5.26 0 0 0-4 1.74 8.41 8.41 0 0 0-2 4.86H379v-.3a7.45 7.45 0 0 0-1.62-4.65 4.94 4.94 0 0 0-3.88-1.65Zm17.54-2.81.12 2.9a8.38 8.38 0 0 1 6.9-3.32q7.31 0 7.37 8.23v15.23h-3.94V18.4a5.34 5.34 0 0 0-1.14-3.68 4.56 4.56 0 0 0-3.48-1.19 5.66 5.66 0 0 0-3.36 1 6.87 6.87 0 0 0-2.26 2.68v16.44h-3.94v-23Zm23.09 19.82h13.48v3.22h-18.29v-2.9L422 13.87h-12.48v-3.26H427v2.79Zm31.51 3.22a8.18 8.18 0 0 1-.56-2.43 8.78 8.78 0 0 1-6.56 2.85 8.08 8.08 0 0 1-5.53-1.93 6.21 6.21 0 0 1-2.19-4.88 6.53 6.53 0 0 1 2.74-5.59q2.73-2 7.7-2H445v-1.8a4.4 4.4 0 0 0-1.24-3.29 5 5 0 0 0-3.64-1.22 5.73 5.73 0 0 0-3.53 1.06 3.15 3.15 0 0 0-1.4 2.58h-4a5.41 5.41 0 0 1 1.23-3.33 8.28 8.28 0 0 1 3.32-2.55 11.24 11.24 0 0 1 4.61-.93 9.07 9.07 0 0 1 6.23 2 7.16 7.16 0 0 1 2.42 5.47v10.6a12.9 12.9 0 0 0 .81 5v.35Zm-6.54-3a7 7 0 0 0 3.51-.95 5.79 5.79 0 0 0 2.41-2.5v-4.73h-3.09c-4.82 0-7.24 1.41-7.24 4.24a3.56 3.56 0 0 0 1.24 2.89 4.71 4.71 0 0 0 3.17 1.04ZM239.37 74.94a13.52 13.52 0 0 1 2.51-8.53 8.56 8.56 0 0 1 13-.46V54h3.94v32.7h-3.62l-.2-2.52a8 8 0 0 1-6.58 2.89 7.87 7.87 0 0 1-6.53-3.28 13.65 13.65 0 0 1-2.52-8.56Zm3.94.44a10.17 10.17 0 0 0 1.62 6.13 5.23 5.23 0 0 0 4.47 2.22 5.74 5.74 0 0 0 5.47-3.36V69.78a5.79 5.79 0 0 0-5.43-3.25 5.25 5.25 0 0 0-4.51 2.23q-1.62 2.24-1.62 6.62Zm41.49 5.84 4.43-17.61h3.94l-6.71 23h-3.19l-5.6-17.46-5.45 17.46H269l-6.69-23h3.92l4.53 17.25 5.37-17.25h3.17Zm25.45 5.43a8.25 8.25 0 0 1-.55-2.43 8.8 8.8 0 0 1-6.56 2.85 8.12 8.12 0 0 1-5.59-1.93 6.23 6.23 0 0 1-2.18-4.88 6.51 6.51 0 0 1 2.74-5.59q2.73-2 7.69-2h3.83v-1.8a4.44 4.44 0 0 0-1.23-3.29 5 5 0 0 0-3.64-1.22 5.74 5.74 0 0 0-3.54 1.06A3.14 3.14 0 0 0 299.8 70h-4a5.46 5.46 0 0 1 1.22-3.33 8.42 8.42 0 0 1 3.32-2.55 11.27 11.27 0 0 1 4.61-.93 9.08 9.08 0 0 1 6.24 2 7.19 7.19 0 0 1 2.34 5.48v10.6a12.9 12.9 0 0 0 .81 5v.35Zm-6.53-3a7 7 0 0 0 3.51-1 5.77 5.77 0 0 0 2.4-2.5v-4.68h-3.08q-7.24 0-7.24 4.24a3.58 3.58 0 0 0 1.23 2.89 4.74 4.74 0 0 0 3.18 1.04Zm26.6-16.51a12.91 12.91 0 0 0-1.94-.14 5.18 5.18 0 0 0-5.25 3.3v16.35h-3.94v-23H323l.06 2.66a6.13 6.13 0 0 1 5.5-3.08 4 4 0 0 1 1.74.29Zm13.75-9.49a3 3 0 0 1 .93-2.28 4 4 0 0 1 5 0 3 3 0 0 1 .93 2.28 3 3 0 0 1-1 2.3 4 4 0 0 1-5 0 3 3 0 0 1-.86-2.3Zm6.54 29h-6.17v-23h6.17Zm10.96 0h-6.17V54h6.17Zm16.64-10.8h-12v-5h12ZM402.14 74h-12.26v12.65h-6.39v-31h20.19v5.17h-13.8v8h12.26Zm17.48 10.3a7.7 7.7 0 0 1-6.3 2.77 7.27 7.27 0 0 1-5.65-2.13c-1.3-1.42-2-3.5-2-6.24V63.61h6.15v14.9q0 3.6 3.28 3.6c2.08 0 3.52-.72 4.3-2.17V63.61h6.17v23h-5.79ZM437.39 58v5.66h3.94v4.51h-3.94v11.5a2.78 2.78 0 0 0 .49 1.83 2.46 2.46 0 0 0 1.87.55 10.86 10.86 0 0 0 1.82-.14v4.66a12.66 12.66 0 0 1-3.73.55c-4.32 0-6.51-2.18-6.6-6.53V68.12h-3.36v-4.51h3.36V58Zm20.66 26.3a7.7 7.7 0 0 1-6.3 2.77 7.27 7.27 0 0 1-5.65-2.13q-2-2.13-2-6.24V63.61h6.15v14.9q0 3.6 3.28 3.6c2.08 0 3.52-.72 4.3-2.17V63.61H464v23h-5.79Zm23.32-14.92a17.44 17.44 0 0 0-2.22-.17c-2.32 0-3.85.79-4.57 2.36v15.08h-6.16v-23h5.82l.17 2.75a5.68 5.68 0 0 1 5.13-3.17 6.53 6.53 0 0 1 1.91.27ZM247.08 111v5.66H251v4.51h-3.94v11.5a2.73 2.73 0 0 0 .49 1.83 2.44 2.44 0 0 0 1.87.55 10.74 10.74 0 0 0 1.81-.14v4.66a12.65 12.65 0 0 1-3.72.55q-6.48 0-6.6-6.53v-12.47h-3.37v-4.51h3.37V111Zm20.56 28.65a6.84 6.84 0 0 1-.62-2.07 7.45 7.45 0 0 1-5.81 2.49 8.15 8.15 0 0 1-5.61-2 6.27 6.27 0 0 1-2.23-4.94 6.52 6.52 0 0 1 2.72-5.62q2.71-2 7.84-2h2.83v-1.32a3.78 3.78 0 0 0-.82-2.55 3.21 3.21 0 0 0-2.58-1 3.65 3.65 0 0 0-2.44.75 2.5 2.5 0 0 0-.88 2h-6.16a6.13 6.13 0 0 1 1.24-3.7 8.12 8.12 0 0 1 3.49-2.68 12.8 12.8 0 0 1 5.07-1 10.06 10.06 0 0 1 6.75 2.13 7.5 7.5 0 0 1 2.51 6v10a11 11 0 0 0 .91 5v.37Zm-5.09-4.28a5.35 5.35 0 0 0 2.51-.61 4 4 0 0 0 1.7-1.63v-4h-2.3c-3.08 0-4.71 1.07-4.91 3.19v.37a2.47 2.47 0 0 0 .81 1.89 3.14 3.14 0 0 0 2.19.79Zm21.17 4.28h-6.18V107h6.18Zm16.63-10.8h-12v-5h12Zm23.94-2.64H312v8.3h14.39v5.14h-20.75v-31h20.74v5.17H312v7.39h12.26Zm24.61 5.07 3-14.67h5.94l-5.88 23h-5.15l-4.36-14.5-4.37 14.5H333l-5.87-23H333l3 14.65 4.21-14.65h4.45Zm24.45-8.9a17.44 17.44 0 0 0-2.22-.17c-2.33 0-3.85.79-4.58 2.36v15.08h-6.15v-23h5.81l.17 2.75a5.7 5.7 0 0 1 5.13-3.17 6.6 6.6 0 0 1 1.92.27Zm1.65 5.54a13.62 13.62 0 0 1 1.32-6.11 9.7 9.7 0 0 1 3.8-4.16 11.06 11.06 0 0 1 5.76-1.46 10.5 10.5 0 0 1 7.61 2.85 11.48 11.48 0 0 1 3.29 7.75v1.57a12.06 12.06 0 0 1-3 8.51 11.48 11.48 0 0 1-15.89 0q-3-3.19-3-8.69Zm6.15.43a8.55 8.55 0 0 0 1.24 5 4.43 4.43 0 0 0 7 0q1.26-1.71 1.26-5.49a8.46 8.46 0 0 0-1.26-5 4.08 4.08 0 0 0-3.53-1.77 4 4 0 0 0-3.49 1.75 9.54 9.54 0 0 0-1.23 5.51Zm39.85-.01a13.84 13.84 0 0 1-2.42 8.53 7.77 7.77 0 0 1-6.53 3.2 7.19 7.19 0 0 1-5.64-2.43v10.86h-6.15v-31.89H406l.21 2.26a7.22 7.22 0 0 1 5.83-2.68 7.79 7.79 0 0 1 6.62 3.15Q421 122.49 421 128Zm-6.16-.45a9.08 9.08 0 0 0-1.14-5 3.7 3.7 0 0 0-3.31-1.74 4 4 0 0 0-4 2.21v9.43a4.1 4.1 0 0 0 4 2.28c3.01.04 4.48-2.36 4.48-7.18Zm22.91 11.76a7.13 7.13 0 0 1-.62-2.07 7.45 7.45 0 0 1-5.81 2.49 8.15 8.15 0 0 1-5.61-2 6.29 6.29 0 0 1-2.22-4.94 6.51 6.51 0 0 1 2.71-5.62q2.71-2 7.84-2h2.84v-1.32a3.83 3.83 0 0 0-.82-2.55 3.23 3.23 0 0 0-2.59-1 3.65 3.65 0 0 0-2.44.75 2.5 2.5 0 0 0-.88 2H424a6.18 6.18 0 0 1 1.23-3.7 8.18 8.18 0 0 1 3.49-2.68 12.87 12.87 0 0 1 5.07-1 10.09 10.09 0 0 1 6.76 2.13 7.5 7.5 0 0 1 2.5 6v10a10.88 10.88 0 0 0 .92 5v.37Zm-5.09-4.28a5.32 5.32 0 0 0 2.51-.61 4 4 0 0 0 1.71-1.63v-4h-2.3c-3.08 0-4.72 1.07-4.92 3.19v.37a2.47 2.47 0 0 0 .81 1.89 3.11 3.11 0 0 0 2.19.79Z" style="fill:#fff"/></g></svg>