<svg xmlns="http://www.w3.org/2000/svg" viewBox="0 0 236 152"><style>.st0{fill:#524e4c}</style><g id="Calque_1"><path class="st0" d="M99.4 100.1v5.9c3.9.8 8 1.5 12.1 2 3.7.5 7.3.8 11 1v-6.1c-4-.2-8-.5-12-1-3.8-.5-7.5-1.1-11.1-1.8zM41.1 66.3c-1.9-4.3-2.4-8.7-1.4-13.1 1.4-6.3 5.9-12 12.6-16.6v-1.4c-7.4 5.3-12.4 11.8-14 19.1-1.3 6-.2 12 2.8 17.8v-5.8zm55-43.2v-2.5c-16.2 1.7-30.5 6.1-40.8 12.5v1.5c10.2-6 24.5-10.1 40.8-11.5zm47.9.2v3.2c13.9 3.2 26 8 35.4 13.9v-3.8c-9.7-5.7-21.8-10.3-35.4-13.3zm-3.5-.7c-3.3-.6-6.6-1.2-10-1.6-10.8-1.3-21.3-1.5-31.2-.7v2.6c9.2-.6 18.9-.3 28.9.9 4.2.5 8.3 1.2 12.3 2v-3.2zm-97 48.1v5.2c9.1 12.9 28.2 23.9 52.6 29.5v-5.8c-25-5.6-44.4-16.4-52.6-28.9zm139.4-33v4.8c5.3 4 9.5 8.3 12.1 12.8h5.5c-3.6-6.3-9.7-12.3-17.6-17.6zM63.2 36.1v1.6c8.7-5.4 21.4-9 36.1-10v-2.3c-14.5 1.2-27.1 5-36.1 10.7zm-6 32.3v4.8c8.7 9.4 24.2 17.2 43.3 21.1v-5.2c-19.6-3.8-35.3-11.5-43.3-20.7zm-7.1-15.9c-1.4 6.2.5 12.3 4.8 18v-5.1c-3-4.5-4.1-9.2-3-13.9 1-4.5 4.1-8.5 8.7-12v-1.6C55.1 42 51.3 47 50.1 52.5zm118.3-9.6v-3.7c-7.9-4.7-17.9-8.6-29.2-11.2v3c11.6 2.8 21.7 7 29.2 11.9zm-64.6 46.8V95c2.3.4 4.7.8 7.2 1.1 3.9.5 7.7.8 11.5.9v-5.4c-4.1-.1-8.2-.4-12.5-.9-2.1-.3-4.2-.6-6.2-1zm67.6-48.5v4c4.1 3.2 7.3 6.6 9.3 10.2h4.5c-2.7-5.2-7.5-10-13.8-14.2zm-35.5-13.8c-3-.6-6.1-1.1-9.3-1.5-8.3-1-16.4-1.3-24.1-.8v2.4c7-.3 14.4 0 22 .9 3.9.5 7.7 1.1 11.4 1.9v-2.9zM67.2 63.2c-3.2-3.9-4.6-8.1-3.6-12.3.7-3.2 2.8-6 5.8-8.5v-1.7c-4.1 3.2-6.8 7-7.7 11.2-1.3 5.6.8 11.3 5.5 16.4v-5.1zM72 38.9v1.6c6.9-4.4 17.5-7.3 29.6-8.1V30c-11.9 1.1-22.3 4.3-29.6 8.9zm-2.3 27v5c7.7 6.8 20 12.4 34.9 15.1v-5.5c-15.2-2.5-27.7-8-34.9-14.6zm38 15.1v5.5c1.1.2 2.2.3 3.3.5 3.9.5 7.7.7 11.4.8v-5.7c-4 0-8.2-.3-12.4-.8-.7-.1-1.5-.2-2.3-.3zm52.6-37.9v4c3.2 2.6 5.5 5.3 6.8 8.2h4.6c-2.1-4.4-6-8.5-11.4-12.2zm-2.5-1.6c-6.2-3.7-14-6.8-22.9-8.9v2.9c9.2 2.3 17.1 5.7 22.9 9.7v-3.7zm-36.3-8.4c3.5.4 6.8 1 10 1.7v-2.9c-2.6-.5-5.2-.9-7.9-1.3-6.4-.8-12.7-1-18.7-.7v2.4c5.3-.1 10.9.1 16.6.8zM79.7 65.3v-4.1c-3.3-3.3-4.8-6.9-4-10.5.4-1.7 1.4-3.4 2.7-4.8v-1.7c-2.4 2.1-4 4.6-4.6 7.3-1 4.7 1.3 9.6 5.9 13.8zm1-23v1.5c5.1-3.8 13.6-6.4 23.6-7V35c-9.7.9-18.1 3.5-23.6 7.3zm50.1-2.7c7.1 2 13.1 4.9 17.1 8.2v-3.2c-4.5-3-10.4-5.5-17.1-7.2v2.2zM82.2 63.4v4c6.1 4.5 15 8 25.4 9.8V73C97 71.3 88 67.8 82.2 63.4zm68-17.2v3.7c1.6 1.7 2.8 3.6 3.4 5.4h3.9c-1.1-3.2-3.7-6.3-7.3-9.1zm-22.6-7.4v-2.2c-2.2-.5-4.5-.9-6.9-1.1-4.5-.5-8.8-.7-13-.6v1.9c3.6-.1 7.5.1 11.3.6 3 .3 5.9.8 8.6 1.4zm-17.1 34.5h-.2v4.2c.3 0 .6.1.9.1 3.8.5 7.6.7 11.3.6v-4.4c-3.9.2-7.9 0-12-.5zM93.9 60v3.6c4.3 2.6 9.9 4.6 16.4 5.6v-3.9c-6.6-.9-12.3-2.9-16.4-5.3zm-6.2-9.8c.2-.7.5-1.3.8-1.9v-2.5c-1.4 1.4-2.3 3-2.7 4.7-.9 4 1.2 8 5.4 11.3v-3.7c-2.8-2.4-4.2-5.2-3.5-7.9zm39.3-7c4.8 1.5 8.7 3.5 11.3 5.9v-3.3c-3-2.1-6.8-3.9-11.3-5.2v2.6zm-36.8 1v2.1c3.2-2.8 9.1-4.7 16.1-5.3v-2.3c-6.6.6-12.3 2.6-16.1 5.5zm49.9 3v3.9c.9 1.3 1.4 2.8 1.4 4.2h3.3c-.2-2.8-1.9-5.6-4.7-8.1zm-16.3-4.8v-2.6c-1.7-.4-3.4-.7-5.2-.9-3.1-.4-6.2-.5-9.1-.4v2.4c2.5 0 5.2.1 7.9.4 2.3.2 4.4.6 6.4 1.1zm-11.2 23.2v3.9c3.4.4 6.7.4 9.9.2v-4c-3.2.3-6.5.3-9.9-.1z"/><path d="M202 110.3v-51h-76.4v51H202z" fill="#fff"/><path d="M126.7 60.4h74.2v48.8h-74.2V60.4z" fill="#001378"/><path d="m163.8 65.8-.6 1.8h-1.9l1.6 1.2-.6 1.8 1.5-1.1 1.5 1.1-.6-1.8 1.5-1.2h-1.9l-.5-1.8zm8.6 2.2-.6 1.8h-1.9l1.6 1.2-.6 1.8 1.5-1.1 1.5 1.1-.6-1.8 1.5-1.2h-1.9l-.5-1.8zm3.9 10.5 1.5-1.1 1.5 1.1-.6-1.8 1.5-1.2h-1.9l-.6-1.8-.6 1.8h-1.9l1.6 1.2-.5 1.8zm6.6 5.3H181l-.6-1.8-.6 1.8h-1.9l1.6 1.2-.6 1.8 1.5-1.1 1.5 1.1-.6-1.8 1.6-1.2zm-3.8 8.2-.6-1.8-.5 1.8h-1.9l1.6 1.2-.7 1.8 1.5-1.1L180 95l-.6-1.8L181 92h-1.9zm-6.7 6.5-.6-1.8-.6 1.8h-1.9l1.6 1.2-.6 1.8 1.5-1.1 1.5 1.1-.6-1.8 1.5-1.2h-1.8zm-8 2.3-.6-1.8-.6 1.8h-1.9l1.6 1.2-.6 1.8 1.5-1.1 1.5 1.1-.6-1.8 1.5-1.2h-1.8zm-10.7-28 1.5-1.1 1.5 1.1-.6-1.8 1.6-1.2h-1.9l-.6-1.8-.6 1.8h-1.9l1.5 1.2-.5 1.8zm-3.9.9-.6 1.8h-1.9l1.5 1.2-.6 1.8 1.5-1.1 1.5 1.1-.6-1.8 1.6-1.2h-1.9l-.5-1.8zm-2.6 12 1.5 1.1-.6-1.8 1.6-1.2h-1.9l-.6-1.8-.6 1.8h-1.9l1.5 1.2-.6 1.8 1.6-1.1zm2.5 6.3-.6-1.8-.6 1.8h-1.9l1.5 1.2-.6 1.8 1.5-1.1 1.5 1.1-.6-1.8 1.6-1.2h-1.8zm6.7 6.5-.6-1.8-.6 1.8h-1.9l1.5 1.2-.6 1.8 1.5-1.1 1.5 1.1-.6-1.8 1.6-1.2h-1.8z" fill="#ffcf07"/></g><g id="HR_1_"><path class="st0" d="M44.3 127.5h-3.8v5h4.3v2.2H38v-15.8h6.5v2.2h-4v4.3h3.8v2.1zm10.7 3.9c0 1.2 0 2.4.1 3.3h-2.2l-.1-1.2c-.4.7-1.4 1.4-2.6 1.4-2.1 0-2.9-1.6-2.9-4.6v-7.1h2.5v6.8c0 1.6.3 2.8 1.3 2.8.8 0 1.2-.7 1.3-1.1.1-.3.1-.6.1-1v-7.4H55v8.1zm3.2-4.9c0-1.1 0-2.3-.1-3.2h2.2l.1 1.7h.1c.4-1.1 1.4-1.9 2.3-1.9h.5v2.5h-.5c-.9 0-1.7.7-2 2 0 .3-.1.7-.1 1.1v6.1h-2.5v-8.3zm11.1 8.4c-2.4 0-4.1-2-4.1-5.9 0-4.2 2-5.9 4.2-5.9 2.4 0 4 2.1 4 5.9 0 4.6-2.4 5.9-4.1 5.9zm.1-1.9c1.2 0 1.5-2.3 1.5-4 0-1.7-.3-4-1.6-4-1.4 0-1.6 2.3-1.6 4 0 1.9.3 4 1.7 4zm6.8-6.1c0-1.5 0-2.6-.1-3.6h2.2l.1 1.4c.5-1.1 1.4-1.6 2.4-1.6 2.3 0 3.4 2.4 3.4 5.9 0 4.2-1.8 5.9-3.6 5.9-1 0-1.6-.6-1.9-1.2v5.5h-2.5v-12.3zm2.5 3.7c0 .4 0 .7.1 1 .3 1.1.9 1.3 1.3 1.3 1.3 0 1.7-1.8 1.7-3.8 0-2.3-.5-3.8-1.7-3.8-.6 0-1.2.7-1.3 1.5-.1.3-.1.5-.1.8v3zm8.2 1.8c.4.3 1.2.6 2 .6.9 0 1.4-.5 1.4-1.3 0-.7-.3-1.2-1.4-1.9-1.7-1-2.3-2.1-2.3-3.3 0-2 1.4-3.4 3.5-3.4.9 0 1.6.3 2.2.6l-.5 1.9c-.4-.3-1-.5-1.6-.5-.9 0-1.3.6-1.3 1.2s.3 1 1.4 1.7c1.5.9 2.3 2 2.3 3.5 0 2.3-1.6 3.5-3.8 3.5-.9 0-1.9-.3-2.4-.7l.5-1.9zm10.7-4c.3-.6.4-1 .6-1.5l1.8-3.7h2.7l-2.9 4.8 3.1 6.6h-2.8l-2-5-.6 1v4H95v-16.2h2.5v10zm8.8-6.6c-.7 0-1.3-.6-1.3-1.5s.6-1.5 1.3-1.5c.8 0 1.4.6 1.4 1.5s-.5 1.5-1.4 1.5zm-1.2 12.9v-11.4h2.5v11.4h-2.5zm10-7.8c0-1.5 0-2.6-.1-3.6h2.2l.1 1.4c.5-1.1 1.4-1.6 2.4-1.6 2.3 0 3.4 2.4 3.4 5.9 0 4.2-1.8 5.9-3.6 5.9-1 0-1.6-.6-1.9-1.2v5.5h-2.5v-12.3zm2.5 3.7c0 .4 0 .7.1 1 .3 1.1.9 1.3 1.3 1.3 1.3 0 1.7-1.8 1.7-3.8 0-2.3-.5-3.8-1.7-3.8-.6 0-1.2.7-1.3 1.5-.1.3-.1.5-.1.8v3zm15.4 1.5c0 .9 0 1.9.1 2.6H131l-.1-1.1c-.6.9-1.4 1.3-2.4 1.3-1.6 0-2.9-1.4-2.9-3.4 0-2.9 2.5-4.2 5.1-4.2v-.3c0-1.2-.5-2-1.7-2-.8 0-1.5.2-2.1.6l-.5-1.7c.6-.4 1.8-.8 3.1-.8 3 0 3.7 2 3.7 4.5v4.5zm-2.5-3.1c-1 0-2.7.3-2.7 2.3 0 1.3.7 1.8 1.2 1.8.6 0 1.2-.4 1.4-1.3 0-.2.1-.4.1-.6V129zm5.7-2.5c0-1.1 0-2.3-.1-3.2h2.2l.1 1.7h.1c.4-1.1 1.4-1.9 2.3-1.9h.5v2.5h-.5c-.9 0-1.7.7-2 2 0 .3-.1.7-.1 1.1v6.1h-2.5v-8.3zm7.4-8h2.5v16.2h-2.5v-16.2zm12.7 13.6c0 .9 0 1.9.1 2.6h-2.3l-.1-1.1c-.6.9-1.4 1.3-2.4 1.3-1.6 0-2.9-1.4-2.9-3.4 0-2.9 2.5-4.2 5.1-4.2v-.3c0-1.2-.5-2-1.7-2-.8 0-1.5.2-2.1.6l-.5-1.7c.6-.4 1.8-.8 3.1-.8 3 0 3.7 2 3.7 4.5v4.5zM154 129c-1 0-2.7.3-2.7 2.3 0 1.3.7 1.8 1.2 1.8.6 0 1.2-.4 1.4-1.3 0-.2.1-.4.1-.6V129zm5.6-2.5c0-1.3 0-2.2-.1-3.2h2.2l.1 1.4c.5-.9 1.5-1.5 2.7-1.5 1.2 0 2 .6 2.4 1.6.3-.5.7-.9 1.1-1.2.5-.3 1-.4 1.6-.4 1.8 0 2.9 1.4 2.9 4.2v7.4H170v-6.9c0-1.4-.2-2.6-1.3-2.6-.7 0-1.2.5-1.4 1.3-.1.2-.1.6-.1.9v7.3h-2.5v-7.3c0-1-.1-2.2-1.3-2.2-.6 0-1.2.5-1.4 1.4 0 .3-.1.6-.1.9v7.2h-2.5v-8.3zm18.2 3.2c0 2.6 1.2 3.3 2.5 3.3.8 0 1.5-.2 2-.4l.4 1.8c-.7.3-1.8.5-2.9.5-3 0-4.5-2.1-4.5-5.7 0-3.8 1.8-6.1 4.2-6.1 2.4 0 3.6 2.2 3.6 5.2 0 .7 0 1-.1 1.3h-5.2zm3.1-1.8c0-1.8-.6-2.9-1.5-2.9-1.1 0-1.6 1.6-1.6 2.9h3.1zm5.1-1.4c0-1.3 0-2.2-.1-3.2h2.2l.1 1.3c.5-.9 1.5-1.5 2.7-1.5 1.9 0 2.9 1.5 2.9 4.1v7.5h-2.5v-7.3c0-1.1-.2-2.2-1.3-2.2-.6 0-1.2.5-1.4 1.4-.1.2-.1.6-.1 1v7.1H186v-8.2zm14-6v2.8h2.2v1.8H200v5.9c0 1.4.5 1.8 1.2 1.8.3 0 .5 0 .8-.1v1.9c-.4.1-.9.2-1.6.2-.8 0-1.5-.2-2-.7-.6-.6-.8-1.4-.8-3.1v-6h-1.4v-1.8h1.4v-2l2.4-.7z" id="HR"/></g></svg>