<svg xmlns="http://www.w3.org/2000/svg" viewBox="0 0 602 149"><g data-name="Layer 1"><path style="fill:#164194;stroke:#fff;stroke-miterlimit:10" d="M1.44 9h211.62v131H1.44z"/><path d="m109.84 18.13 1.79 5.58 5.85-.02-4.75 3.42 1.83 5.56-4.72-3.46-4.73 3.46 1.84-5.56-4.76-3.42 5.86.02 1.79-5.58zm0 96.52 1.79 5.58 5.85-.03-4.75 3.43 1.83 5.56-4.72-3.47-4.73 3.47 1.84-5.56-4.76-3.43 5.86.03 1.79-5.58zm-24.01-90.1 1.79 5.58 5.86-.02-4.76 3.42 1.84 5.56-4.73-3.46-4.72 3.46 1.83-5.56-4.75-3.42 5.86.02 1.78-5.58zM68.16 42.26l1.78 5.58 5.86-.03-4.75 3.43 1.83 5.56-4.72-3.46-4.73 3.46 1.84-5.56-4.76-3.43 5.86.03 1.79-5.58zm-6.52 24.07 1.79 5.58 5.86-.03-4.76 3.43 1.84 5.56-4.73-3.46-4.72 3.46 1.83-5.56L54 71.88l5.85.03 1.79-5.58zm6.45 24.08 1.79 5.58 5.86-.03-4.76 3.43 1.84 5.56-4.73-3.47-4.72 3.47 1.83-5.56-4.75-3.43 5.86.03 1.78-5.58zm17.74 17.7 1.79 5.58 5.86-.02-4.76 3.42 1.84 5.56-4.73-3.46-4.72 3.46 1.83-5.56-4.75-3.42 5.86.02 1.78-5.58zm48.04-83.56-1.79 5.58-5.86-.02 4.76 3.42-1.84 5.56 4.73-3.46 4.72 3.46-1.83-5.56 4.75-3.42-5.86.02-1.78-5.58zm17.67 17.71-1.79 5.58-5.85-.03 4.75 3.43-1.83 5.56 4.72-3.46 4.73 3.46-1.84-5.56 4.76-3.43-5.86.03-1.79-5.58zm6.52 24.07-1.79 5.58-5.86-.03 4.76 3.43-1.84 5.56 4.73-3.46 4.72 3.46-1.83-5.56 4.75-3.43-5.86.03-1.78-5.58zm-6.45 24.08-1.79 5.58-5.86-.03 4.76 3.43-1.84 5.56 4.73-3.47 4.72 3.47-1.83-5.56 4.75-3.43-5.86.03-1.78-5.58zm-17.74 17.7-1.79 5.58-5.86-.02 4.76 3.42-1.84 5.56 4.73-3.46 4.72 3.46-1.83-5.56 4.75-3.42-5.86.02-1.78-5.58z" style="fill:#ffed00"/><path d="M258.77 17.56H246.5v8.31h14.39V31h-20.77V0h20.73v5.17H246.5v7.39h12.27Zm18.95 11.09a7.7 7.7 0 0 1-6.3 2.77 7.27 7.27 0 0 1-5.65-2.13c-1.3-1.42-2-3.49-2-6.23V8h6.15v14.9q0 3.6 3.28 3.6t4.3-2.17V8h6.17v23h-5.79ZM301 13.73a17.44 17.44 0 0 0-2.22-.17c-2.32 0-3.85.79-4.57 2.36V31h-6.16V8h5.82l.17 2.75a5.68 5.68 0 0 1 5.13-3.17 6.53 6.53 0 0 1 1.91.27Zm1.68 5.54a13.62 13.62 0 0 1 1.32-6.11A9.62 9.62 0 0 1 307.8 9a11.07 11.07 0 0 1 5.76-1.47 10.5 10.5 0 0 1 7.61 2.85 11.43 11.43 0 0 1 3.29 7.75v1.57a12 12 0 0 1-3 8.51 11.48 11.48 0 0 1-15.89 0c-2-2.13-3-5-3-8.69Zm6.15.43a8.61 8.61 0 0 0 1.24 5 4.43 4.43 0 0 0 7 0q1.26-1.72 1.26-5.49a8.5 8.5 0 0 0-1.26-5 4.07 4.07 0 0 0-3.53-1.77 4 4 0 0 0-3.49 1.76 9.57 9.57 0 0 0-1.22 5.5Zm18.1-.43a13.62 13.62 0 0 1 1.32-6.11 9.62 9.62 0 0 1 3.8-4.16 11.12 11.12 0 0 1 5.76-1.47 10.48 10.48 0 0 1 7.61 2.85 11.43 11.43 0 0 1 3.29 7.75v1.57a12 12 0 0 1-3 8.51 11.48 11.48 0 0 1-15.89 0c-2-2.13-3-5-3-8.69Zm6.15.43a8.61 8.61 0 0 0 1.24 5 4.06 4.06 0 0 0 3.53 1.74 4.11 4.11 0 0 0 3.5-1.71q1.25-1.72 1.25-5.49a8.58 8.58 0 0 0-1.25-5 4.09 4.09 0 0 0-3.54-1.77 4 4 0 0 0-3.49 1.76 9.57 9.57 0 0 0-1.24 5.47Zm39.92-.01a13.84 13.84 0 0 1-2.42 8.53 7.75 7.75 0 0 1-6.52 3.2 7.18 7.18 0 0 1-5.67-2.42v10.85h-6.16V8h5.71l.21 2.26A7.23 7.23 0 0 1 364 7.54a7.82 7.82 0 0 1 6.62 3.15q2.38 3.15 2.38 8.68Zm-6.15-.44a9.09 9.09 0 0 0-1.14-5 3.72 3.72 0 0 0-3.31-1.74 4 4 0 0 0-4 2.21v9.43a4.09 4.09 0 0 0 4 2.28q4.42.03 4.42-7.18ZM389.69 31a7 7 0 0 1-.62-2.07 7.43 7.43 0 0 1-5.81 2.49 8.18 8.18 0 0 1-5.61-2 6.29 6.29 0 0 1-2.22-4.94 6.51 6.51 0 0 1 2.71-5.62q2.72-1.95 7.85-2h2.83V15.6a3.78 3.78 0 0 0-.82-2.55 3.23 3.23 0 0 0-2.59-1 3.62 3.62 0 0 0-2.43.75 2.52 2.52 0 0 0-.89 2h-6.15a6.18 6.18 0 0 1 1.23-3.7 8.21 8.21 0 0 1 3.5-2.68 12.79 12.79 0 0 1 5.06-1 10 10 0 0 1 6.76 2.14 7.46 7.46 0 0 1 2.5 6v10a11.09 11.09 0 0 0 .92 5V31Zm-5.09-4.28a5.27 5.27 0 0 0 2.52-.61 4 4 0 0 0 1.7-1.63v-4h-2.3q-4.62 0-4.92 3.2v.36a2.45 2.45 0 0 0 .81 1.89 3.13 3.13 0 0 0 2.19.79ZM247.08 55.3V61H251v4.52h-3.94V77a2.73 2.73 0 0 0 .49 1.83 2.44 2.44 0 0 0 1.87.56 9.72 9.72 0 0 0 1.81-.15v4.66a12.66 12.66 0 0 1-3.73.55q-6.47 0-6.59-6.53V65.48h-3.37V61h3.37v-5.7Zm20.66 26.35a7.7 7.7 0 0 1-6.3 2.77 7.29 7.29 0 0 1-5.66-2.13c-1.3-1.42-2-3.49-2-6.23V61H260v14.9q0 3.6 3.27 3.6t4.3-2.17V61h6.18v23h-5.79Zm16.7 2.35h-6.18V51.3h6.18Zm15.11.42a11.27 11.27 0 0 1-8.25-3.11 11.05 11.05 0 0 1-3.19-8.31v-.59a13.86 13.86 0 0 1 1.35-6.21 9.78 9.78 0 0 1 3.8-4.21 10.64 10.64 0 0 1 5.61-1.48 9.55 9.55 0 0 1 7.44 3Q309 66.49 309 72v2.51h-14.65a5.74 5.74 0 0 0 1.8 3.62 5.43 5.43 0 0 0 3.8 1.36 6.67 6.67 0 0 0 5.56-2.57l3 3.38a9.17 9.17 0 0 1-3.75 3.06 12.27 12.27 0 0 1-5.21 1.06Zm-.71-18.92a3.84 3.84 0 0 0-3 1.24 6.44 6.44 0 0 0-1.45 3.55H303v-.5a4.54 4.54 0 0 0-1.1-3.17 4 4 0 0 0-3.06-1.12Zm21.36 10.98L324.48 61h6.43l-7.77 23h-5.88l-7.77-23h6.43ZM333.08 55a3 3 0 0 1 .93-2.28 4 4 0 0 1 5 0 3.25 3.25 0 0 1 0 4.58 4 4 0 0 1-5 0 3 3 0 0 1-.93-2.3Zm6.54 29h-6.18V61h6.18Zm13.02-9.24L350.42 77v7h-6.15V51.3h6.15v18.11l1.2-1.53 5.89-6.88h7.39l-8.32 9.6 9 13.44h-7.06Zm28.51 6.89a7.7 7.7 0 0 1-6.3 2.77 7.29 7.29 0 0 1-5.66-2.13c-1.3-1.42-2-3.49-2-6.23V61h6.15v14.9c0 2.4 1.1 3.6 3.28 3.6s3.52-.72 4.3-2.17V61h6.18v23h-5.79Zm-134.39 44.68-2.47 2.58V137h-3.94v-32.7h3.94v19.77l2.11-2.53 7.17-7.58h4.79l-9 9.62 10 13.42h-4.62Zm12.96-1.06a13.69 13.69 0 0 1 1.33-6.09 9.93 9.93 0 0 1 3.71-4.17 10.08 10.08 0 0 1 5.42-1.47 9.72 9.72 0 0 1 7.61 3.25 12.58 12.58 0 0 1 2.9 8.67v.27a13.7 13.7 0 0 1-1.29 6 9.68 9.68 0 0 1-3.68 4.16 10.14 10.14 0 0 1-5.5 1.49 9.7 9.7 0 0 1-7.59-3.25 12.49 12.49 0 0 1-2.91-8.63Zm4 .46a9.91 9.91 0 0 0 1.78 6.16 6 6 0 0 0 9.53 0 10.78 10.78 0 0 0 1.76-6.59 9.91 9.91 0 0 0-1.79-6.15 5.75 5.75 0 0 0-4.78-2.35 5.67 5.67 0 0 0-4.71 2.32 10.71 10.71 0 0 0-1.83 6.61ZM288.88 114l.13 2.9a8.36 8.36 0 0 1 6.89-3.32q7.31 0 7.37 8.23V137h-3.94v-15.25a5.26 5.26 0 0 0-1.14-3.68 4.57 4.57 0 0 0-3.48-1.19 5.66 5.66 0 0 0-3.36 1 7 7 0 0 0-2.26 2.68V137h-3.94v-23Zm26.73 17.65 5.71-17.65h4l-8.26 23h-3l-8.34-23h4Zm21.73 5.77a10.07 10.07 0 0 1-7.62-3.07 11.42 11.42 0 0 1-2.93-8.23v-.73a13.89 13.89 0 0 1 1.3-6.12 10.26 10.26 0 0 1 3.67-4.21 9.12 9.12 0 0 1 5.09-1.52 8.61 8.61 0 0 1 7 3q2.49 3 2.49 8.47v1.64h-15.62a8.2 8.2 0 0 0 2 5.5 6.26 6.26 0 0 0 4.85 2.1 6.91 6.91 0 0 0 3.53-.85 8.75 8.75 0 0 0 2.53-2.26L346 133a9.67 9.67 0 0 1-8.66 4.42Zm-.49-20.65a5.26 5.26 0 0 0-4 1.74 8.44 8.44 0 0 0-2 4.86h11.54v-.3a7.45 7.45 0 0 0-1.62-4.65 4.94 4.94 0 0 0-3.92-1.65Zm24.95.73a11.63 11.63 0 0 0-1.93-.15 5.18 5.18 0 0 0-5.26 3.3V137h-3.94v-23h3.83l.07 2.66a6.14 6.14 0 0 1 5.49-3.08 4.11 4.11 0 0 1 1.74.29Zm12.41 19.92a10.07 10.07 0 0 1-7.62-3.07 11.42 11.42 0 0 1-2.94-8.23v-.73a13.89 13.89 0 0 1 1.31-6.12 10.17 10.17 0 0 1 3.66-4.21 9.17 9.17 0 0 1 5.1-1.52 8.59 8.59 0 0 1 7 3c1.66 2 2.5 4.79 2.5 8.47v1.64h-15.63a8.2 8.2 0 0 0 2 5.5 6.26 6.26 0 0 0 4.84 2.1 7 7 0 0 0 3.54-.85 8.88 8.88 0 0 0 2.53-2.26l2.4 1.86a9.67 9.67 0 0 1-8.69 4.42Zm-.49-20.65a5.24 5.24 0 0 0-4 1.74 8.37 8.37 0 0 0-2 4.86h11.54v-.3a7.57 7.57 0 0 0-1.62-4.65 5 5 0 0 0-3.92-1.65Zm17.54-2.77.13 2.9a8.38 8.38 0 0 1 6.9-3.32q7.31 0 7.36 8.23V137h-3.93v-15.25a5.36 5.36 0 0 0-1.14-3.68 4.6 4.6 0 0 0-3.48-1.19 5.72 5.72 0 0 0-3.37 1 6.92 6.92 0 0 0-2.25 2.68V137h-3.94v-23Zm25.31-5.62V114h4.3v3h-4.3v14.3a3.17 3.17 0 0 0 .58 2.08 2.4 2.4 0 0 0 2 .69 9 9 0 0 0 1.88-.26V137a11.62 11.62 0 0 1-3 .42 4.93 4.93 0 0 1-4-1.59 6.91 6.91 0 0 1-1.34-4.54V117h-4.19v-3h4.19v-5.58Zm21.6 22.51a2.9 2.9 0 0 0-1.2-2.48 11.6 11.6 0 0 0-4.2-1.53 19.39 19.39 0 0 1-4.74-1.53 6.66 6.66 0 0 1-2.6-2.13 5.09 5.09 0 0 1-.84-2.94 6 6 0 0 1 2.39-4.79 9.39 9.39 0 0 1 6.12-1.95 9.62 9.62 0 0 1 6.36 2 6.44 6.44 0 0 1 2.44 5.17h-4a3.55 3.55 0 0 0-1.38-2.79 5.12 5.12 0 0 0-3.46-1.17 5.35 5.35 0 0 0-3.36.94 2.94 2.94 0 0 0-1.21 2.45 2.38 2.38 0 0 0 1.13 2.15 14 14 0 0 0 4.07 1.38 21.16 21.16 0 0 1 4.78 1.58 7 7 0 0 1 2.72 2.2 5.5 5.5 0 0 1 .88 3.14 5.88 5.88 0 0 1-2.47 4.95 10.37 10.37 0 0 1-6.41 1.86 11.45 11.45 0 0 1-4.89-1 8 8 0 0 1-3.34-2.73 6.61 6.61 0 0 1-1.2-3.8h3.94a4.08 4.08 0 0 0 1.59 3.14 6.14 6.14 0 0 0 3.9 1.16 6.3 6.3 0 0 0 3.59-.91 2.76 2.76 0 0 0 1.39-2.37Z" style="fill:#fff"/></g></svg>