<svg xmlns="http://www.w3.org/2000/svg" viewBox="0 0 602 149"><g data-name="Layer 1"><path style="fill:#164194;stroke:#fff;stroke-miterlimit:10" d="M1.44 9h211.62v131H1.44z"/><path d="m109.84 18.13 1.79 5.58 5.85-.02-4.75 3.42 1.83 5.56-4.72-3.46-4.73 3.46 1.84-5.56-4.76-3.42 5.86.02 1.79-5.58zm0 96.52 1.79 5.58 5.85-.03-4.75 3.43 1.83 5.56-4.72-3.47-4.73 3.47 1.84-5.56-4.76-3.43 5.86.03 1.79-5.58zm-24.01-90.1 1.79 5.58 5.86-.02-4.76 3.42 1.84 5.56-4.73-3.46-4.72 3.46 1.83-5.56-4.75-3.42 5.86.02 1.78-5.58zM68.16 42.26l1.78 5.58 5.86-.03-4.75 3.43 1.83 5.56-4.72-3.46-4.73 3.46 1.84-5.56-4.76-3.43 5.86.03 1.79-5.58zm-6.52 24.07 1.79 5.58 5.86-.03-4.76 3.43 1.84 5.56-4.73-3.46-4.72 3.46 1.83-5.56L54 71.88l5.85.03 1.79-5.58zm6.45 24.08 1.79 5.58 5.86-.03-4.76 3.43 1.84 5.56-4.73-3.47-4.72 3.47 1.83-5.56-4.75-3.43 5.86.03 1.78-5.58zm17.74 17.7 1.79 5.58 5.86-.02-4.76 3.42 1.84 5.56-4.73-3.46-4.72 3.46 1.83-5.56-4.75-3.42 5.86.02 1.78-5.58zm48.04-83.56-1.79 5.58-5.86-.02 4.76 3.42-1.84 5.56 4.73-3.46 4.72 3.46-1.83-5.56 4.75-3.42-5.86.02-1.78-5.58zm17.67 17.71-1.79 5.58-5.85-.03 4.75 3.43-1.83 5.56 4.72-3.46 4.73 3.46-1.84-5.56 4.76-3.43-5.86.03-1.79-5.58zm6.52 24.07-1.79 5.58-5.86-.03 4.76 3.43-1.84 5.56 4.73-3.46 4.72 3.46-1.83-5.56 4.75-3.43-5.86.03-1.78-5.58zm-6.45 24.08-1.79 5.58-5.86-.03 4.76 3.43-1.84 5.56 4.73-3.47 4.72 3.47-1.83-5.56 4.75-3.43-5.86.03-1.78-5.58zm-17.74 17.7-1.79 5.58-5.86-.02 4.76 3.42-1.84 5.56 4.73-3.46 4.72 3.46-1.83-5.56 4.75-3.42-5.86.02-1.78-5.58z" style="fill:#ffed00"/><path d="m247.59 18.73-3.79 3.94v10.48h-4.09v-31h4.09v15.33l13.77-15.33h4.94l-12.2 13.69 13.16 17.31h-4.9ZM264 21.42a13.69 13.69 0 0 1 1.33-6.09 9.92 9.92 0 0 1 3.67-4.17 10 10 0 0 1 5.41-1.47 9.73 9.73 0 0 1 7.59 3.25 12.58 12.58 0 0 1 2.9 8.67v.28a13.69 13.69 0 0 1-1.29 6 9.74 9.74 0 0 1-3.61 4.19 10.14 10.14 0 0 1-5.5 1.49 9.67 9.67 0 0 1-7.59-3.25 12.49 12.49 0 0 1-2.91-8.63Zm4 .47a9.83 9.83 0 0 0 1.69 6.11 6 6 0 0 0 9.53 0 10.85 10.85 0 0 0 1.78-6.58 9.8 9.8 0 0 0-1.8-6.14 6 6 0 0 0-9.48 0 10.72 10.72 0 0 0-1.81 6.61Zm25.11-11.78.12 2.9a8.38 8.38 0 0 1 6.9-3.32q7.31 0 7.37 8.24v15.22h-3.94V17.9a5.31 5.31 0 0 0-1.14-3.68 4.57 4.57 0 0 0-3.48-1.22 5.66 5.66 0 0 0-3.36 1 7 7 0 0 0-2.26 2.68v16.47h-3.94v-23Zm21.32 23.04v-20h-3.64v-3.04h3.64V7.75a7.85 7.85 0 0 1 2-5.73A7.48 7.48 0 0 1 322 0a10.46 10.46 0 0 1 2.71.36l-.22 3.17a11.88 11.88 0 0 0-2.13-.19 3.89 3.89 0 0 0-3 1.12 4.58 4.58 0 0 0-1 3.22v2.43h4.92v3.05h-4.92v20Zm21.46.42a10.07 10.07 0 0 1-7.62-3.07 11.42 11.42 0 0 1-2.94-8.23v-.73a13.89 13.89 0 0 1 1.31-6.12 10.17 10.17 0 0 1 3.66-4.21 9.17 9.17 0 0 1 5.1-1.52 8.59 8.59 0 0 1 7 3q2.5 3 2.5 8.47v1.64h-15.63a8.2 8.2 0 0 0 2 5.5 6.26 6.26 0 0 0 4.84 2.1 7 7 0 0 0 3.54-.85 8.88 8.88 0 0 0 2.53-2.26l2.41 1.87a9.67 9.67 0 0 1-8.7 4.41Zm-.49-20.65a5.24 5.24 0 0 0-4 1.74 8.37 8.37 0 0 0-2 4.86h11.54v-.3a7.57 7.57 0 0 0-1.62-4.65 5 5 0 0 0-3.92-1.65Zm24.95.73a11.63 11.63 0 0 0-1.93-.15 5.18 5.18 0 0 0-5.26 3.3v16.35h-3.94v-23h3.83l.06 2.66a6.16 6.16 0 0 1 5.5-3.08 4.14 4.14 0 0 1 1.74.29Zm12.41 19.92a10.07 10.07 0 0 1-7.62-3.07 11.42 11.42 0 0 1-2.94-8.23v-.73a13.89 13.89 0 0 1 1.31-6.12 10.17 10.17 0 0 1 3.66-4.21 9.17 9.17 0 0 1 5.1-1.52 8.61 8.61 0 0 1 7 3q2.49 3 2.49 8.47v1.64h-15.6a8.15 8.15 0 0 0 2 5.5 6.24 6.24 0 0 0 4.84 2.1 7 7 0 0 0 3.54-.85 9 9 0 0 0 2.46-2.3l2.4 1.87a9.66 9.66 0 0 1-8.64 4.45Zm-.49-20.65a5.23 5.23 0 0 0-4 1.74 8.37 8.37 0 0 0-2 4.86h11.53v-.3a7.51 7.51 0 0 0-1.61-4.65 5 5 0 0 0-3.92-1.65Zm17.54-2.81.13 2.9a8.38 8.38 0 0 1 6.9-3.32q7.29 0 7.36 8.24v15.22h-3.94V17.9a5.26 5.26 0 0 0-1.14-3.68 4.57 4.57 0 0 0-3.48-1.22 5.71 5.71 0 0 0-3.36 1 7 7 0 0 0-2.28 2.73v16.42h-3.94v-23Zm29.1 20.25a5.69 5.69 0 0 0 3.69-1.28 4.46 4.46 0 0 0 1.74-3.19h3.73a7.22 7.22 0 0 1-1.36 3.77 9 9 0 0 1-3.36 2.85 9.62 9.62 0 0 1-4.44 1.06 9.47 9.47 0 0 1-7.48-3.14q-2.78-3.13-2.78-8.59v-.66a13.78 13.78 0 0 1 1.24-6 9.39 9.39 0 0 1 3.54-4.07 10.11 10.11 0 0 1 5.46-1.44 9.21 9.21 0 0 1 6.44 2.33 8.3 8.3 0 0 1 2.74 6h-3.73a5.39 5.39 0 0 0-1.69-3.67 5.26 5.26 0 0 0-3.76-1.44 5.51 5.51 0 0 0-4.65 2.16 10.16 10.16 0 0 0-1.65 6.25v.75a10 10 0 0 0 1.64 6.13 5.54 5.54 0 0 0 4.68 2.18ZM432.07 4a2.36 2.36 0 0 1 .59-1.62 2.2 2.2 0 0 1 1.73-.66 2.24 2.24 0 0 1 1.75.66 2.32 2.32 0 0 1 .6 1.62 2.25 2.25 0 0 1-.6 1.6 2.3 2.3 0 0 1-1.75.64 2.26 2.26 0 0 1-1.73-.64 2.29 2.29 0 0 1-.59-1.6Zm4.26 29.15h-3.94v-23h3.94Zm9.76-23.04v25.7q0 6.64-6 6.64a7.45 7.45 0 0 1-2.4-.38v-3.13a7.79 7.79 0 0 0 1.79.17 2.66 2.66 0 0 0 2-.72 3.52 3.52 0 0 0 .69-2.48v-25.8ZM441.75 4a2.34 2.34 0 0 1 .58-1.6 2.14 2.14 0 0 1 1.67-.68 2.24 2.24 0 0 1 1.75.66 2.32 2.32 0 0 1 .6 1.62 2.25 2.25 0 0 1-.6 1.6 2.3 2.3 0 0 1-1.75.64 2.22 2.22 0 0 1-1.72-.64 2.32 2.32 0 0 1-.53-1.6Zm24.03 29.15a8.51 8.51 0 0 1-.56-2.43 8.78 8.78 0 0 1-6.55 2.85 8.15 8.15 0 0 1-5.59-1.92 6.24 6.24 0 0 1-2.18-4.89 6.52 6.52 0 0 1 2.73-5.59c1.83-1.32 4.39-2 7.7-2h3.83v-1.8a4.45 4.45 0 0 0-1.23-3.29 5 5 0 0 0-3.65-1.22 5.73 5.73 0 0 0-3.53 1.06 3.15 3.15 0 0 0-1.43 2.58h-4a5.41 5.41 0 0 1 1.23-3.33 8.37 8.37 0 0 1 3.32-2.55 11.24 11.24 0 0 1 4.61-.93 9.11 9.11 0 0 1 6.24 2 7.19 7.19 0 0 1 2.34 5.48v10.6a13 13 0 0 0 .81 5.05v.34Zm-6.54-3a6.87 6.87 0 0 0 3.51-1 5.82 5.82 0 0 0 2.41-2.49V22h-3.09c-4.82 0-7.24 1.41-7.24 4.24a3.59 3.59 0 0 0 1.24 2.89 4.72 4.72 0 0 0 3.17 1.02Zm-221.1 44.29a13.46 13.46 0 0 1 2.51-8.53 8.55 8.55 0 0 1 13-.46v-12h3.94v32.7H254l-.19-2.47a8 8 0 0 1-6.58 2.89 7.86 7.86 0 0 1-6.52-3.28 13.62 13.62 0 0 1-2.52-8.55Zm3.93.45a10.21 10.21 0 0 0 1.62 6.11 5.24 5.24 0 0 0 4.47 2.21 5.74 5.74 0 0 0 5.47-3.36V69.29a5.76 5.76 0 0 0-5.42-3.29 5.27 5.27 0 0 0-4.52 2.23q-1.62 2.27-1.62 6.66ZM273 86.57a10.07 10.07 0 0 1-7.62-3.07 11.42 11.42 0 0 1-2.94-8.23v-.73a13.89 13.89 0 0 1 1.31-6.12 10.17 10.17 0 0 1 3.66-4.21 9.17 9.17 0 0 1 5.1-1.52 8.61 8.61 0 0 1 7 3q2.49 3 2.49 8.47v1.64h-15.6a8.2 8.2 0 0 0 2 5.5 6.24 6.24 0 0 0 4.84 2.1 7 7 0 0 0 3.54-.85 8.88 8.88 0 0 0 2.53-2.26l2.41 1.87a9.67 9.67 0 0 1-8.72 4.41Zm-.49-20.65a5.24 5.24 0 0 0-4 1.74 8.37 8.37 0 0 0-2 4.86h11.54v-.3a7.57 7.57 0 0 0-1.62-4.65 5 5 0 0 0-3.9-1.65Zm-2.32-8.87a2.35 2.35 0 0 1 .58-1.62 2.22 2.22 0 0 1 1.74-.66 2.24 2.24 0 0 1 1.75.66 2.36 2.36 0 0 1 .59 1.62 2.12 2.12 0 0 1-2.34 2.23 2.11 2.11 0 0 1-2.32-2.23Zm20.57 29.1h-3.94v-32.7h3.94Zm35.53-13.48H314V81h14.39v5.13h-20.75v-31h20.74v5.17H314v7.39h12.26Zm18.96 11.14a7.73 7.73 0 0 1-6.3 2.76 7.29 7.29 0 0 1-5.66-2.13c-1.29-1.41-2-3.49-2-6.23v-15.1h6.16V78q0 3.6 3.27 3.6c2.09 0 3.52-.72 4.31-2.17V63.11h6.17v23h-5.79Zm23.31-14.93a17.16 17.16 0 0 0-2.21-.17c-2.33 0-3.85.79-4.58 2.36v15.08h-6.15v-23h5.81l.17 2.75a5.7 5.7 0 0 1 5.13-3.17 6.65 6.65 0 0 1 1.92.27Zm1.65 5.54a13.65 13.65 0 0 1 1.32-6.11 9.61 9.61 0 0 1 3.8-4.15 11.07 11.07 0 0 1 5.76-1.47 10.51 10.51 0 0 1 7.61 2.85 11.48 11.48 0 0 1 3.3 7.75v1.57a12.06 12.06 0 0 1-3 8.51 11.48 11.48 0 0 1-15.89 0c-2-2.13-3-5-3-8.69Zm6.15.43a8.67 8.67 0 0 0 1.23 5 4.45 4.45 0 0 0 7 0q1.26-1.73 1.26-5.49a8.5 8.5 0 0 0-1.26-5 4.09 4.09 0 0 0-3.53-1.77 4 4 0 0 0-3.5 1.76 9.57 9.57 0 0 0-1.2 5.5Zm39.88-.01a13.84 13.84 0 0 1-2.41 8.53 7.74 7.74 0 0 1-6.53 3.2 7.18 7.18 0 0 1-5.64-2.42V95h-6.15V63.11h5.7l.22 2.26a7.22 7.22 0 0 1 5.83-2.68 7.79 7.79 0 0 1 6.62 3.15c1.58 2.1 2.36 5 2.36 8.68Zm-6.15-.47a9.09 9.09 0 0 0-1.14-5 3.7 3.7 0 0 0-3.31-1.75 4 4 0 0 0-4 2.22v9.46a4.09 4.09 0 0 0 4 2.28q4.45.03 4.45-7.21Zm8.7.05a13.65 13.65 0 0 1 1.32-6.11 9.61 9.61 0 0 1 3.8-4.15 11.07 11.07 0 0 1 5.76-1.47 10.51 10.51 0 0 1 7.61 2.85 11.48 11.48 0 0 1 3.29 7.75v1.57a12.06 12.06 0 0 1-3 8.51 11.48 11.48 0 0 1-15.89 0c-2-2.13-3-5-3-8.69Zm6.15.43a8.67 8.67 0 0 0 1.23 5 4.45 4.45 0 0 0 7 0q1.26-1.73 1.26-5.49a8.5 8.5 0 0 0-1.26-5 4.09 4.09 0 0 0-3.53-1.77 4 4 0 0 0-3.5 1.76 9.57 9.57 0 0 0-1.2 5.5Zm31.47 4.93a2 2 0 0 0-1.12-1.78 12.81 12.81 0 0 0-3.59-1.16q-8.22-1.73-8.22-7a6.33 6.33 0 0 1 2.52-5.1 10.24 10.24 0 0 1 6.65-2 11.12 11.12 0 0 1 7 2.06 6.52 6.52 0 0 1 2.62 5.37h-6.15a3 3 0 0 0-.85-2.19 3.62 3.62 0 0 0-2.66-.86 3.74 3.74 0 0 0-2.41.7 2.25 2.25 0 0 0-.85 1.79 1.91 1.91 0 0 0 1 1.65 10.11 10.11 0 0 0 3.27 1.09 26.48 26.48 0 0 1 3.87 1q4.88 1.78 4.88 6.2a6 6 0 0 1-2.7 5.09 11.7 11.7 0 0 1-7 1.95 12.16 12.16 0 0 1-5.14-1 8.59 8.59 0 0 1-3.53-2.88 6.61 6.61 0 0 1-1.28-3.89h5.83a3.22 3.22 0 0 0 1.22 2.52 4.82 4.82 0 0 0 3 .87 4.42 4.42 0 0 0 2.67-.67 2.1 2.1 0 0 0 .97-1.76Zm-204.58 59.37a6.75 6.75 0 0 1-.62-2.07 7.45 7.45 0 0 1-5.81 2.49 8.15 8.15 0 0 1-5.61-2 6.27 6.27 0 0 1-2.23-4.93 6.52 6.52 0 0 1 2.72-5.63q2.72-2 7.84-2H251v-1.32a3.78 3.78 0 0 0-.82-2.56 3.21 3.21 0 0 0-2.58-1 3.65 3.65 0 0 0-2.44.75 2.52 2.52 0 0 0-.88 2h-6.16a6.13 6.13 0 0 1 1.24-3.7 8 8 0 0 1 3.49-2.67 12.63 12.63 0 0 1 5.07-1 10 10 0 0 1 6.75 2.14 7.47 7.47 0 0 1 2.51 6v10a11.11 11.11 0 0 0 .91 5v.36Zm-5.09-4.28a5.23 5.23 0 0 0 2.51-.61 4 4 0 0 0 1.7-1.63v-4h-2.3q-4.62 0-4.91 3.2v.36a2.45 2.45 0 0 0 .81 1.89 3.14 3.14 0 0 0 2.19.79Zm22.06-24.42v5.66h3.94v4.52h-3.94v11.49a2.78 2.78 0 0 0 .49 1.83 2.47 2.47 0 0 0 1.88.56 9.8 9.8 0 0 0 1.81-.15V139a12.66 12.66 0 0 1-3.73.55q-6.47 0-6.6-6.53v-12.39h-3.36v-4.52h3.36v-5.66Zm17.2 29.12a11.27 11.27 0 0 1-8.25-3.11 11 11 0 0 1-3.18-8.28v-.59a13.85 13.85 0 0 1 1.34-6.21 9.78 9.78 0 0 1 3.8-4.21 10.64 10.64 0 0 1 5.61-1.48 9.55 9.55 0 0 1 7.44 3q2.71 3 2.71 8.45v2.51h-14.72a5.72 5.72 0 0 0 1.8 3.62 5.43 5.43 0 0 0 3.8 1.36 6.67 6.67 0 0 0 5.56-2.57l3 3.38a9.2 9.2 0 0 1-3.74 3.06 12.35 12.35 0 0 1-5.17 1.07Zm-.7-18.92a3.81 3.81 0 0 0-3 1.24 6.38 6.38 0 0 0-1.46 3.55h8.56V125a4.6 4.6 0 0 0-1.11-3.18 4 4 0 0 0-3.04-1.17Zm13.21-10.5a3 3 0 0 1 .93-2.28 4 4 0 0 1 5 0 3.25 3.25 0 0 1 0 4.58 4 4 0 0 1-5 0 3 3 0 0 1-.93-2.3Zm6.54 29h-6.17v-23h6.17Zm12.02-28.7v5.66H321v4.52h-3.94v11.49a2.73 2.73 0 0 0 .49 1.83 2.44 2.44 0 0 0 1.87.56 9.8 9.8 0 0 0 1.81-.15V139a12.66 12.66 0 0 1-3.73.55q-6.47 0-6.59-6.53v-12.39h-3.37v-4.52h3.37v-5.66Zm6.75-.3a3 3 0 0 1 .93-2.28 4 4 0 0 1 5 0 3.25 3.25 0 0 1 0 4.58 4 4 0 0 1-5 0 3 3 0 0 1-.93-2.3Zm6.54 29h-6.18v-23h6.18Zm15.01.42a11.27 11.27 0 0 1-8.25-3.11 11 11 0 0 1-3.19-8.28v-.59a14 14 0 0 1 1.34-6.21 9.87 9.87 0 0 1 3.81-4.21 10.58 10.58 0 0 1 5.6-1.48 9.52 9.52 0 0 1 7.44 3q2.72 3 2.72 8.45v2.51h-14.67a5.72 5.72 0 0 0 1.8 3.62 5.43 5.43 0 0 0 3.8 1.36 6.67 6.67 0 0 0 5.56-2.57l3 3.38a9.17 9.17 0 0 1-3.75 3.06 12.27 12.27 0 0 1-5.21 1.07Zm-.71-18.92a3.84 3.84 0 0 0-3 1.24 6.37 6.37 0 0 0-1.45 3.55h8.55V125a4.6 4.6 0 0 0-1.1-3.18 4 4 0 0 0-3-1.17Zm25.69 12.13a2 2 0 0 0-1.12-1.78 12.72 12.72 0 0 0-3.58-1.16q-8.22-1.72-8.22-7a6.35 6.35 0 0 1 2.54-5.12 10.28 10.28 0 0 1 6.66-2 11.07 11.07 0 0 1 7 2.06 6.53 6.53 0 0 1 2.63 5.37h-6.15a3 3 0 0 0-.85-2.19 3.63 3.63 0 0 0-2.66-.86 3.74 3.74 0 0 0-2.41.7 2.22 2.22 0 0 0-.85 1.79 1.89 1.89 0 0 0 1 1.65 10 10 0 0 0 3.26 1.09 26.31 26.31 0 0 1 3.88 1q4.88 1.79 4.87 6.2a6 6 0 0 1-2.7 5.09 11.65 11.65 0 0 1-7 1.95 12.13 12.13 0 0 1-5.14-1 8.69 8.69 0 0 1-3.53-2.83 6.6 6.6 0 0 1-1.27-3.89h5.83a3.24 3.24 0 0 0 1.21 2.52 4.85 4.85 0 0 0 3 .87 4.46 4.46 0 0 0 2.67-.67 2.09 2.09 0 0 0 .93-1.79Z" style="fill:#fff"/></g></svg>