<svg xmlns="http://www.w3.org/2000/svg" viewBox="0 0 602 149"><g data-name="Layer 1"><path style="fill:#164194;stroke:#fff;stroke-miterlimit:10" d="M1.44 9h211.62v131H1.44z"/><path d="m109.84 18.13 1.79 5.58 5.85-.02-4.75 3.42 1.83 5.56-4.72-3.46-4.73 3.46 1.84-5.56-4.76-3.42 5.86.02 1.79-5.58zm0 96.52 1.79 5.58 5.85-.03-4.75 3.43 1.83 5.56-4.72-3.47-4.73 3.47 1.84-5.56-4.76-3.43 5.86.03 1.79-5.58zm-24.01-90.1 1.79 5.58 5.86-.02-4.76 3.42 1.84 5.56-4.73-3.46-4.72 3.46 1.83-5.56-4.75-3.42 5.86.02 1.78-5.58zM68.16 42.26l1.78 5.58 5.86-.03-4.75 3.43 1.83 5.56-4.72-3.46-4.73 3.46 1.84-5.56-4.76-3.43 5.86.03 1.79-5.58zm-6.52 24.07 1.79 5.58 5.86-.03-4.76 3.43 1.84 5.56-4.73-3.46-4.72 3.46 1.83-5.56L54 71.88l5.85.03 1.79-5.58zm6.45 24.08 1.79 5.58 5.86-.03-4.76 3.43 1.84 5.56-4.73-3.47-4.72 3.47 1.83-5.56-4.75-3.43 5.86.03 1.78-5.58zm17.74 17.7 1.79 5.58 5.86-.02-4.76 3.42 1.84 5.56-4.73-3.46-4.72 3.46 1.83-5.56-4.75-3.42 5.86.02 1.78-5.58zm48.04-83.56-1.79 5.58-5.86-.02 4.76 3.42-1.84 5.56 4.73-3.46 4.72 3.46-1.83-5.56 4.75-3.42-5.86.02-1.78-5.58zm17.67 17.71-1.79 5.58-5.85-.03 4.75 3.43-1.83 5.56 4.72-3.46 4.73 3.46-1.84-5.56 4.76-3.43-5.86.03-1.79-5.58zm6.52 24.07-1.79 5.58-5.86-.03 4.76 3.43-1.84 5.56 4.73-3.46 4.72 3.46-1.83-5.56 4.75-3.43-5.86.03-1.78-5.58zm-6.45 24.08-1.79 5.58-5.86-.03 4.76 3.43-1.84 5.56 4.73-3.47 4.72 3.47-1.83-5.56 4.75-3.43-5.86.03-1.78-5.58zm-17.74 17.7-1.79 5.58-5.86-.02 4.76 3.42-1.84 5.56 4.73-3.46 4.72 3.46-1.83-5.56 4.75-3.42-5.86.02-1.78-5.58z" style="fill:#ffed00"/><path d="m248.12 19-3.79 4v10.42h-4.09v-31h4.09v15.33l13.78-15.33H263l-12.15 13.69L264 33.42h-4.89Zm16.36 2.69a13.75 13.75 0 0 1 1.33-6.09 9.81 9.81 0 0 1 9.13-5.6 9.73 9.73 0 0 1 7.61 3.26 12.56 12.56 0 0 1 2.9 8.66v.28a13.9 13.9 0 0 1-1.28 6 9.82 9.82 0 0 1-3.69 4.16 10.21 10.21 0 0 1-5.5 1.49 9.71 9.71 0 0 1-7.59-3.26 12.44 12.44 0 0 1-2.91-8.59Zm4 .47a9.87 9.87 0 0 0 1.78 6.15 6 6 0 0 0 9.53 0 10.76 10.76 0 0 0 1.77-6.59 9.84 9.84 0 0 0-1.8-6.14 5.72 5.72 0 0 0-4.78-2.35 5.65 5.65 0 0 0-4.71 2.32 10.71 10.71 0 0 0-1.83 6.61Zm25.16-11.77.13 2.89a8.4 8.4 0 0 1 6.89-3.28q7.34 0 7.34 8.2v15.22h-3.94V18.18A5.24 5.24 0 0 0 303 14.5a4.53 4.53 0 0 0-3.48-1.2 5.6 5.6 0 0 0-3.36 1 6.87 6.87 0 0 0-2.31 2.7v16.42h-3.94v-23ZM315 33.42v-20h-3.64v-3H315V8a7.79 7.79 0 0 1 2-5.72 7.46 7.46 0 0 1 5.59-2 10.46 10.46 0 0 1 2.71.36l-.3 3.17a11.18 11.18 0 0 0-2.13-.19 3.82 3.82 0 0 0-3 1.12A4.53 4.53 0 0 0 318.9 8v2.44h4.92v3h-4.92v20Zm21.42.43a10.07 10.07 0 0 1-7.62-3.08 11.4 11.4 0 0 1-2.93-8.23v-.72a13.83 13.83 0 0 1 1.3-6.12 10.29 10.29 0 0 1 3.67-4.22 9.2 9.2 0 0 1 5.09-1.48 8.64 8.64 0 0 1 7 3c1.66 2 2.49 4.8 2.49 8.47V23H329.8a8.23 8.23 0 0 0 2 5.51 6.29 6.29 0 0 0 4.85 2.09 6.81 6.81 0 0 0 3.53-.85 8.86 8.86 0 0 0 2.53-2.25l2.41 1.87a9.69 9.69 0 0 1-8.7 4.48Zm-.49-20.65a5.27 5.27 0 0 0-4 1.73 8.47 8.47 0 0 0-2 4.87h11.54v-.3a7.45 7.45 0 0 0-1.62-4.65 4.94 4.94 0 0 0-3.92-1.65Zm24.95.72a11.63 11.63 0 0 0-1.93-.15 5.18 5.18 0 0 0-5.26 3.3v16.35h-3.94v-23h3.83l.07 2.66a6.13 6.13 0 0 1 5.49-3.08 3.94 3.94 0 0 1 1.74.3Zm12.41 19.93a10.07 10.07 0 0 1-7.62-3.08 11.41 11.41 0 0 1-2.94-8.23v-.72A13.83 13.83 0 0 1 364 15.7a10.19 10.19 0 0 1 3.66-4.22A9.25 9.25 0 0 1 372.8 10a8.64 8.64 0 0 1 7 3c1.66 2 2.5 4.8 2.5 8.47V23h-15.63a8.23 8.23 0 0 0 2 5.51 6.27 6.27 0 0 0 4.84 2.09 6.87 6.87 0 0 0 3.54-.85 9 9 0 0 0 2.53-2.25l2.42 1.9a9.69 9.69 0 0 1-8.71 4.45Zm-.49-20.65a5.27 5.27 0 0 0-4 1.73 8.4 8.4 0 0 0-2 4.87h11.54v-.3a7.57 7.57 0 0 0-1.62-4.65 5 5 0 0 0-3.92-1.65Zm17.54-2.81.13 2.89a8.41 8.41 0 0 1 6.9-3.32q7.31 0 7.36 8.24v15.22h-3.93V18.18a5.34 5.34 0 0 0-1.14-3.68 4.56 4.56 0 0 0-3.48-1.2 5.65 5.65 0 0 0-3.37 1 6.85 6.85 0 0 0-2.25 2.7v16.42h-3.94v-23Zm29.11 20.24a5.68 5.68 0 0 0 3.68-1.27 4.55 4.55 0 0 0 1.75-3.2h3.72a7.11 7.11 0 0 1-1.36 3.77 9 9 0 0 1-3.36 2.85 9.62 9.62 0 0 1-4.43 1.07 9.52 9.52 0 0 1-7.45-3.14q-2.77-3.15-2.77-8.59v-.66a13.86 13.86 0 0 1 1.23-6 9.33 9.33 0 0 1 3.54-4.05 10 10 0 0 1 5.43-1.41 9.25 9.25 0 0 1 6.44 2.32 8.29 8.29 0 0 1 2.73 6h-3.72a5.46 5.46 0 0 0-1.7-3.68 5.27 5.27 0 0 0-3.75-1.43 5.52 5.52 0 0 0-4.66 2.16 10.14 10.14 0 0 0-1.65 6.25v.74a9.94 9.94 0 0 0 1.64 6.13 5.54 5.54 0 0 0 4.69 2.14Zm17.18-20.24v25.69q0 6.64-6 6.65a7.19 7.19 0 0 1-2.4-.39v-3.13a7.27 7.27 0 0 0 1.79.17 2.69 2.69 0 0 0 2-.71 3.54 3.54 0 0 0 .69-2.48v-25.8Zm-4.34-6.11a2.36 2.36 0 0 1 .58-1.61 2.14 2.14 0 0 1 1.71-.67 2.24 2.24 0 0 1 1.75.66 2.32 2.32 0 0 1 .6 1.62 2.21 2.21 0 0 1-.6 1.59 2.27 2.27 0 0 1-1.75.64 2.18 2.18 0 0 1-1.72-.64 2.28 2.28 0 0 1-.57-1.59Zm24.03 29.14a8.33 8.33 0 0 1-.56-2.43 8.75 8.75 0 0 1-6.55 2.86 8.1 8.1 0 0 1-5.59-1.93 6.2 6.2 0 0 1-2.18-4.92 6.51 6.51 0 0 1 2.73-5.59c1.83-1.33 4.39-2 7.7-2h3.83v-1.76a4.39 4.39 0 0 0-1.24-3.29 4.93 4.93 0 0 0-3.64-1.23 5.74 5.74 0 0 0-3.53 1.07 3.14 3.14 0 0 0-1.43 2.57h-4a5.41 5.41 0 0 1 1.23-3.33 8.33 8.33 0 0 1 3.32-2.54 11.08 11.08 0 0 1 4.61-.94 9.16 9.16 0 0 1 6.24 2 7.22 7.22 0 0 1 2.34 5.48V28a12.94 12.94 0 0 0 .81 5v.34Zm-6.54-3a6.87 6.87 0 0 0 3.51-1A5.82 5.82 0 0 0 455.7 27v-4.75h-3.09q-7.23 0-7.23 4.23a3.6 3.6 0 0 0 1.23 2.9 4.76 4.76 0 0 0 3.17 1.04ZM260 81l4.43-17.6h3.94l-6.71 23h-3.19L252.89 69l-5.45 17.46h-3.19l-6.69-23h3.92L246 80.63l5.37-17.24h3.17Zm36.6-.69a2.92 2.92 0 0 0-1.21-2.48 11.63 11.63 0 0 0-4.19-1.52 20.39 20.39 0 0 1-4.75-1.53 6.83 6.83 0 0 1-2.6-2.13 5.11 5.11 0 0 1-.84-2.94 6 6 0 0 1 2.4-4.79 9.3 9.3 0 0 1 6.12-2 9.65 9.65 0 0 1 6.35 2 6.43 6.43 0 0 1 2.44 5.18h-4a3.57 3.57 0 0 0-1.32-2.73 5.16 5.16 0 0 0-3.46-1.17 5.39 5.39 0 0 0-3.36.93 3 3 0 0 0-1.18 2.45 2.39 2.39 0 0 0 1.13 2.15 13.88 13.88 0 0 0 4.08 1.39 21.55 21.55 0 0 1 4.78 1.57 7 7 0 0 1 2.71 2.21 5.38 5.38 0 0 1 .88 3.14 5.88 5.88 0 0 1-2.52 4.96 10.28 10.28 0 0 1-6.4 1.87 11.65 11.65 0 0 1-4.9-1 7.94 7.94 0 0 1-3.33-2.74 6.61 6.61 0 0 1-1.2-3.8h3.93a4.06 4.06 0 0 0 1.59 3.14 6.13 6.13 0 0 0 3.91 1.16 6.35 6.35 0 0 0 3.58-.9 2.79 2.79 0 0 0 1.36-2.42Zm28.02-5.15a13.73 13.73 0 0 1-2.41 8.47 7.68 7.68 0 0 1-6.51 3.22 8.45 8.45 0 0 1-6.6-2.66v11.09h-3.94V63.39h3.6l.19 2.55a8.09 8.09 0 0 1 6.68-3 7.85 7.85 0 0 1 6.57 3.13q2.42 3.14 2.42 8.71Zm-3.94-.45a10.24 10.24 0 0 0-1.68-6.15 5.37 5.37 0 0 0-4.56-2.26 5.78 5.78 0 0 0-5.36 3.18v11a5.8 5.8 0 0 0 5.4 3.15 5.35 5.35 0 0 0 4.52-2.24c1.12-1.5 1.68-3.72 1.68-6.68Zm19.7-7.79a11.84 11.84 0 0 0-1.94-.15 5.18 5.18 0 0 0-5.26 3.3v16.35h-3.94v-23h3.83l.07 2.66a6.13 6.13 0 0 1 5.49-3.08 4 4 0 0 1 1.75.3Zm17.38 19.5a8.41 8.41 0 0 1-.55-2.43 8.77 8.77 0 0 1-6.56 2.86 8.12 8.12 0 0 1-5.59-1.93 6.23 6.23 0 0 1-2.18-4.92 6.49 6.49 0 0 1 2.74-5.59c1.82-1.33 4.39-2 7.69-2h3.83v-1.76a4.42 4.42 0 0 0-1.23-3.29 5 5 0 0 0-3.64-1.23 5.72 5.72 0 0 0-3.53 1.07 3.14 3.14 0 0 0-1.43 2.57h-4a5.46 5.46 0 0 1 1.22-3.33 8.4 8.4 0 0 1 3.32-2.54 11.11 11.11 0 0 1 4.65-.9 9.13 9.13 0 0 1 6.24 2 7.15 7.15 0 0 1 2.34 5.48V81a12.94 12.94 0 0 0 .81 5v.34Zm-6.53-3a6.92 6.92 0 0 0 3.51-1 5.74 5.74 0 0 0 2.4-2.49v-4.68h-3.08q-7.24 0-7.24 4.23a3.6 3.6 0 0 0 1.23 2.9 4.79 4.79 0 0 0 3.18 1.04Zm35.2-2.42 4.43-17.6h3.94l-6.71 23h-3.19L379.3 69l-5.45 17.46h-3.19l-6.69-23h3.92l4.53 17.24 5.37-17.24H381Zm11.71-23.72a2.35 2.35 0 0 1 .58-1.62 2.2 2.2 0 0 1 1.74-.66 2.23 2.23 0 0 1 1.74.66 2.32 2.32 0 0 1 .6 1.62 2.21 2.21 0 0 1-.6 1.59 2.26 2.26 0 0 1-1.74.64 2.11 2.11 0 0 1-2.32-2.23Zm4.25 29.14h-3.93v-23h3.93Zm15.16.43a10.07 10.07 0 0 1-7.62-3.08 11.41 11.41 0 0 1-2.93-8.23v-.72a13.83 13.83 0 0 1 1.31-6.12 10.34 10.34 0 0 1 3.69-4.22 9.25 9.25 0 0 1 5.1-1.52 8.62 8.62 0 0 1 7 3c1.67 2 2.5 4.8 2.5 8.47V76h-15.67a8.23 8.23 0 0 0 2 5.51 6.29 6.29 0 0 0 4.85 2.09 6.84 6.84 0 0 0 3.53-.85 9 9 0 0 0 2.53-2.25l2.41 1.87a9.69 9.69 0 0 1-8.7 4.48Zm-.49-20.65a5.27 5.27 0 0 0-4 1.73 8.4 8.4 0 0 0-2 4.87h11.54v-.3a7.51 7.51 0 0 0-1.6-4.65 5 5 0 0 0-3.94-1.65Zm-157.32 61.92a13.78 13.78 0 0 1-2.41 8.52 7.75 7.75 0 0 1-6.53 3.21 7.19 7.19 0 0 1-5.64-2.43v10.86H239v-31.89h5.7l.22 2.25a7.24 7.24 0 0 1 5.83-2.68 7.79 7.79 0 0 1 6.62 3.15c1.58 2.1 2.36 5 2.36 8.69Zm-6.15-.45a9.06 9.06 0 0 0-1.14-5 3.72 3.72 0 0 0-3.31-1.75 4 4 0 0 0-4 2.22v9.43a4.09 4.09 0 0 0 4 2.28q4.45.04 4.45-7.18Zm22.66-5.51A15.77 15.77 0 0 0 274 122c-2.32 0-3.85.78-4.57 2.36v15.07h-6.13v-23h5.81l.18 2.74a5.7 5.7 0 0 1 5.13-3.17 6.21 6.21 0 0 1 1.91.28Zm9.87 12.3h11.26v5h-19.12v-3.75l10.84-14.32h-10.52v-5H297V120Zm23.81-3.75 4.26-14.32h6.6L311.53 143l-.51 1.21a7 7 0 0 1-6.81 4.52 9.67 9.67 0 0 1-2.73-.41v-4.66h.94a5.15 5.15 0 0 0 2.61-.53 3.59 3.59 0 0 0 1.35-1.77l.72-1.89-8.1-23.08h6.62Zm24.96 2.35a2 2 0 0 0-1.12-1.78 12.72 12.72 0 0 0-3.58-1.16q-8.22-1.73-8.22-7a6.33 6.33 0 0 1 2.54-5.12 10.28 10.28 0 0 1 6.65-2.06 11 11 0 0 1 7 2.07 6.5 6.5 0 0 1 2.63 5.36h-6.15a3 3 0 0 0-.86-2.18 3.56 3.56 0 0 0-2.66-.86 3.65 3.65 0 0 0-2.4.7 2.21 2.21 0 0 0-.85 1.79 1.89 1.89 0 0 0 1 1.65 9.75 9.75 0 0 0 3.26 1.08 26.2 26.2 0 0 1 3.88 1q4.88 1.78 4.87 6.19a6 6 0 0 1-2.7 5.1 11.65 11.65 0 0 1-7 1.95 12.36 12.36 0 0 1-5.15-1 8.68 8.68 0 0 1-3.52-2.84 6.58 6.58 0 0 1-1.28-3.88h5.84a3.19 3.19 0 0 0 1.21 2.51 4.82 4.82 0 0 0 3 .87 4.47 4.47 0 0 0 2.68-.67 2.07 2.07 0 0 0 .93-1.72Zm16.23 1.4h11.26v5h-19.12v-3.75l10.84-14.32h-10.52v-5H362V120Zm21.71-14.41 3-1v3.53l-3 1v15.84h-6.15v-13.79l-2.81.93V123l2.81-.94v-15.34h6.15Zm4.99 7.64a13.68 13.68 0 0 1 1.32-6.11 9.67 9.67 0 0 1 3.8-4.15 11.12 11.12 0 0 1 5.76-1.43 10.48 10.48 0 0 1 7.61 2.85 11.43 11.43 0 0 1 3.29 7.75v1.58a12 12 0 0 1-2.95 8.5 11.46 11.46 0 0 1-15.9 0c-2-2.12-3-5-3-8.68Zm6.16.44a8.63 8.63 0 0 0 1.23 5 4.44 4.44 0 0 0 7 0q1.25-1.71 1.25-5.49a8.58 8.58 0 0 0-1.25-5 4.09 4.09 0 0 0-3.54-1.77 4 4 0 0 0-3.49 1.76 9.61 9.61 0 0 0-1.18 5.5Zm31.66 4.93a2 2 0 0 0-1.12-1.78 12.72 12.72 0 0 0-3.58-1.16q-8.22-1.73-8.22-7a6.33 6.33 0 0 1 2.54-5.12 10.26 10.26 0 0 1 6.65-2.06 11 11 0 0 1 7 2.07 6.5 6.5 0 0 1 2.63 5.36h-6.15a3 3 0 0 0-.86-2.18 3.56 3.56 0 0 0-2.66-.86 3.65 3.65 0 0 0-2.4.7 2.21 2.21 0 0 0-.85 1.79 1.9 1.9 0 0 0 1 1.65 9.91 9.91 0 0 0 3.27 1.08 26.54 26.54 0 0 1 3.88 1q4.88 1.78 4.87 6.19a6 6 0 0 1-2.7 5.1 11.65 11.65 0 0 1-7 1.95 12.36 12.36 0 0 1-5.15-1 8.68 8.68 0 0 1-3.52-2.84 6.58 6.58 0 0 1-1.27-3.85h5.84a3.19 3.19 0 0 0 1.21 2.51 4.82 4.82 0 0 0 3 .87 4.42 4.42 0 0 0 2.67-.67 2.06 2.06 0 0 0 .92-1.75Zm-2.34-26.34h6.7l-5.89 6.6h-5Zm21.47 28.17a4 4 0 0 0 2.77-.94 3.23 3.23 0 0 0 1.1-2.49h5.77a7.92 7.92 0 0 1-1.27 4.29 8.42 8.42 0 0 1-3.44 3 10.76 10.76 0 0 1-4.82 1.08 10 10 0 0 1-7.8-3.14q-2.85-3.15-2.85-8.68v-.4a12.29 12.29 0 0 1 2.83-8.5 9.9 9.9 0 0 1 7.77-3.17 9.69 9.69 0 0 1 6.93 2.46 8.71 8.71 0 0 1 2.65 6.55h-5.77a4.16 4.16 0 0 0-1.1-2.92 4.11 4.11 0 0 0-6.06.44 9.07 9.07 0 0 0-1.1 5.08v.64c0 2.38.37 4.08 1.09 5.12a3.74 3.74 0 0 0 3.3 1.58Zm12.68-24.46a3 3 0 0 1 .92-2.28 4 4 0 0 1 5 0 3 3 0 0 1 .94 2.28 3 3 0 0 1-1 2.3 4 4 0 0 1-5 0 3 3 0 0 1-.86-2.3Zm6.53 29h-6.17v-23H454ZM489 126h-12.3v8.3h14.39v5.13h-20.78v-31h20.74v5.18H476.7V121H489Zm18.92 11.08a7.7 7.7 0 0 1-6.3 2.77 7.29 7.29 0 0 1-5.66-2.13c-1.29-1.42-2-3.5-2-6.24v-15.09h6.16v14.9q0 3.6 3.27 3.6c2.09 0 3.52-.73 4.31-2.18v-16.32h6.17v23h-5.79Zm23.31-14.92A15.54 15.54 0 0 0 529 122c-2.33 0-3.85.78-4.58 2.36v15.07h-6.15v-23h5.81l.17 2.74a5.72 5.72 0 0 1 5.15-3.17 6.32 6.32 0 0 1 1.92.28Zm1.65 5.53a13.68 13.68 0 0 1 1.32-6.11 9.61 9.61 0 0 1 3.8-4.15 11.07 11.07 0 0 1 5.76-1.47 10.51 10.51 0 0 1 7.61 2.85 11.52 11.52 0 0 1 3.29 7.75v1.58a12 12 0 0 1-3 8.5 11.45 11.45 0 0 1-15.89 0c-2-2.12-3-5-3-8.68Zm6.15.44a8.63 8.63 0 0 0 1.23 5 4.44 4.44 0 0 0 7 0c.84-1.14 1.25-3 1.25-5.49a8.5 8.5 0 0 0-1.25-5 4.09 4.09 0 0 0-3.53-1.77 4 4 0 0 0-3.5 1.76 9.61 9.61 0 0 0-1.23 5.5Zm39.88-.01a13.78 13.78 0 0 1-2.41 8.52 7.75 7.75 0 0 1-6.53 3.21 7.16 7.16 0 0 1-5.64-2.43v10.86h-6.15v-31.89h5.7l.22 2.25a7.24 7.24 0 0 1 5.83-2.68 7.8 7.8 0 0 1 6.62 3.15c1.58 2.1 2.36 5 2.36 8.69Zm-6.15-.45a9.06 9.06 0 0 0-1.14-5 3.72 3.72 0 0 0-3.31-1.75 4 4 0 0 0-4 2.22v9.43a4.09 4.09 0 0 0 4 2.28q4.45.04 4.45-7.18Zm17.56 3.04 4.26-14.32h6.6L591.91 143l-.51 1.21a7 7 0 0 1-6.81 4.52 9.65 9.65 0 0 1-2.72-.41v-4.66h.93a5.09 5.09 0 0 0 2.61-.53 3.48 3.48 0 0 0 1.35-1.77l.73-1.89-8.07-23.1H586Z" style="fill:#fff"/></g></svg>