<svg xmlns="http://www.w3.org/2000/svg" viewBox="0 0 602 149"><g data-name="Layer 1"><path style="fill:#164194;stroke:#fff;stroke-miterlimit:10" d="M1.44 9h211.62v131H1.44z"/><path d="m109.84 18.13 1.79 5.58 5.85-.02-4.75 3.42 1.83 5.56-4.72-3.46-4.73 3.46 1.84-5.56-4.76-3.42 5.86.02 1.79-5.58zm0 96.52 1.79 5.58 5.85-.03-4.75 3.43 1.83 5.56-4.72-3.47-4.73 3.47 1.84-5.56-4.76-3.43 5.86.03 1.79-5.58zm-24.01-90.1 1.79 5.58 5.86-.02-4.76 3.42 1.84 5.56-4.73-3.46-4.72 3.46 1.83-5.56-4.75-3.42 5.86.02 1.78-5.58zM68.16 42.26l1.78 5.58 5.86-.03-4.75 3.43 1.83 5.56-4.72-3.46-4.73 3.46 1.84-5.56-4.76-3.43 5.86.03 1.79-5.58zm-6.52 24.07 1.79 5.58 5.86-.03-4.76 3.43 1.84 5.56-4.73-3.46-4.72 3.46 1.83-5.56L54 71.88l5.85.03 1.79-5.58zm6.45 24.08 1.79 5.58 5.86-.03-4.76 3.43 1.84 5.56-4.73-3.47-4.72 3.47 1.83-5.56-4.75-3.43 5.86.03 1.78-5.58zm17.74 17.7 1.79 5.58 5.86-.02-4.76 3.42 1.84 5.56-4.73-3.46-4.72 3.46 1.83-5.56-4.75-3.42 5.86.02 1.78-5.58zm48.04-83.56-1.79 5.58-5.86-.02 4.76 3.42-1.84 5.56 4.73-3.46 4.72 3.46-1.83-5.56 4.75-3.42-5.86.02-1.78-5.58zm17.67 17.71-1.79 5.58-5.85-.03 4.75 3.43-1.83 5.56 4.72-3.46 4.73 3.46-1.84-5.56 4.76-3.43-5.86.03-1.79-5.58zm6.52 24.07-1.79 5.58-5.86-.03 4.76 3.43-1.84 5.56 4.73-3.46 4.72 3.46-1.83-5.56 4.75-3.43-5.86.03-1.78-5.58zm-6.45 24.08-1.79 5.58-5.86-.03 4.76 3.43-1.84 5.56 4.73-3.47 4.72 3.47-1.83-5.56 4.75-3.43-5.86.03-1.78-5.58zm-17.74 17.7-1.79 5.58-5.86-.02 4.76 3.42-1.84 5.56 4.73-3.46 4.72 3.46-1.83-5.56 4.75-3.42-5.86.02-1.78-5.58z" style="fill:#ffed00"/><path d="m247.16 19.23-3.79 3.94v10.48h-4.08v-31h4.08V18l13.78-15.35h4.94l-12.2 13.69L263 33.65h-4.89Zm16.37 2.69a13.55 13.55 0 0 1 1.33-6.09 9.87 9.87 0 0 1 3.7-4.18 10.07 10.07 0 0 1 5.44-1.46 9.71 9.71 0 0 1 7.61 3.25 12.52 12.52 0 0 1 2.91 8.67v.27a13.7 13.7 0 0 1-1.29 6 9.76 9.76 0 0 1-3.69 4.16 10.21 10.21 0 0 1-5.5 1.49 9.67 9.67 0 0 1-7.59-3.26 12.44 12.44 0 0 1-2.9-8.62Zm4 .46a9.9 9.9 0 0 0 1.77 6.16 6 6 0 0 0 9.53 0 10.73 10.73 0 0 0 1.77-6.58 9.85 9.85 0 0 0-1.8-6.15 5.74 5.74 0 0 0-4.8-2.39 5.66 5.66 0 0 0-4.71 2.32q-1.8 2.32-1.8 6.64Zm25.15-11.77.13 2.9a8.38 8.38 0 0 1 6.9-3.32q7.29 0 7.36 8.23v15.23h-3.94V18.4a5.24 5.24 0 0 0-1.13-3.68 4.53 4.53 0 0 0-3.48-1.19 5.71 5.71 0 0 0-3.36 1 7 7 0 0 0-2.26 2.68v16.44H289v-23ZM314 33.65v-20h-3.64v-3H314v-2.4a7.85 7.85 0 0 1 2-5.73 7.46 7.46 0 0 1 5.6-2 10.38 10.38 0 0 1 2.7.36L324.08 4a11.18 11.18 0 0 0-2.08-.16A3.82 3.82 0 0 0 319 5a4.54 4.54 0 0 0-1 3.22v2.43h4.91v3H318v20Zm21.47.42a10.07 10.07 0 0 1-7.63-3.07 11.48 11.48 0 0 1-2.93-8.23V22a13.75 13.75 0 0 1 1.31-6.12 10.17 10.17 0 0 1 3.66-4.21 9.17 9.17 0 0 1 5.1-1.52 8.63 8.63 0 0 1 7 3c1.66 2 2.49 4.8 2.49 8.48v1.64h-15.6a8.15 8.15 0 0 0 2 5.5 6.24 6.24 0 0 0 4.84 2.1 6.91 6.91 0 0 0 3.53-.85 8.92 8.92 0 0 0 2.54-2.26l2.4 1.87a9.66 9.66 0 0 1-8.71 4.44ZM335 13.42a5.26 5.26 0 0 0-4 1.74 8.48 8.48 0 0 0-2 4.84h11.54v-.3a7.45 7.45 0 0 0-1.62-4.65 4.93 4.93 0 0 0-3.92-1.63Zm24.93.72A13.11 13.11 0 0 0 358 14a5.19 5.19 0 0 0-5.26 3.3v16.35h-3.94v-23h3.83l.07 2.66a6.12 6.12 0 0 1 5.49-3.08 4 4 0 0 1 1.75.29Zm12.4 19.93a10.07 10.07 0 0 1-7.62-3.07 11.44 11.44 0 0 1-2.94-8.23V22a13.89 13.89 0 0 1 1.31-6.12 10.31 10.31 0 0 1 3.66-4.21 9.17 9.17 0 0 1 5.1-1.52 8.64 8.64 0 0 1 7 3c1.66 2 2.49 4.8 2.49 8.48v1.64h-15.62a8.2 8.2 0 0 0 2 5.5 6.26 6.26 0 0 0 4.85 2.1 6.94 6.94 0 0 0 3.53-.85 8.88 8.88 0 0 0 2.53-2.26l2.38 1.86a9.67 9.67 0 0 1-8.67 4.45Zm-.49-20.65a5.24 5.24 0 0 0-4 1.74 8.41 8.41 0 0 0-2 4.86h11.54v-.3a7.51 7.51 0 0 0-1.62-4.65 5 5 0 0 0-3.92-1.65Zm17.54-2.81.13 2.9a8.38 8.38 0 0 1 6.9-3.32q7.3 0 7.37 8.23v15.23h-3.94V18.4a5.34 5.34 0 0 0-1.14-3.68 4.56 4.56 0 0 0-3.48-1.19 5.72 5.72 0 0 0-3.37 1 6.93 6.93 0 0 0-2.25 2.68v16.44h-3.94v-23Zm23.1 19.82H426v3.22h-18.33v-2.9l12.71-16.88h-12.52v-3.26h17.46v2.79Zm-170.11 53h13.48v3.22h-18.29v-2.9l12.71-16.88h-12.52v-3.26h17.46v2.79Zm31.09.94q-2.29 2.7-6.74 2.7a7.14 7.14 0 0 1-5.61-2.14c-1.29-1.42-1.94-3.54-1.95-6.33v-15h3.94v14.89q0 5.24 4.25 5.24 4.51 0 6-3.36V63.61h3.94v23h-3.75ZM294 67.14a12.87 12.87 0 0 0-2-.14 5.18 5.18 0 0 0-5.26 3.3v16.35h-3.94v-23h3.83l.06 2.66a6.14 6.14 0 0 1 5.5-3.08 4 4 0 0 1 1.74.29Zm20.94 14.37h15.63v5.14H307V82.9l15.33-22.08H307v-5.17h23.25v3.66Zm32.41 2.79a7.68 7.68 0 0 1-6.3 2.77 7.27 7.27 0 0 1-5.65-2.13q-1.95-2.13-2-6.24V63.61h6.15v14.9c0 2.4 1.1 3.6 3.28 3.6s3.52-.72 4.3-2.17V63.61h6.18v23h-5.79Zm18.74-6.89-2.21 2.21v7h-6.15V54h6.15v18.06l1.19-1.53 5.9-6.92h7.39l-8.36 9.6 9.05 13.44H372Zm28.51 6.89a7.7 7.7 0 0 1-6.3 2.77 7.27 7.27 0 0 1-5.65-2.13q-1.95-2.13-2-6.24V63.61h6.15v14.9q0 3.6 3.28 3.6t4.3-2.17V63.61h6.17v23h-5.79Zm16.11-20.69.19 2.66a8 8 0 0 1 6.62-3.08c2.44 0 4.26.71 5.45 2.15s1.8 3.57 1.83 6.42v14.89h-6.15V71.91a4 4 0 0 0-.85-2.84 3.83 3.83 0 0 0-2.84-.88 4.23 4.23 0 0 0-3.89 2.21v16.25h-6.15v-23Zm19.84 23.04V68.12h-3.43v-4.51h3.43v-2a8 8 0 0 1 2.22-6A8.6 8.6 0 0 1 439 53.5a14.63 14.63 0 0 1 3.13.42l-.07 4.77a8.22 8.22 0 0 0-1.87-.19q-3.46 0-3.47 3.26v1.85h4.58v4.51h-4.58v18.53ZM452.42 58v5.66h3.94v4.51h-3.94v11.5a2.78 2.78 0 0 0 .49 1.83 2.47 2.47 0 0 0 1.88.55 10.83 10.83 0 0 0 1.81-.14v4.66a12.66 12.66 0 0 1-3.73.55q-6.47 0-6.6-6.53V68.12h-3.36v-4.51h3.36V58ZM257.1 126.21h-12.26v8.3h14.39v5.14h-20.77v-31h20.73v5.17h-14.35v7.39h12.26Zm18.96 11.09a7.7 7.7 0 0 1-6.3 2.77 7.27 7.27 0 0 1-5.65-2.13q-2-2.13-2-6.24v-15.09h6.15v14.9q0 3.6 3.28 3.6c2.08 0 3.52-.72 4.3-2.17v-16.33H282v23h-5.79Zm23.32-14.92a17.44 17.44 0 0 0-2.22-.17q-3.5 0-4.57 2.36v15.08h-6.16v-23h5.81l.18 2.75a5.68 5.68 0 0 1 5.13-3.17 6.53 6.53 0 0 1 1.91.27Zm1.62 5.54a13.62 13.62 0 0 1 1.32-6.11 9.7 9.7 0 0 1 3.8-4.16 11.06 11.06 0 0 1 5.76-1.46 10.5 10.5 0 0 1 7.61 2.85 11.43 11.43 0 0 1 3.29 7.75v1.57a12.06 12.06 0 0 1-3 8.51 11.48 11.48 0 0 1-15.89 0q-3-3.19-3-8.69Zm6.15.43a8.55 8.55 0 0 0 1.24 5 4.43 4.43 0 0 0 7 0q1.26-1.71 1.26-5.49a8.46 8.46 0 0 0-1.26-5 4.07 4.07 0 0 0-3.53-1.77 4 4 0 0 0-3.49 1.75 9.54 9.54 0 0 0-1.2 5.51Zm39.91-.01a13.84 13.84 0 0 1-2.42 8.53 7.76 7.76 0 0 1-6.52 3.2 7.2 7.2 0 0 1-5.65-2.43v10.86h-6.15v-31.89H332l.21 2.26a7.22 7.22 0 0 1 5.83-2.68 7.79 7.79 0 0 1 6.62 3.15q2.37 3.15 2.37 8.68Zm-6.16-.45a9.17 9.17 0 0 0-1.13-5 3.72 3.72 0 0 0-3.31-1.74 4 4 0 0 0-4 2.21v9.43a4.11 4.11 0 0 0 4 2.28c2.98.04 4.44-2.36 4.44-7.18Zm22.88 11.76a7.13 7.13 0 0 1-.62-2.07 7.43 7.43 0 0 1-5.81 2.49 8.15 8.15 0 0 1-5.61-2 6.29 6.29 0 0 1-2.22-4.94 6.51 6.51 0 0 1 2.71-5.62q2.72-2 7.85-2h2.83v-1.32a3.83 3.83 0 0 0-.82-2.55 3.23 3.23 0 0 0-2.59-1 3.65 3.65 0 0 0-2.44.75 2.5 2.5 0 0 0-.88 2H350a6.18 6.18 0 0 1 1.23-3.7 8.18 8.18 0 0 1 3.49-2.68 12.87 12.87 0 0 1 5.07-1 10.09 10.09 0 0 1 6.76 2.13 7.5 7.5 0 0 1 2.5 6v10a11 11 0 0 0 .92 5v.37Zm-5.09-4.28a5.32 5.32 0 0 0 2.51-.61 4 4 0 0 0 1.71-1.63v-4h-2.3c-3.08 0-4.72 1.07-4.92 3.19v.37a2.47 2.47 0 0 0 .81 1.89 3.13 3.13 0 0 0 2.19.79Zm27.08-2.09a2 2 0 0 0-1.12-1.78 12.7 12.7 0 0 0-3.59-1.16q-8.22-1.72-8.21-7a6.32 6.32 0 0 1 2.54-5.12 10.26 10.26 0 0 1 6.65-2 11 11 0 0 1 7 2.06 6.52 6.52 0 0 1 2.63 5.36h-6.16a3 3 0 0 0-.85-2.18 4.51 4.51 0 0 0-5.06-.16 2.23 2.23 0 0 0-.86 1.79 1.91 1.91 0 0 0 1 1.65 10.11 10.11 0 0 0 3.26 1.06 27 27 0 0 1 3.88 1c3.24 1.19 4.87 3.26 4.87 6.19a6 6 0 0 1-2.7 5.1 11.68 11.68 0 0 1-7 1.95 12.16 12.16 0 0 1-5.14-1 8.59 8.59 0 0 1-3.52-2.83 6.61 6.61 0 0 1-1.28-3.89H378a3.18 3.18 0 0 0 1.21 2.51 4.76 4.76 0 0 0 3 .88 4.49 4.49 0 0 0 2.67-.67 2.09 2.09 0 0 0 .89-1.76Z" style="fill:#fff"/></g></svg>