<svg xmlns="http://www.w3.org/2000/svg" viewBox="0 0 602 149"><g data-name="Layer 1"><path style="fill:#164194;stroke:#fff;stroke-miterlimit:10" d="M1.44 9h211.62v131H1.44z"/><path d="m109.84 18.13 1.79 5.58 5.85-.02-4.75 3.42 1.83 5.56-4.72-3.46-4.73 3.46 1.84-5.56-4.76-3.42 5.86.02 1.79-5.58zm0 96.52 1.79 5.58 5.85-.03-4.75 3.43 1.83 5.56-4.72-3.47-4.73 3.47 1.84-5.56-4.76-3.43 5.86.03 1.79-5.58zm-24.01-90.1 1.79 5.58 5.86-.02-4.76 3.42 1.84 5.56-4.73-3.46-4.72 3.46 1.83-5.56-4.75-3.42 5.86.02 1.78-5.58zM68.16 42.26l1.78 5.58 5.86-.03-4.75 3.43 1.83 5.56-4.72-3.46-4.73 3.46 1.84-5.56-4.76-3.43 5.86.03 1.79-5.58zm-6.52 24.07 1.79 5.58 5.86-.03-4.76 3.43 1.84 5.56-4.73-3.46-4.72 3.46 1.83-5.56L54 71.88l5.85.03 1.79-5.58zm6.45 24.08 1.79 5.58 5.86-.03-4.76 3.43 1.84 5.56-4.73-3.47-4.72 3.47 1.83-5.56-4.75-3.43 5.86.03 1.78-5.58zm17.74 17.7 1.79 5.58 5.86-.02-4.76 3.42 1.84 5.56-4.73-3.46-4.72 3.46 1.83-5.56-4.75-3.42 5.86.02 1.78-5.58zm48.04-83.56-1.79 5.58-5.86-.02 4.76 3.42-1.84 5.56 4.73-3.46 4.72 3.46-1.83-5.56 4.75-3.42-5.86.02-1.78-5.58zm17.67 17.71-1.79 5.58-5.85-.03 4.75 3.43-1.83 5.56 4.72-3.46 4.73 3.46-1.84-5.56 4.76-3.43-5.86.03-1.79-5.58zm6.52 24.07-1.79 5.58-5.86-.03 4.76 3.43-1.84 5.56 4.73-3.46 4.72 3.46-1.83-5.56 4.75-3.43-5.86.03-1.78-5.58zm-6.45 24.08-1.79 5.58-5.86-.03 4.76 3.43-1.84 5.56 4.73-3.47 4.72 3.47-1.83-5.56 4.75-3.43-5.86.03-1.78-5.58zm-17.74 17.7-1.79 5.58-5.86-.02 4.76 3.42-1.84 5.56 4.73-3.46 4.72 3.46-1.83-5.56 4.75-3.42-5.86.02-1.78-5.58z" style="fill:#ffed00"/><path d="M261.94 23.81a11.46 11.46 0 0 1-3.63 7.59 11.92 11.92 0 0 1-8.12 2.67 10.92 10.92 0 0 1-8.81-3.94q-3.3-3.93-3.31-10.54v-3A17.66 17.66 0 0 1 239.62 9 11.52 11.52 0 0 1 244 4a12.19 12.19 0 0 1 6.56-1.76A11.2 11.2 0 0 1 258.47 5a11.59 11.59 0 0 1 3.47 7.63h-4.11a9 9 0 0 0-2.31-5.38 7 7 0 0 0-5-1.66 7.31 7.31 0 0 0-6.14 2.89c-1.49 1.94-2.23 4.68-2.23 8.25v3a13.66 13.66 0 0 0 2.11 8 6.82 6.82 0 0 0 5.9 3 7.89 7.89 0 0 0 5.22-1.54c1.22-1 2-2.83 2.42-5.38Zm3.7-1.89a13.55 13.55 0 0 1 1.36-6.09 9.89 9.89 0 0 1 3.71-4.18 10 10 0 0 1 5.41-1.46 9.7 9.7 0 0 1 7.61 3.25 12.52 12.52 0 0 1 2.91 8.67v.27a13.7 13.7 0 0 1-1.29 6 9.74 9.74 0 0 1-3.68 4.16 10.23 10.23 0 0 1-5.5 1.49 9.64 9.64 0 0 1-7.59-3.26 12.44 12.44 0 0 1-2.91-8.62Zm4 .46a9.84 9.84 0 0 0 1.78 6.16 6 6 0 0 0 9.53 0 10.79 10.79 0 0 0 1.76-6.58 9.85 9.85 0 0 0-1.8-6.15 5.74 5.74 0 0 0-4.78-2.35 5.64 5.64 0 0 0-4.7 2.32 10.71 10.71 0 0 0-1.83 6.6Zm25.16-11.77.12 2.9a8.38 8.38 0 0 1 6.9-3.32q7.31 0 7.37 8.23v15.23h-3.94V18.4a5.34 5.34 0 0 0-1.14-3.68 4.56 4.56 0 0 0-3.48-1.19 5.66 5.66 0 0 0-3.36 1 6.87 6.87 0 0 0-2.27 2.7v16.42h-3.94v-23Zm21.32 23.04v-20h-3.64v-3.04h3.64V8.25a7.85 7.85 0 0 1 2-5.73 7.48 7.48 0 0 1 5.6-2 10.46 10.46 0 0 1 2.71.36L326.19 4a11 11 0 0 0-2.13-.19 3.85 3.85 0 0 0-3 1.12 4.58 4.58 0 0 0-1 3.22v2.43H325v3.05h-4.92v20Zm21.46.42A10.07 10.07 0 0 1 330 31a11.44 11.44 0 0 1-3-8.23V22a13.89 13.89 0 0 1 1.31-6.12 10.17 10.17 0 0 1 3.69-4.17 9.17 9.17 0 0 1 5.1-1.52 8.62 8.62 0 0 1 7 3c1.67 2 2.5 4.8 2.5 8.48v1.64H331a8.2 8.2 0 0 0 2 5.5 6.26 6.26 0 0 0 4.84 2.1 7 7 0 0 0 3.54-.85 8.88 8.88 0 0 0 2.53-2.26l2.41 1.87a9.67 9.67 0 0 1-8.74 4.4Zm-.49-20.65a5.24 5.24 0 0 0-4 1.74 8.34 8.34 0 0 0-2 4.86h11.54v-.3a7.57 7.57 0 0 0-1.63-4.65 5 5 0 0 0-3.91-1.65Zm24.91.72a12.91 12.91 0 0 0-1.9-.14 5.18 5.18 0 0 0-5.25 3.3v16.35h-3.94v-23h3.83l.06 2.66a6.13 6.13 0 0 1 5.5-3.08 4 4 0 0 1 1.74.29Zm12.45 19.93a10.07 10.07 0 0 1-7.62-3.07 11.44 11.44 0 0 1-2.94-8.23V22a13.89 13.89 0 0 1 1.31-6.12 10.17 10.17 0 0 1 3.66-4.21 9.17 9.17 0 0 1 5.1-1.52 8.63 8.63 0 0 1 7 3c1.66 2 2.49 4.8 2.49 8.48v1.64h-15.6a8.15 8.15 0 0 0 2 5.5 6.24 6.24 0 0 0 4.84 2.1 7 7 0 0 0 3.51-.87 9 9 0 0 0 2.53-2.26l2.4 1.87a9.66 9.66 0 0 1-8.68 4.46ZM374 13.42a5.23 5.23 0 0 0-4 1.74 8.34 8.34 0 0 0-2 4.84h11.53v-.3a7.51 7.51 0 0 0-1.61-4.65 5 5 0 0 0-3.92-1.63Zm17.5-2.81.13 2.9a8.38 8.38 0 0 1 6.9-3.32q7.29 0 7.36 8.23v15.23H402V18.4a5.24 5.24 0 0 0-1.14-3.68 4.53 4.53 0 0 0-3.48-1.19 5.69 5.69 0 0 0-3.36 1 6.87 6.87 0 0 0-2.26 2.68v16.44h-3.94v-23Zm29.1 20.25a5.69 5.69 0 0 0 3.69-1.28 4.48 4.48 0 0 0 1.71-3.19h3.73a7.16 7.16 0 0 1-1.36 3.76A9 9 0 0 1 425 33a9.62 9.62 0 0 1-4.44 1.06 9.5 9.5 0 0 1-7.48-3.14c-1.85-2.09-2.78-5-2.78-8.59v-.66a13.75 13.75 0 0 1 1.24-6 9.39 9.39 0 0 1 3.54-4.07 10.11 10.11 0 0 1 5.46-1.44 9.21 9.21 0 0 1 6.46 2.35 8.3 8.3 0 0 1 2.74 6H426a5.43 5.43 0 0 0-1.69-3.67 5.26 5.26 0 0 0-3.76-1.44 5.51 5.51 0 0 0-4.65 2.16 10.14 10.14 0 0 0-1.65 6.25v.75a10 10 0 0 0 1.64 6.13 5.54 5.54 0 0 0 4.71 2.17ZM433.76 4.5a2.36 2.36 0 0 1 .59-1.62 2.2 2.2 0 0 1 1.73-.66 2.24 2.24 0 0 1 1.75.66 2.32 2.32 0 0 1 .6 1.62 2.25 2.25 0 0 1-.6 1.6 2.3 2.3 0 0 1-1.75.64 2.26 2.26 0 0 1-1.73-.64 2.29 2.29 0 0 1-.59-1.6ZM438 33.65h-3.94v-23H438Zm19.66 0a8.51 8.51 0 0 1-.56-2.43 8.78 8.78 0 0 1-6.55 2.85 8.1 8.1 0 0 1-5.55-1.93 6.2 6.2 0 0 1-2.18-4.88 6.52 6.52 0 0 1 2.73-5.59c1.83-1.33 4.39-2 7.7-2H457v-1.8a4.44 4.44 0 0 0-1.23-3.29 5 5 0 0 0-3.64-1.22 5.74 5.74 0 0 0-3.54 1.06 3.14 3.14 0 0 0-1.38 2.58h-4a5.4 5.4 0 0 1 1.22-3.33 8.35 8.35 0 0 1 3.32-2.55 11.27 11.27 0 0 1 4.61-.93 9.11 9.11 0 0 1 6.24 2 7.19 7.19 0 0 1 2.4 5.47v10.6a12.9 12.9 0 0 0 .81 5v.35Zm-6.54-3a7 7 0 0 0 3.52-.95 5.82 5.82 0 0 0 2.4-2.5v-4.73H454q-7.23 0-7.23 4.24A3.58 3.58 0 0 0 448 29.6a4.71 4.71 0 0 0 3.12 1.04ZM251.93 80.54a2.88 2.88 0 0 0-1.2-2.48 11.6 11.6 0 0 0-4.2-1.53 19.39 19.39 0 0 1-4.74-1.53 6.83 6.83 0 0 1-2.6-2.13 5.09 5.09 0 0 1-.84-2.94 6 6 0 0 1 2.39-4.79 9.39 9.39 0 0 1 6.12-2 9.62 9.62 0 0 1 6.36 2 6.44 6.44 0 0 1 2.44 5.17h-4a3.55 3.55 0 0 0-1.38-2.79 5.12 5.12 0 0 0-3.46-1.17 5.35 5.35 0 0 0-3.36.94 2.94 2.94 0 0 0-1.21 2.45 2.38 2.38 0 0 0 1.17 2.26 14 14 0 0 0 4.07 1.38 21.16 21.16 0 0 1 4.78 1.58 7 7 0 0 1 2.72 2.2 5.4 5.4 0 0 1 .88 3.14 5.88 5.88 0 0 1-2.47 4.95 10.37 10.37 0 0 1-6.4 1.82 11.63 11.63 0 0 1-4.89-1 8 8 0 0 1-3.34-2.73 6.61 6.61 0 0 1-1.2-3.8h3.94a4.08 4.08 0 0 0 1.59 3.14 6.14 6.14 0 0 0 3.9 1.16 6.3 6.3 0 0 0 3.59-.91 2.78 2.78 0 0 0 1.34-2.39Zm7.27-5.62a13.69 13.69 0 0 1 1.33-6.09 10 10 0 0 1 3.71-4.18 10.07 10.07 0 0 1 5.42-1.46 9.72 9.72 0 0 1 7.61 3.25 12.57 12.57 0 0 1 2.9 8.67v.27a13.84 13.84 0 0 1-1.28 6 9.76 9.76 0 0 1-3.69 4.16 10.21 10.21 0 0 1-5.5 1.49 9.67 9.67 0 0 1-7.59-3.26 12.44 12.44 0 0 1-2.91-8.62Zm4 .46a9.91 9.91 0 0 0 1.78 6.16 6 6 0 0 0 9.53 0 10.73 10.73 0 0 0 1.76-6.58 9.91 9.91 0 0 0-1.79-6.15 5.75 5.75 0 0 0-4.78-2.35 5.65 5.65 0 0 0-4.7 2.28 10.71 10.71 0 0 0-1.84 6.64Zm40.93 0a13.77 13.77 0 0 1-2.42 8.49 7.77 7.77 0 0 1-6.52 3.2 8 8 0 0 1-6.75-3.07l-.19 2.67h-3.62V54h3.94v12.14a8 8 0 0 1 6.58-3 7.79 7.79 0 0 1 6.59 3.17c1.6 2.11 2.39 5 2.39 8.68Zm-3.93-.44a10.6 10.6 0 0 0-1.56-6.22 5.16 5.16 0 0 0-4.47-2.19 5.78 5.78 0 0 0-5.6 3.62v10a6 6 0 0 0 5.64 3.62 5.12 5.12 0 0 0 4.41-2.19q1.58-2.25 1.58-6.64Zm19.68-7.8a13.11 13.11 0 0 0-1.94-.14 5.18 5.18 0 0 0-5.26 3.3v16.35h-3.94v-23h3.83l.07 2.66a6.12 6.12 0 0 1 5.49-3.08 4 4 0 0 1 1.75.29Zm12.4 19.93a10.07 10.07 0 0 1-7.62-3.07 11.44 11.44 0 0 1-2.94-8.23V75a13.89 13.89 0 0 1 1.28-6.08 10.17 10.17 0 0 1 3.66-4.21 9.17 9.17 0 0 1 5.1-1.52 8.62 8.62 0 0 1 7 3c1.66 2 2.5 4.8 2.5 8.48v1.64h-15.6a8.2 8.2 0 0 0 2 5.5 6.26 6.26 0 0 0 4.84 2.1A7 7 0 0 0 336 83a8.88 8.88 0 0 0 2.53-2.26l2.47 1.88a9.67 9.67 0 0 1-8.72 4.45Zm-.49-20.65a5.24 5.24 0 0 0-4 1.74 8.34 8.34 0 0 0-2 4.86h11.54v-.3a7.57 7.57 0 0 0-1.62-4.65 5 5 0 0 0-3.92-1.65Zm34.38 20.65a10.07 10.07 0 0 1-7.62-3.07 11.44 11.44 0 0 1-2.94-8.23V75a13.89 13.89 0 0 1 1.31-6.12 10.31 10.31 0 0 1 3.66-4.21 9.17 9.17 0 0 1 5.1-1.52 8.64 8.64 0 0 1 7 3c1.66 2 2.49 4.8 2.49 8.48v1.64h-15.62a8.2 8.2 0 0 0 2 5.5 6.26 6.26 0 0 0 4.85 2.1 6.94 6.94 0 0 0 3.53-.85 8.88 8.88 0 0 0 2.53-2.26l2.41 1.87a9.67 9.67 0 0 1-8.7 4.44Zm-.49-20.65a5.24 5.24 0 0 0-4 1.74 8.41 8.41 0 0 0-2 4.86h11.54v-.3a7.51 7.51 0 0 0-1.62-4.65 4.94 4.94 0 0 0-3.92-1.65Zm17.96 20.23h-3.93V54h3.93ZM419.17 74h-12.26v12.65h-6.38v-31h20.18v5.17h-13.8v8h12.26Zm17.48 10.3a7.7 7.7 0 0 1-6.3 2.77 7.27 7.27 0 0 1-5.65-2.13q-1.95-2.13-2-6.24V63.61h6.15v14.9q0 3.6 3.28 3.6c2.08 0 3.52-.72 4.3-2.17V63.61h6.17v23h-5.79ZM454.42 58v5.66h3.94v4.51h-3.94v11.5a2.78 2.78 0 0 0 .49 1.83 2.47 2.47 0 0 0 1.88.55 10.83 10.83 0 0 0 1.81-.14v4.66a12.66 12.66 0 0 1-3.73.55q-6.47 0-6.6-6.53V68.12h-3.36v-4.51h3.36V58Zm20.66 26.3a7.7 7.7 0 0 1-6.3 2.77 7.27 7.27 0 0 1-5.65-2.13q-2-2.13-2-6.24V63.61h6.15v14.9q0 3.6 3.28 3.6t4.3-2.17V63.61H481v23h-5.79Zm23.32-14.92a17.44 17.44 0 0 0-2.22-.17c-2.32 0-3.85.79-4.57 2.36v15.08h-6.16v-23h5.82l.17 2.75a5.68 5.68 0 0 1 5.13-3.17 6.53 6.53 0 0 1 1.91.27Zm1.6 5.54a13.62 13.62 0 0 1 1.32-6.11 9.7 9.7 0 0 1 3.8-4.16 11.06 11.06 0 0 1 5.76-1.46 10.48 10.48 0 0 1 7.65 2.81 11.43 11.43 0 0 1 3.29 7.75v1.57a12 12 0 0 1-3 8.51 11.48 11.48 0 0 1-15.89 0q-3-3.19-3-8.69Zm6.15.43a8.63 8.63 0 0 0 1.24 5 4.43 4.43 0 0 0 7 0q1.26-1.71 1.26-5.49a8.46 8.46 0 0 0-1.26-5 4.07 4.07 0 0 0-3.53-1.77 4 4 0 0 0-3.49 1.75 9.63 9.63 0 0 0-1.18 5.51Zm-268.59 52.59a13.52 13.52 0 0 1 2.51-8.53 8.56 8.56 0 0 1 13-.46V107H257v32.7h-3.62l-.19-2.47a8 8 0 0 1-6.58 2.89 7.87 7.87 0 0 1-6.53-3.28 13.65 13.65 0 0 1-2.52-8.56Zm3.94.44a10.17 10.17 0 0 0 1.62 6.13 5.23 5.23 0 0 0 4.47 2.22 5.74 5.74 0 0 0 5.47-3.36v-10.59a5.79 5.79 0 0 0-5.43-3.25 5.25 5.25 0 0 0-4.51 2.23q-1.62 2.24-1.62 6.62Zm30.67 11.69a10.07 10.07 0 0 1-7.62-3.07 11.43 11.43 0 0 1-2.93-8.23V128a13.89 13.89 0 0 1 1.3-6.12 10.26 10.26 0 0 1 3.67-4.21 9.13 9.13 0 0 1 5.1-1.52 8.63 8.63 0 0 1 7 3c1.66 2 2.49 4.8 2.49 8.48v1.64h-15.63a8.2 8.2 0 0 0 2 5.5 6.26 6.26 0 0 0 4.85 2.1 6.91 6.91 0 0 0 3.53-.85 8.75 8.75 0 0 0 2.53-2.26l2.41 1.87a9.67 9.67 0 0 1-8.7 4.44Zm-.48-20.65a5.26 5.26 0 0 0-4 1.74 8.41 8.41 0 0 0-2 4.86h11.54v-.3a7.45 7.45 0 0 0-1.62-4.65 4.93 4.93 0 0 0-3.92-1.65Zm43.25 6.75h-12.26v8.34h14.39v5.14h-20.78v-31H317v5.17h-14.32v7.39h12.26Zm18.96 11.13a7.7 7.7 0 0 1-6.3 2.77 7.27 7.27 0 0 1-5.65-2.13c-1.3-1.42-2-3.5-2-6.24v-15.09h6.15v14.9q0 3.6 3.28 3.6c2.08 0 3.52-.72 4.3-2.17v-16.33h6.17v23h-5.79Zm23.32-14.92a17.44 17.44 0 0 0-2.22-.17c-2.33 0-3.85.79-4.58 2.36v15.08h-6.15v-23h5.81l.17 2.75a5.7 5.7 0 0 1 5.14-3.17 6.53 6.53 0 0 1 1.91.27Zm1.64 5.54a13.62 13.62 0 0 1 1.32-6.11 9.7 9.7 0 0 1 3.8-4.16 11.06 11.06 0 0 1 5.76-1.46 10.5 10.5 0 0 1 7.61 2.85 11.48 11.48 0 0 1 3.29 7.75v1.57a12.06 12.06 0 0 1-3 8.51 11.48 11.48 0 0 1-15.89 0q-3-3.19-3-8.69Zm6.15.43a8.55 8.55 0 0 0 1.24 5 4.43 4.43 0 0 0 7 0q1.26-1.71 1.26-5.49a8.46 8.46 0 0 0-1.26-5 4.08 4.08 0 0 0-3.53-1.77 4 4 0 0 0-3.49 1.75 9.54 9.54 0 0 0-1.23 5.51Zm39.89-.01a13.84 13.84 0 0 1-2.42 8.53 7.76 7.76 0 0 1-6.52 3.2 7.2 7.2 0 0 1-5.65-2.43v10.86h-6.15v-31.89h5.71l.21 2.26a7.22 7.22 0 0 1 5.83-2.68 7.79 7.79 0 0 1 6.62 3.15q2.37 3.15 2.37 8.68Zm-6.16-.47a9.07 9.07 0 0 0-1.14-5 3.69 3.69 0 0 0-3.31-1.75 4 4 0 0 0-4 2.22v9.46a4.11 4.11 0 0 0 4 2.28q4.45.03 4.45-7.21Zm22.88 11.78a7.13 7.13 0 0 1-.62-2.07 7.45 7.45 0 0 1-5.81 2.49 8.15 8.15 0 0 1-5.61-2 6.29 6.29 0 0 1-2.22-4.94 6.51 6.51 0 0 1 2.71-5.62c1.81-1.3 4.42-2 7.85-2h2.83v-1.32a3.83 3.83 0 0 0-.82-2.55 3.23 3.23 0 0 0-2.59-1 3.65 3.65 0 0 0-2.44.75 2.5 2.5 0 0 0-.88 2h-6.15a6.18 6.18 0 0 1 1.23-3.7 8.18 8.18 0 0 1 3.49-2.68 12.87 12.87 0 0 1 5.07-1 10.09 10.09 0 0 1 6.76 2.13 7.5 7.5 0 0 1 2.5 6v10a10.88 10.88 0 0 0 .92 5v.37Zm-5.09-4.28a5.32 5.32 0 0 0 2.51-.61 4 4 0 0 0 1.71-1.63v-4h-2.3c-3.08 0-4.72 1.07-4.92 3.19v.37a2.47 2.47 0 0 0 .81 1.89 3.11 3.11 0 0 0 2.19.79Z" style="fill:#fff"/></g></svg>