<svg xmlns="http://www.w3.org/2000/svg" viewBox="0 0 602 149"><g data-name="Layer 1"><path style="fill:#164194;stroke:#fff;stroke-miterlimit:10" d="M1.44 9h211.62v131H1.44z"/><path d="m109.84 18.13 1.79 5.58 5.85-.02-4.75 3.42 1.83 5.56-4.72-3.46-4.73 3.46 1.84-5.56-4.76-3.42 5.86.02 1.79-5.58zm0 96.52 1.79 5.58 5.85-.03-4.75 3.43 1.83 5.56-4.72-3.47-4.73 3.47 1.84-5.56-4.76-3.43 5.86.03 1.79-5.58zm-24.01-90.1 1.79 5.58 5.86-.02-4.76 3.42 1.84 5.56-4.73-3.46-4.72 3.46 1.83-5.56-4.75-3.42 5.86.02 1.78-5.58zM68.16 42.26l1.78 5.58 5.86-.03-4.75 3.43 1.83 5.56-4.72-3.46-4.73 3.46 1.84-5.56-4.76-3.43 5.86.03 1.79-5.58zm-6.52 24.07 1.79 5.58 5.86-.03-4.76 3.43 1.84 5.56-4.73-3.46-4.72 3.46 1.83-5.56L54 71.88l5.85.03 1.79-5.58zm6.45 24.08 1.79 5.58 5.86-.03-4.76 3.43 1.84 5.56-4.73-3.47-4.72 3.47 1.83-5.56-4.75-3.43 5.86.03 1.78-5.58zm17.74 17.7 1.79 5.58 5.86-.02-4.76 3.42 1.84 5.56-4.73-3.46-4.72 3.46 1.83-5.56-4.75-3.42 5.86.02 1.78-5.58zm48.04-83.56-1.79 5.58-5.86-.02 4.76 3.42-1.84 5.56 4.73-3.46 4.72 3.46-1.83-5.56 4.75-3.42-5.86.02-1.78-5.58zm17.67 17.71-1.79 5.58-5.85-.03 4.75 3.43-1.83 5.56 4.72-3.46 4.73 3.46-1.84-5.56 4.76-3.43-5.86.03-1.79-5.58zm6.52 24.07-1.79 5.58-5.86-.03 4.76 3.43-1.84 5.56 4.73-3.46 4.72 3.46-1.83-5.56 4.75-3.43-5.86.03-1.78-5.58zm-6.45 24.08-1.79 5.58-5.86-.03 4.76 3.43-1.84 5.56 4.73-3.47 4.72 3.47-1.83-5.56 4.75-3.43-5.86.03-1.78-5.58zm-17.74 17.7-1.79 5.58-5.86-.02 4.76 3.42-1.84 5.56 4.73-3.46 4.72 3.46-1.83-5.56 4.75-3.42-5.86.02-1.78-5.58z" style="fill:#ffed00"/><path d="M258.77 17.56H246.5v8.31h14.39V31h-20.77V0h20.73v5.17H246.5v7.39h12.27Zm18.95 11.1a7.73 7.73 0 0 1-6.3 2.76 7.27 7.27 0 0 1-5.65-2.13q-1.95-2.12-2-6.23V8h6.15v14.9q0 3.6 3.28 3.6t4.3-2.17V8h6.17v23h-5.79ZM301 13.73a17.44 17.44 0 0 0-2.22-.17c-2.32 0-3.85.79-4.57 2.36V31h-6.16V8h5.82l.17 2.75a5.68 5.68 0 0 1 5.13-3.17 6.53 6.53 0 0 1 1.91.27Zm1.68 5.54a13.62 13.62 0 0 1 1.32-6.11A9.62 9.62 0 0 1 307.8 9a11.07 11.07 0 0 1 5.76-1.47 10.5 10.5 0 0 1 7.61 2.85 11.43 11.43 0 0 1 3.29 7.75v1.57a12 12 0 0 1-3 8.51 11.48 11.48 0 0 1-15.89 0c-2-2.13-3-5-3-8.69Zm6.15.43a8.61 8.61 0 0 0 1.24 5 4.43 4.43 0 0 0 7 0q1.26-1.72 1.26-5.49a8.5 8.5 0 0 0-1.26-5 4.07 4.07 0 0 0-3.53-1.77 4 4 0 0 0-3.49 1.76 9.57 9.57 0 0 0-1.22 5.5Zm18.1-.43a13.62 13.62 0 0 1 1.32-6.11 9.62 9.62 0 0 1 3.8-4.16 11.12 11.12 0 0 1 5.76-1.47 10.48 10.48 0 0 1 7.61 2.85 11.43 11.43 0 0 1 3.29 7.75v1.57a12 12 0 0 1-3 8.51 11.48 11.48 0 0 1-15.89 0c-2-2.13-3-5-3-8.69Zm6.15.43a8.61 8.61 0 0 0 1.24 5 4.06 4.06 0 0 0 3.53 1.74 4.11 4.11 0 0 0 3.5-1.71q1.25-1.72 1.25-5.49a8.58 8.58 0 0 0-1.25-5 4.09 4.09 0 0 0-3.54-1.77 4 4 0 0 0-3.49 1.76 9.57 9.57 0 0 0-1.24 5.47Zm39.92-.01a13.84 13.84 0 0 1-2.42 8.53 7.75 7.75 0 0 1-6.52 3.2 7.18 7.18 0 0 1-5.67-2.42v10.85h-6.16V8h5.71l.21 2.26A7.23 7.23 0 0 1 364 7.54a7.82 7.82 0 0 1 6.62 3.15q2.38 3.15 2.38 8.68Zm-6.15-.44a9 9 0 0 0-1.14-5 3.71 3.71 0 0 0-3.31-1.75 4 4 0 0 0-4 2.21v9.43a4.09 4.09 0 0 0 4 2.28q4.42.04 4.42-7.17ZM389.69 31a7 7 0 0 1-.62-2.07 7.43 7.43 0 0 1-5.81 2.49 8.18 8.18 0 0 1-5.61-2 6.29 6.29 0 0 1-2.22-4.94 6.51 6.51 0 0 1 2.71-5.62q2.72-1.95 7.85-2h2.83V15.6a3.78 3.78 0 0 0-.82-2.55 3.23 3.23 0 0 0-2.59-1 3.62 3.62 0 0 0-2.43.75 2.52 2.52 0 0 0-.89 2h-6.15a6.18 6.18 0 0 1 1.23-3.7 8.21 8.21 0 0 1 3.5-2.68 12.79 12.79 0 0 1 5.06-1 10 10 0 0 1 6.76 2.14 7.46 7.46 0 0 1 2.5 6v10a11.09 11.09 0 0 0 .92 5V31Zm-5.09-4.28a5.27 5.27 0 0 0 2.52-.61 4 4 0 0 0 1.7-1.63v-4h-2.3q-4.62 0-4.92 3.2v.36a2.45 2.45 0 0 0 .81 1.89 3.13 3.13 0 0 0 2.19.79ZM405.12 8l.2 2.66a8 8 0 0 1 6.62-3.08c2.44 0 4.26.71 5.45 2.15s1.8 3.57 1.83 6.43V31h-6.15V16.27a4 4 0 0 0-.86-2.85 3.79 3.79 0 0 0-2.83-.88 4.23 4.23 0 0 0-3.89 2.21V31h-6.16V8ZM247.08 55.3V61H251v4.52h-3.94V77a2.73 2.73 0 0 0 .49 1.83 2.44 2.44 0 0 0 1.87.56 9.72 9.72 0 0 0 1.81-.15v4.66a12.66 12.66 0 0 1-3.73.55q-6.47 0-6.59-6.53V65.48h-3.37V61h3.37v-5.7Zm20.66 26.36a7.73 7.73 0 0 1-6.3 2.76 7.29 7.29 0 0 1-5.66-2.13q-2-2.12-2-6.23V61H260v14.9q0 3.6 3.27 3.6t4.3-2.17V61h6.18v23h-5.79Zm16.7 2.34h-6.18V51.3h6.18Zm15.11.42a11.27 11.27 0 0 1-8.25-3.11 11.05 11.05 0 0 1-3.19-8.31v-.59a13.86 13.86 0 0 1 1.35-6.21 9.78 9.78 0 0 1 3.8-4.21 10.64 10.64 0 0 1 5.61-1.48 9.55 9.55 0 0 1 7.44 3Q309 66.49 309 72v2.51h-14.65a5.72 5.72 0 0 0 1.8 3.62 5.43 5.43 0 0 0 3.8 1.36 6.67 6.67 0 0 0 5.56-2.57l3 3.38a9.17 9.17 0 0 1-3.75 3.06 12.27 12.27 0 0 1-5.21 1.06Zm-.71-18.92a3.84 3.84 0 0 0-3 1.24 6.44 6.44 0 0 0-1.45 3.55H303v-.5a4.54 4.54 0 0 0-1.1-3.17 4 4 0 0 0-3.06-1.12Zm21.36 10.98L324.48 61h6.43l-7.77 23h-5.88l-7.77-23h6.43ZM346 84a6.75 6.75 0 0 1-.62-2.07 7.45 7.45 0 0 1-5.81 2.49 8.15 8.15 0 0 1-5.61-2 6.27 6.27 0 0 1-2.23-4.94 6.52 6.52 0 0 1 2.72-5.62q2.71-2 7.84-2h2.83V68.6a3.78 3.78 0 0 0-.82-2.55 3.19 3.19 0 0 0-2.58-1 3.65 3.65 0 0 0-2.44.75 2.52 2.52 0 0 0-.88 2h-6.16a6.19 6.19 0 0 1 1.24-3.7 8.18 8.18 0 0 1 3.49-2.68 12.8 12.8 0 0 1 5.07-1 10 10 0 0 1 6.76 2.14 7.49 7.49 0 0 1 2.5 6v10a11.11 11.11 0 0 0 .91 5V84Zm-5.09-4.28a5.23 5.23 0 0 0 2.51-.61 3.89 3.89 0 0 0 1.7-1.63v-4h-2.3q-4.6 0-4.91 3.2v.36a2.45 2.45 0 0 0 .81 1.89 3.1 3.1 0 0 0 2.16.79ZM355.42 55a3 3 0 0 1 .93-2.28 4 4 0 0 1 5 0 3.25 3.25 0 0 1 0 4.58 4 4 0 0 1-5 0 3 3 0 0 1-.93-2.3ZM362 84h-6.18V61H362Zm16.93-6.37a2 2 0 0 0-1.12-1.78 12.72 12.72 0 0 0-3.58-1.16Q366 73 366 67.71a6.35 6.35 0 0 1 2.54-5.12 10.28 10.28 0 0 1 6.66-2.05 11.07 11.07 0 0 1 7 2.06 6.53 6.53 0 0 1 2.65 5.4h-6.15a3 3 0 0 0-.85-2.19 3.64 3.64 0 0 0-2.67-.86 3.73 3.73 0 0 0-2.4.7 2.22 2.22 0 0 0-.85 1.79 1.89 1.89 0 0 0 1 1.65 10 10 0 0 0 3.26 1.09 26.31 26.31 0 0 1 3.88 1q4.88 1.78 4.87 6.2a6 6 0 0 1-2.7 5.09 11.65 11.65 0 0 1-7 2 12.13 12.13 0 0 1-5.14-1 8.62 8.62 0 0 1-3.53-2.83 6.6 6.6 0 0 1-1.27-3.89h5.83a3.21 3.21 0 0 0 1.21 2.52 4.82 4.82 0 0 0 3 .87 4.54 4.54 0 0 0 2.68-.67 2.09 2.09 0 0 0 .91-1.84Zm23.36 4.03a7.73 7.73 0 0 1-6.3 2.76 7.27 7.27 0 0 1-5.65-2.13q-1.95-2.12-2-6.23V61h6.15v14.9q0 3.6 3.28 3.6t4.3-2.17V61h6.17v23h-5.79Zm24.22 0a7.73 7.73 0 0 1-6.3 2.76 7.27 7.27 0 0 1-5.65-2.13q-1.95-2.12-2-6.23V61h6.15v14.9q0 3.6 3.28 3.6t4.3-2.17V61h6.17v23h-5.79Zm22.72-4.03a2 2 0 0 0-1.12-1.78 12.72 12.72 0 0 0-3.58-1.16q-8.22-1.72-8.22-7a6.35 6.35 0 0 1 2.54-5.12 10.28 10.28 0 0 1 6.66-2.05 11.07 11.07 0 0 1 7 2.06 6.53 6.53 0 0 1 2.64 5.42H449a3 3 0 0 0-.85-2.19 3.63 3.63 0 0 0-2.66-.86 3.74 3.74 0 0 0-2.41.7 2.22 2.22 0 0 0-.85 1.79 1.89 1.89 0 0 0 1 1.65 10 10 0 0 0 3.26 1.09 26.31 26.31 0 0 1 3.88 1q4.88 1.78 4.87 6.2a6 6 0 0 1-2.7 5.09 11.65 11.65 0 0 1-7 2 12.13 12.13 0 0 1-5.14-1 8.62 8.62 0 0 1-3.53-2.83 6.6 6.6 0 0 1-1.27-3.89h5.83a3.24 3.24 0 0 0 1.21 2.52 4.83 4.83 0 0 0 3 .87 4.53 4.53 0 0 0 2.67-.67 2.09 2.09 0 0 0 .92-1.84Zm21.31-4.43h-12v-5h12Zm-223.78 53.13-2.47 2.58V137h-3.94v-32.7h3.94v19.77l2.11-2.53 7.17-7.58h4.79l-9 9.62 10 13.42h-4.62Zm12.96-1.06a13.69 13.69 0 0 1 1.33-6.09 9.93 9.93 0 0 1 3.71-4.17 10.08 10.08 0 0 1 5.42-1.47 9.72 9.72 0 0 1 7.61 3.25 12.58 12.58 0 0 1 2.9 8.67v.27a13.7 13.7 0 0 1-1.29 6 9.68 9.68 0 0 1-3.68 4.16 10.14 10.14 0 0 1-5.5 1.49 9.7 9.7 0 0 1-7.59-3.25 12.49 12.49 0 0 1-2.91-8.63Zm4 .46a9.91 9.91 0 0 0 1.78 6.16 6 6 0 0 0 9.53 0 10.78 10.78 0 0 0 1.76-6.59 9.91 9.91 0 0 0-1.79-6.15 5.75 5.75 0 0 0-4.78-2.35 5.67 5.67 0 0 0-4.71 2.32 10.71 10.71 0 0 0-1.83 6.61ZM288.88 114l.13 2.9a8.36 8.36 0 0 1 6.89-3.32q7.31 0 7.37 8.24V137h-3.94v-15.25a5.26 5.26 0 0 0-1.14-3.68 4.57 4.57 0 0 0-3.48-1.19 5.66 5.66 0 0 0-3.36 1 7 7 0 0 0-2.26 2.68V137h-3.94v-23Zm21.32 23v-20h-3.64v-3h3.64v-2.4a7.85 7.85 0 0 1 2-5.73 7.48 7.48 0 0 1 5.6-2 10.46 10.46 0 0 1 2.71.36l-.22 3.17a11.85 11.85 0 0 0-2.12-.19 3.86 3.86 0 0 0-3 1.12 4.54 4.54 0 0 0-1.05 3.22V114h4.92v3h-4.92v20Zm21.46.42a10.07 10.07 0 0 1-7.62-3.07 11.42 11.42 0 0 1-2.94-8.23v-.73a13.89 13.89 0 0 1 1.31-6.12 10.31 10.31 0 0 1 3.66-4.21 9.17 9.17 0 0 1 5.1-1.52 8.61 8.61 0 0 1 7 3q2.49 3 2.49 8.47v1.64H325a8.2 8.2 0 0 0 2 5.5 6.26 6.26 0 0 0 4.85 2.1 6.94 6.94 0 0 0 3.53-.85 8.75 8.75 0 0 0 2.53-2.26l2.41 1.87a9.67 9.67 0 0 1-8.66 4.41Zm-.49-20.65a5.24 5.24 0 0 0-4 1.74 8.44 8.44 0 0 0-2 4.86h11.54v-.3a7.45 7.45 0 0 0-1.62-4.65 4.94 4.94 0 0 0-3.92-1.65Zm24.95.73a11.63 11.63 0 0 0-1.93-.15 5.18 5.18 0 0 0-5.26 3.3V137H345v-23h3.83l.07 2.66a6.14 6.14 0 0 1 5.49-3.08 4.14 4.14 0 0 1 1.74.29Zm12.41 19.92a10.07 10.07 0 0 1-7.62-3.07 11.42 11.42 0 0 1-2.94-8.23v-.73a13.89 13.89 0 0 1 1.31-6.12 10.17 10.17 0 0 1 3.66-4.21 9.17 9.17 0 0 1 5.1-1.52 8.61 8.61 0 0 1 7 3q2.49 3 2.49 8.47v1.64h-15.6a8.2 8.2 0 0 0 2 5.5 6.24 6.24 0 0 0 4.84 2.1 7 7 0 0 0 3.54-.85 8.88 8.88 0 0 0 2.53-2.26l2.41 1.87a9.67 9.67 0 0 1-8.72 4.41Zm-.53-20.65a5.24 5.24 0 0 0-4 1.74 8.37 8.37 0 0 0-2 4.86h11.54v-.3a7.57 7.57 0 0 0-1.62-4.65 5 5 0 0 0-3.92-1.65Zm17.58-2.77.13 2.9a8.38 8.38 0 0 1 6.9-3.32q7.31 0 7.36 8.24V137H396v-15.25a5.36 5.36 0 0 0-1.14-3.68 4.6 4.6 0 0 0-3.48-1.19 5.72 5.72 0 0 0-3.37 1 7 7 0 0 0-2.26 2.68V137h-3.93v-23Zm33 16.89a2.9 2.9 0 0 0-1.21-2.48 11.61 11.61 0 0 0-4.19-1.53 19.34 19.34 0 0 1-4.75-1.53 6.66 6.66 0 0 1-2.6-2.13 5.08 5.08 0 0 1-.84-2.93 6 6 0 0 1 2.4-4.79 9.3 9.3 0 0 1 6.12-2 9.59 9.59 0 0 1 6.35 2 6.41 6.41 0 0 1 2.44 5.17h-4a3.57 3.57 0 0 0-1.37-2.79 5.16 5.16 0 0 0-3.46-1.17 5.36 5.36 0 0 0-3.37.94 3 3 0 0 0-1.21 2.45 2.39 2.39 0 0 0 1.13 2.15 13.94 13.94 0 0 0 4.08 1.38 21.51 21.51 0 0 1 4.78 1.58 7 7 0 0 1 2.71 2.2 5.42 5.42 0 0 1 .88 3.14 5.88 5.88 0 0 1-2.47 4.95 10.34 10.34 0 0 1-6.4 1.86 11.49 11.49 0 0 1-4.9-1 7.92 7.92 0 0 1-3.33-2.73 6.61 6.61 0 0 1-1.2-3.8h3.93a4.08 4.08 0 0 0 1.59 3.14 6.19 6.19 0 0 0 3.91 1.16 6.27 6.27 0 0 0 3.58-.91 2.77 2.77 0 0 0 1.4-2.33Zm21.88 0a2.9 2.9 0 0 0-1.2-2.48 11.67 11.67 0 0 0-4.2-1.53 19.63 19.63 0 0 1-4.75-1.53 6.62 6.62 0 0 1-2.59-2.13 5.08 5.08 0 0 1-.84-2.93 6 6 0 0 1 2.39-4.79 9.34 9.34 0 0 1 6.12-2 9.64 9.64 0 0 1 6.36 2 6.43 6.43 0 0 1 2.43 5.17h-4a3.54 3.54 0 0 0-1.37-2.79 5.14 5.14 0 0 0-3.46-1.17 5.35 5.35 0 0 0-3.36.94 3 3 0 0 0-1.22 2.45 2.39 2.39 0 0 0 1.13 2.15 14.05 14.05 0 0 0 4.08 1.38 21.16 21.16 0 0 1 4.78 1.58 7 7 0 0 1 2.71 2.2 5.43 5.43 0 0 1 .89 3.14 5.91 5.91 0 0 1-2.47 4.95 10.37 10.37 0 0 1-6.41 1.86 11.49 11.49 0 0 1-4.9-1 7.92 7.92 0 0 1-3.33-2.73 6.61 6.61 0 0 1-1.2-3.8H430a4.1 4.1 0 0 0 1.58 3.14 6.19 6.19 0 0 0 3.91 1.16 6.3 6.3 0 0 0 3.59-.91 2.76 2.76 0 0 0 1.38-2.33Zm8.36-23.04a2.35 2.35 0 0 1 .58-1.62 2.62 2.62 0 0 1 3.48 0 2.32 2.32 0 0 1 .6 1.62 2.25 2.25 0 0 1-.6 1.6 2.32 2.32 0 0 1-4.06-1.6Zm4.26 29.15h-3.94v-23h3.94Z" style="fill:#fff"/></g></svg>