<svg xmlns="http://www.w3.org/2000/svg" viewBox="0 0 602 149"><g data-name="Layer 1"><path style="fill:#164194;stroke:#fff;stroke-miterlimit:10" d="M1.44 9h211.62v131H1.44z"/><path d="m109.84 18.13 1.79 5.58 5.85-.02-4.75 3.42 1.83 5.56-4.72-3.46-4.73 3.46 1.84-5.56-4.76-3.42 5.86.02 1.79-5.58zm0 96.52 1.79 5.58 5.85-.03-4.75 3.43 1.83 5.56-4.72-3.47-4.73 3.47 1.84-5.56-4.76-3.43 5.86.03 1.79-5.58zm-24.01-90.1 1.79 5.58 5.86-.02-4.76 3.42 1.84 5.56-4.73-3.46-4.72 3.46 1.83-5.56-4.75-3.42 5.86.02 1.78-5.58zM68.16 42.26l1.78 5.58 5.86-.03-4.75 3.43 1.83 5.56-4.72-3.46-4.73 3.46 1.84-5.56-4.76-3.43 5.86.03 1.79-5.58zm-6.52 24.07 1.79 5.58 5.86-.03-4.76 3.43 1.84 5.56-4.73-3.46-4.72 3.46 1.83-5.56L54 71.88l5.85.03 1.79-5.58zm6.45 24.08 1.79 5.58 5.86-.03-4.76 3.43 1.84 5.56-4.73-3.47-4.72 3.47 1.83-5.56-4.75-3.43 5.86.03 1.78-5.58zm17.74 17.7 1.79 5.58 5.86-.02-4.76 3.42 1.84 5.56-4.73-3.46-4.72 3.46 1.83-5.56-4.75-3.42 5.86.02 1.78-5.58zm48.04-83.56-1.79 5.58-5.86-.02 4.76 3.42-1.84 5.56 4.73-3.46 4.72 3.46-1.83-5.56 4.75-3.42-5.86.02-1.78-5.58zm17.67 17.71-1.79 5.58-5.85-.03 4.75 3.43-1.83 5.56 4.72-3.46 4.73 3.46-1.84-5.56 4.76-3.43-5.86.03-1.79-5.58zm6.52 24.07-1.79 5.58-5.86-.03 4.76 3.43-1.84 5.56 4.73-3.46 4.72 3.46-1.83-5.56 4.75-3.43-5.86.03-1.78-5.58zm-6.45 24.08-1.79 5.58-5.86-.03 4.76 3.43-1.84 5.56 4.73-3.47 4.72 3.47-1.83-5.56 4.75-3.43-5.86.03-1.78-5.58zm-17.74 17.7-1.79 5.58-5.86-.02 4.76 3.42-1.84 5.56 4.73-3.46 4.72 3.46-1.83-5.56 4.75-3.42-5.86.02-1.78-5.58z" style="fill:#ffed00"/><path d="M250.65 3.06h3.62l12.33 31h-29Zm-7.51 27.66h18L252.4 8.07ZM274.5 11v17.27a3 3 0 0 0 .58 2A2.43 2.43 0 0 0 277 31a6.27 6.27 0 0 0 1.85-.25v3.19a11.62 11.62 0 0 1-3.05.41q-5.3 0-5.3-6.26V11Zm26.81 0v17c0 2 .59 3 1.7 3a2.28 2.28 0 0 0 .72-.1l.49 2.91a4.31 4.31 0 0 1-2.59.73q-3.13 0-3.94-3.52a7.49 7.49 0 0 1-6.69 3.49 7.94 7.94 0 0 1-6.51-3q-2.43-3-2.43-8.21V23q0-5.62 2.41-9a7.65 7.65 0 0 1 6.53-3.4 7.42 7.42 0 0 1 6.6 3.4l.37-3ZM286 23.42a9.56 9.56 0 0 0 1.55 5.8 5.21 5.21 0 0 0 4.43 2.07q3.69 0 5.43-4v-9.45c-1.21-2.67-3-4-5.39-4a5 5 0 0 0-4.44 2.41Q286 18.67 286 23.42ZM292.88.08h3.7l-2.47 7.18h-2.38Zm36.03 14.2h-6.05a10.49 10.49 0 0 1 4.26 9v.36a11.69 11.69 0 0 1-1.3 5.48 9.86 9.86 0 0 1-3.65 3.88 10 10 0 0 1-5.33 1.45 9.45 9.45 0 0 1-7.47-3.23 12.62 12.62 0 0 1-2.83-8.65v-.28a13 13 0 0 1 1.25-5.81 9.65 9.65 0 0 1 3.57-4 9.88 9.88 0 0 1 5.29-1.48h12.26ZM310.5 22.8a10.07 10.07 0 0 0 1.7 6.2 5.84 5.84 0 0 0 9.29 0q1.69-2.31 1.69-6.63a9.25 9.25 0 0 0-1.71-5.85 6 6 0 0 0-9.28 0q-1.69 2.11-1.69 6.28Zm28.5 1.45h-2.3v9.81h-4V11h4v9.75h1.93l8.45-9.75h4.75l-9.62 11.2 10.39 11.86h-5Zm19.72 3.34a3.1 3.1 0 0 0 1.57 2.68 7.17 7.17 0 0 0 4.07 1 6.83 6.83 0 0 0 4.06-1.17 3.45 3.45 0 0 0 1.65-2.89H374a6.2 6.2 0 0 1-2.72 5.27 11.53 11.53 0 0 1-6.93 2 11.75 11.75 0 0 1-7-1.89 5.85 5.85 0 0 1-2.64-5c0-2.64 1.46-4.43 4.36-5.37a7.12 7.12 0 0 1-2.91-2.06 4.44 4.44 0 0 1-1-2.85 5.71 5.71 0 0 1 2.45-4.92 11.4 11.4 0 0 1 6.76-1.77 11 11 0 0 1 6.63 1.91 5.81 5.81 0 0 1 2.65 4.93h-3.93a3.1 3.1 0 0 0-1.53-2.57 6.39 6.39 0 0 0-3.8-1.08 6.78 6.78 0 0 0-3.82 1 3 3 0 0 0-1.44 2.55c0 2.27 1.74 3.4 5.2 3.4h4.17v3.15h-4.8c-3.32.09-4.98 1.29-4.98 3.68ZM392.84 11v20.17a8.84 8.84 0 0 0 5.71-3 9.25 9.25 0 0 0 2.08-6.17 29.62 29.62 0 0 0-2.7-11h4.13a24.21 24.21 0 0 1 2.51 11c0 3.68-1 6.59-3 8.75s-4.92 3.38-8.69 3.68v9.69h-3.98v-9.74q-5.43-.56-8.21-3.85t-2.78-9.16V11h4v10.6a11.16 11.16 0 0 0 1.81 6.55 7.54 7.54 0 0 0 5.22 3V11Zm19.76 0 .24 2.89a8.16 8.16 0 0 1 6.81-3.32c2.7 0 4.66.7 5.9 2.1s1.86 3.54 1.87 6.44V42.9h-3.94V19.37a6.31 6.31 0 0 0-1.15-4.21 4.89 4.89 0 0 0-3.87-1.32 5.59 5.59 0 0 0-5.46 3.51v16.71h-4V11Zm39.96 17.18 6-17.15h4l-8.07 21.82v10.07h-4V32.7L442.43 11h4ZM470.93 11v17.27a3 3 0 0 0 .59 2 2.42 2.42 0 0 0 1.94.68 6.34 6.34 0 0 0 1.86-.25v3.19a11.62 11.62 0 0 1-3 .41q-5.3 0-5.3-6.26V11Zm26.81 0v17c0 2 .6 3 1.7 3a2.39 2.39 0 0 0 .73-.1l.49 2.91a4.34 4.34 0 0 1-2.6.73q-3.13 0-3.94-3.52a7.49 7.49 0 0 1-6.73 3.52 8 8 0 0 1-6.51-3q-2.43-3-2.43-8.21V23q0-5.62 2.41-9a7.66 7.66 0 0 1 6.58-3.37A7.43 7.43 0 0 1 494 14l.36-3Zm-15.35 12.42a9.56 9.56 0 0 0 1.55 5.8 5.22 5.22 0 0 0 4.43 2.07q3.69 0 5.43-4v-9.45c-1.2-2.67-3-4-5.38-4a5 5 0 0 0-4.42 2.41q-1.61 2.42-1.61 7.17Zm-224.52 43.8H250v14.1c0 1.88.75 2.82 2.24 2.82a4.2 4.2 0 0 0 2-.55l.89 2.78a6.68 6.68 0 0 1-3.87 1.12 4.67 4.67 0 0 1-3.91-1.57 7.52 7.52 0 0 1-1.35-4.67v-14h-7.38V64h19.24Zm2.78 8.11a13.55 13.55 0 0 1 1.35-6.09 9.92 9.92 0 0 1 3.71-4.17 10 10 0 0 1 5.41-1.47 9.7 9.7 0 0 1 7.61 3.26 12.51 12.51 0 0 1 2.91 8.66v.28a13.69 13.69 0 0 1-1.29 6 9.77 9.77 0 0 1-3.7 4.2 10.23 10.23 0 0 1-5.5 1.49 9.68 9.68 0 0 1-7.59-3.26 12.46 12.46 0 0 1-2.91-8.62Zm4 .47a9.83 9.83 0 0 0 1.74 6.2 6 6 0 0 0 9.53 0 10.83 10.83 0 0 0 1.76-6.59 9.82 9.82 0 0 0-1.8-6.14 5.71 5.71 0 0 0-4.78-2.35 5.64 5.64 0 0 0-4.7 2.32c-1.19 1.46-1.79 3.68-1.79 6.56Zm40.84-19.74 8 22.49 7.92-22.49h8.39v31h-6.41v-8.47L324 64l-8.37 23.1h-4.39L302.89 64l.64 14.61v8.47h-6.39v-31ZM334 80.55q0-3.93 4.34-5.35a7.09 7.09 0 0 1-2.89-2 4.37 4.37 0 0 1-1.05-2.82 5.57 5.57 0 0 1 2.76-4.92 13.75 13.75 0 0 1 7.53-1.79 11.62 11.62 0 0 1 7 2 6 6 0 0 1 2.73 5.07h-6.16a2 2 0 0 0-1.07-1.75 5.35 5.35 0 0 0-2.82-.66 4.88 4.88 0 0 0-2.77.71 2.11 2.11 0 0 0-1 1.85 2 2 0 0 0 1 1.76 5.05 5.05 0 0 0 2.87.66h4v4.11h-4.07c-2.78 0-4.17.93-4.17 2.75a2.35 2.35 0 0 0 1.16 2 5.3 5.3 0 0 0 3.06.8 5.72 5.72 0 0 0 3.12-.75 2.19 2.19 0 0 0 1.16-1.87h6.15a6.15 6.15 0 0 1-2.83 5.26 12.4 12.4 0 0 1-7.26 2 14.08 14.08 0 0 1-7.72-1.91 5.76 5.76 0 0 1-3.07-5.15ZM343.67 53h5.58l-3.47 7.34h-3.67ZM362 54.15q4.22 0 5.69 3.47l9 22.56.34.75c.48 1 1.09 1.54 1.83 1.55h.77v4.84a15.87 15.87 0 0 1-2.34.14 6.6 6.6 0 0 1-3.87-1 7.11 7.11 0 0 1-2.39-3.46l-3.64-10-4.71 14.11h-6.64l8.16-22.5-1.5-3.61a2.63 2.63 0 0 0-2.7-1.89l-1.24.06-.13-4.56a11.58 11.58 0 0 1 3.37-.46Zm25.25 0q4.22 0 5.69 3.47l9 22.56.34.75c.49 1 1.1 1.54 1.83 1.55h.77v4.84a15.87 15.87 0 0 1-2.34.14 6.59 6.59 0 0 1-3.86-1 7.12 7.12 0 0 1-2.4-3.46l-3.64-10L388 87.06h-6.65l8.16-22.5-1.57-3.56a3.07 3.07 0 0 0-1.09-1.49 3 3 0 0 0-1.66-.43l-1.23.06-.13-4.56a11.46 11.46 0 0 1 3.42-.43Zm19.2 21.18a13.68 13.68 0 0 1 1.32-6.11 9.61 9.61 0 0 1 3.8-4.15 11.07 11.07 0 0 1 5.76-1.47 10.5 10.5 0 0 1 7.61 2.85 11.5 11.5 0 0 1 3.29 7.75v1.58a12 12 0 0 1-3 8.5 11.45 11.45 0 0 1-15.89 0q-3-3.2-3-8.68Zm6.15.44a8.55 8.55 0 0 0 1.24 5 4.43 4.43 0 0 0 7 0q1.26-1.71 1.26-5.49a8.5 8.5 0 0 0-1.26-5 4.08 4.08 0 0 0-3.53-1.77 4 4 0 0 0-3.49 1.76q-1.22 1.8-1.22 5.5Zm27.27 3.78L444.15 64h6.43l-7.77 23h-5.88l-7.77-23h6.43Zm42.88-12.33h-7.9v14.1c0 1.88.74 2.82 2.23 2.82a4.17 4.17 0 0 0 2-.55l.9 2.78a6.69 6.69 0 0 1-3.88 1.12 4.69 4.69 0 0 1-3.91-1.57 7.45 7.45 0 0 1-1.26-4.67v-14h-7.43V64h19.25Zm7.99-3.22.23 2.89a8.16 8.16 0 0 1 6.81-3.32q4.05 0 5.9 2.1t1.87 6.44V95.9h-3.93V72.37a6.36 6.36 0 0 0-1.15-4.21 4.93 4.93 0 0 0-3.88-1.32 5.59 5.59 0 0 0-5.45 3.51v16.71h-4V64Zm29.56-.4a9.19 9.19 0 0 1 6.48 2.27 7.88 7.88 0 0 1 2.46 6.1h-3.73a5 5 0 0 0-1.43-3.74 5.6 5.6 0 0 0-8.24.94 10.4 10.4 0 0 0-1.65 6.14V76q0 5.54 6.81 7.64l2.85.81a6 6 0 0 1 2.94 1.64 4.11 4.11 0 0 1 .85 2.73 6.75 6.75 0 0 1-1.1 3.12 12 12 0 0 1-2.63 3.06l-2.08-1.81 1-1.15a4.3 4.3 0 0 0 1-2.76 1.53 1.53 0 0 0-.74-1.38 9.34 9.34 0 0 0-2.58-.86 14.81 14.81 0 0 1-7.66-3.84 10 10 0 0 1-2.6-7.2v-.9a13.67 13.67 0 0 1 1.26-5.91 9.68 9.68 0 0 1 3.56-4.13 9.53 9.53 0 0 1 5.23-1.46Zm-261.98 63.03h-12.26v8.3h14.39v5.13h-20.78v-31h20.73v5.18h-14.34v7.38h12.26Zm11.22-9.63v14.09q0 4.42 2.68 4.43a4 4 0 0 0 3.4-2.18A10 10 0 0 0 277 128a35.36 35.36 0 0 0-2.17-11h5.87a24.16 24.16 0 0 1 2.43 11c0 3.89-.92 6.94-2.77 9.17s-4.48 3.33-7.9 3.33q-4.43 0-6.72-2.38t-2.34-6.78V117Zm27.91-.4a9.27 9.27 0 0 1 7.5 3.26q2.71 3.26 2.72 9v.28q0 5.28-2.41 8.3a7.9 7.9 0 0 1-6.51 3 7 7 0 0 1-5.64-2.58v11H287V128a11.68 11.68 0 0 1 2.87-8.28 9.92 9.92 0 0 1 7.58-3.12Zm-4.34 17a4.34 4.34 0 0 0 4 2 3.74 3.74 0 0 0 3.26-1.61q1.13-1.6 1.13-5.23a10.12 10.12 0 0 0-1.14-5.29 3.58 3.58 0 0 0-3.23-1.84 3.31 3.31 0 0 0-3 1.76 9.85 9.85 0 0 0-1.08 5.12Zm26.75-16.6a27.51 27.51 0 0 0-2.86 11 13.88 13.88 0 0 0 .88 5.6 2.73 2.73 0 0 0 2.46 1.93q3.41 0 3.41-6.15v-7.29h6.49v7.29q0 6.15 3.41 6.15c1.08 0 1.9-.67 2.48-2A14.41 14.41 0 0 0 337 128a26.89 26.89 0 0 0-2.9-11h5.9a19.56 19.56 0 0 1 3.17 11c0 4.15-.79 7.26-2.36 9.35a8.15 8.15 0 0 1-6.92 3.13 7.37 7.37 0 0 1-4.1-1.15A7.88 7.88 0 0 1 327 136a8 8 0 0 1-2.78 3.37 7.29 7.29 0 0 1-4.07 1.15 8.15 8.15 0 0 1-6.94-3.14c-1.58-2.1-2.36-5.21-2.36-9.34A19.56 19.56 0 0 1 314 117Zm6.35-10.93h5.58l-3.47 7.35h-3.67Zm44.91 15.66h-3.64v11.13a2.82 2.82 0 0 0 .48 1.83 2.45 2.45 0 0 0 1.88.56 9.3 9.3 0 0 0 1.79-.17v4.66a11.6 11.6 0 0 1-3.7.55q-6.48 0-6.6-6.53v-12h-5.88v18.33h-6.15v-18.36h-3.77V117h25.59Zm9.69-4.73.24 2.83a8 8 0 0 1 6.62-3.26q7.23 0 7.41 8.28v24h-6.18v-23.71q-.06-3.58-3.49-3.58a4.89 4.89 0 0 0-4.17 2v16.52h-6.15V117Zm28.19-.4a9.54 9.54 0 0 1 6.88 2.45 8.67 8.67 0 0 1 2.55 6.56h-5.83a4.35 4.35 0 0 0-1-3 3.4 3.4 0 0 0-2.68-1.1 3.78 3.78 0 0 0-3.29 1.66 8.9 8.9 0 0 0-1.18 5v.66a6.16 6.16 0 0 0 1.22 4.09 8.23 8.23 0 0 0 4.14 2.26 20.14 20.14 0 0 1 4.09 1.47 4.61 4.61 0 0 1 1.78 1.62 4.93 4.93 0 0 1 .65 2.49 6.8 6.8 0 0 1-1.46 3.79 13.35 13.35 0 0 1-3.37 3.45l-3.22-2.42c1.34-1.4 2-2.59 2-3.58s-.75-1.7-2.25-2q-5.05-1.32-7.35-3.92a10.3 10.3 0 0 1-2.36-6.92v-.87a13.84 13.84 0 0 1 1.29-6.1 9.45 9.45 0 0 1 3.7-4.12 10.75 10.75 0 0 1 5.69-1.47Z" style="fill:#fff"/></g></svg>