<svg xmlns="http://www.w3.org/2000/svg" viewBox="0 0 602 149"><defs><style>.cls-1{fill:#fff}</style></defs><g id="Layer_1" data-name="Layer 1"><path class="cls-1" d="M262 23.81a11.37 11.37 0 0 1-3.63 7.59 11.88 11.88 0 0 1-8.12 2.67 10.9 10.9 0 0 1-8.8-3.94q-3.32-3.93-3.31-10.54v-3A17.66 17.66 0 0 1 239.7 9a11.54 11.54 0 0 1 4.38-5 12.16 12.16 0 0 1 6.55-1.76A11.19 11.19 0 0 1 258.55 5a11.5 11.5 0 0 1 3.45 7.61h-4.11a8.86 8.86 0 0 0-2.31-5.38 7 7 0 0 0-5-1.66 7.31 7.31 0 0 0-6.14 2.89c-1.48 1.94-2.22 4.68-2.22 8.25v3a13.73 13.73 0 0 0 2.1 8 6.83 6.83 0 0 0 5.9 3 7.94 7.94 0 0 0 5.23-1.54c1.21-1 2-2.83 2.41-5.38Zm3.73-1.89a13.55 13.55 0 0 1 1.33-6.09 9.87 9.87 0 0 1 3.7-4.18 10.07 10.07 0 0 1 5.42-1.46 9.71 9.71 0 0 1 7.61 3.25 12.52 12.52 0 0 1 2.91 8.67v.27a13.7 13.7 0 0 1-1.29 6 9.76 9.76 0 0 1-3.69 4.16 10.21 10.21 0 0 1-5.5 1.49 9.67 9.67 0 0 1-7.59-3.26 12.44 12.44 0 0 1-2.9-8.62Zm4 .46a9.9 9.9 0 0 0 1.77 6.16 6 6 0 0 0 9.53 0 10.73 10.73 0 0 0 1.77-6.58 9.85 9.85 0 0 0-1.8-6.15 5.74 5.74 0 0 0-4.78-2.35 5.66 5.66 0 0 0-4.71 2.32q-1.83 2.28-1.82 6.6Zm25.15-11.77.13 2.9a8.38 8.38 0 0 1 6.9-3.32q7.29 0 7.36 8.23v15.23h-3.94V18.4a5.24 5.24 0 0 0-1.14-3.68 4.53 4.53 0 0 0-3.48-1.19 5.71 5.71 0 0 0-3.36 1 7 7 0 0 0-2.26 2.68v16.44h-3.93v-23Zm21.33 23.04v-20h-3.64v-3.04h3.64V8.25a7.85 7.85 0 0 1 2-5.73 7.46 7.46 0 0 1 5.6-2 10.38 10.38 0 0 1 2.7.36L326.28 4a11.18 11.18 0 0 0-2.13-.19 3.82 3.82 0 0 0-3 1.12 4.54 4.54 0 0 0-1 3.22v2.43h4.91v3.05h-4.91v20Zm21.46.42a10 10 0 0 1-7.62-3.07 11.44 11.44 0 0 1-2.94-8.23V22a13.75 13.75 0 0 1 1.31-6.12 10.17 10.17 0 0 1 3.66-4.21 9.17 9.17 0 0 1 5.1-1.52 8.63 8.63 0 0 1 7 3c1.66 2 2.49 4.8 2.49 8.48v1.64h-15.6a8.15 8.15 0 0 0 2 5.5 6.24 6.24 0 0 0 4.84 2.1 6.91 6.91 0 0 0 3.53-.85 8.92 8.92 0 0 0 2.56-2.27l2.4 1.87a9.66 9.66 0 0 1-8.73 4.45Zm-.49-20.65a5.26 5.26 0 0 0-4 1.74 8.48 8.48 0 0 0-2 4.86h11.54v-.3a7.45 7.45 0 0 0-1.62-4.65 4.93 4.93 0 0 0-3.92-1.65Zm24.95.72a13.11 13.11 0 0 0-1.94-.14 5.19 5.19 0 0 0-5.26 3.3v16.35H351v-23h3.83l.07 2.66a6.12 6.12 0 0 1 5.49-3.08 4 4 0 0 1 1.75.29Zm12.4 19.93a10.07 10.07 0 0 1-7.62-3.07 11.44 11.44 0 0 1-2.91-8.23V22a13.89 13.89 0 0 1 1.31-6.12 10.31 10.31 0 0 1 3.66-4.21 9.17 9.17 0 0 1 5.1-1.52 8.64 8.64 0 0 1 7 3c1.66 2 2.49 4.8 2.49 8.48v1.64h-15.65a8.2 8.2 0 0 0 2 5.5 6.26 6.26 0 0 0 4.85 2.1 6.94 6.94 0 0 0 3.53-.85 8.75 8.75 0 0 0 2.53-2.26l2.41 1.87a9.67 9.67 0 0 1-8.7 4.44ZM374 13.42a5.24 5.24 0 0 0-4 1.74 8.41 8.41 0 0 0-2 4.84h11.54v-.3a7.45 7.45 0 0 0-1.54-4.63 4.94 4.94 0 0 0-4-1.65Zm17.58-2.81.13 2.9a8.38 8.38 0 0 1 6.9-3.32q7.31 0 7.37 8.23v15.23H402V18.4a5.34 5.34 0 0 0-1.14-3.68 4.56 4.56 0 0 0-3.48-1.19 5.72 5.72 0 0 0-3.37 1 6.93 6.93 0 0 0-2.25 2.68v16.44h-3.94v-23Zm29.11 20.25a5.69 5.69 0 0 0 3.68-1.28 4.53 4.53 0 0 0 1.75-3.19h3.72a7.08 7.08 0 0 1-1.36 3.76 8.92 8.92 0 0 1-3.35 2.85 9.68 9.68 0 0 1-4.44 1.06 9.49 9.49 0 0 1-7.48-3.14c-1.86-2.09-2.78-5-2.78-8.59v-.66a13.89 13.89 0 0 1 1.23-6 9.47 9.47 0 0 1 3.55-4.07 10.11 10.11 0 0 1 5.46-1.44 9.23 9.23 0 0 1 6.44 2.32 8.25 8.25 0 0 1 2.73 6h-3.72a5.47 5.47 0 0 0-1.69-3.67 5.27 5.27 0 0 0-3.76-1.44 5.51 5.51 0 0 0-4.67 2.21 10.14 10.14 0 0 0-1.65 6.25v.75a9.92 9.92 0 0 0 1.65 6.13 5.54 5.54 0 0 0 4.69 2.15Zm22.83 3.21A10 10 0 0 1 435.9 31a11.44 11.44 0 0 1-2.9-8.23V22a13.75 13.75 0 0 1 1.31-6.12 10.17 10.17 0 0 1 3.66-4.21 9.17 9.17 0 0 1 5.1-1.52 8.63 8.63 0 0 1 7 3c1.66 2 2.49 4.8 2.49 8.48v1.64H436.9a8.15 8.15 0 0 0 2 5.5 6.24 6.24 0 0 0 4.84 2.1 6.91 6.91 0 0 0 3.53-.85 8.92 8.92 0 0 0 2.54-2.26l2.4 1.87a9.66 9.66 0 0 1-8.69 4.44ZM443 13.42a5.26 5.26 0 0 0-4 1.74 8.48 8.48 0 0 0-2 4.84h11.54v-.3a7.45 7.45 0 0 0-1.62-4.65 4.93 4.93 0 0 0-3.92-1.63Zm-205.44 61.5a13.55 13.55 0 0 1 1.33-6.09 9.89 9.89 0 0 1 3.71-4.18 10 10 0 0 1 5.4-1.46 9.7 9.7 0 0 1 7.61 3.25 12.52 12.52 0 0 1 2.91 8.67v.27a13.7 13.7 0 0 1-1.29 6 9.74 9.74 0 0 1-3.68 4.16 10.23 10.23 0 0 1-5.5 1.49 9.64 9.64 0 0 1-7.59-3.26 12.44 12.44 0 0 1-2.91-8.62Zm4 .46a9.84 9.84 0 0 0 1.78 6.16 6 6 0 0 0 9.53 0 10.79 10.79 0 0 0 1.76-6.58 9.85 9.85 0 0 0-1.8-6.15 5.74 5.74 0 0 0-4.83-2.39 5.64 5.64 0 0 0-4.7 2.32 10.71 10.71 0 0 0-1.78 6.64Zm25.16-11.77.12 2.9a8.38 8.38 0 0 1 6.9-3.32q7.31 0 7.37 8.23v15.23h-3.94V71.4a5.29 5.29 0 0 0-1.17-3.68 4.54 4.54 0 0 0-3.48-1.19 5.66 5.66 0 0 0-3.36 1 6.87 6.87 0 0 0-2.26 2.68v16.44H263v-23ZM303.18 58v5.58h4.3v3h-4.3V81a3.24 3.24 0 0 0 .58 2.08 2.41 2.41 0 0 0 2 .69 9.6 9.6 0 0 0 1.87-.26v3.18a11.5 11.5 0 0 1-3 .42 4.88 4.88 0 0 1-4-1.6 6.8 6.8 0 0 1-1.34-4.53V66.66h-4.2v-3h4.2V58Zm12.06 8.4a8.39 8.39 0 0 1 6.81-3.21q7.31 0 7.37 8.23v15.23h-3.94V71.4a5.24 5.24 0 0 0-1.14-3.68 4.53 4.53 0 0 0-3.48-1.19 5.66 5.66 0 0 0-3.36 1 6.87 6.87 0 0 0-2.26 2.68v16.44h-3.94V54h3.94Zm29.17 20.67a10.07 10.07 0 0 1-7.62-3.07 11.44 11.44 0 0 1-2.94-8.23V75a13.89 13.89 0 0 1 1.31-6.12 10.17 10.17 0 0 1 3.66-4.21 9.17 9.17 0 0 1 5.1-1.52 8.63 8.63 0 0 1 7 3c1.66 2 2.49 4.8 2.49 8.48v1.64h-15.6a8.15 8.15 0 0 0 2 5.5 6.24 6.24 0 0 0 4.84 2.1 7 7 0 0 0 3.54-.85 8.88 8.88 0 0 0 2.53-2.26l2.4 1.87a9.66 9.66 0 0 1-8.71 4.44Zm-.49-20.65a5.24 5.24 0 0 0-4 1.74 8.34 8.34 0 0 0-2 4.86h11.53v-.3a7.51 7.51 0 0 0-1.61-4.65 5 5 0 0 0-3.92-1.65ZM387.18 74h-12.26v12.65h-6.39v-31h20.18v5.17h-13.79v8h12.26Zm17.48 10.3a7.71 7.71 0 0 1-6.31 2.77 7.27 7.27 0 0 1-5.65-2.13q-1.95-2.13-2-6.24V63.61h6.15v14.9c0 2.4 1.1 3.6 3.28 3.6s3.52-.72 4.3-2.17V63.61h6.18v23h-5.79ZM422.43 58v5.66h3.94v4.51h-3.94v11.5a2.73 2.73 0 0 0 .49 1.83 2.44 2.44 0 0 0 1.87.55 10.83 10.83 0 0 0 1.81-.14v4.66a12.66 12.66 0 0 1-3.73.55q-6.47 0-6.6-6.53V68.12h-3.36v-4.51h3.36V58Zm20.66 26.3a7.7 7.7 0 0 1-6.3 2.77 7.29 7.29 0 0 1-5.66-2.13q-2-2.13-2-6.24V63.61h6.16v14.9q0 3.6 3.27 3.6t4.3-2.17V63.61h6.18v23h-5.79Zm23.31-14.92a17.29 17.29 0 0 0-2.21-.17q-3.49 0-4.58 2.36v15.08h-6.15v-23h5.81l.17 2.75a5.7 5.7 0 0 1 5.13-3.17 6.65 6.65 0 0 1 1.92.27Zm13.11 17.69a11.27 11.27 0 0 1-8.25-3.07 11 11 0 0 1-3.18-8.28v-.59a13.82 13.82 0 0 1 1.34-6.21 9.87 9.87 0 0 1 3.8-4.22 10.72 10.72 0 0 1 5.61-1.47 9.55 9.55 0 0 1 7.44 3q2.72 3 2.71 8.45v2.51h-14.67a5.74 5.74 0 0 0 1.8 3.62 5.43 5.43 0 0 0 3.8 1.36 6.64 6.64 0 0 0 5.56-2.58l3 3.39a9.18 9.18 0 0 1-3.74 3 12.18 12.18 0 0 1-5.22 1.09Zm-.7-18.92a3.84 3.84 0 0 0-3 1.24 6.38 6.38 0 0 0-1.46 3.55h8.56v-.5a4.57 4.57 0 0 0-1.11-3.17 4 4 0 0 0-2.99-1.12Zm-241.25 59.77a13.55 13.55 0 0 1 1.33-6.09 9.89 9.89 0 0 1 3.71-4.18 10 10 0 0 1 5.41-1.46 9.7 9.7 0 0 1 7.61 3.25 12.52 12.52 0 0 1 2.91 8.67v.27a13.7 13.7 0 0 1-1.29 6 9.74 9.74 0 0 1-3.68 4.16 10.23 10.23 0 0 1-5.5 1.49 9.64 9.64 0 0 1-7.59-3.26 12.44 12.44 0 0 1-2.91-8.62Zm4 .46a9.84 9.84 0 0 0 1.78 6.16 6 6 0 0 0 9.53 0 10.79 10.79 0 0 0 1.76-6.58 9.85 9.85 0 0 0-1.8-6.15 5.74 5.74 0 0 0-4.78-2.35 5.64 5.64 0 0 0-4.7 2.32 10.71 10.71 0 0 0-1.83 6.6Zm22.64 11.27v-20h-3.64v-3h3.64v-2.36a7.85 7.85 0 0 1 2-5.73 7.45 7.45 0 0 1 5.59-2 10.46 10.46 0 0 1 2.71.36l-.21 3.17a11.18 11.18 0 0 0-2.13-.19 3.82 3.82 0 0 0-3 1.12 4.54 4.54 0 0 0-1.05 3.22v2.43h4.92v3h-4.92v20Zm42.42-13.48h-12.26v8.34h14.39v5.14H288v-31h20.73v5.17h-14.37v7.39h12.26Zm18.96 11.13a7.7 7.7 0 0 1-6.3 2.77 7.27 7.27 0 0 1-5.65-2.13q-2-2.13-2-6.24v-15.09h6.15v14.9q0 3.6 3.28 3.6c2.08 0 3.52-.72 4.3-2.17v-16.33h6.17v23h-5.79Zm23.32-14.92a17.44 17.44 0 0 0-2.22-.17q-3.49 0-4.57 2.36v15.08H336v-23h5.81l.18 2.75a5.68 5.68 0 0 1 5.13-3.17 6.53 6.53 0 0 1 1.91.27Zm1.64 5.54a13.62 13.62 0 0 1 1.32-6.11 9.7 9.7 0 0 1 3.8-4.16 11.06 11.06 0 0 1 5.76-1.46A10.5 10.5 0 0 1 369 119a11.43 11.43 0 0 1 3.29 7.75v1.57a12 12 0 0 1-3 8.51 11.48 11.48 0 0 1-15.89 0q-3-3.19-3-8.69Zm6.15.43a8.55 8.55 0 0 0 1.24 5 4.43 4.43 0 0 0 7 0q1.26-1.71 1.26-5.49a8.46 8.46 0 0 0-1.26-5 4.07 4.07 0 0 0-3.53-1.77 4 4 0 0 0-3.49 1.75 9.54 9.54 0 0 0-1.22 5.51Zm39.89-.01a13.84 13.84 0 0 1-2.42 8.53 7.76 7.76 0 0 1-6.52 3.2 7.2 7.2 0 0 1-5.65-2.43v10.86h-6.15v-31.89h5.71l.21 2.26a7.22 7.22 0 0 1 5.83-2.68 7.79 7.79 0 0 1 6.62 3.15q2.37 3.15 2.37 8.68Zm-6.16-.47a9.16 9.16 0 0 0-1.13-5 3.71 3.71 0 0 0-3.31-1.75 4 4 0 0 0-4 2.22v9.46a4.11 4.11 0 0 0 4 2.28c3.02.03 4.44-2.38 4.44-7.21Zm20.19 12.2a11.27 11.27 0 0 1-8.25-3.11 11 11 0 0 1-3.18-8.28v-.59a14 14 0 0 1 1.34-6.21 9.87 9.87 0 0 1 3.8-4.22 10.72 10.72 0 0 1 5.61-1.47 9.55 9.55 0 0 1 7.44 3q2.72 3 2.71 8.45v2.51h-14.66a5.68 5.68 0 0 0 1.79 3.62 5.46 5.46 0 0 0 3.81 1.36 6.62 6.62 0 0 0 5.55-2.58l3 3.39a9.18 9.18 0 0 1-3.74 3.05 12.18 12.18 0 0 1-5.22 1.08Zm-.7-18.92a3.84 3.84 0 0 0-3 1.24 6.38 6.38 0 0 0-1.46 3.55H414v-.5a4.57 4.57 0 0 0-1.11-3.17 4 4 0 0 0-2.98-1.12Z"/><path style="fill:#164194;stroke:#fff;stroke-miterlimit:10" d="M1.44 9h211.62v131H1.44z"/><path d="m109.84 18.13 1.79 5.58 5.85-.02-4.75 3.42 1.83 5.56-4.72-3.46-4.73 3.46 1.84-5.56-4.76-3.42 5.86.02 1.79-5.58zm0 96.52 1.79 5.58 5.85-.03-4.75 3.43 1.83 5.56-4.72-3.47-4.73 3.47 1.84-5.56-4.76-3.43 5.86.03 1.79-5.58zm-24.01-90.1 1.79 5.58 5.86-.02-4.76 3.42 1.84 5.56-4.73-3.46-4.72 3.46 1.83-5.56-4.75-3.42 5.86.02 1.78-5.58zM68.16 42.26l1.78 5.58 5.86-.03-4.75 3.43 1.83 5.56-4.72-3.46-4.73 3.46 1.84-5.56-4.76-3.43 5.86.03 1.79-5.58zm-6.52 24.07 1.79 5.58 5.86-.03-4.76 3.43 1.84 5.56-4.73-3.46-4.72 3.46 1.83-5.56L54 71.88l5.85.03 1.79-5.58zm6.45 24.08 1.79 5.58 5.86-.03-4.76 3.43 1.84 5.56-4.73-3.47-4.72 3.47 1.83-5.56-4.75-3.43 5.86.03 1.78-5.58zm17.74 17.7 1.79 5.58 5.86-.02-4.76 3.42 1.84 5.56-4.73-3.46-4.72 3.46 1.83-5.56-4.75-3.42 5.86.02 1.78-5.58zm48.04-83.56-1.79 5.58-5.86-.02 4.76 3.42-1.84 5.56 4.73-3.46 4.72 3.46-1.83-5.56 4.75-3.42-5.86.02-1.78-5.58zm17.67 17.71-1.79 5.58-5.85-.03 4.75 3.43-1.83 5.56 4.72-3.46 4.73 3.46-1.84-5.56 4.76-3.43-5.86.03-1.79-5.58zm6.52 24.07-1.79 5.58-5.86-.03 4.76 3.43-1.84 5.56 4.73-3.46 4.72 3.46-1.83-5.56 4.75-3.43-5.86.03-1.78-5.58zm-6.45 24.08-1.79 5.58-5.86-.03 4.76 3.43-1.84 5.56 4.73-3.47 4.72 3.47-1.83-5.56 4.75-3.43-5.86.03-1.78-5.58zm-17.74 17.7-1.79 5.58-5.86-.02 4.76 3.42-1.84 5.56 4.73-3.46 4.72 3.46-1.83-5.56 4.75-3.42-5.86.02-1.78-5.58z" style="fill:#ffed00"/><path class="cls-1" d="M262 23.81a11.37 11.37 0 0 1-3.63 7.59 11.88 11.88 0 0 1-8.12 2.67 10.9 10.9 0 0 1-8.8-3.94q-3.32-3.93-3.31-10.54v-3A17.66 17.66 0 0 1 239.7 9a11.54 11.54 0 0 1 4.38-5 12.16 12.16 0 0 1 6.55-1.76A11.19 11.19 0 0 1 258.55 5a11.5 11.5 0 0 1 3.45 7.61h-4.11a8.86 8.86 0 0 0-2.31-5.38 7 7 0 0 0-5-1.66 7.31 7.31 0 0 0-6.14 2.89c-1.48 1.94-2.22 4.68-2.22 8.25v3a13.73 13.73 0 0 0 2.1 8 6.83 6.83 0 0 0 5.9 3 7.94 7.94 0 0 0 5.23-1.54c1.21-1 2-2.83 2.41-5.38Zm3.73-1.89a13.55 13.55 0 0 1 1.33-6.09 9.87 9.87 0 0 1 3.7-4.18 10.07 10.07 0 0 1 5.42-1.46 9.71 9.71 0 0 1 7.61 3.25 12.52 12.52 0 0 1 2.91 8.67v.27a13.7 13.7 0 0 1-1.29 6 9.76 9.76 0 0 1-3.69 4.16 10.21 10.21 0 0 1-5.5 1.49 9.67 9.67 0 0 1-7.59-3.26 12.44 12.44 0 0 1-2.9-8.62Zm4 .46a9.9 9.9 0 0 0 1.77 6.16 6 6 0 0 0 9.53 0 10.73 10.73 0 0 0 1.77-6.58 9.85 9.85 0 0 0-1.8-6.15 5.74 5.74 0 0 0-4.78-2.35 5.66 5.66 0 0 0-4.71 2.32q-1.83 2.28-1.82 6.6Zm25.15-11.77.13 2.9a8.38 8.38 0 0 1 6.9-3.32q7.29 0 7.36 8.23v15.23h-3.94V18.4a5.24 5.24 0 0 0-1.14-3.68 4.53 4.53 0 0 0-3.48-1.19 5.71 5.71 0 0 0-3.36 1 7 7 0 0 0-2.26 2.68v16.44h-3.93v-23Zm21.33 23.04v-20h-3.64v-3.04h3.64V8.25a7.85 7.85 0 0 1 2-5.73 7.46 7.46 0 0 1 5.6-2 10.38 10.38 0 0 1 2.7.36L326.28 4a11.18 11.18 0 0 0-2.13-.19 3.82 3.82 0 0 0-3 1.12 4.54 4.54 0 0 0-1 3.22v2.43h4.91v3.05h-4.91v20Zm21.46.42a10 10 0 0 1-7.62-3.07 11.44 11.44 0 0 1-2.94-8.23V22a13.75 13.75 0 0 1 1.31-6.12 10.17 10.17 0 0 1 3.66-4.21 9.17 9.17 0 0 1 5.1-1.52 8.63 8.63 0 0 1 7 3c1.66 2 2.49 4.8 2.49 8.48v1.64h-15.6a8.15 8.15 0 0 0 2 5.5 6.24 6.24 0 0 0 4.84 2.1 6.91 6.91 0 0 0 3.53-.85 8.92 8.92 0 0 0 2.56-2.27l2.4 1.87a9.66 9.66 0 0 1-8.73 4.45Zm-.49-20.65a5.26 5.26 0 0 0-4 1.74 8.48 8.48 0 0 0-2 4.86h11.54v-.3a7.45 7.45 0 0 0-1.62-4.65 4.93 4.93 0 0 0-3.92-1.65Zm24.95.72a13.11 13.11 0 0 0-1.94-.14 5.19 5.19 0 0 0-5.26 3.3v16.35H351v-23h3.83l.07 2.66a6.12 6.12 0 0 1 5.49-3.08 4 4 0 0 1 1.75.29Zm12.4 19.93a10.07 10.07 0 0 1-7.62-3.07 11.44 11.44 0 0 1-2.91-8.23V22a13.89 13.89 0 0 1 1.31-6.12 10.31 10.31 0 0 1 3.66-4.21 9.17 9.17 0 0 1 5.1-1.52 8.64 8.64 0 0 1 7 3c1.66 2 2.49 4.8 2.49 8.48v1.64h-15.65a8.2 8.2 0 0 0 2 5.5 6.26 6.26 0 0 0 4.85 2.1 6.94 6.94 0 0 0 3.53-.85 8.75 8.75 0 0 0 2.53-2.26l2.41 1.87a9.67 9.67 0 0 1-8.7 4.44ZM374 13.42a5.24 5.24 0 0 0-4 1.74 8.41 8.41 0 0 0-2 4.84h11.54v-.3a7.45 7.45 0 0 0-1.54-4.63 4.94 4.94 0 0 0-4-1.65Zm17.58-2.81.13 2.9a8.38 8.38 0 0 1 6.9-3.32q7.31 0 7.37 8.23v15.23H402V18.4a5.34 5.34 0 0 0-1.14-3.68 4.56 4.56 0 0 0-3.48-1.19 5.72 5.72 0 0 0-3.37 1 6.93 6.93 0 0 0-2.25 2.68v16.44h-3.94v-23Zm29.11 20.25a5.69 5.69 0 0 0 3.68-1.28 4.53 4.53 0 0 0 1.75-3.19h3.72a7.08 7.08 0 0 1-1.36 3.76 8.92 8.92 0 0 1-3.35 2.85 9.68 9.68 0 0 1-4.44 1.06 9.49 9.49 0 0 1-7.48-3.14c-1.86-2.09-2.78-5-2.78-8.59v-.66a13.89 13.89 0 0 1 1.23-6 9.47 9.47 0 0 1 3.55-4.07 10.11 10.11 0 0 1 5.46-1.44 9.23 9.23 0 0 1 6.44 2.32 8.25 8.25 0 0 1 2.73 6h-3.72a5.47 5.47 0 0 0-1.69-3.67 5.27 5.27 0 0 0-3.76-1.44 5.51 5.51 0 0 0-4.67 2.21 10.14 10.14 0 0 0-1.65 6.25v.75a9.92 9.92 0 0 0 1.65 6.13 5.54 5.54 0 0 0 4.69 2.15Zm22.83 3.21a10.07 10.07 0 0 1-7.63-3.07 11.48 11.48 0 0 1-2.89-8.23V22a13.75 13.75 0 0 1 1.31-6.12 10.17 10.17 0 0 1 3.66-4.21 9.17 9.17 0 0 1 5.1-1.52 8.63 8.63 0 0 1 7 3c1.66 2 2.49 4.8 2.49 8.48v1.64H436.9a8.15 8.15 0 0 0 2 5.5 6.24 6.24 0 0 0 4.84 2.1 6.91 6.91 0 0 0 3.53-.85 8.92 8.92 0 0 0 2.54-2.26l2.4 1.87a9.66 9.66 0 0 1-8.69 4.44ZM443 13.42a5.26 5.26 0 0 0-4 1.74 8.48 8.48 0 0 0-2 4.84h11.54v-.3a7.45 7.45 0 0 0-1.62-4.65 4.93 4.93 0 0 0-3.92-1.63Zm-205.44 61.5a13.55 13.55 0 0 1 1.33-6.09 9.89 9.89 0 0 1 3.71-4.18 10 10 0 0 1 5.4-1.46 9.7 9.7 0 0 1 7.61 3.25 12.52 12.52 0 0 1 2.91 8.67v.27a13.7 13.7 0 0 1-1.29 6 9.74 9.74 0 0 1-3.68 4.16 10.23 10.23 0 0 1-5.5 1.49 9.64 9.64 0 0 1-7.59-3.26 12.44 12.44 0 0 1-2.91-8.62Zm4 .46a9.84 9.84 0 0 0 1.78 6.16 6 6 0 0 0 9.53 0 10.79 10.79 0 0 0 1.76-6.58 9.85 9.85 0 0 0-1.8-6.15 5.74 5.74 0 0 0-4.83-2.39 5.64 5.64 0 0 0-4.7 2.32 10.71 10.71 0 0 0-1.78 6.64Zm25.16-11.77.12 2.9a8.38 8.38 0 0 1 6.9-3.32q7.31 0 7.37 8.23v15.23h-3.94V71.4a5.29 5.29 0 0 0-1.17-3.68 4.54 4.54 0 0 0-3.48-1.19 5.66 5.66 0 0 0-3.36 1 6.87 6.87 0 0 0-2.26 2.68v16.44H263v-23ZM303.18 58v5.58h4.3v3h-4.3V81a3.24 3.24 0 0 0 .58 2.08 2.41 2.41 0 0 0 2 .69 9.6 9.6 0 0 0 1.87-.26v3.18a11.5 11.5 0 0 1-3 .42 4.88 4.88 0 0 1-4-1.6 6.8 6.8 0 0 1-1.34-4.53V66.66h-4.2v-3h4.2V58Zm12.06 8.4a8.39 8.39 0 0 1 6.81-3.21q7.31 0 7.37 8.23v15.23h-3.94V71.4a5.24 5.24 0 0 0-1.14-3.68 4.53 4.53 0 0 0-3.48-1.19 5.66 5.66 0 0 0-3.36 1 6.87 6.87 0 0 0-2.26 2.68v16.44h-3.94V54h3.94Zm29.17 20.67a10.07 10.07 0 0 1-7.62-3.07 11.44 11.44 0 0 1-2.94-8.23V75a13.89 13.89 0 0 1 1.31-6.12 10.17 10.17 0 0 1 3.66-4.21 9.17 9.17 0 0 1 5.1-1.52 8.63 8.63 0 0 1 7 3c1.66 2 2.49 4.8 2.49 8.48v1.64h-15.6a8.15 8.15 0 0 0 2 5.5 6.24 6.24 0 0 0 4.84 2.1 7 7 0 0 0 3.54-.85 8.88 8.88 0 0 0 2.53-2.26l2.4 1.87a9.66 9.66 0 0 1-8.71 4.44Zm-.49-20.65a5.24 5.24 0 0 0-4 1.74 8.34 8.34 0 0 0-2 4.86h11.53v-.3a7.51 7.51 0 0 0-1.61-4.65 5 5 0 0 0-3.92-1.65ZM387.18 74h-12.26v12.65h-6.39v-31h20.18v5.17h-13.79v8h12.26Zm17.48 10.3a7.71 7.71 0 0 1-6.31 2.77 7.27 7.27 0 0 1-5.65-2.13q-1.95-2.13-2-6.24V63.61h6.15v14.9c0 2.4 1.1 3.6 3.28 3.6s3.52-.72 4.3-2.17V63.61h6.18v23h-5.79ZM422.43 58v5.66h3.94v4.51h-3.94v11.5a2.73 2.73 0 0 0 .49 1.83 2.44 2.44 0 0 0 1.87.55 10.83 10.83 0 0 0 1.81-.14v4.66a12.66 12.66 0 0 1-3.73.55q-6.47 0-6.6-6.53V68.12h-3.36v-4.51h3.36V58Zm20.66 26.3a7.7 7.7 0 0 1-6.3 2.77 7.29 7.29 0 0 1-5.66-2.13q-2-2.13-2-6.24V63.61h6.16v14.9q0 3.6 3.27 3.6t4.3-2.17V63.61h6.18v23h-5.79Zm23.31-14.92a17.29 17.29 0 0 0-2.21-.17q-3.49 0-4.58 2.36v15.08h-6.15v-23h5.81l.17 2.75a5.7 5.7 0 0 1 5.13-3.17 6.65 6.65 0 0 1 1.92.27Zm13.11 17.69a11.27 11.27 0 0 1-8.25-3.07 11 11 0 0 1-3.18-8.28v-.59a13.82 13.82 0 0 1 1.34-6.21 9.87 9.87 0 0 1 3.8-4.22 10.72 10.72 0 0 1 5.61-1.47 9.55 9.55 0 0 1 7.44 3q2.72 3 2.71 8.45v2.51h-14.67a5.74 5.74 0 0 0 1.8 3.62 5.43 5.43 0 0 0 3.8 1.36 6.64 6.64 0 0 0 5.56-2.58l3 3.39a9.18 9.18 0 0 1-3.74 3 12.18 12.18 0 0 1-5.22 1.09Zm-.7-18.92a3.84 3.84 0 0 0-3 1.24 6.38 6.38 0 0 0-1.46 3.55h8.56v-.5a4.57 4.57 0 0 0-1.11-3.17 4 4 0 0 0-2.99-1.12Zm-241.25 59.77a13.55 13.55 0 0 1 1.33-6.09 9.89 9.89 0 0 1 3.71-4.18 10 10 0 0 1 5.41-1.46 9.7 9.7 0 0 1 7.61 3.25 12.52 12.52 0 0 1 2.91 8.67v.27a13.7 13.7 0 0 1-1.29 6 9.74 9.74 0 0 1-3.68 4.16 10.23 10.23 0 0 1-5.5 1.49 9.64 9.64 0 0 1-7.59-3.26 12.44 12.44 0 0 1-2.91-8.62Zm4 .46a9.84 9.84 0 0 0 1.78 6.16 6 6 0 0 0 9.53 0 10.79 10.79 0 0 0 1.76-6.58 9.85 9.85 0 0 0-1.8-6.15 5.74 5.74 0 0 0-4.78-2.35 5.64 5.64 0 0 0-4.7 2.32 10.71 10.71 0 0 0-1.83 6.6Zm22.64 11.27v-20h-3.64v-3h3.64v-2.36a7.85 7.85 0 0 1 2-5.73 7.45 7.45 0 0 1 5.59-2 10.46 10.46 0 0 1 2.71.36l-.21 3.17a11.18 11.18 0 0 0-2.13-.19 3.82 3.82 0 0 0-3 1.12 4.54 4.54 0 0 0-1.05 3.22v2.43h4.92v3h-4.92v20Zm42.42-13.48h-12.26v8.34h14.39v5.14H288v-31h20.73v5.17h-14.37v7.39h12.26Zm18.96 11.13a7.7 7.7 0 0 1-6.3 2.77 7.27 7.27 0 0 1-5.65-2.13q-2-2.13-2-6.24v-15.09h6.15v14.9q0 3.6 3.28 3.6c2.08 0 3.52-.72 4.3-2.17v-16.33h6.17v23h-5.79Zm23.32-14.92a17.44 17.44 0 0 0-2.22-.17q-3.49 0-4.57 2.36v15.08H336v-23h5.81l.18 2.75a5.68 5.68 0 0 1 5.13-3.17 6.53 6.53 0 0 1 1.91.27Zm1.64 5.54a13.62 13.62 0 0 1 1.32-6.11 9.7 9.7 0 0 1 3.8-4.16 11.06 11.06 0 0 1 5.76-1.46A10.5 10.5 0 0 1 369 119a11.43 11.43 0 0 1 3.29 7.75v1.57a12.06 12.06 0 0 1-3 8.51 11.48 11.48 0 0 1-15.89 0q-3-3.19-3-8.69Zm6.15.43a8.55 8.55 0 0 0 1.24 5 4.43 4.43 0 0 0 7 0q1.26-1.71 1.26-5.49a8.46 8.46 0 0 0-1.26-5 4.07 4.07 0 0 0-3.53-1.77 4 4 0 0 0-3.49 1.75 9.54 9.54 0 0 0-1.22 5.51Zm39.89-.01a13.84 13.84 0 0 1-2.42 8.53 7.76 7.76 0 0 1-6.52 3.2 7.2 7.2 0 0 1-5.65-2.43v10.86h-6.15v-31.89h5.71l.21 2.26a7.22 7.22 0 0 1 5.83-2.68 7.79 7.79 0 0 1 6.62 3.15q2.37 3.15 2.37 8.68Zm-6.16-.47a9.16 9.16 0 0 0-1.13-5 3.71 3.71 0 0 0-3.31-1.75 4 4 0 0 0-4 2.22v9.46a4.11 4.11 0 0 0 4 2.28c3.02.03 4.44-2.38 4.44-7.21Zm20.19 12.2a11.27 11.27 0 0 1-8.25-3.11 11 11 0 0 1-3.18-8.28v-.59a14 14 0 0 1 1.34-6.21 9.87 9.87 0 0 1 3.8-4.22 10.72 10.72 0 0 1 5.61-1.47 9.55 9.55 0 0 1 7.44 3q2.72 3 2.71 8.45v2.51h-14.66a5.68 5.68 0 0 0 1.79 3.62 5.46 5.46 0 0 0 3.81 1.36 6.62 6.62 0 0 0 5.55-2.58l3 3.39a9.18 9.18 0 0 1-3.74 3.05 12.18 12.18 0 0 1-5.22 1.08Zm-.7-18.92a3.84 3.84 0 0 0-3 1.24 6.38 6.38 0 0 0-1.46 3.55H414v-.5a4.57 4.57 0 0 0-1.11-3.17 4 4 0 0 0-2.98-1.12Z"/></g></svg>