<svg xmlns="http://www.w3.org/2000/svg" viewBox="0 0 602 149"><g data-name="Layer 1"><path style="fill:#164194;stroke:#fff;stroke-miterlimit:10" d="M1.44 9h211.62v131H1.44z"/><path d="m109.84 18.13 1.79 5.58 5.85-.02-4.75 3.42 1.83 5.56-4.72-3.46-4.73 3.46 1.84-5.56-4.76-3.42 5.86.02 1.79-5.58zm0 96.52 1.79 5.58 5.85-.03-4.75 3.43 1.83 5.56-4.72-3.47-4.73 3.47 1.84-5.56-4.76-3.43 5.86.03 1.79-5.58zm-24.01-90.1 1.79 5.58 5.86-.02-4.76 3.42 1.84 5.56-4.73-3.46-4.72 3.46 1.83-5.56-4.75-3.42 5.86.02 1.78-5.58zM68.16 42.26l1.78 5.58 5.86-.03-4.75 3.43 1.83 5.56-4.72-3.46-4.73 3.46 1.84-5.56-4.76-3.43 5.86.03 1.79-5.58zm-6.52 24.07 1.79 5.58 5.86-.03-4.76 3.43 1.84 5.56-4.73-3.46-4.72 3.46 1.83-5.56L54 71.88l5.85.03 1.79-5.58zm6.45 24.08 1.79 5.58 5.86-.03-4.76 3.43 1.84 5.56-4.73-3.47-4.72 3.47 1.83-5.56-4.75-3.43 5.86.03 1.78-5.58zm17.74 17.7 1.79 5.58 5.86-.02-4.76 3.42 1.84 5.56-4.73-3.46-4.72 3.46 1.83-5.56-4.75-3.42 5.86.02 1.78-5.58zm48.04-83.56-1.79 5.58-5.86-.02 4.76 3.42-1.84 5.56 4.73-3.46 4.72 3.46-1.83-5.56 4.75-3.42-5.86.02-1.78-5.58zm17.67 17.71-1.79 5.58-5.85-.03 4.75 3.43-1.83 5.56 4.72-3.46 4.73 3.46-1.84-5.56 4.76-3.43-5.86.03-1.79-5.58zm6.52 24.07-1.79 5.58-5.86-.03 4.76 3.43-1.84 5.56 4.73-3.46 4.72 3.46-1.83-5.56 4.75-3.43-5.86.03-1.78-5.58zm-6.45 24.08-1.79 5.58-5.86-.03 4.76 3.43-1.84 5.56 4.73-3.47 4.72 3.47-1.83-5.56 4.75-3.43-5.86.03-1.78-5.58zm-17.74 17.7-1.79 5.58-5.86-.02 4.76 3.42-1.84 5.56 4.73-3.46 4.72 3.46-1.83-5.56 4.75-3.42-5.86.02-1.78-5.58z" style="fill:#ffed00"/><path d="m247.1 19-3.79 4v10.42h-4.09v-31h4.09v15.33l13.77-15.32H262l-12.2 13.68L263 33.42h-4.9Zm16.36 2.69a13.75 13.75 0 0 1 1.33-6.09 9.92 9.92 0 0 1 3.71-4.17 10.05 10.05 0 0 1 5.42-1.43 9.73 9.73 0 0 1 7.61 3.26 12.56 12.56 0 0 1 2.9 8.66v.28a13.76 13.76 0 0 1-1.29 6 9.8 9.8 0 0 1-3.68 4.16 10.23 10.23 0 0 1-5.5 1.49 9.69 9.69 0 0 1-7.59-3.26 12.44 12.44 0 0 1-2.91-8.59Zm4 .47a9.81 9.81 0 0 0 1.78 6.15 6 6 0 0 0 9.53 0 10.83 10.83 0 0 0 1.76-6.59 9.84 9.84 0 0 0-1.8-6.14 6 6 0 0 0-9.48 0 10.71 10.71 0 0 0-1.83 6.58Zm25.16-11.77.13 2.89a8.37 8.37 0 0 1 6.89-3.28q7.31 0 7.37 8.24v15.18h-3.94V18.18a5.24 5.24 0 0 0-1.14-3.68 4.53 4.53 0 0 0-3.48-1.2 5.6 5.6 0 0 0-3.36 1 6.87 6.87 0 0 0-2.26 2.7v16.42h-3.94v-23Zm21.32 23.03v-20h-3.64v-3h3.64V8a7.83 7.83 0 0 1 2-5.72 7.48 7.48 0 0 1 5.6-2 10.46 10.46 0 0 1 2.71.36L324 3.81a11 11 0 0 0-2.13-.19 3.85 3.85 0 0 0-3 1.12 4.57 4.57 0 0 0-1 3.21v2.44h4.92v3h-4.92v20Zm21.46.43a10.07 10.07 0 0 1-7.62-3.08 11.41 11.41 0 0 1-2.94-8.23v-.72a13.83 13.83 0 0 1 1.31-6.12 10.27 10.27 0 0 1 3.66-4.22 9.25 9.25 0 0 1 5.1-1.52 8.64 8.64 0 0 1 7 3c1.66 2 2.49 4.8 2.49 8.47V23h-15.62a8.23 8.23 0 0 0 2 5.51 6.28 6.28 0 0 0 4.84 2.09 6.85 6.85 0 0 0 3.54-.85 9 9 0 0 0 2.53-2.25l2.41 1.87a9.69 9.69 0 0 1-8.7 4.48Zm-.49-20.65a5.27 5.27 0 0 0-4 1.73 8.47 8.47 0 0 0-2 4.87h11.54v-.3a7.57 7.57 0 0 0-1.62-4.65 5 5 0 0 0-3.92-1.65Zm24.95.72a11.67 11.67 0 0 0-1.94-.15 5.18 5.18 0 0 0-5.25 3.3v16.35h-3.94v-23h3.83l.06 2.66a6.15 6.15 0 0 1 5.5-3.09 4 4 0 0 1 1.74.3Zm12.41 19.93a10.07 10.07 0 0 1-7.62-3.08 11.41 11.41 0 0 1-2.94-8.23v-.72A13.83 13.83 0 0 1 363 15.7a10.19 10.19 0 0 1 3.66-4.22 9.25 9.25 0 0 1 5.1-1.52 8.64 8.64 0 0 1 7 3c1.66 2 2.49 4.8 2.49 8.47V23h-15.6a8.18 8.18 0 0 0 2 5.51 6.27 6.27 0 0 0 4.84 2.09 6.87 6.87 0 0 0 3.54-.85 9 9 0 0 0 2.53-2.25l2.44 1.9a9.68 9.68 0 0 1-8.73 4.45Zm-.49-20.65a5.25 5.25 0 0 0-4 1.73 8.4 8.4 0 0 0-2 4.87h11.53v-.3a7.51 7.51 0 0 0-1.61-4.65 5 5 0 0 0-3.92-1.65Zm17.54-2.81.13 2.89a8.41 8.41 0 0 1 6.9-3.32q7.29 0 7.36 8.24v15.22h-3.94V18.18a5.24 5.24 0 0 0-1.14-3.68 4.53 4.53 0 0 0-3.48-1.2 5.62 5.62 0 0 0-3.36 1 7 7 0 0 0-2.26 2.7v16.42h-3.94v-23Zm29.1 20.24a5.68 5.68 0 0 0 3.69-1.27 4.5 4.5 0 0 0 1.74-3.2h3.73a7.19 7.19 0 0 1-1.36 3.77 9 9 0 0 1-3.36 2.85 9.63 9.63 0 0 1-4.44 1.07 9.5 9.5 0 0 1-7.48-3.14q-2.78-3.15-2.78-8.59v-.66a13.89 13.89 0 0 1 1.24-6 9.33 9.33 0 0 1 3.54-4.07A10 10 0 0 1 418.4 10a9.26 9.26 0 0 1 6.44 2.32 8.34 8.34 0 0 1 2.74 6h-3.73a5.45 5.45 0 0 0-1.69-3.68 5.29 5.29 0 0 0-3.76-1.43 5.51 5.51 0 0 0-4.65 2.16 10.14 10.14 0 0 0-1.65 6.25v.74a9.94 9.94 0 0 0 1.64 6.13 5.51 5.51 0 0 0 4.68 2.14Zm13.16-26.35a2.36 2.36 0 0 1 .59-1.62A2.2 2.2 0 0 1 433.9 2a2.24 2.24 0 0 1 1.75.66 2.32 2.32 0 0 1 .6 1.62 2.21 2.21 0 0 1-.6 1.59 2.27 2.27 0 0 1-1.75.64 2.22 2.22 0 0 1-1.73-.64 2.25 2.25 0 0 1-.59-1.59Zm4.26 29.14h-3.94v-23h3.94Zm19.64 0a8.33 8.33 0 0 1-.56-2.43 8.75 8.75 0 0 1-6.55 2.86 8.12 8.12 0 0 1-5.59-1.93A6.23 6.23 0 0 1 440.6 27a6.51 6.51 0 0 1 2.73-5.59c1.83-1.33 4.39-2 7.7-2h3.83v-1.76a4.42 4.42 0 0 0-1.23-3.29 5 5 0 0 0-3.63-1.23 5.75 5.75 0 0 0-3.54 1.07 3.13 3.13 0 0 0-1.46 2.57h-4a5.4 5.4 0 0 1 1.22-3.33 8.33 8.33 0 0 1 3.32-2.54 11.11 11.11 0 0 1 4.61-.94 9.16 9.16 0 0 1 6.24 2 7.22 7.22 0 0 1 2.34 5.48V28a12.94 12.94 0 0 0 .81 5v.34Zm-6.54-3a6.93 6.93 0 0 0 3.52-1 5.86 5.86 0 0 0 2.4-2.49v-4.68h-3.09q-7.23 0-7.23 4.23a3.6 3.6 0 0 0 1.23 2.9 4.76 4.76 0 0 0 3.17 1.04ZM237.56 74.69a13.61 13.61 0 0 1 1.33-6.09 9.92 9.92 0 0 1 3.71-4.17A10 10 0 0 1 248 63a9.7 9.7 0 0 1 7.61 3.26 12.51 12.51 0 0 1 2.91 8.66v.28a13.76 13.76 0 0 1-1.29 6 9.8 9.8 0 0 1-3.68 4.16 10.23 10.23 0 0 1-5.5 1.49 9.69 9.69 0 0 1-7.59-3.26 12.44 12.44 0 0 1-2.9-8.59Zm4 .47a9.81 9.81 0 0 0 1.78 6.15 6 6 0 0 0 9.53 0 10.83 10.83 0 0 0 1.76-6.59 9.84 9.84 0 0 0-1.8-6.14A5.71 5.71 0 0 0 248 66.2a5.64 5.64 0 0 0-4.7 2.32 10.71 10.71 0 0 0-1.78 6.64Zm52.84-.04c0 3.69-.78 6.57-2.36 8.63a7.83 7.83 0 0 1-6.6 3.1 7.18 7.18 0 0 1-6-2.88l-.28 2.45h-5.53v-32.7h6.15v11.73A7 7 0 0 1 285.4 63a7.89 7.89 0 0 1 6.61 3.1q2.39 3.09 2.39 8.72Zm-6.15-.47a9.22 9.22 0 0 0-1.11-5.12 3.73 3.73 0 0 0-3.3-1.61 4.07 4.07 0 0 0-4 2.41v9.12a4.1 4.1 0 0 0 4.09 2.44 3.79 3.79 0 0 0 3.91-3 15.15 15.15 0 0 0 .41-4.24Zm23.53 9.43a7.7 7.7 0 0 1-6.3 2.77 7.26 7.26 0 0 1-5.65-2.13q-1.95-2.13-2-6.24V63.39H304v14.9q0 3.6 3.27 3.6t4.31-2.18V63.39h6.17v23H312Zm9.47-9.35c0-3.59.8-6.45 2.42-8.58a7.85 7.85 0 0 1 6.6-3.19 7.06 7.06 0 0 1 5.56 2.51V53.72H342v32.7h-5.55l-.3-2.45a7.22 7.22 0 0 1-5.92 2.88 7.81 7.81 0 0 1-6.52-3.21q-2.46-3.19-2.46-8.91Zm6.15.44a9.13 9.13 0 0 0 1.13 5 3.66 3.66 0 0 0 3.28 1.74 4.12 4.12 0 0 0 4-2.42v-9.15a4.05 4.05 0 0 0-4-2.42q-4.41 0-4.41 7.25Zm32.93 8.91a7.71 7.71 0 0 1-6.33 2.77 7.27 7.27 0 0 1-5.65-2.13q-2-2.13-2-6.24V63.39h6.15v14.9c0 2.4 1.1 3.6 3.28 3.6s3.52-.73 4.3-2.18V63.39h6.18v23h-5.76Zm-2.75-30.36h6.7l-5.89 6.6h-5Zm22.68 28.17A4 4 0 0 0 383 81a3.27 3.27 0 0 0 1.11-2.49h5.77a7.93 7.93 0 0 1-1.28 4.29 8.35 8.35 0 0 1-3.44 3 10.7 10.7 0 0 1-4.82 1.08 10 10 0 0 1-7.79-3.14q-2.85-3.15-2.85-8.68v-.4a12.29 12.29 0 0 1 2.83-8.5 9.88 9.88 0 0 1 7.8-3.16 9.69 9.69 0 0 1 6.93 2.46 8.71 8.71 0 0 1 2.65 6.54h-5.77a4.21 4.21 0 0 0-1.14-2.95 4.11 4.11 0 0 0-6.06.44c-.73 1-1.09 2.74-1.09 5.08v.64c0 2.38.36 4.08 1.08 5.12a3.76 3.76 0 0 0 3.33 1.56Zm18.67-18.5.19 2.66a8.05 8.05 0 0 1 6.62-3.05 6.69 6.69 0 0 1 5.45 2.15c1.19 1.44 1.81 3.58 1.83 6.43v14.84h-6.15V71.66a4 4 0 0 0-.85-2.85 3.81 3.81 0 0 0-2.83-.89 4.24 4.24 0 0 0-3.9 2.22v16.28h-6.15v-23Zm17.4 11.3a13.68 13.68 0 0 1 1.32-6.11 9.61 9.61 0 0 1 3.8-4.15 11.07 11.07 0 0 1 5.76-1.43 10.51 10.51 0 0 1 7.61 2.85 11.46 11.46 0 0 1 3.28 7.75v1.58a12 12 0 0 1-3 8.5 11.45 11.45 0 0 1-15.89 0c-2-2.12-3-5-3-8.68Zm6.15.44a8.63 8.63 0 0 0 1.23 5 4.44 4.44 0 0 0 7 0q1.29-1.67 1.29-5.45a8.5 8.5 0 0 0-1.26-5 4.09 4.09 0 0 0-3.53-1.77 4 4 0 0 0-3.5 1.76 9.61 9.61 0 0 0-1.23 5.46ZM454 80.06a2 2 0 0 0-1.12-1.78 12.81 12.81 0 0 0-3.59-1.16q-8.22-1.73-8.22-7a6.32 6.32 0 0 1 2.5-5.12 10.24 10.24 0 0 1 6.65-2 11.06 11.06 0 0 1 7 2.07 6.49 6.49 0 0 1 2.62 5.36h-6.15a3 3 0 0 0-.85-2.18 3.58 3.58 0 0 0-2.66-.86 3.68 3.68 0 0 0-2.41.7 2.24 2.24 0 0 0-.85 1.79 1.89 1.89 0 0 0 1 1.65 9.91 9.91 0 0 0 3.27 1.08 26.38 26.38 0 0 1 3.87 1q4.88 1.78 4.88 6.19a6 6 0 0 1-2.7 5.1 11.7 11.7 0 0 1-7 1.95 12.31 12.31 0 0 1-5.14-1 8.61 8.61 0 0 1-3.52-2.85 6.58 6.58 0 0 1-1.28-3.88h5.83a3.2 3.2 0 0 0 1.22 2.51 4.82 4.82 0 0 0 3 .87 4.42 4.42 0 0 0 2.67-.67 2.08 2.08 0 0 0 .98-1.77Zm17.25-22.34v5.67h3.94v4.51h-3.94v11.5a2.78 2.78 0 0 0 .49 1.83 2.47 2.47 0 0 0 1.88.55 9.8 9.8 0 0 0 1.81-.15v4.66a12.67 12.67 0 0 1-3.73.56q-6.46 0-6.6-6.54V67.9h-3.36v-4.51h3.36v-5.67Zm6.75-.29a3 3 0 0 1 .92-2.28 4 4 0 0 1 5 0 3 3 0 0 1 .93 2.28 3 3 0 0 1-.94 2.3 4 4 0 0 1-5 0 3 3 0 0 1-.91-2.3Zm6.53 29h-6.17v-23h6.17ZM257 126h-12.22v8.34h14.39v5.13h-20.78v-31h20.74v5.17h-14.35V121H257Zm19 11.08a7.7 7.7 0 0 1-6.3 2.77 7.29 7.29 0 0 1-5.66-2.13c-1.29-1.42-2-3.5-2-6.24v-15.09h6.16v14.9q0 3.6 3.27 3.6t4.3-2.18v-16.32H282v23h-5.79Zm23.31-14.92a15.54 15.54 0 0 0-2.21-.17c-2.33 0-3.85.78-4.58 2.36v15.07h-6.15v-23h5.81l.17 2.74a5.72 5.72 0 0 1 5.13-3.17 6.32 6.32 0 0 1 1.92.28Zm1.69 5.53a13.68 13.68 0 0 1 1.32-6.11 9.61 9.61 0 0 1 3.8-4.15 11.05 11.05 0 0 1 5.75-1.47 10.52 10.52 0 0 1 7.62 2.85 11.52 11.52 0 0 1 3.29 7.75v1.58a12 12 0 0 1-3 8.5 11.45 11.45 0 0 1-15.89 0c-2-2.12-3-5-3-8.68Zm6.15.44a8.63 8.63 0 0 0 1.23 5 4.44 4.44 0 0 0 7 0c.84-1.14 1.25-3 1.25-5.49a8.5 8.5 0 0 0-1.25-5 4.09 4.09 0 0 0-3.54-1.77 4 4 0 0 0-3.49 1.76 9.61 9.61 0 0 0-1.24 5.5Zm5.94-21.41h6.7l-5.89 6.6h-5Zm33.91 21.4a13.78 13.78 0 0 1-2.41 8.52 7.75 7.75 0 0 1-6.53 3.21 7.16 7.16 0 0 1-5.64-2.43v10.86h-6.15v-31.89H332l.22 2.25A7.24 7.24 0 0 1 338 116a7.8 7.8 0 0 1 6.62 3.15c1.58 2.1 2.36 5 2.36 8.69Zm-6.15-.47a9.13 9.13 0 0 0-1.14-5 3.72 3.72 0 0 0-3.31-1.75 4 4 0 0 0-4 2.22v9.46a4.08 4.08 0 0 0 4 2.29c2.97.02 4.44-2.4 4.44-7.22Zm17.55 3.06 4.26-14.32h6.59L360 143l-.51 1.21a7 7 0 0 1-6.81 4.52 9.65 9.65 0 0 1-2.72-.41v-4.66h.93a5.09 5.09 0 0 0 2.61-.53 3.48 3.48 0 0 0 1.35-1.77l.73-1.89-8.07-23.1h6.62Z" style="fill:#fff"/></g></svg>