<svg xmlns="http://www.w3.org/2000/svg" viewBox="0 0 602 149"><defs><style>.cls-3{fill:#fff}</style></defs><g id="Layer_1" data-name="Layer 1"><path style="fill:#164194;stroke:#fff;stroke-miterlimit:10" d="M1.44 9h211.62v131H1.44z"/><path d="m109.84 18.13 1.79 5.58 5.85-.02-4.75 3.42 1.83 5.56-4.72-3.46-4.73 3.46 1.84-5.56-4.76-3.42 5.86.02 1.79-5.58zm0 96.52 1.79 5.58 5.85-.03-4.75 3.43 1.83 5.56-4.72-3.47-4.73 3.47 1.84-5.56-4.76-3.43 5.86.03 1.79-5.58zm-24.01-90.1 1.79 5.58 5.86-.02-4.76 3.42 1.84 5.56-4.73-3.46-4.72 3.46 1.83-5.56-4.75-3.42 5.86.02 1.78-5.58zM68.16 42.26l1.78 5.58 5.86-.03-4.75 3.43 1.83 5.56-4.72-3.46-4.73 3.46 1.84-5.56-4.76-3.43 5.86.03 1.79-5.58zm-6.52 24.07 1.79 5.58 5.86-.03-4.76 3.43 1.84 5.56-4.73-3.46-4.72 3.46 1.83-5.56L54 71.88l5.85.03 1.79-5.58zm6.45 24.08 1.79 5.58 5.86-.03-4.76 3.43 1.84 5.56-4.73-3.47-4.72 3.47 1.83-5.56-4.75-3.43 5.86.03 1.78-5.58zm17.74 17.7 1.79 5.58 5.86-.02-4.76 3.42 1.84 5.56-4.73-3.46-4.72 3.46 1.83-5.56-4.75-3.42 5.86.02 1.78-5.58zm48.04-83.56-1.79 5.58-5.86-.02 4.76 3.42-1.84 5.56 4.73-3.46 4.72 3.46-1.83-5.56 4.75-3.42-5.86.02-1.78-5.58zm17.67 17.71-1.79 5.58-5.85-.03 4.75 3.43-1.83 5.56 4.72-3.46 4.73 3.46-1.84-5.56 4.76-3.43-5.86.03-1.79-5.58zm6.52 24.07-1.79 5.58-5.86-.03 4.76 3.43-1.84 5.56 4.73-3.46 4.72 3.46-1.83-5.56 4.75-3.43-5.86.03-1.78-5.58zm-6.45 24.08-1.79 5.58-5.86-.03 4.76 3.43-1.84 5.56 4.73-3.47 4.72 3.47-1.83-5.56 4.75-3.43-5.86.03-1.78-5.58zm-17.74 17.7-1.79 5.58-5.86-.02 4.76 3.42-1.84 5.56 4.73-3.46 4.72 3.46-1.83-5.56 4.75-3.42-5.86.02-1.78-5.58z" style="fill:#ffed00"/><path class="cls-3" d="m246.8 19.19-3.8 3.94V33.6h-4.09v-31H243v15.33l13.79-15.32h4.93l-12.19 13.68 13.15 17.31h-4.89Zm16.36 2.68a13.75 13.75 0 0 1 1.33-6.09 9.81 9.81 0 0 1 9.13-5.64 9.73 9.73 0 0 1 7.61 3.26 12.51 12.51 0 0 1 2.9 8.66v.28a13.9 13.9 0 0 1-1.28 6 9.82 9.82 0 0 1-3.69 4.16 10.21 10.21 0 0 1-5.5 1.49 9.71 9.71 0 0 1-7.59-3.26 12.44 12.44 0 0 1-2.91-8.62Zm4 .47a9.85 9.85 0 0 0 1.78 6.15 6 6 0 0 0 9.53 0 10.76 10.76 0 0 0 1.77-6.59 9.84 9.84 0 0 0-1.8-6.14 5.72 5.72 0 0 0-4.78-2.35 5.65 5.65 0 0 0-4.71 2.32 10.71 10.71 0 0 0-1.83 6.61Zm25.16-11.77.13 2.89a8.4 8.4 0 0 1 6.89-3.32q7.31 0 7.37 8.24V33.6h-3.94V18.36a5.24 5.24 0 0 0-1.14-3.68 4.53 4.53 0 0 0-3.48-1.2 5.6 5.6 0 0 0-3.36 1 6.87 6.87 0 0 0-2.26 2.68V33.6h-3.94v-23Zm21.33 23.03v-20H310v-3h3.65V8.2a7.87 7.87 0 0 1 2-5.72 7.49 7.49 0 0 1 5.6-2 10.89 10.89 0 0 1 2.71.35L323.71 4a11 11 0 0 0-2.12-.19 3.82 3.82 0 0 0-3 1.12 4.53 4.53 0 0 0-1.05 3.21v2.44h4.92v3h-4.92v20Zm21.45.4a10.07 10.07 0 0 1-7.62-3 11.41 11.41 0 0 1-2.94-8.23V22a13.83 13.83 0 0 1 1.31-6.12 10.29 10.29 0 0 1 3.67-4.22 9.2 9.2 0 0 1 5.09-1.52 8.64 8.64 0 0 1 7 3c1.66 2 2.49 4.8 2.49 8.47v1.64h-15.62a8.23 8.23 0 0 0 2 5.51 6.29 6.29 0 0 0 4.85 2.09 6.81 6.81 0 0 0 3.53-.85 8.86 8.86 0 0 0 2.53-2.25l2.41 1.87a9.69 9.69 0 0 1-8.7 4.38Zm-.49-20.65a5.27 5.27 0 0 0-4 1.73 8.47 8.47 0 0 0-2 4.87h11.54v-.3a7.45 7.45 0 0 0-1.62-4.65 4.94 4.94 0 0 0-3.92-1.62Zm24.95.75a11.63 11.63 0 0 0-1.93-.15 5.18 5.18 0 0 0-5.26 3.3V33.6h-3.94v-23h3.83l.07 2.66a6.13 6.13 0 0 1 5.49-3.09 3.94 3.94 0 0 1 1.74.3ZM372 34a10.07 10.07 0 0 1-7.65-3 11.41 11.41 0 0 1-2.94-8.23V22a13.83 13.83 0 0 1 1.31-6.12 10.19 10.19 0 0 1 3.66-4.22 9.25 9.25 0 0 1 5.1-1.52 8.62 8.62 0 0 1 7 3c1.66 2 2.5 4.8 2.5 8.47v1.64h-15.63a8.23 8.23 0 0 0 2 5.51 6.28 6.28 0 0 0 4.84 2.09 6.87 6.87 0 0 0 3.54-.85 9 9 0 0 0 2.53-2.25l2.41 1.87A9.69 9.69 0 0 1 372 34Zm-.49-20.65a5.27 5.27 0 0 0-4 1.73 8.4 8.4 0 0 0-2 4.87H377v-.3a7.57 7.57 0 0 0-1.6-4.65 5 5 0 0 0-3.92-1.62ZM389 10.57l.13 2.89a8.41 8.41 0 0 1 6.9-3.32q7.31 0 7.36 8.24V33.6h-3.93V18.36a5.34 5.34 0 0 0-1.14-3.68 4.56 4.56 0 0 0-3.48-1.2 5.65 5.65 0 0 0-3.37 1 6.85 6.85 0 0 0-2.25 2.68V33.6h-3.92v-23Zm29.13 20.24a5.68 5.68 0 0 0 3.68-1.27 4.55 4.55 0 0 0 1.75-3.2h3.72a7.11 7.11 0 0 1-1.36 3.77 9.06 9.06 0 0 1-3.35 2.89 9.69 9.69 0 0 1-4.44 1 9.52 9.52 0 0 1-7.49-3.14q-2.77-3.15-2.77-8.59v-.66a13.89 13.89 0 0 1 1.23-6 9.33 9.33 0 0 1 3.54-4.07 10 10 0 0 1 5.47-1.45 9.29 9.29 0 0 1 6.44 2.32 8.29 8.29 0 0 1 2.73 6h-3.72a5.46 5.46 0 0 0-1.7-3.68 5.27 5.27 0 0 0-3.75-1.43 5.52 5.52 0 0 0-4.66 2.16 10.14 10.14 0 0 0-1.65 6.25v.74a9.94 9.94 0 0 0 1.64 6.13 5.54 5.54 0 0 0 4.69 2.23ZM441 34a10.07 10.07 0 0 1-7.67-3 11.4 11.4 0 0 1-2.93-8.23V22a13.83 13.83 0 0 1 1.3-6.12 10.29 10.29 0 0 1 3.67-4.22 9.2 9.2 0 0 1 5.09-1.52 8.64 8.64 0 0 1 7 3c1.66 2 2.49 4.8 2.49 8.47v1.64h-15.62a8.23 8.23 0 0 0 2 5.51 6.29 6.29 0 0 0 4.85 2.09 6.81 6.81 0 0 0 3.52-.85 8.86 8.86 0 0 0 2.53-2.25l2.41 1.87A9.69 9.69 0 0 1 441 34Zm-.49-20.65a5.28 5.28 0 0 0-4 1.73 8.47 8.47 0 0 0-2 4.87H446v-.3a7.45 7.45 0 0 0-1.62-4.65 4.94 4.94 0 0 0-3.92-1.62ZM257.76 75.34a13.79 13.79 0 0 1-2.4 8.47 7.7 7.7 0 0 1-6.52 3.19 8.44 8.44 0 0 1-6.59-2.66v11.12h-3.94V63.57h3.59l.2 2.55a8.12 8.12 0 0 1 6.68-3 7.85 7.85 0 0 1 6.57 3.13q2.41 3.14 2.41 8.71Zm-3.93-.45a10.24 10.24 0 0 0-1.66-6.15 5.37 5.37 0 0 0-4.56-2.26 5.78 5.78 0 0 0-5.36 3.18v11a5.79 5.79 0 0 0 5.4 3.15 5.35 5.35 0 0 0 4.51-2.24c1.11-1.5 1.67-3.72 1.67-6.68Zm22.36 11.71a8 8 0 0 1-.56-2.42 8.78 8.78 0 0 1-6.55 2.82 8.1 8.1 0 0 1-5.59-1.93 6.2 6.2 0 0 1-2.18-4.88 6.51 6.51 0 0 1 2.69-5.56q2.73-2 7.7-2h3.83v-1.8a4.39 4.39 0 0 0-1.24-3.29 4.93 4.93 0 0 0-3.64-1.23 5.74 5.74 0 0 0-3.53 1.07 3.14 3.14 0 0 0-1.39 2.62h-4a5.41 5.41 0 0 1 1.27-3.38 8.26 8.26 0 0 1 3.32-2.54 11.08 11.08 0 0 1 4.61-.94 9.16 9.16 0 0 1 6.24 2 7.22 7.22 0 0 1 2.34 5.48v10.6a12.94 12.94 0 0 0 .81 5v.34Zm-6.54-3a6.87 6.87 0 0 0 3.51-1 5.82 5.82 0 0 0 2.41-2.49v-4.68h-3.09c-4.82 0-7.24 1.41-7.24 4.23a3.61 3.61 0 0 0 1.24 2.9 4.76 4.76 0 0 0 3.17 1.04Zm26.61-16.5a11.75 11.75 0 0 0-1.94-.15 5.19 5.19 0 0 0-5.26 3.3V86.6h-3.94v-23H289l.06 2.66a6.13 6.13 0 0 1 5.49-3.09 4 4 0 0 1 1.75.3Zm32.85 6.03h-12.27v8.34h14.4v5.13h-20.78v-31h20.73v5.17h-14.35v7.39h12.27Zm5.15-15.52a3 3 0 0 1 .93-2.28 4 4 0 0 1 5 0 3 3 0 0 1 .94 2.28 3 3 0 0 1-1 2.3 4 4 0 0 1-5 0 3 3 0 0 1-.87-2.3Zm6.54 29h-6.18v-23h6.18Zm17.59-17.27a15.64 15.64 0 0 0-2.21-.17c-2.33 0-3.86.78-4.58 2.36V86.6h-6.15v-23h5.81l.17 2.74a5.72 5.72 0 0 1 5.13-3.17 6.32 6.32 0 0 1 1.92.28Zm1.61 5.53a13.68 13.68 0 0 1 1.32-6.11 9.61 9.61 0 0 1 3.8-4.15 11.05 11.05 0 0 1 5.75-1.47 10.52 10.52 0 0 1 7.66 2.86 11.46 11.46 0 0 1 3.28 7.75l.05 1.58a12 12 0 0 1-3 8.5 11.45 11.45 0 0 1-15.89 0c-2-2.12-3-5-3-8.68Zm6.15.44a8.63 8.63 0 0 0 1.23 5 4.44 4.44 0 0 0 7 0c.84-1.14 1.25-3 1.25-5.49a8.5 8.5 0 0 0-1.25-5 4.09 4.09 0 0 0-3.54-1.77 4 4 0 0 0-3.49 1.76 9.61 9.61 0 0 0-1.16 5.5Zm39.92-.01a13.78 13.78 0 0 1-2.41 8.52 7.75 7.75 0 0 1-6.53 3.18 7.16 7.16 0 0 1-5.64-2.43v10.89h-6.15V63.57H391l.22 2.25a7.24 7.24 0 0 1 5.83-2.68 7.8 7.8 0 0 1 6.62 3.15c1.58 2.1 2.36 5 2.36 8.69Zm-6.15-.47a9.13 9.13 0 0 0-1.14-5 3.72 3.72 0 0 0-3.31-1.75 4 4 0 0 0-4 2.22v9.46a4.08 4.08 0 0 0 4 2.29c2.98.02 4.45-2.4 4.45-7.22ZM422.8 86.6a6.68 6.68 0 0 1-.62-2.06 7.45 7.45 0 0 1-5.81 2.46 8.15 8.15 0 0 1-5.61-2 6.29 6.29 0 0 1-2.23-4.94 6.52 6.52 0 0 1 2.72-5.62q2.72-2 7.84-2h2.83v-1.23a3.76 3.76 0 0 0-.82-2.55 3.21 3.21 0 0 0-2.58-1 3.7 3.7 0 0 0-2.44.74 2.54 2.54 0 0 0-.88 2H409a6.15 6.15 0 0 1 1.24-3.71 8.18 8.18 0 0 1 3.49-2.67 12.63 12.63 0 0 1 5.07-1 10.06 10.06 0 0 1 6.76 2.14 7.52 7.52 0 0 1 2.5 6v10a11 11 0 0 0 .91 5v.36Zm-5.09-4.28a5.34 5.34 0 0 0 2.51-.6 4 4 0 0 0 1.7-1.63v-4h-2.3q-4.62 0-4.91 3.19v.36a2.47 2.47 0 0 0 .81 1.9 3.14 3.14 0 0 0 2.19.78Zm27.07-2.08a2 2 0 0 0-1.11-1.78 12.81 12.81 0 0 0-3.59-1.16q-8.22-1.72-8.22-7a6.32 6.32 0 0 1 2.55-5.12 10.24 10.24 0 0 1 6.65-2.06 11 11 0 0 1 7 2.07 6.47 6.47 0 0 1 2.63 5.36h-6.15a3 3 0 0 0-.85-2.18 3.59 3.59 0 0 0-2.66-.86 3.68 3.68 0 0 0-2.41.7 2.21 2.21 0 0 0-.85 1.79 1.89 1.89 0 0 0 1 1.65 9.74 9.74 0 0 0 3.23 1.1 26.38 26.38 0 0 1 3.87 1q4.88 1.78 4.88 6.19a6 6 0 0 1-2.71 5.1 11.65 11.65 0 0 1-7 2 12.31 12.31 0 0 1-5.14-1 8.61 8.61 0 0 1-3.52-2.84 6.51 6.51 0 0 1-1.28-3.88h5.9a3.22 3.22 0 0 0 1.21 2.51 4.85 4.85 0 0 0 3 .87 4.42 4.42 0 0 0 2.67-.67 2.07 2.07 0 0 0 .9-1.79Zm-201.43 36.33.19 2.66a8.05 8.05 0 0 1 6.62-3.09 6.68 6.68 0 0 1 5.45 2.15q1.8 2.16 1.84 6.43v14.88h-6.16v-14.76a4 4 0 0 0-.85-2.85 3.81 3.81 0 0 0-2.83-.89 4.24 4.24 0 0 0-3.9 2.22v16.28h-6.15v-23Zm31.88 23.03a7 7 0 0 1-.62-2.06 7.45 7.45 0 0 1-5.81 2.46 8.15 8.15 0 0 1-5.61-2 6.31 6.31 0 0 1-2.22-4.94 6.51 6.51 0 0 1 2.71-5.62q2.71-2 7.84-2h2.84v-1.32a3.81 3.81 0 0 0-.82-2.55 3.23 3.23 0 0 0-2.59-1 3.7 3.7 0 0 0-2.44.74 2.54 2.54 0 0 0-.88 2h-6.15a6.21 6.21 0 0 1 1.23-3.71 8.24 8.24 0 0 1 3.49-2.67 12.7 12.7 0 0 1 5.07-1 10 10 0 0 1 6.76 2.14 7.48 7.48 0 0 1 2.5 6v10a10.88 10.88 0 0 0 .92 5v.36Zm3.83-27.44h-15.54v-3.55h15.54Zm-8.92 23.16a5.32 5.32 0 0 0 2.51-.6 4 4 0 0 0 1.71-1.63v-4h-2.3q-4.62 0-4.92 3.19v.36a2.47 2.47 0 0 0 .81 1.9 3.11 3.11 0 0 0 2.19.78Zm23.35-4.96-2.21 2.22v7h-6.15V106.9h6.15V125l1.19-1.53 5.9-6.92h7.38l-8.32 9.6 9.05 13.43h-7.07Z"/><path class="cls-3" d="M306.16 127.87a13.68 13.68 0 0 1 1.32-6.11 9.67 9.67 0 0 1 3.8-4.15 11.12 11.12 0 0 1 5.76-1.47 10.48 10.48 0 0 1 7.61 2.85 11.47 11.47 0 0 1 3.29 7.75v1.58a12 12 0 0 1-3 8.5 11.45 11.45 0 0 1-15.89 0c-2-2.12-3-5-3-8.68Zm6.16.44a8.63 8.63 0 0 0 1.23 5 4.44 4.44 0 0 0 7 0q1.25-1.71 1.25-5.49a8.58 8.58 0 0 0-1.25-5 4.09 4.09 0 0 0-3.55-1.72 4 4 0 0 0-3.49 1.76 9.61 9.61 0 0 0-1.19 5.45Zm26.37-17.41v5.67h3.94v4.51h-3.94v11.5a2.78 2.78 0 0 0 .49 1.83 2.48 2.48 0 0 0 1.88.55 9.8 9.8 0 0 0 1.81-.15v4.66a12.67 12.67 0 0 1-3.73.56q-6.47 0-6.6-6.54v-12.41h-3.36v-4.51h3.36v-5.67Zm12.88 5.67.19 2.66a8 8 0 0 1 6.62-3.09 6.69 6.69 0 0 1 5.45 2.15q1.79 2.16 1.83 6.43v14.88h-6.15v-14.76a4 4 0 0 0-.85-2.85 3.83 3.83 0 0 0-2.84-.89 4.22 4.22 0 0 0-3.89 2.22v16.28h-6.15v-23Zm18.21-5.96a3 3 0 0 1 .93-2.28 4 4 0 0 1 5 0 3 3 0 0 1 .94 2.28 3 3 0 0 1-.95 2.3 4 4 0 0 1-5 0 3 3 0 0 1-.92-2.3Zm6.54 29h-6.17v-23h6.17Z"/></g></svg>