<?xml version="1.0" encoding="UTF-8"?>
<svg id="Layer_1" data-name="Layer 1" xmlns="http://www.w3.org/2000/svg" viewBox="0 0 158.76 37.13">
  <defs>
    <style>
      .cls-1 {
        fill: #fff;
      }

      .cls-2 {
        fill: #fdf007;
      }

      .cls-3 {
        fill: #6c787f;
      }

      .cls-4 {
        fill: #0b4da0;
      }

      .cls-5 {
        fill: #7a848c;
      }
    </style>
  </defs>
  <rect class="cls-1" x="33.76" y="14.76" width="29.48" height="19.91"/>
  <rect class="cls-4" x="34.12" y="15.12" width="28.76" height="19.19"/>
  <polygon class="cls-2" points="48.49 17.21 48.76 18.06 49.66 18.06 48.93 18.58 49.21 19.43 48.49 18.9 47.77 19.43 48.05 18.58 47.32 18.06 48.22 18.06 48.49 17.21"/>
  <polygon class="cls-2" points="48.49 30.01 48.76 30.86 49.66 30.86 48.93 31.38 49.21 32.23 48.49 31.7 47.77 32.23 48.05 31.38 47.32 30.86 48.22 30.86 48.49 30.01"/>
  <polygon class="cls-2" points="45.3 18.06 45.58 18.91 46.47 18.91 45.75 19.43 46.03 20.28 45.3 19.75 44.59 20.28 44.86 19.43 44.14 18.91 45.03 18.91 45.3 18.06"/>
  <polygon class="cls-2" points="42.96 20.41 43.23 21.26 44.13 21.26 43.4 21.78 43.68 22.63 42.96 22.1 42.24 22.63 42.52 21.78 41.79 21.26 42.69 21.26 42.96 20.41"/>
  <polygon class="cls-2" points="42.1 23.6 42.37 24.45 43.26 24.45 42.54 24.97 42.81 25.82 42.1 25.29 41.38 25.82 41.66 24.97 40.93 24.45 41.82 24.45 42.1 23.6"/>
  <polygon class="cls-2" points="42.95 26.8 43.23 27.65 44.12 27.64 43.39 28.17 43.67 29.01 42.95 28.48 42.23 29.01 42.51 28.17 41.79 27.64 42.68 27.65 42.95 26.8"/>
  <polygon class="cls-2" points="45.3 29.14 45.58 29.99 46.47 29.99 45.75 30.51 46.03 31.36 45.3 30.83 44.59 31.36 44.86 30.51 44.14 29.99 45.03 29.99 45.3 29.14"/>
  <polygon class="cls-2" points="51.68 18.06 51.4 18.91 50.51 18.91 51.23 19.43 50.95 20.28 51.68 19.75 52.4 20.28 52.12 19.43 52.84 18.91 51.95 18.91 51.68 18.06"/>
  <polygon class="cls-2" points="54.02 20.41 53.75 21.26 52.85 21.26 53.58 21.78 53.3 22.63 54.02 22.1 54.74 22.63 54.46 21.78 55.18 21.26 54.29 21.26 54.02 20.41"/>
  <polygon class="cls-2" points="54.89 23.6 54.61 24.45 53.72 24.45 54.44 24.97 54.16 25.82 54.89 25.29 55.61 25.82 55.33 24.97 56.05 24.45 55.16 24.45 54.89 23.6"/>
  <polygon class="cls-2" points="54.03 26.8 53.76 27.65 52.86 27.64 53.59 28.17 53.31 29.01 54.03 28.48 54.75 29.01 54.47 28.17 55.2 27.64 54.3 27.65 54.03 26.8"/>
  <polygon class="cls-2" points="51.68 29.14 51.4 29.99 50.51 29.99 51.23 30.51 50.95 31.36 51.68 30.83 52.4 31.36 52.12 30.51 52.84 29.99 51.95 29.99 51.68 29.14"/>
  <path class="cls-5" d="m38.7,11.3v-1.59c-.58-.49-2.88-1.48-4.29-1.8v1.12c1.61.4,3.61,1.56,4.29,2.26"/>
  <path class="cls-5" d="m39.87,13.67h1.37c.04-2-1.58-3.24-1.82-3.42v1.91c.52.85.45,1.51.45,1.51"/>
  <path class="cls-5" d="m43.27,9.64v1.72c.69.72,1.1,1.28,1.43,2.32h1.45c-.39-1.58-1.31-2.87-2.87-4.04"/>
  <path class="cls-5" d="m42.39,10.58v-1.55c-1.33-.86-3.95-2.03-6.57-2.58v1.11c2.52.61,5.2,1.92,6.57,3.02"/>
  <path class="cls-5" d="m46.11,9.64v-1.54c-1.59-1-4.87-2.41-8.74-3.22v1.11c3.72.9,6.54,2.18,8.74,3.65"/>
  <path class="cls-5" d="m47.14,8.76s0,1.65,0,1.65c1.02.81,2,1.87,2.65,3.27h1.54c-.53-1.74-2.49-3.85-4.19-4.92"/>
  <path class="cls-5" d="m50.26,8.68v-1.54c-3.05-1.8-7.61-3.39-11.24-4.02v1.11c4.1.82,8.97,2.85,11.24,4.45"/>
  <path class="cls-5" d="m55.18,13.68h1.61c-1.16-2.77-4.05-4.99-5.41-5.84v1.63c2.05,1.52,2.81,2.6,3.8,4.21"/>
  <path class="cls-5" d="m54.34,7.71v-1.59c-2.47-1.51-7.46-3.77-13.54-4.94v1.16c4.62.96,10.52,3.26,13.54,5.38"/>
  <path class="cls-5" d="m60.4,13.68h1.76c-1.95-3.32-4.18-5.22-6.6-6.79v1.67c1.79,1.26,3.7,3.13,4.84,5.12"/>
  <path class="cls-5" d="m33.26,8.72v-1.05c-1.58-.3-4.37-.49-5.59-.33v.82c1.84-.1,4.54.25,5.59.56"/>
  <path class="cls-5" d="m26.44,8.24v-.79c-2.94.31-4.95,1.32-6.12,2.18v.68c1.66-1.34,3.97-1.9,6.12-2.07"/>
  <path class="cls-5" d="m19.64,11.02v-.76c-2.7,3.04.68,5.56,1.04,5.82v-1.04c-1.89-1.43-1.67-3.17-1.04-4.01"/>
  <path class="cls-5" d="m21.7,15.67v1.11c1.84,1.02,3.68,1.66,6.31,2.13l-.02-1.51c-1.79-.11-4.24-.62-6.29-1.73"/>
  <path class="cls-5" d="m28.89,17.45v1.57c1.53.13,2.98.17,3.77.17v-1.77c-1.17.08-3.33.09-3.77.03"/>
  <path class="cls-5" d="m34.66,7.29v-1.07c-1.89-.38-5.56-.67-7.73-.47v.83c2.87-.11,5.7.26,7.73.7"/>
  <path class="cls-5" d="m27.02,21.94v-1.68c-2.81-.25-7.14-1.23-9.82-3.2v1.12c2.95,2.22,7.6,3.45,9.82,3.76"/>
  <path class="cls-5" d="m16.18,17.34v-1.11c-2.38-2.27-1.92-4.57-.38-6.06v-.69c-2.96,2.69-1.87,5.94.38,7.86"/>
  <path class="cls-5" d="m28.01,20.35v1.74c1.71.24,3.2.32,4.65.32v-1.92c-1.57,0-3.95-.07-4.65-.14"/>
  <path class="cls-5" d="m16.6,8.82v.65c2.56-1.91,6.41-2.68,9.11-2.82v-.8c-3.35.22-7.19,1.5-9.11,2.97"/>
  <path class="cls-5" d="m12.43,18.36v1.2c3.68,3.32,9.73,5.12,13.38,5.75v-1.87c-3.37-.38-9.45-1.68-13.38-5.08"/>
  <path class="cls-5" d="m36.21,5.72v-1.06c-2.38-.43-6.48-.9-10.33-.55v.84c3.23-.23,7.79.2,10.33.77"/>
  <path class="cls-5" d="m26.89,23.56v1.94c1.63.33,4.31.48,5.77.53v-2.16c-.87.03-4.68-.19-5.77-.31"/>
  <path class="cls-5" d="m24.65,5.02v-.81c-2.86.25-7.97,1.26-11.36,3.56v.66c3.3-2.25,8.41-3.24,11.36-3.4"/>
  <path class="cls-5" d="m12.37,9.1v-.67c-1.55,1.17-5.35,5.11-.95,10.11v-1.21c-.98-1.09-3.34-4.64.95-8.23"/>
  <path class="cls-5" d="m37.87,3.98v-1.08c-2.88-.56-8.48-1.05-12.89-.62v.84c3.9-.3,9.44.14,12.89.87"/>
  <path class="cls-5" d="m25.69,26.88v2.05c2.17.42,4.87.68,6.97.76v-2.33c-2.51-.04-4.67-.16-6.97-.48"/>
  <path class="cls-5" d="m24.5,28.74v-1.98c-6.03-.85-12.68-3.05-16.8-7.09v1.28c4.88,4.86,12.98,7.1,16.8,7.79"/>
  <path class="cls-5" d="m9.96,6.61v.65c4.03-2.57,9.56-3.67,13.78-4.05v-.82c-4.06.35-10,1.73-13.78,4.22"/>
  <path class="cls-5" d="m6.68,19.7v-1.32c-1.58-2.15-3.13-6.4,2.33-10.47v-.66c-6.13,4.38-4.6,9.75-2.33,12.45"/>
  <path class="cls-5" d="m2.45,20.53v1.43c4.63,6.01,14.19,9.54,20.13,10.79v-2.19c-6.25-1.06-15.73-4.12-20.13-10.03"/>
  <path class="cls-5" d="m39.64,2.09V.97c-2.85-.59-9.76-1.36-15.86-.73v.87c5.09-.45,11.52.1,15.86.99"/>
  <path class="cls-5" d="m22.55,1.21V.36c-5.29.54-11.85,2.37-15.69,4.87v.67C11.68,2.95,18.08,1.63,22.55,1.21"/>
  <path class="cls-5" d="m23.88,30.77v2.25c1.36.35,6.51,1.08,8.78,1.1v-2.58c-3.47-.11-7.01-.49-8.78-.77"/>
  <path class="cls-5" d="m5.83,6.59v-.68c-1.55,1-8.9,6.52-4.39,14.48v-1.61c-2.82-5.87,1.48-10.13,4.39-12.19"/>
  <g>
    <path class="cls-3" d="m72.43,8.29h4.11c.8,0,1.51.14,2.11.43s1.07.68,1.41,1.2c.33.51.5,1.11.5,1.8s-.17,1.31-.5,1.84c-.33.53-.8.94-1.41,1.24-.6.29-1.31.44-2.11.44h-1.83v3.92h-2.28v-10.86Zm4.03,4.99c.55,0,.98-.14,1.32-.43s.5-.66.5-1.13-.17-.81-.5-1.08c-.33-.27-.77-.4-1.3-.4h-1.77v3.04h1.75Z"/>
    <path class="cls-3" d="m86.24,17.97c-.22.41-.56.73-1,.97s-.94.36-1.5.36c-.8,0-1.44-.22-1.9-.66s-.7-1.04-.7-1.8.26-1.31.79-1.73,1.27-.62,2.21-.62c.73,0,1.37.03,1.93.1v-.16c0-.95-.52-1.43-1.56-1.43-.81,0-1.53.24-2.14.72l-.9-1.48c.39-.34.87-.62,1.45-.82.58-.2,1.19-.31,1.81-.31,1.17,0,2.04.29,2.63.87.58.58.88,1.42.88,2.52v4.62h-1.94l-.05-1.17Zm-2.81-.67c.18.16.43.23.75.23.54,0,.98-.16,1.33-.47.35-.31.53-.69.55-1.14-.4-.04-.99-.06-1.77-.06-.36,0-.64.07-.84.21s-.3.33-.3.58c0,.28.09.5.27.65Z"/>
    <path class="cls-3" d="m90.05,11.32h2.07l.05,1.06c.24-.4.53-.7.89-.91s.77-.31,1.23-.31c.29,0,.5.02.64.06v2.02c-.3-.02-.6-.03-.9-.03-.57,0-1.01.19-1.33.58s-.48.95-.48,1.69v3.66h-2.17v-7.82Z"/>
    <path class="cls-3" d="m98.17,19.27c-.73,0-1.26-.18-1.59-.55-.33-.37-.5-.97-.5-1.81V7.58h2.18v9.22c0,.18.04.31.1.39.07.07.18.11.33.11h.32l.02,1.86c-.33.07-.62.11-.87.11Z"/>
    <path class="cls-3" d="m105.16,17.97c-.22.41-.56.73-1,.97s-.94.36-1.5.36c-.8,0-1.44-.22-1.9-.66s-.7-1.04-.7-1.8.26-1.31.79-1.73,1.27-.62,2.21-.62c.73,0,1.37.03,1.93.1v-.16c0-.95-.52-1.43-1.56-1.43-.81,0-1.53.24-2.14.72l-.9-1.48c.39-.34.87-.62,1.45-.82.58-.2,1.19-.31,1.81-.31,1.17,0,2.04.29,2.63.87.58.58.88,1.42.88,2.52v4.62h-1.94l-.05-1.17Zm-2.81-.67c.18.16.43.23.75.23.54,0,.98-.16,1.33-.47.35-.31.53-.69.55-1.14-.4-.04-.99-.06-1.77-.06-.36,0-.64.07-.84.21s-.3.33-.3.58c0,.28.09.5.27.65Z"/>
    <path class="cls-3" d="m108.97,11.3h2.1l.05.98c.27-.36.59-.65.98-.85.39-.2.81-.31,1.29-.31.51,0,.96.11,1.34.32.38.21.68.52.89.93.26-.4.6-.7,1.02-.92.42-.22.92-.33,1.5-.33.83,0,1.49.27,1.97.81s.71,1.29.71,2.26v4.95h-2.17v-4.58c0-.47-.11-.84-.33-1.1-.22-.26-.52-.39-.89-.39-.43,0-.77.17-1.04.5-.26.33-.39.73-.39,1.2v4.37h-2.2v-4.58c0-.47-.11-.84-.32-1.1-.21-.26-.5-.39-.87-.39-.44,0-.79.17-1.05.5-.26.33-.39.73-.39,1.2v4.37h-2.2v-7.84Z"/>
    <path class="cls-3" d="m124.11,18.79c-.62-.34-1.1-.82-1.45-1.44-.35-.62-.53-1.34-.53-2.15s.17-1.48.52-2.1c.35-.62.83-1.1,1.45-1.45.62-.35,1.31-.53,2.08-.53s1.42.16,1.97.49c.55.33.97.77,1.25,1.34s.43,1.2.43,1.89c0,.4-.04.73-.11,1h-5.36c.11.55.33.96.68,1.25.35.28.77.43,1.26.43.39,0,.76-.08,1.12-.23.36-.15.67-.36.92-.6l1.11,1.22c-.36.42-.83.75-1.41,1.01-.57.26-1.19.38-1.84.38-.77,0-1.46-.17-2.08-.51Zm3.62-4.38c-.06-.49-.24-.87-.52-1.14-.28-.27-.66-.4-1.12-.4s-.82.14-1.12.41-.5.65-.61,1.13h3.37Z"/>
    <path class="cls-3" d="m136.11,13.52c-.24-.29-.57-.43-.97-.43-.48,0-.87.15-1.17.45-.3.3-.45.7-.45,1.2v4.4h-2.18v-7.82h2.1l.05.93c.27-.34.6-.62,1-.82.4-.2.82-.31,1.26-.31.57,0,1.07.13,1.51.39.44.26.78.63,1.02,1.11.24.48.36,1.02.36,1.63v4.88h-2.17v-4.46c0-.48-.12-.87-.36-1.16Z"/>
    <path class="cls-3" d="m141.52,18.63c-.43-.46-.65-1.12-.65-2v-3.44h-1.22v-1.88h1.22v-2.02h2.18v2.02h2.3v1.88h-2.3v3.16c0,.33.08.59.25.76.17.18.39.26.68.26.35,0,.73-.08,1.12-.22l.34,1.7c-.29.14-.61.25-.96.33-.35.08-.7.12-1.04.12-.85,0-1.49-.23-1.92-.68Z"/>
    <path class="cls-3" d="m154.01,11.32v4.51c0,.7-.15,1.31-.45,1.84s-.73.94-1.28,1.23-1.2.43-1.93.43-1.39-.14-1.95-.43c-.56-.29-1-.7-1.3-1.23-.3-.53-.46-1.14-.46-1.84v-4.51h2.22v4.51c0,.47.14.85.41,1.13.27.28.63.42,1.08.42s.81-.14,1.07-.42c.26-.28.39-.66.39-1.13v-4.51h2.2Z"/>
    <path class="cls-3" d="m157.89,19.27c-.73,0-1.26-.18-1.59-.55-.33-.37-.5-.97-.5-1.81V7.58h2.18v9.22c0,.18.04.31.1.39.07.07.18.11.33.11h.32l.02,1.86c-.33.07-.62.11-.87.11Z"/>
    <path class="cls-3" d="m74.68,27.86h5.01v1.98h-5.01v2.57h5.88v1.97h-8.12v-10.84h7.98v1.99h-5.73v2.33Z"/>
    <path class="cls-3" d="m89.02,26.56v4.51c0,.7-.15,1.31-.45,1.84s-.73.94-1.28,1.23-1.2.43-1.93.43-1.39-.14-1.95-.43c-.56-.29-1-.7-1.3-1.23-.3-.53-.46-1.14-.46-1.84v-4.51h2.22v4.51c0,.47.14.85.41,1.13.27.28.63.43,1.08.43s.81-.14,1.07-.43c.26-.28.39-.66.39-1.13v-4.51h2.2Z"/>
    <path class="cls-3" d="m90.84,26.56h2.07l.05,1.06c.24-.4.53-.7.89-.91.36-.21.77-.31,1.23-.31.29,0,.5.02.64.06v2.02c-.3-.02-.6-.03-.9-.03-.57,0-1.01.19-1.33.58s-.48.95-.48,1.69v3.66h-2.17v-7.82Z"/>
    <path class="cls-3" d="m98.18,34.03c-.63-.35-1.12-.84-1.47-1.47-.35-.63-.53-1.33-.53-2.11s.18-1.48.53-2.1c.35-.62.84-1.1,1.47-1.45s1.33-.53,2.11-.53,1.5.17,2.14.52,1.12.83,1.48,1.45.53,1.32.53,2.09-.18,1.5-.53,2.13c-.35.63-.85,1.12-1.48,1.47-.63.35-1.34.53-2.14.53s-1.49-.18-2.11-.53Zm3.5-2.07c.36-.4.54-.9.54-1.51s-.18-1.11-.54-1.5c-.36-.39-.82-.59-1.39-.59s-1.01.2-1.37.59c-.35.39-.53.89-.53,1.5s.18,1.11.54,1.51c.36.4.82.59,1.37.59s1.01-.2,1.37-.59Z"/>
    <path class="cls-3" d="m112.39,26.91c.55.35.97.84,1.28,1.47s.47,1.33.47,2.13-.16,1.47-.47,2.09c-.31.62-.74,1.11-1.29,1.45-.55.35-1.18.52-1.89.52-.47,0-.92-.09-1.33-.27-.42-.18-.76-.42-1.03-.72v3.55h-2.18l-.02-10.57h2.12l.03.92c.26-.33.6-.6,1.04-.79.44-.2.9-.3,1.38-.3.71,0,1.33.18,1.88.53Zm-3.72,2.04c-.36.4-.54.91-.54,1.53s.18,1.13.54,1.53c.36.4.82.59,1.37.59s1.01-.2,1.37-.59.53-.89.53-1.49c0-.63-.18-1.15-.53-1.55s-.81-.6-1.37-.6-1.01.2-1.37.59Z"/>
    <path class="cls-3" d="m117.11,34.04c-.62-.34-1.1-.82-1.45-1.44-.35-.62-.53-1.34-.53-2.15s.17-1.48.52-2.1.83-1.1,1.45-1.45,1.31-.53,2.08-.53,1.42.16,1.97.49c.55.33.97.77,1.25,1.34s.43,1.2.43,1.89c0,.4-.04.73-.11,1h-5.36c.11.55.33.96.68,1.24.35.28.77.43,1.26.43.39,0,.76-.08,1.12-.23.36-.16.67-.36.92-.6l1.11,1.22c-.36.42-.83.75-1.41,1.01-.57.26-1.19.39-1.84.39-.77,0-1.46-.17-2.08-.51Zm3.62-4.38c-.06-.49-.24-.87-.52-1.14-.28-.27-.66-.4-1.12-.4s-.82.14-1.12.41-.5.65-.61,1.13h3.37Z"/>
    <path class="cls-3" d="m128.86,33.21c-.22.41-.56.73-1,.97s-.94.36-1.5.36c-.8,0-1.44-.22-1.9-.66s-.7-1.04-.7-1.8.26-1.31.79-1.73,1.27-.62,2.21-.62c.73,0,1.37.03,1.93.1v-.16c0-.95-.52-1.43-1.56-1.43-.81,0-1.53.24-2.14.72l-.9-1.48c.39-.34.87-.62,1.45-.82.58-.2,1.19-.3,1.81-.3,1.17,0,2.04.29,2.63.87.58.58.88,1.42.88,2.52v4.62h-1.94l-.05-1.17Zm-2.81-.67c.18.16.43.23.75.23.54,0,.98-.15,1.33-.46.35-.31.53-.69.55-1.14-.4-.04-.99-.06-1.77-.06-.36,0-.64.07-.84.21s-.3.33-.3.58c0,.28.09.5.27.65Z"/>
    <path class="cls-3" d="m137.44,28.76c-.24-.29-.57-.43-.97-.43-.48,0-.87.15-1.17.45-.3.3-.45.7-.45,1.2v4.4h-2.18v-7.82h2.1l.05.93c.27-.34.6-.62,1-.82s.82-.3,1.26-.3c.57,0,1.07.13,1.51.39.44.26.78.63,1.02,1.11.24.48.36,1.02.36,1.63v4.88h-2.17v-4.46c0-.48-.12-.87-.36-1.16Z"/>
  </g>
</svg>