<svg xmlns="http://www.w3.org/2000/svg" viewBox="0 0 602 149"><g data-name="Layer 1"><path style="fill:#164194;stroke:#fff;stroke-miterlimit:10" d="M1.44 9h211.62v131H1.44z"/><path d="m109.84 18.13 1.79 5.58 5.85-.02-4.75 3.42 1.83 5.56-4.72-3.46-4.73 3.46 1.84-5.56-4.76-3.42 5.86.02 1.79-5.58zm0 96.52 1.79 5.58 5.85-.03-4.75 3.43 1.83 5.56-4.72-3.47-4.73 3.47 1.84-5.56-4.76-3.43 5.86.03 1.79-5.58zm-24.01-90.1 1.79 5.58 5.86-.02-4.76 3.42 1.84 5.56-4.73-3.46-4.72 3.46 1.83-5.56-4.75-3.42 5.86.02 1.78-5.58zM68.16 42.26l1.78 5.58 5.86-.03-4.75 3.43 1.83 5.56-4.72-3.46-4.73 3.46 1.84-5.56-4.76-3.43 5.86.03 1.79-5.58zm-6.52 24.07 1.79 5.58 5.86-.03-4.76 3.43 1.84 5.56-4.73-3.46-4.72 3.46 1.83-5.56L54 71.88l5.85.03 1.79-5.58zm6.45 24.08 1.79 5.58 5.86-.03-4.76 3.43 1.84 5.56-4.73-3.47-4.72 3.47 1.83-5.56-4.75-3.43 5.86.03 1.78-5.58zm17.74 17.7 1.79 5.58 5.86-.02-4.76 3.42 1.84 5.56-4.73-3.46-4.72 3.46 1.83-5.56-4.75-3.42 5.86.02 1.78-5.58zm48.04-83.56-1.79 5.58-5.86-.02 4.76 3.42-1.84 5.56 4.73-3.46 4.72 3.46-1.83-5.56 4.75-3.42-5.86.02-1.78-5.58zm17.67 17.71-1.79 5.58-5.85-.03 4.75 3.43-1.83 5.56 4.72-3.46 4.73 3.46-1.84-5.56 4.76-3.43-5.86.03-1.79-5.58zm6.52 24.07-1.79 5.58-5.86-.03 4.76 3.43-1.84 5.56 4.73-3.46 4.72 3.46-1.83-5.56 4.75-3.43-5.86.03-1.78-5.58zm-6.45 24.08-1.79 5.58-5.86-.03 4.76 3.43-1.84 5.56 4.73-3.47 4.72 3.47-1.83-5.56 4.75-3.43-5.86.03-1.78-5.58zm-17.74 17.7-1.79 5.58-5.86-.02 4.76 3.42-1.84 5.56 4.73-3.46 4.72 3.46-1.83-5.56 4.75-3.42-5.86.02-1.78-5.58z" style="fill:#ffed00"/><path d="m246.67 19.23-3.79 3.94v10.48h-4.08v-31h4.08V18l13.78-15.35h4.94l-12.2 13.69 13.15 17.31h-4.89ZM263 21.92a13.55 13.55 0 0 1 1.33-6.09 9.87 9.87 0 0 1 3.7-4.18 10.07 10.07 0 0 1 5.42-1.46 9.71 9.71 0 0 1 7.61 3.25 12.52 12.52 0 0 1 2.94 8.67v.27a13.7 13.7 0 0 1-1.29 6 9.76 9.76 0 0 1-3.71 4.2 10.21 10.21 0 0 1-5.5 1.49 9.67 9.67 0 0 1-7.59-3.26 12.44 12.44 0 0 1-2.9-8.62Zm4 .46a9.9 9.9 0 0 0 1.77 6.16 6 6 0 0 0 9.53 0 10.73 10.73 0 0 0 1.77-6.58 9.85 9.85 0 0 0-1.8-6.15 5.74 5.74 0 0 0-4.78-2.35 5.66 5.66 0 0 0-4.71 2.32q-1.78 2.28-1.78 6.6Zm25.19-11.77.13 2.9a8.38 8.38 0 0 1 6.9-3.32q7.29 0 7.36 8.23v15.23h-3.94V18.4a5.24 5.24 0 0 0-1.14-3.68 4.53 4.53 0 0 0-3.5-1.19 5.71 5.71 0 0 0-3.36 1 7 7 0 0 0-2.26 2.68v16.44h-3.93v-23Zm21.33 23.04v-20h-3.64v-3.04h3.64V8.25a7.85 7.85 0 0 1 2-5.73 7.46 7.46 0 0 1 5.6-2 10.38 10.38 0 0 1 2.7.36L323.59 4a11.18 11.18 0 0 0-2.13-.19 3.82 3.82 0 0 0-3 1.12 4.54 4.54 0 0 0-1 3.22v2.43h4.91v3.05h-4.91v20Zm21.48.42a10.07 10.07 0 0 1-7.65-3.07 11.48 11.48 0 0 1-2.93-8.23V22a13.75 13.75 0 0 1 1.31-6.12 10.17 10.17 0 0 1 3.66-4.21 9.17 9.17 0 0 1 5.1-1.52 8.63 8.63 0 0 1 7 3c1.66 2 2.49 4.8 2.49 8.48v1.64h-15.6a8.15 8.15 0 0 0 2 5.5 6.24 6.24 0 0 0 4.84 2.1 6.91 6.91 0 0 0 3.53-.85 8.92 8.92 0 0 0 2.54-2.26l2.4 1.87a9.66 9.66 0 0 1-8.69 4.44Zm-.49-20.65a5.26 5.26 0 0 0-4 1.74 8.48 8.48 0 0 0-2 4.86H340v-.3a7.45 7.45 0 0 0-1.62-4.65 4.93 4.93 0 0 0-3.89-1.65Zm24.93.72a13.11 13.11 0 0 0-1.94-.14 5.19 5.19 0 0 0-5.26 3.3v16.35h-3.94v-23h3.83l.07 2.66a6.12 6.12 0 0 1 5.49-3.08 4 4 0 0 1 1.75.29Zm12.4 19.93a10.07 10.07 0 0 1-7.62-3.07 11.44 11.44 0 0 1-2.94-8.23V22a13.89 13.89 0 0 1 1.31-6.12 10.31 10.31 0 0 1 3.66-4.21 9.17 9.17 0 0 1 5.1-1.52 8.64 8.64 0 0 1 7 3c1.66 2 2.49 4.8 2.49 8.48v1.64h-15.62a8.2 8.2 0 0 0 2 5.5 6.26 6.26 0 0 0 4.85 2.1 6.94 6.94 0 0 0 3.53-.85 8.88 8.88 0 0 0 2.53-2.26l2.41 1.87a9.67 9.67 0 0 1-8.7 4.44Zm-.49-20.65a5.24 5.24 0 0 0-4 1.74 8.41 8.41 0 0 0-2 4.86h11.54v-.3a7.51 7.51 0 0 0-1.62-4.65 4.94 4.94 0 0 0-3.92-1.65Zm17.55-2.81.12 2.9a8.38 8.38 0 0 1 6.9-3.32q7.31 0 7.37 8.23v15.23h-3.94V18.4a5.34 5.34 0 0 0-1.14-3.68 4.56 4.56 0 0 0-3.48-1.19 5.72 5.72 0 0 0-3.37 1 6.93 6.93 0 0 0-2.25 2.68v16.44h-3.94v-23ZM418 30.86a5.69 5.69 0 0 0 3.68-1.28 4.53 4.53 0 0 0 1.75-3.19h3.72a7.08 7.08 0 0 1-1.36 3.76 9 9 0 0 1-3.35 2.85 9.68 9.68 0 0 1-4.44 1.07 9.49 9.49 0 0 1-7.48-3.14c-1.86-2.09-2.78-5-2.78-8.59v-.66a13.89 13.89 0 0 1 1.23-6 9.41 9.41 0 0 1 3.55-4.07 10.11 10.11 0 0 1 5.48-1.42 9.23 9.23 0 0 1 6.44 2.32 8.25 8.25 0 0 1 2.73 6h-3.72a5.47 5.47 0 0 0-1.69-3.67 5.27 5.27 0 0 0-3.76-1.42 5.5 5.5 0 0 0-4.65 2.16 10.14 10.14 0 0 0-1.65 6.25v.75a9.92 9.92 0 0 0 1.64 6.13 5.54 5.54 0 0 0 4.66 2.15Zm27.42 2.79a8.25 8.25 0 0 1-.55-2.43 8.81 8.81 0 0 1-6.56 2.85 8.1 8.1 0 0 1-5.59-1.93 6.2 6.2 0 0 1-2.18-4.88 6.52 6.52 0 0 1 2.73-5.59c1.83-1.33 4.39-2 7.7-2h3.83v-1.8a4.44 4.44 0 0 0-1.23-3.29 5 5 0 0 0-3.64-1.22 5.74 5.74 0 0 0-3.54 1.06A3.14 3.14 0 0 0 435 17h-4a5.4 5.4 0 0 1 1.22-3.33 8.35 8.35 0 0 1 3.32-2.55 11.27 11.27 0 0 1 4.61-.93 9.11 9.11 0 0 1 6.24 2 7.19 7.19 0 0 1 2.34 5.48v10.6a12.9 12.9 0 0 0 .81 5v.35Zm-6.54-3a7 7 0 0 0 3.52-.95 5.82 5.82 0 0 0 2.4-2.5v-4.73h-3.09q-7.23 0-7.23 4.24a3.58 3.58 0 0 0 1.23 2.89 4.71 4.71 0 0 0 3.17 1.04Zm25.78-8.73a13.56 13.56 0 0 1 1.34-6.09 9.87 9.87 0 0 1 3.7-4.18 10.07 10.07 0 0 1 5.42-1.46 9.72 9.72 0 0 1 7.61 3.25 12.52 12.52 0 0 1 2.9 8.67v.27a13.84 13.84 0 0 1-1.28 6 9.76 9.76 0 0 1-3.69 4.16 10.21 10.21 0 0 1-5.5 1.49 9.67 9.67 0 0 1-7.59-3.26 12.44 12.44 0 0 1-2.91-8.62Zm4 .46a9.91 9.91 0 0 0 1.78 6.16 6 6 0 0 0 9.53 0 10.73 10.73 0 0 0 1.77-6.58 9.92 9.92 0 0 0-1.8-6.15 5.75 5.75 0 0 0-4.78-2.35 5.65 5.65 0 0 0-4.71 2.32 10.71 10.71 0 0 0-1.83 6.6ZM258.3 75.34a13.84 13.84 0 0 1-2.42 8.53 7.76 7.76 0 0 1-6.52 3.2 7.2 7.2 0 0 1-5.65-2.43V95.5h-6.15V63.61h5.71l.21 2.26a7.22 7.22 0 0 1 5.83-2.68 7.79 7.79 0 0 1 6.62 3.15q2.37 3.15 2.37 8.68Zm-6.16-.47a9.07 9.07 0 0 0-1.14-5 3.69 3.69 0 0 0-3.31-1.75 4 4 0 0 0-4 2.22v9.46a4.11 4.11 0 0 0 4 2.28q4.45.03 4.45-7.21Zm22.66-5.49a17.44 17.44 0 0 0-2.22-.17c-2.32 0-3.85.79-4.57 2.36v15.08h-6.16v-23h5.82l.17 2.75a5.68 5.68 0 0 1 5.16-3.21 6.53 6.53 0 0 1 1.91.27Zm2.35-11.73a3.07 3.07 0 0 1 .92-2.28 4 4 0 0 1 5 0 3.25 3.25 0 0 1 0 4.58 4 4 0 0 1-5 0 3 3 0 0 1-.92-2.3Zm6.53 29h-6.17v-23h6.17Zm10.75-20.53a7.67 7.67 0 0 1 6.15-2.93q7.5 0 7.6 8.7v14.76H302V72a4.32 4.32 0 0 0-.85-2.94 3.66 3.66 0 0 0-2.83-.94 4.18 4.18 0 0 0-3.92 2.09v16.44h-6.15V54h6.15Zm17.05 8.8a13.62 13.62 0 0 1 1.32-6.11 9.7 9.7 0 0 1 3.8-4.16 11.06 11.06 0 0 1 5.76-1.46A10.5 10.5 0 0 1 330 66a11.48 11.48 0 0 1 3.29 7.75v1.57a12.06 12.06 0 0 1-3 8.51 11.48 11.48 0 0 1-15.89 0q-3-3.19-3-8.69Zm6.15.43a8.55 8.55 0 0 0 1.24 5 4.43 4.43 0 0 0 7 0q1.26-1.71 1.26-5.49a8.46 8.46 0 0 0-1.26-5 4.08 4.08 0 0 0-3.53-1.77 4 4 0 0 0-3.49 1.75 9.54 9.54 0 0 0-1.22 5.51Zm18.2-.35a13.89 13.89 0 0 1 2.42-8.58 7.83 7.83 0 0 1 6.61-3.19 7.06 7.06 0 0 1 5.56 2.51V54h6.17v32.7H351l-.3-2.45a7.24 7.24 0 0 1-5.91 2.87 7.83 7.83 0 0 1-6.53-3.2q-2.43-3.26-2.43-8.92Zm6.15.44a9.18 9.18 0 0 0 1.13 5 3.68 3.68 0 0 0 3.28 1.73 4.12 4.12 0 0 0 4-2.42v-9.19a4.07 4.07 0 0 0-4-2.41c-2.92 0-4.39 2.41-4.39 7.25Zm24.81-11.83.2 2.66a8 8 0 0 1 6.62-3.08 6.68 6.68 0 0 1 5.45 2.15q1.79 2.14 1.83 6.42v14.89h-6.16V71.88a4 4 0 0 0-.85-2.85 3.81 3.81 0 0 0-2.83-.88 4.23 4.23 0 0 0-3.89 2.21v16.29H361v-23Zm17.4 11.31a13.62 13.62 0 0 1 1.32-6.11 9.7 9.7 0 0 1 3.8-4.16 11.06 11.06 0 0 1 5.76-1.46 10.5 10.5 0 0 1 7.61 2.81 11.43 11.43 0 0 1 3.32 7.79v1.57a12.06 12.06 0 0 1-3 8.51 11.48 11.48 0 0 1-15.89 0q-3-3.19-3-8.69Zm6.15.43a8.55 8.55 0 0 0 1.24 5 4.43 4.43 0 0 0 7 0q1.26-1.71 1.26-5.49a8.46 8.46 0 0 0-1.26-5 4.08 4.08 0 0 0-3.53-1.77 4 4 0 0 0-3.49 1.75 9.54 9.54 0 0 0-1.22 5.51Zm31.47 4.93a2 2 0 0 0-1.12-1.78 12.7 12.7 0 0 0-3.59-1.16q-8.21-1.73-8.21-7a6.35 6.35 0 0 1 2.54-5.12 10.26 10.26 0 0 1 6.65-2 11 11 0 0 1 7 2.06 6.52 6.52 0 0 1 2.63 5.36h-6.15a3 3 0 0 0-.86-2.18 3.6 3.6 0 0 0-2.66-.86 3.65 3.65 0 0 0-2.4.7 2.22 2.22 0 0 0-.85 1.79 1.9 1.9 0 0 0 1 1.65A10.11 10.11 0 0 0 419 72.8a26.65 26.65 0 0 1 3.88 1c3.25 1.19 4.87 3.26 4.87 6.19a6 6 0 0 1-2.7 5.1 11.66 11.66 0 0 1-7 1.95A12.16 12.16 0 0 1 413 86a8.66 8.66 0 0 1-3.52-2.83 6.61 6.61 0 0 1-1.28-3.89h5.8a3.18 3.18 0 0 0 1.21 2.51 4.76 4.76 0 0 0 3 .88 4.49 4.49 0 0 0 2.69-.67 2.09 2.09 0 0 0 .91-1.72ZM439.12 58v5.66h3.94v4.51h-3.94v11.5a2.73 2.73 0 0 0 .49 1.83 2.44 2.44 0 0 0 1.87.55 10.83 10.83 0 0 0 1.81-.14v4.66a12.66 12.66 0 0 1-3.73.55q-6.46 0-6.6-6.53V68.12h-3.36v-4.51h3.4V58Zm6.75-.35a3 3 0 0 1 .93-2.28 4 4 0 0 1 5 0 3.25 3.25 0 0 1 0 4.58 4 4 0 0 1-5 0 3 3 0 0 1-.93-2.3Zm6.54 29h-6.18v-23h6.18Zm-195.79 39.52h-12.27v8.34h14.39v5.14H238v-31h20.7v5.17h-14.35v7.39h12.27Zm12.92 5.96 4.28-15.52h6.43l-7.77 23h-5.88l-7.77-23h6.43Zm26.03-9.75a17.44 17.44 0 0 0-2.22-.17c-2.32 0-3.85.79-4.57 2.36v15.08h-6.16v-23h5.82l.17 2.75a5.68 5.68 0 0 1 5.13-3.17 6.53 6.53 0 0 1 1.91.27Zm1.64 5.54a13.62 13.62 0 0 1 1.32-6.11 9.7 9.7 0 0 1 3.8-4.16 11.11 11.11 0 0 1 5.76-1.46 10.48 10.48 0 0 1 7.61 2.81 11.43 11.43 0 0 1 3.29 7.75v1.57a12 12 0 0 1-3 8.51 11.48 11.48 0 0 1-15.89 0q-3-3.19-3-8.69Zm6.15.43a8.63 8.63 0 0 0 1.24 5 4.43 4.43 0 0 0 7 0q1.26-1.71 1.26-5.49a8.46 8.46 0 0 0-1.26-5 4.07 4.07 0 0 0-3.53-1.77 4 4 0 0 0-3.49 1.75 9.63 9.63 0 0 0-1.22 5.51Zm39.89-.01a13.84 13.84 0 0 1-2.42 8.53 7.75 7.75 0 0 1-6.52 3.2 7.16 7.16 0 0 1-5.64-2.43v10.86h-6.16v-31.89h5.71l.21 2.26a7.23 7.23 0 0 1 5.83-2.68 7.82 7.82 0 0 1 6.63 3.15q2.36 3.15 2.36 8.68Zm-6.15-.47a9.07 9.07 0 0 0-1.14-5 3.71 3.71 0 0 0-3.31-1.75 4 4 0 0 0-4 2.22v9.46a4.09 4.09 0 0 0 4 2.28q4.45.03 4.45-7.21Zm20.18 12.2A11.27 11.27 0 0 1 349 137a11 11 0 0 1-3.18-8.28v-.59a14 14 0 0 1 1.34-6.21 9.87 9.87 0 0 1 3.8-4.22 10.72 10.72 0 0 1 5.61-1.47 9.55 9.55 0 0 1 7.44 3q2.71 3 2.72 8.45v2.51h-14.64a5.74 5.74 0 0 0 1.8 3.62 5.42 5.42 0 0 0 3.8 1.36 6.62 6.62 0 0 0 5.55-2.58l3 3.39a9.28 9.28 0 0 1-3.75 3.05 12.18 12.18 0 0 1-5.21 1.04Zm-.7-18.92a3.84 3.84 0 0 0-3 1.24 6.38 6.38 0 0 0-1.46 3.55h8.56v-.5a4.57 4.57 0 0 0-1.11-3.17 4 4 0 0 0-2.99-1.12Z" style="fill:#fff"/></g></svg>