<svg xmlns="http://www.w3.org/2000/svg" viewBox="0 0 602 149"><g data-name="Layer 1"><path style="fill:#164194;stroke:#fff;stroke-miterlimit:10" d="M1.44 9h211.62v131H1.44z"/><path d="m109.84 18.13 1.79 5.58 5.85-.02-4.75 3.42 1.83 5.56-4.72-3.46-4.73 3.46 1.84-5.56-4.76-3.42 5.86.02 1.79-5.58zm0 96.52 1.79 5.58 5.85-.03-4.75 3.43 1.83 5.56-4.72-3.47-4.73 3.47 1.84-5.56-4.76-3.43 5.86.03 1.79-5.58zm-24.01-90.1 1.79 5.58 5.86-.02-4.76 3.42 1.84 5.56-4.73-3.46-4.72 3.46 1.83-5.56-4.75-3.42 5.86.02 1.78-5.58zM68.16 42.26l1.78 5.58 5.86-.03-4.75 3.43 1.83 5.56-4.72-3.46-4.73 3.46 1.84-5.56-4.76-3.43 5.86.03 1.79-5.58zm-6.52 24.07 1.79 5.58 5.86-.03-4.76 3.43 1.84 5.56-4.73-3.46-4.72 3.46 1.83-5.56L54 71.88l5.85.03 1.79-5.58zm6.45 24.08 1.79 5.58 5.86-.03-4.76 3.43 1.84 5.56-4.73-3.47-4.72 3.47 1.83-5.56-4.75-3.43 5.86.03 1.78-5.58zm17.74 17.7 1.79 5.58 5.86-.02-4.76 3.42 1.84 5.56-4.73-3.46-4.72 3.46 1.83-5.56-4.75-3.42 5.86.02 1.78-5.58zm48.04-83.56-1.79 5.58-5.86-.02 4.76 3.42-1.84 5.56 4.73-3.46 4.72 3.46-1.83-5.56 4.75-3.42-5.86.02-1.78-5.58zm17.67 17.71-1.79 5.58-5.85-.03 4.75 3.43-1.83 5.56 4.72-3.46 4.73 3.46-1.84-5.56 4.76-3.43-5.86.03-1.79-5.58zm6.52 24.07-1.79 5.58-5.86-.03 4.76 3.43-1.84 5.56 4.73-3.46 4.72 3.46-1.83-5.56 4.75-3.43-5.86.03-1.78-5.58zm-6.45 24.08-1.79 5.58-5.86-.03 4.76 3.43-1.84 5.56 4.73-3.47 4.72 3.47-1.83-5.56 4.75-3.43-5.86.03-1.78-5.58zm-17.74 17.7-1.79 5.58-5.86-.02 4.76 3.42-1.84 5.56 4.73-3.46 4.72 3.46-1.83-5.56 4.75-3.42-5.86.02-1.78-5.58z" style="fill:#ffed00"/><path d="M261.43 23.81a11.46 11.46 0 0 1-3.63 7.59 11.92 11.92 0 0 1-8.12 2.67 10.92 10.92 0 0 1-8.81-3.94q-3.3-3.93-3.31-10.54v-3A17.66 17.66 0 0 1 239.11 9a11.46 11.46 0 0 1 4.37-5A12.19 12.19 0 0 1 250 2.22 11.2 11.2 0 0 1 258 5a11.59 11.59 0 0 1 3.47 7.63h-4.11a9 9 0 0 0-2.36-5.4 7 7 0 0 0-5-1.66 7.31 7.31 0 0 0-6.14 2.89c-1.49 1.94-2.23 4.68-2.23 8.25v3a13.66 13.66 0 0 0 2.11 8 6.82 6.82 0 0 0 5.9 3 7.89 7.89 0 0 0 5.22-1.54c1.22-1 2-2.83 2.42-5.38Zm3.7-1.89a13.55 13.55 0 0 1 1.33-6.09 9.89 9.89 0 0 1 3.71-4.18 10 10 0 0 1 5.41-1.46 9.7 9.7 0 0 1 7.61 3.25 12.52 12.52 0 0 1 2.91 8.67v.27a13.7 13.7 0 0 1-1.29 6 9.74 9.74 0 0 1-3.68 4.16 10.23 10.23 0 0 1-5.5 1.49 9.64 9.64 0 0 1-7.63-3.22 12.44 12.44 0 0 1-2.91-8.62Zm4 .46a9.84 9.84 0 0 0 1.78 6.16 6 6 0 0 0 9.53 0 10.79 10.79 0 0 0 1.76-6.58 9.85 9.85 0 0 0-1.8-6.15 5.74 5.74 0 0 0-4.78-2.35 5.64 5.64 0 0 0-4.7 2.32 10.71 10.71 0 0 0-1.83 6.6Zm25.16-11.77.12 2.9a8.38 8.38 0 0 1 6.9-3.32q7.31 0 7.37 8.23v15.23h-3.94V18.4a5.34 5.34 0 0 0-1.14-3.68 4.56 4.56 0 0 0-3.48-1.19 5.72 5.72 0 0 0-3.37 1 6.93 6.93 0 0 0-2.25 2.68v16.44h-3.94v-23Zm21.32 23.04v-20H312v-3h3.64v-2.4a7.85 7.85 0 0 1 2-5.73 7.48 7.48 0 0 1 5.6-2 10.46 10.46 0 0 1 2.71.36L325.68 4a11.1 11.1 0 0 0-2.13-.19 3.85 3.85 0 0 0-3 1.12 4.58 4.58 0 0 0-1 3.22v2.43h4.92v3h-4.92v20Zm21.46.42a10.07 10.07 0 0 1-7.62-3.07 11.44 11.44 0 0 1-2.94-8.23V22a13.89 13.89 0 0 1 1.31-6.12 10.24 10.24 0 0 1 3.66-4.21 9.17 9.17 0 0 1 5.1-1.52 8.62 8.62 0 0 1 7 3c1.67 2 2.5 4.8 2.5 8.48v1.64h-15.63a8.2 8.2 0 0 0 2 5.5 6.26 6.26 0 0 0 4.84 2.1 7 7 0 0 0 3.54-.85 8.88 8.88 0 0 0 2.53-2.26l2.41 1.87a9.67 9.67 0 0 1-8.7 4.44Zm-.49-20.65a5.24 5.24 0 0 0-4 1.74 8.34 8.34 0 0 0-2 4.86h11.54v-.3a7.57 7.57 0 0 0-1.62-4.65 5 5 0 0 0-3.92-1.65Zm24.95.72a12.91 12.91 0 0 0-1.94-.14 5.18 5.18 0 0 0-5.25 3.3v16.35h-3.94v-23h3.83l.06 2.66a6.13 6.13 0 0 1 5.5-3.08 4 4 0 0 1 1.74.29Zm3.14-9.64a2.36 2.36 0 0 1 .59-1.62 2.2 2.2 0 0 1 1.74-.66 2.23 2.23 0 0 1 1.74.66 2.32 2.32 0 0 1 .6 1.62 2.25 2.25 0 0 1-.6 1.6 2.29 2.29 0 0 1-1.74.64 2.26 2.26 0 0 1-1.74-.64 2.29 2.29 0 0 1-.59-1.6Zm4.26 29.15H365v-23h3.93Zm9.44-23.04.13 2.9a8.38 8.38 0 0 1 6.9-3.32q7.29 0 7.36 8.23v15.23h-3.93V18.4a5.34 5.34 0 0 0-1.14-3.68 4.57 4.57 0 0 0-3.49-1.19 5.71 5.71 0 0 0-3.36 1 7 7 0 0 0-2.26 2.68v16.44h-3.93v-23ZM404 5v5.58h4.3v3H404V28a3.24 3.24 0 0 0 .57 2.08 2.44 2.44 0 0 0 2 .69 9.68 9.68 0 0 0 1.88-.26v3.18a11.63 11.63 0 0 1-3 .42 4.9 4.9 0 0 1-4-1.6 6.86 6.86 0 0 1-1.45-4.57V13.65h-4.19v-3H400V5Zm0 39.57L401.78 43a9.13 9.13 0 0 0 1.57-5v-2h3.77v1.62a9.44 9.44 0 0 1-.84 3.84 8 8 0 0 1-2.28 3.11Zm22.67-10.92a8.59 8.59 0 0 1-.55-2.43 8.8 8.8 0 0 1-6.56 2.85 8.12 8.12 0 0 1-5.56-1.93 6.23 6.23 0 0 1-2.18-4.88 6.51 6.51 0 0 1 2.74-5.59c1.82-1.33 4.39-2 7.69-2h3.84v-1.8a4.44 4.44 0 0 0-1.24-3.29 5 5 0 0 0-3.64-1.22 5.73 5.73 0 0 0-3.53 1.06 3.15 3.15 0 0 0-1.46 2.58h-4a5.41 5.41 0 0 1 1.23-3.33 8.28 8.28 0 0 1 3.32-2.55 11.2 11.2 0 0 1 4.61-.93 9.07 9.07 0 0 1 6.23 2 7.12 7.12 0 0 1 2.39 5.47v10.6a12.9 12.9 0 0 0 .81 5v.35Zm-6.53-3a7 7 0 0 0 3.51-.95 5.79 5.79 0 0 0 2.41-2.5v-4.73H423q-7.25 0-7.24 4.24A3.56 3.56 0 0 0 417 29.6a4.71 4.71 0 0 0 3.14 1.04ZM257.47 75.38a13.78 13.78 0 0 1-2.41 8.48 7.7 7.7 0 0 1-6.51 3.21 8.45 8.45 0 0 1-6.6-2.66V95.5H238V63.61h3.6l.19 2.56a8.09 8.09 0 0 1 6.68-3 7.86 7.86 0 0 1 6.57 3.12q2.42 3.14 2.42 8.71Zm-3.94-.44a10.19 10.19 0 0 0-1.66-6.16 5.37 5.37 0 0 0-4.56-2.25A5.77 5.77 0 0 0 242 69.7v11a5.8 5.8 0 0 0 5.4 3.15 5.34 5.34 0 0 0 4.51-2.25q1.61-2.24 1.62-6.66Zm19.7-7.8a13.11 13.11 0 0 0-1.94-.14 5.18 5.18 0 0 0-5.29 3.3v16.35h-3.94v-23h3.83l.07 2.66a6.12 6.12 0 0 1 5.49-3.08 4 4 0 0 1 1.75.29Zm3.14-9.64a2.35 2.35 0 0 1 .58-1.62 2.62 2.62 0 0 1 3.48 0 2.32 2.32 0 0 1 .6 1.62 2.44 2.44 0 0 1-4.03 1.6 2.28 2.28 0 0 1-.63-1.6Zm4.26 29.15h-3.94v-23h3.94ZM294 81.3l5.71-17.69h4l-8.26 23h-3l-8.34-23h4Zm13-23.8a2.35 2.35 0 0 1 .58-1.62 2.2 2.2 0 0 1 1.74-.66 2.23 2.23 0 0 1 1.74.66 2.32 2.32 0 0 1 .6 1.62 2.25 2.25 0 0 1-.6 1.6 2.29 2.29 0 0 1-1.74.64A2.11 2.11 0 0 1 307 57.5Zm4.25 29.15h-3.93v-23h3.93Zm9.4-23.04.13 2.9a8.38 8.38 0 0 1 6.9-3.32q7.31 0 7.36 8.23v15.23h-3.93V71.4a5.34 5.34 0 0 0-1.11-3.68 4.56 4.56 0 0 0-3.48-1.19 5.72 5.72 0 0 0-3.37 1 6.85 6.85 0 0 0-2.25 2.68v16.44h-3.94v-23Zm18.86 11.33a13.46 13.46 0 0 1 2.49-8.53 8.55 8.55 0 0 1 13-.41V54h4v32.7h-3.62l-.19-2.47a8 8 0 0 1-6.58 2.89 7.84 7.84 0 0 1-6.61-3.33 13.65 13.65 0 0 1-2.53-8.56Zm3.94.44a10.17 10.17 0 0 0 1.62 6.13 5.23 5.23 0 0 0 4.47 2.22 5.74 5.74 0 0 0 5.46-3.36V69.78a5.78 5.78 0 0 0-5.43-3.25 5.26 5.26 0 0 0-4.51 2.23q-1.61 2.24-1.61 6.62ZM387.1 79l7-23.31h7.11l-10.79 31h-6.67L373 55.65h7.09Zm16.51-21.35a3.07 3.07 0 0 1 .92-2.28 4 4 0 0 1 5 0 3.27 3.27 0 0 1 0 4.58 4 4 0 0 1-5 0 3 3 0 0 1-.92-2.3Zm6.53 29H404v-23h6.17Zm4.45-29a3 3 0 0 1 .93-2.28 4 4 0 0 1 5 0 3.25 3.25 0 0 1 0 4.58 4 4 0 0 1-5 0 3 3 0 0 1-.93-2.3Zm6.54 29H415v-23h6.18ZM433.14 58v5.66h3.94v4.51h-3.94v11.5a2.78 2.78 0 0 0 .49 1.83 2.47 2.47 0 0 0 1.88.55 10.83 10.83 0 0 0 1.81-.14v4.66a12.66 12.66 0 0 1-3.73.55q-6.46 0-6.6-6.53V68.12h-3.36v-4.51H427V58Zm5.66 16.92a13.62 13.62 0 0 1 1.32-6.11 9.64 9.64 0 0 1 3.8-4.16 11.06 11.06 0 0 1 5.76-1.46 10.5 10.5 0 0 1 7.61 2.81 11.48 11.48 0 0 1 3.29 7.75v1.57a12.06 12.06 0 0 1-3 8.51 11.48 11.48 0 0 1-15.89 0q-3-3.19-3-8.69Zm6.15.43a8.55 8.55 0 0 0 1.24 5 4.43 4.43 0 0 0 7 0q1.26-1.71 1.26-5.49a8.46 8.46 0 0 0-1.26-5 4.08 4.08 0 0 0-3.53-1.77 4 4 0 0 0-3.49 1.75 9.54 9.54 0 0 0-1.17 5.51ZM477 69.38a17.16 17.16 0 0 0-2.21-.17c-2.33 0-3.85.79-4.58 2.36v15.08h-6.11v-23h5.81l.17 2.75a5.7 5.7 0 0 1 5.13-3.17 6.65 6.65 0 0 1 1.92.27Zm16.49 14.92a7.7 7.7 0 0 1-6.3 2.77 7.29 7.29 0 0 1-5.66-2.13c-1.29-1.42-2-3.5-2-6.24V63.61h6.16v14.9q0 3.6 3.27 3.6c2.09 0 3.53-.72 4.3-2.17V63.61h6.18v23h-5.79Zm16.7 2.35H504V54h6.18Zm-253.74 39.56h-12.27v8.3h14.4v5.14H237.8v-31h20.73v5.17h-14.35v7.39h12.27Zm18.95 11.09a7.7 7.7 0 0 1-6.3 2.77 7.27 7.27 0 0 1-5.65-2.13q-1.95-2.13-2-6.24v-15.09h6.15v14.9q0 3.6 3.28 3.6t4.3-2.17v-16.33h6.17v23h-5.79Zm23.32-14.92a17.44 17.44 0 0 0-2.22-.17c-2.32 0-3.85.79-4.57 2.36v15.08h-6.16v-23h5.81l.18 2.75a5.68 5.68 0 0 1 5.13-3.17 6.53 6.53 0 0 1 1.91.27Zm1.64 5.54a13.62 13.62 0 0 1 1.32-6.11 9.7 9.7 0 0 1 3.8-4.16 11.06 11.06 0 0 1 5.76-1.46 10.5 10.5 0 0 1 7.61 2.85 11.43 11.43 0 0 1 3.29 7.75v1.57a12 12 0 0 1-3 8.51 11.48 11.48 0 0 1-15.89 0q-3-3.19-3-8.69Zm6.15.43a8.55 8.55 0 0 0 1.24 5 4.43 4.43 0 0 0 7 0q1.26-1.71 1.26-5.49a8.46 8.46 0 0 0-1.26-5 4.07 4.07 0 0 0-3.53-1.77 4 4 0 0 0-3.49 1.75 9.54 9.54 0 0 0-1.22 5.51Zm39.89-.01a13.84 13.84 0 0 1-2.42 8.53 7.75 7.75 0 0 1-6.52 3.2 7.16 7.16 0 0 1-5.64-2.43v10.86h-6.16v-31.89h5.71l.21 2.26a7.22 7.22 0 0 1 5.83-2.68 7.79 7.79 0 0 1 6.62 3.15q2.37 3.15 2.37 8.68Zm-6.15-.45a9.08 9.08 0 0 0-1.14-5 3.72 3.72 0 0 0-3.31-1.74 4 4 0 0 0-4 2.21v9.43a4.09 4.09 0 0 0 4 2.28c2.98.04 4.45-2.36 4.45-7.18Zm20.18 12.18a11.27 11.27 0 0 1-8.25-3.11 11 11 0 0 1-3.18-8.28v-.59a14 14 0 0 1 1.34-6.21 9.87 9.87 0 0 1 3.8-4.22 10.72 10.72 0 0 1 5.61-1.47 9.55 9.55 0 0 1 7.44 3q2.71 3 2.72 8.45v2.51h-14.67a5.74 5.74 0 0 0 1.8 3.62 5.42 5.42 0 0 0 3.8 1.36 6.62 6.62 0 0 0 5.55-2.58l3 3.39a9.28 9.28 0 0 1-3.75 3.05 12.18 12.18 0 0 1-5.21 1.08Zm-.7-18.92a3.84 3.84 0 0 0-3 1.24 6.38 6.38 0 0 0-1.46 3.55h8.56v-.5a4.57 4.57 0 0 0-1.11-3.17 4 4 0 0 0-2.99-1.12Zm13.27-10.5a3.07 3.07 0 0 1 .92-2.28 4 4 0 0 1 5 0 3.27 3.27 0 0 1 0 4.58 4 4 0 0 1-5 0 3 3 0 0 1-.92-2.3Zm6.53 29h-6.17v-23h6.17Z" style="fill:#fff"/></g></svg>