<?xml version="1.0" encoding="utf-8"?>
<!-- Generator: Adobe Illustrator 27.3.1, SVG Export Plug-In . SVG Version: 6.00 Build 0)  -->
<svg version="1.1" xmlns="http://www.w3.org/2000/svg" xmlns:xlink="http://www.w3.org/1999/xlink" x="0px" y="0px"
	 viewBox="0 0 1635.74 535.98" style="enable-background:new 0 0 1635.74 535.98;" xml:space="preserve">
<style type="text/css">
	.st0{fill:#FFFFFF;}
	.st1{fill:#0C4DA2;}
	.st2{fill:#FFF200;}
	.st3{fill:#D94397;}
</style>
<g id="Elements">
	<g>
		<path class="st0" d="M515,284.68h-12.02l-3.97,13.95h-19.48l3.85-13.95h-8.66v-16.35h13.34l3.97-14.55h-11.42v-16.11h15.99
			l4.21-15.03h19.6l-4.21,15.03h11.9l4.21-15.03h19.48l-4.21,15.03h9.86v16.11h-14.43l-3.97,14.55h12.38v16.35h-17.07l-3.85,13.95
			h-19.36L515,284.68z M519.57,268.33l4.09-14.55h-12.02l-4.09,14.55H519.57z"/>
		<path class="st0" d="M563.81,259.67c0-26.57,19.96-42.2,41.72-42.2c13.46,0,25.37,6.13,32.82,16.23l-15.39,12.86
			c-3.85-5.05-10.82-8.54-17.19-8.54c-9.74,0-19.36,6.61-19.36,21.76c0,14.19,8.78,21.64,19.12,21.64c8.3,0,14.79-4.33,17.67-10.82
			h-19.48v-17.55h42.56v0.12v6.25c0,24.53-16.47,42.32-40.76,42.32C581.48,301.75,563.81,284.92,563.81,259.67z"/>
		<path class="st0" d="M678.49,249.21h33.66v19.36h-33.66v12.26h39.79v19.36h-61.79v-81.15h60.71v19.48h-38.71V249.21z"/>
		<path class="st0" d="M730.16,219.04h37.99c17.31,0,28.25,7.57,28.25,20.56c0,8.42-4.57,15.15-12.5,18.27
			c9.14,2.77,15.27,9.5,15.27,19.84c0,14.07-11.06,22.48-30.18,22.48h-38.83V219.04z M765.51,250.9c5.41,0,8.78-2.53,8.78-6.85
			c0-4.45-3.37-6.97-8.9-6.97H751.8v13.83H765.51z M767.31,282.15c6.25,0,9.74-2.77,9.74-7.45c0-4.57-3.61-7.21-9.62-7.21H751.8
			v14.67H767.31z"/>
		<path class="st0" d="M809.7,219.04h34.74c18.88,0,31.26,10.46,31.26,26.33c0,11.9-6.85,20.68-18.27,24.41l19.96,30.42h-25.61
			l-18.27-28.49h-1.32v28.49H809.7V219.04z M843.85,254.26c5.65,0,9.38-3.37,9.38-8.54c0-4.93-3.73-8.29-9.38-8.29h-11.66v16.83
			H843.85z"/>
		<path class="st0" d="M884.67,268.45v-49.53h22.48v49.65c0,7.33,5.05,12.14,12.62,12.14c7.69,0,12.62-4.81,12.62-12.14v-49.65
			h22.36v49.53c0,19.96-13.95,33.18-34.98,33.18C898.5,301.63,884.67,288.41,884.67,268.45z"/>
		<path class="st0" d="M968.67,218.92h22.6v81.27h-22.6V218.92z"/>
		<path class="st0" d="M1028.09,263.52v36.67h-22.48v-81.15h22.48v35.11l24.04-35.11h25.85l-28.13,39.79l28.97,41.36h-25.85
			L1028.09,263.52z"/>
		<path class="st0" d="M471.96,389.92l17.79-9.98c1.8,3.85,5.29,5.77,9.38,5.77c5.41,0,8.9-3.85,8.9-9.86v-51.94h22.48v51.34
			c0,19.12-11.18,31.5-29.58,31.5C487.23,406.75,477.13,401.22,471.96,389.92z"/>
		<path class="st0" d="M566.29,354.21h33.66v19.36h-33.66v12.26h39.79v19.36h-61.79v-81.15H605v19.48h-38.71V354.21z"/>
		<path class="st0" d="M643.47,394.85l11.9-15.75c4.93,5.29,12.74,8.66,20.44,8.66c5.05,0,9.98-1.56,9.98-6.49
			c0-5.17-4.45-6.73-12.74-8.42c-17.31-3.49-27.29-10.34-27.29-24.77c0-16.59,15.03-25.61,32.82-25.61
			c12.38,0,22.48,3.49,29.82,10.7l-11.66,15.03c-6.25-4.69-12.14-6.85-17.91-6.85c-5.29,0-9.26,1.56-9.26,5.53
			c0,3.97,3.13,5.89,12.5,7.94c17.91,3.61,27.65,11.78,27.65,26.45c0,16.71-14.79,25.49-34.38,25.49
			C662.1,406.75,650.44,401.58,643.47,394.85z"/>
		<path class="st0" d="M757.39,344.71v60.47h-22.48v-60.47h-23.08v-20.8h68.53v20.8H757.39z"/>
		<path class="st0" d="M808.55,354.21h33.66v19.36h-33.66v12.26h39.79v19.36h-61.79v-81.15h60.71v19.48h-38.71V354.21z"/>
		<path class="st0" d="M860.22,323.92h22l20.8,37.99l20.92-37.99h21.88v81.27h-22.6v-43.16l-16.71,31.02h-6.85l-16.95-31.02v43.16
			h-22.48V323.92z"/>
	</g>
	<g>
		<rect x="1157.58" y="172.82" class="st0" width="355.48" height="237.17"/>
		<rect x="1162.24" y="177.48" class="st1" width="346.16" height="227.83"/>
		<polygon class="st2" points="1335.14,198.59 1338.52,209.11 1349.57,209.06 1340.59,215.52 1344.05,226.02 1335.14,219.48 
			1326.25,226.02 1329.7,215.52 1320.72,209.06 1331.76,209.11 		"/>
		<polygon class="st2" points="1335.14,356.79 1338.52,367.29 1349.57,367.24 1340.59,373.72 1344.05,384.21 1335.14,377.69 
			1326.25,384.21 1329.7,373.72 1320.72,367.24 1331.76,367.29 		"/>
		<polygon class="st2" points="1295.79,209.11 1299.16,219.63 1310.21,219.6 1301.27,226.04 1304.72,236.52 1295.79,229.99 
			1286.9,236.52 1290.35,226.04 1281.42,219.6 1292.45,219.63 		"/>
		<polygon class="st2" points="1266.84,238.16 1270.2,248.67 1281.25,248.59 1272.27,255.07 1275.72,265.55 1266.84,259.01 
			1257.94,265.55 1261.4,255.07 1252.39,248.59 1263.48,248.67 		"/>
		<polygon class="st2" points="1256.15,277.61 1259.49,288.11 1270.57,288.04 1261.6,294.52 1265.02,304.99 1256.15,298.47 
			1247.25,304.99 1250.72,294.52 1241.73,288.04 1252.77,288.11 		"/>
		<polygon class="st2" points="1266.71,317.06 1270.1,327.61 1281.11,327.53 1272.16,333.99 1275.64,344.47 1266.71,337.91 
			1257.81,344.47 1261.29,333.99 1252.29,327.54 1263.34,327.61 		"/>
		<polygon class="st2" points="1295.79,346.08 1299.16,356.6 1310.21,356.55 1301.27,362.99 1304.72,373.48 1295.79,366.97 
			1286.9,373.48 1290.35,362.99 1281.42,356.55 1292.45,356.6 		"/>
		<polygon class="st2" points="1374.53,209.11 1371.17,219.63 1360.11,219.6 1369.09,226.04 1365.62,236.52 1374.53,229.99 
			1383.43,236.52 1379.98,226.04 1388.94,219.6 1377.92,219.63 		"/>
		<polygon class="st2" points="1403.51,238.16 1400.14,248.67 1389.08,248.59 1398.05,255.07 1394.58,265.55 1403.51,259.01 
			1412.42,265.55 1408.96,255.07 1417.9,248.59 1406.86,248.67 		"/>
		<polygon class="st2" points="1414.2,277.61 1410.82,288.11 1399.76,288.04 1408.74,294.52 1405.27,304.99 1414.2,298.47 
			1423.1,304.99 1419.65,294.52 1428.59,288.04 1417.55,288.11 		"/>
		<polygon class="st2" points="1403.58,317.06 1400.25,327.61 1389.19,327.53 1398.18,333.99 1394.7,344.47 1403.58,337.91 
			1412.53,344.47 1409.07,333.99 1418.04,327.54 1406.99,327.61 		"/>
		<polygon class="st2" points="1374.53,346.08 1371.17,356.6 1360.11,356.55 1369.09,362.99 1365.62,373.48 1374.53,366.97 
			1383.43,373.48 1379.98,362.99 1388.94,356.55 1377.92,356.6 		"/>
	</g>
	<path class="st0" d="M437.78,331.04L332.23,121.5L122.68,227.05l78.98,156.8H147.9v22.64H436.3v-22.64H332.94L437.78,331.04z
		 M153.08,237.08l169.12-85.18l85.18,169.12l-124.75,62.84H227L153.08,237.08z"/>
</g>
<g id="Clear_space">
</g>
</svg>
