<?xml version="1.0" encoding="utf-8"?>
<!-- Generator: Adobe Illustrator 27.3.1, SVG Export Plug-In . SVG Version: 6.00 Build 0)  -->
<svg version="1.1" xmlns="http://www.w3.org/2000/svg" xmlns:xlink="http://www.w3.org/1999/xlink" x="0px" y="0px"
	 viewBox="0 0 1669.24 535.98" style="enable-background:new 0 0 1669.24 535.98;" xml:space="preserve">
<style type="text/css">
	.st0{fill:#FFFFFF;}
	.st1{fill:#0C4DA2;}
	.st2{fill:#FFF200;}
	.st3{fill:#D94397;}
</style>
<g id="Elements">
</g>
<g id="Clear_space">
	<path class="st0" d="M437.77,332.22L332.22,122.67L122.68,228.22l78.98,156.8h-53.76v22.64H436.3v-22.64H332.94L437.77,332.22z
		 M153.08,238.25l169.12-85.18l85.18,169.12l-124.75,62.84H227L153.08,238.25z"/>
	<g>
		<rect x="1189.84" y="174.51" class="st0" width="355.48" height="237.17"/>
		<rect x="1194.51" y="179.17" class="st1" width="346.16" height="227.83"/>
		<polygon class="st2" points="1367.41,200.28 1370.78,210.8 1381.83,210.75 1372.85,217.21 1376.32,227.72 1367.41,221.18 
			1358.51,227.72 1361.97,217.21 1352.99,210.75 1364.03,210.8 		"/>
		<polygon class="st2" points="1367.41,358.49 1370.78,368.98 1381.83,368.93 1372.85,375.41 1376.32,385.9 1367.41,379.38 
			1358.51,385.9 1361.97,375.41 1352.99,368.93 1364.03,368.98 		"/>
		<polygon class="st2" points="1328.06,210.8 1331.43,221.32 1342.47,221.29 1333.53,227.73 1336.99,238.21 1328.06,231.68 
			1319.17,238.21 1322.61,227.73 1313.68,221.29 1324.72,221.32 		"/>
		<polygon class="st2" points="1299.11,239.85 1302.47,250.36 1313.51,250.29 1304.53,256.76 1307.99,267.25 1299.11,260.71 
			1290.21,267.25 1293.66,256.76 1284.66,250.29 1295.74,250.36 		"/>
		<polygon class="st2" points="1288.42,279.3 1291.76,289.8 1302.83,289.74 1293.87,296.21 1297.28,306.69 1288.42,300.16 
			1279.52,306.69 1282.98,296.21 1273.99,289.74 1285.04,289.8 		"/>
		<polygon class="st2" points="1298.98,318.75 1302.37,329.31 1313.38,329.22 1304.42,335.68 1307.9,346.17 1298.98,339.6 
			1290.07,346.17 1293.55,335.68 1284.56,329.23 1295.61,329.31 		"/>
		<polygon class="st2" points="1328.06,347.77 1331.43,358.29 1342.47,358.24 1333.53,364.68 1336.99,375.18 1328.06,368.66 
			1319.17,375.18 1322.61,364.68 1313.68,358.24 1324.72,358.29 		"/>
		<polygon class="st2" points="1406.8,210.8 1403.43,221.32 1392.37,221.29 1401.35,227.73 1397.89,238.21 1406.8,231.68 
			1415.69,238.21 1412.25,227.73 1421.2,221.29 1410.19,221.32 		"/>
		<polygon class="st2" points="1435.77,239.85 1432.41,250.36 1421.35,250.29 1430.31,256.76 1426.84,267.25 1435.77,260.71 
			1444.69,267.25 1441.22,256.76 1450.16,250.29 1439.13,250.36 		"/>
		<polygon class="st2" points="1446.47,279.3 1443.09,289.8 1432.03,289.74 1441,296.21 1437.54,306.69 1446.47,300.16 
			1455.37,306.69 1451.91,296.21 1460.85,289.74 1449.82,289.8 		"/>
		<polygon class="st2" points="1435.85,318.75 1432.52,329.31 1421.46,329.22 1430.45,335.68 1426.97,346.17 1435.85,339.6 
			1444.8,346.17 1441.33,335.68 1450.3,329.23 1439.25,329.31 		"/>
		<polygon class="st2" points="1406.8,347.77 1403.43,358.29 1392.37,358.24 1401.35,364.68 1397.89,375.18 1406.8,368.66 
			1415.69,375.18 1412.25,364.68 1421.2,358.24 1410.19,358.29 		"/>
	</g>
	<g>
		<g>
			<g>
				<path class="st0" d="M516.06,273.56h-12.02l-3.97,13.95h-19.48l3.85-13.95h-8.66v-16.35h13.34l3.97-14.55h-11.42v-16.11h15.99
					l4.21-15.03h19.6l-4.21,15.03h11.9l4.21-15.03h19.48l-4.21,15.03h9.86v16.11h-14.43l-3.97,14.55h12.38v16.35h-17.07l-3.85,13.95
					h-19.36L516.06,273.56z M520.63,257.21l4.09-14.55h-12.02l-4.09,14.55H520.63z"/>
				<path class="st0" d="M560.04,207.91h23.56l17.07,56.75h0.24l17.43-56.75h23.32l-27.53,81.15h-26.69L560.04,207.91z"/>
				<path class="st0" d="M669.67,207.79l14.19,28.73l13.83-28.73h25.37l-28.13,51.34v29.94h-22.48v-30.3l-28.13-50.98H669.67z"/>
				<path class="st0" d="M728.44,257.33v-49.53h22.48v49.65c0,7.33,5.05,12.14,12.62,12.14c7.69,0,12.62-4.81,12.62-12.14v-49.65
					h22.36v49.53c0,19.96-13.95,33.18-34.99,33.18C742.26,290.51,728.44,277.28,728.44,257.33z"/>
				<path class="st0" d="M806.74,274.76l35.83-47.85h-34.75v-19.12h64.32v14.31l-35.71,47.97h36.55v19h-66.24V274.76z M817.2,191.44
					l4.45-10.22l18.03,6.73l18.39-6.73l4.45,10.22l-22.84,12.5L817.2,191.44z"/>
				<path class="st0" d="M883.73,207.79h22.6v81.27h-22.6V207.79z"/>
				<path class="st0" d="M474.82,396.23l11.9-15.75c4.93,5.29,12.74,8.66,20.44,8.66c5.05,0,9.98-1.56,9.98-6.49
					c0-5.17-4.45-6.73-12.74-8.42c-17.31-3.49-27.29-10.34-27.29-24.77c0-16.59,15.03-25.61,32.82-25.61
					c12.38,0,22.48,3.49,29.82,10.7l-11.66,15.03c-6.25-4.69-12.14-6.85-17.91-6.85c-5.29,0-9.26,1.56-9.26,5.53
					s3.13,5.89,12.5,7.93c17.91,3.61,27.65,11.78,27.65,26.45c0,16.71-14.79,25.49-34.38,25.49
					C493.46,408.13,481.8,402.96,474.82,396.23z"/>
				<path class="st0" d="M541.81,325.41h23.56l17.07,56.75h0.24l17.43-56.75h23.32l-27.53,81.15h-26.69L541.81,325.41z"/>
				<path class="st0" d="M622.68,366.05c0-24.41,17.91-42.2,42.44-42.2s42.44,17.67,42.44,41.96c0,24.53-17.91,42.32-42.56,42.32
					C640.59,408.13,622.68,390.45,622.68,366.05z M684.35,366.05c0-12.38-8.05-21.52-19.24-21.52s-19.36,9.02-19.36,21.4
					c0,12.5,8.3,21.52,19.36,21.52C676.3,387.45,684.35,378.31,684.35,366.05z"/>
				<path class="st0" d="M709.04,391.3l17.79-9.98c1.8,3.85,5.29,5.77,9.38,5.77c5.41,0,8.9-3.85,8.9-9.86v-51.94h22.48v51.34
					c0,19.12-11.18,31.5-29.58,31.5C724.31,408.13,714.21,402.6,709.04,391.3z"/>
				<path class="st0" d="M811.72,406.57v-81.15h22.36v30.06h26.69v-30.06h22.48v81.15h-22.48v-31.02h-26.69v31.02H811.72z"/>
				<path class="st0" d="M897.82,325.29h22.36v60.71h34.26v20.56h-56.63V325.29z"/>
				<path class="st0" d="M987.32,325.41h27.05l29.82,81.15h-23.44l-5.05-14.79h-30.18l-5.05,14.79h-23.08L987.32,325.41z
					 M1000.54,348.14L992,373.14h17.19l-8.54-25.01H1000.54z"/>
				<path class="st0" d="M1046.67,396.23l11.9-15.75c4.93,5.29,12.74,8.66,20.44,8.66c5.05,0,9.98-1.56,9.98-6.49
					c0-5.17-4.45-6.73-12.74-8.42c-17.31-3.49-27.29-10.34-27.29-24.77c0-16.59,15.03-25.61,32.82-25.61
					c12.38,0,22.48,3.49,29.82,10.7l-11.66,15.03c-6.25-4.69-12.14-6.85-17.91-6.85c-5.29,0-9.26,1.56-9.26,5.53
					s3.13,5.89,12.5,7.93c17.91,3.61,27.65,11.78,27.65,26.45c0,16.71-14.79,25.49-34.38,25.49
					C1065.3,408.13,1053.64,402.96,1046.67,396.23z"/>
			</g>
		</g>
	</g>
</g>
</svg>
