<?xml version="1.0" encoding="utf-8"?>
<!-- Generator: Adobe Illustrator 27.3.1, SVG Export Plug-In . SVG Version: 6.00 Build 0)  -->
<svg version="1.1" xmlns="http://www.w3.org/2000/svg" xmlns:xlink="http://www.w3.org/1999/xlink" x="0px" y="0px"
	 viewBox="0 0 1935.76 535.98" style="enable-background:new 0 0 1935.76 535.98;" xml:space="preserve">
<style type="text/css">
	.st0{fill:#FFFFFF;}
	.st1{fill:#0C4DA2;}
	.st2{fill:#FFF200;}
	.st3{fill:#D94397;}
</style>
<g id="Elements">
	<g>
		<g>
			<g>
				<path class="st0" d="M516.08,271.66h-12.02l-3.97,13.95h-19.48l3.85-13.95h-8.66v-16.35h13.34l3.97-14.55H481.7v-16.11h15.99
					l4.21-15.03h19.6l-4.21,15.03h11.9l4.21-15.03h19.48l-4.21,15.03h9.86v16.11H544.1l-3.97,14.55h12.38v16.35h-17.07l-3.85,13.95
					h-19.36L516.08,271.66z M520.65,255.31l4.09-14.55h-12.02l-4.09,14.55H520.65z"/>
				<path class="st0" d="M591.93,239.08h32.94v17.55h-32.94v30.54h-22.48V205.9h60.11v18.63h-37.63V239.08z"/>
				<path class="st0" d="M632.7,246.65c0-24.41,17.91-42.2,42.44-42.2s42.44,17.67,42.44,41.96c0,24.53-17.91,42.32-42.56,42.32
					C650.61,288.73,632.7,271.06,632.7,246.65z M694.37,246.65c0-12.38-8.05-21.52-19.24-21.52c-11.18,0-19.36,9.02-19.36,21.4
					c0,12.5,8.3,21.52,19.36,21.52C686.32,268.05,694.37,258.92,694.37,246.65z"/>
				<path class="st0" d="M728,205.9h22.36v60.71h34.26v20.56H728V205.9z"/>
				<path class="st0" d="M787.37,246.65c0-24.41,17.91-42.2,42.44-42.2c24.53,0,42.44,17.67,42.44,41.96
					c0,24.53-17.91,42.32-42.56,42.32C805.28,288.73,787.37,271.06,787.37,246.65z M849.04,246.65c0-12.38-8.05-21.52-19.24-21.52
					c-11.18,0-19.36,9.02-19.36,21.4c0,12.5,8.3,21.52,19.36,21.52C840.99,268.05,849.04,258.92,849.04,246.65z"/>
				<path class="st0" d="M876.59,276.83l11.9-15.75c4.93,5.29,12.74,8.66,20.44,8.66c5.05,0,9.98-1.56,9.98-6.49
					c0-5.17-4.45-6.73-12.74-8.42c-17.31-3.49-27.29-10.34-27.29-24.77c0-16.59,15.03-25.61,32.82-25.61
					c12.38,0,22.48,3.49,29.82,10.7l-11.66,15.03c-6.25-4.69-12.14-6.85-17.91-6.85c-5.29,0-9.26,1.56-9.26,5.53
					c0,3.97,3.13,5.89,12.5,7.93c17.91,3.61,27.65,11.78,27.65,26.45c0,16.71-14.79,25.49-34.38,25.49
					C895.22,288.73,883.56,283.56,876.59,276.83z"/>
				<path class="st0" d="M973.67,236.19h33.66v19.36h-33.66v12.26h39.79v19.36h-61.79v-81.15h60.71v19.48h-38.71V236.19z"/>
				<path class="st0" d="M1019.69,276.83l11.9-15.75c4.93,5.29,12.74,8.66,20.44,8.66c5.05,0,9.98-1.56,9.98-6.49
					c0-5.17-4.45-6.73-12.74-8.42c-17.31-3.49-27.29-10.34-27.29-24.77c0-16.59,15.03-25.61,32.82-25.61
					c12.38,0,22.48,3.49,29.82,10.7l-11.66,15.03c-6.25-4.69-12.14-6.85-17.91-6.85c-5.29,0-9.26,1.56-9.26,5.53
					c0,3.97,3.13,5.89,12.5,7.93c17.91,3.61,27.65,11.78,27.65,26.45c0,16.71-14.79,25.49-34.38,25.49
					C1038.32,288.73,1026.66,283.56,1019.69,276.83z M1045.54,290.65l14.79,2.04c-2.28,9.26-4.33,14.19-7.57,21.88l-11.66-2.65
					C1043.13,304.24,1044.21,298.35,1045.54,290.65z"/>
				<path class="st0" d="M1133.61,226.69v60.47h-22.48v-60.47h-23.08v-20.8h68.53v20.8H1133.61z"/>
				<path class="st0" d="M1184.77,236.19h33.66v19.36h-33.66v12.26h39.79v19.36h-61.79v-81.15h60.71v19.48h-38.71V236.19z"/>
				<path class="st0" d="M1231.77,247.37v-16.59h46.65v16.59H1231.77z"/>
				<path class="st0" d="M1326.04,226.69v60.47h-22.48v-60.47h-23.08v-20.8H1349v20.8H1326.04z M1308.97,290.65l14.79,2.04
					c-2.29,9.26-4.33,14.19-7.57,21.88l-11.66-2.65C1306.57,304.24,1307.65,298.35,1308.97,290.65z"/>
				<path class="st0" d="M1355.5,205.9h22.6v81.27h-22.6V205.9z"/>
				<path class="st0" d="M471.96,323.52h23.56l17.07,56.75h0.24l17.43-56.75h23.32l-27.53,81.15h-26.69L471.96,323.52z"/>
				<path class="st0" d="M552.82,364.15c0-24.41,17.91-42.2,42.44-42.2c24.53,0,42.44,17.67,42.44,41.96
					c0,24.53-17.91,42.32-42.56,42.32C570.74,406.23,552.82,388.56,552.82,364.15z M614.5,364.15c0-12.38-8.05-21.52-19.24-21.52
					c-11.18,0-19.36,9.02-19.36,21.4c0,12.5,8.3,21.52,19.36,21.52C606.44,385.55,614.5,376.42,614.5,364.15z"/>
				<path class="st0" d="M685.97,344.19v60.47h-22.48v-60.47h-23.08v-20.8h68.53v20.8H685.97z"/>
				<path class="st0" d="M714.64,372.93V323.4h22.48v49.65c0,7.33,5.05,12.14,12.62,12.14c7.69,0,12.62-4.81,12.62-12.14V323.4
					h22.36v49.53c0,19.96-13.95,33.18-34.98,33.18C728.47,406.11,714.64,392.89,714.64,372.93z"/>
				<path class="st0" d="M798.49,323.4h22.36v60.71h34.26v20.56h-56.62V323.4z"/>
			</g>
		</g>
	</g>
	<g>
		<rect x="1457.59" y="173.2" class="st0" width="355.48" height="237.17"/>
		<rect x="1462.26" y="177.87" class="st1" width="346.16" height="227.83"/>
		<polygon class="st2" points="1635.16,198.98 1638.54,209.5 1649.58,209.45 1640.6,215.9 1644.07,226.41 1635.16,219.87 
			1626.27,226.41 1629.72,215.9 1620.74,209.45 1631.78,209.5 		"/>
		<polygon class="st2" points="1635.16,357.18 1638.54,367.68 1649.58,367.63 1640.6,374.1 1644.07,384.6 1635.16,378.07 
			1626.27,384.6 1629.72,374.1 1620.74,367.63 1631.78,367.68 		"/>
		<polygon class="st2" points="1595.81,209.5 1599.18,220.02 1610.23,219.98 1601.29,226.42 1604.74,236.9 1595.81,230.38 
			1586.92,236.9 1590.36,226.42 1581.43,219.98 1592.47,220.02 		"/>
		<polygon class="st2" points="1566.86,238.55 1570.22,249.05 1581.27,248.98 1572.29,255.45 1575.74,265.94 1566.86,259.4 
			1557.96,265.94 1561.41,255.45 1552.41,248.98 1563.49,249.05 		"/>
		<polygon class="st2" points="1556.17,278 1559.51,288.5 1570.59,288.43 1561.62,294.91 1565.04,305.38 1556.17,298.85 
			1547.27,305.38 1550.74,294.91 1541.74,288.43 1552.79,288.5 		"/>
		<polygon class="st2" points="1566.73,317.44 1570.12,328 1581.13,327.91 1572.17,334.38 1575.66,344.86 1566.73,338.3 
			1557.82,344.86 1561.3,334.38 1552.31,327.93 1563.36,328 		"/>
		<polygon class="st2" points="1595.81,346.47 1599.18,356.98 1610.23,356.93 1601.29,363.37 1604.74,373.87 1595.81,367.36 
			1586.92,373.87 1590.36,363.37 1581.43,356.93 1592.47,356.98 		"/>
		<polygon class="st2" points="1674.55,209.5 1671.19,220.02 1660.13,219.98 1669.1,226.42 1665.64,236.9 1674.55,230.38 
			1683.44,236.9 1680,226.42 1688.96,219.98 1677.94,220.02 		"/>
		<polygon class="st2" points="1703.53,238.55 1700.16,249.05 1689.1,248.98 1698.06,255.45 1694.6,265.94 1703.53,259.4 
			1712.44,265.94 1708.97,255.45 1717.91,248.98 1706.88,249.05 		"/>
		<polygon class="st2" points="1714.22,278 1710.84,288.5 1699.78,288.43 1708.75,294.91 1705.29,305.38 1714.22,298.85 
			1723.12,305.38 1719.66,294.91 1728.61,288.43 1717.57,288.5 		"/>
		<polygon class="st2" points="1703.6,317.44 1700.27,328 1689.21,327.91 1698.2,334.38 1694.72,344.86 1703.6,338.3 
			1712.55,344.86 1709.09,334.38 1718.05,327.93 1707.01,328 		"/>
		<polygon class="st2" points="1674.55,346.47 1671.19,356.98 1660.13,356.93 1669.1,363.37 1665.64,373.87 1674.55,367.36 
			1683.44,373.87 1680,363.37 1688.96,356.93 1677.94,356.98 		"/>
	</g>
	<path class="st0" d="M437.78,331.04L332.23,121.5L122.68,227.05l78.98,156.8H147.9v22.64H436.3v-22.64H332.94L437.78,331.04z
		 M153.08,237.08l169.12-85.18l85.18,169.12l-124.75,62.84h-55.62L153.08,237.08z"/>
</g>
<g id="Clear_space">
</g>
</svg>
