<?xml version="1.0" encoding="utf-8"?>
<!-- Generator: Adobe Illustrator 27.3.1, SVG Export Plug-In . SVG Version: 6.00 Build 0)  -->
<svg version="1.1" xmlns="http://www.w3.org/2000/svg" xmlns:xlink="http://www.w3.org/1999/xlink" x="0px" y="0px"
	 viewBox="0 0 1843.6 535.98" style="enable-background:new 0 0 1843.6 535.98;" xml:space="preserve">
<style type="text/css">
	.st0{fill:#FFFFFF;}
	.st1{fill:#0C4DA2;}
	.st2{fill:#FFF200;}
	.st3{fill:#D94397;}
</style>
<g id="Elements">
	<g>
		<g>
			<path class="st0" d="M512.23,275.02H500.2l-3.97,13.95h-19.48l3.85-13.95h-8.66v-16.35h13.34l3.97-14.55h-11.42v-16.11h15.99
				l4.21-15.03h19.6l-4.21,15.03h11.9l4.21-15.03h19.48l-4.21,15.03h9.86v16.11h-14.43l-3.97,14.55h12.38v16.35h-17.07l-3.85,13.95
				h-19.36L512.23,275.02z M516.79,258.67l4.09-14.55h-12.02l-4.09,14.55H516.79z"/>
			<path class="st0" d="M564.22,209.38h22.36v42.44l31.14-42.44h19.36v81.15H614.6v-43.4l-31.86,43.4h-18.51V209.38z"/>
			<path class="st0" d="M643.7,278.51l14.31-12.74c3.61,4.33,8.18,6.61,16.59,6.61c6.97,0,11.66-1.56,11.66-7.33
				c0-5.41-4.45-7.45-11.66-7.45h-12.5v-16.11H674c8.18,0,11.42-3.01,11.42-7.33c0-5.05-4.33-6.61-10.1-6.61
				c-6.85,0-11.3,2.28-15.03,6.61l-14.19-11.66c7.45-10.82,19.72-14.67,31.86-14.67c17.67,0,31.62,7.94,31.62,22.96
				c0,9.74-5.89,15.87-14.07,18.39c9.86,2.28,15.03,9.86,15.03,19c0,15.87-15.15,23.92-34.26,23.92
				C663.06,292.1,651.16,288.25,643.7,278.51z"/>
			<path class="st0" d="M768.27,228.5h-25.73v62.04H720.3v-81.15h70.21v81.15h-22.24V228.5z"/>
			<path class="st0" d="M799.73,250.02c0-24.41,17.91-42.2,42.44-42.2c24.53,0,42.44,17.67,42.44,41.96
				c0,24.53-17.91,42.32-42.56,42.32C817.64,292.1,799.73,274.42,799.73,250.02z M861.4,250.02c0-12.38-8.05-21.52-19.24-21.52
				s-19.36,9.02-19.36,21.4c0,12.5,8.3,21.52,19.36,21.52C853.35,271.42,861.4,262.28,861.4,250.02z"/>
			<path class="st0" d="M889.9,272.38c6.97,0,9.14-6.49,10.46-30.3l1.8-32.7h61.19v81.15h-22.48V227.9h-16.95L922,255.55
				c-1.56,22.96-9.38,35.83-31.38,35.83c-0.84,0-2.28,0-3.97-0.12v-19C888.45,272.38,889.3,272.38,889.9,272.38z"/>
			<path class="st0" d="M969.98,278.51l14.31-12.74c3.61,4.33,8.17,6.61,16.59,6.61c6.97,0,11.66-1.56,11.66-7.33
				c0-5.41-4.45-7.45-11.66-7.45h-12.5v-16.11h11.9c8.17,0,11.42-3.01,11.42-7.33c0-5.05-4.33-6.61-10.1-6.61
				c-6.85,0-11.3,2.28-15.03,6.61l-14.19-11.66c7.45-10.82,19.72-14.67,31.86-14.67c17.67,0,31.62,7.94,31.62,22.96
				c0,9.74-5.89,15.87-14.07,18.39c9.86,2.28,15.03,9.86,15.03,19c0,15.87-15.15,23.92-34.26,23.92
				C989.33,292.1,977.43,288.25,969.98,278.51z"/>
			<path class="st0" d="M1046.43,209.38h37.99c17.31,0,28.25,7.57,28.25,20.56c0,8.42-4.57,15.15-12.5,18.27
				c9.14,2.77,15.27,9.5,15.27,19.84c0,14.07-11.06,22.48-30.18,22.48h-38.83V209.38z M1081.77,241.24c5.41,0,8.78-2.52,8.78-6.85
				c0-4.45-3.37-6.97-8.9-6.97h-13.59v13.83H1081.77z M1083.58,272.5c6.25,0,9.74-2.77,9.74-7.45c0-4.57-3.61-7.21-9.62-7.21h-15.63
				v14.67H1083.58z"/>
			<path class="st0" d="M1146.39,209.38h27.05l29.82,81.15h-23.44l-5.05-14.79h-30.18l-5.05,14.79h-23.08L1146.39,209.38z
				 M1159.62,232.1l-8.54,25.01h17.19l-8.54-25.01H1159.62z"/>
			<path class="st0" d="M1209.41,209.38h22.36v42.44l31.14-42.44h19.36v81.15h-22.48v-43.4l-31.86,43.4h-18.51V209.38z
				 M1225.28,184.13h14.19c0.84,5.89,1.92,7.45,6.37,7.45s5.53-1.56,6.49-7.45h13.95c-1.2,12.98-7.69,19.96-20.44,19.96
				C1232.98,204.09,1226.49,197.12,1225.28,184.13z"/>
			<path class="st0" d="M475.32,326.88h53.02v18.88h-30.66v62.28h-22.36V326.88z"/>
			<path class="st0" d="M526.58,389.88c6.97,0,9.14-6.49,10.46-30.3l1.8-32.7h61.19v81.15h-22.48V345.4H560.6l-1.92,27.65
				c-1.56,22.96-9.38,35.83-31.38,35.83c-0.84,0-2.28,0-3.97-0.12v-19C525.14,389.88,525.98,389.88,526.58,389.88z"/>
			<path class="st0" d="M636.06,326.88h27.05l29.82,81.15h-23.44l-5.05-14.79h-30.18l-5.05,14.79h-23.08L636.06,326.88z
				 M649.28,349.6l-8.54,25.01h17.19l-8.54-25.01H649.28z"/>
			<path class="st0" d="M691.55,367.52c0-25.13,17.19-42.2,41.72-42.2c13.71,0,25.61,6.13,32.94,16.35l-15.39,12.86
				c-4.21-5.53-9.98-8.42-17.07-8.42c-11.18,0-19.36,7.81-19.36,21.28c0,13.22,8.17,21.28,19.36,21.28c7.33,0,13.22-2.89,17.43-8.78
				l15.27,13.22c-7.09,9.98-18.75,16.47-33.18,16.47C709.22,409.6,691.55,392.64,691.55,367.52z"/>
			<path class="st0" d="M797.14,326.88h27.05l29.82,81.15h-23.44l-5.05-14.79h-30.18l-5.05,14.79h-23.08L797.14,326.88z
				 M810.37,349.6l-8.54,25.01h17.19l-8.54-25.01H810.37z"/>
			<path class="st0" d="M888.52,367.52c0-25.13,17.19-42.2,41.72-42.2c13.71,0,25.61,6.13,32.94,16.35l-15.39,12.86
				c-4.21-5.53-9.98-8.42-17.07-8.42c-11.18,0-19.36,7.81-19.36,21.28c0,13.22,8.18,21.28,19.36,21.28c7.33,0,13.22-2.89,17.43-8.78
				l15.27,13.22c-7.09,9.98-18.75,16.47-33.18,16.47C906.19,409.6,888.52,392.64,888.52,367.52z"/>
			<path class="st0" d="M970.04,326.88h22.36v42.44l31.14-42.44h19.36v81.15h-22.48v-43.4l-31.86,43.4h-18.51V326.88z"/>
		</g>
	</g>
	<g>
		<rect x="1365.45" y="175.57" class="st0" width="355.48" height="237.17"/>
		<rect x="1370.12" y="180.23" class="st1" width="346.16" height="227.83"/>
		<polygon class="st2" points="1543.01,201.34 1546.39,211.86 1557.44,211.81 1548.46,218.27 1551.93,228.78 1543.01,222.24 
			1534.12,228.78 1537.58,218.27 1528.6,211.81 1539.63,211.86 		"/>
		<polygon class="st2" points="1543.01,359.54 1546.39,370.04 1557.44,369.99 1548.46,376.47 1551.93,386.96 1543.01,380.44 
			1534.12,386.96 1537.58,376.47 1528.6,369.99 1539.63,370.04 		"/>
		<polygon class="st2" points="1503.67,211.86 1507.03,222.38 1518.08,222.35 1509.14,228.79 1512.6,239.27 1503.67,232.74 
			1494.78,239.27 1498.22,228.79 1489.29,222.35 1500.33,222.38 		"/>
		<polygon class="st2" points="1474.72,240.91 1478.07,251.42 1489.12,251.34 1480.14,257.82 1483.6,268.3 1474.72,261.76 
			1465.82,268.3 1469.27,257.82 1460.26,251.34 1471.35,251.42 		"/>
		<polygon class="st2" points="1464.03,280.36 1467.37,290.86 1478.44,290.79 1469.47,297.27 1472.89,307.75 1464.03,301.22 
			1455.12,307.75 1458.59,297.27 1449.6,290.79 1460.65,290.86 		"/>
		<polygon class="st2" points="1474.58,319.81 1477.97,330.36 1488.99,330.28 1480.03,336.74 1483.51,347.22 1474.58,340.66 
			1465.68,347.22 1469.16,336.74 1460.17,330.29 1471.22,330.36 		"/>
		<polygon class="st2" points="1503.67,348.83 1507.03,359.35 1518.08,359.3 1509.14,365.74 1512.6,376.24 1503.67,369.72 
			1494.78,376.24 1498.22,365.74 1489.29,359.3 1500.33,359.35 		"/>
		<polygon class="st2" points="1582.41,211.86 1579.04,222.38 1567.98,222.35 1576.96,228.79 1573.49,239.27 1582.41,232.74 
			1591.3,239.27 1587.86,228.79 1596.81,222.35 1585.8,222.38 		"/>
		<polygon class="st2" points="1611.38,240.91 1608.02,251.42 1596.96,251.34 1605.92,257.82 1602.45,268.3 1611.38,261.76 
			1620.3,268.3 1616.83,257.82 1625.77,251.34 1614.74,251.42 		"/>
		<polygon class="st2" points="1622.07,280.36 1618.69,290.86 1607.63,290.79 1616.61,297.27 1613.14,307.75 1622.07,301.22 
			1630.98,307.75 1627.52,297.27 1636.46,290.79 1625.43,290.86 		"/>
		<polygon class="st2" points="1611.46,319.81 1608.13,330.36 1597.07,330.28 1606.06,336.74 1602.58,347.22 1611.46,340.66 
			1620.41,347.22 1616.94,336.74 1625.91,330.29 1614.86,330.36 		"/>
		<polygon class="st2" points="1582.41,348.83 1579.04,359.35 1567.98,359.3 1576.96,365.74 1573.49,376.24 1582.41,369.72 
			1591.3,376.24 1587.86,365.74 1596.81,359.3 1585.8,359.35 		"/>
	</g>
	<path class="st0" d="M437.77,332.79L332.22,123.25L122.67,228.8l78.98,156.8h-53.76v22.64h288.41V385.6H332.93L437.77,332.79z
		 M153.07,238.83l169.12-85.18l85.18,169.12L282.62,385.6H227L153.07,238.83z"/>
</g>
<g id="Clear_space">
</g>
</svg>
