<?xml version="1.0" encoding="utf-8"?>
<!-- Generator: Adobe Illustrator 27.3.1, SVG Export Plug-In . SVG Version: 6.00 Build 0)  -->
<svg version="1.1" xmlns="http://www.w3.org/2000/svg" xmlns:xlink="http://www.w3.org/1999/xlink" x="0px" y="0px"
	 viewBox="0 0 1552.29 535.98" style="enable-background:new 0 0 1552.29 535.98;" xml:space="preserve">
<style type="text/css">
	.st0{fill:#FFFFFF;}
	.st1{fill:#0C4DA2;}
	.st2{fill:#FFF200;}
	.st3{fill:#D94397;}
</style>
<g id="Elements">
	<g>
		<path class="st0" d="M512.23,274.27H500.2l-3.97,13.95h-19.48l3.85-13.95h-8.66v-16.35h13.34l3.97-14.55h-11.42v-16.11h15.99
			l4.21-15.03h19.6l-4.21,15.03h11.9l4.21-15.03h19.48l-4.21,15.03h9.86v16.11h-14.43l-3.97,14.55h12.38v16.35h-17.07l-3.85,13.95
			h-19.36L512.23,274.27z M516.79,257.92l4.09-14.55h-12.02l-4.09,14.55H516.79z"/>
		<path class="st0" d="M564.59,258.04v-49.53h22.48v49.65c0,7.33,5.05,12.14,12.62,12.14c7.69,0,12.62-4.81,12.62-12.14v-49.65
			h22.36v49.53c0,19.96-13.95,33.18-34.98,33.18C578.42,291.22,564.59,278,564.59,258.04z M583.47,192.52l26.81-14.79l9.86,14.43
			l-29.33,12.26L583.47,192.52z"/>
		<path class="st0" d="M642.34,279.44l11.9-15.75c4.93,5.29,12.74,8.66,20.44,8.66c5.05,0,9.98-1.56,9.98-6.49
			c0-5.17-4.45-6.73-12.74-8.42c-17.31-3.49-27.29-10.34-27.29-24.77c0-16.59,15.03-25.61,32.82-25.61
			c12.38,0,22.48,3.49,29.82,10.7L695.6,232.8c-6.25-4.69-12.14-6.85-17.91-6.85c-5.29,0-9.26,1.56-9.26,5.53
			c0,3.97,3.13,5.89,12.5,7.93c17.91,3.61,27.65,11.78,27.65,26.45c0,16.71-14.79,25.49-34.38,25.49
			C660.98,291.34,649.32,286.17,642.34,279.44z"/>
		<path class="st0" d="M737.81,208.63h27.05l29.82,81.15h-23.44l-5.05-14.79h-30.18l-5.05,14.79h-23.08L737.81,208.63z
			 M734.81,192.52l26.81-14.79l9.86,14.43l-29.33,12.26L734.81,192.52z M751.04,231.35l-8.54,25.01h17.19l-8.54-25.01H751.04z"/>
		<path class="st0" d="M800.82,208.51h22.6v81.27h-22.6V208.51z"/>
		<path class="st0" d="M837.75,208.63h34.62c23.44,0,40.52,17.07,40.52,40.27c0,23.68-17.07,40.88-40.52,40.88h-34.62V208.63z
			 M889.93,249.03c0-11.3-7.81-19.72-18.51-19.72h-11.18v39.91h11.18C881.99,269.22,889.93,260.69,889.93,249.03z"/>
		<path class="st0" d="M475.32,326.13h34.62c23.44,0,40.52,17.07,40.52,40.27c0,23.68-17.07,40.88-40.52,40.88h-34.62V326.13z
			 M527.49,366.53c0-11.3-7.81-19.72-18.51-19.72H497.8v39.91h11.18C519.56,386.72,527.49,378.19,527.49,366.53z"/>
		<path class="st0" d="M556.82,366.77c0-24.41,17.91-42.2,42.44-42.2s42.44,17.67,42.44,41.96c0,24.53-17.91,42.32-42.56,42.32
			C574.73,408.84,556.82,391.17,556.82,366.77z M618.49,366.77c0-12.38-8.06-21.52-19.24-21.52s-19.36,9.02-19.36,21.4
			c0,12.5,8.3,21.52,19.36,21.52C610.44,388.17,618.49,379.03,618.49,366.77z"/>
		<path class="st0" d="M676.2,326.13h23.56l17.07,56.75h0.24l17.43-56.75h23.32l-27.53,81.15h-26.69L676.2,326.13z"/>
		<path class="st0" d="M757.06,366.77c0-24.41,17.91-42.2,42.44-42.2c24.53,0,42.44,17.67,42.44,41.96
			c0,24.53-17.91,42.32-42.56,42.32C774.97,408.84,757.06,391.17,757.06,366.77z M818.74,366.77c0-12.38-8.06-21.52-19.24-21.52
			s-19.36,9.02-19.36,21.4c0,12.5,8.3,21.52,19.36,21.52C810.68,388.17,818.74,379.03,818.74,366.77z M783.15,310.02l26.81-14.79
			l9.86,14.43l-29.33,12.26L783.15,310.02z"/>
		<path class="st0" d="M890.21,346.81v60.47h-22.48v-60.47h-23.08v-20.8h68.53v20.8H890.21z"/>
		<path class="st0" d="M934.1,326.13h27.05l29.82,81.15h-23.44l-5.05-14.79H932.3l-5.05,14.79h-23.08L934.1,326.13z M947.32,348.85
			l-8.54,25.01h17.19l-8.54-25.01H947.32z"/>
	</g>
	<g>
		<rect x="1074.13" y="175.82" class="st0" width="355.48" height="237.17"/>
		<rect x="1078.8" y="180.48" class="st1" width="346.16" height="227.83"/>
		<polygon class="st2" points="1251.7,201.59 1255.08,212.11 1266.12,212.06 1257.14,218.52 1260.61,229.02 1251.7,222.48 
			1242.81,229.02 1246.26,218.52 1237.28,212.06 1248.32,212.11 		"/>
		<polygon class="st2" points="1251.7,359.79 1255.08,370.29 1266.12,370.24 1257.14,376.72 1260.61,387.21 1251.7,380.69 
			1242.81,387.21 1246.26,376.72 1237.28,370.24 1248.32,370.29 		"/>
		<polygon class="st2" points="1212.35,212.11 1215.72,222.63 1226.77,222.6 1217.82,229.04 1221.28,239.52 1212.35,232.99 
			1203.46,239.52 1206.9,229.04 1197.97,222.6 1209.01,222.63 		"/>
		<polygon class="st2" points="1183.4,241.16 1186.76,251.67 1197.8,251.59 1188.83,258.07 1192.28,268.55 1183.4,262.01 
			1174.5,268.55 1177.95,258.07 1168.95,251.59 1180.03,251.67 		"/>
		<polygon class="st2" points="1172.71,280.61 1176.05,291.11 1187.13,291.04 1178.16,297.52 1181.57,307.99 1172.71,301.47 
			1163.81,307.99 1167.27,297.52 1158.28,291.04 1169.33,291.11 		"/>
		<polygon class="st2" points="1183.27,320.06 1186.66,330.61 1197.67,330.53 1188.71,336.99 1192.2,347.47 1183.27,340.91 
			1174.36,347.47 1177.84,336.99 1168.85,330.54 1179.9,330.61 		"/>
		<polygon class="st2" points="1212.35,349.08 1215.72,359.6 1226.77,359.55 1217.82,365.99 1221.28,376.48 1212.35,369.97 
			1203.46,376.48 1206.9,365.99 1197.97,359.55 1209.01,359.6 		"/>
		<polygon class="st2" points="1291.09,212.11 1287.72,222.63 1276.66,222.6 1285.64,229.04 1282.18,239.52 1291.09,232.99 
			1299.98,239.52 1296.54,229.04 1305.49,222.6 1294.48,222.63 		"/>
		<polygon class="st2" points="1320.07,241.16 1316.7,251.67 1305.64,251.59 1314.6,258.07 1311.14,268.55 1320.07,262.01 
			1328.98,268.55 1325.51,258.07 1334.45,251.59 1323.42,251.67 		"/>
		<polygon class="st2" points="1330.76,280.61 1327.38,291.11 1316.32,291.04 1325.29,297.52 1321.83,307.99 1330.76,301.47 
			1339.66,307.99 1336.2,297.52 1345.14,291.04 1334.11,291.11 		"/>
		<polygon class="st2" points="1320.14,320.06 1316.81,330.61 1305.75,330.53 1314.74,336.99 1311.26,347.47 1320.14,340.91 
			1329.09,347.47 1325.62,336.99 1334.59,330.54 1323.54,330.61 		"/>
		<polygon class="st2" points="1291.09,349.08 1287.72,359.6 1276.66,359.55 1285.64,365.99 1282.18,376.48 1291.09,369.97 
			1299.98,376.48 1296.54,365.99 1305.49,359.55 1294.48,359.6 		"/>
	</g>
	<path class="st0" d="M437.77,333.04L332.22,123.5L122.67,229.05l78.98,156.8h-53.76v22.64h288.41v-22.64H332.93L437.77,333.04z
		 M153.07,239.08l169.12-85.18l85.18,169.12l-124.75,62.84H227L153.07,239.08z"/>
</g>
<g id="Clear_space">
</g>
</svg>
