<?xml version="1.0" encoding="utf-8"?>
<!-- Generator: Adobe Illustrator 27.3.1, SVG Export Plug-In . SVG Version: 6.00 Build 0)  -->
<svg version="1.1" xmlns="http://www.w3.org/2000/svg" xmlns:xlink="http://www.w3.org/1999/xlink" x="0px" y="0px"
	 viewBox="0 0 1427.9 535.98" style="enable-background:new 0 0 1427.9 535.98;" xml:space="preserve">
<style type="text/css">
	.st0{fill:#FFFFFF;}
	.st1{fill:#0C4DA2;}
	.st2{fill:#FFF200;}
	.st3{fill:#D94397;}
</style>
<g id="Elements">
	<g>
		<path class="st0" d="M516.08,196.48h-12.02l-3.97,13.95h-19.48l3.85-13.95h-8.66v-16.35h13.34l3.97-14.55H481.7v-16.11h15.99
			l4.21-15.03h19.6l-4.21,15.03h11.9l4.21-15.03h19.48l-4.21,15.03h9.86v16.11h-14.43l-3.97,14.55h12.38v16.35h-17.07l-3.85,13.95
			h-19.36L516.08,196.48z M520.65,180.13l4.09-14.55h-12.02l-4.09,14.55H520.65z"/>
		<path class="st0" d="M568.45,180.25v-49.53h22.48v49.65c0,7.33,5.05,12.14,12.62,12.14c7.69,0,12.62-4.81,12.62-12.14v-49.65
			h22.36v49.53c0,19.96-13.95,33.18-34.99,33.18C582.28,213.43,568.45,200.21,568.45,180.25z"/>
		<path class="st0" d="M646.2,201.65l11.9-15.75c4.93,5.29,12.74,8.66,20.44,8.66c5.05,0,9.98-1.56,9.98-6.49
			c0-5.17-4.45-6.73-12.74-8.42c-17.31-3.49-27.29-10.34-27.29-24.77c0-16.59,15.03-25.61,32.82-25.61
			c12.38,0,22.48,3.49,29.82,10.7L699.46,155c-6.25-4.69-12.14-6.85-17.91-6.85c-5.29,0-9.26,1.56-9.26,5.53s3.13,5.89,12.5,7.94
			c17.91,3.61,27.65,11.78,27.65,26.45c0,16.71-14.79,25.49-34.38,25.49C664.83,213.55,653.17,208.38,646.2,201.65z"/>
		<path class="st0" d="M741.67,130.84h27.05l29.82,81.15h-23.44l-5.05-14.79h-30.18l-5.05,14.79h-23.08L741.67,130.84z
			 M754.89,153.56l-8.54,25.01h17.19l-8.54-25.01H754.89z"/>
		<path class="st0" d="M517.64,248.29v60.47h-22.48v-60.47h-23.08v-20.8h68.53v20.8H517.64z"/>
		<path class="st0" d="M546.32,277.03v-49.53h22.48v49.65c0,7.33,5.05,12.14,12.62,12.14c7.69,0,12.62-4.81,12.62-12.14v-49.65
			h22.36v49.53c0,19.96-13.95,33.18-34.99,33.18C560.14,310.21,546.32,296.98,546.32,277.03z"/>
		<path class="st0" d="M471.96,324.39h23.56l17.07,56.75h0.24l17.43-56.75h23.32l-27.53,81.15h-26.69L471.96,324.39z"/>
		<path class="st0" d="M552.82,365.03c0-24.41,17.91-42.2,42.44-42.2c24.53,0,42.44,17.67,42.44,41.96
			c0,24.53-17.91,42.32-42.56,42.32C570.74,407.1,552.82,389.43,552.82,365.03z M614.5,365.03c0-12.38-8.05-21.52-19.24-21.52
			c-11.18,0-19.36,9.02-19.36,21.4c0,12.5,8.29,21.52,19.36,21.52C606.44,386.43,614.5,377.29,614.5,365.03z"/>
		<path class="st0" d="M685.97,345.07v60.47h-22.48v-60.47H640.4v-20.8h68.53v20.8H685.97z"/>
		<path class="st0" d="M711.62,365.03c0-24.41,17.91-42.2,42.44-42.2c24.53,0,42.44,17.67,42.44,41.96
			c0,24.53-17.91,42.32-42.56,42.32C729.54,407.1,711.62,389.43,711.62,365.03z M773.3,365.03c0-12.38-8.05-21.52-19.24-21.52
			c-11.18,0-19.36,9.02-19.36,21.4c0,12.5,8.29,21.52,19.36,21.52C765.24,386.43,773.3,377.29,773.3,365.03z"/>
	</g>
	<g>
		<rect x="876.43" y="125.3" class="st0" width="428.8" height="286.08"/>
		<rect x="882.05" y="130.93" class="st1" width="417.55" height="274.81"/>
		<polygon class="st2" points="1090.61,156.39 1094.69,169.08 1108.01,169.02 1097.18,176.81 1101.36,189.48 1090.61,181.59 
			1079.88,189.48 1084.05,176.81 1073.22,169.02 1086.53,169.08 		"/>
		<polygon class="st2" points="1090.61,347.22 1094.69,359.88 1108.01,359.82 1097.18,367.64 1101.36,380.29 1090.61,372.42 
			1079.88,380.29 1084.05,367.64 1073.22,359.82 1086.53,359.88 		"/>
		<polygon class="st2" points="1043.15,169.08 1047.21,181.77 1060.54,181.73 1049.75,189.5 1053.92,202.14 1043.15,194.27 
			1032.42,202.14 1036.58,189.5 1025.81,181.73 1039.12,181.77 		"/>
		<polygon class="st2" points="1008.23,204.12 1012.28,216.8 1025.6,216.71 1014.77,224.52 1018.94,237.16 1008.23,229.28 
			997.49,237.16 1001.66,224.52 990.79,216.71 1004.17,216.8 		"/>
		<polygon class="st2" points="995.33,251.71 999.36,264.37 1012.72,264.29 1001.9,272.11 1006.03,284.74 995.33,276.87 
			984.59,284.74 988.78,272.11 977.93,264.29 991.26,264.37 		"/>
		<polygon class="st2" points="1008.07,299.29 1012.16,312.02 1025.44,311.92 1014.64,319.72 1018.84,332.36 1008.07,324.44 
			997.33,332.36 1001.52,319.72 990.68,311.94 1004.01,312.02 		"/>
		<polygon class="st2" points="1043.15,334.3 1047.21,346.99 1060.54,346.93 1049.75,354.69 1053.92,367.35 1043.15,359.5 
			1032.42,367.35 1036.58,354.69 1025.81,346.93 1039.12,346.99 		"/>
		<polygon class="st2" points="1138.13,169.08 1134.07,181.77 1120.73,181.73 1131.56,189.5 1127.38,202.14 1138.13,194.27 
			1148.85,202.14 1144.7,189.5 1155.5,181.73 1142.22,181.77 		"/>
		<polygon class="st2" points="1173.08,204.12 1169.02,216.8 1155.68,216.71 1166.49,224.52 1162.31,237.16 1173.08,229.28 
			1183.83,237.16 1179.65,224.52 1190.44,216.71 1177.13,216.8 		"/>
		<polygon class="st2" points="1185.97,251.71 1181.9,264.37 1168.56,264.29 1179.39,272.11 1175.2,284.74 1185.97,276.87 
			1196.71,284.74 1192.55,272.11 1203.33,264.29 1190.02,264.37 		"/>
		<polygon class="st2" points="1173.17,299.29 1169.15,312.02 1155.81,311.92 1166.66,319.72 1162.46,332.36 1173.17,324.44 
			1183.97,332.36 1179.78,319.72 1190.6,311.94 1177.28,312.02 		"/>
		<polygon class="st2" points="1138.13,334.3 1134.07,346.99 1120.73,346.93 1131.56,354.69 1127.38,367.35 1138.13,359.5 
			1148.85,367.35 1144.7,354.69 1155.5,346.93 1142.22,346.99 		"/>
	</g>
	<path class="st0" d="M437.78,330.15L332.22,120.6L122.68,226.15l78.98,156.8h-53.76v22.64H436.3v-22.64H332.94L437.78,330.15z
		 M153.08,236.18L322.19,151l85.18,169.12l-124.75,62.84H227L153.08,236.18z"/>
</g>
<g id="Clear_space">
</g>
</svg>
