<?xml version="1.0" encoding="utf-8"?>
<!-- Generator: Adobe Illustrator 27.3.1, SVG Export Plug-In . SVG Version: 6.00 Build 0)  -->
<svg version="1.1" xmlns="http://www.w3.org/2000/svg" xmlns:xlink="http://www.w3.org/1999/xlink" x="0px" y="0px"
	 viewBox="0 0 1989.76 535.98" style="enable-background:new 0 0 1989.76 535.98;" xml:space="preserve">
<style type="text/css">
	.st0{fill:#FFFFFF;}
	.st1{fill:#0C4DA2;}
	.st2{fill:#FFF200;}
	.st3{fill:#D94397;}
</style>
<g id="Elements">
	<g>
		<g>
			<g>
				<path class="st0" d="M513.19,271.51h-12.02l-3.97,13.95h-19.48l3.85-13.95h-8.66v-16.35h13.34l3.97-14.55h-11.42V224.5h15.99
					l4.21-15.03h19.6l-4.21,15.03h11.9l4.21-15.03h19.48l-4.21,15.03h9.86v16.11h-14.43l-3.97,14.55h12.38v16.35h-17.07l-3.85,13.95
					h-19.36L513.19,271.51z M517.76,255.16l4.09-14.55h-12.02l-4.09,14.55H517.76z"/>
				<path class="st0" d="M561.88,205.87h23.44l13.71,53.14l11.78-53.14h19.6l12.14,53.14l13.58-53.14h23.44l-23.56,81.15h-23.08
					l-12.26-43.76l-12.26,43.76h-23.08L561.88,205.87z"/>
				<path class="st0" d="M707.71,205.75l14.19,28.73l13.83-28.73h25.37l-28.13,51.34v29.94h-22.48v-30.3l-28.13-50.98H707.71z"/>
				<path class="st0" d="M789.44,250.35v36.67h-22.48v-81.15h22.48v35.11l24.04-35.11h25.85l-28.13,39.79l28.98,41.36h-25.85
					L789.44,250.35z"/>
				<path class="st0" d="M839.08,246.5c0-24.41,17.91-42.2,42.44-42.2c24.53,0,42.44,17.67,42.44,41.96
					c0,24.53-17.91,42.32-42.56,42.32C856.99,288.58,839.08,270.91,839.08,246.5z M900.76,246.5c0-12.38-8.05-21.52-19.24-21.52
					c-11.18,0-19.36,9.02-19.36,21.4c0,12.5,8.29,21.52,19.36,21.52C892.7,267.9,900.76,258.77,900.76,246.5z"/>
				<path class="st0" d="M934.38,205.87h34.75c18.88,0,31.26,10.46,31.26,26.33c0,11.9-6.85,20.68-18.27,24.41l19.96,30.42h-25.61
					l-18.27-28.49h-1.32v28.49h-22.48V205.87z M968.53,241.09c5.65,0,9.38-3.37,9.38-8.54c0-4.93-3.73-8.29-9.38-8.29h-11.66v16.83
					H968.53z"/>
				<path class="st0" d="M1007.07,272.71l35.83-47.85h-34.74v-19.12h64.32v14.31l-35.71,47.97h36.55v19h-66.24V272.71z"/>
				<path class="st0" d="M1102.11,205.75l14.19,28.73l13.83-28.73h25.37l-28.13,51.34v29.94h-22.48v-30.3l-28.13-50.98H1102.11z"/>
				<path class="st0" d="M1153.45,276.68l11.9-15.75c4.93,5.29,12.74,8.66,20.44,8.66c5.05,0,9.98-1.56,9.98-6.49
					c0-5.17-4.45-6.73-12.74-8.42c-17.31-3.49-27.29-10.34-27.29-24.77c0-16.59,15.03-25.61,32.82-25.61
					c12.38,0,22.48,3.49,29.82,10.7l-11.66,15.03c-6.25-4.69-12.14-6.85-17.91-6.85c-5.29,0-9.26,1.56-9.26,5.53
					s3.13,5.89,12.5,7.93c17.91,3.61,27.65,11.78,27.65,26.45c0,16.71-14.79,25.49-34.38,25.49
					C1172.09,288.58,1160.43,283.41,1153.45,276.68z"/>
				<path class="st0" d="M1267.38,226.55v60.47h-22.48v-60.47h-23.08v-20.8h68.53v20.8H1267.38z"/>
				<path class="st0" d="M1311.27,205.87h27.05l29.82,81.15h-23.44l-5.05-14.79h-30.18l-5.05,14.79h-23.08L1311.27,205.87z
					 M1324.5,228.59l-8.54,25.01h17.19l-8.54-25.01H1324.5z"/>
				<path class="st0" d="M1368.88,271.75l17.79-9.98c1.8,3.85,5.29,5.77,9.38,5.77c5.41,0,8.9-3.85,8.9-9.86v-51.94h22.48v51.34
					c0,19.12-11.18,31.5-29.58,31.5C1384.15,288.58,1374.05,283.05,1368.88,271.75z"/>
				<path class="st0" d="M471.96,394.18l11.9-15.75c4.93,5.29,12.74,8.66,20.44,8.66c5.05,0,9.98-1.56,9.98-6.49
					c0-5.17-4.45-6.73-12.74-8.42c-17.31-3.49-27.29-10.34-27.29-24.77c0-16.59,15.03-25.61,32.82-25.61
					c12.38,0,22.48,3.49,29.82,10.7l-11.66,15.03c-6.25-4.69-12.14-6.85-17.91-6.85c-5.29,0-9.26,1.56-9.26,5.53
					s3.13,5.89,12.5,7.93c17.91,3.61,27.65,11.78,27.65,26.45c0,16.71-14.79,25.49-34.38,25.49
					C490.59,406.08,478.93,400.91,471.96,394.18z"/>
				<path class="st0" d="M539.14,323.37h23.44l13.71,53.14l11.78-53.14h19.6l12.14,53.14l13.58-53.14h23.44l-23.56,81.15h-23.08
					l-12.26-43.76l-12.26,43.76h-23.08L539.14,323.37z"/>
				<path class="st0" d="M657.22,364c0-24.41,17.91-42.2,42.44-42.2c24.53,0,42.44,17.67,42.44,41.96
					c0,24.53-17.91,42.32-42.56,42.32C675.13,406.08,657.22,388.41,657.22,364z M718.9,364c0-12.38-8.05-21.52-19.24-21.52
					c-11.18,0-19.36,9.02-19.36,21.4c0,12.5,8.29,21.52,19.36,21.52C710.84,385.4,718.9,376.27,718.9,364z M683.31,307.26
					l26.81-14.79l9.86,14.43l-29.33,12.26L683.31,307.26z"/>
				<path class="st0" d="M743.59,389.25l17.79-9.98c1.8,3.85,5.29,5.77,9.38,5.77c5.41,0,8.9-3.85,8.9-9.86v-51.94h22.48v51.34
					c0,19.12-11.18,31.5-29.58,31.5C758.86,406.08,748.76,400.55,743.59,389.25z"/>
				<path class="st0" d="M842.9,364c0-26.57,19.96-42.2,41.72-42.2c13.46,0,25.37,6.13,32.82,16.23l-15.39,12.86
					c-3.85-5.05-10.82-8.54-17.19-8.54c-9.74,0-19.36,6.61-19.36,21.76c0,14.19,8.78,21.64,19.12,21.64
					c8.29,0,14.79-4.33,17.67-10.82h-19.48v-17.55h42.56v0.12v6.25c0,24.53-16.47,42.32-40.76,42.32
					C860.57,406.08,842.9,389.25,842.9,364z"/>
				<path class="st0" d="M938.08,376.15l-8.66,5.89v-13.47l8.66-5.65v-39.67h22.36v27.65l22-13.71v13.34l-22,14.31v19.12h34.26
					v20.56h-56.62V376.15z"/>
				<path class="st0" d="M997.44,364c0-24.41,17.91-42.2,42.44-42.2c24.53,0,42.44,17.67,42.44,41.96
					c0,24.53-17.91,42.32-42.56,42.32C1015.36,406.08,997.44,388.41,997.44,364z M1059.12,364c0-12.38-8.05-21.52-19.24-21.52
					c-11.18,0-19.36,9.02-19.36,21.4c0,12.5,8.29,21.52,19.36,21.52C1051.06,385.4,1059.12,376.27,1059.12,364z"/>
				<path class="st0" d="M1086.66,394.18l11.9-15.75c4.93,5.29,12.74,8.66,20.44,8.66c5.05,0,9.98-1.56,9.98-6.49
					c0-5.17-4.45-6.73-12.74-8.42c-17.31-3.49-27.29-10.34-27.29-24.77c0-16.59,15.03-25.61,32.82-25.61
					c12.38,0,22.48,3.49,29.82,10.7l-11.66,15.03c-6.25-4.69-12.14-6.85-17.91-6.85c-5.29,0-9.26,1.56-9.26,5.53
					s3.13,5.89,12.5,7.93c17.91,3.61,27.65,11.78,27.65,26.45c0,16.71-14.79,25.49-34.38,25.49
					C1105.3,406.08,1093.63,400.91,1086.66,394.18z"/>
			</g>
		</g>
	</g>
	<g>
		<rect x="1511.6" y="173.05" class="st0" width="355.48" height="237.17"/>
		<rect x="1516.27" y="177.72" class="st1" width="346.16" height="227.83"/>
		<polygon class="st2" points="1689.16,198.83 1692.54,209.35 1703.59,209.3 1694.61,215.75 1698.08,226.26 1689.16,219.72 
			1680.27,226.26 1683.73,215.75 1674.75,209.3 1685.78,209.35 		"/>
		<polygon class="st2" points="1689.16,357.03 1692.54,367.53 1703.59,367.48 1694.61,373.96 1698.08,384.45 1689.16,377.92 
			1680.27,384.45 1683.73,373.96 1674.75,367.48 1685.78,367.53 		"/>
		<polygon class="st2" points="1649.82,209.35 1653.18,219.87 1664.23,219.83 1655.29,226.27 1658.75,236.75 1649.82,230.23 
			1640.93,236.75 1644.37,226.27 1635.44,219.83 1646.48,219.87 		"/>
		<polygon class="st2" points="1620.87,238.4 1624.22,248.9 1635.27,248.83 1626.29,255.31 1629.75,265.79 1620.87,259.25 
			1611.96,265.79 1615.42,255.31 1606.41,248.83 1617.5,248.9 		"/>
		<polygon class="st2" points="1610.18,277.85 1613.52,288.35 1624.59,288.28 1615.62,294.76 1619.04,305.23 1610.18,298.7 
			1601.27,305.23 1604.74,294.76 1595.75,288.28 1606.8,288.35 		"/>
		<polygon class="st2" points="1620.73,317.29 1624.12,327.85 1635.14,327.76 1626.18,334.23 1629.66,344.71 1620.73,338.15 
			1611.83,344.71 1615.31,334.23 1606.32,327.78 1617.37,327.85 		"/>
		<polygon class="st2" points="1649.82,346.32 1653.18,356.84 1664.23,356.79 1655.29,363.23 1658.75,373.72 1649.82,367.21 
			1640.93,373.72 1644.37,363.23 1635.44,356.79 1646.48,356.84 		"/>
		<polygon class="st2" points="1728.56,209.35 1725.19,219.87 1714.13,219.83 1723.11,226.27 1719.64,236.75 1728.56,230.23 
			1737.45,236.75 1734.01,226.27 1742.96,219.83 1731.95,219.87 		"/>
		<polygon class="st2" points="1757.53,238.4 1754.16,248.9 1743.1,248.83 1752.07,255.31 1748.6,265.79 1757.53,259.25 
			1766.45,265.79 1762.98,255.31 1771.92,248.83 1760.89,248.9 		"/>
		<polygon class="st2" points="1768.22,277.85 1764.84,288.35 1753.78,288.28 1762.76,294.76 1759.29,305.23 1768.22,298.7 
			1777.12,305.23 1773.67,294.76 1782.61,288.28 1771.58,288.35 		"/>
		<polygon class="st2" points="1757.61,317.29 1754.28,327.85 1743.22,327.76 1752.21,334.23 1748.72,344.71 1757.61,338.15 
			1766.56,344.71 1763.09,334.23 1772.06,327.78 1761.01,327.85 		"/>
		<polygon class="st2" points="1728.56,346.32 1725.19,356.84 1714.13,356.79 1723.11,363.23 1719.64,373.72 1728.56,367.21 
			1737.45,373.72 1734.01,363.23 1742.96,356.79 1731.95,356.84 		"/>
	</g>
	<path class="st0" d="M437.77,331.04L332.22,121.5L122.67,227.05l78.98,156.8h-53.76v22.64H436.3v-22.64H332.94L437.77,331.04z
		 M153.07,237.08l169.12-85.18l85.18,169.12l-124.75,62.84H227L153.07,237.08z"/>
</g>
<g id="Clear_space">
</g>
</svg>
