<?xml version="1.0" encoding="utf-8"?>
<!-- Generator: Adobe Illustrator 27.3.1, SVG Export Plug-In . SVG Version: 6.00 Build 0)  -->
<svg version="1.1" xmlns="http://www.w3.org/2000/svg" xmlns:xlink="http://www.w3.org/1999/xlink" x="0px" y="0px"
	 viewBox="0 0 1936.89 535.98" style="enable-background:new 0 0 1936.89 535.98;" xml:space="preserve">
<style type="text/css">
	.st0{fill:#FFFFFF;}
	.st1{fill:#0C4DA2;}
	.st2{fill:#FFF200;}
	.st3{fill:#D94397;}
</style>
<g id="Elements">
	<g>
		<path class="st0" d="M515.96,275.52h-12.02l-3.97,13.95h-19.48l3.85-13.95h-8.66v-16.35h13.34l3.97-14.55h-11.42v-16.11h15.99
			l4.21-15.03h19.6l-4.21,15.03h11.9l4.21-15.03h19.48l-4.21,15.03h9.86v16.11h-14.43L540,259.17h12.38v16.35h-17.07l-3.85,13.95
			h-19.36L515.96,275.52z M520.53,259.17l4.09-14.55h-12.02l-4.09,14.55H520.53z"/>
		<path class="st0" d="M586.9,209.88h27.05l29.82,81.15h-23.44l-5.05-14.79H585.1l-5.05,14.79h-23.08L586.9,209.88z M600.13,232.6
			l-8.54,25.01h17.19l-8.54-25.01H600.13z"/>
		<path class="st0" d="M647.98,271.19h63.24v19.84h-63.24V271.19z M648.58,209.76h62.16v19.84h-62.16V209.76z M655.67,240.78h47.85
			v18.75h-47.85V240.78z"/>
		<path class="st0" d="M721.47,209.76h22.6v81.27h-22.6V209.76z"/>
		<path class="st0" d="M753.1,250.51c0-24.41,17.91-42.2,42.44-42.2c24.53,0,42.44,17.67,42.44,41.96
			c0,24.53-17.91,42.32-42.56,42.32C771.01,292.59,753.1,274.92,753.1,250.51z M814.78,250.51c0-12.38-8.05-21.52-19.24-21.52
			c-11.18,0-19.36,9.02-19.36,21.4c0,12.5,8.29,21.52,19.36,21.52C806.72,271.91,814.78,262.78,814.78,250.51z"/>
		<path class="st0" d="M895.18,228.99h-25.73v62.04h-22.24v-81.15h70.21v81.15h-22.24V228.99z"/>
		<path class="st0" d="M926.64,250.51c0-24.41,17.91-42.2,42.44-42.2c24.53,0,42.44,17.67,42.44,41.96
			c0,24.53-17.91,42.32-42.56,42.32C944.56,292.59,926.64,274.92,926.64,250.51z M988.32,250.51c0-12.38-8.05-21.52-19.24-21.52
			c-11.18,0-19.36,9.02-19.36,21.4c0,12.5,8.29,21.52,19.36,21.52C980.26,271.91,988.32,262.78,988.32,250.51z"/>
		<path class="st0" d="M1020.75,209.76h22.6v81.27h-22.6V209.76z"/>
		<path class="st0" d="M1056.32,291.03v-81.15h22.36v30.06h26.69v-30.06h22.48v81.15h-22.48v-31.02h-26.69v31.02H1056.32z"/>
		<path class="st0" d="M1137.34,275.16l21.88-25.73l-20.92-24.04v-15.51h57.23v19.84h-29.09l13.22,15.63v9.62l-13.34,16.23h29.82
			v19.84h-58.79V275.16z"/>
		<path class="st0" d="M1228.2,240.06h33.66v19.36h-33.66v12.26h39.79v19.36h-61.79v-81.15h60.71v19.48h-38.71V240.06z"/>
		<path class="st0" d="M517.52,348.06v60.47h-22.48v-60.47h-23.08v-20.8h68.53v20.8H517.52z"/>
		<path class="st0" d="M546.68,408.53v-81.15h22.36v30.06h26.69v-30.06h22.48v81.15h-22.48v-31.02h-26.69v31.02H546.68z"/>
		<path class="st0" d="M631.41,327.26h19l30.06,42.56v-42.56h22.6v81.27h-18.88l-30.54-43.4v43.4h-22.24V327.26z"/>
		<path class="st0" d="M746.58,357.31v-30.06h22.12v31.14c0,8.66,4.69,12.14,10.82,12.14h2.04v-43.28h22.12v43.28h1.8
			c6.13,0,10.82-3.37,10.82-12.02v-31.26h22.12v30.06c0,19.84-11.18,32.46-32.46,32.46h-2.28v18.75h-22.12v-18.75h-2.52
			C757.52,389.77,746.58,376.79,746.58,357.31z"/>
		<path class="st0" d="M849.03,408.53v-81.15h22.36v30.06h26.69v-30.06h22.48v81.15h-22.48v-31.02h-26.69v31.02H849.03z"/>
		<path class="st0" d="M967.23,403.24c-23.56-0.84-38.35-14.91-38.35-35.23s14.79-34.5,38.35-35.23v-7.94h22v7.94
			c23.56,0.72,38.47,14.79,38.47,34.98c0,20.2-14.79,34.5-38.47,35.47v7.69h-22V403.24z M967.23,385.81v-35.83
			c-9.74,0.48-15.99,7.69-15.99,17.91C951.24,378.11,957.49,385.33,967.23,385.81z M1005.22,368.01c0-10.1-6.13-17.55-15.99-18.03
			v35.83C999.09,385.33,1005.22,378.11,1005.22,368.01z"/>
		<path class="st0" d="M1033.98,368.01c0-24.41,17.91-42.2,42.44-42.2c24.53,0,42.44,17.67,42.44,41.96
			c0,24.53-17.91,42.32-42.56,42.32C1051.89,410.09,1033.98,392.42,1033.98,368.01z M1095.65,368.01c0-12.38-8.05-21.52-19.24-21.52
			c-11.18,0-19.36,9.02-19.36,21.4c0,12.5,8.29,21.52,19.36,21.52C1087.6,389.41,1095.65,380.28,1095.65,368.01z"/>
		<path class="st0" d="M1157.09,392.66l21.88-25.73l-20.92-24.04v-15.51h57.23v19.84h-29.09l13.22,15.63v9.62l-13.34,16.23h29.82
			v19.84h-58.79V392.66z"/>
		<path class="st0" d="M1219.97,368.01c0-24.41,17.91-42.2,42.44-42.2c24.53,0,42.44,17.67,42.44,41.96
			c0,24.53-17.91,42.32-42.56,42.32C1237.88,410.09,1219.97,392.42,1219.97,368.01z M1281.64,368.01c0-12.38-8.05-21.52-19.24-21.52
			c-11.18,0-19.36,9.02-19.36,21.4c0,12.5,8.29,21.52,19.36,21.52C1273.59,389.41,1281.64,380.28,1281.64,368.01z"/>
		<path class="st0" d="M1326.52,327.26l14.19,28.73l13.83-28.73h25.37l-28.13,51.34v29.94h-22.48v-30.3l-28.13-50.98H1326.52z"/>
	</g>
	<g>
		<rect x="1458.73" y="176.06" class="st0" width="355.48" height="237.17"/>
		<rect x="1463.4" y="180.73" class="st1" width="346.16" height="227.83"/>
		<polygon class="st2" points="1636.3,201.84 1639.67,212.36 1650.72,212.31 1641.74,218.76 1645.21,229.27 1636.3,222.73 
			1627.4,229.27 1630.86,218.76 1621.88,212.31 1632.92,212.36 		"/>
		<polygon class="st2" points="1636.3,360.04 1639.67,370.54 1650.72,370.49 1641.74,376.97 1645.21,387.46 1636.3,380.93 
			1627.4,387.46 1630.86,376.97 1621.88,370.49 1632.92,370.54 		"/>
		<polygon class="st2" points="1596.95,212.36 1600.32,222.88 1611.36,222.84 1602.42,229.28 1605.88,239.77 1596.95,233.24 
			1588.06,239.77 1591.5,229.28 1582.57,222.84 1593.61,222.88 		"/>
		<polygon class="st2" points="1568,241.41 1571.36,251.91 1582.4,251.84 1573.42,258.32 1576.88,268.8 1568,262.26 1559.1,268.8 
			1562.55,258.32 1553.55,251.84 1564.63,251.91 		"/>
		<polygon class="st2" points="1557.31,280.86 1560.65,291.36 1571.72,291.29 1562.76,297.77 1566.17,308.24 1557.31,301.72 
			1548.41,308.24 1551.87,297.77 1542.88,291.29 1553.93,291.36 		"/>
		<polygon class="st2" points="1567.87,320.3 1571.26,330.86 1582.27,330.77 1573.31,337.24 1576.8,347.72 1567.87,341.16 
			1558.96,347.72 1562.44,337.24 1553.45,330.79 1564.5,330.86 		"/>
		<polygon class="st2" points="1596.95,349.33 1600.32,359.85 1611.36,359.8 1602.42,366.24 1605.88,376.73 1596.95,370.22 
			1588.06,376.73 1591.5,366.24 1582.57,359.8 1593.61,359.85 		"/>
		<polygon class="st2" points="1675.69,212.36 1672.32,222.88 1661.26,222.84 1670.24,229.28 1666.78,239.77 1675.69,233.24 
			1684.58,239.77 1681.14,229.28 1690.09,222.84 1679.08,222.88 		"/>
		<polygon class="st2" points="1704.66,241.41 1701.3,251.91 1690.24,251.84 1699.2,258.32 1695.73,268.8 1704.66,262.26 
			1713.58,268.8 1710.11,258.32 1719.05,251.84 1708.02,251.91 		"/>
		<polygon class="st2" points="1715.36,280.86 1711.98,291.36 1700.92,291.29 1709.89,297.77 1706.43,308.24 1715.36,301.72 
			1724.26,308.24 1720.8,297.77 1729.74,291.29 1718.71,291.36 		"/>
		<polygon class="st2" points="1704.74,320.3 1701.41,330.86 1690.35,330.77 1699.34,337.24 1695.86,347.72 1704.74,341.16 
			1713.69,347.72 1710.22,337.24 1719.19,330.79 1708.14,330.86 		"/>
		<polygon class="st2" points="1675.69,349.33 1672.32,359.85 1661.26,359.8 1670.24,366.24 1666.78,376.73 1675.69,370.22 
			1684.58,376.73 1681.14,366.24 1690.09,359.8 1679.08,359.85 		"/>
	</g>
	<path class="st0" d="M437.77,333.04L332.22,123.5L122.67,229.05l78.98,156.8h-53.76v22.64H436.3v-22.64H332.94L437.77,333.04z
		 M153.07,239.08l169.12-85.18l85.18,169.12l-124.75,62.84H227L153.07,239.08z"/>
</g>
<g id="Clear_space">
</g>
</svg>
