<?xml version="1.0" encoding="utf-8"?>
<!-- Generator: Adobe Illustrator 27.3.1, SVG Export Plug-In . SVG Version: 6.00 Build 0)  -->
<svg version="1.1" xmlns="http://www.w3.org/2000/svg" xmlns:xlink="http://www.w3.org/1999/xlink" x="0px" y="0px"
	 viewBox="0 0 1537.72 535.98" style="enable-background:new 0 0 1537.72 535.98;" xml:space="preserve">
<style type="text/css">
	.st0{fill:#FFFFFF;}
	.st1{fill:#0C4DA2;}
	.st2{fill:#FFF200;}
	.st3{fill:#D94397;}
</style>
<g id="Elements">
	<g>
		<g>
			<g>
				<path class="st0" d="M516.2,273.75h-12.02l-3.97,13.95h-19.48l3.85-13.95h-8.66V257.4h13.34l3.97-14.55h-11.42v-16.11h15.99
					l4.21-15.03h19.6l-4.21,15.03h11.9l4.21-15.03h19.48l-4.21,15.03h9.86v16.11h-14.43l-3.97,14.55h12.38v16.35h-17.07l-3.85,13.95
					h-19.36L516.2,273.75z M520.76,257.4l4.09-14.55h-12.02l-4.09,14.55H520.76z"/>
				<path class="st0" d="M592.04,252.59v36.67h-22.48V208.1h22.48v35.11l24.04-35.11h25.85l-28.13,39.79l28.97,41.36h-25.85
					L592.04,252.59z"/>
				<path class="st0" d="M675.77,208.1h27.05l29.82,81.15h-23.44l-5.05-14.79h-30.18l-5.05,14.79h-23.08L675.77,208.1z
					 M665.07,193.2c0-6.01,4.45-10.22,10.22-10.22c6.01,0,10.22,4.21,10.22,10.22s-4.21,10.22-10.22,10.22
					C669.52,203.41,665.07,199.21,665.07,193.2z M688.99,230.83l-8.54,25.01h17.19l-8.54-25.01H688.99z M692.6,193.2
					c0-6.01,4.45-10.22,10.22-10.22c6.01,0,10.22,4.21,10.22,10.22s-4.21,10.22-10.22,10.22C697.05,203.41,692.6,199.21,692.6,193.2
					z"/>
				<path class="st0" d="M747.31,207.98l14.19,28.73l13.83-28.73h25.37l-28.13,51.34v29.94h-22.48v-30.3l-28.13-50.98H747.31z"/>
				<path class="st0" d="M848.94,228.78v60.47h-22.48v-60.47h-23.08v-20.8h68.53v20.8H848.94z"/>
				<path class="st0" d="M892.83,208.1h27.05l29.82,81.15h-23.44l-5.05-14.79h-30.18l-5.05,14.79h-23.08L892.83,208.1z
					 M882.13,193.2c0-6.01,4.45-10.22,10.22-10.22c6.01,0,10.22,4.21,10.22,10.22s-4.21,10.22-10.22,10.22
					C886.58,203.41,882.13,199.21,882.13,193.2z M906.05,230.83l-8.54,25.01h17.19l-8.54-25.01H906.05z M909.66,193.2
					c0-6.01,4.45-10.22,10.22-10.22c6.01,0,10.22,4.21,10.22,10.22s-4.21,10.22-10.22,10.22
					C914.11,203.41,909.66,199.21,909.66,193.2z"/>
				<path class="st0" d="M501.89,325.6h27.05l29.82,81.15h-23.44l-5.05-14.79h-30.18l-5.05,14.79h-23.08L501.89,325.6z
					 M491.19,310.7c0-6.01,4.45-10.22,10.22-10.22c6.01,0,10.22,4.21,10.22,10.22s-4.21,10.22-10.22,10.22
					C495.64,320.92,491.19,316.71,491.19,310.7z M515.11,348.33l-8.54,25.01h17.19l-8.54-25.01H515.11z M518.72,310.7
					c0-6.01,4.45-10.22,10.22-10.22c6.01,0,10.22,4.21,10.22,10.22s-4.21,10.22-10.22,10.22
					C523.17,320.92,518.72,316.71,518.72,310.7z"/>
				<path class="st0" d="M591.54,325.6h27.05l29.82,81.15h-23.44l-5.05-14.79h-30.18l-5.05,14.79h-23.08L591.54,325.6z
					 M580.84,310.7c0-6.01,4.45-10.22,10.22-10.22c6.01,0,10.22,4.21,10.22,10.22s-4.21,10.22-10.22,10.22
					C585.29,320.92,580.84,316.71,580.84,310.7z M604.77,348.33l-8.54,25.01h17.19l-8.54-25.01H604.77z M608.37,310.7
					c0-6.01,4.45-10.22,10.22-10.22c6.01,0,10.22,4.21,10.22,10.22s-4.21,10.22-10.22,10.22
					C612.82,320.92,608.37,316.71,608.37,310.7z"/>
				<path class="st0" d="M654.56,325.48H675l30.42,43.28v-43.28h22.48v81.27h-19.96l-31.14-44.36v44.36h-22.24V325.48z"/>
				<path class="st0" d="M779.66,346.28v60.47h-22.48v-60.47h-23.08v-20.8h68.53v20.8H779.66z"/>
				<path class="st0" d="M823.55,325.6h27.05l29.82,81.15h-23.44l-5.05-14.79h-30.18l-5.05,14.79h-23.08L823.55,325.6z
					 M812.85,310.7c0-6.01,4.45-10.22,10.22-10.22c6.01,0,10.22,4.21,10.22,10.22s-4.21,10.22-10.22,10.22
					C817.3,320.92,812.85,316.71,812.85,310.7z M836.77,348.33l-8.54,25.01h17.19l-8.54-25.01H836.77z M840.38,310.7
					c0-6.01,4.45-10.22,10.22-10.22c6.01,0,10.22,4.21,10.22,10.22s-4.21,10.22-10.22,10.22
					C844.83,320.92,840.38,316.71,840.38,310.7z"/>
				<path class="st0" d="M882.9,396.42l11.9-15.75c4.93,5.29,12.74,8.66,20.44,8.66c5.05,0,9.98-1.56,9.98-6.49
					c0-5.17-4.45-6.73-12.74-8.42c-17.31-3.49-27.29-10.34-27.29-24.77c0-16.59,15.03-25.61,32.82-25.61
					c12.38,0,22.48,3.49,29.82,10.7l-11.66,15.03c-6.25-4.69-12.14-6.85-17.91-6.85c-5.29,0-9.26,1.56-9.26,5.53
					s3.13,5.89,12.5,7.93c17.91,3.61,27.65,11.78,27.65,26.45c0,16.71-14.79,25.49-34.38,25.49
					C901.54,408.32,889.88,403.15,882.9,396.42z"/>
				<path class="st0" d="M957.91,325.48h22.6v81.27h-22.6V325.48z"/>
			</g>
		</g>
	</g>
	<g>
		<rect x="1059.56" y="174.7" class="st0" width="355.48" height="237.17"/>
		<rect x="1064.23" y="179.37" class="st1" width="346.16" height="227.83"/>
		<polygon class="st2" points="1237.12,200.48 1240.5,210.99 1251.55,210.95 1242.57,217.4 1246.04,227.91 1237.12,221.37 
			1228.23,227.91 1231.69,217.4 1222.71,210.95 1233.75,210.99 		"/>
		<polygon class="st2" points="1237.12,358.68 1240.5,369.17 1251.55,369.12 1242.57,375.6 1246.04,386.09 1237.12,379.57 
			1228.23,386.09 1231.69,375.6 1222.71,369.12 1233.75,369.17 		"/>
		<polygon class="st2" points="1197.78,211 1201.15,221.51 1212.19,221.48 1203.25,227.92 1206.71,238.4 1197.78,231.87 
			1188.89,238.4 1192.33,227.92 1183.4,221.48 1194.44,221.51 		"/>
		<polygon class="st2" points="1168.83,240.04 1172.18,250.55 1183.23,250.48 1174.25,256.95 1177.71,267.44 1168.83,260.9 
			1159.93,267.44 1163.38,256.95 1154.38,250.48 1165.46,250.55 		"/>
		<polygon class="st2" points="1158.14,279.5 1161.48,289.99 1172.55,289.93 1163.59,296.41 1167,306.88 1158.14,300.35 
			1149.24,306.88 1152.7,296.41 1143.71,289.93 1154.76,289.99 		"/>
		<polygon class="st2" points="1168.69,318.94 1172.08,329.5 1183.1,329.41 1174.14,335.88 1177.62,346.36 1168.69,339.79 
			1159.79,346.36 1163.27,335.88 1154.28,329.42 1165.33,329.5 		"/>
		<polygon class="st2" points="1197.78,347.96 1201.15,358.48 1212.19,358.43 1203.25,364.87 1206.71,375.37 1197.78,368.86 
			1188.89,375.37 1192.33,364.87 1183.4,358.43 1194.44,358.48 		"/>
		<polygon class="st2" points="1276.52,211 1273.15,221.51 1262.09,221.48 1271.07,227.92 1267.61,238.4 1276.52,231.87 
			1285.41,238.4 1281.97,227.92 1290.92,221.48 1279.91,221.51 		"/>
		<polygon class="st2" points="1305.49,240.04 1302.13,250.55 1291.07,250.48 1300.03,256.95 1296.56,267.44 1305.49,260.9 
			1314.41,267.44 1310.94,256.95 1319.88,250.48 1308.85,250.55 		"/>
		<polygon class="st2" points="1316.18,279.5 1312.81,289.99 1301.75,289.93 1310.72,296.41 1307.25,306.88 1316.18,300.35 
			1325.09,306.88 1321.63,296.41 1330.57,289.93 1319.54,289.99 		"/>
		<polygon class="st2" points="1305.57,318.94 1302.24,329.5 1291.18,329.41 1300.17,335.88 1296.69,346.36 1305.57,339.79 
			1314.52,346.36 1311.05,335.88 1320.02,329.42 1308.97,329.5 		"/>
		<polygon class="st2" points="1276.52,347.96 1273.15,358.48 1262.09,358.43 1271.07,364.87 1267.61,375.37 1276.52,368.86 
			1285.41,375.37 1281.97,364.87 1290.92,358.43 1279.91,358.48 		"/>
	</g>
	<path class="st0" d="M437.77,333.04L332.22,123.5L122.67,229.05l78.98,156.8h-53.76v22.64h288.41v-22.64H332.94L437.77,333.04z
		 M153.07,239.08l169.12-85.18l85.18,169.12l-124.75,62.84H227L153.07,239.08z"/>
</g>
<g id="Clear_space">
</g>
</svg>
