<?xml version="1.0" encoding="utf-8"?>
<!-- Generator: Adobe Illustrator 27.3.1, SVG Export Plug-In . SVG Version: 6.00 Build 0)  -->
<svg version="1.1" xmlns="http://www.w3.org/2000/svg" xmlns:xlink="http://www.w3.org/1999/xlink" x="0px" y="0px"
	 viewBox="0 0 1494.52 535.98" style="enable-background:new 0 0 1494.52 535.98;" xml:space="preserve">
<style type="text/css">
	.st0{fill:#FFFFFF;}
	.st1{fill:#0C4DA2;}
	.st2{fill:#FFF200;}
	.st3{fill:#D94397;}
</style>
<g id="Elements">
	<g>
		<path class="st0" d="M508.63,191.83h-10.95l-3.61,12.7h-17.73l3.5-12.7h-7.88v-14.89h12.15l3.61-13.25h-10.4v-14.67h14.56
			l3.83-13.68h17.84l-3.83,13.68h10.84l3.83-13.68h17.73l-3.83,13.68h8.98v14.67h-13.14l-3.61,13.25h11.27v14.89h-15.54l-3.5,12.7
			h-17.62L508.63,191.83z M512.79,176.95l3.72-13.25h-10.95l-3.72,13.25H512.79z"/>
		<path class="st0" d="M573.78,132.06h24.63l27.15,73.89h-21.35l-4.6-13.46h-27.48l-4.6,13.46h-21.02L573.78,132.06z M585.82,152.75
			l-7.77,22.77h15.65l-7.77-22.77H585.82z"/>
		<path class="st0" d="M631.15,131.95h18.61l27.7,39.41v-39.41h20.47v74h-18.17l-28.35-40.39v40.39h-20.25V131.95z"/>
		<path class="st0" d="M711.19,131.95h18.61l27.7,39.41v-39.41h20.47v74h-18.17l-28.35-40.39v40.39h-20.25V131.95z"/>
		<path class="st0" d="M810.75,132.06h24.63l27.15,73.89h-21.35l-4.6-13.46h-27.48l-4.6,13.46H783.5L810.75,132.06z M822.8,152.75
			l-7.77,22.77h15.65l-7.77-22.77H822.8z"/>
		<path class="st0" d="M471.96,265.27c0-22.22,16.31-38.42,38.64-38.42c22.33,0,38.64,16.09,38.64,38.2
			c0,22.33-16.31,38.53-38.75,38.53C488.27,303.58,471.96,287.49,471.96,265.27z M528.11,265.27c0-11.27-7.33-19.59-17.51-19.59
			c-10.18,0-17.62,8.21-17.62,19.48c0,11.38,7.55,19.59,17.62,19.59C520.78,284.75,528.11,276.43,528.11,265.27z"/>
		<path class="st0" d="M558.72,228.16h20.03l18.94,34.59l19.05-34.59h19.92v74h-20.58v-39.3l-15.22,28.24h-6.24l-15.43-28.24v39.3
			h-20.47V228.16z"/>
		<path class="st0" d="M669.52,228.27h24.63l27.15,73.89h-21.35l-4.6-13.46h-27.48l-4.6,13.46h-21.02L669.52,228.27z M681.56,248.96
			l-7.77,22.77h15.65l-7.77-22.77H681.56z"/>
		<path class="st0" d="M475.02,406.86v-73.89h20.36v27.37h24.3v-27.37h20.47v73.89h-20.47v-28.24h-24.3v28.24H475.02z"/>
		<path class="st0" d="M572.94,332.97h24.63l27.15,73.89h-21.35l-4.6-13.46H571.3l-4.6,13.46h-21.02L572.94,332.97z M563.2,319.4
			c0-5.47,4.05-9.3,9.3-9.3c5.47,0,9.3,3.83,9.3,9.3c0,5.47-3.83,9.3-9.3,9.3C567.25,328.7,563.2,324.87,563.2,319.4z
			 M584.99,353.66l-7.77,22.77h15.65l-7.77-22.77H584.99z M588.27,319.4c0-5.47,4.05-9.3,9.3-9.3c5.47,0,9.3,3.83,9.3,9.3
			c0,5.47-3.83,9.3-9.3,9.3C592.32,328.7,588.27,324.87,588.27,319.4z"/>
		<path class="st0" d="M654.57,332.97h24.63l27.15,73.89H685l-4.6-13.46h-27.48l-4.6,13.46h-21.02L654.57,332.97z M644.83,319.4
			c0-5.47,4.05-9.3,9.3-9.3c5.47,0,9.3,3.83,9.3,9.3c0,5.47-3.83,9.3-9.3,9.3C648.88,328.7,644.83,324.87,644.83,319.4z
			 M666.61,353.66l-7.77,22.77h15.65l-7.77-22.77H666.61z M669.89,319.4c0-5.47,4.05-9.3,9.3-9.3c5.47,0,9.3,3.83,9.3,9.3
			c0,5.47-3.83,9.3-9.3,9.3C673.94,328.7,669.89,324.87,669.89,319.4z"/>
		<path class="st0" d="M711.95,332.86h20.36v55.28h31.2v18.72h-51.56V332.86z"/>
	</g>
	<g>
		<rect x="943.04" y="126.32" class="st0" width="428.8" height="286.08"/>
		<rect x="948.67" y="131.95" class="st1" width="417.55" height="274.81"/>
		<polygon class="st2" points="1157.23,157.41 1161.3,170.1 1174.63,170.04 1163.8,177.83 1167.98,190.5 1157.23,182.62 
			1146.5,190.5 1150.67,177.83 1139.84,170.04 1153.15,170.1 		"/>
		<polygon class="st2" points="1157.23,348.24 1161.3,360.9 1174.63,360.84 1163.8,368.66 1167.98,381.32 1157.23,373.45 
			1146.5,381.32 1150.67,368.66 1139.84,360.84 1153.15,360.9 		"/>
		<polygon class="st2" points="1109.77,170.1 1113.83,182.79 1127.16,182.75 1116.37,190.52 1120.54,203.16 1109.77,195.29 
			1099.04,203.16 1103.2,190.52 1092.42,182.75 1105.74,182.79 		"/>
		<polygon class="st2" points="1074.85,205.14 1078.9,217.82 1092.22,217.73 1081.39,225.54 1085.56,238.18 1074.85,230.3 
			1064.11,238.18 1068.28,225.54 1057.41,217.73 1070.79,217.82 		"/>
		<polygon class="st2" points="1061.95,252.73 1065.98,265.39 1079.34,265.31 1068.52,273.13 1072.64,285.76 1061.95,277.89 
			1051.21,285.76 1055.39,273.13 1044.55,265.31 1057.88,265.39 		"/>
		<polygon class="st2" points="1074.69,300.31 1078.77,313.05 1092.06,312.94 1081.26,320.74 1085.46,333.38 1074.69,325.47 
			1063.95,333.38 1068.14,320.74 1057.3,312.96 1070.62,313.05 		"/>
		<polygon class="st2" points="1109.77,335.32 1113.83,348.01 1127.16,347.95 1116.37,355.72 1120.54,368.38 1109.77,360.52 
			1099.04,368.38 1103.2,355.72 1092.42,347.95 1105.74,348.01 		"/>
		<polygon class="st2" points="1204.75,170.1 1200.69,182.79 1187.35,182.75 1198.18,190.52 1194,203.16 1204.75,195.29 
			1215.47,203.16 1211.32,190.52 1222.12,182.75 1208.84,182.79 		"/>
		<polygon class="st2" points="1239.7,205.14 1235.64,217.82 1222.29,217.73 1233.11,225.54 1228.93,238.18 1239.7,230.3 
			1250.45,238.18 1246.27,225.54 1257.05,217.73 1243.75,217.82 		"/>
		<polygon class="st2" points="1252.59,252.73 1248.52,265.39 1235.18,265.31 1246,273.13 1241.82,285.76 1252.59,277.89 
			1263.33,285.76 1259.16,273.13 1269.95,265.31 1256.64,265.39 		"/>
		<polygon class="st2" points="1239.79,300.31 1235.77,313.05 1222.43,312.94 1233.28,320.74 1229.07,333.38 1239.79,325.47 
			1250.58,333.38 1246.4,320.74 1257.22,312.96 1243.89,313.05 		"/>
		<polygon class="st2" points="1204.75,335.32 1200.69,348.01 1187.35,347.95 1198.18,355.72 1194,368.38 1204.75,360.52 
			1215.47,368.38 1211.32,355.72 1222.12,347.95 1208.84,348.01 		"/>
	</g>
	<path class="st0" d="M437.77,331.13L332.22,121.58L122.67,227.13l78.98,156.8h-53.76v22.64H436.3v-22.64H332.94L437.77,331.13z
		 M153.07,237.16l169.12-85.18l85.18,169.12l-124.75,62.84H227L153.07,237.16z"/>
</g>
<g id="Clear_space">
</g>
</svg>
