<?xml version="1.0" encoding="utf-8"?>
<!-- Generator: Adobe Illustrator 27.3.1, SVG Export Plug-In . SVG Version: 6.00 Build 0)  -->
<svg version="1.1" xmlns="http://www.w3.org/2000/svg" xmlns:xlink="http://www.w3.org/1999/xlink" x="0px" y="0px"
	 viewBox="0 0 1438.62 535.98" style="enable-background:new 0 0 1438.62 535.98;" xml:space="preserve">
<style type="text/css">
	.st0{fill:#FFFFFF;}
	.st1{fill:#0C4DA2;}
	.st2{fill:#FFF200;}
	.st3{fill:#D94397;}
</style>
<g id="Elements">
	<g>
		<path class="st0" d="M516.07,195.48h-12.02l-3.97,13.95H480.6l3.85-13.95h-8.66v-16.35h13.34l3.97-14.55h-11.42v-16.11h15.99
			l4.21-15.03h19.6l-4.21,15.03h11.9l4.21-15.03h19.48l-4.21,15.03h9.86v16.11h-14.43l-3.97,14.55h12.38v16.35h-17.07l-3.85,13.95
			h-19.36L516.07,195.48z M520.64,179.13l4.09-14.55H512.7l-4.09,14.55H520.64z"/>
		<path class="st0" d="M570.84,179.25v-49.53h22.48v49.65c0,7.33,5.05,12.14,12.62,12.14c7.69,0,12.62-4.81,12.62-12.14v-49.65
			h22.36v49.53c0,19.96-13.95,33.18-34.99,33.18C584.67,212.43,570.84,199.21,570.84,179.25z"/>
		<path class="st0" d="M651,200.65l11.9-15.75c4.93,5.29,12.74,8.66,20.44,8.66c5.05,0,9.98-1.56,9.98-6.49
			c0-5.17-4.45-6.73-12.74-8.42c-17.31-3.49-27.29-10.34-27.29-24.77c0-16.59,15.03-25.61,32.82-25.61
			c12.38,0,22.48,3.49,29.82,10.7L704.26,154c-6.25-4.69-12.14-6.85-17.91-6.85c-5.29,0-9.26,1.56-9.26,5.53
			c0,3.97,3.13,5.89,12.5,7.93c17.91,3.61,27.65,11.78,27.65,26.45c0,16.71-14.79,25.49-34.38,25.49
			C669.63,212.55,657.97,207.38,651,200.65z"/>
		<path class="st0" d="M748.87,129.84h27.05l29.82,81.15h-23.44l-5.05-14.79h-30.18l-5.05,14.79h-23.08L748.87,129.84z
			 M762.09,152.56l-8.54,25.01h17.19l-8.54-25.01H762.09z"/>
		<path class="st0" d="M475.8,267.25c0-24.41,17.91-42.2,42.44-42.2c24.53,0,42.44,17.67,42.44,41.96
			c0,24.53-17.91,42.32-42.56,42.32C493.71,309.33,475.8,291.66,475.8,267.25z M537.47,267.25c0-12.38-8.05-21.52-19.24-21.52
			c-11.18,0-19.36,9.02-19.36,21.4c0,12.5,8.29,21.52,19.36,21.52C529.42,288.65,537.47,279.51,537.47,267.25z"/>
		<path class="st0" d="M638.46,247.29v60.47h-22.48v-60.47h-23.08v-20.8h68.53v20.8H638.46z"/>
		<path class="st0" d="M689.61,256.79h33.66v19.36h-33.66v12.26h39.79v19.36h-61.79v-81.15h60.71v19.48h-38.71V256.79z"/>
		<path class="st0" d="M739.54,276.03v-49.53h22.48v49.65c0,7.33,5.05,12.14,12.62,12.14c7.69,0,12.62-4.81,12.62-12.14v-49.65
			h22.36v49.53c0,19.96-13.95,33.18-34.99,33.18C753.37,309.21,739.54,295.98,739.54,276.03z"/>
		<path class="st0" d="M471.95,323.39h23.56l17.07,56.75h0.24l17.43-56.75h23.32l-27.53,81.15h-26.69L471.95,323.39z"/>
		<path class="st0" d="M555.22,364.03c0-24.41,17.91-42.2,42.44-42.2c24.53,0,42.44,17.67,42.44,41.96
			c0,24.53-17.91,42.32-42.56,42.32C573.13,406.1,555.22,388.43,555.22,364.03z M616.89,364.03c0-12.38-8.05-21.52-19.24-21.52
			c-11.18,0-19.36,9.02-19.36,21.4c0,12.5,8.29,21.52,19.36,21.52C608.84,385.43,616.89,376.29,616.89,364.03z"/>
		<path class="st0" d="M690.77,344.07v60.47h-22.48v-60.47H645.2v-20.8h68.53v20.8H690.77z"/>
		<path class="st0" d="M718.83,364.03c0-24.41,17.91-42.2,42.44-42.2c24.53,0,42.44,17.67,42.44,41.96
			c0,24.53-17.91,42.32-42.56,42.32C736.74,406.1,718.83,388.43,718.83,364.03z M780.5,364.03c0-12.38-8.05-21.52-19.24-21.52
			c-11.18,0-19.36,9.02-19.36,21.4c0,12.5,8.29,21.52,19.36,21.52C772.45,385.43,780.5,376.29,780.5,364.03z"/>
	</g>
	<g>
		<rect x="887.15" y="125.3" class="st0" width="428.8" height="286.08"/>
		<rect x="892.78" y="130.93" class="st1" width="417.55" height="274.81"/>
		<polygon class="st2" points="1101.34,156.39 1105.41,169.08 1118.74,169.02 1107.91,176.81 1112.09,189.48 1101.34,181.6 
			1090.61,189.48 1094.78,176.81 1083.95,169.02 1097.26,169.08 		"/>
		<polygon class="st2" points="1101.34,347.22 1105.41,359.88 1118.74,359.82 1107.91,367.64 1112.09,380.29 1101.34,372.42 
			1090.61,380.29 1094.78,367.64 1083.95,359.82 1097.26,359.88 		"/>
		<polygon class="st2" points="1053.87,169.08 1057.94,181.77 1071.26,181.73 1060.48,189.5 1064.65,202.14 1053.87,194.27 
			1043.15,202.14 1047.3,189.5 1036.53,181.73 1049.84,181.77 		"/>
		<polygon class="st2" points="1018.95,204.12 1023,216.8 1036.33,216.71 1025.5,224.52 1029.67,237.16 1018.95,229.28 
			1008.22,237.16 1012.38,224.52 1001.52,216.71 1014.89,216.8 		"/>
		<polygon class="st2" points="1006.06,251.71 1010.09,264.37 1023.45,264.29 1012.63,272.11 1016.75,284.74 1006.06,276.87 
			995.32,284.74 999.5,272.11 988.66,264.29 1001.98,264.37 		"/>
		<polygon class="st2" points="1018.79,299.29 1022.88,312.02 1036.17,311.92 1025.36,319.72 1029.56,332.36 1018.79,324.45 
			1008.05,332.36 1012.25,319.72 1001.4,311.94 1014.73,312.02 		"/>
		<polygon class="st2" points="1053.87,334.3 1057.94,346.99 1071.26,346.93 1060.48,354.69 1064.65,367.35 1053.87,359.5 
			1043.15,367.35 1047.3,354.69 1036.53,346.93 1049.84,346.99 		"/>
		<polygon class="st2" points="1148.86,169.08 1144.79,181.77 1131.45,181.73 1142.28,189.5 1138.1,202.14 1148.86,194.27 
			1159.58,202.14 1155.43,189.5 1166.23,181.73 1152.94,181.77 		"/>
		<polygon class="st2" points="1183.8,204.12 1179.74,216.8 1166.4,216.71 1177.22,224.52 1173.03,237.16 1183.8,229.28 
			1194.56,237.16 1190.38,224.52 1201.16,216.71 1187.85,216.8 		"/>
		<polygon class="st2" points="1196.7,251.71 1192.62,264.37 1179.28,264.29 1190.11,272.11 1185.93,284.74 1196.7,276.87 
			1207.44,284.74 1203.27,272.11 1214.06,264.29 1200.75,264.37 		"/>
		<polygon class="st2" points="1183.89,299.29 1179.88,312.02 1166.54,311.92 1177.38,319.72 1173.18,332.36 1183.89,324.45 
			1194.69,332.36 1190.51,319.72 1201.33,311.94 1188,312.02 		"/>
		<polygon class="st2" points="1148.86,334.3 1144.79,346.99 1131.45,346.93 1142.28,354.69 1138.1,367.35 1148.86,359.5 
			1159.58,367.35 1155.43,354.69 1166.23,346.93 1152.94,346.99 		"/>
	</g>
	<path class="st0" d="M437.76,330.15L332.21,120.6L122.67,226.15l78.98,156.8h-53.76v22.64h288.41v-22.64H332.93L437.76,330.15z
		 M153.07,236.18L322.18,151l85.18,169.12l-124.75,62.84h-55.62L153.07,236.18z"/>
</g>
<g id="Clear_space">
</g>
</svg>
