<?xml version="1.0" encoding="utf-8"?>
<!-- Generator: Adobe Illustrator 27.7.0, SVG Export Plug-In . SVG Version: 6.00 Build 0)  -->
<svg version="1.1" id="Camada_1" xmlns="http://www.w3.org/2000/svg" xmlns:xlink="http://www.w3.org/1999/xlink" x="0px" y="0px"
	 viewBox="0 0 1427.1 289.7" style="enable-background:new 0 0 1427.1 289.7;" xml:space="preserve">
<style type="text/css">
	.st0{fill:#0C4DA2;}
	.st1{fill:#FFFFFF;}
	.st2{fill:#FFF200;}
</style>
<g id="Elements">
	<g>
		<g>
			<g>
				<path class="st0" d="M390.5,152h-12l-4,14H355l3.9-14h-8.7v-16.4h13.3l4-14.6h-11.4V105h16l4.2-15h19.6l-4.2,15h11.9l4.2-15
					h19.5l-4.2,15h9.9v16.1h-14.4l-4,14.6h12.4V152h-17.1l-3.8,14h-19.4L390.5,152z M395.1,135.7l4.1-14.6h-12l-4.1,14.6H395.1z"/>
				<path class="st0" d="M434.5,86.4H458l17.1,56.8h0.2l17.4-56.8h23.3l-27.5,81.1h-26.7L434.5,86.4z"/>
				<path class="st0" d="M544.1,86.2l14.2,28.7l13.8-28.7h25.4l-28.1,51.3v29.9h-22.5v-30.3l-28.1-51L544.1,86.2L544.1,86.2z"/>
				<path class="st0" d="M602.9,135.8V86.2h22.5v49.6c0,7.3,5,12.1,12.6,12.1c7.7,0,12.6-4.8,12.6-12.1V86.2H673v49.5
					c0,20-14,33.2-35,33.2C616.7,169,602.9,155.7,602.9,135.8z"/>
				<path class="st0" d="M681.2,153.2l35.8-47.9h-34.8V86.2h64.3v14.3l-35.7,48h36.5v19h-66.2V153.2z M691.7,69.9l4.5-10.2l18,6.7
					l18.4-6.7l4.5,10.2l-22.8,12.5L691.7,69.9z"/>
				<path class="st0" d="M758.2,86.2h22.6v81.3h-22.6V86.2z"/>
				<path class="st0" d="M787.2,152.2l17.8-10c1.8,3.9,5.3,5.8,9.4,5.8c5.4,0,8.9-3.9,8.9-9.9V86.2h22.5v51.3
					c0,19.1-11.2,31.5-29.6,31.5C802.5,169.1,792.4,163.5,787.2,152.2z"/>
				<path class="st0" d="M897,107.1v60.5h-22.5v-60.5h-23.1V86.3h68.5v20.8L897,107.1L897,107.1z"/>
				<path class="st0" d="M948.1,116.6h33.7v19.4h-33.7v12.3h39.8v19.4h-61.8V86.4h60.7v19.5h-38.7V116.6z"/>
				<path class="st0" d="M349.3,274.7l11.9-15.8c4.9,5.3,12.7,8.7,20.4,8.7c5,0,10-1.6,10-6.5c0-5.2-4.5-6.7-12.7-8.4
					c-17.3-3.5-27.3-10.3-27.3-24.8c0-16.6,15-25.6,32.8-25.6c12.4,0,22.5,3.5,29.8,10.7l-11.7,15c-6.2-4.7-12.1-6.9-17.9-6.9
					c-5.3,0-9.3,1.6-9.3,5.5s3.1,5.9,12.5,7.9c17.9,3.6,27.7,11.8,27.7,26.5c0,16.7-14.8,25.5-34.4,25.5
					C367.9,286.6,356.2,281.4,349.3,274.7z"/>
				<path class="st0" d="M416.3,203.9h23.6l17.1,56.8h0.2l17.4-56.8h23.3L470.4,285h-26.7L416.3,203.9z"/>
				<path class="st0" d="M503.5,253.3v-49.5H526v49.6c0,7.3,5,12.1,12.6,12.1c7.7,0,12.6-4.8,12.6-12.1v-49.6h22.4v49.5
					c0,20-14,33.2-35,33.2C517.4,286.5,503.5,273.2,503.5,253.3z M523.8,188.1c0-7.7,4.7-11.2,15-11.2s15,3.5,15,11.2
					c0,7.6-4.7,10.8-15,10.8S523.8,195.7,523.8,188.1z M544.3,188.1c0-2.4-1-3.4-5.5-3.4s-5.5,1-5.5,3.4c0,2.2,1,3.1,5.5,3.1
					S544.3,190.3,544.3,188.1z"/>
				<path class="st0" d="M578.1,269.8l17.8-10c1.8,3.9,5.3,5.8,9.4,5.8c5.4,0,8.9-3.9,8.9-9.9v-51.9h22.5v51.3
					c0,19.1-11.2,31.5-29.6,31.5C593.4,286.6,583.3,281,578.1,269.8z"/>
				<path class="st0" d="M680.8,285v-81.1h22.4v30.1h26.7v-30.1h22.5V285h-22.5v-31h-26.7v31H680.8z"/>
				<path class="st0" d="M766.9,203.8h22.4v60.7h34.3V285h-56.6L766.9,203.8L766.9,203.8z"/>
				<path class="st0" d="M856.4,203.9h27l29.8,81.1h-23.4l-5-14.8h-30.2l-5,14.8h-23.1L856.4,203.9z M869.6,226.6l-8.5,25h17.2
					l-8.5-25H869.6z"/>
				<path class="st0" d="M915.8,274.7l11.9-15.8c4.9,5.3,12.7,8.7,20.4,8.7c5.1,0,10-1.6,10-6.5c0-5.2-4.4-6.7-12.7-8.4
					c-17.3-3.5-27.3-10.3-27.3-24.8c0-16.6,15-25.6,32.8-25.6c12.4,0,22.5,3.5,29.8,10.7L969,228c-6.2-4.7-12.1-6.9-17.9-6.9
					c-5.3,0-9.3,1.6-9.3,5.5s3.1,5.9,12.5,7.9c17.9,3.6,27.7,11.8,27.7,26.5c0,16.7-14.8,25.5-34.4,25.5
					C934.4,286.6,922.7,281.4,915.8,274.7z"/>
			</g>
		</g>
	</g>
	<g>
		<rect x="1071.6" y="52.6" class="st1" width="355.5" height="237.2"/>
		<rect x="1076.3" y="57.2" class="st0" width="346.2" height="227.8"/>
		<polygon class="st2" points="1249.2,78.3 1252.5,88.9 1263.6,88.8 1254.6,95.3 1258.1,105.8 1249.2,99.2 1240.3,105.8 
			1243.7,95.3 1234.7,88.8 1245.8,88.9 		"/>
		<polygon class="st2" points="1249.2,236.5 1252.5,247 1263.6,247 1254.6,253.5 1258.1,264 1249.2,257.4 1240.3,264 1243.7,253.5 
			1234.7,247 1245.8,247 		"/>
		<polygon class="st2" points="1209.8,88.9 1213.2,99.4 1224.2,99.3 1215.3,105.8 1218.7,116.3 1209.8,109.7 1200.9,116.3 
			1204.4,105.8 1195.4,99.3 1206.5,99.4 		"/>
		<polygon class="st2" points="1180.9,117.9 1184.2,128.4 1195.3,128.3 1186.3,134.8 1189.7,145.3 1180.9,138.8 1172,145.3 
			1175.4,134.8 1166.4,128.3 1177.5,128.4 		"/>
		<polygon class="st2" points="1170.2,157.4 1173.5,167.9 1184.6,167.8 1175.6,174.3 1179,184.7 1170.2,178.2 1161.3,184.7 
			1164.7,174.3 1155.8,167.8 1166.8,167.9 		"/>
		<polygon class="st2" points="1180.7,196.8 1184.1,207.4 1195.1,207.3 1186.2,213.7 1189.7,224.2 1180.7,217.6 1171.8,224.2 
			1175.3,213.7 1166.3,207.3 1177.4,207.4 		"/>
		<polygon class="st2" points="1209.8,225.8 1213.2,236.3 1224.2,236.3 1215.3,242.7 1218.7,253.2 1209.8,246.7 1200.9,253.2 
			1204.4,242.7 1195.4,236.3 1206.5,236.3 		"/>
		<polygon class="st2" points="1288.5,88.9 1285.2,99.4 1274.1,99.3 1283.1,105.8 1279.6,116.3 1288.5,109.7 1297.4,116.3 
			1294,105.8 1303,99.3 1291.9,99.4 		"/>
		<polygon class="st2" points="1317.5,117.9 1314.2,128.4 1303.1,128.3 1312.1,134.8 1308.6,145.3 1317.5,138.8 1326.4,145.3 
			1323,134.8 1331.9,128.3 1320.9,128.4 		"/>
		<polygon class="st2" points="1328.2,157.4 1324.8,167.9 1313.8,167.8 1322.8,174.3 1319.3,184.7 1328.2,178.2 1337.1,184.7 
			1333.7,174.3 1342.6,167.8 1331.6,167.9 		"/>
		<polygon class="st2" points="1317.6,196.8 1314.3,207.4 1303.2,207.3 1312.2,213.7 1308.7,224.2 1317.6,217.6 1326.5,224.2 
			1323.1,213.7 1332.1,207.3 1321,207.4 		"/>
		<polygon class="st2" points="1288.5,225.8 1285.2,236.3 1274.1,236.3 1283.1,242.7 1279.6,253.2 1288.5,246.7 1297.4,253.2 
			1294,242.7 1303,236.3 1291.9,236.3 		"/>
	</g>
	<path class="st0" d="M315.1,209.5L209.6,0L0,105.6l79,156.8H25.2V285h288.4v-22.6H210.3L315.1,209.5z M30.4,115.6l169.1-85.2
		l85.2,169.1l-124.8,62.8h-55.6L30.4,115.6z"/>
</g>
<g id="Clear_space">
</g>
</svg>
