<svg xmlns="http://www.w3.org/2000/svg" width="227.259" height="70.586" x="0px" y="0px" viewBox="0 0 839 242">
<style type="text/css">
	.st0{fill:#FFFFFF;}
</style>
<path class="st0" d="M132.8,54.2c5.4,2.6,11.3,4.1,17.2,4.1c6.1,0,9.1-2.1,9.1-5.4s-3-5.1-10.4-7.7c-11.2-3.9-18.6-10.1-18.6-20
	c0-11.7,9.9-20.8,26.6-20.8c8,0,13.6,1.5,18,3.4l-3.7,14.2c-4.5-2.1-9.5-3.2-14.5-3.2c-5.4,0-8.4,2-8.4,4.9c0,3.4,3.5,4.7,11.9,7.9
	c11.9,4.3,17.3,10.7,17.3,20c0,11.4-9,21.2-28.4,21.2c-8,0-15.8-2.1-19.5-4L132.8,54.2z"/>
<path class="st0" d="M204.3,56.5l-3.8,15.4h-18.4l19.3-66.4h23.6l19.8,66.4h-19.2l-4.2-15.4H204.3z M219,43.4l-3-11.9
	c-1-3.8-2.3-9.2-3.2-13.1h-0.2c-1,3.9-2,9.5-3,13.2l-2.9,11.8H219z"/>
<path class="st0" d="M309.5,48.2c-0.2-7.6-0.4-16.4-0.3-26.8h-0.3c-2.1,8.8-4.8,18.7-7,26l-6.6,23.1h-13.9l-5.6-23.1
	c-1.7-7.2-3.7-17-5.2-26.1h-0.2c-0.4,9.4-0.8,19.2-1.1,26.8l-1,23.7H252l4-66.4h24l4.4,17.8c1.8,7.4,3.8,16.2,5.1,24.3h0.4
	c1.9-8.1,4-17.4,6-24.4l4.9-17.7h23.4l3.4,66.4h-17.4L309.5,48.2z"/>
<path class="st0" d="M394.7,48.2c-0.2-7.6-0.4-16.4-0.3-26.8h-0.3c-2.1,8.8-4.8,18.7-7,26l-6.6,23.1h-13.9l-5.6-23
	c-1.7-7.2-3.7-17-5.2-26.1h-0.2c-0.4,9.4-0.8,19.2-1.1,26.8l-1,23.7h-16.3l4-66.4h23.9l4.4,17.8c1.8,7.4,3.7,16.2,5.1,24.3h0.4
	c1.9-8.1,4-17.4,6-24.4L386,5.5h23.4l3.4,66.4h-17.3L394.7,48.2z"/>
<path class="st0" d="M465.4,45.1h-23.8v12.2h26.7v14.6h-44.5V5.5h43.1V20h-25.3v10.7h23.8L465.4,45.1z"/>
<path class="st0" d="M478.1,71.9V5.5h21l10.5,20.4c4,7.5,7.5,15.3,10.4,23.2h0.3c-1-9.3-1.4-18.6-1.4-28V5.5h16.2v66.4h-18.7
	l-11.2-22.1c-4.2-7.8-7.9-15.8-11.2-24h-0.3c0.4,9,0.6,19,0.6,29.8V72L478.1,71.9z"/>
<path class="st0" d="M626.8,38c0,21.4-12.8,35-33.3,35s-31.9-15.5-31.9-33.9c0-19.3,12.7-34.7,33-34.7C616,4.4,626.8,20.3,626.8,38z
	 M580.4,38.8c0,12.4,5.4,20.1,14,20.1S608,50.5,608,38.6c0-11.4-5.1-20.1-13.7-20.1S580.4,26.6,580.4,38.8L580.4,38.8z"/>
<path class="st0" d="M692.4,48.2c-0.2-7.6-0.4-16.4-0.3-26.8h-0.3c-2.1,8.8-4.8,18.7-7,26l-6.6,23.1h-13.9l-5.6-23.1
	c-1.7-7.2-3.7-17-5.2-26.1h-0.2c-0.4,9.4-0.8,19.2-1.1,26.8l-1,23.7h-16.3l4-66.4h23.9l4.4,17.8c1.8,7.4,3.7,16.2,5.1,24.3h0.4
	c1.9-8.1,4-17.4,6-24.4l4.9-17.7h23.4l3.3,66.4h-17.3L692.4,48.2z"/>
<path class="st0" d="M472.3,141.3c-2.4-0.1-4.8,0.1-7.1,0.5v18.7h5.5c8,0,12.5-4,12.5-9.8S479.3,141.4,472.3,141.3z"/>
<path class="st0" d="M318.8,141.8c-10.1,0-16.5,9.6-16.5,24.1c0,14.7,6.4,23.9,16.6,23.9s16.1-10,16.1-24.1
	C335.1,152.1,329,141.8,318.8,141.8z"/>
<path class="st0" d="M62,141.9c-2.2-0.1-4.3,0.1-6.4,0.5v47c1.5,0.2,3,0.3,4.4,0.2c13.7,0.2,23.8-7.4,23.8-25.1
	C83.8,149.2,74.6,141.9,62,141.9z"/>
<path class="st0" d="M548.2,141.5H548c-1.2,4.7-2.3,11.2-3.5,15.7l-3.4,14h14.6l-3.6-14.1C550.9,152.7,549.4,146.2,548.2,141.5z"/>
<path class="st0" d="M5.5,95.9v140.7h829V95.9H5.5z M92.4,196.3c-8.7,6.8-21.5,9.7-37,9.7c-10.2,0-17-0.6-21.1-1.3v-77.3
	c8.3-1.2,16.7-1.7,25.1-1.6c15.1,0,24.6,2.4,32.4,7.8c8.7,6,14.3,15.8,14.3,30.3C106.2,179.9,100.1,190.3,92.4,196.3z M170.3,205.2
	h-52.9v-78.9h51.2v17.2h-30.1v12.8h28.3v17.1h-28.3v14.5h31.7V205.2z M249.7,205.2l-0.9-28.2c-0.2-9-0.5-19.5-0.4-31.8H248
	c-2.5,10.4-5.7,22.2-8.3,30.9l-7.8,27.5h-16.5l-6.7-27.4c-2-8.5-4.5-20.2-6.2-31h-0.2c-0.5,11.1-0.9,22.8-1.3,31.8l-1.2,28.2h-19.4
	l4.8-78.9h28.4l5.3,21.2c2.1,8.8,4.4,19.3,6.1,28.9h0.5c2.2-9.6,4.8-20.7,7.1-29l5.9-21.1h27.9l4,78.9L249.7,205.2z M317.9,206.5
	c-24.5,0-37.9-18.4-37.9-40.3c0-22.9,15-41.1,39.1-41.1c25.4,0,38.3,18.8,38.3,39.9C357.4,190.3,342.2,206.5,317.9,206.5
	L317.9,206.5z M412.5,205.2l-16.6-31.9l-6.3,8.1v23.9h-20.9v-78.9h20.9v33.5h0.2c1.6-2.9,3.4-5.9,5.1-8.7l15.1-24.8h26l-25,33.6
	l26,45.3L412.5,205.2z M485.6,205.2c-1.2-2.3-3.2-8.4-5.5-18.1c-2.1-9.5-5-11.5-11.6-11.5h-3.4v29.6h-20.9v-77.8
	c8.5-1.2,17-1.7,25.5-1.6c12,0,20.7,1.6,26.7,6.1c5,3.9,7.8,9.5,7.8,17.2c0,9.8-7.4,16.9-13.6,19.1v0.5c5.3,2.2,8.1,7.3,10.1,14
	c2.5,8.1,5,19.5,6.6,22.6L485.6,205.2z M563.6,205.2l-5-18.2h-20.4l-4.4,18.2H512l22.9-78.9H563l23.5,78.9H563.6z M643.4,144H623
	v61.2h-21.2V144h-20.1v-17.7h61.8L643.4,144z M674.3,205.2h-21.2v-78.9h21.2L674.3,205.2z M741.7,205.2h-52.9v-78.9h51.2v17.2H710
	v12.8h28.3v17.1H710v14.5h31.7V205.2z M810.4,144h-20.5v61.2h-21.2V144h-20.1v-17.7h61.8L810.4,144z"/>
</svg>
