<?xml version="1.0" encoding="UTF-8"?><svg id="LT" xmlns="http://www.w3.org/2000/svg" viewBox="0 0 188.61 62.38"><defs><style>.cls-1{fill:#224e9c;stroke-width:0px;}</style></defs><path class="cls-1" d="m14.34,18.82h-5.43v2.78h6.07v3.32H4.85v-15.11h9.82v3.3h-5.76v2.45h5.43v3.27Z"/><path class="cls-1" d="m17.5,20.89c1.22.6,2.56.92,3.92.94,1.39,0,2.06-.47,2.06-1.23s-.68-1.17-2.38-1.75c-2.56-.9-4.24-2.31-4.24-4.54,0-2.67,2.24-4.73,6.05-4.73,1.82,0,3.09.34,4.1.78l-.85,3.23c-1.03-.47-2.16-.72-3.29-.72-1.23,0-1.91.45-1.91,1.12,0,.76.81,1.07,2.71,1.79,2.71.99,3.95,2.45,3.95,4.54,0,2.6-2.05,4.82-6.46,4.82-1.82,0-3.59-.47-4.44-.91l.76-3.35Z"/><path class="cls-1" d="m33.78,21.43l-.85,3.5h-4.2l4.39-15.11h5.38l4.51,15.11h-4.37l-.96-3.5h-3.9Zm3.34-3l-.7-2.71c-.23-.85-.51-2.09-.74-2.98h-.05c-.23.91-.45,2.15-.68,3.01l-.65,2.69h2.81Z"/><path class="cls-1" d="m57.73,19.52c-.05-1.73-.09-3.74-.07-6.1h-.07c-.47,2-1.1,4.26-1.59,5.92l-1.5,5.27h-3.16l-1.28-5.25c-.38-1.64-.85-3.88-1.19-5.94h-.05c-.09,2.13-.18,4.37-.25,6.1l-.23,5.4h-3.72l.91-15.11h5.45l1.01,4.06c.4,1.68.85,3.7,1.17,5.54h.09c.42-1.84.91-3.97,1.36-5.56l1.12-4.04h5.34l.77,15.11h-3.94l-.18-5.4Z"/><path class="cls-1" d="m73.84,18.82h-5.44v2.78h6.08v3.32h-10.14v-15.11h9.82v3.3h-5.77v2.45h5.44v3.27Z"/><path class="cls-1" d="m81.34,9.81h4.02v6.41h.04c.31-.56.65-1.12.99-1.66l2.89-4.75h4.98l-4.8,6.44,4.97,8.68h-4.68l-3.18-6.12-1.21,1.55v4.57h-4.02v-15.11Z"/><path class="cls-1" d="m100.1,21.43l-.85,3.5h-4.19l4.39-15.11h5.38l4.51,15.11h-4.37l-.97-3.5h-3.91Zm3.34-3l-.7-2.71c-.23-.85-.52-2.09-.74-2.98h-.05c-.23.91-.45,2.15-.68,3.01l-.65,2.69h2.81Z"/><path class="cls-1" d="m111.27,10.01c1.62-.22,3.25-.33,4.89-.31,2.31,0,3.97.31,5.11,1.17.97.74,1.5,1.82,1.5,3.3,0,1.88-1.41,3.23-2.6,3.65v.09c1.01.42,1.55,1.39,1.93,2.69.47,1.55.97,3.74,1.26,4.32h-4.15c-.23-.45-.61-1.61-1.05-3.47-.4-1.82-.97-2.2-2.22-2.2h-.65v5.68h-4.02v-14.91Zm4.02,6.35h1.05c1.52,0,2.4-.76,2.4-1.88s-.74-1.77-2.08-1.8c-.46-.01-.91.02-1.36.09v3.59Z"/><path class="cls-1" d="m127.97,13.19h-3.86v-3.39h11.84v3.39h-3.92v11.73h-4.06v-11.73Z"/><path class="cls-1" d="m141.85,9.81v8.57c0,2.29.78,3.59,2.38,3.59s2.4-1.19,2.4-3.59v-8.57h4.06v8.34c0,4.67-2.33,7.02-6.57,7.02s-6.32-2.27-6.32-7.13v-8.23h4.06Z"/><path class="cls-1" d="m161.92,9.81v8.57c0,2.29.78,3.59,2.38,3.59s2.4-1.19,2.4-3.59v-8.57h4.06v8.34c0,4.67-2.33,7.02-6.57,7.02s-6.32-2.27-6.32-7.13v-8.23h4.06Z"/><path class="cls-1" d="m172.59,22.77l6.69-9.53v-.09h-6.06v-3.34h11.3v2.31l-6.48,9.37v.09h6.59v3.34h-12.04v-2.15Zm4.71-13.77l-2.22-2.82h2.71l1.01,1.32h.05l.99-1.32h2.71l-2.22,2.82h-3.03Z"/><path class="cls-1" d="m106.87,40.65c-.54-.02-1.09.02-1.62.11v4.25h1.25c1.81,0,2.85-.91,2.85-2.23s-.88-2.1-2.47-2.13Z"/><path class="cls-1" d="m71.99,40.76c-2.29,0-3.75,2.18-3.75,5.48s1.46,5.42,3.77,5.42,3.67-2.26,3.67-5.48c0-3.08-1.39-5.42-3.69-5.42Z"/><path class="cls-1" d="m13.63,40.78c-.49-.01-.98.02-1.46.11v10.68c.33.05.67.06,1.01.05,3.11.05,5.4-1.67,5.4-5.72,0-3.47-2.07-5.12-4.94-5.12Z"/><path class="cls-1" d="m124.12,40.7h-.05c-.27,1.06-.53,2.55-.8,3.56l-.77,3.18h3.32l-.82-3.21c-.26-1.01-.61-2.47-.88-3.54Z"/><path class="cls-1" d="m.85,30.32v31.97h187.79v-31.97H.85Zm19.7,22.82c-1.97,1.54-4.89,2.21-8.41,2.21-2.31,0-3.86-.13-4.79-.29v-17.57c1.89-.26,3.8-.39,5.72-.37,3.43,0,5.59.56,7.36,1.78,1.97,1.36,3.24,3.59,3.24,6.89,0,3.64-1.38,6.01-3.13,7.36Zm17.71,2.02h-12.02v-17.92h11.64v3.91h-6.83v2.9h6.44v3.88h-6.44v3.3h7.21v3.93Zm18.02,0l-.21-6.41c-.05-2.05-.11-4.44-.08-7.23h-.08c-.56,2.37-1.3,5.05-1.89,7.02l-1.78,6.25h-3.75l-1.52-6.22c-.45-1.94-1.01-4.6-1.41-7.04h-.05c-.11,2.53-.21,5.19-.29,7.23l-.27,6.41h-4.41l1.09-17.92h6.46l1.2,4.81c.48,2,1.01,4.39,1.38,6.57h.1c.51-2.18,1.09-4.71,1.62-6.59l1.33-4.79h6.33l.91,17.92h-4.69Zm15.5.29c-5.56,0-8.62-4.18-8.62-9.15s3.43-9.35,8.91-9.35c5.77,0,8.69,4.28,8.69,9.06,0,5.76-3.46,9.43-8.99,9.43h0Zm21.51-.29l-3.77-7.26-1.44,1.83v5.42h-4.77v-17.92h4.76v7.61h.05c.37-.67.77-1.33,1.17-1.97l3.43-5.64h5.91l-5.68,7.63,5.91,10.29h-5.58Zm16.62,0c-.27-.53-.72-1.91-1.25-4.12-.48-2.15-1.14-2.61-2.63-2.61h-.77v6.73h-4.77v-17.68c1.92-.27,3.86-.39,5.8-.37,2.74,0,4.71.37,6.06,1.38,1.14.88,1.78,2.15,1.78,3.91,0,2.23-1.67,3.83-3.09,4.33v.11c1.2.5,1.84,1.65,2.29,3.18.56,1.83,1.14,4.44,1.49,5.13h-4.91Zm17.72,0l-1.14-4.15h-4.62l-1.01,4.15h-4.97l5.21-17.92h6.38l5.34,17.92h-5.19Zm18.13-13.9h-4.65v13.9h-4.8v-13.9h-4.57v-4.02h14.04v4.02Zm7.02,13.9h-4.8v-17.92h4.81v17.92Zm11.54-6.86c0,5.21-2.5,7.15-6.81,7.15-1.07.01-2.14-.13-3.17-.42l.51-3.86c.68.19,1.39.29,2.1.29,1.54,0,2.55-.68,2.55-3.16v-11.06h4.81v11.06Zm16.13,12.81c-1.98,0-3.21-.98-3.21-3.02,0-1.22.58-2.52.72-2.92l-1.14-4.15h-4.62l-1.01,4.15h-4.97l5.21-17.92h6.38l5.34,17.91h-2.66c-.21.47-.33.98-.35,1.49-.04.82.59,1.52,1.41,1.57.03,0,.05,0,.08,0,.39,0,.77-.06,1.14-.19l.66,2.15c-.81.63-2.01.93-2.97.93h-.01Z"/><path class="cls-1" d="m174.45,40.7h-.05c-.27,1.06-.53,2.55-.8,3.56l-.77,3.18h3.32l-.82-3.21c-.27-1.01-.61-2.47-.88-3.54Z"/></svg>