<?xml version="1.0" encoding="utf-8"?>
<!-- Generator: Adobe Illustrator 27.6.1, SVG Export Plug-In . SVG Version: 6.00 Build 0)  -->
<svg version="1.1" id="Layer_1" xmlns="http://www.w3.org/2000/svg" xmlns:xlink="http://www.w3.org/1999/xlink" x="0px" y="0px"
	 viewBox="0 0 851 244" style="enable-background:new 0 0 851 244;" xml:space="preserve">
<style type="text/css">
	.st0{fill:#FFFFFF;}
</style>
<path class="st0" d="M138.3,64.7l29.3-41.8v-0.4h-26.6V7.8h49.6V18l-28.5,41.1v0.4h28.9v14.7h-52.9V64.7z"/>
<path class="st0" d="M218.9,58.8l-3.7,15.4h-18.4L216,7.8h23.6l19.8,66.4h-19.2L236,58.8H218.9z M233.5,45.6l-3-11.9
	c-1-3.7-2.3-9.1-3.2-13.1H227c-1,3.9-2,9.4-3,13.2l-2.9,11.8H233.5z"/>
<path class="st0" d="M281.8,7.8h17.8v40.9c0,19.3-9.2,26.5-25.2,26.5c-4,0-7.9-0.5-11.7-1.6l1.9-14.3c2.5,0.7,5.2,1.1,7.8,1.1
	c5.7,0,9.5-2.6,9.5-11.7V7.8z"/>
<path class="st0" d="M352.9,47.4h-23.8v12.2h26.7v14.6h-44.5V7.8h43.1v14.5h-25.3V33h23.8V47.4z"/>
<path class="st0" d="M365.6,8.7c7-1,14.1-1.4,21.2-1.4c12.7,0,20.7,2.1,27.3,6.6c7.3,5,12,13.3,12,25.5c0,13.5-5.1,22.2-11.6,27.3
	c-7.3,5.7-18.1,8.2-31.1,8.2c-5.9,0.1-11.8-0.2-17.7-1.1L365.6,8.7z M383.4,60.9c1.2,0.2,2.5,0.2,3.7,0.2c11.5,0.2,20-6.2,20-21.2
	c0-12.9-7.7-19-18.3-19c-1.8-0.1-3.6,0.1-5.4,0.4L383.4,60.9z"/>
<path class="st0" d="M435.5,74.2V7.8h21L467,28.2c4,7.5,7.5,15.3,10.4,23.2h0.3c-1-9.3-1.4-18.6-1.4-28V7.8h16.2v66.4h-18.7
	l-11.2-22c-4.2-7.8-7.9-15.8-11.2-24h-0.3c0.4,9,0.6,19,0.6,29.7v16.3L435.5,74.2z"/>
<path class="st0" d="M567.3,40.3c0,21.4-12.8,35-33.3,35s-31.9-15.5-31.9-33.9c0-19.3,12.7-34.7,33-34.7
	C556.5,6.7,567.3,22.6,567.3,40.3z M520.9,41.1c0,12.4,5.4,20.1,14,20.1s13.6-8.4,13.6-20.3c0-11.4-5.1-20.1-13.7-20.1
	S520.9,28.9,520.9,41.1L520.9,41.1z"/>
<path class="st0" d="M592.6,64.7l29.3-41.8v-0.4h-26.6V7.8H645V18l-28.5,41.1v0.4h28.9v14.7h-52.9V64.7z"/>
<path class="st0" d="M673.1,58.8l-3.7,15.4H651l19.3-66.3h23.6l19.8,66.3h-19.2l-4.2-15.4H673.1z M687.8,45.6l-3.1-11.9
	c-1-3.7-2.3-9.1-3.2-13.1h-0.2c-1,3.9-2,9.4-3,13.2l-2.9,11.8H687.8z"/>
<path class="st0" d="M472.9,143.3c-2.4-0.1-4.8,0.1-7.1,0.5v18.7h5.5c8,0,12.5-4,12.5-9.8S479.9,143.4,472.9,143.3z"/>
<path class="st0" d="M548.8,143.5h-0.2c-1.2,4.7-2.3,11.2-3.5,15.7l-3.4,14h14.6l-3.6-14.1C551.5,154.7,550,148.2,548.8,143.5z"/>
<path class="st0" d="M62.6,143.9c-2.2-0.1-4.3,0.1-6.4,0.5v47c1.5,0.2,3,0.3,4.4,0.2c13.7,0.2,23.8-7.4,23.8-25.1
	C84.3,151.2,75.2,143.9,62.6,143.9z"/>
<path class="st0" d="M319.4,143.8c-10.1,0-16.5,9.6-16.5,24.1c0,14.7,6.4,23.9,16.6,23.9s16.1-10,16.1-24.1
	C335.6,154.1,329.5,143.8,319.4,143.8z"/>
<path class="st0" d="M6.6,97.9v140.7h838.8V97.9H6.6z M93,198.3c-8.7,6.8-21.5,9.7-37,9.7c-10.2,0-17-0.6-21.1-1.3v-77.3
	c8.3-1.2,16.7-1.7,25.1-1.6c15.1,0,24.6,2.4,32.4,7.8c8.7,6,14.3,15.8,14.3,30.3C106.8,181.9,100.7,192.3,93,198.3z M170.9,207.2
	H118v-78.9h51.2v17.2h-30.1v12.8h28.3v17.1h-28.3v14.5h31.7L170.9,207.2z M250.2,207.2l-0.9-28.2c-0.2-9-0.5-19.5-0.4-31.8h-0.4
	c-2.5,10.4-5.7,22.2-8.3,30.9l-7.8,27.5H216l-6.7-27.4c-2-8.5-4.5-20.2-6.2-31h-0.2c-0.5,11.1-0.9,22.8-1.3,31.8l-1.2,28.2H181
	l4.8-78.9h28.4l5.3,21.2c2.1,8.8,4.4,19.3,6.1,28.9h0.4c2.2-9.6,4.8-20.7,7.1-29l5.9-21.1h27.9l4,78.9L250.2,207.2z M318.4,208.5
	c-24.5,0-37.9-18.4-37.9-40.2c0-22.9,15.1-41.2,39.2-41.2c25.4,0,38.3,18.8,38.3,39.9C358,192.3,342.8,208.5,318.4,208.5
	L318.4,208.5z M413.1,207.2l-16.6-31.9l-6.3,8.1v23.9h-21v-78.9h20.9v33.5h0.2c1.6-2.9,3.4-5.9,5.1-8.7l15.1-24.8h26l-25,33.6
	l26,45.3L413.1,207.2z M486.2,207.2c-1.2-2.3-3.2-8.4-5.5-18.1c-2.1-9.5-5-11.5-11.6-11.5h-3.4v29.6h-21v-77.8
	c8.5-1.2,17-1.7,25.5-1.6c12,0,20.7,1.6,26.7,6.1c5,3.9,7.8,9.5,7.8,17.2c0,9.8-7.4,16.9-13.6,19.1v0.5c5.3,2.2,8.1,7.3,10.1,14
	c2.5,8.1,5,19.5,6.6,22.6L486.2,207.2z M564.2,207.2l-5-18.2h-20.4l-4.4,18.2h-21.9l22.9-78.9h28.1l23.5,78.9H564.2z M635.7,190.9
	c4.8,0,9.6-0.8,14.2-2.3l2.9,16.6c-3,1.4-10.4,3.2-19.9,3.2c-29.5,0-42.5-18.4-42.5-39.3c0-27.9,20.4-42,43.9-42
	c9.1,0,16.5,1.8,19.8,3.5l-4.1,16.6c-4.6-1.9-9.6-2.8-14.6-2.8c-12.2,0-22.7,7.1-22.7,23.3C612.7,182,621.2,190.9,635.7,190.9
	L635.7,190.9z M685.3,207.2h-21.2v-78.9h21.2L685.3,207.2z M736.1,177c0,22.9-11,31.5-30,31.5c-4.7,0-9.4-0.6-13.9-1.9l2.2-17
	c3,0.8,6.1,1.3,9.2,1.3c6.8,0,11.2-3,11.2-13.9v-48.7h21.2L736.1,177z M817.2,171.9c0,24.3-12.2,36.6-34.3,36.6
	c-21.7,0-33-11.8-33-37.2v-42.9h21.2V173c0,11.9,4.1,18.7,12.4,18.7S796,185.6,796,173v-44.7h21.2L817.2,171.9z"/>
</svg>
