<?xml version="1.0" encoding="UTF-8"?>
<svg id="Layer_1" data-name="Layer 1" xmlns="http://www.w3.org/2000/svg" viewBox="0 0 161.78 37.13">
  <defs>
    <style>
      .cls-1 {
        fill: #fff;
      }

      .cls-2 {
        fill: #fdf007;
      }

      .cls-3 {
        fill: #6c787f;
      }

      .cls-4 {
        fill: #0b4da0;
      }

      .cls-5 {
        fill: #7a848c;
      }
    </style>
  </defs>
  <rect class="cls-1" x="33.76" y="14.76" width="29.48" height="19.91"/>
  <rect class="cls-4" x="34.12" y="15.12" width="28.76" height="19.19"/>
  <polygon class="cls-2" points="48.49 17.21 48.76 18.06 49.66 18.06 48.93 18.58 49.21 19.43 48.49 18.9 47.77 19.43 48.05 18.58 47.32 18.06 48.22 18.06 48.49 17.21"/>
  <polygon class="cls-2" points="48.49 30.01 48.76 30.86 49.66 30.86 48.93 31.38 49.21 32.23 48.49 31.7 47.77 32.23 48.05 31.38 47.32 30.86 48.22 30.86 48.49 30.01"/>
  <polygon class="cls-2" points="45.3 18.06 45.58 18.91 46.47 18.91 45.75 19.43 46.03 20.28 45.3 19.75 44.59 20.28 44.86 19.43 44.14 18.91 45.03 18.91 45.3 18.06"/>
  <polygon class="cls-2" points="42.96 20.41 43.23 21.26 44.13 21.26 43.4 21.78 43.68 22.63 42.96 22.1 42.24 22.63 42.52 21.78 41.79 21.26 42.69 21.26 42.96 20.41"/>
  <polygon class="cls-2" points="42.1 23.6 42.37 24.45 43.26 24.45 42.54 24.97 42.81 25.82 42.1 25.29 41.38 25.82 41.66 24.97 40.93 24.45 41.82 24.45 42.1 23.6"/>
  <polygon class="cls-2" points="42.95 26.8 43.23 27.65 44.12 27.64 43.39 28.17 43.67 29.01 42.95 28.48 42.23 29.01 42.51 28.17 41.79 27.64 42.68 27.65 42.95 26.8"/>
  <polygon class="cls-2" points="45.3 29.14 45.58 29.99 46.47 29.99 45.75 30.51 46.03 31.36 45.3 30.83 44.59 31.36 44.86 30.51 44.14 29.99 45.03 29.99 45.3 29.14"/>
  <polygon class="cls-2" points="51.68 18.06 51.4 18.91 50.51 18.91 51.23 19.43 50.95 20.28 51.68 19.75 52.4 20.28 52.12 19.43 52.84 18.91 51.95 18.91 51.68 18.06"/>
  <polygon class="cls-2" points="54.02 20.41 53.75 21.26 52.85 21.26 53.58 21.78 53.3 22.63 54.02 22.1 54.74 22.63 54.46 21.78 55.18 21.26 54.29 21.26 54.02 20.41"/>
  <polygon class="cls-2" points="54.89 23.6 54.61 24.45 53.72 24.45 54.44 24.97 54.16 25.82 54.89 25.29 55.61 25.82 55.33 24.97 56.05 24.45 55.16 24.45 54.89 23.6"/>
  <polygon class="cls-2" points="54.03 26.8 53.76 27.65 52.86 27.64 53.59 28.17 53.31 29.01 54.03 28.48 54.75 29.01 54.47 28.17 55.2 27.64 54.3 27.65 54.03 26.8"/>
  <polygon class="cls-2" points="51.68 29.14 51.4 29.99 50.51 29.99 51.23 30.51 50.95 31.36 51.68 30.83 52.4 31.36 52.12 30.51 52.84 29.99 51.95 29.99 51.68 29.14"/>
  <path class="cls-5" d="m38.7,11.3v-1.59c-.58-.49-2.88-1.48-4.29-1.8v1.12c1.61.4,3.61,1.56,4.29,2.26"/>
  <path class="cls-5" d="m39.87,13.67h1.37c.04-2-1.58-3.24-1.82-3.42v1.91c.52.85.45,1.51.45,1.51"/>
  <path class="cls-5" d="m43.27,9.64v1.72c.69.72,1.1,1.28,1.43,2.32h1.45c-.39-1.58-1.31-2.87-2.87-4.04"/>
  <path class="cls-5" d="m42.39,10.58v-1.55c-1.33-.86-3.95-2.03-6.57-2.58v1.11c2.52.61,5.2,1.92,6.57,3.02"/>
  <path class="cls-5" d="m46.11,9.64v-1.54c-1.59-1-4.87-2.41-8.74-3.22v1.11c3.72.9,6.54,2.18,8.74,3.65"/>
  <path class="cls-5" d="m47.14,8.76s0,1.65,0,1.65c1.02.81,2,1.87,2.65,3.27h1.54c-.53-1.74-2.49-3.85-4.19-4.92"/>
  <path class="cls-5" d="m50.26,8.68v-1.54c-3.05-1.8-7.61-3.39-11.24-4.02v1.11c4.1.82,8.97,2.85,11.24,4.45"/>
  <path class="cls-5" d="m55.18,13.68h1.61c-1.16-2.77-4.05-4.99-5.41-5.84v1.63c2.05,1.52,2.81,2.6,3.8,4.21"/>
  <path class="cls-5" d="m54.34,7.71v-1.59c-2.47-1.51-7.46-3.77-13.54-4.94v1.16c4.62.96,10.52,3.26,13.54,5.38"/>
  <path class="cls-5" d="m60.4,13.68h1.76c-1.95-3.32-4.18-5.22-6.6-6.79v1.67c1.79,1.26,3.7,3.13,4.84,5.12"/>
  <path class="cls-5" d="m33.26,8.72v-1.05c-1.58-.3-4.37-.49-5.59-.33v.82c1.84-.1,4.54.25,5.59.56"/>
  <path class="cls-5" d="m26.44,8.24v-.79c-2.94.31-4.95,1.32-6.12,2.18v.68c1.66-1.34,3.97-1.9,6.12-2.07"/>
  <path class="cls-5" d="m19.64,11.02v-.76c-2.7,3.04.68,5.56,1.04,5.82v-1.04c-1.89-1.43-1.67-3.17-1.04-4.01"/>
  <path class="cls-5" d="m21.7,15.67v1.11c1.84,1.02,3.68,1.66,6.31,2.13l-.02-1.51c-1.79-.11-4.24-.62-6.29-1.73"/>
  <path class="cls-5" d="m28.89,17.45v1.57c1.53.13,2.98.17,3.77.17v-1.77c-1.17.08-3.33.09-3.77.03"/>
  <path class="cls-5" d="m34.66,7.29v-1.07c-1.89-.38-5.56-.67-7.73-.47v.83c2.87-.11,5.7.26,7.73.7"/>
  <path class="cls-5" d="m27.02,21.94v-1.68c-2.81-.25-7.14-1.23-9.82-3.2v1.12c2.95,2.22,7.6,3.45,9.82,3.76"/>
  <path class="cls-5" d="m16.18,17.34v-1.11c-2.38-2.27-1.92-4.57-.38-6.06v-.69c-2.96,2.69-1.87,5.94.38,7.86"/>
  <path class="cls-5" d="m28.01,20.35v1.74c1.71.24,3.2.32,4.65.32v-1.92c-1.57,0-3.95-.07-4.65-.14"/>
  <path class="cls-5" d="m16.6,8.82v.65c2.56-1.91,6.41-2.68,9.11-2.82v-.8c-3.35.22-7.19,1.5-9.11,2.97"/>
  <path class="cls-5" d="m12.43,18.36v1.2c3.68,3.32,9.73,5.12,13.38,5.75v-1.87c-3.37-.38-9.45-1.68-13.38-5.08"/>
  <path class="cls-5" d="m36.21,5.72v-1.06c-2.38-.43-6.48-.9-10.33-.55v.84c3.23-.23,7.79.2,10.33.77"/>
  <path class="cls-5" d="m26.89,23.56v1.94c1.63.33,4.31.48,5.77.53v-2.16c-.87.03-4.68-.19-5.77-.31"/>
  <path class="cls-5" d="m24.65,5.02v-.81c-2.86.25-7.97,1.26-11.36,3.56v.66c3.3-2.25,8.41-3.24,11.36-3.4"/>
  <path class="cls-5" d="m12.37,9.1v-.67c-1.55,1.17-5.35,5.11-.95,10.11v-1.21c-.98-1.09-3.34-4.64.95-8.23"/>
  <path class="cls-5" d="m37.87,3.98v-1.08c-2.88-.56-8.48-1.05-12.89-.62v.84c3.9-.3,9.44.14,12.89.87"/>
  <path class="cls-5" d="m25.69,26.88v2.05c2.17.42,4.87.68,6.97.76v-2.33c-2.51-.04-4.67-.16-6.97-.48"/>
  <path class="cls-5" d="m24.5,28.74v-1.98c-6.03-.85-12.68-3.05-16.8-7.09v1.28c4.88,4.86,12.98,7.1,16.8,7.79"/>
  <path class="cls-5" d="m9.96,6.61v.65c4.03-2.57,9.56-3.67,13.78-4.05v-.82c-4.06.35-10,1.73-13.78,4.22"/>
  <path class="cls-5" d="m6.68,19.7v-1.32c-1.58-2.15-3.13-6.4,2.33-10.47v-.66c-6.13,4.38-4.6,9.75-2.33,12.45"/>
  <path class="cls-5" d="m2.45,20.53v1.43c4.63,6.01,14.19,9.54,20.13,10.79v-2.19c-6.25-1.06-15.73-4.12-20.13-10.03"/>
  <path class="cls-5" d="m39.64,2.09V.97c-2.85-.59-9.76-1.36-15.86-.73v.87c5.09-.45,11.52.1,15.86.99"/>
  <path class="cls-5" d="m22.55,1.21V.36c-5.29.54-11.85,2.37-15.69,4.87v.67C11.68,2.95,18.08,1.63,22.55,1.21"/>
  <path class="cls-5" d="m23.88,30.77v2.25c1.36.35,6.51,1.08,8.78,1.1v-2.58c-3.47-.11-7.01-.49-8.78-.77"/>
  <path class="cls-5" d="m5.83,6.59v-.68c-1.55,1-8.9,6.52-4.39,14.48v-1.61c-2.82-5.87,1.48-10.13,4.39-12.19"/>
  <g>
    <path class="cls-3" d="m74.68,12.62h5.01v1.97h-5.01v2.57h5.88v1.98h-8.12v-10.84h7.98v1.99h-5.73v2.33Z"/>
    <path class="cls-3" d="m88.99,11.32v4.43c0,.73-.15,1.36-.46,1.9-.3.54-.73.95-1.28,1.24-.55.28-1.19.43-1.9.43s-1.37-.14-1.93-.43c-.56-.28-.99-.69-1.3-1.23-.31-.54-.46-1.17-.46-1.91v-4.43h2.2v4.43c0,.51.14.91.42,1.19s.64.42,1.08.42.78-.14,1.05-.42c.27-.28.41-.67.41-1.19v-4.43h2.18Z"/>
    <path class="cls-3" d="m91.15,13.14c.35-.65.83-1.15,1.45-1.49s1.33-.52,2.14-.52,1.5.17,2.13.52c.63.35,1.12.83,1.48,1.44.36.62.54,1.31.54,2.1s-.17,1.49-.51,2.11-.81,1.12-1.41,1.47c-.59.35-1.25.53-1.97.53-.46,0-.89-.08-1.29-.25s-.74-.4-1-.7l.11,3.53h-2.18v-6.44c0-.89.17-1.66.52-2.3Zm4.98,3.58c.36-.39.54-.9.54-1.52s-.18-1.12-.54-1.51c-.36-.39-.82-.58-1.39-.58s-1.01.19-1.37.57-.54.89-.54,1.52.18,1.13.54,1.52.82.59,1.39.59,1.01-.2,1.37-.59Z"/>
    <path class="cls-3" d="m100.82,18.4c-.53-.61-.79-1.53-.79-2.76,0-.76.1-1.52.3-2.27.2-.75.49-1.45.88-2.08h2.31c-.41.62-.71,1.3-.92,2.05-.21.74-.31,1.48-.31,2.22,0,.61.1,1.06.3,1.34s.49.43.88.43c.36,0,.64-.13.84-.39s.3-.63.3-1.12v-2.23h1.96v2.23c0,1.01.37,1.51,1.12,1.51.79,0,1.19-.59,1.19-1.77,0-.74-.1-1.48-.31-2.22-.21-.74-.52-1.43-.92-2.05h2.31c.39.64.68,1.34.88,2.09.2.76.3,1.51.3,2.26,0,1.23-.26,2.15-.79,2.76-.53.61-1.27.92-2.21.92-1.19,0-2.03-.5-2.54-1.49-.5,1-1.35,1.49-2.54,1.49-.94,0-1.68-.3-2.21-.92Z"/>
    <path class="cls-3" d="m113.22,19.16v-5.93h-1.3v-1.91h9.33v1.91h-1.49v3.28c0,.6.25.9.75.9.16,0,.32-.02.48-.05l.14,1.83c-.36.08-.7.13-1.01.13-.85,0-1.48-.22-1.91-.67-.43-.44-.64-1.1-.64-1.97v-3.45h-2.17v5.93h-2.18Z"/>
    <path class="cls-3" d="m123.9,18.81c-.55-.35-.98-.83-1.29-1.45-.31-.62-.47-1.32-.47-2.09s.15-1.5.46-2.12c.31-.62.73-1.11,1.28-1.46s1.17-.53,1.88-.53c.47,0,.92.1,1.34.29.42.19.76.45,1.02.77l.05-.9h2.09v5.48c0,.19.04.33.11.41.08.08.19.12.34.12.06,0,.18-.01.35-.03v1.85c-.34.1-.66.14-.95.14-.46,0-.85-.1-1.18-.3-.33-.2-.55-.5-.68-.89-.25.38-.59.68-1.03.9-.44.22-.92.34-1.43.34-.71,0-1.33-.17-1.89-.52Zm3.64-2.05c.35-.4.53-.91.53-1.52s-.18-1.12-.53-1.52c-.35-.4-.8-.6-1.33-.6s-1,.2-1.35.61c-.35.41-.53.92-.53,1.54s.18,1.1.53,1.49c.35.4.8.59,1.35.59s.98-.2,1.33-.6Z"/>
    <path class="cls-3" d="m131.4,9.94c-.2-.2-.3-.47-.3-.8s.1-.6.3-.8.46-.31.77-.31.58.1.78.31.3.47.3.8-.1.6-.3.8-.46.3-.78.3-.57-.1-.77-.3Zm1.58,8.73c-.39-.43-.59-1.04-.59-1.85v-5.51h2.18v5.35c0,.5.21.75.64.75.19,0,.42-.04.67-.13l.19,1.73c-.47.19-.94.29-1.41.29-.74,0-1.3-.21-1.69-.64Zm1.01-8.73c-.2-.2-.3-.47-.3-.8s.1-.6.3-.8c.2-.2.45-.31.76-.31s.58.1.79.31c.2.2.31.47.31.8s-.1.6-.31.8c-.2.2-.46.3-.79.3s-.57-.1-.76-.3Z"/>
    <path class="cls-3" d="m139.6,15.82v3.32h-2.2v-7.82h2.2v3.52l2.54-3.52h2.58l-3.05,3.97,3.18,3.85h-2.63l-2.62-3.32Z"/>
    <path class="cls-3" d="m147.01,18.79c-.63-.35-1.12-.84-1.47-1.47-.35-.63-.53-1.33-.53-2.11s.18-1.48.53-2.1c.35-.62.84-1.1,1.47-1.45.63-.35,1.33-.53,2.11-.53s1.5.17,2.14.52,1.12.83,1.48,1.45c.35.62.53,1.32.53,2.09s-.18,1.5-.53,2.13-.85,1.12-1.48,1.47-1.34.53-2.14.53-1.49-.18-2.11-.53Zm3.5-2.07c.36-.4.54-.9.54-1.51s-.18-1.11-.54-1.5c-.36-.39-.82-.59-1.39-.59s-1.01.2-1.37.59c-.35.39-.53.89-.53,1.5s.18,1.11.54,1.51c.36.4.82.59,1.37.59s1.01-.2,1.37-.59Zm-2.18-6.65l.79-2.99,1.93.47-1.2,2.79-1.51-.27Z"/>
    <path class="cls-3" d="m74.73,29.36v5.03h-2.3v-10.84h2.3v4.83l3.74-4.83h2.7l-4.17,5.31,4.34,5.52h-2.7l-3.9-5.03Z"/>
    <path class="cls-3" d="m83.38,34.03c-.63-.35-1.12-.84-1.47-1.47-.35-.63-.53-1.33-.53-2.11s.18-1.48.53-2.1c.35-.62.84-1.1,1.47-1.45s1.33-.53,2.11-.53,1.5.17,2.14.52,1.12.83,1.48,1.45.53,1.32.53,2.09-.18,1.5-.53,2.13c-.35.63-.85,1.12-1.48,1.47-.63.35-1.34.53-2.14.53s-1.49-.18-2.11-.53Zm3.5-2.07c.36-.4.54-.9.54-1.51s-.18-1.11-.54-1.5c-.36-.39-.82-.59-1.39-.59s-1.01.2-1.37.59c-.35.39-.53.89-.53,1.5s.18,1.11.54,1.51c.36.4.82.59,1.37.59s1.01-.2,1.37-.59Z"/>
    <path class="cls-3" d="m91.58,33.92c-.39-.43-.59-1.04-.59-1.85v-5.51h2.18v5.35c0,.5.21.75.64.75.19,0,.42-.04.67-.13l.19,1.73c-.47.19-.94.29-1.41.29-.74,0-1.3-.21-1.69-.64Z"/>
    <path class="cls-3" d="m94.72,26.56h2.42l1.91,5.43,1.93-5.43h2.41l-3.02,7.82h-2.63l-3.02-7.82Z"/>
    <path class="cls-3" d="m105.82,34.03c-.63-.35-1.12-.84-1.47-1.47-.35-.63-.53-1.33-.53-2.11s.18-1.48.53-2.1c.35-.62.84-1.1,1.47-1.45s1.33-.53,2.11-.53,1.5.17,2.14.52,1.12.83,1.48,1.45.53,1.32.53,2.09-.18,1.5-.53,2.13c-.35.63-.85,1.12-1.48,1.47-.63.35-1.34.53-2.14.53s-1.49-.18-2.11-.53Zm3.5-2.07c.36-.4.54-.9.54-1.51s-.18-1.11-.54-1.5c-.36-.39-.82-.59-1.39-.59s-1.01.2-1.37.59c-.35.39-.53.89-.53,1.5s.18,1.11.54,1.51c.36.4.82.59,1.37.59s1.01-.2,1.37-.59Z"/>
    <path class="cls-3" d="m114.49,23.66c.61-.64,1.52-.96,2.73-.96.73,0,1.35.13,1.86.39.51.26.9.62,1.16,1.07.26.45.39.95.39,1.49,0,.49-.1.93-.3,1.31-.2.38-.48.68-.86.89.73.21,1.28.59,1.66,1.14s.57,1.21.57,2.01c0,.68-.15,1.3-.44,1.84-.29.54-.71.96-1.24,1.26-.53.3-1.13.45-1.79.45-.51,0-.99-.08-1.41-.24-.43-.16-.79-.4-1.08-.72v3.53h-2.18v-10.89c0-1.08.31-1.94.92-2.58Zm1.81,8.32c.36.38.85.57,1.47.57.51,0,.93-.16,1.25-.48.32-.32.48-.75.48-1.3s-.16-.97-.48-1.28c-.32-.31-.79-.47-1.41-.47h-1v-1.7h.51c.42,0,.74-.12.98-.37s.35-.57.35-.98-.12-.71-.35-.96c-.23-.24-.55-.36-.96-.36-.46,0-.81.14-1.04.43s-.35.68-.35,1.18v4.16c0,.66.18,1.19.54,1.57Z"/>
    <path class="cls-3" d="m124.69,34.03c-.63-.35-1.12-.84-1.47-1.47-.35-.63-.53-1.33-.53-2.11s.18-1.48.53-2.1c.35-.62.84-1.1,1.47-1.45s1.33-.53,2.11-.53,1.5.17,2.14.52,1.12.83,1.48,1.45.53,1.32.53,2.09-.18,1.5-.53,2.13c-.35.63-.85,1.12-1.48,1.47-.63.35-1.34.53-2.14.53s-1.49-.18-2.11-.53Zm3.5-2.07c.36-.4.54-.9.54-1.51s-.18-1.11-.54-1.5c-.36-.39-.82-.59-1.39-.59s-1.01.2-1.37.59c-.35.39-.53.89-.53,1.5s.18,1.11.54,1.51c.36.4.82.59,1.37.59s1.01-.2,1.37-.59Z"/>
    <path class="cls-3" d="m139.59,26.56v4.43c0,.73-.15,1.36-.46,1.9-.3.54-.73.95-1.28,1.24-.55.28-1.19.43-1.9.43s-1.37-.14-1.93-.43-.99-.69-1.3-1.23-.46-1.17-.46-1.91v-4.43h2.2v4.43c0,.51.14.91.42,1.19s.64.42,1.08.42.78-.14,1.05-.42c.27-.28.41-.67.41-1.19v-4.43h2.18Zm-4.46-1.14l.79-2.99,1.93.47-1.2,2.79-1.51-.27Z"/>
    <path class="cls-3" d="m144.31,29.5l-1.78,4.88h-2.33l3.15-7.8-.45-1.17c-.16-.49-.46-.74-.92-.74-.28,0-.59.07-.95.21l-.66-1.69c.66-.33,1.31-.5,1.93-.5s1.15.17,1.53.51.69.86.95,1.57l3.53,9.62h-2.33l-1.67-4.88Z"/>
    <path class="cls-3" d="m149.73,33.92c-.39-.43-.59-1.04-.59-1.85v-5.51h2.18v5.35c0,.5.21.75.64.75.19,0,.42-.04.67-.13l.19,1.73c-.47.19-.94.29-1.41.29-.74,0-1.3-.21-1.69-.64Z"/>
    <path class="cls-3" d="m155.52,34.03c-.63-.35-1.12-.84-1.47-1.47-.35-.63-.53-1.33-.53-2.11s.18-1.48.53-2.1c.35-.62.84-1.1,1.47-1.45s1.33-.53,2.11-.53,1.5.17,2.14.52,1.12.83,1.48,1.45.53,1.32.53,2.09-.18,1.5-.53,2.13c-.35.63-.85,1.12-1.48,1.47-.63.35-1.34.53-2.14.53s-1.49-.18-2.11-.53Zm3.5-2.07c.36-.4.54-.9.54-1.51s-.18-1.11-.54-1.5c-.36-.39-.82-.59-1.39-.59s-1.01.2-1.37.59c-.35.39-.53.89-.53,1.5s.18,1.11.54,1.51c.36.4.82.59,1.37.59s1.01-.2,1.37-.59Z"/>
  </g>
</svg>