<?xml version="1.0" encoding="UTF-8"?><svg id="HR" xmlns="http://www.w3.org/2000/svg" viewBox="0 0 188.61 62.38"><defs><style>.cls-1{fill:#224e9c;stroke-width:0px;}</style></defs><path class="cls-1" d="m30.43,23.15l6.51-9.28v-.09h-5.9v-3.25h11v2.25l-6.31,9.13v.09h6.42v3.25h-11.73v-2.09Z"/><path class="cls-1" d="m48.29,21.84l-.83,3.41h-4.08l4.28-14.72h5.24l4.39,14.72h-4.26l-.93-3.41h-3.8Zm3.25-2.93l-.67-2.64c-.22-.83-.5-2.03-.72-2.9h-.06c-.22.87-.44,2.1-.65,2.93l-.63,2.62h2.73Z"/><path class="cls-1" d="m62.24,10.53h3.95v9.08c0,4.28-2.05,5.87-5.59,5.87-.88,0-1.75-.11-2.6-.35l.41-3.17c.56.15,1.14.23,1.73.24,1.27,0,2.1-.57,2.1-2.6v-9.08Z"/><path class="cls-1" d="m78.03,19.31h-5.28v2.71h5.92v3.23h-9.87v-14.72h9.56v3.21h-5.61v2.38h5.28v3.19Z"/><path class="cls-1" d="m80.84,10.73c1.55-.22,3.12-.32,4.69-.31,2.82,0,4.58.46,6.05,1.46,1.61,1.11,2.66,2.95,2.66,5.66,0,2.99-1.13,4.93-2.58,6.05-1.62,1.27-4.02,1.81-6.9,1.81-1.31.02-2.63-.06-3.93-.24v-14.43Zm3.95,11.57c.27.04.55.05.83.04,2.56.04,4.44-1.38,4.44-4.69,0-2.86-1.7-4.21-4.06-4.21-.4-.01-.81.02-1.2.09v8.78Z"/><path class="cls-1" d="m96.34,25.25v-14.72h4.66l2.33,4.52c.88,1.66,1.66,3.39,2.31,5.15h.07c-.22-2.06-.32-4.14-.31-6.21v-3.46h3.6v14.72h-4.15l-2.49-4.88c-.92-1.73-1.76-3.51-2.49-5.32h-.07c.09,2,.13,4.21.13,6.59v3.62l-3.6-.02Z"/><path class="cls-1" d="m125.58,17.73c0,4.74-2.84,7.76-7.38,7.76s-7.07-3.43-7.07-7.51c0-4.28,2.81-7.69,7.32-7.69,4.73-.01,7.13,3.5,7.13,7.43Zm-10.28.18c0,2.75,1.2,4.45,3.11,4.45s3.01-1.85,3.01-4.5-1.14-4.45-3.03-4.45-3.09,1.79-3.09,4.5h0Z"/><path class="cls-1" d="m131.19,23.15l6.51-9.28v-.09h-5.9v-3.25h11.01v2.25l-6.32,9.13v.09h6.42v3.25h-11.73v-2.09Z"/><path class="cls-1" d="m149.05,21.84l-.83,3.41h-4.07l4.28-14.72h5.24l4.39,14.72h-4.26l-.94-3.41h-3.81Zm3.25-2.93l-.68-2.64c-.22-.83-.5-2.03-.72-2.9h-.04c-.22.87-.44,2.1-.65,2.93l-.63,2.62h2.73Z"/><path class="cls-1" d="m104.63,40.58c-.53-.02-1.06.02-1.58.1v4.15h1.22c1.77,0,2.78-.89,2.78-2.18s-.86-2.05-2.41-2.08Z"/><path class="cls-1" d="m121.48,40.63h-.05c-.26,1.04-.52,2.49-.78,3.48l-.75,3.11h3.25l-.81-3.13c-.26-.98-.59-2.41-.86-3.45Z"/><path class="cls-1" d="m13.62,40.71c-.48-.01-.96.02-1.43.1v10.43c.33.04.66.06.99.05,3.04.05,5.27-1.63,5.27-5.58,0-3.39-2.03-5-4.83-5Z"/><path class="cls-1" d="m70.58,40.69c-2.23,0-3.66,2.13-3.66,5.35s1.43,5.29,3.68,5.29,3.58-2.21,3.58-5.35c0-3.01-1.35-5.29-3.61-5.29Z"/><path class="cls-1" d="m1.21,30.5v31.2h186.06v-31.2H1.21Zm19.16,22.28c-1.92,1.51-4.78,2.15-8.21,2.15-2.26,0-3.77-.13-4.67-.28v-17.16c1.85-.26,3.71-.38,5.58-.36,3.35,0,5.45.54,7.19,1.74,1.92,1.33,3.17,3.5,3.17,6.72,0,3.56-1.35,5.86-3.06,7.19Zm17.28,1.97h-11.74v-17.49h11.37v3.82h-6.67v2.83h6.28v3.79h-6.28v3.22h7.03v3.84Zm17.59,0l-.21-6.25c-.05-2-.1-4.33-.08-7.06h-.08c-.55,2.31-1.27,4.93-1.84,6.85l-1.74,6.1h-3.66l-1.48-6.07c-.44-1.89-.99-4.49-1.38-6.88h-.05c-.1,2.47-.21,5.06-.28,7.06l-.26,6.25h-4.3l1.06-17.49h6.31l1.17,4.7c.47,1.95.98,4.28,1.35,6.41h.09c.49-2.13,1.06-4.59,1.58-6.43l1.3-4.68h6.18l.89,17.49h-4.57Zm15.13.29c-5.43,0-8.41-4.07-8.41-8.93s3.35-9.13,8.69-9.13c5.63.01,8.49,4.18,8.49,8.85,0,5.63-3.38,9.21-8.78,9.21h0Zm20.99-.29l-3.69-7.08-1.4,1.79v5.29h-4.65v-17.49h4.64v7.42h.05c.36-.65.75-1.3,1.14-1.92l3.35-5.5h5.77l-5.55,7.45,5.77,10.04h-5.44Zm16.22,0c-.26-.52-.7-1.87-1.22-4.02-.47-2.1-1.11-2.54-2.57-2.54h-.75v6.57h-4.65v-17.26c1.87-.26,3.77-.38,5.66-.36,2.67,0,4.59.36,5.92,1.35,1.11.86,1.74,2.1,1.74,3.82,0,2.18-1.63,3.74-3.01,4.23v.1c1.17.49,1.79,1.61,2.23,3.11.55,1.79,1.11,4.33,1.46,5.01h-4.8Zm17.3,0l-1.11-4.05h-4.52l-.98,4.05h-4.85l5.09-17.49h6.23l5.22,17.49h-5.06Zm15.86-3.61c1.07,0,2.13-.17,3.14-.52l.65,3.68c-.67.31-2.31.7-4.41.7-6.54,0-9.42-4.07-9.42-8.72,0-6.18,4.52-9.32,9.73-9.32,2.03,0,3.66.39,4.39.78l-.9,3.68c-1.03-.42-2.13-.63-3.24-.62-2.7,0-5.04,1.58-5.04,5.17,0,3.19,1.89,5.16,5.11,5.16h0Zm11,3.61h-4.7v-17.49h4.7v17.49Zm11.26-6.69c0,5.09-2.44,6.98-6.65,6.98-1.04,0-2.08-.13-3.09-.41l.49-3.77c.67.18,1.36.28,2.05.29,1.51,0,2.49-.67,2.49-3.09v-10.79h4.71v10.8Zm17.98-1.14c0,5.4-2.7,8.12-7.6,8.12s-7.32-2.62-7.32-8.25v-9.52h4.7v9.92c0,2.65.91,4.15,2.75,4.15s2.78-1.38,2.78-4.15v-9.92h4.7v9.66Z"/></svg>