<?xml version="1.0" encoding="utf-8"?>
<!-- Generator: Adobe Illustrator 27.7.0, SVG Export Plug-In . SVG Version: 6.00 Build 0)  -->
<svg version="1.1" id="Camada_1" xmlns="http://www.w3.org/2000/svg" xmlns:xlink="http://www.w3.org/1999/xlink" x="0px" y="0px"
	 viewBox="0 0 1226.5 290.8" style="enable-background:new 0 0 1226.5 290.8;" xml:space="preserve">
<style type="text/css">
	.st0{fill:#0C4DA2;}
	.st1{fill:#FFFFFF;}
	.st2{fill:#FFF200;}
</style>
<g id="Elements">
	<g>
		<path class="st0" d="M393.4,75.9h-12l-4,13.9h-19.5l3.9-13.9h-8.7V59.5h13.3l4-14.6H359V28.9h16l4.2-15h19.6l-4.2,15h11.9l4.2-15
			h19.5l-4.2,15h9.9V45h-14.4l-4,14.6h12.4v16.4h-17.1l-3.8,13.9h-19.4L393.4,75.9z M398,59.5l4.1-14.6h-12L386,59.5H398z"/>
		<path class="st0" d="M445.8,59.7V10.1h22.5v49.6c0,7.3,5,12.1,12.6,12.1c7.7,0,12.6-4.8,12.6-12.1V10.1h22.4v49.5
			c0,20-14,33.2-35,33.2C459.6,92.8,445.8,79.6,445.8,59.7z"/>
		<path class="st0" d="M523.5,81l11.9-15.8c4.9,5.3,12.7,8.7,20.4,8.7c5,0,10-1.6,10-6.5c0-5.2-4.5-6.7-12.7-8.4
			c-17.3-3.5-27.3-10.3-27.3-24.8c0-16.6,15-25.6,32.8-25.6c12.4,0,22.5,3.5,29.8,10.7l-11.7,15c-6.2-4.7-12.1-6.9-17.9-6.9
			c-5.3,0-9.3,1.6-9.3,5.5s3.1,5.9,12.5,7.9c17.9,3.6,27.7,11.8,27.7,26.4c0,16.7-14.8,25.5-34.4,25.5C542.2,93,530.5,87.8,523.5,81
			z"/>
		<path class="st0" d="M619,10.2h27l29.8,81.1h-23.4l-5-14.8h-30.2l-5,14.8h-23.1L619,10.2z M632.2,33l-8.5,25h17.2l-8.5-25H632.2z"
			/>
		<path class="st0" d="M356.5,106.9h22.6v81.3h-22.6V106.9z"/>
		<path class="st0" d="M393.4,106.9h22.4v60.7H450v20.6h-56.6V106.9z"/>
		<path class="st0" d="M526.9,127.7v60.5h-22.5v-60.5h-23.1v-20.8h68.5v20.8H526.9z"/>
		<path class="st0" d="M555.5,156.4v-49.5H578v49.6c0,7.3,5,12.1,12.6,12.1c7.7,0,12.6-4.8,12.6-12.1v-49.6h22.4v49.5
			c0,20-14,33.2-35,33.2C569.4,189.6,555.5,176.4,555.5,156.4z"/>
		<path class="st0" d="M635,147.6c0-24.4,17.9-42.2,42.4-42.2s42.4,17.7,42.4,42c0,24.5-17.9,42.3-42.6,42.3
			C652.9,189.7,635,172.1,635,147.6z M696.7,147.6c0-12.4-8-21.5-19.2-21.5c-11.2,0-19.4,9-19.4,21.4c0,12.5,8.3,21.5,19.4,21.5
			C688.6,169,696.7,159.9,696.7,147.6z"/>
		<path class="st0" d="M349.3,203.8h23.6l17.1,56.8h0.2l17.4-56.8h23.3l-27.5,81.1h-26.7L349.3,203.8z"/>
		<path class="st0" d="M430.1,244.4c0-24.4,17.9-42.2,42.4-42.2s42.4,17.7,42.4,42c0,24.5-17.9,42.3-42.6,42.3
			C448.1,286.5,430.1,268.8,430.1,244.4z M491.8,244.4c0-12.4-8-21.5-19.2-21.5c-11.2,0-19.4,9-19.4,21.4c0,12.5,8.3,21.5,19.4,21.5
			C483.8,265.8,491.8,256.7,491.8,244.4z"/>
		<path class="st0" d="M563.3,224.5v60.5h-22.5v-60.5h-23.1v-20.8h68.5v20.8H563.3z"/>
		<path class="st0" d="M588.9,244.4c0-24.4,17.9-42.2,42.4-42.2s42.4,17.7,42.4,42c0,24.5-17.9,42.3-42.6,42.3
			C606.9,286.5,588.9,268.8,588.9,244.4z M650.6,244.4c0-12.4-8-21.5-19.2-21.5c-11.2,0-19.4,9-19.4,21.4c0,12.5,8.3,21.5,19.4,21.5
			C642.6,265.8,650.6,256.7,650.6,244.4z"/>
	</g>
	<g>
		<rect x="797.7" y="4.7" class="st1" width="428.8" height="286.1"/>
		<rect x="803.3" y="10.3" class="st0" width="417.6" height="274.8"/>
		<polygon class="st2" points="1011.9,35.8 1015.9,48.5 1029.3,48.4 1018.4,56.2 1022.6,68.9 1011.9,61 1001.1,68.9 1005.3,56.2 
			994.5,48.4 1007.8,48.5 		"/>
		<polygon class="st2" points="1011.9,226.6 1015.9,239.3 1029.3,239.2 1018.4,247 1022.6,259.7 1011.9,251.8 1001.1,259.7 
			1005.3,247 994.5,239.2 1007.8,239.3 		"/>
		<polygon class="st2" points="964.4,48.5 968.5,61.2 981.8,61.1 971,68.9 975.2,81.5 964.4,73.7 953.7,81.5 957.8,68.9 947,61.1 
			960.4,61.2 		"/>
		<polygon class="st2" points="929.5,83.5 933.5,96.2 946.9,96.1 936,103.9 940.2,116.6 929.5,108.7 918.7,116.6 922.9,103.9 
			912,96.1 925.4,96.2 		"/>
		<polygon class="st2" points="916.6,131.1 920.6,143.8 934,143.7 923.1,151.5 927.3,164.1 916.6,156.3 905.8,164.1 910,151.5 
			899.2,143.7 912.5,143.8 		"/>
		<polygon class="st2" points="929.3,178.7 933.4,191.4 946.7,191.3 935.9,199.1 940.1,211.8 929.3,203.8 918.6,211.8 922.8,199.1 
			911.9,191.3 925.3,191.4 		"/>
		<polygon class="st2" points="964.4,213.7 968.5,226.4 981.8,226.3 971,234.1 975.2,246.8 964.4,238.9 953.7,246.8 957.8,234.1 
			947,226.3 960.4,226.4 		"/>
		<polygon class="st2" points="1059.4,48.5 1055.3,61.2 1042,61.1 1052.8,68.9 1048.6,81.5 1059.4,73.7 1070.1,81.5 1065.9,68.9 
			1076.8,61.1 1063.5,61.2 		"/>
		<polygon class="st2" points="1094.3,83.5 1090.3,96.2 1076.9,96.1 1087.7,103.9 1083.5,116.6 1094.3,108.7 1105.1,116.6 
			1100.9,103.9 1111.7,96.1 1098.4,96.2 		"/>
		<polygon class="st2" points="1107.2,131.1 1103.1,143.8 1089.8,143.7 1100.6,151.5 1096.4,164.1 1107.2,156.3 1118,164.1 
			1113.8,151.5 1124.6,143.7 1111.3,143.8 		"/>
		<polygon class="st2" points="1094.4,178.7 1090.4,191.4 1077.1,191.3 1087.9,199.1 1083.7,211.8 1094.4,203.8 1105.2,211.8 
			1101,199.1 1111.8,191.3 1098.5,191.4 		"/>
		<polygon class="st2" points="1059.4,213.7 1055.3,226.4 1042,226.3 1052.8,234.1 1048.6,246.8 1059.4,238.9 1070.1,246.8 
			1065.9,234.1 1076.8,226.3 1063.5,226.4 		"/>
	</g>
	<path class="st0" d="M315.1,209.5L209.6,0L0,105.5l79,156.8H25.2V285h288.4v-22.6H210.3L315.1,209.5z M30.4,115.6l169.1-85.2
		l85.2,169.1l-124.8,62.8h-55.6L30.4,115.6z"/>
</g>
<g id="Clear_space">
</g>
</svg>
