<?xml version="1.0" encoding="utf-8"?>
<!-- Generator: Adobe Illustrator 27.6.1, SVG Export Plug-In . SVG Version: 6.00 Build 0)  -->
<svg version="1.1" id="Layer_1" xmlns="http://www.w3.org/2000/svg" xmlns:xlink="http://www.w3.org/1999/xlink" x="0px" y="0px"
	 viewBox="0 0 842 246.9" style="enable-background:new 0 0 842 246.9;" xml:space="preserve">
<style type="text/css">
	.st0{fill:#FFFFFF;}
</style>
<path class="st0" d="M320.6,146.7c-10.1,0-16.5,9.6-16.5,24.1c0,14.7,6.4,23.9,16.6,23.9s16.1-10,16.1-24.1
	C336.8,157,330.8,146.7,320.6,146.7z"/>
<path class="st0" d="M550,146.4h-0.2c-1.2,4.7-2.3,11.2-3.5,15.7l-3.4,14h14.6l-3.6-14.1C552.7,157.6,551.2,151.1,550,146.4z"/>
<path class="st0" d="M474.1,146.2c-2.4-0.1-4.8,0.1-7.1,0.5v18.7h5.5c8,0,12.5-4,12.5-9.8S481.1,146.3,474.1,146.2z"/>
<path class="st0" d="M5.5,100.8v140.7h830.8V100.8H5.5z M535.2,113.3h31.4v10.8h-31.4V113.3z M94.2,201.2c-8.7,6.8-21.5,9.7-37,9.7
	c-10.2,0-17-0.6-21.1-1.3v-77.3c8.3-1.2,16.7-1.7,25.2-1.6c15.1,0,24.6,2.4,32.4,7.8c8.7,6,14.3,15.8,14.3,30.3
	C108,184.8,101.9,195.2,94.2,201.2z M172.1,210.1h-52.9v-78.9h51.2v17.2h-30.1v12.8h28.3v17.1h-28.3v14.5h31.7L172.1,210.1z
	 M251.4,210.1l-0.9-28.2c-0.2-9-0.5-19.5-0.4-31.8h-0.4c-2.5,10.4-5.7,22.2-8.3,30.9l-7.8,27.5h-16.5l-6.7-27.4
	c-2-8.5-4.5-20.2-6.2-31H204c-0.5,11.1-0.9,22.8-1.3,31.8l-1.2,28.2h-19.4l4.8-78.9h28.4l5.3,21.2c2.1,8.8,4.4,19.3,6.1,28.9h0.5
	c2.2-9.6,4.8-20.7,7.1-29l5.9-21.1H268l4,78.9L251.4,210.1z M319.6,211.4c-24.5,0-37.9-18.4-37.9-40.2c0-22.9,15.1-41.2,39.2-41.2
	c25.4,0,38.3,18.8,38.3,39.9C359.2,195.2,344,211.4,319.6,211.4L319.6,211.4z M414.3,210.1l-16.6-31.9l-6.3,8.1v23.9h-20.9v-78.9
	h20.9v33.5h0.2c1.6-2.9,3.4-5.9,5.1-8.7l15.1-24.8h26l-25,33.6l26,45.3L414.3,210.1z M487.4,210.1c-1.2-2.3-3.2-8.4-5.5-18.1
	c-2.1-9.5-5-11.5-11.6-11.5h-3.4v29.6H446v-77.8c8.4-1.2,17-1.7,25.5-1.6c12,0,20.7,1.6,26.7,6.1c5,3.9,7.8,9.5,7.8,17.2
	c0,9.8-7.4,16.9-13.6,19.1v0.5c5.3,2.2,8.1,7.3,10.1,14c2.5,8.1,5,19.5,6.5,22.6L487.4,210.1z M565.4,210.1l-5-18.2H540l-4.5,18.2
	h-21.9l22.9-78.9h28.1l23.5,78.9H565.4z M645.2,148.9h-20.4v61.2h-21.2v-61.2h-20.1v-17.7h61.8L645.2,148.9z M676.1,210.1h-21.1
	v-78.9h21.2L676.1,210.1z M726.9,179.9c0,22.9-11,31.5-30,31.5c-4.7,0-9.4-0.6-13.9-1.9l2.2-17c3,0.8,6.1,1.3,9.2,1.3
	c6.8,0,11.2-3,11.2-13.9v-48.7h21.2L726.9,179.9z M808,174.8c0,24.3-12.2,36.6-34.3,36.6c-21.7,0-33-11.8-33-37.2v-42.9h21.2v44.7
	c0,11.9,4.1,18.7,12.4,18.7s12.5-6.2,12.5-18.7v-44.7H808V174.8z"/>
<path class="st0" d="M63.8,146.8c-2.2-0.1-4.3,0.1-6.4,0.5v47c1.5,0.2,3,0.3,4.4,0.2c13.7,0.2,23.8-7.4,23.8-25.1
	C85.5,154,76.4,146.8,63.8,146.8z"/>
<path class="st0" d="M58.2,56.4C58.1,49.7,57.9,42,58,32.9h-0.3c-1.8,7.7-4.2,16.4-6.1,22.8L45.8,76H33.6l-4.9-20.2
	c-1.5-6.3-3.3-15-4.6-22.9h-0.2c-0.3,8.2-0.7,16.9-1,23.5l-0.9,20.8H7.8L11.3,19h21l3.9,15.6c1.6,6.5,3.3,14.3,4.5,21.4H41
	c1.7-7.1,3.6-15.3,5.3-21.4L50.6,19h20.6l2.9,58.3H58.9L58.2,56.4z"/>
<path class="st0" d="M120.3,53.7H99.4v10.7h23.4v12.8H83.8V19h37.9v12.7H99.4v9.4h20.9L120.3,53.7z M113.8,5.7v8H90.8v-8H113.8z"/>
<path class="st0" d="M132.5,61.7c4.7,2.3,9.9,3.6,15.1,3.6c5.4,0,8-1.8,8-4.8s-2.6-4.5-9.2-6.7c-9.9-3.5-16.3-8.9-16.3-17.6
	c0-10.3,8.6-18.2,23.4-18.2c5.4-0.2,10.8,0.9,15.8,3L166,33.5c-4-1.8-8.3-2.8-12.7-2.8c-4.8,0-7.3,1.7-7.3,4.3
	c0,2.9,3.1,4.1,10.5,6.9c10.5,3.8,15.2,9.4,15.2,17.6c0,10-7.9,18.6-24.9,18.6c-7,0-13.8-1.8-17.1-3.5L132.5,61.7z"/>
<path class="st0" d="M233.7,53.7h-20.9v10.7h23.4v12.8h-39.1V19H235v12.7h-22.2v9.4h20.9V53.7z"/>
<path class="st0" d="M245.9,61.7c4.7,2.3,9.9,3.6,15.1,3.6c5.4,0,8-1.8,8-4.8s-2.6-4.5-9.2-6.7c-9.9-3.5-16.3-8.9-16.3-17.6
	c0-10.3,8.6-18.2,23.3-18.2c5.4-0.2,10.8,0.9,15.8,3l-3.3,12.4c-4-1.8-8.3-2.8-12.7-2.8c-4.8,0-7.4,1.7-7.4,4.3
	c0,2.9,3.1,4.1,10.5,6.9c10.5,3.8,15.2,9.4,15.2,17.6c0,10-7.9,18.6-24.9,18.6c-7,0-13.8-1.8-17.1-3.5L245.9,61.7z"/>
<path class="st0" d="M308.6,63.7l-3.3,13.5h-16.2L306.1,19h20.8l17.4,58.3h-16.9l-3.7-13.5L308.6,63.7z M321.5,52.2l-2.7-10.5
	c-0.9-3.3-2-8-2.9-11.5h-0.2c-0.9,3.4-1.7,8.3-2.6,11.6l-2.5,10.4H321.5z"/>
<path class="st0" d="M401,56.4c-0.2-6.7-0.4-14.4-0.3-23.5h-0.3c-1.8,7.7-4.2,16.4-6.1,22.8L388.5,76h-12.2l-4.9-20.2
	c-1.5-6.3-3.3-15-4.6-22.9h-0.2c-0.4,8.2-0.7,16.9-1,23.5l-0.9,20.8h-14.3L354,19h21l3.9,15.6c1.6,6.5,3.3,14.3,4.5,21.4h0.3
	c1.6-7.1,3.5-15.3,5.3-21.4l4.3-15.6h20.6l2.9,58.3h-15.2L401,56.4z"/>
<path class="st0" d="M443.6,19h15.5v24.7h0.2c1.2-2.2,2.5-4.3,3.8-6.4L474.2,19h19.2l-18.5,24.8l19.2,33.5H476l-12.3-23.6l-4.7,6
	v17.6h-15.5V19z"/>
<path class="st0" d="M550.8,47.5c0,18.8-11.2,30.7-29.2,30.7s-28-13.6-28-29.7c0-16.9,11.2-30.4,29-30.4
	C541.3,18,550.8,31.9,550.8,47.5z M510.1,48.2c0,10.9,4.8,17.6,12.3,17.6s11.9-7.4,11.9-17.8c0-10-4.5-17.6-12-17.6
	S510.1,37.5,510.1,48.2L510.1,48.2z"/>
<path class="st0" d="M559.1,19.7c6.4-0.9,12.8-1.3,19.3-1.2c8.4,0,14.3,1.5,18.4,4.6c4.3,3.4,6.8,8.6,6.7,14.1
	c0,5.9-2,11.1-5.6,14.4c-4.8,4.2-11.6,6.1-19.5,6.1c-1.5,0-2.9-0.1-3.8-0.2v19.8h-15.5V19.7z M574.6,45.5c1.2,0.1,2.4,0.2,3.5,0.2
	c6.1,0,9.9-3.1,9.9-8.1c0-4.3-2.9-7.3-8.8-7.3c-1.6,0-3.1,0.1-4.7,0.4V45.5z"/>
<path class="st0" d="M622.1,63.7l-3.3,13.5h-16.2l17-58.3h20.8l17.4,58.3h-16.9l-3.7-13.5H622.1z M641.7,5.7v8h-23.2v-8H641.7z
	 M635,52.2l-2.7-10.5c-0.9-3.3-2-8-2.9-11.5h-0.2c-0.9,3.4-1.7,8.3-2.6,11.6l-2.5,10.4H635z"/>
<path class="st0" d="M682.3,19.7c6.4-0.9,12.8-1.3,19.3-1.2c8.4,0,14.3,1.5,18.4,4.6c4.3,3.4,6.8,8.6,6.7,14.1
	c0,5.9-2,11.1-5.6,14.4c-4.8,4.2-11.6,6.1-19.5,6.1c-1.5,0-2.9-0.1-3.8-0.2v19.8h-15.5V19.7z M697.8,45.5c1.2,0.1,2.4,0.2,3.5,0.2
	c6.1,0,9.9-3.1,9.9-8.1c0-4.3-2.9-7.3-8.8-7.3c-1.6,0-3.1,0.1-4.7,0.4V45.5z"/>
<path class="st0" d="M745.3,63.7L742,77.2h-16.1l17-58.2h20.8l17.4,58.3h-16.9l-3.7-13.5L745.3,63.7z M758.2,52.2l-2.7-10.5
	c-0.9-3.3-2-8-2.9-11.5h-0.2c-0.9,3.4-1.7,8.3-2.6,11.6l-2.5,10.4H758.2z"/>
<path class="st0" d="M788.4,19.7c6.2-0.9,12.5-1.3,18.8-1.2c8.9,0,15.3,1.2,19.7,4.5c3.7,2.9,5.8,7,5.8,12.7c0,7.3-5.4,12.4-10,14.1
	v0.4c3.9,1.6,6,5.4,7.4,10.4c1.8,6,3.7,14.4,4.8,16.7h-16c-0.9-1.7-2.3-6.2-4.1-13.4c-1.5-7-3.7-8.5-8.6-8.5h-2.5v21.9h-15.5V19.7z
	 M803.8,44.2h4.1c5.9,0,9.2-2.9,9.2-7.3s-2.8-6.8-8-6.9c-1.8-0.1-3.5,0.1-5.3,0.4L803.8,44.2z"/>
</svg>
