<?xml version="1.0" encoding="utf-8"?>
<!-- Generator: Adobe Illustrator 27.6.1, SVG Export Plug-In . SVG Version: 6.00 Build 0)  -->
<svg version="1.1" id="Layer_1" xmlns="http://www.w3.org/2000/svg" xmlns:xlink="http://www.w3.org/1999/xlink" x="0px" y="0px"
	 viewBox="0 0 715 247" style="enable-background:new 0 0 715 247;" xml:space="preserve">
<style type="text/css">
	.st0{fill:#FFFFFF;}
</style>
<path class="st0" d="M476,146.3c-2.4-0.1-4.8,0.1-7.1,0.5v18.7h5.5c8,0,12.5-4,12.5-9.8S483,146.4,476,146.3z"/>
<path class="st0" d="M65.7,146.9c-2.2-0.1-4.3,0.1-6.4,0.5v47c1.5,0.2,3,0.3,4.4,0.2c13.7,0.2,23.8-7.4,23.8-25.1
	C87.4,154.2,78.3,146.9,65.7,146.9z"/>
<path class="st0" d="M551.9,146.5h-0.2c-1.2,4.7-2.3,11.2-3.5,15.7l-3.4,14h14.6l-3.6-14.1C554.6,157.7,553.1,151.2,551.9,146.5z"/>
<path class="st0" d="M322.5,146.8c-10.1,0-16.5,9.6-16.5,24.1c0,14.7,6.4,23.9,16.6,23.9s16.1-10,16.1-24.1
	C338.8,157.1,332.7,146.8,322.5,146.8z"/>
<path class="st0" d="M6.8,100.9v140.7h700.4V100.9H6.8z M96.1,201.3c-8.7,6.8-21.5,9.7-37,9.7c-10.2,0-17-0.6-21.1-1.3v-77.3
	c8.3-1.2,16.7-1.7,25.1-1.6c15.1,0,24.6,2.4,32.4,7.8c8.7,6,14.3,15.8,14.3,30.3C109.9,184.9,103.8,195.3,96.1,201.3z M174,210.2
	h-52.9v-78.9h51.2v17.2h-30.1v12.8h28.3v17.1h-28.3v14.5H174V210.2z M253.3,210.2l-0.9-28.2c-0.2-9-0.5-19.5-0.4-31.8h-0.4
	c-2.5,10.4-5.7,22.2-8.3,30.9l-7.8,27.5H219l-6.7-27.4c-2-8.5-4.5-20.2-6.2-31H206c-0.5,11.1-0.9,22.8-1.3,31.8l-1.2,28.2h-19.5
	l4.8-78.9h28.4l5.3,21.2c2.1,8.8,4.5,19.3,6.1,28.9h0.5c2.2-9.6,4.8-20.7,7.1-29l5.9-21.1H270l4,78.9L253.3,210.2z M321.5,211.5
	c-24.5,0-37.9-18.4-37.9-40.2c0-22.9,15.1-41.2,39.2-41.2c25.4,0,38.3,18.8,38.3,39.9C361.1,195.3,345.9,211.5,321.5,211.5
	L321.5,211.5z M416.2,210.2l-16.6-31.9l-6.3,8.1v23.9h-20.9v-78.9h21v33.5h0.2c1.6-2.9,3.4-5.9,5.2-8.7l15.1-24.8h26l-25,33.6
	l26,45.3H416.2z M489.3,210.2c-1.2-2.3-3.2-8.4-5.5-18.1c-2.1-9.5-5-11.5-11.6-11.5h-3.4v29.6h-20.9v-77.8c8.5-1.2,17-1.7,25.5-1.6
	c12,0,20.7,1.6,26.7,6.1c5,3.9,7.8,9.5,7.8,17.2c0,9.8-7.4,16.9-13.6,19.1v0.5c5.3,2.2,8.1,7.3,10.1,14c2.5,8.1,5,19.5,6.6,22.6
	L489.3,210.2z M567.3,210.2l-5-18.2H542l-4.4,18.2h-21.9l22.9-78.9h28.1l23.5,78.9H567.3z M647.1,149h-20.4v61.2h-21.2V149h-20.1
	v-17.7h61.8L647.1,149z M678,210.2h-21.2v-78.9H678V210.2z"/>
<path class="st0" d="M20.8,35.1h-14V22.9h42.9v12.2H35.5v42.5H20.8V35.1z"/>
<path class="st0" d="M69.6,22.9v54.8H54.9V22.9H69.6z"/>
<path class="st0" d="M78,22.9h14.7v42.5h21.1v12.3H78V22.9z"/>
<path class="st0" d="M119.4,22.9h14.7v42.5h21.1v12.3h-35.8V22.9z"/>
<path class="st0" d="M161.7,63c4.4,2.2,9.3,3.4,14.2,3.4c5,0,7.5-1.7,7.5-4.5s-2.4-4.2-8.6-6.3c-9.3-3.3-15.4-8.4-15.4-16.5
	c0-9.7,8.1-17.2,22-17.2c5.1-0.1,10.2,0.8,14.9,2.9l-3.1,11.7c-3.8-1.7-7.9-2.6-12-2.6c-4.5,0-6.9,1.6-6.9,4.1
	c0,2.8,2.9,3.9,9.8,6.5c9.8,3.6,14.3,8.9,14.3,16.5c0,9.4-7.4,17.5-23.4,17.5c-6.6,0-13-1.7-16.1-3.3L161.7,63z"/>
<path class="st0" d="M219.1,65L216,77.7h-15.2l15.9-54.8h19.5l16.4,54.8h-15.9L233.2,65H219.1z M231.2,54.1l-2.5-9.8
	c-0.8-3.1-1.9-7.6-2.7-10.8h-0.2c-0.8,3.3-1.6,7.8-2.4,10.9l-2.4,9.8H231.2z"/>
<path class="st0" d="M304.3,58.1c-0.2-6.3-0.3-13.6-0.2-22.1h-0.2c-1.7,7.2-4,15.5-5.8,21.5l-5.5,19.1h-11.5l-4.6-19
	c-1.4-5.9-3.1-14.1-4.3-21.6H272c-0.3,7.7-0.6,15.9-0.9,22.1l-0.8,19.6h-13.5l3.3-54.8h19.8l3.7,14.7c1.5,6.1,3.1,13.4,4.2,20.1h0.3
	c1.5-6.7,3.3-14.4,5-20.2l4.1-14.6h19.4l2.8,54.8H305L304.3,58.1z"/>
<path class="st0" d="M373.1,58.1c-0.2-6.3-0.3-13.6-0.2-22.1h-0.2c-1.7,7.2-4,15.5-5.8,21.5l-5.5,19.1h-11.5l-4.6-19
	c-1.4-5.9-3.1-14.1-4.3-21.6h-0.2c-0.3,7.7-0.6,15.9-0.9,22.1l-0.8,19.6h-13.5l3.3-54.8h19.8l3.7,14.7c1.5,6.1,3.1,13.4,4.2,20.1
	h0.3c1.5-6.7,3.3-14.4,5-20.2l4.1-14.6h19.4l2.7,54.8h-14.3L373.1,58.1z"/>
<path class="st0" d="M409.8,65l-3.1,12.7h-15.2l15.9-54.8H427l16.3,54.8h-15.9L424,65H409.8z M422,54.1l-2.5-9.8
	c-0.8-3.1-1.9-7.6-2.7-10.8h-0.2c-0.8,3.3-1.6,7.8-2.4,10.9l-2.4,9.8H422z"/>
<path class="st0" d="M448.7,77.7V22.9H466l8.7,16.8c3.3,6.2,6.2,12.6,8.6,19.2h0.2c-0.8-7.7-1.2-15.4-1.1-23.1V22.9h13.4v54.8h-15.4
	l-9.3-18.2c-3.4-6.4-6.5-13.1-9.3-19.9h-0.2c0.3,7.4,0.5,15.7,0.5,24.6v13.5H448.7z"/>
<path class="st0" d="M505.4,63c4.4,2.2,9.3,3.4,14.2,3.4c5,0,7.5-1.7,7.5-4.5s-2.4-4.2-8.6-6.3c-9.3-3.3-15.4-8.4-15.4-16.5
	c0-9.7,8.1-17.2,22-17.2c5.1-0.1,10.2,0.8,14.9,2.8l-3.1,11.7c-3.8-1.7-7.9-2.6-12-2.6c-4.5,0-6.9,1.6-6.9,4.1
	c0,2.8,2.9,3.9,9.8,6.5c9.8,3.6,14.3,8.9,14.3,16.5c0,9.4-7.4,17.5-23.4,17.5c-6.6,0-13-1.7-16.1-3.3L505.4,63z"/>
<path class="st0" d="M562.9,22.9h35.2v11.9h-20.5V45h19.3v11.9h-19.3v20.8h-14.7V22.9z"/>
<path class="st0" d="M657.2,49.7c0,17.6-10.6,28.9-27.5,28.9s-26.3-12.8-26.3-28c0-15.9,10.5-28.6,27.2-28.6
	C648.2,22,657.2,35.1,657.2,49.7z M615.2,13.7c0-3.4,2.7-6.2,6.2-6.2c0.1,0,0.1,0,0.2,0c3.3,0,6,2.7,6,6c0,0.1,0,0.1,0,0.2
	c0.1,3.4-2.6,6.2-6,6.3C618.1,20,615.2,17.2,615.2,13.7C615.2,13.8,615.2,13.8,615.2,13.7L615.2,13.7z M618.8,50.3
	c0,10.2,4.5,16.6,11.5,16.6s11.2-6.9,11.2-16.8c0-9.4-4.2-16.6-11.3-16.6S618.9,40.3,618.8,50.3L618.8,50.3z M633,13.7
	c0.1-3.4,3-6.1,6.4-5.9c3.2,0.1,5.8,2.7,5.9,5.9c0.1,3.4-2.5,6.3-5.9,6.4c-3.4,0.1-6.3-2.5-6.4-5.9C633,14.1,633,13.9,633,13.7z"/>
<path class="st0" d="M663.4,23.6c5.9-0.8,11.8-1.2,17.7-1.1c8.4,0,14.4,1.1,18.5,4.2c3.5,2.7,5.5,6.6,5.5,12
	c0,6.8-5.1,11.7-9.4,13.3v0.3c3.7,1.6,5.6,5,7,9.8c1.7,5.6,3.5,13.6,4.5,15.7h-15c-0.8-1.6-2.2-5.9-3.8-12.6c-1.5-6.6-3.5-8-8-8
	h-2.4v20.6h-14.6V23.6z M677.9,46.6h3.8c5.5,0,8.7-2.8,8.7-6.8s-2.7-6.4-7.6-6.5c-1.7-0.1-3.3,0.1-5,0.3L677.9,46.6z"/>
</svg>
