<?xml version="1.0" encoding="utf-8"?>
<!-- Generator: Adobe Illustrator 27.6.1, SVG Export Plug-In . SVG Version: 6.00 Build 0)  -->
<svg version="1.1" id="Layer_1" xmlns="http://www.w3.org/2000/svg" xmlns:xlink="http://www.w3.org/1999/xlink" x="0px" y="0px"
	 viewBox="0 0 1110 260" style="enable-background:new 0 0 1110 260;" xml:space="preserve">
<style type="text/css">
	.st0{fill:#FFFFFF;}
</style>
<path class="st0" d="M834.7,160.5h-0.2c-1.2,4.7-2.3,11.2-3.5,15.7l-3.4,14h14.6l-3.6-14.1C837.4,171.7,835.9,165.2,834.7,160.5z"/>
<path class="st0" d="M577.1,160.3c-2.4-0.1-4.8,0.1-7.1,0.5v18.7h5.5c8,0,12.5-4,12.5-9.8S584.1,160.4,577.1,160.3z"/>
<path class="st0" d="M653,160.5h-0.2c-1.2,4.7-2.3,11.2-3.5,15.7l-3.4,14h14.6l-3.6-14.1C655.7,171.7,654.2,165.2,653,160.5z"/>
<path class="st0" d="M423.6,160.8c-10.1,0-16.5,9.6-16.5,24.1c0,14.7,6.4,23.9,16.6,23.9s16.1-10,16.1-24.1
	C439.8,171.1,433.8,160.8,423.6,160.8z"/>
<path class="st0" d="M166.8,160.9c-2.2-0.1-4.3,0.1-6.4,0.5v47c1.5,0.2,3,0.3,4.4,0.2c13.7,0.2,23.8-7.4,23.8-25.1
	C188.5,168.2,179.4,160.9,166.8,160.9z"/>
<path class="st0" d="M3.9,114.9v140.7h1102.2V114.9H3.9z M908.9,126.4h21.5l-14.2,14.7h-16.7L908.9,126.4z M835.8,126.4h21.4
	l-14,14.7h-16.9L835.8,126.4z M654.1,126.4h21.4l-14,14.7h-16.9L654.1,126.4z M83.3,224.1l-5-18.2H57.9l-4.4,18.2H31.6l22.9-78.8
	h28.1l23.5,78.8H83.3z M197.2,215.3c-8.7,6.8-21.5,9.7-37,9.7c-10.2,0-17-0.6-21.1-1.3v-77.4c8.3-1.2,16.7-1.7,25.2-1.6
	c15.1,0,24.6,2.4,32.4,7.8c8.7,6,14.3,15.8,14.3,30.3C211,198.9,204.9,209.3,197.2,215.3L197.2,215.3z M275.1,224.2h-52.9v-78.9
	h51.2v17.2h-30.1v12.8h28.3v17.1h-28.3v14.5h31.7V224.2z M354.4,224.2l-0.9-28.2c-0.2-9-0.5-19.5-0.4-31.8h-0.4
	c-2.5,10.4-5.7,22.2-8.3,30.9l-7.8,27.5h-16.5l-6.7-27.4c-2-8.5-4.5-20.2-6.2-31H307c-0.5,11.1-0.9,22.8-1.3,31.8l-1.2,28.2h-19.4
	l4.8-78.9h28.4l5.3,21.2c2.1,8.8,4.4,19.3,6.1,28.9h0.5c2.2-9.6,4.8-20.7,7.1-29l5.9-21.1H371l4,78.9L354.4,224.2z M422.6,225.5
	c-24.5,0-37.9-18.4-37.9-40.2c0-22.9,15.1-41.2,39.2-41.2c25.4,0,38.3,18.8,38.3,39.9C462.2,209.3,447,225.5,422.6,225.5
	L422.6,225.5z M517.3,224.2l-16.6-31.9l-6.3,8.1v23.9h-20.9v-78.9h20.9v33.5h0.2c1.6-2.9,3.4-5.9,5.1-8.7l15.1-24.8h26l-25,33.6
	l26,45.3L517.3,224.2z M590.4,224.2c-1.2-2.3-3.2-8.4-5.5-18.1c-2.1-9.5-5-11.5-11.6-11.5h-3.4v29.6H549v-77.8
	c8.4-1.2,17-1.7,25.5-1.6c12.1,0,20.7,1.6,26.7,6.1c5,3.9,7.8,9.5,7.8,17.2c0,9.8-7.4,16.9-13.6,19.1v0.5c5.3,2.2,8.1,7.3,10.1,14
	c2.5,8.1,5,19.5,6.5,22.6L590.4,224.2z M668.4,224.2l-5-18.2h-20.4l-4.4,18.2h-21.9l22.9-78.9h28.1l23.5,78.9H668.4z M739.9,208
	c4.8,0,9.6-0.8,14.2-2.3l2.9,16.6c-3,1.4-10.4,3.2-19.9,3.2c-29.5,0-42.5-18.4-42.5-39.3c0-27.9,20.3-42,43.9-42
	c9.1,0,16.5,1.8,19.8,3.5l-4.1,16.6c-4.6-1.9-9.6-2.8-14.6-2.8c-12.2,0-22.7,7.1-22.7,23.3C716.9,199,725.4,207.9,739.9,208
	L739.9,208z M789.5,224.2h-21.2v-78.9h21.2L789.5,224.2z M850.1,224.2l-5-18.2h-20.4l-4.5,18.2h-21.9l22.9-78.9h28.1l23.6,78.8
	L850.1,224.2z M935.9,224.2H883v-78.9h51.2v17.2h-30.1v12.8h28.3v17.1h-28.3v14.5h31.7L935.9,224.2z M989,224.2
	c-1.2-2.3-3.2-8.4-5.5-18.1c-2.1-9.5-5-11.5-11.6-11.5h-3.4v29.6h-20.9v-77.8c8.4-1.2,17-1.7,25.5-1.6c12.1,0,20.7,1.6,26.7,6.1
	c5,3.9,7.8,9.5,7.8,17.2c0,9.8-7.4,16.9-13.6,19.1v0.5c5.3,2.2,8.1,7.3,10.1,14c2.5,8.1,5,19.5,6.6,22.6L989,224.2z M1076.4,163
	h-20.5v61.2h-21.2V163h-20.1v-17.7h61.8V163z M67.9,160.4h-0.2c-1.2,4.7-2.3,11.2-3.5,15.7l-3.4,14h14.6l-3.6-14.2
	C70.6,171.5,69,165.1,67.9,160.4z"/>
<path class="st0" d="M975.7,160.3c-2.4-0.1-4.8,0.1-7.1,0.5v18.7h5.5c8,0,12.5-4,12.5-9.8S982.7,160.4,975.7,160.3z"/>
<path class="st0" d="M416.5,64.4h-23.9v12.3h26.8v14.6h-44.7V24.7H418v14.5h-25.4V50h23.9L416.5,64.4z"/>
<path class="st0" d="M487,88.2c-7.4,2.4-15.1,3.7-22.9,3.9c-13.1,0-22-3.3-28.1-9c-6.2-5.9-9.5-14.5-9.5-24.1
	c0.1-23.1,17.3-34.9,39-34.9c9,0,15.8,1.6,19.3,3.3l-3.6,14.2c-3.8-1.6-8.2-2.8-15.8-2.8c-11,0-20.1,5.7-20.1,19.3
	c0,12.5,8,19.7,19,19.7c1.9,0,3.7-0.2,5.5-0.6V65.6h-8.9V51.8H487V88.2z"/>
<path class="st0" d="M513.8,91.3V64.4l-21.1-39.7h20.5l5.6,15c1.9,4.6,3.1,8,4.5,12.2h0.2c1.3-4,2.7-7.7,4.2-12.2l5.5-15h20.1
	l-21.8,39.1v27.6L513.8,91.3z"/>
<path class="st0" d="M578.2,24.7v37.8c0,10.1,3.5,15.8,10.5,15.8s10.6-5.2,10.6-15.8V24.7h17.9v36.8c0,20.6-10.3,30.9-29,30.9
	c-18.3,0-27.9-10-27.9-31.4V24.7H578.2z M571.2,13.6c0-4.1,3.3-7.5,7.4-7.5c0.1,0,0.2,0,0.2,0c4,0,7.2,3.3,7.2,7.3
	c0,0.1,0,0.1,0,0.2c0.1,4.1-3.1,7.5-7.2,7.6c0,0,0,0,0,0C574.7,21.3,571.2,17.9,571.2,13.6C571.2,13.7,571.2,13.6,571.2,13.6
	L571.2,13.6z M592.7,13.6c-0.2-4.1,3.1-7.6,7.2-7.7s7.6,3.1,7.7,7.2c0,0.2,0,0.4,0,0.5c0.2,4.1-3.1,7.6-7.2,7.7s-7.6-3.1-7.7-7.2
	C592.7,14,592.7,13.8,592.7,13.6z"/>
<path class="st0" d="M642.2,39.6h-17V24.7h52.2v14.9h-17.3v51.7h-17.9V39.6z"/>
<path class="st0" d="M700.1,39.6h-17V24.7h52.2v14.9H718v51.7h-17.9V39.6z"/>
</svg>
