<?xml version="1.0" encoding="UTF-8"?><svg id="NL" xmlns="http://www.w3.org/2000/svg" viewBox="0 0 188.61 62.38"><defs><style>.cls-1{fill:#224e9c;stroke-width:0px;}</style></defs><path class="cls-1" d="m17.94,18.24c1.32.65,2.77,1,4.24,1.02,1.5,0,2.23-.51,2.23-1.33s-.73-1.26-2.57-1.89c-2.76-.97-4.57-2.49-4.57-4.92,0-2.88,2.42-5.11,6.53-5.11,1.97,0,3.34.36,4.43.85l-.92,3.49c-1.12-.51-2.33-.78-3.56-.77-1.33,0-2.06.49-2.06,1.21,0,.82.87,1.16,2.93,1.94,2.93,1.07,4.26,2.64,4.26,4.92,0,2.81-2.21,5.2-6.97,5.2-1.97,0-3.87-.51-4.79-.98l.82-3.61Z"/><path class="cls-1" d="m35.51,18.82l-.92,3.78h-4.53l4.75-16.32h5.81l4.87,16.32h-4.72l-1.04-3.78h-4.22Zm3.61-3.24l-.75-2.93c-.25-.92-.56-2.25-.8-3.22h-.05c-.25.97-.49,2.32-.73,3.24l-.7,2.9h3.03Z"/><path class="cls-1" d="m61.37,16.76c-.05-1.86-.1-4.04-.07-6.58h-.07c-.51,2.15-1.19,4.6-1.72,6.39l-1.62,5.69h-3.41l-1.38-5.66c-.41-1.77-.92-4.18-1.28-6.41h-.05c-.1,2.3-.19,4.72-.27,6.58l-.25,5.84h-4.01l.98-16.32h5.88l1.09,4.38c.44,1.82.92,3.99,1.26,5.98h.1c.46-1.98.98-4.28,1.48-6l1.21-4.36h5.77l.82,16.32h-4.26l-.19-5.85Z"/><path class="cls-1" d="m78.75,16.01h-5.86v3h6.56v3.58h-10.94V6.28h10.6v3.56h-6.22v2.64h5.86v3.53Z"/><path class="cls-1" d="m81.87,22.6V6.28h5.16l2.58,5.01c.98,1.85,1.84,3.75,2.57,5.71h.07c-.24-2.29-.35-4.59-.34-6.89v-3.84h3.99v16.32h-4.6l-2.76-5.41c-1.02-1.92-1.95-3.89-2.76-5.9h-.07c.1,2.21.15,4.67.15,7.31v4.02l-3.99-.02Z"/><path class="cls-1" d="m106.79,22.6l-5.18-16.32h4.79l1.72,6.42c.55,1.88,1,3.78,1.35,5.7h.05c.41-2.01.87-3.9,1.36-5.64l1.77-6.49h4.65l-5.34,16.33h-5.16Z"/><path class="cls-1" d="m134.12,14.27c0,5.25-3.15,8.61-8.19,8.61s-7.83-3.81-7.83-8.34c0-4.75,3.12-8.52,8.12-8.52,5.24,0,7.9,3.9,7.9,8.25Zm-11.4.19c0,3.05,1.33,4.94,3.44,4.94s3.34-2.06,3.34-4.99-1.26-4.94-3.36-4.94-3.42,1.99-3.42,4.99h0Z"/><path class="cls-1" d="m151.8,14.27c0,5.25-3.15,8.61-8.18,8.61s-7.84-3.8-7.84-8.33c0-4.75,3.12-8.52,8.12-8.52,5.24-.01,7.91,3.89,7.91,8.24Zm-11.4.19c0,3.05,1.33,4.94,3.44,4.94s3.34-2.06,3.34-4.99-1.26-4.94-3.36-4.94-3.43,1.99-3.43,4.99h0Z"/><path class="cls-1" d="m154.11,6.5c1.75-.24,3.51-.36,5.28-.34,2.49,0,4.29.34,5.52,1.26,1.04.8,1.62,1.97,1.62,3.56,0,2.03-1.52,3.49-2.81,3.94v.1c1.09.46,1.67,1.5,2.08,2.9.51,1.67,1.04,4.04,1.36,4.67h-4.48c-.25-.49-.65-1.74-1.14-3.75-.44-1.97-1.04-2.37-2.4-2.37h-.71v6.13h-4.32V6.5Zm4.32,6.85h1.14c1.65,0,2.59-.82,2.59-2.03s-.8-1.91-2.25-1.94c-.49-.02-.99.02-1.48.1v3.87Z"/><path class="cls-1" d="m78.19,39.72c-2.47,0-4.06,2.36-4.06,5.93s1.58,5.87,4.09,5.87,3.97-2.45,3.97-5.93-1.5-5.87-4-5.87Z"/><path class="cls-1" d="m114.67,39.61c-.59-.02-1.18.02-1.76.12v4.6h1.35c1.97,0,3.08-.98,3.08-2.42s-.95-2.27-2.68-2.3Z"/><path class="cls-1" d="m.19,28.43v34.6h188.11V28.43H.19Zm22.32,24.7c-2.13,1.67-5.3,2.39-9.1,2.39-2.5,0-4.18-.14-5.18-.31v-19.02c2.05-.29,4.12-.42,6.19-.4,3.71,0,6.04.6,7.97,1.93,2.13,1.48,3.51,3.88,3.51,7.45,0,3.94-1.49,6.5-3.39,7.97Zm19.16,2.19h-13.01v-19.4h12.61v4.23h-7.4v3.14h6.96v4.2h-6.96v3.57h7.8v4.26Zm19.51,0l-.23-6.93c-.06-2.21-.12-4.81-.09-7.83h-.09c-.61,2.56-1.41,5.47-2.04,7.6l-1.93,6.76h-4.06l-1.64-6.73c-.49-2.1-1.09-4.98-1.52-7.62h-.06c-.12,2.73-.23,5.61-.31,7.83l-.29,6.93h-4.78l1.18-19.4h6.99l1.3,5.21c.52,2.16,1.09,4.75,1.5,7.11h.12c.55-2.36,1.18-5.09,1.76-7.13l1.44-5.18h6.85l.98,19.4h-5.07Zm16.78.32c-6.02,0-9.33-4.52-9.33-9.9s3.71-10.13,9.64-10.13c6.24,0,9.41,4.63,9.41,9.81,0,6.24-3.74,10.22-9.72,10.22h0Zm22.82-4.32c1.18,0,2.36-.19,3.48-.58l.72,4.09c-.74.35-2.56.78-4.89.78-7.25,0-10.45-4.52-10.45-9.67,0-6.85,5.01-10.33,10.79-10.33,2.25,0,4.06.43,4.86.86l-1.01,4.09c-1.14-.46-2.37-.7-3.6-.69-2.99,0-5.58,1.76-5.58,5.73,0,3.54,2.1,5.73,5.67,5.73h0Zm17.18,4c-.29-.58-.78-2.07-1.35-4.46-.52-2.33-1.23-2.82-2.85-2.82h-.84v7.28h-5.15v-19.14c2.08-.29,4.18-.42,6.27-.4,2.95,0,5.09.4,6.56,1.5,1.23.95,1.93,2.33,1.93,4.23,0,2.42-1.81,4.14-3.34,4.69v.12c1.3.55,1.98,1.79,2.47,3.44.61,1.98,1.23,4.81,1.61,5.55h-5.32Zm19.18,0l-1.23-4.49h-5.01l-1.09,4.49h-5.38l5.64-19.4h6.91l5.78,19.4h-5.62Zm19.63-15.05h-5.03v15.05h-5.21v-15.05h-4.95v-4.35h15.19v4.35Zm7.6,15.05h-5.2v-19.4h5.21v19.4Zm16.57,0h-13v-19.4h12.61v4.23h-7.4v3.14h6.97v4.2h-6.97v3.57h7.8v4.26Z"/><path class="cls-1" d="m133.35,39.66h-.06c-.29,1.15-.58,2.76-.86,3.86l-.84,3.44h3.6l-.89-3.47c-.29-1.09-.66-2.68-.95-3.83Z"/><path class="cls-1" d="m15.03,39.75c-.53-.01-1.06.02-1.58.12v11.56c.36.05.73.07,1.09.06,3.37.06,5.84-1.81,5.84-6.19,0-3.76-2.25-5.55-5.35-5.55Z"/></svg>