<?xml version="1.0" encoding="UTF-8"?><svg id="democracy_Text_block_White_en" xmlns="http://www.w3.org/2000/svg" viewBox="0 0 186.06 57.79"><defs><style>.cls-1{fill:#224e9c;stroke-width:0px;}</style></defs><g id="democracy_Text_block_White_en-2"><path id="Tracé_82649" class="cls-1" d="m10.69,3.96h-4.21V.26h12.97v3.71h-4.31v12.84h-4.44V3.96Z"/><path id="Tracé_82650" class="cls-1" d="m36.29,8.36c0,5.33-3.19,8.73-8.3,8.73s-7.95-3.86-7.95-8.44C20.04,3.83,23.21,0,28.27,0c5.32-.01,8.02,3.94,8.02,8.36Zm-11.56.2c0,3.09,1.35,5.01,3.49,5.01s3.39-2.08,3.39-5.06-1.28-5.01-3.41-5.01-3.47,2.01-3.47,5.06h0Z"/><path id="Tracé_82651" class="cls-1" d="m52.98,16.02c-1.84.6-3.76.92-5.69.96-3.26,0-5.47-.81-6.98-2.23-1.58-1.59-2.43-3.75-2.36-5.98.02-5.74,4.3-8.67,9.67-8.67,1.63-.06,3.26.21,4.79.81l-.88,3.54c-1.24-.51-2.58-.74-3.93-.69-2.73,0-4.99,1.42-4.99,4.78-.21,2.48,1.63,4.66,4.11,4.87.2.02.4.02.6.01.46.01.93-.04,1.38-.15v-2.85h-2.19v-3.44h6.48v9.03Z"/><path id="Tracé_82652" class="cls-1" d="m66.14,10.12h-5.94v3.04h6.66v3.63h-11.1V.26h10.75v3.61h-6.31v2.67h5.94v3.59Z"/><path id="Tracé_82653" class="cls-1" d="m72.52,3.96h-4.22V.26h12.97v3.71h-4.3v12.84h-4.44V3.96Z"/><path id="Tracé_82654" class="cls-1" d="m87.74.26v6.11h5.37V.26h4.42v16.54h-4.42v-6.56h-5.37v6.56h-4.45V.26h4.45Z"/><path id="Tracé_82655" class="cls-1" d="m110.98,10.12h-5.94v3.04h6.65v3.63h-11.1V.26h10.75v3.61h-6.31v2.67h5.94v3.59Z"/><path id="Tracé_82656" class="cls-1" d="m114.14.48c1.77-.25,3.56-.36,5.35-.34,2.53,0,4.35.34,5.6,1.28,1.1.86,1.72,2.21,1.64,3.61-.04,1.79-1.17,3.37-2.85,3.99v.1c1.12.6,1.9,1.69,2.11,2.94.52,1.69,1.05,4.1,1.37,4.74h-4.54c-.5-1.23-.88-2.51-1.15-3.81-.44-2-1.05-2.41-2.43-2.41h-.71v6.21h-4.39V.48Zm4.39,6.94h1.15c1.67,0,2.62-.83,2.62-2.06s-.81-1.94-2.28-1.96c-.5-.01-1,.02-1.5.1v3.92Z"/><path id="Tracé_82657" class="cls-1" d="m134.15.26h10.63v3.61h-6.19v3.07h5.82v3.58h-5.82v6.28h-4.44V.26Z"/><path id="Tracé_82658" class="cls-1" d="m163.07,8.36c0,5.33-3.19,8.73-8.3,8.73s-7.95-3.86-7.95-8.44C146.82,3.83,149.99,0,155.05,0c5.33-.01,8.03,3.94,8.03,8.36Zm-11.56.2c0,3.09,1.35,5.01,3.49,5.01s3.39-2.08,3.39-5.06-1.28-5.01-3.41-5.01-3.46,2.01-3.46,5.06h-.01Z"/><path id="Tracé_82659" class="cls-1" d="m165.44.48c1.77-.25,3.56-.36,5.35-.34,2.53,0,4.34.34,5.6,1.28,1.11.86,1.72,2.21,1.65,3.61-.04,1.79-1.17,3.37-2.85,3.99v.1c1.12.6,1.9,1.69,2.11,2.94.51,1.69,1.05,4.1,1.37,4.74h-4.54c-.5-1.23-.88-2.51-1.16-3.81-.44-2-1.05-2.41-2.43-2.41h-.71v6.21h-4.39V.48Zm4.39,6.94h1.15c1.67,0,2.63-.83,2.63-2.06s-.81-1.94-2.28-1.96c-.5-.01-1,.02-1.5.1v3.92Z"/><path id="Tracé_82660" class="cls-1" d="m134.05,34.1h-.06c-.29,1.17-.58,2.8-.88,3.91l-.84,3.49h3.65l-.91-3.52c-.29-1.11-.67-2.71-.96-3.88Z"/><path id="Tracé_82661" class="cls-1" d="m115.12,34.04c-.6-.02-1.19.02-1.78.12v4.67h1.36c1.99,0,3.12-1,3.12-2.45s-.95-2.31-2.7-2.33Z"/><path id="Tracé_82662" class="cls-1" d="m78.13,34.16c-2.51,0-4.11,2.39-4.11,6.01s1.6,5.95,4.14,5.95,4.03-2.48,4.03-6.01-1.52-5.95-4.06-5.95Z"/><path id="Tracé_82663" class="cls-1" d="m14.09,34.19c-.54-.01-1.08.02-1.61.12v11.72c.37.05.74.07,1.11.06,3.41.06,5.92-1.84,5.92-6.27,0-3.81-2.27-5.62-5.43-5.62Z"/><path id="Tracé_82664" class="cls-1" d="m0,22.71v35.08h186.06V22.71H0Zm21.68,25.04c-2.16,1.69-5.37,2.42-9.23,2.42-1.76.03-3.51-.07-5.25-.32v-19.29c2.08-.29,4.17-.43,6.27-.41,3.76,0,6.13.61,8.08,1.96,2.16,1.5,3.56,3.94,3.56,7.55,0,4-1.51,6.59-3.44,8.08h0Zm19.43,2.22h-13.18v-19.66h12.78v4.29h-7.51v3.18h7.06v4.26h-7.06v3.62h7.91v4.32Zm19.78,0l-.23-7.03c-.06-2.24-.12-4.87-.09-7.94h-.09c-.61,2.6-1.43,5.54-2.07,7.7l-1.96,6.86h-4.11l-1.66-6.83c-.5-2.13-1.11-5.05-1.55-7.73h-.06c-.12,2.77-.23,5.69-.32,7.94l-.29,7.03h-4.84l1.19-19.66h7.09l1.31,5.28c.53,2.19,1.11,4.82,1.52,7.21h.12c.56-2.39,1.2-5.16,1.78-7.23l1.46-5.26h6.93l1,19.66h-5.14Zm17.01.32c-6.1,0-9.45-4.58-9.45-10.04s3.76-10.27,9.77-10.27c6.33,0,9.54,4.7,9.54,9.95,0,6.33-3.79,10.36-9.86,10.36h0Zm23.13-4.38c1.2,0,2.39-.19,3.53-.58l.73,4.14c-1.59.57-3.27.84-4.96.79-7.35,0-10.59-4.58-10.59-9.8,0-6.94,5.08-10.47,10.94-10.47,1.69-.06,3.37.23,4.93.88l-1.02,4.14c-1.16-.47-2.4-.71-3.65-.7-3.04,0-5.66,1.78-5.66,5.81,0,3.58,2.13,5.8,5.75,5.8h0Zm17.41,4.05c-.59-1.46-1.05-2.98-1.37-4.52-.52-2.36-1.25-2.86-2.89-2.86h-.85v7.38h-5.22v-19.4c2.11-.29,4.23-.43,6.36-.41,2.99,0,5.16.41,6.65,1.52,1.31,1.02,2.04,2.63,1.96,4.29-.06,2.13-1.39,4.01-3.39,4.76v.12c1.31.55,2.01,1.81,2.51,3.49.61,2.01,1.25,4.87,1.63,5.63h-5.4Zm19.45,0l-1.25-4.55h-5.07l-1.11,4.55h-5.46l5.72-19.66h7l5.86,19.66h-5.69Zm17.82-4.05c1.2,0,2.39-.19,3.53-.58l.73,4.14c-1.59.57-3.27.84-4.96.79-7.35,0-10.59-4.58-10.59-9.8,0-6.94,5.08-10.47,10.94-10.47,1.69-.06,3.37.23,4.93.88l-1.02,4.14c-1.16-.47-2.4-.71-3.65-.7-3.04,0-5.66,1.78-5.66,5.81.01,3.59,2.14,5.8,5.76,5.8h-.01Zm17.2-4.08v8.14h-5.23v-7.93l-6.21-11.72h6.04l1.66,4.42c.56,1.37.9,2.36,1.34,3.62h.06c.38-1.2.79-2.28,1.25-3.62l1.63-4.44h5.92l-6.46,11.53Z"/></g></svg>