<?xml version="1.0" encoding="utf-8"?>
<!-- Generator: Adobe Illustrator 27.6.1, SVG Export Plug-In . SVG Version: 6.00 Build 0)  -->
<svg version="1.1" id="Layer_1" xmlns="http://www.w3.org/2000/svg" xmlns:xlink="http://www.w3.org/1999/xlink" x="0px" y="0px"
	 viewBox="0 0 1224 243" style="enable-background:new 0 0 1224 243;" xml:space="preserve">
<style type="text/css">
	.st0{fill:#FFFFFF;}
</style>
<path class="st0" d="M388.3,5.8h42.6v14.5h-24.8v12.3h23.3V47h-23.3v25.2h-17.8V5.8z"/>
<path class="st0" d="M442,5.8h17.8v51.5h25.5v14.9H442V5.8z"/>
<path class="st0" d="M511.7,5.8v66.4h-17.8V5.8H511.7z"/>
<path class="st0" d="M580,48.4c-0.2-7.6-0.4-16.4-0.3-26.8h-0.3c-2.1,8.8-4.8,18.7-7,26l-6.6,23.1H552l-5.6-23
	c-1.7-7.2-3.7-17-5.2-26.1H541c-0.4,9.4-0.8,19.2-1.1,26.8l-1,23.7h-16.4l4-66.3h23.9l4.5,17.8c1.8,7.4,3.7,16.2,5.1,24.3h0.4
	c1.9-8.1,4-17.4,6-24.4l4.9-17.7h23.4l3.3,66.3h-17.4L580,48.4z"/>
<path class="st0" d="M609.1,5.8h17.6V34h0.2c1.4-2.5,2.8-4.9,4.3-7.3l12.7-20.9h21.8l-21.1,28.3l21.9,38.1H646l-14-26.9l-5.3,6.8
	v20.1h-17.6V5.8z"/>
<path class="st0" d="M690.5,5.8v66.4h-17.8V5.8H690.5z"/>
<path class="st0" d="M744.3,45.4h-23.8v12.2h26.7v14.6h-44.5V5.8h43.1v14.5h-25.3V31h23.8V45.4z"/>
<path class="st0" d="M757,72.2V5.8h21l10.5,20.4c4,7.5,7.5,15.3,10.5,23.2h0.3c-1-9.3-1.4-18.6-1.4-28V5.8h16.2v66.4h-18.7l-11.2-22
	c-4.2-7.8-7.9-15.9-11.2-24.1h-0.3c0.4,9,0.6,19,0.6,29.7v16.3L757,72.2z"/>
<path class="st0" d="M687.4,141.8c-10.1,0-16.5,9.6-16.5,24.1c0,14.7,6.4,23.9,16.6,23.9s16.2-10,16.2-24.1
	C703.7,152.1,697.6,141.8,687.4,141.8z"/>
<path class="st0" d="M916.8,141.5h-0.2c-1.2,4.7-2.3,11.2-3.5,15.7l-3.4,14h14.6l-3.6-14.1C919.5,152.7,918,146.2,916.8,141.5z"/>
<path class="st0" d="M309.2,141.9c-2.2-0.1-4.3,0.1-6.4,0.5v47c1.5,0.2,3,0.3,4.5,0.2c13.7,0.2,23.8-7.4,23.8-25.1
	C330.9,149.2,321.8,141.9,309.2,141.9z"/>
<path class="st0" d="M430.6,141.9c-2.2-0.1-4.3,0.1-6.4,0.5v47c1.5,0.2,3,0.3,4.5,0.2c13.7,0.2,23.8-7.4,23.8-25.1
	C452.4,149.2,443.2,141.9,430.6,141.9z"/>
<path class="st0" d="M233.2,141.5H233c-1.2,4.7-2.3,11.2-3.5,15.7l-3.4,14h14.6l-3.6-14.1C235.9,152.7,234.4,146.2,233.2,141.5z"/>
<path class="st0" d="M840.9,141.3c-2.4-0.1-4.8,0.1-7.1,0.5v18.7h5.5c8,0,12.5-4,12.5-9.8S847.9,141.4,840.9,141.3z"/>
<path class="st0" d="M1151.4,141.5h-0.2c-1.2,4.7-2.3,11.2-3.5,15.7l-3.4,14h14.6l-3.6-14.1C1154.1,152.7,1152.6,146.2,1151.4,141.5
	z"/>
<rect x="140.3" y="150.4" class="st0" width="25.6" height="8.7"/>
<path class="st0" d="M4.7,95.9v140.7h1212.6V95.9H4.7z M105.1,201.5c-8.8,2.9-17.9,4.4-27.1,4.6c-15.6,0-26.1-3.9-33.2-10.6
	c-7.4-7-11.2-17.2-11.2-28.5c0.1-27.4,20.5-41.3,46.1-41.3c10.6,0,18.7,1.9,22.8,3.9l-4.2,16.8c-4.4-1.9-9.7-3.3-18.7-3.3
	c-13,0-23.8,6.8-23.8,22.8c0,14.8,9.5,23.3,22.5,23.3c2.2,0.1,4.4-0.2,6.6-0.7v-13.6H74.2v-16.4h30.9V201.5z M195,150.5h-7.8v54.8
	H166v-27.6h-25.7v27.6h-21.1v-54.8h-8v-12.2h8v-11.9h21.1v11.9H166v-11.9h21.2v11.9h7.8L195,150.5z M248.7,205.2l-5-18.2h-20.4
	l-4.4,18.2H197l22.9-78.9H248l23.5,78.9H248.7z M339.6,196.3c-8.7,6.8-21.5,9.7-37,9.7c-10.2,0-17-0.6-21.1-1.3v-77.3
	c8.3-1.2,16.7-1.7,25.2-1.6c15.1,0,24.6,2.4,32.4,7.8c8.7,6,14.3,15.8,14.3,30.3C353.4,179.9,347.3,190.3,339.6,196.3L339.6,196.3z
	 M392.2,172.9h-31.4v-13.7h31.4L392.2,172.9z M461,196.3c-8.7,6.8-21.5,9.7-37,9.7c-10.2,0-17-0.6-21.1-1.3v-77.3
	c8.3-1.2,16.7-1.7,25.2-1.6c15.1,0,24.6,2.4,32.4,7.8c8.7,6,14.3,15.8,14.3,30.3C474.8,179.9,468.7,190.3,461,196.3z M538.9,205.2
	H486v-78.9h51.2v17.2h-30.1v12.8h28.3v17.1h-28.3v14.5h31.7L538.9,205.2z M618.2,205.2l-0.9-28.2c-0.2-9-0.5-19.5-0.3-31.8h-0.3
	c-2.5,10.4-5.7,22.2-8.3,30.9l-7.8,27.5H584l-6.7-27.4c-2-8.5-4.5-20.2-6.2-31h-0.2c-0.5,11.1-0.9,22.8-1.3,31.8l-1.2,28.2H549
	l4.8-78.9h28.4l5.3,21.2c2.1,8.8,4.4,19.3,6.1,28.9h0.4c2.2-9.6,4.8-20.7,7.1-29l5.9-21.1h27.8l4,78.9L618.2,205.2z M686.5,206.5
	c-24.5,0-37.9-18.4-37.9-40.2c0-22.9,15.1-41.2,39.2-41.2c25.4,0,38.3,18.8,38.3,39.9C726,190.3,710.8,206.5,686.5,206.5
	L686.5,206.5z M781.1,205.2l-16.6-31.9l-6.3,8.1v23.9h-20.9v-78.9h20.9v33.5h0.2c1.6-2.9,3.4-5.9,5.2-8.7l15.1-24.8h26l-25,33.6
	l26,45.3L781.1,205.2z M854.2,205.2c-1.2-2.3-3.2-8.4-5.5-18.1c-2.1-9.5-5-11.5-11.6-11.5h-3.4v29.6h-20.9v-77.8
	c8.5-1.2,17-1.7,25.5-1.6c12,0,20.7,1.6,26.7,6.1c5,3.9,7.8,9.5,7.8,17.2c0,9.8-7.4,16.9-13.6,19.1v0.5c5.3,2.2,8.1,7.3,10.1,14
	c2.5,8.1,5,19.5,6.5,22.6L854.2,205.2z M932.2,205.2l-5-18.2h-20.3l-4.4,18.2h-21.9l22.9-78.9h28.1l23.5,78.9H932.2z M1024.1,205.2
	h-62.8V194l34.9-49.7v-0.5h-31.6v-17.4h59v12.1l-33.8,48.9v0.5h34.4L1024.1,205.2z M1056,205.2h-21.2v-78.9h21.2V205.2z M1106.8,175
	c0,22.9-11,31.5-30,31.5c-4.7,0-9.4-0.6-13.9-1.9l2.2-17c3,0.8,6.1,1.3,9.2,1.3c6.8,0,11.2-3,11.2-13.9v-48.7h21.2L1106.8,175z
	 M1166.8,205.2l-5-18.2h-20.4l-4.4,18.2h-21.9l22.9-78.9h28.1l23.5,78.9L1166.8,205.2z"/>
</svg>
