<?xml version="1.0" encoding="UTF-8"?><svg id="HU" xmlns="http://www.w3.org/2000/svg" viewBox="0 0 188.61 62.38"><defs><style>.cls-1{fill:#224e9c;stroke-width:0px;}</style></defs><path class="cls-1" d="m141.98,46.17h-.04c-.2.8-.4,1.92-.6,2.68l-.58,2.39h2.5l-.62-2.41c-.2-.76-.46-1.86-.66-2.66Z"/><path class="cls-1" d="m98.01,46.13c-.41-.01-.82.01-1.22.08v3.19h.94c1.37,0,2.14-.68,2.14-1.68s-.66-1.58-1.86-1.6Z"/><path class="cls-1" d="m110.97,46.17h-.04c-.2.8-.4,1.92-.6,2.68l-.58,2.39h2.5l-.62-2.41c-.2-.76-.46-1.86-.66-2.66Z"/><path class="cls-1" d="m71.81,46.21c-1.72,0-2.82,1.64-2.82,4.11s1.1,4.07,2.84,4.07,2.75-1.7,2.75-4.11c0-2.31-1.04-4.07-2.78-4.07Z"/><path class="cls-1" d="m27.99,46.23c-.37-.01-.74.02-1.1.08v8.02c.25.03.51.05.76.04,2.34.04,4.05-1.26,4.05-4.29,0-2.61-1.56-3.85-3.71-3.85Z"/><path class="cls-1" d="m.19,38.37v24.01h188.11v-24.01H.19Zm154.46,1.96h3.67l-2.41,2.51h-2.86l1.6-2.51Zm-12.48,0h3.66l-2.39,2.52h-2.89l1.62-2.52Zm-31.01,0h3.65l-2.39,2.52h-2.89l1.62-2.52ZM13.74,57.02l-.85-3.11h-3.48l-.76,3.11h-3.73l3.91-13.46h4.79l4.01,13.46h-3.89Zm19.44-1.5c-1.48,1.16-3.67,1.66-6.31,1.66-1.74,0-2.9-.1-3.59-.22v-13.21c1.42-.2,2.86-.29,4.29-.28,2.58,0,4.19.42,5.53,1.34,1.48,1.02,2.44,2.69,2.44,5.17,0,2.74-1.03,4.51-2.35,5.53h0Zm13.3,1.52h-9.03v-13.47h8.75v2.94h-5.13v2.18h4.83v2.92h-4.83v2.48h5.41v2.96Zm13.54,0l-.16-4.81c-.04-1.54-.08-3.33-.06-5.43h-.06c-.42,1.78-.98,3.79-1.42,5.27l-1.34,4.69h-2.81l-1.14-4.67c-.34-1.46-.76-3.46-1.06-5.29h-.04c-.08,1.9-.16,3.89-.22,5.43l-.2,4.81h-3.31l.82-13.46h4.85l.9,3.61c.36,1.5.76,3.3,1.04,4.93h.08c.38-1.64.82-3.53,1.22-4.95l1-3.59h4.75l.68,13.46h-3.52Zm11.64.22c-4.17,0-6.47-3.14-6.47-6.87s2.58-7.03,6.69-7.03c4.33,0,6.53,3.21,6.53,6.81,0,4.33-2.59,7.08-6.75,7.08h0Zm16.15-.22l-2.83-5.45-1.08,1.38v4.07h-3.57v-13.47h3.57v5.71h.04c.28-.5.58-1,.88-1.48l2.58-4.23h4.44l-4.27,5.73,4.44,7.73h-4.19Zm12.48,0c-.2-.4-.54-1.44-.94-3.09-.36-1.62-.85-1.96-1.98-1.96h-.58v5.05h-3.57v-13.28c1.44-.2,2.9-.29,4.35-.28,2.06,0,3.53.28,4.55,1.04.85.66,1.34,1.62,1.34,2.94,0,1.68-1.26,2.88-2.32,3.25v.08c.9.38,1.38,1.24,1.72,2.39.42,1.38.85,3.33,1.12,3.85h-3.69Zm13.31,0l-.85-3.11h-3.47l-.76,3.11h-3.73l3.91-13.46h4.79l4.01,13.46h-3.9Zm12.2-2.78c.82,0,1.64-.13,2.41-.4l.5,2.83c-.51.24-1.78.54-3.39.54-5.03,0-7.25-3.14-7.25-6.71,0-4.75,3.47-7.17,7.49-7.17,1.56,0,2.82.3,3.38.6l-.7,2.83c-.79-.32-1.64-.48-2.5-.48-2.08,0-3.87,1.22-3.87,3.97,0,2.46,1.46,3.97,3.94,3.97h0Zm8.47,2.78h-3.61v-13.47h3.61v13.47Zm10.34,0l-.85-3.11h-3.47l-.76,3.11h-3.73l3.91-13.46h4.79l4.02,13.45h-3.9Zm14.63,0h-9.02v-13.47h8.75v2.94h-5.13v2.18h4.83v2.92h-4.83v2.48h5.41v2.96Zm9.07,0c-.2-.4-.54-1.44-.94-3.09-.36-1.62-.85-1.96-1.98-1.96h-.58v5.05h-3.57v-13.28c1.44-.2,2.9-.29,4.35-.28,2.06,0,3.53.28,4.55,1.04.85.66,1.34,1.62,1.34,2.94,0,1.68-1.26,2.88-2.32,3.25v.08c.9.38,1.38,1.24,1.72,2.39.42,1.38.85,3.33,1.12,3.85h-3.7Zm14.91-10.44h-3.49v10.44h-3.61v-10.45h-3.43v-3.02h10.54v3.02Zm-172.12-.45h-.04c-.2.8-.4,1.92-.6,2.67l-.58,2.39h2.5l-.62-2.42c-.2-.75-.46-1.85-.66-2.65Z"/><path class="cls-1" d="m166.04,46.13c-.41-.01-.82.01-1.22.08v3.19h.94c1.37,0,2.14-.68,2.14-1.68s-.66-1.58-1.86-1.6Z"/><path class="cls-1" d="m70.61,29.77h-4.08v2.09h4.57v2.5h-7.63v-11.37h7.38v2.48h-4.33v1.84h4.08v2.46Z"/><path class="cls-1" d="m82.64,33.81c-1.27.41-2.58.63-3.92.66-2.24,0-3.75-.56-4.79-1.54-1.06-1.01-1.62-2.48-1.62-4.12.02-3.95,2.95-5.95,6.65-5.95,1.54,0,2.7.27,3.29.56l-.61,2.43c-.64-.27-1.4-.47-2.7-.47-1.88,0-3.43.98-3.43,3.29,0,2.13,1.37,3.36,3.24,3.36.32,0,.64-.03.95-.1v-1.96h-1.52v-2.36h4.45v6.21Z"/><path class="cls-1" d="m87.22,34.36v-4.59l-3.59-6.78h3.49l.96,2.56c.32.79.52,1.37.78,2.09h.03c.22-.68.46-1.32.73-2.09l.95-2.56h3.43l-3.73,6.66v4.71h-3.04Z"/><path class="cls-1" d="m98.2,22.98v6.44c0,1.72.59,2.7,1.79,2.7s1.81-.89,1.81-2.7v-6.44h3.05v6.28c0,3.51-1.75,5.28-4.95,5.28s-4.76-1.71-4.76-5.36v-6.19h3.06Zm-1.19-1.89c0-.71.57-1.28,1.27-1.29.01,0,.03,0,.04,0,.68,0,1.24.56,1.23,1.25,0,.01,0,.02,0,.04.02.7-.53,1.28-1.23,1.3,0,0,0,0,0,0-.72,0-1.31-.57-1.32-1.29h0s0,0,0,0Zm3.68,0c-.03-.7.52-1.29,1.23-1.32s1.29.52,1.32,1.23c0,.03,0,.06,0,.09.03.7-.52,1.29-1.23,1.32s-1.29-.52-1.32-1.23c0-.03,0-.06,0-.09Z"/><path class="cls-1" d="m109.13,25.53h-2.9v-2.55h8.91v2.55h-2.95v8.82h-3.05v-8.82Z"/><path class="cls-1" d="m119,25.53h-2.9v-2.55h8.91v2.55h-2.95v8.82h-3.06v-8.82Z"/></svg>