<?xml version="1.0" encoding="utf-8"?>
<!-- Generator: Adobe Illustrator 27.7.0, SVG Export Plug-In . SVG Version: 6.00 Build 0)  -->
<svg version="1.1" id="Camada_1" xmlns="http://www.w3.org/2000/svg" xmlns:xlink="http://www.w3.org/1999/xlink" x="0px" y="0px"
	 viewBox="0 0 1193.3 290.8" style="enable-background:new 0 0 1193.3 290.8;" xml:space="preserve">
<style type="text/css">
	.st0{fill:#0C4DA2;}
	.st1{fill:#FFFFFF;}
	.st2{fill:#FFF200;}
</style>
<g id="Elements">
	<g>
		<path class="st0" d="M393.4,74.9h-12l-4,13.9h-19.5l3.9-13.9h-8.7V58.5h13.3l4-14.6H359V27.9h16l4.2-15h19.6l-4.2,15h11.9l4.2-15
			h19.5l-4.2,15h9.9V44h-14.4l-4,14.6h12.4v16.4h-17.1l-3.8,13.9h-19.4L393.4,74.9z M398,58.5l4.1-14.6h-12l-4.1,14.6H398z"/>
		<path class="st0" d="M448.2,58.7V9.1h22.5v49.6c0,7.3,5,12.1,12.6,12.1c7.7,0,12.6-4.8,12.6-12.1V9.1h22.4v49.5
			c0,20-14,33.2-35,33.2C462,91.8,448.2,78.6,448.2,58.7z"/>
		<path class="st0" d="M528.3,80l11.9-15.8c4.9,5.3,12.7,8.7,20.4,8.7c5,0,10-1.6,10-6.5c0-5.2-4.5-6.7-12.7-8.4
			c-17.3-3.5-27.3-10.3-27.3-24.8c0-16.6,15-25.6,32.8-25.6c12.4,0,22.5,3.5,29.8,10.7l-11.7,15c-6.2-4.7-12.1-6.9-17.9-6.9
			c-5.3,0-9.3,1.6-9.3,5.5s3.1,5.9,12.5,7.9c17.9,3.6,27.7,11.8,27.7,26.4c0,16.7-14.8,25.5-34.4,25.5C547,92,535.3,86.8,528.3,80z"
			/>
		<path class="st0" d="M626.2,9.2h27l29.8,81.1h-23.4l-5-14.8h-30.2l-5,14.8h-23.1L626.2,9.2z M639.4,32l-8.5,25h17.2l-8.5-25H639.4
			z"/>
		<path class="st0" d="M353.1,146.6c0-24.4,17.9-42.2,42.4-42.2s42.4,17.7,42.4,42c0,24.5-17.9,42.3-42.6,42.3
			C371,188.7,353.1,171.1,353.1,146.6z M414.8,146.6c0-12.4-8-21.5-19.2-21.5c-11.2,0-19.4,9-19.4,21.4c0,12.5,8.3,21.5,19.4,21.5
			C406.8,168,414.8,158.9,414.8,146.6z"/>
		<path class="st0" d="M515.8,126.7v60.5h-22.5v-60.5h-23.1v-20.8h68.5v20.8L515.8,126.7L515.8,126.7z"/>
		<path class="st0" d="M566.9,136.2h33.7v19.4h-33.7v12.3h39.8v19.4h-61.8V106h60.7v19.5h-38.7V136.2z"/>
		<path class="st0" d="M616.9,155.4v-49.5h22.5v49.6c0,7.3,5,12.1,12.6,12.1c7.7,0,12.6-4.8,12.6-12.1v-49.6h22.4v49.5
			c0,20-14,33.2-35,33.2C630.7,188.6,616.9,175.4,616.9,155.4z"/>
		<path class="st0" d="M349.3,202.8h23.6l17.1,56.8h0.2l17.4-56.8h23.3l-27.5,81.1h-26.7L349.3,202.8z"/>
		<path class="st0" d="M432.5,243.4c0-24.4,17.9-42.2,42.4-42.2s42.4,17.7,42.4,42c0,24.5-17.9,42.3-42.6,42.3
			C450.5,285.5,432.5,267.8,432.5,243.4z M494.2,243.4c0-12.4-8-21.5-19.2-21.5c-11.2,0-19.4,9-19.4,21.4c0,12.5,8.3,21.5,19.4,21.5
			C486.2,264.8,494.2,255.7,494.2,243.4z"/>
		<path class="st0" d="M568.1,223.5v60.5h-22.5v-60.5h-23.1v-20.8h68.5v20.8H568.1z"/>
		<path class="st0" d="M596.2,243.4c0-24.4,17.9-42.2,42.4-42.2s42.4,17.7,42.4,42c0,24.5-17.9,42.3-42.6,42.3
			C614.1,285.5,596.2,267.8,596.2,243.4z M657.8,243.4c0-12.4-8-21.5-19.2-21.5c-11.2,0-19.4,9-19.4,21.4c0,12.5,8.3,21.5,19.4,21.5
			C649.8,264.8,657.8,255.7,657.8,243.4z"/>
	</g>
	<g>
		<rect x="764.5" y="4.7" class="st1" width="428.8" height="286.1"/>
		<rect x="770.1" y="10.3" class="st0" width="417.6" height="274.8"/>
		<polygon class="st2" points="978.7,35.8 982.7,48.5 996.1,48.4 985.2,56.2 989.4,68.9 978.7,61 967.9,68.9 972.1,56.2 961.3,48.4 
			974.6,48.5 		"/>
		<polygon class="st2" points="978.7,226.6 982.7,239.3 996.1,239.2 985.2,247 989.4,259.7 978.7,251.8 967.9,259.7 972.1,247 
			961.3,239.2 974.6,239.3 		"/>
		<polygon class="st2" points="931.2,48.5 935.3,61.2 948.6,61.1 937.8,68.9 942,81.5 931.2,73.7 920.5,81.5 924.6,68.9 913.9,61.1 
			927.2,61.2 		"/>
		<polygon class="st2" points="896.3,83.5 900.3,96.2 913.7,96.1 902.8,103.9 907,116.6 896.3,108.7 885.5,116.6 889.7,103.9 
			878.9,96.1 892.2,96.2 		"/>
		<polygon class="st2" points="883.4,131.1 887.4,143.8 900.8,143.7 890,151.5 894.1,164.1 883.4,156.3 872.7,164.1 876.8,151.5 
			866,143.7 879.3,143.8 		"/>
		<polygon class="st2" points="896.1,178.7 900.2,191.4 913.5,191.3 902.7,199.1 906.9,211.8 896.1,203.9 885.4,211.8 889.6,199.1 
			878.7,191.3 892.1,191.4 		"/>
		<polygon class="st2" points="931.2,213.7 935.3,226.4 948.6,226.3 937.8,234.1 942,246.8 931.2,238.9 920.5,246.8 924.6,234.1 
			913.9,226.3 927.2,226.4 		"/>
		<polygon class="st2" points="1026.2,48.5 1022.1,61.2 1008.8,61.1 1019.6,68.9 1015.4,81.5 1026.2,73.7 1036.9,81.5 1032.8,68.9 
			1043.6,61.1 1030.3,61.2 		"/>
		<polygon class="st2" points="1061.1,83.5 1057.1,96.2 1043.7,96.1 1054.5,103.9 1050.4,116.6 1061.1,108.7 1071.9,116.6 
			1067.7,103.9 1078.5,96.1 1065.2,96.2 		"/>
		<polygon class="st2" points="1074,131.1 1069.9,143.8 1056.6,143.7 1067.4,151.5 1063.3,164.1 1074,156.3 1084.8,164.1 
			1080.6,151.5 1091.4,143.7 1078.1,143.8 		"/>
		<polygon class="st2" points="1061.2,178.7 1057.2,191.4 1043.9,191.3 1054.7,199.1 1050.5,211.8 1061.2,203.9 1072,211.8 
			1067.8,199.1 1078.7,191.3 1065.3,191.4 		"/>
		<polygon class="st2" points="1026.2,213.7 1022.1,226.4 1008.8,226.3 1019.6,234.1 1015.4,246.8 1026.2,238.9 1036.9,246.8 
			1032.8,234.1 1043.6,226.3 1030.3,226.4 		"/>
	</g>
	<path class="st0" d="M315.1,209.5L209.5,0L0,105.5l79,156.8H25.2V285h288.4v-22.6H210.3L315.1,209.5z M30.4,115.6l169.1-85.2
		l85.2,169.1l-124.8,62.8h-55.6L30.4,115.6z"/>
</g>
<g id="Clear_space">
</g>
</svg>
