<?xml version="1.0" encoding="UTF-8"?><svg id="FI" xmlns="http://www.w3.org/2000/svg" viewBox="0 0 188.61 74.64"><defs><style>.cls-1{fill:#224e9c;stroke-width:0px;}</style></defs><path class="cls-1" d="m52.01,19.53v-5.8l-4.55-8.57h4.43l1.21,3.25c.4,1,.66,1.73.98,2.64h.04c.28-.87.58-1.66.92-2.64l1.19-3.25h4.33l-4.71,8.42v5.95h-3.85Z"/><path class="cls-1" d="m65.43,5.17v5.31h4.67v-5.31h3.84v14.37h-3.84v-5.69h-4.67v5.69h-3.86V5.17h3.86Z"/><path class="cls-1" d="m76.6,5.36c1.52-.21,3.05-.31,4.58-.3,2.75,0,4.48.45,5.91,1.43,1.58,1.08,2.6,2.88,2.6,5.52,0,2.92-1.11,4.82-2.51,5.9-1.58,1.24-3.92,1.77-6.74,1.77-1.28.02-2.56-.05-3.83-.23V5.36Zm3.86,11.3c.27.04.54.05.81.04,2.49.04,4.33-1.34,4.33-4.58,0-2.79-1.66-4.11-3.96-4.11-.39-.01-.79.02-1.17.08v8.57Z"/><path class="cls-1" d="m100.75,13.74h-5.16v2.64h5.78v3.16h-9.64V5.17h9.34v3.13h-5.48v2.32h5.16v3.11Z"/><path class="cls-1" d="m103.76,15.7c1.16.57,2.44.88,3.73.89,1.32,0,1.96-.45,1.96-1.17s-.65-1.11-2.26-1.66c-2.43-.85-4.03-2.2-4.03-4.33,0-2.54,2.13-4.5,5.76-4.5,1.73,0,2.94.32,3.9.74l-.81,3.07c-.98-.45-2.05-.69-3.13-.69-1.17,0-1.81.43-1.81,1.07,0,.72.77,1.02,2.58,1.7,2.58.94,3.75,2.32,3.75,4.33,0,2.47-1.95,4.58-6.14,4.58-1.73,0-3.41-.45-4.22-.87l.72-3.18Z"/><path class="cls-1" d="m115.71,15.7c1.16.57,2.44.88,3.74.89,1.32,0,1.95-.45,1.95-1.17s-.64-1.11-2.26-1.66c-2.43-.85-4.03-2.2-4.03-4.33,0-2.54,2.13-4.5,5.75-4.5,1.73,0,2.94.32,3.9.74l-.81,3.07c-.98-.45-2.05-.68-3.12-.69-1.16,0-1.81.43-1.81,1.08,0,.72.77,1.02,2.58,1.7,2.58.94,3.75,2.32,3.75,4.33,0,2.47-1.95,4.58-6.14,4.58-1.73,0-3.41-.45-4.22-.87l.72-3.2Z"/><path class="cls-1" d="m131.19,16.21l-.81,3.33h-3.98l4.18-14.37h5.12l4.28,14.37h-4.16l-.92-3.32h-3.71Zm-1.79-13.43c0-.89.72-1.62,1.61-1.62.02,0,.03,0,.05,0,.88,0,1.58.72,1.58,1.59,0,0,0,.02,0,.03.01.89-.69,1.62-1.58,1.64-.91,0-1.65-.72-1.66-1.63,0,0,0-.01,0-.02h0Zm4.97,10.57l-.65-2.58c-.22-.81-.49-1.98-.7-2.83h-.04c-.22.85-.43,2.05-.65,2.86l-.62,2.56h2.66Zm-.32-10.57c0-.9.73-1.62,1.62-1.62s1.62.73,1.62,1.62-.73,1.62-1.62,1.62-1.62-.73-1.62-1.62Z"/><path class="cls-1" d="m68.72,34.61c-2.18,0-3.57,2.08-3.57,5.22s1.39,5.17,3.6,5.17,3.5-2.15,3.5-5.22-1.32-5.17-3.53-5.17Z"/><path class="cls-1" d="m118.4,34.56h-.05c-.25,1.01-.51,2.43-.76,3.4l-.73,3.03h3.17l-.79-3.06c-.25-.96-.58-2.36-.84-3.37Z"/><path class="cls-1" d="m101.96,34.51c-.52-.02-1.04.02-1.55.1v4.05h1.19c1.73,0,2.71-.87,2.71-2.13s-.84-2-2.36-2.03Z"/><path class="cls-1" d="m13.11,34.63c-.47-.01-.93.02-1.39.1v10.18c.32.04.64.06.96.05,2.96.05,5.14-1.6,5.14-5.45,0-3.3-1.98-4.88-4.71-4.88Z"/><path class="cls-1" d="m155.49,34.56h-.05c-.25,1.01-.51,2.43-.76,3.4l-.73,3.03h3.17l-.79-3.07c-.25-.95-.58-2.35-.84-3.36Z"/><path class="cls-1" d="m.87,24.67v30.46h186.06v-30.46H.87Zm18.83,21.75c-1.88,1.47-4.66,2.1-8.01,2.1-2.2,0-3.68-.13-4.56-.28v-16.75c1.81-.25,3.63-.37,5.45-.35,3.27,0,5.32.53,7.02,1.7,1.88,1.3,3.09,3.42,3.09,6.56,0,3.47-1.31,5.73-2.98,7.02Zm16.87,1.92h-11.45v-17.07h11.1v3.72h-6.51v2.76h6.13v3.7h-6.13v3.14h6.87v3.74Zm17.18,0l-.2-6.11c-.05-1.95-.1-4.23-.08-6.89h-.08c-.53,2.25-1.24,4.81-1.8,6.69l-1.7,5.95h-3.57l-1.44-5.92c-.43-1.85-.96-4.38-1.34-6.71h-.05c-.1,2.41-.2,4.94-.28,6.89l-.25,6.1h-4.21l1.04-17.08h6.16l1.14,4.59c.45,1.9.96,4.18,1.32,6.26h.1c.48-2.08,1.04-4.48,1.55-6.28l1.27-4.56h6.03l.87,17.08h-4.46Zm14.77.28c-5.29,0-8.21-3.98-8.21-8.72s3.27-8.92,8.49-8.92c5.5,0,8.28,4.08,8.28,8.64,0,5.5-3.29,9-8.56,9h0Zm20.5-.28l-3.6-6.92-1.37,1.75v5.17h-4.53v-17.07h4.53v7.25h.05c.35-.63.73-1.27,1.11-1.87l3.28-5.37h5.63l-5.41,7.27,5.63,9.81h-5.32Zm15.84,0c-.25-.51-.68-1.82-1.19-3.93-.46-2.05-1.08-2.48-2.51-2.48h-.73v6.41h-4.53v-16.84c1.83-.25,3.68-.37,5.52-.35,2.61,0,4.48.35,5.78,1.32,1.08.84,1.7,2.05,1.7,3.72,0,2.13-1.6,3.65-2.94,4.13v.1c1.14.48,1.75,1.57,2.18,3.03.53,1.75,1.08,4.23,1.42,4.89h-4.69Zm16.89,0l-1.08-3.95h-4.41l-.96,3.95h-4.74l4.97-17.08h6.08l5.09,17.08h-4.95Zm17.28-13.25h-4.43v13.25h-4.59v-13.25h-4.36v-3.83h13.38v3.82Zm6.7,13.25h-4.59v-17.07h4.59v17.07Zm13.12,0l-1.08-3.95h-4.42l-.97,3.95h-4.73l4.97-17.08h6.08l5.09,17.08h-4.94Zm21.81,0h-4.81l-2.9-5.67c-1.07-2.01-2.04-4.07-2.89-6.18h-.08c.1,2.31.15,4.89.15,7.65v4.2h-4.17v-17.07h5.4l2.71,5.24c1.02,1.93,1.92,3.93,2.69,5.98h.08c-.25-2.39-.37-4.79-.36-7.19v-4.03h4.18v17.07Z"/><path class="cls-1" d="m43.59,60.31c1.57-.22,3.16-.32,4.75-.3,2.07,0,3.54.36,4.55,1.13,1.06.84,1.67,2.12,1.64,3.48,0,1.45-.49,2.73-1.39,3.54-1.17,1.04-2.86,1.49-4.8,1.49-.36,0-.7-.02-.94-.04v4.88h-3.82v-14.17Zm3.82,6.35c.29.03.58.04.87.04,1.52,0,2.45-.77,2.45-2,0-1.07-.72-1.79-2.17-1.79-.39,0-.77.02-1.15.09v3.67Z"/><path class="cls-1" d="m60.25,60.12v8.14c0,2.17.75,3.41,2.26,3.41s2.28-1.12,2.28-3.41v-8.14h3.86v7.93c0,4.43-2.22,6.67-6.25,6.67s-6.01-2.15-6.01-6.78v-7.81h3.86Z"/><path class="cls-1" d="m84.79,67.15c0,4.63-2.77,7.57-7.2,7.57s-6.91-3.35-6.91-7.33,2.75-7.5,7.15-7.5c4.62,0,6.96,3.43,6.96,7.27Zm-10.04.17c0,2.69,1.17,4.35,3.03,4.35s2.94-1.81,2.94-4.39-1.11-4.35-2.96-4.35-3.01,1.75-3.01,4.39Z"/><path class="cls-1" d="m86.83,60.12h3.86v11.15h5.52v3.22h-9.38v-14.37Z"/><path class="cls-1" d="m107.11,68.69h-5.16v2.64h5.78v3.16h-9.63v-14.37h9.34v3.13h-5.48v2.32h5.16v3.11Z"/><path class="cls-1" d="m110.11,70.65c1.16.57,2.43.88,3.73.9,1.32,0,1.96-.45,1.96-1.17s-.65-1.11-2.26-1.66c-2.43-.85-4.03-2.2-4.03-4.33,0-2.54,2.13-4.5,5.76-4.5,1.73,0,2.94.32,3.9.75l-.8,3.08c-.98-.45-2.05-.68-3.13-.68-1.17,0-1.81.43-1.81,1.07,0,.72.77,1.02,2.58,1.7,2.58.94,3.75,2.32,3.75,4.33,0,2.47-1.95,4.58-6.14,4.58-1.73,0-3.41-.45-4.22-.87l.71-3.2Z"/><path class="cls-1" d="m124.6,63.34h-3.67v-3.22h11.26v3.22h-3.74v11.15h-3.86v-11.15Z"/><path class="cls-1" d="m136.24,71.16l-.81,3.32h-3.99l4.18-14.37h5.11l4.29,14.37h-4.16l-.92-3.32h-3.71Zm3.18-2.86l-.66-2.58c-.22-.81-.49-1.98-.7-2.83h-.04c-.22.85-.43,2.05-.65,2.86l-.62,2.56h2.68Z"/></svg>