<?xml version="1.0" encoding="utf-8"?>
<!-- Generator: Adobe Illustrator 27.6.1, SVG Export Plug-In . SVG Version: 6.00 Build 0)  -->
<svg version="1.1" id="Layer_1" xmlns="http://www.w3.org/2000/svg" xmlns:xlink="http://www.w3.org/1999/xlink" x="0px" y="0px"
	 viewBox="0 0 796 241" style="enable-background:new 0 0 796 241;" xml:space="preserve">
<style type="text/css">
	.st0{fill:#FFFFFF;}
</style>
<path class="st0" d="M66.5,5.8v66.4H48.7V5.8H66.5z"/>
<path class="st0" d="M78.7,72.2V5.8h21l10.5,20.4c4,7.5,7.5,15.3,10.4,23.2h0.3c-1-9.3-1.4-18.6-1.4-28V5.8h16.2v66.4h-18.7
	l-11.2-22c-4.2-7.8-7.9-15.8-11.2-24h-0.3c0.4,9,0.6,19,0.6,29.7v16.3L78.7,72.2z"/>
<path class="st0" d="M149.3,54.5c5.4,2.6,11.3,4,17.2,4.1c6.1,0,9-2.1,9-5.4s-3-5.1-10.4-7.7c-11.2-3.9-18.6-10.1-18.6-20
	c0-11.7,9.8-20.8,26.6-20.8c8,0,13.6,1.5,18,3.4l-3.7,14.2c-4.5-2.1-9.5-3.2-14.5-3.1c-5.4,0-8.4,2-8.4,4.9c0,3.4,3.5,4.7,11.9,7.9
	c11.9,4.3,17.3,10.7,17.3,20c0,11.4-9,21.2-28.4,21.2c-8,0-15.8-2.1-19.5-4L149.3,54.5z"/>
<path class="st0" d="M221.1,5.8v66.4h-17.8V5.8H221.1z"/>
<path class="st0" d="M275,45.4h-23.9v12.2h26.7v14.6h-44.5V5.8h43.1v14.5h-25.3V31H275V45.4z"/>
<path class="st0" d="M343.8,48.4c-0.2-7.6-0.4-16.4-0.3-26.8h-0.3c-2.1,8.8-4.8,18.7-7,26l-6.6,23.1h-13.9l-5.6-23
	c-1.7-7.2-3.7-17-5.2-26.1h-0.2c-0.4,9.4-0.8,19.2-1.1,26.8l-1,23.7h-16.3l4-66.3h23.9l4.4,17.8c1.8,7.4,3.7,16.2,5.1,24.3h0.4
	c1.9-8.1,4-17.4,6-24.4l4.9-17.7h23.4l3.4,66.4h-17.3L343.8,48.4z"/>
<path class="st0" d="M414.4,45.4h-23.8v12.2h26.7v14.6h-44.5V5.8h43.1v14.5h-25.3V31h23.8V45.4z"/>
<path class="st0" d="M446.6,6.7c7.3-1,14.6-1.5,22-1.4c9.5,0,16.3,1.7,21,5.2c4.9,3.8,7.7,9.8,7.6,16c0,6.7-2.3,12.6-6.4,16.3
	c-5.4,4.8-13.2,6.9-22.2,6.9c-1.7,0-3.2-0.1-4.3-0.2v22.6h-17.7V6.7z M464.2,36c1.3,0.1,2.7,0.2,4,0.2c7,0,11.3-3.6,11.3-9.3
	c0-4.9-3.3-8.3-10-8.3c-1.8,0-3.6,0.1-5.3,0.4V36z"/>
<path class="st0" d="M547.5,45.4h-23.8v12.2h26.7v14.6h-44.5V5.8H549v14.5h-25.3V31h23.8L547.5,45.4z"/>
<path class="st0" d="M560.2,6.7c7.1-1,14.3-1.4,21.5-1.4c10.1,0,17.4,1.4,22.4,5.1c4.2,3.2,6.6,8,6.6,14.5c0,8.3-6.2,14.2-11.4,16
	v0.4c4.4,1.9,6.8,6.1,8.5,11.8c2.1,6.8,4.2,16.4,5.5,19h-18.2c-1-2-2.7-7.1-4.6-15.3c-1.8-8-4.2-9.6-9.8-9.6h-2.8v24.9h-17.6V6.7z
	 M577.8,34.6h4.6c6.7,0,10.5-3.3,10.5-8.3s-3.2-7.8-9.2-7.9c-2-0.1-4,0.1-6,0.4L577.8,34.6z"/>
<path class="st0" d="M640.4,5.8h17.8v51.5h25.5v14.9h-43.3V5.8z"/>
<path class="st0" d="M710.5,56.8l-3.7,15.4h-18.4l19.3-66.3h23.6l19.8,66.3h-19.2l-4.2-15.4H710.5z M725.2,43.6l-3-11.9
	c-1-3.7-2.3-9.1-3.2-13.1h-0.2c-1,3.9-2,9.4-3,13.2l-2.9,11.8H725.2z"/>
<path class="st0" d="M543.2,141.5H543c-1.2,4.7-2.3,11.2-3.5,15.7l-3.4,14h14.6l-3.6-14.1C545.9,152.7,544.4,146.2,543.2,141.5z"/>
<path class="st0" d="M467.3,141.3c-2.4-0.1-4.8,0.1-7.1,0.5v18.7h5.5c8,0,12.5-4,12.5-9.8S474.3,141.4,467.3,141.3z"/>
<path class="st0" d="M319,141.8c-10.1,0-16.5,9.6-16.5,24.1c0,14.7,6.4,23.9,16.6,23.9s16.1-10,16.1-24.1
	C335.2,152.1,329.1,141.8,319,141.8z"/>
<path class="st0" d="M62.2,141.9c-2.2-0.1-4.3,0.1-6.4,0.5v47c1.5,0.2,3,0.3,4.4,0.2c13.7,0.2,23.8-7.4,23.8-25.1
	C83.9,149.2,74.8,141.9,62.2,141.9z"/>
<path class="st0" d="M5.7,95.9v140.7h784.7V95.9H5.7z M92.6,196.3c-8.7,6.8-21.5,9.7-37,9.7c-10.2,0-17-0.6-21.1-1.3v-77.3
	c8.3-1.2,16.7-1.7,25.1-1.6c15.1,0,24.6,2.4,32.4,7.8c8.7,6,14.3,15.8,14.3,30.3C106.4,179.9,100.3,190.3,92.6,196.3z M170.5,205.2
	h-52.9v-78.9h51.2v17.2h-30.1v12.8h28.3v17.1h-28.3v14.5h31.7V205.2z M249.8,205.2l-0.9-28.2c-0.2-9-0.5-19.5-0.4-31.8h-0.4
	c-2.5,10.4-5.7,22.2-8.3,30.9l-7.8,27.5h-16.5l-6.7-27.4c-2-8.5-4.5-20.2-6.2-31h-0.2c-0.5,11.1-0.9,22.8-1.3,31.8l-1.2,28.2h-19.4
	l4.8-78.9h28.4l5.3,21.2c2.1,8.8,4.5,19.3,6.1,28.9h0.5c2.2-9.6,4.8-20.7,7.1-29l5.9-21.1h27.9l4,78.9L249.8,205.2z M318,206.5
	c-24.5,0-37.9-18.4-37.9-40.2c0-22.9,15.1-41.2,39.2-41.2c25.4,0,38.3,18.8,38.3,39.9C357.6,190.3,342.4,206.5,318,206.5z
	 M410.8,188.9c4.8,0,9.6-0.8,14.2-2.3l2.9,16.6c-3,1.4-10.4,3.2-19.9,3.2c-29.5,0-42.5-18.4-42.5-39.3c0-27.9,20.4-42,43.9-42
	c9.1,0,16.5,1.8,19.8,3.5l-4.1,16.6c-4.6-1.9-9.6-2.8-14.6-2.8c-12.2,0-22.7,7.1-22.7,23.3C387.8,180,396.3,188.9,410.8,188.9
	L410.8,188.9z M480.6,205.2c-1.2-2.3-3.2-8.4-5.5-18.1c-2.1-9.5-5-11.5-11.6-11.5h-3.4v29.6h-21v-77.8c8.5-1.2,17-1.7,25.5-1.6
	c12,0,20.7,1.6,26.7,6.1c5,3.9,7.8,9.5,7.8,17.2c0,9.8-7.4,16.9-13.6,19.1v0.5c5.3,2.2,8.1,7.3,10.1,14c2.5,8.1,5,19.5,6.5,22.6
	L480.6,205.2z M558.6,205.2l-5-18.2h-20.3l-4.5,18.2H507l22.9-78.9H558l23.5,78.9H558.6z M650.5,205.2h-62.7V194l34.9-49.7v-0.5H591
	v-17.4h59v12.1l-33.8,48.9v0.5h34.4L650.5,205.2z M682.4,205.2h-21.1v-78.9h21.2L682.4,205.2z M743,205.2l-5-18.2h-20.3l-4.4,18.2
	h-21.9l22.9-78.9h28.1l23.5,78.9H743z"/>
<path class="st0" d="M727.6,141.5h-0.2c-1.2,4.7-2.3,11.2-3.5,15.7l-3.4,14h14.6l-3.6-14.1C730.3,152.7,728.8,146.2,727.6,141.5z"/>
</svg>
