<?xml version="1.0" encoding="UTF-8"?><svg id="GA" xmlns="http://www.w3.org/2000/svg" viewBox="0 0 188.61 62.38"><defs><style>.cls-1{fill:#224e9c;stroke-width:0px;}</style></defs><path class="cls-1" d="m1.03,11.84h3.57v10.31h5.1v2.98H1.03v-13.28Z"/><path class="cls-1" d="m19.77,19.76h-4.77v2.44h5.34v2.92h-8.91v-13.29h8.63v2.91h-5.07v2.14h4.77v2.88Z"/><path class="cls-1" d="m32.27,24.79c-.51.23-1.75.53-3.35.53-4.96,0-7.15-3.09-7.15-6.62,0-4.69,3.43-7.07,7.39-7.07,1.54,0,2.78.3,3.33.59l-.69,2.8c-.78-.32-1.62-.48-2.46-.47-2.05,0-3.83,1.2-3.83,3.92,0,2.42,1.44,3.92,3.88,3.92.81,0,1.62-.13,2.38-.39l.5,2.8Z"/><path class="cls-1" d="m37.75,11.84v4.91h4.32v-4.91h3.55v13.29h-3.55v-5.27h-4.32v5.26h-3.57v-13.29h3.57Z"/><path class="cls-1" d="m56.41,19.76h-4.77v2.44h5.34v2.92h-8.91v-13.29h8.63v2.91h-5.06v2.14h4.77v2.88Z"/><path class="cls-1" d="m62.52,11.84v13.29h-3.57v-13.29h3.57Z"/><path class="cls-1" d="m64.96,11.84h3.57v10.31h5.1v2.98h-8.67v-13.28Z"/><path class="cls-1" d="m83.7,19.76h-4.77v2.44h5.34v2.92h-8.91v-13.29h8.63v2.91h-5.06v2.14h4.77v2.88Z"/><path class="cls-1" d="m93.64,22.06l-.75,3.08h-3.69l3.86-13.29h4.73l3.96,13.29h-3.84l-.85-3.08h-3.43Zm2.93-2.64l-.61-2.4c-.2-.75-.45-1.83-.65-2.62h-.02c-.2.79-.39,1.89-.59,2.64l-.57,2.37h2.45Z"/><path class="cls-1" d="m103.45,12.02c1.42-.2,2.86-.29,4.3-.27,2.03,0,3.49.27,4.49,1.03.85.65,1.32,1.59,1.32,2.9,0,1.66-1.24,2.84-2.29,3.21v.08c.89.37,1.35,1.22,1.7,2.36.41,1.35.85,3.29,1.1,3.8h-3.65c-.2-.39-.53-1.42-.93-3.05-.35-1.6-.85-1.93-1.95-1.93h-.57v4.99h-3.53v-13.11Zm3.53,5.58h.92c1.35,0,2.11-.68,2.11-1.66s-.65-1.56-1.83-1.58c-.4-.01-.81.01-1.2.08v3.15Z"/><path class="cls-1" d="m119.75,21.58c1.07.53,2.25.81,3.45.83,1.22,0,1.81-.41,1.81-1.09s-.59-1.02-2.09-1.54c-2.25-.79-3.73-2.03-3.73-4,0-2.35,1.97-4.16,5.32-4.16,1.24-.03,2.47.2,3.6.69l-.75,2.84c-.91-.42-1.9-.63-2.9-.63-1.08,0-1.68.39-1.68.99,0,.68.71.95,2.39,1.58,2.38.87,3.47,2.15,3.47,4,0,2.28-1.8,4.24-5.67,4.24-1.6,0-3.15-.41-3.9-.81l.67-2.94Z"/><path class="cls-1" d="m143.07,18.35c0,4.28-2.56,6.99-6.66,6.99s-6.39-3.09-6.39-6.78,2.54-6.94,6.6-6.94c4.28,0,6.44,3.17,6.44,6.72Zm-9.28.16c0,2.48,1.08,4.02,2.8,4.02s2.72-1.67,2.72-4.06-1.03-4.02-2.74-4.02-2.78,1.61-2.78,4.06h0Z"/><path class="cls-1" d="m144.96,25.13v-13.29h4.2l2.11,4.08c.8,1.5,1.5,3.06,2.09,4.65h.05c-.2-1.86-.29-3.73-.27-5.6v-3.12h3.25v13.29h-3.74l-2.25-4.42c-.84-1.56-1.59-3.17-2.25-4.81h-.06c.08,1.8.12,3.8.12,5.95v3.26h-3.24Z"/><path class="cls-1" d="m166.25,22.06l-.75,3.08h-3.68l3.86-13.29h4.73l3.96,13.29h-3.84l-.85-3.08h-3.43Zm2.93-2.64l-.61-2.39c-.2-.75-.45-1.83-.65-2.62h-.04c-.2.79-.39,1.89-.59,2.64l-.57,2.37h2.46Z"/><path class="cls-1" d="m176.06,25.13v-13.29h4.2l2.11,4.08c.8,1.5,1.5,3.06,2.09,4.65h.06c-.2-1.86-.29-3.73-.27-5.6v-3.12h3.25v13.29h-3.74l-2.25-4.42c-.84-1.56-1.59-3.17-2.25-4.81h-.06c.08,1.8.12,3.8.12,5.95v3.26h-3.24Z"/><path class="cls-1" d="m150.57,40.63h-.05c-.26,1.05-.53,2.53-.79,3.53l-.77,3.15h3.3l-.82-3.18c-.26-1-.61-2.45-.87-3.51Z"/><path class="cls-1" d="m32.49,40.63h-.05c-.26,1.05-.53,2.53-.79,3.53l-.76,3.15h3.29l-.82-3.18c-.26-1-.61-2.45-.87-3.51Z"/><path class="cls-1" d="m101.44,40.63h-.05c-.26,1.05-.53,2.53-.79,3.53l-.76,3.15h3.29l-.82-3.18c-.27-1-.61-2.45-.87-3.51Z"/><path class="cls-1" d="m50.63,40.69c-2.27,0-3.72,2.16-3.72,5.43s1.45,5.38,3.74,5.38,3.64-2.24,3.64-5.43c0-3.05-1.36-5.38-3.66-5.38Z"/><path class="cls-1" d="m13.52,40.71c-.49-.01-.97.02-1.45.11v10.59c.33.05.67.06,1,.05,3.08.05,5.35-1.66,5.35-5.67,0-3.44-2.06-5.08-4.9-5.08Z"/><path class="cls-1" d="m.87,30.35v31.69h186.57v-31.69H.87Zm19.5,22.62c-1.95,1.53-4.85,2.19-8.34,2.19-2.29,0-3.83-.13-4.74-.29v-17.42c1.88-.26,3.77-.38,5.67-.37,3.4,0,5.54.55,7.3,1.77,1.95,1.35,3.21,3.56,3.21,6.83,0,3.61-1.37,5.96-3.1,7.3Zm15.6,2l-1.13-4.11h-4.59l-1,4.11h-4.93l5.18-17.77h6.31l5.3,17.77h-5.13Zm14.44.29c-5.51,0-8.54-4.14-8.54-9.07s3.4-9.28,8.83-9.28c5.72,0,8.62,4.24,8.62,8.99,0,5.72-3.43,9.36-8.91,9.36h0Zm26.73-.29h-5.01l-3.01-5.9c-1.12-2.09-2.12-4.23-3.01-6.43h-.08c.11,2.4.16,5.09.16,7.96v4.37h-4.35v-17.77h5.62l2.82,5.46c1.07,2.01,2,4.09,2.79,6.22h.08c-.26-2.49-.39-4.99-.37-7.49v-4.19h4.35v17.77Zm14.89,0h-11.6v-17.77h4.77v13.79h6.83v3.98Zm12.89,0l-1.13-4.11h-4.59l-.99,4.11h-4.94l5.16-17.77h6.33l5.3,17.77h-5.14Zm17.98-13.78h-4.61v13.78h-4.77v-13.78h-4.53v-3.98h13.92v3.98Zm17.47,13.78h-4.74v-7.04h-5.77v7.04h-4.77v-17.77h4.77v6.56h5.77v-6.56h4.74v17.77Zm13.68,0l-1.13-4.11h-4.59l-1.01,4.11h-4.92l5.17-17.77h6.33l5.3,17.77h-5.14Zm12.17,0h-4.76v-17.77h4.77v17.77Zm7.91.26c-2.13,0-4.22-.55-5.22-1.08l.9-3.93c1.44.71,3.01,1.09,4.61,1.12,1.63,0,2.43-.55,2.43-1.45s-.79-1.37-2.8-2.05c-3.01-1.05-4.98-2.72-4.98-5.35,0-3.14,2.64-5.56,7.12-5.56,2.14,0,3.64.39,4.82.92l-1,3.8c-1.22-.56-2.54-.84-3.87-.84-1.45,0-2.24.53-2.24,1.32,0,.9.95,1.26,3.19,2.11,3.19,1.16,4.64,2.87,4.64,5.35,0,3.05-2.4,5.65-7.6,5.65Z"/></svg>