<?xml version="1.0" encoding="UTF-8"?><svg id="BG" xmlns="http://www.w3.org/2000/svg" viewBox="0 0 186.06 57.79"><defs><style>.cls-1{fill:#224e9c;stroke-width:0px;}</style></defs><path class="cls-1" d="m70.32,37.08c-2.26,0-3.7,2.15-3.7,5.41s1.44,5.36,3.73,5.36,3.62-2.23,3.62-5.41-1.36-5.36-3.65-5.36Z"/><path class="cls-1" d="m119.48,37.02h-.05c-.26,1.05-.53,2.52-.79,3.52l-.76,3.14h3.28l-.82-3.17c-.26-1-.6-2.44-.86-3.49Z"/><path class="cls-1" d="m13.52,39.39c0,1.77-.26,3.53-.73,5.23-.28.99-.66,1.94-1.12,2.86h5.04v-10.01h-3.18v1.92Z"/><path class="cls-1" d="m104.25,37.05c-.47-.01-.95.02-1.42.1v4.52c.36.04.72.06,1.08.05,1.87,0,3.02-.95,3.02-2.47,0-1.31-.9-2.2-2.68-2.2Z"/><path class="cls-1" d="m171.95,39.17c0,1.42,1.31,2.1,2.84,2.1.4.02.81-.01,1.21-.08v-4.09c-.46-.09-.92-.14-1.39-.13-1.5,0-2.65.68-2.65,2.2Z"/><path class="cls-1" d="m-.07,26.77v31.58h186.11v-31.58H-.07Zm23.17,29.11h-3.57l-.22-4.57h-10.03l-.22,4.57h-3.59l-.16-8.17,1.55-.13c.71-1.24,1.27-2.56,1.65-3.94.42-1.7.63-3.45.63-5.2v-4.83h12.29v13.97l1.87.13-.18,8.17Zm14.05-4.57h-11.87v-17.7h11.5v3.86h-6.75v2.86h6.36v3.83h-6.36v3.26h7.12v3.89Zm17.81,0l-.21-6.33c-.05-2.02-.11-4.39-.08-7.14h-.08c-.55,2.34-1.29,4.99-1.87,6.93l-1.76,6.17h-3.7l-1.5-6.15c-.45-1.92-1-4.55-1.39-6.96h-.05c-.11,2.5-.21,5.12-.29,7.14l-.26,6.33h-4.36l1.08-17.7h6.38l1.18,4.75c.47,1.97,1,4.33,1.37,6.49h.11c.5-2.15,1.08-4.65,1.6-6.51l1.31-4.73h6.25l.9,17.7h-4.63Zm15.15.29c-5.49,0-8.51-4.12-8.51-9.03s3.39-9.24,8.8-9.24c5.7,0,8.59,4.23,8.59,8.95,0,5.7-3.41,9.32-8.88,9.32h0Zm24.11-6.12c.63,1.97,1.23,3.97,2.1,5.84h-5.1c-.6-1.21-.9-2.49-1.26-3.78-.53-1.81-1.21-3.34-2.99-3.34h-.79v7.12h-4.67v-17.71h4.67v7.14h.21l4.39-7.14h5.75l-5.93,7.75c1.99.63,2.99,2.13,3.62,4.12h0Zm15.68-1.97c-1.44,1.29-3.52,1.84-5.91,1.84-.45,0-.87-.02-1.16-.05v6.01h-4.71v-17.46c1.29-.21,3.14-.37,5.86-.37,2.55,0,4.36.45,5.59,1.39,1.21.9,2.02,2.47,2.02,4.28s-.59,3.36-1.7,4.36h0Zm13.05,7.8l-1.12-4.1h-4.58l-1,4.1h-4.91l5.15-17.7h6.3l5.28,17.7h-5.12Zm23.9,4.57h-3.57l-.22-4.57h-12.72v-17.7h4.75v13.82h5.36v-13.82h4.75v13.97l1.87.13-.21,8.17Zm17.41-4.57h-4.33v-4.23c-.03-2.53.07-5.05.31-7.56h-.08c-.81,2.22-1.77,4.38-2.89,6.46l-2.76,5.33h-5.46v-17.7h4.36v4.31c0,2.84-.11,5.86-.21,8.22h.08c.94-2.18,2.18-4.7,3.12-6.51l2.99-6.02h4.86v17.7Zm16.44,0h-4.7v-6.64h-.66c-.59,0-1.16.21-1.6.6-1.1.97-1.5,3.1-2,4.46-.18.54-.4,1.07-.66,1.57h-5.01c.4-.68.72-1.4.94-2.15.71-2.02,1.1-3.97,2.39-5.17.43-.38.92-.68,1.45-.9v-.1c-1.84-.37-3.62-1.65-3.62-4.31-.03-1.51.69-2.94,1.92-3.82,1.47-1.1,3.82-1.39,6.09-1.39,1.83-.01,3.65.11,5.46.37v17.47Z"/><path class="cls-1" d="m32.89,7.5c1.52-.82,3.23-1.24,4.96-1.22,3.54,0,5.51,1.77,5.51,3.9,0,1.88-1.19,3.03-2.92,3.48v.04c1.75.24,3.41,1.51,3.41,3.45,0,3.43-3.63,4.54-6.46,4.54-1.62,0-3.43-.33-4.71-1.08l.8-3.05c.62.31,2.26.9,3.72.9s2.46-.53,2.46-1.59c0-1.4-1.55-1.59-2.72-1.59h-1.66v-2.94h1.64c1.33,0,2.3-.46,2.3-1.48,0-.75-.71-1.33-2.06-1.33-1.15,0-2.5.45-3.37.82l-.89-2.83Z"/><path class="cls-1" d="m49.78,18l-.84,3.45h-4.14l4.34-14.92h5.31l4.45,14.92h-4.33l-.95-3.45h-3.84Zm3.3-2.97l-.69-2.68c-.22-.84-.51-2.06-.73-2.94h-.04c-.22.88-.45,2.13-.67,2.97l-.63,2.66h2.77Z"/><path class="cls-1" d="m70.17,15.43h-5.36v2.75h6v3.28h-10.01V6.53h9.71v3.25h-5.7v2.41h5.36v3.23Z"/><path class="cls-1" d="m85.67,6.53v11.78l1.57.11-.15,6.89h-3.01l-.2-3.85h-8.46l-.19,3.85h-3.02l-.13-6.89,1.31-.11c.6-1.04,1.07-2.16,1.4-3.32.35-1.43.53-2.9.53-4.38v-4.07h10.36Zm-6.66,4.87c0,1.49-.22,2.97-.62,4.4-.24.83-.56,1.64-.95,2.42h4.25v-8.43h-2.68v1.62Z"/><path class="cls-1" d="m92.93,6.53v5.51h4.85v-5.51h3.98v14.92h-3.98v-5.91h-4.85v5.91h-4.01V6.53h4.01Z"/><path class="cls-1" d="m118.57,13.84c0,4.8-2.88,7.86-7.48,7.86s-7.18-3.47-7.18-7.62,2.86-7.79,7.41-7.79c4.82,0,7.26,3.57,7.26,7.55Zm-10.43.18c0,2.79,1.22,4.52,3.14,4.52s3.05-1.88,3.05-4.56-1.15-4.52-3.08-4.52-3.12,1.81-3.12,4.56Z"/><path class="cls-1" d="m124.54,7.5c1.52-.82,3.23-1.24,4.96-1.22,3.54,0,5.51,1.77,5.51,3.9,0,1.88-1.19,3.03-2.92,3.48v.04c1.75.24,3.41,1.51,3.41,3.45,0,3.43-3.63,4.54-6.46,4.54-1.62,0-3.43-.33-4.71-1.08l.8-3.05c.62.31,2.26.9,3.72.9s2.46-.53,2.46-1.59c0-1.4-1.55-1.59-2.72-1.59h-1.66v-2.94h1.64c1.33,0,2.3-.46,2.3-1.48,0-.75-.71-1.33-2.06-1.33-1.15,0-2.5.45-3.37.82l-.89-2.83Z"/><path class="cls-1" d="m141.44,18l-.84,3.45h-4.14l4.34-14.92h5.31l4.45,14.92h-4.32l-.95-3.45h-3.85Zm3.3-2.97l-.69-2.68c-.22-.84-.51-2.06-.73-2.94h-.04c-.22.88-.45,2.13-.67,2.97l-.64,2.66h2.78Z"/></svg>