<?xml version="1.0" encoding="utf-8"?>
<!-- Generator: Adobe Illustrator 27.7.0, SVG Export Plug-In . SVG Version: 6.00 Build 0)  -->
<svg version="1.1" id="Camada_1" xmlns="http://www.w3.org/2000/svg" xmlns:xlink="http://www.w3.org/1999/xlink" x="0px" y="0px"
	 viewBox="0 0 1690.4 288.9" style="enable-background:new 0 0 1690.4 288.9;" xml:space="preserve">
<style type="text/css">
	.st0{fill:#0C4DA2;}
	.st1{fill:#FFFFFF;}
	.st2{fill:#FFF200;}
</style>
<g id="Elements">
	<g>
		<g>
			<g>
				<path class="st0" d="M393.4,150.2h-12l-4,14h-19.5l3.9-14h-8.7v-16.4h13.3l4-14.6H359v-16.1h16l4.2-15h19.6l-4.2,15h11.9l4.2-15
					h19.5l-4.2,15h9.9v16.1h-14.4l-4,14.6h12.4v16.4h-17.1l-3.8,14h-19.4L393.4,150.2z M398,133.8l4.1-14.6h-12l-4.1,14.6H398z"/>
				<path class="st0" d="M469.2,117.6h32.9v17.6h-32.9v30.5h-22.5V84.4h60.1V103h-37.6V117.6z"/>
				<path class="st0" d="M510,125.1c0-24.4,17.9-42.2,42.4-42.2s42.4,17.7,42.4,42c0,24.5-17.9,42.3-42.6,42.3
					C527.9,167.2,510,149.6,510,125.1z M571.7,125.1c0-12.4-8-21.5-19.2-21.5c-11.2,0-19.4,9-19.4,21.4c0,12.5,8.3,21.5,19.4,21.5
					C563.6,146.5,571.7,137.4,571.7,125.1z"/>
				<path class="st0" d="M605.3,84.4h22.4v60.7h34.3v20.6h-56.6V84.4z"/>
				<path class="st0" d="M664.7,125.1c0-24.4,17.9-42.2,42.4-42.2s42.4,17.7,42.4,42c0,24.5-17.9,42.3-42.6,42.3
					C682.6,167.2,664.7,149.6,664.7,125.1z M726.4,125.1c0-12.4-8-21.5-19.2-21.5c-11.2,0-19.4,9-19.4,21.4
					c0,12.5,8.3,21.5,19.4,21.5C718.3,146.5,726.4,137.4,726.4,125.1z"/>
				<path class="st0" d="M753.9,155.3l11.9-15.8c4.9,5.3,12.7,8.7,20.4,8.7c5,0,10-1.6,10-6.5c0-5.2-4.5-6.7-12.7-8.4
					c-17.3-3.5-27.3-10.3-27.3-24.8c0-16.6,15-25.6,32.8-25.6c12.4,0,22.5,3.5,29.8,10.7l-11.7,15c-6.2-4.7-12.1-6.9-17.9-6.9
					c-5.3,0-9.3,1.6-9.3,5.5s3.1,5.9,12.5,7.9c17.9,3.6,27.7,11.8,27.7,26.5c0,16.7-14.8,25.5-34.4,25.5
					C772.5,167.2,760.9,162.1,753.9,155.3z"/>
				<path class="st0" d="M851,114.7h33.7v19.4H851v12.3h39.8v19.4H829V84.5h60.7V104H851V114.7z"/>
				<path class="st0" d="M897,155.3l11.9-15.8c4.9,5.3,12.7,8.7,20.4,8.7c5.1,0,10-1.6,10-6.5c0-5.2-4.4-6.7-12.7-8.4
					c-17.3-3.5-27.3-10.3-27.3-24.8c0-16.6,15-25.6,32.8-25.6c12.4,0,22.5,3.5,29.8,10.7l-11.7,15c-6.2-4.7-12.1-6.9-17.9-6.9
					c-5.3,0-9.3,1.6-9.3,5.5s3.1,5.9,12.5,7.9c17.9,3.6,27.7,11.8,27.7,26.5c0,16.7-14.8,25.5-34.4,25.5
					C915.6,167.2,904,162.1,897,155.3z M922.9,169.1l14.8,2c-2.3,9.3-4.3,14.2-7.6,21.9l-11.7-2.6
					C920.5,182.7,921.5,176.9,922.9,169.1z"/>
				<path class="st0" d="M1010.9,105.2v60.5h-22.5v-60.5h-23.1V84.4h68.5v20.8H1010.9z"/>
				<path class="st0" d="M1062.1,114.7h33.7v19.4h-33.7v12.3h39.8v19.4h-61.8V84.5h60.7V104h-38.7V114.7z"/>
				<path class="st0" d="M1109.1,125.9v-16.6h46.7v16.6H1109.1z"/>
				<path class="st0" d="M1203.4,105.2v60.5h-22.5v-60.5h-23.1V84.4h68.5v20.8H1203.4z M1186.3,169.1l14.8,2
					c-2.3,9.3-4.3,14.2-7.6,21.9l-11.7-2.6C1183.9,182.7,1185,176.9,1186.3,169.1z"/>
				<path class="st0" d="M1232.8,84.4h22.6v81.3h-22.6V84.4z"/>
				<path class="st0" d="M349.3,202h23.6l17.1,56.8h0.2l17.4-56.8h23.3l-27.5,81.1h-26.7L349.3,202z"/>
				<path class="st0" d="M430.1,242.6c0-24.4,17.9-42.2,42.4-42.2s42.4,17.7,42.4,42c0,24.5-17.9,42.3-42.6,42.3
					C448.1,284.7,430.1,267.1,430.1,242.6z M491.8,242.6c0-12.4-8-21.5-19.2-21.5c-11.2,0-19.4,9-19.4,21.4
					c0,12.5,8.3,21.5,19.4,21.5C483.8,264,491.8,254.9,491.8,242.6z"/>
				<path class="st0" d="M563.3,222.7v60.5h-22.5v-60.5h-23.1v-20.8h68.5v20.8H563.3z"/>
				<path class="st0" d="M592,251.4v-49.5h22.5v49.6c0,7.3,5,12.1,12.6,12.1c7.7,0,12.6-4.8,12.6-12.1v-49.6H662v49.5
					c0,20-14,33.2-35,33.2C605.8,284.6,592,271.4,592,251.4z"/>
				<path class="st0" d="M675.8,201.9h22.4v60.7h34.3v20.6h-56.6V201.9z"/>
			</g>
		</g>
	</g>
	<g>
		<rect x="1334.9" y="51.7" class="st1" width="355.5" height="237.2"/>
		<rect x="1339.6" y="56.4" class="st0" width="346.2" height="227.8"/>
		<polygon class="st2" points="1512.5,77.5 1515.9,88 1526.9,87.9 1517.9,94.4 1521.4,104.9 1512.5,98.4 1503.6,104.9 1507,94.4 
			1498.1,87.9 1509.1,88 		"/>
		<polygon class="st2" points="1512.5,235.7 1515.9,246.2 1526.9,246.1 1517.9,252.6 1521.4,263.1 1512.5,256.6 1503.6,263.1 
			1507,252.6 1498.1,246.1 1509.1,246.2 		"/>
		<polygon class="st2" points="1473.1,88 1476.5,98.5 1487.5,98.5 1478.6,104.9 1482.1,115.4 1473.1,108.9 1464.2,115.4 
			1467.7,104.9 1458.8,98.5 1469.8,98.5 		"/>
		<polygon class="st2" points="1444.2,117.1 1447.5,127.6 1458.6,127.5 1449.6,133.9 1453.1,144.4 1444.2,137.9 1435.3,144.4 
			1438.7,133.9 1429.7,127.5 1440.8,127.6 		"/>
		<polygon class="st2" points="1433.5,156.5 1436.8,167 1447.9,166.9 1438.9,173.4 1442.4,183.9 1433.5,177.4 1424.6,183.9 
			1428.1,173.4 1419.1,166.9 1430.1,167 		"/>
		<polygon class="st2" points="1444,195.9 1447.4,206.5 1458.4,206.4 1449.5,212.9 1453,223.4 1444,216.8 1435.1,223.4 
			1438.6,212.9 1429.6,206.4 1440.7,206.5 		"/>
		<polygon class="st2" points="1473.1,225 1476.5,235.5 1487.5,235.4 1478.6,241.9 1482.1,252.4 1473.1,245.9 1464.2,252.4 
			1467.7,241.9 1458.8,235.4 1469.8,235.5 		"/>
		<polygon class="st2" points="1551.9,88 1548.5,98.5 1537.4,98.5 1546.4,104.9 1543,115.4 1551.9,108.9 1560.8,115.4 1557.3,104.9 
			1566.3,98.5 1555.3,98.5 		"/>
		<polygon class="st2" points="1580.8,117.1 1577.5,127.6 1566.4,127.5 1575.4,133.9 1571.9,144.4 1580.8,137.9 1589.8,144.4 
			1586.3,133.9 1595.2,127.5 1584.2,127.6 		"/>
		<polygon class="st2" points="1591.5,156.5 1588.2,167 1577.1,166.9 1586.1,173.4 1582.6,183.9 1591.5,177.4 1600.4,183.9 
			1597,173.4 1605.9,166.9 1594.9,167 		"/>
		<polygon class="st2" points="1580.9,195.9 1577.6,206.5 1566.5,206.4 1575.5,212.9 1572,223.4 1580.9,216.8 1589.9,223.4 
			1586.4,212.9 1595.4,206.4 1584.3,206.5 		"/>
		<polygon class="st2" points="1551.9,225 1548.5,235.5 1537.4,235.4 1546.4,241.9 1543,252.4 1551.9,245.9 1560.8,252.4 
			1557.3,241.9 1566.3,235.4 1555.3,235.5 		"/>
	</g>
	<path class="st0" d="M315.1,209.5L209.6,0L0,105.6l79,156.8H25.2V285h288.4v-22.6H210.3L315.1,209.5z M30.4,115.6l169.1-85.2
		l85.2,169.1L160,262.4h-55.6L30.4,115.6z"/>
</g>
<g id="Clear_space">
</g>
</svg>
