<?xml version="1.0" encoding="UTF-8"?><svg id="DA" xmlns="http://www.w3.org/2000/svg" viewBox="0 0 188.61 62.38"><defs><style>.cls-1{fill:#224e9c;stroke-width:0px;}</style></defs><path class="cls-1" d="m29.61,21.05c1.2.59,2.53.91,3.87.93,1.37,0,2.03-.46,2.03-1.22s-.67-1.15-2.34-1.72c-2.52-.88-4.18-2.28-4.18-4.49,0-2.63,2.21-4.66,5.97-4.66,1.79,0,3.05.33,4.04.77l-.83,3.19c-1.02-.47-2.13-.71-3.25-.71-1.22,0-1.88.45-1.88,1.1,0,.75.79,1.06,2.67,1.77,2.67.97,3.89,2.41,3.89,4.49,0,2.56-2.02,4.75-6.36,4.75-1.79,0-3.54-.46-4.37-.9l.75-3.31Z"/><path class="cls-1" d="m45.65,21.58l-.84,3.45h-4.13l4.33-14.89h5.3l4.44,14.89h-4.31l-.95-3.45h-3.84Zm3.29-2.96l-.68-2.67c-.22-.84-.51-2.06-.73-2.94h-.04c-.22.88-.45,2.12-.66,2.96l-.64,2.65h2.76Z"/><path class="cls-1" d="m69.25,19.71c-.04-1.7-.09-3.69-.07-6.01h-.07c-.46,1.97-1.08,4.2-1.57,5.83l-1.48,5.19h-3.12l-1.26-5.17c-.37-1.61-.84-3.81-1.17-5.86h-.04c-.09,2.1-.18,4.31-.24,6.01l-.22,5.33h-3.66l.9-14.89h5.38l.99,4c.4,1.66.84,3.65,1.15,5.46h.09c.42-1.81.9-3.91,1.35-5.48l1.1-3.98h5.26l.75,14.89h-3.89l-.18-5.33Z"/><path class="cls-1" d="m88.36,19.71c-.04-1.7-.09-3.69-.07-6.01h-.07c-.46,1.97-1.08,4.2-1.57,5.83l-1.48,5.19h-3.11l-1.27-5.17c-.37-1.61-.84-3.81-1.17-5.86h-.04c-.09,2.1-.17,4.31-.24,6.01l-.22,5.33h-3.66l.9-14.89h5.37l.99,4c.4,1.66.84,3.65,1.15,5.46h.09c.42-1.81.9-3.91,1.35-5.48l1.11-3.98h5.26l.75,14.89h-3.88l-.17-5.33Z"/><path class="cls-1" d="m104.23,19.02h-5.35v2.74h5.99v3.27h-9.99v-14.89h9.68v3.25h-5.68v2.41h5.35v3.22Z"/><path class="cls-1" d="m107.08,25.03v-14.89h4.71l2.36,4.57c.89,1.69,1.68,3.43,2.34,5.22h.07c-.22-2.09-.32-4.18-.31-6.28v-3.51h3.65v14.89h-4.2l-2.52-4.95c-.94-1.75-1.78-3.55-2.52-5.38h-.07c.09,2.02.13,4.26.13,6.67v3.67h-3.65Z"/><path class="cls-1" d="m140.44,17.43c0,4.79-2.87,7.85-7.47,7.85s-7.16-3.48-7.16-7.61,2.85-7.78,7.4-7.78c4.8,0,7.23,3.56,7.23,7.54Zm-10.41.18c0,2.78,1.21,4.51,3.14,4.51s3.05-1.88,3.05-4.55-1.15-4.51-3.07-4.51-3.12,1.81-3.12,4.55h0Z"/><path class="cls-1" d="m155.15,19.71c-.04-1.7-.09-3.69-.07-6.01h-.07c-.46,1.97-1.08,4.2-1.57,5.83l-1.48,5.19h-3.12l-1.26-5.17c-.37-1.61-.84-3.81-1.17-5.86h-.04c-.09,2.1-.17,4.31-.24,6.01l-.22,5.33h-3.67l.9-14.89h5.37l.99,4c.4,1.66.84,3.65,1.15,5.46h.09c.42-1.81.9-3.91,1.35-5.48l1.11-3.98h5.26l.75,14.89h-3.88l-.17-5.33Z"/><path class="cls-1" d="m105.77,40.6c-.54-.02-1.07.02-1.6.11v4.2h1.23c1.79,0,2.81-.9,2.81-2.21s-.87-2.07-2.44-2.1Z"/><path class="cls-1" d="m71.33,40.71c-2.26,0-3.7,2.15-3.7,5.41s1.44,5.36,3.73,5.36,3.62-2.23,3.62-5.41c0-3.04-1.36-5.36-3.65-5.36Z"/><path class="cls-1" d="m13.72,40.73c-.48-.01-.97.02-1.44.11v10.54c.33.05.66.06,1,.05,3.07.05,5.33-1.65,5.33-5.64,0-3.43-2.05-5.06-4.88-5.06Z"/><path class="cls-1" d="m122.81,40.65h-.05c-.26,1.05-.52,2.52-.79,3.52l-.76,3.14h3.28l-.81-3.17c-.26-1-.6-2.44-.87-3.49Z"/><path class="cls-1" d="m1.04,30.41v31.56h185.99v-31.56H1.04Zm19.5,22.53c-1.94,1.52-4.83,2.18-8.3,2.18-2.28,0-3.81-.13-4.72-.29v-17.35c1.87-.26,3.76-.38,5.64-.37,3.39,0,5.51.55,7.27,1.76,1.94,1.35,3.2,3.54,3.2,6.8,0,3.6-1.36,5.93-3.09,7.27Zm17.48,1.99h-11.87v-17.69h11.5v3.86h-6.75v2.86h6.35v3.83h-6.35v3.26h7.11v3.88Zm17.8,0l-.21-6.32c-.05-2.02-.11-4.38-.08-7.14h-.08c-.55,2.34-1.29,4.99-1.86,6.93l-1.76,6.17h-3.7l-1.5-6.14c-.45-1.92-1-4.54-1.39-6.95h-.05c-.1,2.49-.21,5.12-.29,7.14l-.26,6.32h-4.35l1.08-17.69h6.38l1.18,4.75c.47,1.97,1,4.33,1.36,6.48h.11c.5-2.15,1.08-4.65,1.6-6.51l1.31-4.72h6.25l.9,17.69h-4.63Zm15.3.29c-5.49,0-8.5-4.12-8.5-9.03s3.38-9.23,8.78-9.23c5.7,0,8.58,4.22,8.58,8.95,0,5.69-3.41,9.31-8.87,9.31h0Zm21.23-.29l-3.73-7.17-1.42,1.81v5.35h-4.7v-17.69h4.7v7.51h.05c.37-.66.76-1.31,1.16-1.94l3.39-5.57h5.83l-5.61,7.53,5.83,10.16h-5.51Zm16.4,0c-.26-.52-.71-1.89-1.23-4.07-.47-2.13-1.12-2.57-2.6-2.57h-.76v6.64h-4.7v-17.45c1.9-.26,3.81-.39,5.72-.37,2.69,0,4.65.37,5.98,1.36,1.12.87,1.76,2.13,1.76,3.86,0,2.21-1.65,3.78-3.04,4.28v.11c1.18.5,1.81,1.63,2.26,3.14.55,1.81,1.12,4.38,1.47,5.07h-4.86Zm17.5,0l-1.12-4.09h-4.57l-1,4.09h-4.9l5.14-17.69h6.3l5.28,17.69h-5.13Zm17.9-13.73h-4.59v13.73h-4.75v-13.73h-4.51v-3.96h13.86v3.96Zm6.93,13.73h-4.75v-17.69h4.75v17.69Zm15.12,0h-11.86v-17.69h11.5v3.86h-6.75v2.86h6.35v3.83h-6.35v3.26h7.11v3.88Zm15.41-13.73h-4.59v13.73h-4.75v-13.73h-4.51v-3.96h13.86v3.96Z"/></svg>