<?xml version="1.0" encoding="utf-8"?>
<!-- Generator: Adobe Illustrator 27.6.1, SVG Export Plug-In . SVG Version: 6.00 Build 0)  -->
<svg version="1.1" id="Layer_1" xmlns="http://www.w3.org/2000/svg" xmlns:xlink="http://www.w3.org/1999/xlink" x="0px" y="0px"
	 viewBox="0 0 794 243" style="enable-background:new 0 0 794 243;" xml:space="preserve">
<style type="text/css">
	.st0{fill:#FFFFFF;}
</style>
<path class="st0" d="M113.2,6.8v37.6c0,10,3.4,15.8,10.4,15.8s10.5-5.2,10.5-15.8V6.8H152v36.6c0,20.5-10.2,30.8-28.8,30.8
	c-18.2,0-27.8-9.9-27.8-31.3V6.8H113.2z"/>
<path class="st0" d="M164.1,73.2V6.8h21l10.5,20.4c4,7.5,7.5,15.3,10.4,23.2h0.3c-1-9.3-1.4-18.6-1.4-28V6.8h16.2v66.4h-18.7
	l-11.2-22.1c-4.2-7.8-7.9-15.8-11.2-24h-0.3c0.4,9,0.6,19,0.6,29.7v16.3L164.1,73.2z"/>
<path class="st0" d="M251.3,6.8v66.4h-17.8V6.8H251.3z"/>
<path class="st0" d="M263.5,7.7c7-1,14.1-1.4,21.2-1.4c12.7,0,20.7,2.1,27.3,6.6c7.3,5,12,13.3,12,25.5c0,13.5-5.1,22.2-11.6,27.3
	c-7.3,5.7-18.1,8.2-31.1,8.2c-5.9,0.1-11.8-0.2-17.7-1.1L263.5,7.7z M281.4,59.9c1.2,0.2,2.5,0.2,3.7,0.2c11.5,0.2,20-6.2,20-21.2
	c0-12.9-7.7-19-18.3-19c-1.8-0.1-3.6,0.1-5.4,0.4L281.4,59.9z"/>
<path class="st0" d="M395.8,39.3c0,21.4-12.8,35-33.3,35s-31.9-15.5-31.9-33.9c0-19.3,12.7-34.7,33-34.7
	C385,5.7,395.8,21.6,395.8,39.3z M349.5,40.1c0,12.4,5.4,20.1,14,20.1S377,51.8,377,39.9c0-11.4-5.1-20.1-13.7-20.1
	S349.5,27.9,349.5,40.1L349.5,40.1z"/>
<path class="st0" d="M406.5,55.5c5.4,2.6,11.2,4,17.2,4.1c6.1,0,9.1-2.1,9.1-5.4s-3-5.1-10.4-7.7c-11.2-3.9-18.6-10.1-18.6-20
	c0-11.7,9.8-20.8,26.6-20.8c8,0,13.6,1.5,18,3.4l-3.7,14.2c-4.5-2.1-9.5-3.2-14.5-3.1c-5.4,0-8.4,2-8.4,4.9c0,3.4,3.5,4.7,11.9,7.9
	c11.9,4.3,17.3,10.7,17.3,20c0,11.4-9,21.2-28.3,21.2c-8,0-15.8-2.1-19.5-4L406.5,55.5z"/>
<path class="st0" d="M480,7.7c7.3-1,14.6-1.5,22-1.4c9.5,0,16.3,1.7,21,5.2c4.9,3.8,7.7,9.8,7.6,16c0,6.7-2.3,12.6-6.4,16.3
	c-5.4,4.8-13.2,6.9-22.2,6.9c-1.7,0-3.2-0.1-4.3-0.2v22.6H480V7.7z M497.6,37c1.3,0.1,2.7,0.2,4,0.2c7,0,11.3-3.6,11.3-9.3
	c0-4.9-3.3-8.3-10-8.3c-1.8,0-3.6,0.1-5.3,0.4V37z"/>
<path class="st0" d="M580.9,46.4h-23.8v12.2h26.7v14.6h-44.5V6.8h43.1v14.5h-25.3V32h23.8V46.4z"/>
<path class="st0" d="M593.6,6.8h17.8v51.5h25.5v14.9h-43.3V6.8z"/>
<path class="st0" d="M663.7,57.8l-3.7,15.4h-18.4l19.3-66.3h23.6l19.8,66.3H685l-4.2-15.4H663.7z M678.3,44.6l-3-11.9
	c-1-3.7-2.3-9.1-3.2-13.1h-0.2c-1,3.9-2,9.4-3,13.2L666,44.6H678.3z"/>
<path class="st0" d="M320.3,142.8c-10.1,0-16.5,9.6-16.5,24.1c0,14.7,6.4,23.9,16.6,23.9s16.1-10,16.1-24.1
	C336.6,153.1,330.5,142.8,320.3,142.8z"/>
<path class="st0" d="M544.6,142.5h-0.2c-1.2,4.7-2.3,11.2-3.5,15.7l-3.4,14h14.6l-3.6-14.1C547.3,153.7,545.8,147.2,544.6,142.5z"/>
<path class="st0" d="M468.7,142.3c-2.4-0.1-4.8,0.1-7.1,0.5v18.7h5.5c8,0,12.5-4,12.5-9.8S475.7,142.4,468.7,142.3z"/>
<path class="st0" d="M726.3,142.5h-0.2c-1.2,4.7-2.3,11.2-3.5,15.7l-3.4,14h14.6l-3.6-14.1C729,153.7,727.5,147.2,726.3,142.5z"/>
<path class="st0" d="M6.3,96.9v140.7h783.3V96.9H6.3z M93.9,197.3c-8.7,6.8-21.5,9.7-37,9.7c-10.2,0-17-0.6-21.1-1.3v-77.3
	c8.3-1.2,16.7-1.7,25.2-1.6c15.1,0,24.6,2.4,32.4,7.8c8.7,6,14.3,15.8,14.3,30.3C107.7,180.9,101.7,191.3,93.9,197.3z M171.9,206.2
	H119v-78.9h51.2v17.2h-30.1v12.8h28.3v17.1h-28.3v14.5h31.7V206.2z M251.2,206.2l-0.9-28.2c-0.2-9-0.5-19.5-0.4-31.8h-0.4
	c-2.5,10.4-5.7,22.2-8.3,30.9l-7.8,27.5h-16.5l-6.7-27.4c-2-8.5-4.5-20.2-6.2-31h-0.2c-0.5,11.1-0.9,22.8-1.3,31.8l-1.2,28.2h-19.4
	l4.8-78.9h28.4l5.3,21.2c2.1,8.8,4.4,19.3,6.1,28.9h0.5c2.2-9.6,4.8-20.7,7.1-29l5.9-21.1h27.9l4,78.9L251.2,206.2z M319.4,207.5
	c-24.5,0-37.9-18.4-37.9-40.2c0-22.9,15.1-41.2,39.2-41.2c25.4,0,38.3,18.8,38.3,39.9C358.9,191.3,343.7,207.5,319.4,207.5
	L319.4,207.5z M412.2,189.9c4.8,0,9.6-0.8,14.2-2.3l2.9,16.6c-3,1.4-10.4,3.2-19.9,3.2c-29.5,0-42.5-18.4-42.5-39.3
	c0-27.9,20.4-42,43.9-42c9.1,0,16.5,1.8,19.8,3.5l-4.1,16.6c-4.6-1.9-9.6-2.8-14.6-2.8c-12.2,0-22.7,7.1-22.7,23.3
	C389.1,181,397.6,189.9,412.2,189.9L412.2,189.9z M482,206.2c-1.2-2.3-3.2-8.4-5.5-18.1c-2.1-9.5-5-11.5-11.6-11.5h-3.4v29.6h-20.9
	v-77.8c8.4-1.2,17-1.7,25.5-1.6c12.1,0,20.7,1.6,26.7,6.1c5,3.9,7.8,9.5,7.8,17.2c0,9.8-7.4,16.9-13.6,19.1v0.5
	c5.3,2.2,8.1,7.3,10.1,14c2.5,8.1,5,19.5,6.5,22.6L482,206.2z M560,206.2l-5-18.2h-20.3l-4.4,18.2h-21.9l22.9-78.9h28.1l23.5,78.9
	H560z M631.5,189.9c4.8,0,9.6-0.8,14.2-2.3l2.9,16.6c-3,1.4-10.4,3.2-19.9,3.2c-29.5,0-42.5-18.4-42.5-39.3c0-27.9,20.3-42,43.9-42
	c9.1,0,16.5,1.8,19.8,3.5l-4.1,16.6c-4.6-1.9-9.6-2.8-14.6-2.8c-12.2,0-22.7,7.1-22.7,23.3C608.5,181,617,189.9,631.5,189.9
	L631.5,189.9z M681.1,206.2H660v-78.9h21.2L681.1,206.2z M741.7,206.2l-5-18.2h-20.3l-4.5,18.2H690l23-78.9h28l23.5,78.9H741.7z"/>
<path class="st0" d="M63.5,142.9c-2.2-0.1-4.3,0.1-6.4,0.5v47c1.5,0.2,3,0.3,4.4,0.2c13.7,0.2,23.8-7.4,23.8-25.1
	C85.3,150.2,76.1,142.9,63.5,142.9z"/>
</svg>
