<?xml version="1.0" encoding="utf-8"?>
<!-- Generator: Adobe Illustrator 27.7.0, SVG Export Plug-In . SVG Version: 6.00 Build 0)  -->
<svg version="1.1" id="Camada_1" xmlns="http://www.w3.org/2000/svg" xmlns:xlink="http://www.w3.org/1999/xlink" x="0px" y="0px"
	 viewBox="0 0 1182.5 290.8" style="enable-background:new 0 0 1182.5 290.8;" xml:space="preserve">
<style type="text/css">
	.st0{fill:#0C4DA2;}
	.st1{fill:#FFFFFF;}
	.st2{fill:#FFF200;}
</style>
<g id="Elements">
	<g>
		<path class="st0" d="M393.4,75.9h-12l-4,13.9h-19.5l3.9-13.9h-8.7V59.5h13.3l4-14.6H359V28.9h16l4.2-15h19.6l-4.2,15h11.9l4.2-15
			h19.5l-4.2,15h9.9V45h-14.4l-4,14.6h12.4v16.4h-17.1l-3.8,13.9h-19.4L393.4,75.9z M398,59.5l4.1-14.6h-12L386,59.5H398z"/>
		<path class="st0" d="M445.8,59.7V10.1h22.5v49.6c0,7.3,5,12.1,12.6,12.1c7.7,0,12.6-4.8,12.6-12.1V10.1h22.4v49.5
			c0,20-14,33.2-35,33.2C459.6,92.8,445.8,79.6,445.8,59.7z"/>
		<path class="st0" d="M523.5,81l11.9-15.8c4.9,5.3,12.7,8.7,20.4,8.7c5,0,10-1.6,10-6.5c0-5.2-4.5-6.7-12.7-8.4
			c-17.3-3.5-27.3-10.3-27.3-24.8c0-16.6,15-25.6,32.8-25.6c12.4,0,22.5,3.5,29.8,10.7l-11.7,15c-6.2-4.7-12.1-6.9-17.9-6.9
			c-5.3,0-9.3,1.6-9.3,5.5s3.1,5.9,12.5,7.9c17.9,3.6,27.7,11.8,27.7,26.4c0,16.7-14.8,25.5-34.4,25.5C542.2,93,530.5,87.8,523.5,81
			z"/>
		<path class="st0" d="M619,10.2h27l29.8,81.1h-23.4l-5-14.8h-30.2l-5,14.8h-23.1L619,10.2z M632.2,33l-8.5,25h17.2l-8.5-25H632.2z"
			/>
		<path class="st0" d="M395,127.7v60.5h-22.5v-60.5h-23.1v-20.8h68.5v20.8L395,127.7L395,127.7z"/>
		<path class="st0" d="M423.6,156.4v-49.5h22.5v49.6c0,7.3,5,12.1,12.6,12.1c7.7,0,12.6-4.8,12.6-12.1v-49.6h22.4v49.5
			c0,20-14,33.2-35,33.2C437.5,189.6,423.6,176.4,423.6,156.4z"/>
		<path class="st0" d="M349.3,203.8h23.6l17.1,56.8h0.2l17.4-56.8h23.3l-27.5,81.1h-26.7L349.3,203.8z"/>
		<path class="st0" d="M430.1,244.4c0-24.4,17.9-42.2,42.4-42.2s42.4,17.7,42.4,42c0,24.5-17.9,42.3-42.6,42.3
			C448.1,286.5,430.1,268.8,430.1,244.4z M491.8,244.4c0-12.4-8-21.5-19.2-21.5c-11.2,0-19.4,9-19.4,21.4c0,12.5,8.3,21.5,19.4,21.5
			C483.8,265.8,491.8,256.7,491.8,244.4z"/>
		<path class="st0" d="M563.3,224.5v60.5h-22.5v-60.5h-23.1v-20.8h68.5v20.8H563.3z"/>
		<path class="st0" d="M588.9,244.4c0-24.4,17.9-42.2,42.4-42.2s42.4,17.7,42.4,42c0,24.5-17.9,42.3-42.6,42.3
			C606.9,286.5,588.9,268.8,588.9,244.4z M650.6,244.4c0-12.4-8-21.5-19.2-21.5c-11.2,0-19.4,9-19.4,21.4c0,12.5,8.3,21.5,19.4,21.5
			C642.6,265.8,650.6,256.7,650.6,244.4z"/>
	</g>
	<g>
		<rect x="753.8" y="4.7" class="st1" width="428.8" height="286.1"/>
		<rect x="759.4" y="10.3" class="st0" width="417.5" height="274.8"/>
		<polygon class="st2" points="967.9,35.8 972,48.5 985.3,48.4 974.5,56.2 978.7,68.9 967.9,61 957.2,68.9 961.4,56.2 950.5,48.4 
			963.9,48.5 		"/>
		<polygon class="st2" points="967.9,226.6 972,239.3 985.3,239.2 974.5,247 978.7,259.7 967.9,251.8 957.2,259.7 961.4,247 
			950.5,239.2 963.9,239.3 		"/>
		<polygon class="st2" points="920.5,48.5 924.5,61.2 937.9,61.1 927.1,68.9 931.2,81.5 920.5,73.7 909.7,81.5 913.9,68.9 
			903.1,61.1 916.4,61.2 		"/>
		<polygon class="st2" points="885.5,83.5 889.6,96.2 902.9,96.1 892.1,103.9 896.3,116.6 885.5,108.7 874.8,116.6 879,103.9 
			868.1,96.1 881.5,96.2 		"/>
		<polygon class="st2" points="872.7,131.1 876.7,143.8 890,143.7 879.2,151.5 883.4,164.1 872.7,156.3 861.9,164.1 866.1,151.5 
			855.2,143.7 868.6,143.8 		"/>
		<polygon class="st2" points="885.4,178.7 889.5,191.4 902.8,191.3 892,199.1 896.2,211.8 885.4,203.8 874.7,211.8 878.8,199.1 
			868,191.3 881.3,191.4 		"/>
		<polygon class="st2" points="920.5,213.7 924.5,226.4 937.9,226.3 927.1,234.1 931.2,246.8 920.5,238.9 909.7,246.8 913.9,234.1 
			903.1,226.3 916.4,226.4 		"/>
		<polygon class="st2" points="1015.5,48.5 1011.4,61.2 998,61.1 1008.9,68.9 1004.7,81.5 1015.5,73.7 1026.2,81.5 1022,68.9 
			1032.8,61.1 1019.5,61.2 		"/>
		<polygon class="st2" points="1050.4,83.5 1046.3,96.2 1033,96.1 1043.8,103.9 1039.6,116.6 1050.4,108.7 1061.1,116.6 1057,103.9 
			1067.8,96.1 1054.4,96.2 		"/>
		<polygon class="st2" points="1063.3,131.1 1059.2,143.8 1045.9,143.7 1056.7,151.5 1052.5,164.1 1063.3,156.3 1074,164.1 
			1069.9,151.5 1080.6,143.7 1067.3,143.8 		"/>
		<polygon class="st2" points="1050.5,178.7 1046.5,191.4 1033.1,191.3 1044,199.1 1039.8,211.8 1050.5,203.8 1061.3,211.8 
			1057.1,199.1 1067.9,191.3 1054.6,191.4 		"/>
		<polygon class="st2" points="1015.5,213.7 1011.4,226.4 998,226.3 1008.9,234.1 1004.7,246.8 1015.5,238.9 1026.2,246.8 
			1022,234.1 1032.8,226.3 1019.5,226.4 		"/>
	</g>
	<path class="st0" d="M315.1,209.5L209.5,0L0,105.5l79,156.8H25.2V285h288.4v-22.6H210.3L315.1,209.5z M30.4,115.6l169.1-85.2
		l85.2,169.1l-124.8,62.8h-55.6L30.4,115.6z"/>
</g>
<g id="Clear_space">
</g>
</svg>
