<?xml version="1.0" encoding="utf-8"?>
<!-- Generator: Adobe Illustrator 27.7.0, SVG Export Plug-In . SVG Version: 6.00 Build 0)  -->
<svg version="1.1" id="Camada_1" xmlns="http://www.w3.org/2000/svg" xmlns:xlink="http://www.w3.org/1999/xlink" x="0px" y="0px"
	 viewBox="0 0 1361.6 306.7" style="enable-background:new 0 0 1361.6 306.7;" xml:space="preserve">
<style type="text/css">
	.st0{fill:#0C4DA2;}
	.st1{fill:#FFFFFF;}
	.st2{fill:#FFF200;}
</style>
<g id="Elements">
	<g>
		<path class="st0" d="M393.3,90.8h-12l-4,13.9h-19.5l3.9-13.9H353V74.4h13.3l4-14.6h-11.4V43.8h16l4.2-15h19.6l-4.2,15h11.9l4.2-15
			h19.5l-4.2,15h9.9v16.1h-14.4l-4,14.6h12.4v16.4h-17.1l-3.8,13.9h-19.4L393.3,90.8z M397.9,74.4l4.1-14.6h-12l-4.1,14.6H397.9z"/>
		<path class="st0" d="M445.7,74.5V25h22.5v49.7c0,7.3,5,12.1,12.6,12.1c7.7,0,12.6-4.8,12.6-12.1V25h22.4v49.5
			c0,20-14,33.2-35,33.2C459.5,107.7,445.7,94.5,445.7,74.5z"/>
		<path class="st0" d="M524,92l35.8-47.9H525V25h64.3v14.3l-35.7,48h36.5v19H524V92z M546.8,10.2c0-6,4.5-10.2,10.2-10.2
			c6,0,10.3,4.2,10.3,10.2S563,20.6,557,20.6C551.2,20.6,546.8,16.2,546.8,10.2z"/>
		<path class="st0" d="M624.2,25.1h27l29.8,81.2h-23.4l-5-14.8h-30.2l-5,14.8h-23.1L624.2,25.1z M637.4,47.8l-8.5,25H646l-8.5-25
			H637.4z"/>
		<path class="st0" d="M356.4,121.8h22.4v60.7H413V203h-56.6L356.4,121.8L356.4,121.8z"/>
		<path class="st0" d="M408.7,163.3v-16.6h46.7v16.6H408.7z"/>
		<path class="st0" d="M458.4,121.9h23.6l17.1,56.7h0.2l17.4-56.7H540L512.4,203h-26.7L458.4,121.9z"/>
		<path class="st0" d="M539.2,162.5c0-24.4,17.9-42.2,42.4-42.2s42.4,17.7,42.4,42c0,24.5-17.9,42.3-42.6,42.3
			C557.1,204.6,539.2,186.9,539.2,162.5z M600.9,162.5c0-12.4-8-21.5-19.2-21.5s-19.4,9-19.4,21.4c0,12.5,8.3,21.5,19.4,21.5
			C592.8,183.9,600.9,174.8,600.9,162.5z"/>
		<path class="st0" d="M672.4,142.6v60.5h-22.5v-60.5h-23.1v-20.8h68.5v20.8H672.4L672.4,142.6z"/>
		<path class="st0" d="M394.9,239.4v60.5h-22.5v-60.5h-23.1v-20.8h68.5v20.8H394.9z"/>
		<path class="st0" d="M424,218.6h22.6v81.3H424V218.6z"/>
		<path class="st0" d="M482.9,248.9h33.7v19.4h-33.7v12.3h39.8v19.4h-61.8v-81.1h60.7v19.5h-38.7V248.9z"/>
		<path class="st0" d="M529.4,259.3c0-26.6,20-42.2,41.7-42.2c13.5,0,25.4,6.1,32.8,16.2l-15.4,12.9c-3.8-5-10.8-8.5-17.2-8.5
			c-9.7,0-19.4,6.6-19.4,21.8c0,14.2,8.8,21.6,19.1,21.6c8.3,0,14.8-4.3,17.7-10.8h-19.5v-17.5h42.6v0.1v6.2
			c0,24.5-16.5,42.3-40.8,42.3C547.1,301.4,529.4,284.6,529.4,259.3z"/>
		<path class="st0" d="M622.1,299.8v-59.1h-5.7v-10.2h5.7v-11.8h22.4v11.8h26.7v-11.8h22.5v11.8h4.2v10.2h-4.2v59.1h-22.5v-31h-26.7
			v31H622.1z M671.2,248.7v-8h-26.7v8H671.2z"/>
		<path class="st0" d="M731.1,248.9h33.7v19.4h-33.7v12.3h39.8v19.4h-61.8v-81.1h60.7v19.5h-38.7V248.9z"/>
		<path class="st0" d="M805.2,263.2v36.7h-22.5v-81.1h22.5v35.1l24-35.1h25.8L827,258.5l29,41.4h-25.8L805.2,263.2z"/>
	</g>
	<g>
		<rect x="932.8" y="20.6" class="st1" width="428.8" height="286.1"/>
		<rect x="938.4" y="26.2" class="st0" width="417.5" height="274.8"/>
		<polygon class="st2" points="1147,51.7 1151.1,64.4 1164.4,64.3 1153.5,72.1 1157.7,84.8 1147,76.9 1136.3,84.8 1140.4,72.1 
			1129.6,64.3 1142.9,64.4 		"/>
		<polygon class="st2" points="1147,242.5 1151.1,255.2 1164.4,255.1 1153.5,262.9 1157.7,275.6 1147,267.7 1136.3,275.6 
			1140.4,262.9 1129.6,255.1 1142.9,255.2 		"/>
		<polygon class="st2" points="1099.5,64.4 1103.6,77.1 1116.9,77 1106.1,84.8 1110.3,97.4 1099.5,89.6 1088.8,97.4 1092.9,84.8 
			1082.2,77 1095.5,77.1 		"/>
		<polygon class="st2" points="1064.6,99.4 1068.6,112.1 1082,112 1071.1,119.8 1075.3,132.4 1064.6,124.6 1053.9,132.4 1058,119.8 
			1047.2,112 1060.5,112.1 		"/>
		<polygon class="st2" points="1051.7,147 1055.7,159.6 1069.1,159.6 1058.3,167.4 1062.4,180 1051.7,172.1 1041,180 1045.1,167.4 
			1034.3,159.6 1047.6,159.6 		"/>
		<polygon class="st2" points="1064.4,194.6 1068.5,207.3 1081.8,207.2 1071,215 1075.2,227.6 1064.4,219.7 1053.7,227.6 
			1057.9,215 1047,207.2 1060.4,207.3 		"/>
		<polygon class="st2" points="1099.5,229.6 1103.6,242.3 1116.9,242.2 1106.1,250 1110.3,262.6 1099.5,254.8 1088.8,262.6 
			1092.9,250 1082.2,242.2 1095.5,242.3 		"/>
		<polygon class="st2" points="1194.5,64.4 1190.4,77.1 1177.1,77 1187.9,84.8 1183.8,97.4 1194.5,89.6 1205.2,97.4 1201.1,84.8 
			1211.9,77 1198.6,77.1 		"/>
		<polygon class="st2" points="1229.4,99.4 1225.4,112.1 1212,112 1222.9,119.8 1218.7,132.4 1229.4,124.6 1240.2,132.4 1236,119.8 
			1246.8,112 1233.5,112.1 		"/>
		<polygon class="st2" points="1242.3,147 1238.3,159.6 1224.9,159.6 1235.8,167.4 1231.6,180 1242.3,172.1 1253.1,180 
			1248.9,167.4 1259.7,159.6 1246.4,159.6 		"/>
		<polygon class="st2" points="1229.5,194.6 1225.5,207.3 1212.2,207.2 1223,215 1218.8,227.6 1229.5,219.7 1240.3,227.6 
			1236.2,215 1247,207.2 1233.6,207.3 		"/>
		<polygon class="st2" points="1194.5,229.6 1190.4,242.3 1177.1,242.2 1187.9,250 1183.8,262.6 1194.5,254.8 1205.2,262.6 
			1201.1,250 1211.9,242.2 1198.6,242.3 		"/>
	</g>
	<path class="st0" d="M315.1,225.9L209.6,16.3L0,121.8l79,156.8H25.2v22.6h288.4v-22.6H210.3L315.1,225.9z M30.4,131.9l169.1-85.2
		l85.2,169.1l-124.8,62.8h-55.6L30.4,131.9z"/>
</g>
<g id="Clear_space">
</g>
</svg>
