<?xml version="1.0" encoding="utf-8"?>
<!-- Generator: Adobe Illustrator 27.7.0, SVG Export Plug-In . SVG Version: 6.00 Build 0)  -->
<svg version="1.1" id="Camada_1" xmlns="http://www.w3.org/2000/svg" xmlns:xlink="http://www.w3.org/1999/xlink" x="0px" y="0px"
	 viewBox="0 0 1306.9 289.5" style="enable-background:new 0 0 1306.9 289.5;" xml:space="preserve">
<style type="text/css">
	.st0{fill:#0C4DA2;}
	.st1{fill:#FFFFFF;}
	.st2{fill:#FFF200;}
</style>
<g id="Elements">
	<g>
		<path class="st0" d="M389.6,150.8h-12l-4,14h-19.5l3.8-14h-8.7v-16.4h13.3l4-14.6h-11.4v-16.1h16l4.2-15H395l-4.2,15h11.9l4.2-15
			h19.5l-4.2,15h9.9v16.1h-14.4l-4,14.6H426v16.4h-17.1l-3.8,14h-19.4L389.6,150.8z M394.1,134.4l4.1-14.6h-12l-4.1,14.6H394.1z"/>
		<path class="st0" d="M441.9,134.5V85h22.5v49.6c0,7.3,5,12.1,12.6,12.1c7.7,0,12.6-4.8,12.6-12.1V85H512v49.5
			c0,20-14,33.2-35,33.2C455.8,167.7,441.9,154.5,441.9,134.5z M460.8,69l26.8-14.8l9.9,14.4l-29.3,12.3L460.8,69z"/>
		<path class="st0" d="M519.7,155.9l11.9-15.8c4.9,5.3,12.7,8.7,20.4,8.7c5,0,10-1.6,10-6.5c0-5.2-4.5-6.7-12.7-8.4
			c-17.3-3.5-27.3-10.3-27.3-24.8c0-16.6,15-25.6,32.8-25.6c12.4,0,22.5,3.5,29.8,10.7l-11.7,15c-6.2-4.7-12.1-6.9-17.9-6.9
			c-5.3,0-9.3,1.6-9.3,5.5s3.1,5.9,12.5,7.9c17.9,3.6,27.7,11.8,27.7,26.4c0,16.7-14.8,25.5-34.4,25.5
			C538.3,167.8,526.7,162.7,519.7,155.9z"/>
		<path class="st0" d="M615.1,85.1h27l29.8,81.1h-23.4l-5-14.8h-30.2l-5,14.8h-23.1L615.1,85.1z M612.1,69L639,54.2l9.9,14.4
			l-29.3,12.3L612.1,69z M628.4,107.9l-8.5,25H637l-8.5-25L628.4,107.9L628.4,107.9z"/>
		<path class="st0" d="M678.2,85h22.6v81.3h-22.6V85z"/>
		<path class="st0" d="M715.1,85.1h34.6c23.4,0,40.5,17.1,40.5,40.3c0,23.7-17.1,40.9-40.5,40.9h-34.6V85.1z M767.3,125.5
			c0-11.3-7.8-19.7-18.5-19.7h-11.2v39.9h11.2C759.3,145.7,767.3,137.2,767.3,125.5z"/>
		<path class="st0" d="M352.7,202.6h34.6c23.4,0,40.5,17.1,40.5,40.3c0,23.7-17.1,40.9-40.5,40.9h-34.6V202.6L352.7,202.6z
			 M404.8,243c0-11.3-7.8-19.7-18.5-19.7h-11.2v39.9h11.2C396.9,263.2,404.8,254.7,404.8,243z"/>
		<path class="st0" d="M434.2,243.3c0-24.4,17.9-42.2,42.4-42.2s42.4,17.7,42.4,42c0,24.5-17.9,42.3-42.6,42.3
			C452.1,285.3,434.2,267.7,434.2,243.3z M495.8,243.3c0-12.4-8.1-21.5-19.2-21.5s-19.4,9-19.4,21.4c0,12.5,8.3,21.5,19.4,21.5
			C487.8,264.7,495.8,255.5,495.8,243.3z"/>
		<path class="st0" d="M553.5,202.6h23.6l17.1,56.8h0.2l17.4-56.8h23.3l-27.5,81.1h-26.7L553.5,202.6z"/>
		<path class="st0" d="M634.4,243.3c0-24.4,17.9-42.2,42.4-42.2s42.4,17.7,42.4,42c0,24.5-17.9,42.3-42.6,42.3
			C652.3,285.3,634.4,267.7,634.4,243.3z M696.1,243.3c0-12.4-8.1-21.5-19.2-21.5s-19.4,9-19.4,21.4c0,12.5,8.3,21.5,19.4,21.5
			C688,264.7,696.1,255.5,696.1,243.3z M660.5,186.5l26.8-14.8l9.9,14.4l-29.3,12.3L660.5,186.5z"/>
		<path class="st0" d="M767.5,223.3v60.5h-22.5v-60.5H722v-20.8h68.5v20.8H767.5z"/>
		<path class="st0" d="M811.4,202.6h27l29.8,81.1h-23.4l-5-14.8h-30.2l-5,14.8h-23.1L811.4,202.6z M824.7,225.4l-8.5,25h17.2
			l-8.5-25H824.7z"/>
	</g>
	<g>
		<rect x="951.5" y="52.3" class="st1" width="355.5" height="237.2"/>
		<rect x="956.1" y="57" class="st0" width="346.2" height="227.8"/>
		<polygon class="st2" points="1129,78.1 1132.4,88.6 1143.4,88.6 1134.5,95 1137.9,105.5 1129,99 1120.1,105.5 1123.6,95 
			1114.6,88.6 1125.6,88.6 		"/>
		<polygon class="st2" points="1129,236.3 1132.4,246.8 1143.4,246.7 1134.5,253.2 1137.9,263.7 1129,257.2 1120.1,263.7 
			1123.6,253.2 1114.6,246.7 1125.6,246.8 		"/>
		<polygon class="st2" points="1089.7,88.6 1093,99.1 1104.1,99.1 1095.1,105.5 1098.6,116 1089.7,109.5 1080.8,116 1084.2,105.5 
			1075.3,99.1 1086.3,99.1 		"/>
		<polygon class="st2" points="1060.7,117.7 1064.1,128.2 1075.1,128.1 1066.2,134.6 1069.6,145 1060.7,138.5 1051.8,145 
			1055.3,134.6 1046.3,128.1 1057.4,128.2 		"/>
		<polygon class="st2" points="1050,157.1 1053.4,167.6 1064.5,167.5 1055.5,174 1058.9,184.5 1050,178 1041.1,184.5 1044.6,174 
			1035.6,167.5 1046.7,167.6 		"/>
		<polygon class="st2" points="1060.6,196.6 1064,207.1 1075,207 1066,213.5 1069.5,224 1060.6,217.4 1051.7,224 1055.2,213.5 
			1046.2,207 1057.2,207.1 		"/>
		<polygon class="st2" points="1089.7,225.6 1093,236.1 1104.1,236 1095.1,242.5 1098.6,253 1089.7,246.5 1080.8,253 1084.2,242.5 
			1075.3,236 1086.3,236.1 		"/>
		<polygon class="st2" points="1168.4,88.6 1165,99.1 1154,99.1 1163,105.5 1159.5,116 1168.4,109.5 1177.3,116 1173.9,105.5 
			1182.8,99.1 1171.8,99.1 		"/>
		<polygon class="st2" points="1197.4,117.7 1194,128.2 1183,128.1 1191.9,134.6 1188.5,145 1197.4,138.5 1206.3,145 1202.8,134.6 
			1211.8,128.1 1200.8,128.2 		"/>
		<polygon class="st2" points="1208.1,157.1 1204.7,167.6 1193.6,167.5 1202.6,174 1199.2,184.5 1208.1,178 1217,184.5 1213.5,174 
			1222.5,167.5 1211.4,167.6 		"/>
		<polygon class="st2" points="1197.5,196.6 1194.1,207.1 1183.1,207 1192.1,213.5 1188.6,224 1197.5,217.4 1206.4,224 
			1202.9,213.5 1211.9,207 1200.9,207.1 		"/>
		<polygon class="st2" points="1168.4,225.6 1165,236.1 1154,236 1163,242.5 1159.5,253 1168.4,246.5 1177.3,253 1173.9,242.5 
			1182.8,236 1171.8,236.1 		"/>
	</g>
	<path class="st0" d="M315.1,209.5L209.6,0L0,105.6l79,156.8H25.2V285h288.4v-22.6H210.3L315.1,209.5z M30.4,115.6l169.1-85.2
		l85.2,169.1l-124.8,62.8h-55.6L30.4,115.6z"/>
</g>
<g id="Clear_space">
</g>
</svg>
