<?xml version="1.0" encoding="utf-8"?>
<!-- Generator: Adobe Illustrator 27.7.0, SVG Export Plug-In . SVG Version: 6.00 Build 0)  -->
<svg version="1.1" id="Camada_1" xmlns="http://www.w3.org/2000/svg" xmlns:xlink="http://www.w3.org/1999/xlink" x="0px" y="0px"
	 viewBox="0 0 1598.3 289.5" style="enable-background:new 0 0 1598.3 289.5;" xml:space="preserve">
<style type="text/css">
	.st0{fill:#0C4DA2;}
	.st1{fill:#FFFFFF;}
	.st2{fill:#FFF200;}
</style>
<g id="Elements">
	<g>
		<g>
			<path class="st0" d="M389.6,151.8h-12l-4,14h-19.5l3.8-14h-8.7v-16.4h13.3l4-14.6h-11.4v-16.1h16l4.2-15H395l-4.2,15h11.9l4.2-15
				h19.5l-4.2,15h9.9v16.1h-14.4l-4,14.6H426v16.4h-17.1l-3.8,14h-19.4L389.6,151.8z M394.1,135.4l4.1-14.6h-12l-4.1,14.6H394.1z"/>
			<path class="st0" d="M441.5,86.1h22.4v42.4L495,86.1h19.4v81.1h-22.5v-43.4l-31.9,43.4h-18.5L441.5,86.1L441.5,86.1z"/>
			<path class="st0" d="M521,155.3l14.3-12.7c3.6,4.3,8.2,6.6,16.6,6.6c7,0,11.7-1.6,11.7-7.3c0-5.4-4.5-7.5-11.7-7.5h-12.5v-16.1
				h11.9c8.2,0,11.4-3,11.4-7.3c0-5.1-4.3-6.6-10.1-6.6c-6.8,0-11.3,2.3-15,6.6l-14.2-11.7c7.5-10.8,19.7-14.7,31.9-14.7
				c17.7,0,31.6,7.9,31.6,23c0,9.7-5.9,15.9-14.1,18.4c9.9,2.3,15,9.9,15,19c0,15.9-15.2,23.9-34.3,23.9
				C540.4,168.9,528.5,165,521,155.3z"/>
			<path class="st0" d="M645.6,105.2h-25.7v62h-22.2V86.1h70.2v81.1h-22.2V105.2z"/>
			<path class="st0" d="M677.1,126.8c0-24.4,17.9-42.2,42.4-42.2s42.4,17.7,42.4,42c0,24.5-17.9,42.3-42.6,42.3
				C695,168.9,677.1,151.2,677.1,126.8z M738.7,126.8c0-12.4-8-21.5-19.2-21.5s-19.4,9-19.4,21.4c0,12.5,8.3,21.5,19.4,21.5
				C730.7,148.2,738.7,139,738.7,126.8z"/>
			<path class="st0" d="M767.2,149.1c7,0,9.1-6.5,10.5-30.3l1.8-32.7h61.2v81.1h-22.5v-62.6h-17l-1.9,27.7
				c-1.6,23-9.4,35.8-31.4,35.8c-0.8,0-2.3,0-4-0.1v-19C765.8,149.1,766.6,149.1,767.2,149.1z"/>
			<path class="st0" d="M847.3,155.3l14.3-12.7c3.6,4.3,8.2,6.6,16.6,6.6c7,0,11.7-1.6,11.7-7.3c0-5.4-4.5-7.5-11.7-7.5h-12.5v-16.1
				h11.9c8.2,0,11.4-3,11.4-7.3c0-5.1-4.3-6.6-10.1-6.6c-6.8,0-11.3,2.3-15,6.6l-14.2-11.7c7.5-10.8,19.7-14.7,31.9-14.7
				c17.7,0,31.6,7.9,31.6,23c0,9.7-5.9,15.9-14.1,18.4c9.9,2.3,15,9.9,15,19c0,15.9-15.2,23.9-34.3,23.9
				C866.7,168.9,854.8,165,847.3,155.3z"/>
			<path class="st0" d="M923.8,86.1h38c17.3,0,28.2,7.6,28.2,20.6c0,8.4-4.6,15.1-12.5,18.3c9.1,2.8,15.3,9.5,15.3,19.8
				c0,14.1-11.1,22.5-30.2,22.5h-38.8V86.1z M959.1,118c5.4,0,8.8-2.5,8.8-6.9c0-4.4-3.4-7-8.9-7h-13.6V118L959.1,118L959.1,118z
				 M960.9,149.2c6.2,0,9.7-2.8,9.7-7.5c0-4.6-3.6-7.2-9.6-7.2h-15.6v14.7L960.9,149.2L960.9,149.2z"/>
			<path class="st0" d="M1023.7,86.1h27l29.8,81.1h-23.4l-5.1-14.8h-30.2l-5.1,14.8h-23.1L1023.7,86.1z M1036.9,108.9l-8.5,25h17.2
				l-8.5-25L1036.9,108.9L1036.9,108.9z"/>
			<path class="st0" d="M1086.7,86.1h22.4v42.4l31.1-42.4h19.4v81.1h-22.5v-43.4l-31.9,43.4h-18.5L1086.7,86.1L1086.7,86.1z
				 M1102.6,60.9h14.2c0.8,5.9,1.9,7.4,6.4,7.4s5.5-1.6,6.5-7.4h13.9c-1.2,13-7.7,20-20.4,20C1110.3,80.8,1103.8,73.9,1102.6,60.9z"
				/>
			<path class="st0" d="M352.7,203.6h53v18.9H375v62.3h-22.4V203.6z"/>
			<path class="st0" d="M403.9,266.6c7,0,9.1-6.5,10.5-30.3l1.8-32.7h61.2v81.1h-22.5v-62.6h-17l-1.9,27.6
				c-1.6,23-9.4,35.8-31.4,35.8c-0.8,0-2.3,0-4-0.1v-19C402.5,266.6,403.3,266.6,403.9,266.6z"/>
			<path class="st0" d="M513.4,203.6h27l29.8,81.1h-23.4l-5-14.8h-30.2l-5,14.8h-23.1L513.4,203.6z M526.6,226.4l-8.5,25h17.2
				l-8.5-25H526.6z"/>
			<path class="st0" d="M568.9,244.3c0-25.1,17.2-42.2,41.7-42.2c13.7,0,25.6,6.1,32.9,16.4l-15.4,12.9c-4.2-5.5-10-8.4-17.1-8.4
				c-11.2,0-19.4,7.8-19.4,21.3c0,13.2,8.2,21.3,19.4,21.3c7.3,0,13.2-2.9,17.4-8.8l15.3,13.2c-7.1,10-18.8,16.5-33.2,16.5
				C586.5,286.4,568.9,269.4,568.9,244.3z"/>
			<path class="st0" d="M674.5,203.6h27l29.8,81.1h-23.4l-5-14.8h-30.2l-5,14.8h-23.1L674.5,203.6z M687.7,226.4l-8.5,25h17.2
				l-8.5-25H687.7z"/>
			<path class="st0" d="M765.9,244.3c0-25.1,17.2-42.2,41.7-42.2c13.7,0,25.6,6.1,32.9,16.4l-15.4,12.9c-4.2-5.5-10-8.4-17.1-8.4
				c-11.2,0-19.4,7.8-19.4,21.3c0,13.2,8.2,21.3,19.4,21.3c7.3,0,13.2-2.9,17.4-8.8l15.3,13.2c-7.1,10-18.8,16.5-33.2,16.5
				C783.5,286.4,765.9,269.4,765.9,244.3z"/>
			<path class="st0" d="M847.4,203.6h22.4v42.4l31.1-42.4h19.4v81.1h-22.5v-43.4l-31.9,43.4h-18.5L847.4,203.6L847.4,203.6z"/>
		</g>
	</g>
	<g>
		<rect x="1242.8" y="52.3" class="st1" width="355.5" height="237.2"/>
		<rect x="1247.4" y="57" class="st0" width="346.2" height="227.8"/>
		<polygon class="st2" points="1420.3,78.1 1423.7,88.6 1434.8,88.6 1425.8,95 1429.3,105.5 1420.3,99 1411.4,105.5 1414.9,95 
			1405.9,88.6 1417,88.6 		"/>
		<polygon class="st2" points="1420.3,236.3 1423.7,246.8 1434.8,246.7 1425.8,253.2 1429.3,263.7 1420.3,257.2 1411.4,263.7 
			1414.9,253.2 1405.9,246.7 1417,246.8 		"/>
		<polygon class="st2" points="1381,88.6 1384.4,99.1 1395.4,99.1 1386.5,105.5 1389.9,116 1381,109.5 1372.1,116 1375.5,105.5 
			1366.6,99.1 1377.7,99.1 		"/>
		<polygon class="st2" points="1352,117.7 1355.4,128.2 1366.4,128.1 1357.5,134.6 1360.9,145 1352,138.5 1343.1,145 1346.6,134.6 
			1337.6,128.1 1348.7,128.2 		"/>
		<polygon class="st2" points="1341.4,157.1 1344.7,167.6 1355.8,167.5 1346.8,174 1350.2,184.5 1341.4,178 1332.4,184.5 
			1335.9,174 1326.9,167.5 1338,167.6 		"/>
		<polygon class="st2" points="1351.9,196.6 1355.3,207.1 1366.3,207 1357.4,213.5 1360.8,224 1351.9,217.4 1343,224 1346.5,213.5 
			1337.5,207 1348.5,207.1 		"/>
		<polygon class="st2" points="1381,225.6 1384.4,236.1 1395.4,236 1386.5,242.5 1389.9,253 1381,246.5 1372.1,253 1375.5,242.5 
			1366.6,236 1377.7,236.1 		"/>
		<polygon class="st2" points="1459.7,88.6 1456.4,99.1 1445.3,99.1 1454.3,105.5 1450.8,116 1459.7,109.5 1468.6,116 1465.2,105.5 
			1474.1,99.1 1463.1,99.1 		"/>
		<polygon class="st2" points="1488.7,117.7 1485.3,128.2 1474.3,128.1 1483.2,134.6 1479.8,145 1488.7,138.5 1497.6,145 
			1494.2,134.6 1503.1,128.1 1492.1,128.2 		"/>
		<polygon class="st2" points="1499.4,157.1 1496,167.6 1485,167.5 1493.9,174 1490.5,184.5 1499.4,178 1508.3,184.5 1504.8,174 
			1513.8,167.5 1502.8,167.6 		"/>
		<polygon class="st2" points="1488.8,196.6 1485.5,207.1 1474.4,207 1483.4,213.5 1479.9,224 1488.8,217.4 1497.7,224 
			1494.3,213.5 1503.2,207 1492.2,207.1 		"/>
		<polygon class="st2" points="1459.7,225.6 1456.4,236.1 1445.3,236 1454.3,242.5 1450.8,253 1459.7,246.5 1468.6,253 
			1465.2,242.5 1474.1,236 1463.1,236.1 		"/>
	</g>
	<path class="st0" d="M315.1,209.5L209.6,0L0,105.6l79,156.8H25.2V285h288.4v-22.6H210.3L315.1,209.5z M30.4,115.6l169.1-85.2
		l85.2,169.1l-124.8,62.8h-55.6L30.4,115.6z"/>
</g>
<g id="Clear_space">
</g>
</svg>
