<?xml version="1.0" encoding="utf-8"?>
<!-- Generator: Adobe Illustrator 27.7.0, SVG Export Plug-In . SVG Version: 6.00 Build 0)  -->
<svg version="1.1" id="Camada_1" xmlns="http://www.w3.org/2000/svg" xmlns:xlink="http://www.w3.org/1999/xlink" x="0px" y="0px"
	 viewBox="0 0 1249.2 290.8" style="enable-background:new 0 0 1249.2 290.8;" xml:space="preserve">
<style type="text/css">
	.st0{fill:#0C4DA2;}
	.st1{fill:#FFFFFF;}
	.st2{fill:#FFF200;}
</style>
<g id="Elements">
	<g>
		<path class="st0" d="M386,70.2h-11l-3.6,12.7h-17.7l3.5-12.7h-7.9V55.4h12.2l3.6-13.2h-10.4V27.4h14.6l3.8-13.7h17.8L387,27.4
			h10.8l3.8-13.7h17.7l-3.8,13.7h9v14.7h-13.1l-3.6,13.2h11.3v14.9h-15.5l-3.5,12.7h-17.6L386,70.2z M390.1,55.4l3.7-13.2h-11
			l-3.7,13.2H390.1z"/>
		<path class="st0" d="M451.1,10.5h24.6l27.2,73.9h-21.3l-4.6-13.5h-27.5l-4.6,13.5h-21L451.1,10.5z M463.2,31.2l-7.8,22.8H471
			l-7.8-22.8H463.2z"/>
		<path class="st0" d="M508.5,10.4h18.6l27.7,39.4V10.4h20.5v74h-18.2L528.7,44v40.4h-20.2L508.5,10.4L508.5,10.4z"/>
		<path class="st0" d="M588.5,10.4h18.6l27.7,39.4V10.4h20.5v74h-18.2L608.8,44v40.4h-20.2L588.5,10.4L588.5,10.4z"/>
		<path class="st0" d="M688.1,10.5h24.6l27.2,73.9h-21.3l-4.6-13.5h-27.5l-4.6,13.5h-21L688.1,10.5z M700.1,31.2l-7.8,22.8H708
			l-7.8-22.8H700.1z"/>
		<path class="st0" d="M349.3,143.7c0-22.2,16.3-38.4,38.6-38.4s38.6,16.1,38.6,38.2c0,22.3-16.3,38.5-38.8,38.5
			C365.6,182,349.3,165.9,349.3,143.7z M405.4,143.7c0-11.3-7.3-19.6-17.5-19.6s-17.6,8.2-17.6,19.5c0,11.4,7.5,19.6,17.6,19.6
			C398.1,163.2,405.4,154.8,405.4,143.7z"/>
		<path class="st0" d="M436,106.6h20l18.9,34.6l19-34.6H514v74h-20.6v-39.3l-15.2,28.2H472l-15.4-28.2v39.3h-20.5L436,106.6
			L436,106.6z"/>
		<path class="st0" d="M546.9,106.7h24.6l27.2,73.9h-21.3l-4.6-13.5h-27.5l-4.6,13.5h-21L546.9,106.7z M558.9,127.4l-7.8,22.8h15.7
			l-7.8-22.8H558.9z"/>
		<path class="st0" d="M352.3,285.3v-73.9h20.4v27.4H397v-27.4h20.5v73.9H397V257h-24.3v28.2H352.3z"/>
		<path class="st0" d="M450.3,211.4h24.6l27.2,73.9h-21.3l-4.6-13.5h-27.5l-4.6,13.5h-21L450.3,211.4z M440.5,197.8
			c0-5.5,4-9.3,9.3-9.3c5.5,0,9.3,3.8,9.3,9.3s-3.8,9.3-9.3,9.3C444.6,207.1,440.5,203.3,440.5,197.8z M462.3,232.1l-7.8,22.8h15.7
			l-7.8-22.8H462.3z M465.6,197.8c0-5.5,4-9.3,9.3-9.3c5.5,0,9.3,3.8,9.3,9.3s-3.8,9.3-9.3,9.3C469.7,207.1,465.6,203.3,465.6,197.8
			z"/>
		<path class="st0" d="M531.9,211.4h24.6l27.2,73.9h-21.4l-4.6-13.5h-27.5l-4.6,13.5h-21L531.9,211.4z M522.2,197.8
			c0-5.5,4-9.3,9.3-9.3c5.5,0,9.3,3.8,9.3,9.3s-3.8,9.3-9.3,9.3C526.2,207.1,522.2,203.3,522.2,197.8z M543.9,232.1l-7.8,22.8h15.7
			l-7.8-22.8H543.9z M547.2,197.8c0-5.5,4-9.3,9.3-9.3c5.5,0,9.3,3.8,9.3,9.3s-3.8,9.3-9.3,9.3C551.3,207.1,547.2,203.3,547.2,197.8
			z"/>
		<path class="st0" d="M589.3,211.3h20.4v55.3h31.2v18.7h-51.6V211.3z"/>
	</g>
	<g>
		<rect x="820.4" y="4.7" class="st1" width="428.8" height="286.1"/>
		<rect x="826" y="10.4" class="st0" width="417.5" height="274.8"/>
		<polygon class="st2" points="1034.6,35.8 1038.6,48.5 1052,48.5 1041.1,56.2 1045.3,68.9 1034.6,61 1023.8,68.9 1028,56.2 
			1017.2,48.5 1030.5,48.5 		"/>
		<polygon class="st2" points="1034.6,226.7 1038.6,239.3 1052,239.3 1041.1,247.1 1045.3,259.7 1034.6,251.9 1023.8,259.7 
			1028,247.1 1017.2,239.3 1030.5,239.3 		"/>
		<polygon class="st2" points="987.1,48.5 991.2,61.2 1004.5,61.2 993.7,68.9 997.9,81.6 987.1,73.7 976.4,81.6 980.5,68.9 
			969.8,61.2 983.1,61.2 		"/>
		<polygon class="st2" points="952.2,83.6 956.2,96.2 969.5,96.1 958.7,104 962.9,116.6 952.2,108.7 941.4,116.6 945.6,104 
			934.7,96.1 948.1,96.2 		"/>
		<polygon class="st2" points="939.3,131.1 943.3,143.8 956.7,143.7 945.9,151.6 950,164.2 939.3,156.3 928.5,164.2 932.7,151.6 
			921.9,143.7 935.2,143.8 		"/>
		<polygon class="st2" points="952,178.7 956.1,191.5 969.4,191.4 958.6,199.2 962.8,211.8 952,203.9 941.3,211.8 945.5,199.2 
			934.6,191.4 948,191.5 		"/>
		<polygon class="st2" points="987.1,213.7 991.2,226.4 1004.5,226.4 993.7,234.1 997.9,246.8 987.1,238.9 976.4,246.8 980.5,234.1 
			969.8,226.4 983.1,226.4 		"/>
		<polygon class="st2" points="1082.1,48.5 1078,61.2 1064.7,61.2 1075.5,68.9 1071.3,81.6 1082.1,73.7 1092.8,81.6 1088.6,68.9 
			1099.4,61.2 1086.2,61.2 		"/>
		<polygon class="st2" points="1117,83.6 1113,96.2 1099.6,96.1 1110.4,104 1106.3,116.6 1117,108.7 1127.8,116.6 1123.6,104 
			1134.4,96.1 1121.1,96.2 		"/>
		<polygon class="st2" points="1129.9,131.1 1125.8,143.8 1112.5,143.7 1123.3,151.6 1119.1,164.2 1129.9,156.3 1140.7,164.2 
			1136.5,151.6 1147.3,143.7 1134,143.8 		"/>
		<polygon class="st2" points="1117.1,178.7 1113.1,191.5 1099.8,191.4 1110.6,199.2 1106.4,211.8 1117.1,203.9 1127.9,211.8 
			1123.7,199.2 1134.5,191.4 1121.2,191.5 		"/>
		<polygon class="st2" points="1082.1,213.7 1078,226.4 1064.7,226.4 1075.5,234.1 1071.3,246.8 1082.1,238.9 1092.8,246.8 
			1088.6,234.1 1099.4,226.4 1086.2,226.4 		"/>
	</g>
	<path class="st0" d="M315.1,209.6L209.6,0L0,105.6l79,156.8H25.2V285h288.4v-22.6H210.3L315.1,209.6z M30.4,115.6l169.1-85.2
		l85.2,169.1l-124.8,62.8h-55.6L30.4,115.6z"/>
</g>
<g id="Clear_space">
</g>
</svg>
