<?xml version="1.0" encoding="utf-8"?>
<!-- Generator: Adobe Illustrator 27.6.1, SVG Export Plug-In . SVG Version: 6.00 Build 0)  -->
<svg version="1.1" id="Layer_1" xmlns="http://www.w3.org/2000/svg" xmlns:xlink="http://www.w3.org/1999/xlink" x="0px" y="0px"
	 viewBox="0 0 870 353" style="enable-background:new 0 0 870 353;" xml:space="preserve">
<style type="text/css">
	.st0{fill:#FFFFFF;}
</style>
<path class="st0" d="M319.2,163.5c-10.1,0-16.5,9.6-16.5,24.1c0,14.7,6.4,23.9,16.6,23.9s16.1-10,16.1-24.1
	C335.5,173.8,329.4,163.5,319.2,163.5z"/>
<path class="st0" d="M627.6,163.2h-0.2c-1.2,4.7-2.3,11.2-3.5,15.7l-3.4,14h14.6l-3.6-14.1C630.3,174.4,628.8,167.9,627.6,163.2z"/>
<path class="st0" d="M548.7,163.2h-0.2c-1.2,4.7-2.3,11.2-3.5,15.7l-3.4,14h14.6l-3.6-14.2C551.4,174.4,549.8,167.9,548.7,163.2z"/>
<path class="st0" d="M62.4,163.6c-2.2,0-4.3,0.1-6.4,0.5v47c1.5,0.2,3,0.3,4.4,0.2c13.7,0.2,23.8-7.4,23.8-25.2
	C84.2,170.9,75.1,163.6,62.4,163.6z"/>
<path class="st0" d="M5.9,117.6v140.7h860.2V117.6H5.9z M92.9,218c-8.7,6.8-21.5,9.7-37,9.7c-10.2,0-17-0.6-21.1-1.3v-77.3
	c8.3-1.2,16.8-1.7,25.2-1.6c15.1,0,24.6,2.4,32.4,7.8c8.7,6,14.3,15.8,14.3,30.3C106.7,201.6,100.6,212,92.9,218z M170.8,226.9
	h-52.9V148h51.2v17.2h-30.1V178h28.3v17.1h-28.3v14.5h31.7V226.9z M250.1,226.9l-0.9-28.2c-0.2-9-0.5-19.5-0.4-31.8h-0.4
	c-2.5,10.4-5.7,22.2-8.3,30.9l-7.8,27.5h-16.5l-6.7-27.4c-2-8.5-4.5-20.2-6.2-31h-0.2c-0.5,11.1-0.9,22.8-1.3,31.8l-1.2,28.2h-19.4
	l4.8-78.9h28.4l5.3,21.2c2.1,8.8,4.4,19.3,6.1,28.9h0.5c2.2-9.6,4.8-20.7,7.1-29l5.9-21.1h27.9l4,78.9L250.1,226.9z M318.3,228.2
	c-24.5,0-37.9-18.4-37.9-40.2c0-22.9,15.1-41.2,39.2-41.2c25.4,0,38.3,18.8,38.3,39.9C357.9,212,342.6,228.2,318.3,228.2
	L318.3,228.2z M413,226.9L396.4,195L390,203v23.9h-20.9V148H390v33.5h0.2c1.6-2.9,3.4-5.9,5.1-8.6l15.1-24.8h26l-25,33.6l26,45.3
	L413,226.9z M486.1,226.9c-1.2-2.3-3.2-8.4-5.5-18.1c-2.1-9.5-5-11.5-11.6-11.5h-3.4v29.6h-21v-77.8c8.5-1.2,17-1.7,25.5-1.6
	c12,0,20.7,1.6,26.7,6.1c5,3.9,7.8,9.5,7.8,17.2c0,9.8-7.4,16.9-13.6,19.1v0.5c5.3,2.2,8.1,7.2,10.1,14c2.5,8.1,5,19.5,6.6,22.6
	L486.1,226.9z M564.1,226.9l-5-18.2h-20.4l-4.4,18.2h-21.9l22.9-78.9h28.1l23.5,78.9H564.1z M643.1,226.9l-5-18.2h-20.4l-4.5,18.2
	h-21.9l22.9-78.9h28.1l23.5,78.9H643.1z M722.9,165.7h-20.5v61.2h-21.2v-61.2h-20.1V148h61.8L722.9,165.7z M753.8,226.9h-21.2V148
	h21.2L753.8,226.9z M814.4,226.9l-5-18.2H789l-4.5,18.2h-21.9l22.9-78.9h28.1l23.5,78.9H814.4z"/>
<path class="st0" d="M798.9,163.2h-0.2c-1.2,4.7-2.3,11.2-3.5,15.7l-3.4,14h14.6l-3.6-14.2C801.6,174.4,800.1,167.9,798.9,163.2z"/>
<path class="st0" d="M472.7,163c-2.4-0.1-4.8,0.1-7.1,0.5v18.7h5.5c8,0,12.5-4,12.5-9.8S479.8,163.1,472.7,163z"/>
<path class="st0" d="M304.1,281.3v24.5h21.6v-24.5h17.7v66.3h-17.7v-26.3h-21.6v26.3h-17.8v-66.3H304.1z"/>
<path class="st0" d="M397.3,320.9h-23.8v12.2h26.7v14.6h-44.5v-66.4h43.1v14.5h-25.3v10.7h23.8V320.9z"/>
<path class="st0" d="M427.4,332.3l-3.8,15.4h-18.4l19.3-66.3h23.6l19.8,66.3h-19.2l-4.2-15.4H427.4z M442.1,319.1l-3-11.9
	c-1-3.7-2.3-9.1-3.2-13.1h-0.2c-1,3.9-2,9.5-3,13.2l-2.8,11.8H442.1z"/>
<path class="st0" d="M476.5,281.3h17.6v28.1h0.2c1.4-2.5,2.8-4.9,4.3-7.3l12.7-20.9h21.8l-21.1,28.2l21.8,38.1h-20.6l-14-26.9
	l-5.3,6.8v20.1h-17.6V281.3z"/>
<path class="st0" d="M541.2,329.9c5.4,2.7,11.2,4.1,17.2,4.2c6.1,0,9.1-2.1,9.1-5.4s-3-5.1-10.4-7.7c-11.2-3.9-18.6-10.1-18.6-20
	c0-11.7,9.8-20.8,26.6-20.8c8,0,13.6,1.5,18,3.5l-3.7,14.2c-4.5-2.1-9.5-3.2-14.5-3.1c-5.4,0-8.4,2-8.4,4.9c0,3.3,3.5,4.7,11.9,7.9
	c11.9,4.3,17.3,10.7,17.3,20c0,11.4-9,21.2-28.3,21.2c-8,0-15.8-2.1-19.5-4L541.2,329.9z"/>
<path class="st0" d="M205.5,27.5v37.6c0,10,3.4,15.8,10.4,15.8s10.5-5.2,10.5-15.8V27.5h17.8v36.6c0,20.5-10.2,30.8-28.8,30.8
	c-18.2,0-27.8-9.9-27.8-31.3V27.5H205.5z"/>
<path class="st0" d="M274.2,27.5V52h21.6V27.5h17.7v66.3h-17.7V67.6h-21.6v26.3h-17.8V27.5H274.2z"/>
<path class="st0" d="M367.4,67.1h-23.8v12.2h26.7v14.6h-44.5V27.5h43.1V42h-25.3v10.7h23.8V67.1z"/>
<path class="st0" d="M381.3,76.2c5.4,2.6,11.3,4,17.2,4.1c6.1,0,9-2.1,9-5.4s-3-5.1-10.4-7.7c-11.2-3.9-18.6-10.1-18.6-20
	c0-11.7,9.9-20.8,26.6-20.8c8,0,13.6,1.5,18,3.4l-3.7,14.2c-4.5-2.1-9.5-3.2-14.5-3.2c-5.4,0-8.4,2-8.4,4.9c0,3.3,3.5,4.7,11.9,7.9
	c11.9,4.3,17.3,10.7,17.3,20c0,11.4-9,21.2-28.4,21.2c-8,0-15.7-2.1-19.5-4L381.3,76.2z"/>
<path class="st0" d="M435.3,27.5h17.6v28.2h0.2c1.4-2.5,2.8-4.9,4.3-7.3l12.7-20.9H492l-21.1,28.2l21.8,38.1h-20.6l-14-26.9
	l-5.3,6.8v20.1h-17.6V27.5z"/>
<path class="st0" d="M557.4,60c0,21.4-12.8,35-33.3,35s-31.9-15.5-31.9-33.9c0-19.3,12.7-34.6,33-34.6
	C546.5,26.4,557.4,42.3,557.4,60z M511,60.8c0,12.4,5.4,20.1,14,20.1s13.6-8.4,13.6-20.3c0-11.4-5.1-20.1-13.7-20.1
	S511,48.6,511,60.8z"/>
<path class="st0" d="M629.2,60c0,21.4-12.8,35-33.3,35S564,79.5,564,61.1c0-19.3,12.7-34.6,33-34.6C618.4,26.4,629.2,42.3,629.2,60z
	 M582.9,60.8c0,12.4,5.4,20.1,14,20.1s13.6-8.4,13.6-20.3c0-11.4-5.1-20.1-13.7-20.1S582.9,48.6,582.9,60.8z"/>
<path class="st0" d="M639.8,76.2c5.4,2.6,11.2,4,17.2,4.1c6.1,0,9.1-2.1,9.1-5.4s-3-5.1-10.4-7.7c-11.2-3.9-18.6-10.1-18.6-20
	c0-11.7,9.8-20.8,26.6-20.8c8,0,13.6,1.5,18,3.4l-3.7,14.2c-4.5-2.1-9.5-3.2-14.5-3.2c-5.4,0-8.4,2-8.4,4.9c0,3.3,3.5,4.7,11.9,7.9
	c11.9,4.3,17.3,10.7,17.3,20c0,11.4-9,21.2-28.3,21.2c-8,0-15.8-2.1-19.5-4L639.8,76.2z"/>
<path class="st0" d="M198.6,16.3c0-4.1,3.3-7.5,7.5-7.5c0.1,0,0.1,0,0.2,0c4,0,7.2,3.3,7.2,7.3c0,0.1,0,0.1,0,0.2
	c0.1,4.1-3.1,7.5-7.2,7.6c0,0,0,0,0,0C202.1,24,198.7,20.6,198.6,16.3C198.6,16.4,198.6,16.4,198.6,16.3z M220.1,16.3
	c0-4.1,3.3-7.5,7.4-7.5c4.1,0,7.5,3.3,7.5,7.4c0,0,0,0,0,0c0,4.1-3.3,7.5-7.4,7.5C223.5,23.8,220.1,20.5,220.1,16.3
	C220.1,16.4,220.1,16.4,220.1,16.3z"/>
</svg>
