<?xml version="1.0" encoding="utf-8"?>
<!-- Generator: Adobe Illustrator 27.7.0, SVG Export Plug-In . SVG Version: 6.00 Build 0)  -->
<svg version="1.1" id="Camada_1" xmlns="http://www.w3.org/2000/svg" xmlns:xlink="http://www.w3.org/1999/xlink" x="0px" y="0px"
	 viewBox="0 0 1325.9 290.8" style="enable-background:new 0 0 1325.9 290.8;" xml:space="preserve">
<style type="text/css">
	.st0{fill:#0C4DA2;}
	.st1{fill:#FFFFFF;}
	.st2{fill:#FFF200;}
</style>
<g id="Elements">
	<g>
		<path class="st0" d="M390.5,74.9h-12l-4,13.9h-19.5l3.9-13.9h-8.7V58.5h13.3l4-14.6h-11.4V27.9h16l4.2-15h19.6l-4.2,15h11.9
			l4.2-15h19.5l-4.2,15h9.9V44h-14.4l-4,14.6h12.4v16.4h-17.1L406,88.8h-19.4L390.5,74.9z M395.1,58.5l4.1-14.6h-12l-4.1,14.6H395.1
			z"/>
		<path class="st0" d="M443.9,9.1h20.4l30.4,43.3V9.1h22.5v81.3h-20L466.1,46v44.4h-22.2L443.9,9.1L443.9,9.1z"/>
		<path class="st0" d="M531,58.7V9.1h22.5v49.6c0,7.3,5,12.1,12.6,12.1c7.7,0,12.6-4.8,12.6-12.1V9.1H601v49.5c0,20-14,33.2-35,33.2
			C544.8,91.8,531,78.6,531,58.7z"/>
		<path class="st0" d="M652.3,29.9v60.5h-22.5V29.9h-23.1V9.1h68.5v20.8H652.3z"/>
		<path class="st0" d="M678.9,76.1l35.8-47.9h-34.7V9.1h64.3v14.3l-35.7,48h36.5v19h-66.2L678.9,76.1L678.9,76.1z"/>
		<path class="st0" d="M777.7,39.4h33.7v19.4h-33.7V71h39.8v19.4h-61.8V9.2h60.7v19.5h-38.7V39.4z"/>
		<path class="st0" d="M353.6,106h34.6c23.4,0,40.5,17.1,40.5,40.3c0,23.7-17.1,40.9-40.5,40.9h-34.6V106z M405.8,146.4
			c0-11.3-7.8-19.7-18.5-19.7h-11.2v39.9h11.2C397.9,166.6,405.8,158.1,405.8,146.4z"/>
		<path class="st0" d="M461.2,136.2h33.7v19.4h-33.7v12.3H501v19.4h-61.8V106h60.7v19.5h-38.7V136.2z"/>
		<path class="st0" d="M512.9,105.9h22.6v81.3h-22.6V105.9z"/>
		<path class="st0" d="M549.9,105.9h20.4l30.4,43.3v-43.3h22.5v81.3h-20l-31.1-44.4v44.4h-22.2L549.9,105.9L549.9,105.9z"/>
		<path class="st0" d="M659.8,136.2h33.7v19.4h-33.7v12.3h39.8v19.4h-61.8V106h60.7v19.5h-38.7L659.8,136.2L659.8,136.2z"/>
		<path class="st0" d="M349.3,273.6l11.9-15.8c4.9,5.3,12.7,8.7,20.4,8.7c5,0,10-1.6,10-6.5c0-5.2-4.5-6.7-12.7-8.4
			c-17.3-3.5-27.3-10.3-27.3-24.8c0-16.6,15-25.6,32.8-25.6c12.4,0,22.5,3.5,29.8,10.7l-11.7,15c-6.2-4.7-12.1-6.9-17.9-6.9
			c-5.3,0-9.3,1.6-9.3,5.5s3.1,5.9,12.5,7.9c17.9,3.6,27.6,11.8,27.6,26.5c0,16.7-14.8,25.5-34.4,25.5
			C367.9,285.5,356.2,280.3,349.3,273.6z"/>
		<path class="st0" d="M463.2,223.5v60.5h-22.5v-60.5h-23.1v-20.8h68.5v20.8H463.2z"/>
		<path class="st0" d="M492.4,202.7H515v81.3h-22.6V202.7z"/>
		<path class="st0" d="M529.3,202.7h22l20.8,38l20.9-38h21.9v81.3h-22.6v-43.2l-16.7,31h-6.8l-17-31v43.2h-22.5L529.3,202.7
			L529.3,202.7z"/>
		<path class="st0" d="M629.5,202.7h22l20.8,38l20.9-38h21.9v81.3h-22.6v-43.2l-16.7,31H669l-17-31v43.2h-22.5V202.7z"/>
		<path class="st0" d="M751.8,233h33.7v19.4h-33.7v12.3h39.8v19.4h-61.8v-81.1h60.7v19.5h-38.7V233z"/>
	</g>
	<g>
		<rect x="897.1" y="4.7" class="st1" width="428.8" height="286.1"/>
		<rect x="902.7" y="10.3" class="st0" width="417.5" height="274.8"/>
		<polygon class="st2" points="1111.2,35.8 1115.3,48.5 1128.6,48.4 1117.8,56.2 1122,68.9 1111.2,61 1100.5,68.9 1104.7,56.2 
			1093.9,48.4 1107.2,48.5 		"/>
		<polygon class="st2" points="1111.2,226.6 1115.3,239.3 1128.6,239.2 1117.8,247 1122,259.7 1111.2,251.8 1100.5,259.7 
			1104.7,247 1093.9,239.2 1107.2,239.3 		"/>
		<polygon class="st2" points="1063.8,48.5 1067.8,61.2 1081.2,61.1 1070.4,68.9 1074.6,81.5 1063.8,73.7 1053.1,81.5 1057.2,68.9 
			1046.4,61.1 1059.8,61.2 		"/>
		<polygon class="st2" points="1028.9,83.5 1032.9,96.2 1046.2,96.1 1035.4,103.9 1039.6,116.6 1028.9,108.7 1018.1,116.6 
			1022.3,103.9 1011.4,96.1 1024.8,96.2 		"/>
		<polygon class="st2" points="1016,131.1 1020,143.8 1033.4,143.7 1022.5,151.5 1026.7,164.1 1016,156.3 1005.2,164.1 
			1009.4,151.5 998.6,143.7 1011.9,143.8 		"/>
		<polygon class="st2" points="1028.7,178.7 1032.8,191.4 1046.1,191.3 1035.3,199.1 1039.5,211.8 1028.7,203.9 1018,211.8 
			1022.2,199.1 1011.3,191.3 1024.6,191.4 		"/>
		<polygon class="st2" points="1063.8,213.7 1067.8,226.4 1081.2,226.3 1070.4,234.1 1074.6,246.8 1063.8,238.9 1053.1,246.8 
			1057.2,234.1 1046.4,226.3 1059.8,226.4 		"/>
		<polygon class="st2" points="1158.8,48.5 1154.7,61.2 1141.4,61.1 1152.2,68.9 1148,81.5 1158.8,73.7 1169.5,81.5 1165.3,68.9 
			1176.1,61.1 1162.9,61.2 		"/>
		<polygon class="st2" points="1193.7,83.5 1189.7,96.2 1176.3,96.1 1187.1,103.9 1182.9,116.6 1193.7,108.7 1204.5,116.6 
			1200.3,103.9 1211.1,96.1 1197.8,96.2 		"/>
		<polygon class="st2" points="1206.6,131.1 1202.5,143.8 1189.2,143.7 1200,151.5 1195.8,164.1 1206.6,156.3 1217.3,164.1 
			1213.2,151.5 1224,143.7 1210.7,143.8 		"/>
		<polygon class="st2" points="1193.8,178.7 1189.8,191.4 1176.4,191.3 1187.3,199.1 1183.1,211.8 1193.8,203.9 1204.6,211.8 
			1200.4,199.1 1211.2,191.3 1197.9,191.4 		"/>
		<polygon class="st2" points="1158.8,213.7 1154.7,226.4 1141.4,226.3 1152.2,234.1 1148,246.8 1158.8,238.9 1169.5,246.8 
			1165.3,234.1 1176.1,226.3 1162.9,226.4 		"/>
	</g>
	<path class="st0" d="M315.1,209.5L209.6,0L0,105.5l79,156.8H25.2V285h288.4v-22.6H210.3L315.1,209.5z M30.4,115.6l169.1-85.2
		l85.2,169.1l-124.8,62.8h-55.6L30.4,115.6z"/>
</g>
<g id="Clear_space">
</g>
</svg>
