<?xml version="1.0" encoding="UTF-8"?><svg id="SK" xmlns="http://www.w3.org/2000/svg" viewBox="0 0 188.61 62.38"><defs><style>.cls-1{fill:#224e9c;stroke-width:0px;}</style></defs><path class="cls-1" d="m75.04,40.32c-2.39,0-3.92,2.28-3.92,5.73s1.53,5.68,3.95,5.68,3.84-2.37,3.84-5.73-1.45-5.68-3.87-5.68Z"/><path class="cls-1" d="m129.59,40.26h-.05c-.28,1.11-.56,2.67-.83,3.73l-.81,3.33h3.48l-.86-3.36c-.28-1.06-.64-2.59-.92-3.7Z"/><path class="cls-1" d="m111.55,40.2c-.57-.02-1.14.02-1.7.11v4.45h1.31c1.89,0,2.98-.95,2.98-2.34s-.92-2.2-2.59-2.23Z"/><path class="cls-1" d="m13.97,40.34c-.51-.01-1.02.02-1.53.11v11.18c.35.05.7.07,1.06.05,3.26.06,5.65-1.75,5.65-5.98,0-3.64-2.17-5.36-5.18-5.36Z"/><path class="cls-1" d="m.53,29.4v33.45h187.77V29.4H.53Zm20.67,23.88c-2.06,1.61-5.12,2.31-8.8,2.31-2.42,0-4.04-.14-5.01-.3v-18.39c1.98-.28,3.98-.41,5.98-.39,3.59,0,5.84.58,7.71,1.86,2.06,1.43,3.39,3.75,3.39,7.21,0,3.81-1.44,6.29-3.28,7.71Zm18.53,2.11h-12.58v-18.75h12.18v4.09h-7.15v3.03h6.73v4.06h-6.73v3.45h7.54v4.12Zm18.86,0l-.22-6.7c-.05-2.14-.11-4.65-.08-7.57h-.08c-.58,2.48-1.36,5.29-1.98,7.35l-1.86,6.54h-3.93l-1.59-6.51c-.48-2.03-1.06-4.82-1.47-7.37h-.05c-.11,2.64-.22,5.43-.31,7.57l-.28,6.7h-4.61l1.14-18.75h6.76l1.25,5.04c.5,2.09,1.06,4.59,1.45,6.87h.11c.53-2.28,1.14-4.92,1.7-6.9l1.39-5.01h6.62l.95,18.75h-4.9Zm16.22.31c-5.81,0-9.01-4.37-9.01-9.57s3.59-9.79,9.32-9.79c6.04,0,9.1,4.48,9.1,9.49,0,6.04-3.62,9.88-9.41,9.88h0Zm22.51-.31l-3.95-7.6-1.5,1.92v5.68h-4.98v-18.75h4.98v7.96h.05c.39-.7.81-1.39,1.22-2.06l3.59-5.9h6.18l-5.94,7.99,6.18,10.77h-5.83Zm17.39,0c-.28-.56-.75-2-1.31-4.31-.5-2.25-1.19-2.73-2.75-2.73h-.81v7.04h-4.99v-18.5c2.01-.28,4.04-.41,6.07-.39,2.85,0,4.92.39,6.34,1.45,1.19.92,1.86,2.25,1.86,4.09,0,2.34-1.75,4.01-3.23,4.53v.11c1.25.53,1.92,1.73,2.39,3.33.58,1.92,1.19,4.65,1.56,5.37h-5.14Zm18.55,0l-1.19-4.34h-4.84l-1.06,4.34h-5.2l5.46-18.75h6.68l5.59,18.75h-5.43Zm17-3.87c1.15,0,2.29-.18,3.38-.56l.7,3.95c-.71.34-2.48.75-4.73.75-7.01,0-10.1-4.37-10.1-9.35,0-6.62,4.84-9.99,10.43-9.99,2.17,0,3.92.42,4.7.83l-.97,3.95c-1.11-.45-2.29-.67-3.48-.67-2.89,0-5.4,1.7-5.4,5.54,0,3.42,2.03,5.54,5.47,5.54h0Zm11.8,3.87h-5.03v-18.75h5.04v18.75Zm19.42-8.4c0,5.79-2.89,8.71-8.15,8.71s-7.85-2.81-7.85-8.85v-10.21h5.05v10.63c0,2.84.97,4.45,2.95,4.45s2.98-1.47,2.98-4.45v-10.63h5.03v10.35Z"/><path class="cls-1" d="m20.78,19.58c1.28.63,2.68.96,4.1.98,1.45,0,2.15-.49,2.15-1.29s-.71-1.22-2.48-1.83c-2.67-.94-4.43-2.41-4.43-4.76,0-2.79,2.34-4.95,6.33-4.95,1.9,0,3.23.35,4.28.82l-.89,3.37c-1.08-.49-2.26-.75-3.45-.75-1.29,0-1.99.48-1.99,1.17,0,.8.84,1.12,2.83,1.87,2.83,1.03,4.12,2.55,4.12,4.76,0,2.72-2.14,5.04-6.75,5.04-1.9,0-3.75-.49-4.64-.95l.8-3.5Z"/><path class="cls-1" d="m33.64,8.21c1.73-.24,3.48-.35,5.23-.33,2.27,0,3.89.4,4.99,1.24,1.17.92,1.84,2.33,1.8,3.82,0,1.59-.54,3-1.52,3.89-1.29,1.15-3.14,1.64-5.27,1.64-.4,0-.77-.02-1.03-.05v5.36h-4.2v-15.58Zm4.19,6.98c.32.03.63.05.95.05,1.66,0,2.69-.84,2.69-2.2,0-1.17-.8-1.97-2.39-1.97-.42-.01-.85.02-1.27.09v4.03Z"/><path class="cls-1" d="m62.6,15.74c0,5.08-3.05,8.32-7.92,8.32s-7.59-3.68-7.59-8.06,3.02-8.25,7.85-8.25c5.09,0,7.67,3.77,7.67,7.99Zm-11.04.19c0,2.95,1.29,4.78,3.33,4.78s3.23-1.99,3.23-4.83-1.22-4.78-3.26-4.78-3.31,1.92-3.31,4.83Z"/><path class="cls-1" d="m64.85,8h4.24v12.25h6.07v3.54h-10.31v-15.79Z"/><path class="cls-1" d="m91.19,15.74c0,5.08-3.05,8.32-7.92,8.32s-7.59-3.68-7.59-8.06,3.02-8.25,7.85-8.25c5.09,0,7.67,3.77,7.67,7.99Zm-11.04.19c0,2.95,1.29,4.78,3.33,4.78s3.23-1.99,3.23-4.83-1.22-4.78-3.26-4.78-3.3,1.92-3.3,4.83h0Z"/><path class="cls-1" d="m105.27,23.4c-.61.28-2.09.63-3.98.63-5.91,0-8.51-3.68-8.51-7.87,0-5.58,4.08-8.41,8.8-8.41,1.83,0,3.3.35,3.96.71l-.82,3.33c-.93-.38-1.93-.57-2.93-.56-2.44,0-4.54,1.43-4.54,4.66,0,2.88,1.71,4.66,4.62,4.66.96,0,1.92-.16,2.83-.48l.58,3.32Zm-6.12-16.24l-2.35-2.95h2.85l1.03,1.38h.05l1.03-1.38h2.84l-2.32,2.95h-3.12Z"/><path class="cls-1" d="m107.54,23.8v-15.79h4.99l2.51,4.85c.95,1.79,1.78,3.63,2.48,5.53h.07c-.23-2.21-.34-4.43-.33-6.66v-3.72h3.87v15.79h-4.45l-2.67-5.25c-.99-1.85-1.88-3.76-2.67-5.71h-.07c.1,2.14.14,4.52.14,7.08v3.89h-3.87Z"/><path class="cls-1" d="m133.98,17.42h-5.67v2.91h6.35v3.47h-10.59v-15.79h10.26v3.44h-6.02v2.55h5.67v3.43Z"/><path class="cls-1" d="m140.68,21.55l6.98-9.96v-.1h-6.33v-3.49h11.81v2.43l-6.77,9.79v.09h6.9v3.49h-12.59v-2.26Z"/><path class="cls-1" d="m159.85,20.14l-.89,3.65h-4.38l4.59-15.79h5.63l4.71,15.79h-4.57l-1.01-3.65h-4.08Zm3.49-3.14l-.73-2.84c-.24-.89-.54-2.18-.77-3.12h-.05c-.24.94-.48,2.25-.7,3.14l-.68,2.81h2.93Z"/></svg>