<svg id="ep-elections-share-icon-borderless" xmlns="http://www.w3.org/2000/svg" width="52" height="52" viewBox="0 0 52 52">
  <g id="Groupe_8714" data-name="Groupe 8714" transform="translate(-3 -2)">
    <rect id="Rectangle_682" data-name="Rectangle 682" width="52" height="52" transform="translate(3 2)" fill="none"/>
  </g>
  <g id="_01_align_center" data-name="01 align center" transform="translate(10 11.018)">
    <path id="Tracé_8763" data-name="Tracé 8763" d="M25.757,19.534a6.206,6.206,0,0,0-5.113,2.7l-8.669-3.914a6.092,6.092,0,0,0,.007-4.645l8.657-3.934a6.206,6.206,0,1,0-1.1-3.52,6.171,6.171,0,0,0,.107,1.047l-9.2,4.182a6.217,6.217,0,1,0-.02,9.092L19.648,24.7a6.308,6.308,0,0,0-.105,1.045,6.216,6.216,0,1,0,6.215-6.214Z" transform="translate(0.027 -0.999)" fill="#fff302"/>
  </g>
</svg>
