<?xml version="1.0" encoding="utf-8"?>
<!-- Generator: Adobe Illustrator 28.0.0, SVG Export Plug-In . SVG Version: 6.00 Build 0)  -->
<svg version="1.1" id="Calque_1" xmlns="http://www.w3.org/2000/svg" xmlns:xlink="http://www.w3.org/1999/xlink" x="0px" y="0px"
	 viewBox="0 0 13.5 15.67" style="enable-background:new 0 0 13.5 15.67;" xml:space="preserve">
<style type="text/css">
	.st0{clip-path:url(#SVGID_00000002381812393671889690000017454803080133695884_);}
	.st1{fill:#505456;}
</style>
<g id="Groupe_19568" transform="translate(0 0)">
	<g>
		<defs>
			<rect id="SVGID_1_" width="13.5" height="15.67"/>
		</defs>
		<clipPath id="SVGID_00000100365694631533849310000007888203524979732396_">
			<use xlink:href="#SVGID_1_"  style="overflow:visible;"/>
		</clipPath>
		
			<g id="Groupe_19568-2" transform="translate(0 0)" style="clip-path:url(#SVGID_00000100365694631533849310000007888203524979732396_);">
			<path id="Tracé_12401" class="st1" d="M13.5,11.65v2.93c0,0.21-0.09,0.42-0.24,0.57l-0.28,0.28c-0.15,0.15-0.36,0.24-0.57,0.24
				H1.09c-0.21,0-0.42-0.09-0.57-0.24l-0.28-0.28C0.09,15,0,14.8,0,14.58v-2.93c0-0.19,0.07-0.37,0.21-0.5l2.27-2.26l1.14,1.14
				l-0.93,0.93h8.12l-0.93-0.93l1.14-1.14l2.08,2.07l0.19,0.19C13.43,11.29,13.5,11.47,13.5,11.65"/>
			<path id="Tracé_12402" class="st1" d="M6.58,10.73L1.89,6.05L7.93,0l4.69,4.69L6.58,10.73z M4.18,6.05l2.4,2.4l3.76-3.76
				l-2.4-2.4L4.18,6.05z"/>
		</g>
	</g>
</g>
</svg>
