<svg version="1.1" id="Calque_1" xmlns="http://www.w3.org/2000/svg" xmlns:xlink="http://www.w3.org/1999/xlink" x="0" y="0" viewBox="0 0 22.45 23.79" style="enable-background:new 0 0 22.45 23.79" xml:space="preserve"><style>.st1{fill:#fff}</style><defs><path id="SVGID_1_" d="M.27.39H22v22.75H.27z"/></defs><clipPath id="SVGID_00000048459885252509868430000008780028080529986476_"><use xlink:href="#SVGID_1_" style="overflow:visible"/></clipPath><g id="Groupe_14232" style="clip-path:url(#SVGID_00000048459885252509868430000008780028080529986476_)"><path id="Tracé_4216" class="st1" d="M9.32 13.21V1.48c-.07-.5.27-.96.77-1.04.02 0 .05-.01.07-.01.65-.06 1.3-.06 1.95 0 .44.03.8.38.83.82.01.11.01.23.01.34v11.69c.17-.14.28-.23.39-.31l3.23-2.72a1.29 1.29 0 0 1 1.81-.09l.09.09c.23.19.46.39.69.58.63.53.64 1.02.01 1.55l-5.39 4.52c-.6.5-1.2 1.01-1.8 1.51-.47.46-1.22.46-1.69 0l-7.21-6.04a.857.857 0 0 1-.33-1.17c.08-.14.2-.26.34-.34.27-.23.54-.46.82-.68a1.24 1.24 0 0 1 1.7 0c1.12.93 2.24 1.87 3.35 2.81.1.08.17.17.26.26l.1-.04"/><path id="Tracé_4217" class="st1" d="M11.15 20.11c3.19 0 6.37-.01 9.56.01.31-.01.61.06.88.2.21.15.34.37.38.62.04.44.05.89.01 1.33a.96.96 0 0 1-.99.85c-.1.01-.2 0-.3 0H1.58c-.92 0-1.3-.32-1.3-1.08 0-.35-.01-.7 0-1.05a.94.94 0 0 1 .99-.89c.02 0 .04 0 .06.01 1.02-.01 2.03-.01 3.05-.01l6.77.01"/></g></svg>