<svg xmlns="http://www.w3.org/2000/svg" viewBox="0 0 46.4 47.6" style="enable-background:new 0 0 46.4 47.6" xml:space="preserve"><path d="M23.2 47.6c-3.1 0-6.2-.6-9-1.9-2.8-1.2-5.3-2.9-7.4-5.1-2.1-2.2-3.8-4.7-5-7.6-2.4-5.9-2.4-12.6 0-18.5C3 11.7 4.7 9.1 6.8 7c2.1-2.2 4.6-3.9 7.4-5.1C20-.6 26.5-.6 32.3 1.9 35 3.1 37.5 4.8 39.6 7c2.1 2.2 3.8 4.7 5 7.6 2.4 5.9 2.4 12.6 0 18.5-1.2 2.8-2.8 5.4-5 7.6-2.1 2.2-4.6 3.9-7.4 5.1-2.8 1.1-5.9 1.8-9 1.8zm-6.5-33.4v19.1l16-9.6-16-9.5z" style="fill:#fff"/></svg>