<svg version="1.1" id="Calque_1" xmlns="http://www.w3.org/2000/svg" xmlns:xlink="http://www.w3.org/1999/xlink" x="0" y="0" viewBox="0 0 28.54 34.02" style="enable-background:new 0 0 28.54 34.02" xml:space="preserve"><style>.st1{fill:#38456d}</style><g transform="translate(0 96.239)" id="Groupe_2461"><defs><path id="SVGID_1_" d="M1.08-95.06h26v25.73h-26z"/></defs><clipPath id="SVGID_00000183226851236211769390000004420585542921889432_"><use xlink:href="#SVGID_1_" style="overflow:visible"/></clipPath></g><g transform="translate(.883 47.5)" id="Groupe_2449"><defs><path id="SVGID_00000119100799054226932960000017747247515353145783_" d="M2.43-46.32h21.91v31.74H2.43z"/></defs><clipPath id="SVGID_00000001664034438996845950000018268736969131681213_"><use xlink:href="#SVGID_00000119100799054226932960000017747247515353145783_" style="overflow:visible"/></clipPath><g id="Groupe_2448" style="clip-path:url(#SVGID_00000001664034438996845950000018268736969131681213_)"><path id="Tracé_4214" class="st1" d="M13.38-14.58c-.59-.83-1.16-1.62-1.72-2.42-2.14-3.04-4.2-6.13-6.04-9.36-1.03-1.7-1.89-3.5-2.55-5.38-1.51-4.07-.4-8.65 2.81-11.57 2.13-2.11 5.06-3.2 8.05-2.99 6.05.3 10.7 5.45 10.4 11.49-.06 1.27-.35 2.52-.84 3.7a49.45 49.45 0 0 1-4.14 7.77c-1.83 2.95-3.81 5.79-5.84 8.6-.03.03-.07.08-.13.16m-.01-3.32c.07-.08.11-.13.15-.18 1.69-2.4 3.33-4.83 4.84-7.34 1.3-2.06 2.43-4.23 3.37-6.49 1.9-4.61-.29-9.9-4.91-11.8-.91-.38-1.88-.6-2.86-.66-2.23-.15-4.43.55-6.18 1.95a9.003 9.003 0 0 0-2.99 9.78c.48 1.4 1.09 2.76 1.81 4.06 1.38 2.58 2.93 5.04 4.56 7.46.72 1.06 1.46 2.13 2.21 3.22"/><path id="Tracé_4215" class="st1" d="M13.4-31.8a4.451 4.451 0 0 1-4.46-4.43 4.451 4.451 0 0 1 4.43-4.46 4.451 4.451 0 0 1 4.46 4.43v.01a4.45 4.45 0 0 1-4.43 4.45m-2.52-4.46a2.51 2.51 0 0 0 2.5 2.51 2.51 2.51 0 0 0 2.51-2.5c0-1.38-1.11-2.51-2.49-2.51-1.38 0-2.51 1.12-2.52 2.5"/></g></g></svg>