<svg version="1.1" id="Calque_1" xmlns="http://www.w3.org/2000/svg" x="0" y="0" viewBox="0 0 32.5 31.4" style="enable-background:new 0 0 32.5 31.4" xml:space="preserve"><style>.st0{fill:#1d1d3d}</style><g id="Groupe_1482" transform="translate(18.128 -14.176)"><path id="Tracé_3883" class="st0" d="M.8 21.4h-8.3c-.5 0-.8.1-1 .6-.6 1.5-2.2 2.4-3.8 2.1-1.6-.3-2.8-1.8-2.8-3.4 0-1.7 1.2-3.1 2.8-3.4 1.6-.3 3.2.5 3.8 2.1.2.5.5.6 1 .6H9.6c.4 0 .7.3.8.6v.1c0 .4-.3.7-.6.8H6.5l-5.7-.1zm-14.5-.7c0 1.1.9 1.9 1.9 1.9 1.1 0 1.9-.9 1.9-2s-.8-1.9-1.9-2c-1 .1-1.9 1-1.9 2.1z"/><path id="Tracé_3884" class="st0" d="M-5.7 37.7h8.3c.4.1.8-.2 1-.6.6-1.6 2.3-2.4 3.9-2 1.9.4 3.1 2.3 2.6 4.2-.3 1.4-1.4 2.4-2.8 2.7-1.6.3-3.2-.5-3.8-2-.1-.4-.6-.7-1-.6H-14c-.3 0-.6 0-.8-.1-.3-.2-.4-.4-.5-.7 0-.2.3-.5.6-.7.2-.1.4 0 .7 0l8.3-.2zm14.5.7c0-1.1-.9-1.9-2-1.9s-1.9.9-1.9 2 .9 1.9 2 1.9c1 0 1.9-.9 1.9-2z"/><path id="Tracé_3885" class="st0" d="M5.3 30.3h-4c-.3 0-.5.2-.6.4C.2 32.1-1.1 33-2.5 33c-1.5 0-2.8-.9-3.3-2.2-.2-.4-.4-.5-.8-.5H-14c-.3 0-.6 0-.9-.2-.2-.2-.3-.5-.3-.8.2-.3.4-.5.8-.6 1-.1 2 0 3.1 0h4.7c.4 0 .6-.1.8-.5.5-1.4 1.8-2.3 3.2-2.2 1.5-.1 2.8.9 3.2 2.2.2.4.4.5.8.5h7.7c.3 0 .5 0 .8.2.2.2.4.6.3.8-.2.3-.5.5-.9.6h-4zm-7.9-2.7c-1.1 0-1.9.9-1.9 1.9 0 1.1.8 2 1.9 2 1.1 0 2-.9 2-1.9 0-1.2-.9-2-2-2z"/></g></svg>