<svg xmlns="http://www.w3.org/2000/svg" width="45" height="44.996" viewBox="0 0 45 44.996">
  <g id="ep-EE24-elections-campaign-linkedin-icon" transform="translate(0.5 0.5)">
    <g id="Group">
      <path id="Path_268" data-name="Path 268" d="M5.018,10.035a22,22,0,0,0,22-22,22,22,0,0,0-22-22,22,22,0,0,0-22,22,22,22,0,0,0,22,21.995" transform="translate(16.982 33.961)" fill="#fff200" stroke="#1e1e1e" stroke-width="1"/>
    </g>
    <g id="Group-2" data-name="Group" transform="translate(12.918 13.312)">
      <path id="Path_270" data-name="Path 270" d="M5.716,5.467V-1.245c0-3.6-1.922-5.275-4.483-5.275a3.864,3.864,0,0,0-3.5,1.933V-6.246h-3.9c.053,1.1,0,11.715,0,11.715h3.895V-1.075a2.657,2.657,0,0,1,.128-.95,2.129,2.129,0,0,1,2-1.423c1.41,0,1.973,1.074,1.973,2.649V5.467ZM-10.27-7.844a2.031,2.031,0,0,0,1.546-.529,2.031,2.031,0,0,0,.656-1.5,2.023,2.023,0,0,0-.644-1.492,2.023,2.023,0,0,0-1.533-.537,2.031,2.031,0,0,0-1.545.528,2.031,2.031,0,0,0-.657,1.494,2.017,2.017,0,0,0,.635,1.482,2.017,2.017,0,0,0,1.518.543Zm1.945,1.6h-3.893V5.467h3.893Zm0,11.713" transform="translate(12.447 11.905)" fill="#1e1e1e"/>
    </g>
  </g>
</svg>
