<svg id="ep-EE24-elections-campaign-copy-icon" xmlns="http://www.w3.org/2000/svg" xmlns:xlink="http://www.w3.org/1999/xlink" width="34" height="32.562" viewBox="0 0 34 32.562">
  <defs>
    <clipPath id="clip-path">
      <rect id="Rectangle_4802" data-name="Rectangle 4802" width="22" height="23.351" transform="translate(0 0)" fill="none"/>
    </clipPath>
  </defs>
  <g id="Groupe_19794" data-name="Groupe 19794" transform="translate(6 4)">
    <g id="Groupe_19767" data-name="Groupe 19767" transform="translate(0 0)" clip-path="url(#clip-path)">
      <path id="Tracé_213810" data-name="Tracé 213810" d="M17.031,2.653V4.122h2.318v0A2.65,2.65,0,0,1,22,6.771h0V20.7h0a2.65,2.65,0,0,1-2.645,2.647v0H7.62v0A2.65,2.65,0,0,1,4.973,20.7h0V17.58H2.651v0A2.65,2.65,0,0,1,0,14.931H0V2.651H0A2.65,2.65,0,0,1,2.649,0V0H14.38V0a2.65,2.65,0,0,1,2.647,2.645h0ZM15.02,4.122V2.649h0a.652.652,0,0,0-.642-.64v0H2.651v0a.652.652,0,0,0-.64.642h0v12.28h0a.652.652,0,0,0,.642.64v0H4.971V6.773h0A2.65,2.65,0,0,1,7.62,4.126v0h7.4ZM19.988,20.7V6.771h0a.652.652,0,0,0-.642-.64v0H7.618v0a.652.652,0,0,0-.64.642h0V20.7h0a.652.652,0,0,0,.642.64v0H19.351v0a.652.652,0,0,0,.64-.642h0Z" transform="translate(0 0)" fill="#fff" fill-rule="evenodd"/>
    </g>
  </g>
  <rect id="Frame" width="34" height="32.562" fill="none"/>
</svg>
