<?xml version="1.0" encoding="UTF-8"?>
<svg xmlns="http://www.w3.org/2000/svg" viewBox="0 0 1356 400">
  <defs>
    <style>
      .cls-1 {
        fill: #0c4da2;
      }

      .cls-2 {
        fill: #fff;
      }

      .cls-3 {
        fill: #fff200;
      }
    </style>
  </defs>
  <polygon class="cls-1" points="0 0 0 400 1356 400 1356 0 0 0 0 0"/>
  <polygon class="cls-3" points="186.77 1.45 174.2 40.63 132.92 40.36 166.38 64.51 153.44 103.61 186.77 79.22 220.04 103.61 207.1 64.51 240.48 40.36 199.3 40.63 186.77 1.45 186.77 1.45"/>
  <polygon class="cls-3" points="226.68 148.58 214.06 187.72 172.78 187.48 206.29 211.64 193.35 250.69 226.68 226.35 259.91 250.69 247.01 211.64 280.38 187.48 239.2 187.72 226.68 148.58 226.68 148.58"/>
  <polygon class="cls-3" points="187.05 295.67 174.62 335.05 133.34 334.72 166.9 358.83 153.9 397.92 187.05 373.45 220.46 397.92 207.52 358.83 240.99 334.77 199.76 335.05 187.05 295.67 187.05 295.67"/>
  <g>
    <path class="cls-2" d="M387.87,57.88h23.67c13.95,0,23.13,7.74,23.13,19.71s-9.09,20.34-23.13,20.34h-8.73v20.79h-14.94v-60.84ZM411.09,85.33c5.22,0,8.64-2.97,8.64-7.56s-3.51-7.2-8.55-7.2h-8.37v14.76h8.28Z"/>
    <path class="cls-2" d="M441.15,57.97h25.11c13.95,0,23.04,7.74,23.04,19.26,0,9.09-5.58,15.75-14.58,18.27l15.57,23.22h-17.01l-14.58-22.14h-2.61v22.14h-14.94v-60.75ZM465.9,84.88c5.13,0,8.46-2.88,8.46-7.38s-3.33-7.2-8.46-7.2h-9.81v14.58h9.81Z"/>
  </g>
  <g>
    <path class="cls-2" d="M494.77,109.18l29.07-38.52h-28.17v-12.78h47.88v9.54l-28.98,38.61h29.52v12.69h-49.32v-9.54Z"/>
    <path class="cls-2" d="M564.07,57.88l12.06,22.77,11.79-22.77h16.83l-21.24,37.8v23.04h-15.03v-23.31l-21.33-37.53h16.92Z"/>
  </g>
  <g>
    <path class="cls-2" d="M595.78,107.29l11.97-6.57c1.44,3.33,4.32,5.13,7.92,5.13,4.68,0,7.65-3.33,7.65-8.55v-39.42h14.94v39.06c0,14.13-8.55,22.86-21.51,22.86-9.72,0-17.28-4.05-20.97-12.51Z"/>
    <path class="cls-2" d="M649.15,57.97h25.38c17.46,0,30.15,12.78,30.15,30.15s-12.69,30.6-30.15,30.6h-25.38v-60.75ZM689.38,88.21c0-9.45-6.57-16.47-15.57-16.47h-9.72v33.3h9.72c8.91,0,15.57-7.11,15.57-16.83Z"/>
  </g>
  <g>
    <path class="cls-2" d="M708.02,109.18l29.07-38.52h-28.17v-12.78h47.88v9.54l-28.98,38.61h29.52v12.69h-49.32v-9.54ZM721.34,46.27l19.35-10.62,6.57,9.99-20.97,8.64-4.95-8.01Z"/>
    <path class="cls-2" d="M788.21,57.88h15.03v60.84h-15.03v-60.84Z"/>
    <path class="cls-2" d="M834.02,109.18l29.07-38.52h-28.17v-12.78h47.88v9.54l-28.98,38.61h29.52v12.69h-49.32v-9.54Z"/>
  </g>
  <g>
    <path class="cls-2" d="M886.66,88.39c0-18.27,13.23-31.5,31.59-31.5s31.5,13.14,31.5,31.32-13.32,31.59-31.59,31.59-31.5-13.14-31.5-31.41ZM934.36,88.39c0-10.26-6.75-17.73-16.11-17.73s-16.29,7.38-16.29,17.64,7.02,17.73,16.29,17.73,16.11-7.47,16.11-17.64Z"/>
    <path class="cls-2" d="M958.12,57.97h27.45c12.78,0,20.79,5.67,20.79,15.39,0,6.39-3.33,11.52-9.36,13.77,6.93,1.98,11.61,7.2,11.61,14.94,0,10.35-8.28,16.65-22.32,16.65h-28.17v-60.75ZM983.77,82.36c5.04,0,7.92-2.25,7.92-6.12s-2.97-6.21-8.1-6.21h-11.07v12.33h11.25ZM985.03,106.66c5.76,0,8.82-2.43,8.82-6.57s-3.15-6.48-8.73-6.48h-12.6v13.05h12.51Z"/>
  </g>
  <g>
    <path class="cls-2" d="M1032.84,57.97h18l22.77,60.75h-15.57l-4.41-12.24h-23.85l-4.41,12.24h-15.3l22.77-60.75ZM1041.66,73.09l-7.47,20.88h15.03l-7.47-20.88h-.09Z"/>
    <path class="cls-2" d="M1073.16,88.39c0-18.63,12.78-31.5,30.96-31.5,10.62,0,19.71,4.95,25.11,13.05l-10.62,8.19c-3.24-4.77-8.19-7.47-14.13-7.47-9.36,0-16.11,6.75-16.11,17.64s6.75,17.64,16.11,17.64c6.03,0,11.25-2.7,14.4-7.83l10.53,8.55c-5.13,7.83-14.13,13.14-25.29,13.14-17.91,0-30.96-12.78-30.96-31.41Z"/>
  </g>
  <path class="cls-2" d="M1133.29,109.18l29.07-38.52h-28.17v-12.78h47.88v9.54l-28.98,38.61h29.52v12.69h-49.32v-9.54Z"/>
  <g>
    <path class="cls-2" d="M387.87,142.97h25.38c17.46,0,30.15,12.78,30.15,30.15s-12.69,30.6-30.15,30.6h-25.38v-60.75ZM428.1,173.21c0-9.45-6.57-16.47-15.57-16.47h-9.72v33.3h9.72c8.91,0,15.57-7.11,15.57-16.83Z"/>
    <path class="cls-2" d="M466.35,166.37h26.64v12.87h-26.64v11.61h31.32v12.87h-45.9v-60.75h45.09v12.96h-30.51v10.44Z"/>
  </g>
  <g>
    <path class="cls-2" d="M506.94,142.88h14.67l16.83,30.69,16.83-30.69h14.58v60.84h-14.94v-35.19l-13.95,25.74h-5.04l-14.04-25.74v35.19h-14.94v-60.84Z"/>
    <path class="cls-2" d="M578.22,173.39c0-18.27,13.23-31.5,31.59-31.5s31.5,13.14,31.5,31.32-13.32,31.59-31.59,31.59-31.5-13.14-31.5-31.41ZM625.92,173.39c0-10.26-6.75-17.73-16.11-17.73s-16.29,7.38-16.29,17.64,7.02,17.73,16.29,17.73,16.11-7.47,16.11-17.64Z"/>
    <path class="cls-2" d="M664.62,176v27.72h-14.94v-60.75h14.94v26.64l19.35-26.64h17.37l-22.14,29.79,22.95,30.96h-17.37l-20.16-27.72Z"/>
  </g>
  <g>
    <path class="cls-2" d="M707.61,142.97h25.11c13.95,0,23.04,7.74,23.04,19.26,0,9.09-5.58,15.75-14.58,18.27l15.57,23.22h-17.01l-14.58-22.14h-2.61v22.14h-14.94v-60.75ZM732.36,169.88c5.13,0,8.46-2.88,8.46-7.38s-3.33-7.2-8.46-7.2h-9.81v14.58h9.81Z"/>
    <path class="cls-2" d="M783.21,142.97h18l22.77,60.75h-15.57l-4.41-12.24h-23.85l-4.41,12.24h-15.3l22.77-60.75ZM792.03,158.09l-7.47,20.88h15.03l-7.47-20.88h-.09Z"/>
  </g>
  <g>
    <path class="cls-2" d="M823.59,173.39c0-18.63,12.78-31.5,30.96-31.5,10.62,0,19.71,4.95,25.11,13.05l-10.62,8.19c-3.24-4.77-8.19-7.47-14.13-7.47-9.36,0-16.11,6.75-16.11,17.64s6.75,17.64,16.11,17.64c6.03,0,11.25-2.7,14.4-7.83l10.53,8.55c-5.13,7.83-14.13,13.14-25.29,13.14-17.91,0-30.96-12.78-30.96-31.41Z"/>
    <path class="cls-2" d="M883.08,192.29l11.97-6.57c1.44,3.33,4.32,5.13,7.92,5.13,4.68,0,7.65-3.33,7.65-8.55v-39.42h14.94v39.06c0,14.13-8.55,22.86-21.51,22.86-9.72,0-17.28-4.05-20.97-12.51Z"/>
    <path class="cls-2" d="M951.57,166.37h26.64v12.87h-26.64v11.61h31.32v12.87c-5.49,2.25-7.83,4.05-7.83,6.48,0,1.17.72,1.71,1.8,1.71,1.26,0,2.7-.72,4.32-1.8l3.15,6.12c-3.24,2.7-7.11,4.32-11.25,4.32-6.66,0-9.54-3.6-9.54-7.65,0-3.15,1.62-6.48,4.32-9.18h-30.87v-60.75h45.09v12.96h-30.51v10.44Z"/>
  </g>
  <g>
    <path class="cls-2" d="M382.38,227.97h15.57l11.34,42.12,10.17-42.12h13.05l10.44,42.12,11.16-42.12h15.57l-17.82,60.75h-15.39l-10.44-35.82-10.44,35.82h-15.39l-17.82-60.75Z"/>
    <path class="cls-2" d="M498.75,227.97h25.38c17.46,0,30.15,12.78,30.15,30.15s-12.69,30.6-30.15,30.6h-25.38v-60.75ZM538.98,258.21c0-9.45-6.57-16.47-15.57-16.47h-9.72v33.3h9.72c8.91,0,15.57-7.11,15.57-16.83Z"/>
  </g>
  <g>
    <path class="cls-2" d="M557.56,279.18l29.07-38.52h-28.17v-12.78h47.88v9.54l-28.98,38.61h29.52v12.69h-49.32v-9.54Z"/>
    <path class="cls-2" d="M615.25,227.88h15.03v60.84h-15.03v-60.84Z"/>
  </g>
  <g>
    <path class="cls-2" d="M658.12,227.97h18l22.77,60.75h-15.57l-4.41-12.24h-23.85l-4.41,12.24h-15.3l22.77-60.75ZM666.94,243.09l-7.47,20.88h15.03l-7.47-20.88h-.09Z"/>
    <path class="cls-2" d="M704.47,266.22l-6.75,4.68v-9.45l6.75-4.41v-29.16h14.85v20.88l15.84-9.99v9.45l-15.84,10.35v16.47h26.82v13.68h-41.67v-22.5Z"/>
  </g>
  <g>
    <path class="cls-2" d="M771.71,227.97h18l22.77,60.75h-15.57l-4.41-12.24h-23.85l-4.41,12.24h-15.3l22.77-60.75ZM780.53,243.09l-7.47,20.88h15.03l-7.47-20.88h-.09Z"/>
    <path class="cls-2" d="M817.7,227.88h13.59l25.65,35.64v-35.64h14.94v60.84h-13.32l-26.1-36.27v36.27h-14.76v-60.84Z"/>
  </g>
  <g>
    <path class="cls-2" d="M883.39,227.88h15.03v60.84h-15.03v-60.84Z"/>
    <path class="cls-2" d="M909.31,264.96v-37.08h14.94v37.08c0,6.66,4.32,10.89,10.98,10.89s10.98-4.23,10.98-10.89v-37.08h14.76v37.08c0,15.03-10.17,24.75-25.74,24.75s-25.92-9.72-25.92-24.75Z"/>
  </g>
  <g>
    <path class="cls-2" d="M386.85,330.75c0-5.25,3.73-9.06,8.9-9.06s8.9,3.81,8.9,9.06-3.76,9.08-8.93,9.08-8.88-3.81-8.88-9.08ZM402.42,330.75c0-4.07-2.79-7.02-6.66-7.02s-6.68,2.95-6.68,7.02,2.85,7.05,6.68,7.05,6.66-2.98,6.66-7.05Z"/>
    <path class="cls-2" d="M408.73,321.95h6.71c4.99,0,8.62,3.71,8.62,8.77s-3.63,8.85-8.62,8.85h-6.71v-17.62ZM421.84,330.75c0-3.94-2.74-6.79-6.5-6.79h-4.46v13.6h4.46c3.73,0,6.5-2.85,6.5-6.81Z"/>
  </g>
  <g>
    <path class="cls-2" d="M425.9,321.95h2.25l4.41,14.86,4.59-14.86h1.85l4.62,14.86,4.36-14.86h2.25l-5.38,17.62h-2.32l-4.46-13.84-4.46,13.84h-2.32l-5.38-17.62Z"/>
    <path class="cls-2" d="M453.41,321.95h2.17v17.62h-2.17v-17.62Z"/>
  </g>
  <g>
    <path class="cls-2" d="M462.66,329.6h9.29v1.91h-9.29v6.16h10.76v1.91h-12.9v-17.62h12.66v1.91h-10.52v5.74Z"/>
    <path class="cls-2" d="M476.99,321.95h6.71c4.99,0,8.62,3.71,8.62,8.77s-3.63,8.85-8.62,8.85h-6.71v-17.62ZM490.1,330.75c0-3.94-2.74-6.79-6.5-6.79h-4.46v13.6h4.46c3.73,0,6.5-2.85,6.5-6.81Z"/>
  </g>
  <g>
    <path class="cls-2" d="M494.32,338.17l10.94-14.31h-10.65v-1.91h13.63v1.38l-10.94,14.33h11.04v1.91h-14.02v-1.41ZM499.07,319l4.83-2.51.97,1.91-5.06,1.98-.73-1.38Z"/>
    <path class="cls-2" d="M518.99,321.95h6.19c3.68,0,6.06,2.01,6.06,5.14s-2.4,5.22-6.08,5.22h-4.02v7.26h-2.14v-17.62ZM525.1,330.41c2.45,0,4.02-1.33,4.02-3.34s-1.59-3.21-3.99-3.21h-3.99v6.55h3.97Z"/>
  </g>
  <g>
    <path class="cls-2" d="M538.72,321.95h2.66l7.1,17.62h-2.22l-1.98-4.91h-8.43l-1.98,4.91h-2.25l7.1-17.62ZM543.5,332.74l-3.45-8.54-3.45,8.54h6.89Z"/>
    <path class="cls-2" d="M551.64,321.95h6.37c3.71,0,6.11,2.04,6.11,5.14,0,2.85-2.06,4.8-5.27,5.09l5.25,7.39h-2.43l-5.22-7.34h-2.64v7.34h-2.17v-17.62ZM557.96,330.28c2.45,0,4.02-1.1,4.02-3.19s-1.57-3.21-3.99-3.21h-4.18v6.4h4.15Z"/>
  </g>
  <g>
    <path class="cls-2" d="M568.43,321.95h2.14v15.64h9.14v1.98h-11.28v-17.62Z"/>
    <path class="cls-2" d="M589.16,321.95h2.66l7.1,17.62h-2.22l-1.98-4.91h-8.43l-1.98,4.91h-2.25l7.1-17.62ZM593.94,332.74l-3.45-8.54-3.45,8.54h6.89Z"/>
  </g>
  <g>
    <path class="cls-2" d="M602.08,321.95h2.19l6.32,11.44,6.29-11.44h2.19v17.62h-2.14v-13.5l-5.72,10.34h-1.28l-5.72-10.34v13.5h-2.14v-17.62Z"/>
    <path class="cls-2" d="M626.23,329.6h9.29v1.91h-9.29v6.16h10.76v1.91h-12.9v-17.62h12.66v1.91h-10.52v5.74Z"/>
  </g>
  <path class="cls-2" d="M640.56,321.95h2.01l10.7,13.94v-13.94h2.17v17.62h-1.96l-10.81-14.05v14.05h-2.11v-17.62Z"/>
  <g>
    <path class="cls-2" d="M666.53,323.91v15.67h-2.14v-15.67h-5.95v-1.96h14.05v1.96h-5.95Z"/>
    <path class="cls-2" d="M684.7,329.6h9.29v1.91h-9.29v6.16h10.76v1.91h-12.9v-17.62h12.66v1.91h-10.52v5.74Z"/>
  </g>
  <g>
    <path class="cls-2" d="M698.72,332.66v-10.7h2.14v10.65c0,3.26,1.91,5.14,4.96,5.14s4.93-1.91,4.93-5.14v-10.65h2.14v10.7c0,4.44-2.72,7.15-7.08,7.15s-7.1-2.72-7.1-7.15Z"/>
    <path class="cls-2" d="M717.69,321.95h6.37c3.71,0,6.11,2.04,6.11,5.14,0,2.85-2.06,4.8-5.27,5.09l5.25,7.39h-2.43l-5.22-7.34h-2.64v7.34h-2.17v-17.62ZM724.01,330.28c2.45,0,4.02-1.1,4.02-3.19s-1.57-3.21-3.99-3.21h-4.18v6.4h4.15Z"/>
  </g>
  <g>
    <path class="cls-2" d="M733.43,330.75c0-5.25,3.73-9.06,8.9-9.06s8.9,3.81,8.9,9.06-3.76,9.08-8.93,9.08-8.88-3.81-8.88-9.08ZM748.99,330.75c0-4.07-2.79-7.02-6.66-7.02s-6.68,2.95-6.68,7.02,2.85,7.05,6.68,7.05,6.66-2.98,6.66-7.05Z"/>
    <path class="cls-2" d="M755.31,321.95h6.19c3.68,0,6.06,2.01,6.06,5.14s-2.4,5.22-6.08,5.22h-4.02v7.26h-2.14v-17.62ZM761.42,330.41c2.45,0,4.02-1.33,4.02-3.34s-1.59-3.21-3.99-3.21h-4v6.55h3.97Z"/>
  </g>
  <g>
    <path class="cls-2" d="M773.01,329.6h9.29v1.91h-9.29v6.16h10.76v1.91h-12.9v-17.62h12.66v1.91h-10.52v5.74Z"/>
    <path class="cls-2" d="M786.14,336.31l1.91-.99c.63,1.51,1.8,2.45,3.39,2.45,2.06,0,3.34-1.46,3.34-3.73v-12.09h2.14v12.09c0,3.84-2.66,5.8-5.48,5.8-2.19,0-4.33-1.15-5.3-3.52Z"/>
    <path class="cls-2" d="M800.29,336.73l1.59-1.33c1.02,1.46,2.98,2.4,4.88,2.4,2.69,0,4.49-1.1,4.49-2.85,0-2.22-1.83-2.71-4.57-3.42-3.66-.94-5.74-2.3-5.74-4.99,0-3.08,2.4-4.86,6.19-4.86,2.4,0,4.46.89,5.9,2.45l-1.41,1.51c-1.15-1.25-2.77-1.96-4.46-1.96-2.4,0-3.94.97-3.94,2.77,0,1.65,1.41,2.27,4.2,3.03,3.92,1.07,6.06,2.4,6.06,5.38s-2.69,4.96-6.68,4.96c-2.71,0-5.17-1.2-6.5-3.11Z"/>
    <path class="cls-2" d="M819.55,331.09v8.49h-2.17v-17.62h2.17v8.2l7.26-8.2h2.79l-7.7,8.62,8.07,9.01h-2.77l-7.65-8.49Z"/>
  </g>
  <path class="cls-2" d="M833.04,321.95h2.17v17.62h-2.17v-17.62Z"/>
</svg>