<?xml version="1.0" encoding="UTF-8"?>
<svg xmlns="http://www.w3.org/2000/svg" viewBox="0 0 1356 400">
  <defs>
    <style>
      .cls-1 {
        fill: #0c4da2;
      }

      .cls-2 {
        font-family: Europea-Extrabold, Europea;
        font-size: 85px;
        font-weight: 700;
      }

      .cls-2, .cls-3 {
        fill: #fff;
      }

      .cls-4 {
        fill: #fff200;
      }
    </style>
  </defs>
  <polygon class="cls-1" points="0 0 0 400 1356 400 1356 0 0 0 0 0"/>
  <polygon class="cls-4" points="186.77 1.45 174.2 40.63 132.92 40.36 166.38 64.51 153.44 103.61 186.77 79.22 220.04 103.61 207.1 64.51 240.48 40.36 199.3 40.63 186.77 1.45 186.77 1.45"/>
  <polygon class="cls-4" points="226.68 148.58 214.06 187.72 172.78 187.48 206.29 211.64 193.35 250.69 226.68 226.35 259.91 250.69 247.01 211.64 280.38 187.48 239.2 187.72 226.68 148.58 226.68 148.58"/>
  <polygon class="cls-4" points="187.05 295.67 174.62 335.05 133.34 334.72 166.9 358.83 153.9 397.92 187.05 373.45 220.46 397.92 207.52 358.83 240.99 334.77 199.76 335.05 187.05 295.67 187.05 295.67"/>
  <g>
    <path class="cls-3" d="M387.53,66.42h22.36c13.18,0,21.85,7.31,21.85,18.62s-8.59,19.21-21.85,19.21h-8.25v19.64h-14.11v-57.46ZM409.47,92.35c4.93,0,8.16-2.81,8.16-7.14s-3.31-6.8-8.08-6.8h-7.91v13.94h7.82Z"/>
    <path class="cls-3" d="M437.85,66.5h23.72c13.18,0,21.76,7.31,21.76,18.19,0,8.59-5.27,14.88-13.77,17.26l14.71,21.93h-16.07l-13.77-20.91h-2.47v20.91h-14.11v-57.38ZM461.23,91.92c4.85,0,7.99-2.72,7.99-6.97s-3.15-6.8-7.99-6.8h-9.27v13.77h9.27Z"/>
  </g>
  <g>
    <path class="cls-3" d="M491.43,66.42h14.2v57.46h-14.2v-57.46Z"/>
    <path class="cls-3" d="M516.17,66.5h23.97c16.49,0,28.48,12.07,28.48,28.48s-11.99,28.9-28.48,28.9h-23.97v-57.38ZM554.17,95.07c0-8.93-6.21-15.56-14.71-15.56h-9.18v31.45h9.18c8.42,0,14.71-6.72,14.71-15.9Z"/>
    <path class="cls-3" d="M576.69,66.42h14.2v57.46h-14.2v-57.46Z"/>
    <path class="cls-3" d="M627.18,79.42v44.46h-14.11v-44.46h-16.92v-13.01h47.86v13.01h-16.83Z"/>
    <path class="cls-3" d="M663.05,88.6h25.16v12.16h-25.16v10.97h29.58v12.16h-43.35v-57.38h42.59v12.24h-28.82v9.86Z"/>
    <path class="cls-3" d="M720.84,66.42h14.2v57.46h-14.2v-57.46Z"/>
    <path class="cls-3" d="M745.58,66.42h12.84l24.23,33.66v-33.66h14.11v57.46h-12.58l-24.65-34.26v34.26h-13.94v-57.46Z"/>
    <path class="cls-3" d="M827.6,66.42h22.36c13.18,0,21.85,7.31,21.85,18.62s-8.59,19.21-21.85,19.21h-8.25v19.64h-14.11v-57.46ZM849.53,92.35c4.93,0,8.16-2.81,8.16-7.14s-3.32-6.8-8.08-6.8h-7.91v13.94h7.82Z"/>
    <path class="cls-3" d="M876.82,95.24c0-17.26,12.5-29.75,29.84-29.75s29.75,12.41,29.75,29.58-12.58,29.84-29.84,29.84-29.75-12.41-29.75-29.67ZM921.87,95.24c0-9.69-6.38-16.75-15.22-16.75s-15.39,6.97-15.39,16.66,6.63,16.75,15.39,16.75,15.22-7.06,15.22-16.66Z"/>
    <path class="cls-3" d="M942.01,95.24c0-18.45,13.69-29.75,29.24-29.75,9.61,0,18.36,4.51,23.38,11.73l-9.95,7.91c-2.72-3.91-8.25-6.72-13.26-6.72-7.99,0-15.22,5.7-15.22,16.92,0,10.63,6.71,16.83,14.96,16.83,7.06,0,12.41-3.91,14.28-9.86h-15.22v-11.14h29.58v4.17c0,17.17-11.56,29.58-28.56,29.58s-29.24-11.99-29.24-29.67Z"/>
    <path class="cls-3" d="M1007.89,66.42h14.03v44.54h25.33v12.92h-39.36v-57.46Z"/>
    <path class="cls-3" d="M1066.62,88.6h25.16v12.16h-25.16v10.97h29.58v12.16h-43.35v-57.38h42.59v12.24h-28.82v9.86Z"/>
    <path class="cls-3" d="M1099.51,113.09l11.31-6.21c1.36,3.15,4.08,4.85,7.48,4.85,4.42,0,7.23-3.15,7.23-8.08v-37.23h14.11v36.89c0,13.35-8.08,21.59-20.32,21.59-9.18,0-16.32-3.83-19.81-11.82Z"/>
    <path class="cls-3" d="M1175.08,79.42v44.46h-14.11v-44.46h-16.92v-13.01h47.86v13.01h-16.83Z"/>
    <path class="cls-3" d="M1210.95,88.6h25.16v12.16h-25.16v10.97h29.58v12.16h-43.35v-57.38h42.59v12.24h-28.82v9.86Z"/>
  </g>
  <text class="cls-2" transform="translate(1244.19 123.88)"><tspan x="0" y="0"> </tspan></text>
  <g>
    <path class="cls-3" d="M387.53,145.5h23.97c16.49,0,28.48,12.07,28.48,28.48s-11.99,28.9-28.48,28.9h-23.97v-57.38ZM425.53,174.07c0-8.93-6.21-15.56-14.71-15.56h-9.18v31.45h9.18c8.42,0,14.71-6.72,14.71-15.9Z"/>
    <path class="cls-3" d="M461.65,167.6h25.16v12.16h-25.16v10.97h29.58v12.16h-43.35v-57.38h42.59v12.24h-28.82v9.86Z"/>
  </g>
  <g>
    <path class="cls-3" d="M500,145.42h13.86l15.9,28.99,15.9-28.99h13.77v57.46h-14.11v-33.24l-13.18,24.31h-4.76l-13.26-24.31v33.24h-14.11v-57.46Z"/>
    <path class="cls-3" d="M567.31,174.24c0-17.26,12.5-29.75,29.84-29.75s29.75,12.41,29.75,29.58-12.58,29.84-29.84,29.84-29.75-12.41-29.75-29.67ZM612.37,174.24c0-9.69-6.38-16.75-15.22-16.75s-15.39,6.97-15.39,16.66,6.63,16.75,15.39,16.75,15.22-7.06,15.22-16.66Z"/>
    <path class="cls-3" d="M648.92,176.7v26.18h-14.11v-57.38h14.11v25.16l18.28-25.16h16.41l-20.91,28.14,21.68,29.24h-16.41l-19.04-26.18Z"/>
  </g>
  <g>
    <path class="cls-3" d="M689.51,145.5h23.72c13.18,0,21.76,7.31,21.76,18.19,0,8.59-5.27,14.88-13.77,17.26l14.71,21.93h-16.07l-13.77-20.91h-2.46v20.91h-14.11v-57.38ZM712.89,170.92c4.85,0,7.99-2.72,7.99-6.97s-3.14-6.8-7.99-6.8h-9.27v13.77h9.27Z"/>
    <path class="cls-3" d="M760.91,145.5h17l21.51,57.38h-14.71l-4.17-11.56h-22.53l-4.17,11.56h-14.45l21.51-57.38ZM769.24,159.78l-7.06,19.72h14.2l-7.06-19.72h-.08Z"/>
  </g>
  <g>
    <path class="cls-3" d="M799.05,174.24c0-17.6,12.07-29.75,29.24-29.75,10.03,0,18.62,4.68,23.72,12.33l-10.03,7.74c-3.06-4.51-7.74-7.06-13.35-7.06-8.84,0-15.22,6.38-15.22,16.66s6.38,16.66,15.22,16.66c5.7,0,10.63-2.55,13.6-7.4l9.95,8.08c-4.85,7.4-13.35,12.41-23.89,12.41-16.92,0-29.24-12.07-29.24-29.67Z"/>
    <path class="cls-3" d="M858.55,145.42h14.2v57.46h-14.2v-57.46Z"/>
    <path class="cls-3" d="M878.53,192.09l11.31-6.21c1.36,3.15,4.08,4.85,7.48,4.85,4.42,0,7.23-3.15,7.23-8.08v-37.23h14.11v36.89c0,13.35-8.08,21.59-20.32,21.59-9.18,0-16.32-3.83-19.81-11.82Z"/>
    <path class="cls-3" d="M925.7,174.24c0-17.26,12.5-29.75,29.84-29.75s29.75,12.41,29.75,29.58-12.58,29.84-29.84,29.84-29.75-12.41-29.75-29.67ZM970.76,174.24c0-9.69-6.38-16.75-15.22-16.75s-15.39,6.97-15.39,16.66,6.63,16.75,15.39,16.75,15.22-7.06,15.22-16.66Z"/>
  </g>
  <text class="cls-2" transform="translate(987.71 202.88)"><tspan x="0" y="0"> </tspan></text>
  <path class="cls-3" d="M382.35,224.5h14.79l13.6,42.08h.08l13.69-42.08h14.71l-19.98,57.38h-16.92l-19.98-57.38Z"/>
  <g>
    <path class="cls-3" d="M482.91,224.5h17l21.51,57.38h-14.71l-4.17-11.56h-22.53l-4.17,11.56h-14.45l21.51-57.38ZM491.24,238.78l-7.06,19.72h14.2l-7.06-19.72h-.09Z"/>
    <path class="cls-3" d="M540.45,255.7v26.18h-14.11v-57.38h14.11v25.16l18.28-25.16h16.41l-20.91,28.14,21.68,29.24h-16.41l-19.04-26.18Z"/>
  </g>
  <g>
    <path class="cls-3" d="M575.26,253.23c0-17.6,12.07-29.75,29.24-29.75,10.03,0,18.62,4.67,23.72,12.33l-10.03,7.74c-3.06-4.51-7.74-7.06-13.35-7.06-8.84,0-15.22,6.38-15.22,16.66s6.38,16.66,15.22,16.66c5.7,0,10.63-2.55,13.6-7.4l9.95,8.08c-4.85,7.4-13.35,12.41-23.89,12.41-16.92,0-29.24-12.07-29.24-29.67Z"/>
    <path class="cls-3" d="M634.51,224.42h14.2v57.46h-14.2v-57.46Z"/>
  </g>
  <g>
    <path class="cls-3" d="M653.69,271.09l11.31-6.21c1.36,3.14,4.08,4.84,7.48,4.84,4.42,0,7.23-3.14,7.23-8.08v-37.23h14.11v36.89c0,13.35-8.08,21.59-20.32,21.59-9.18,0-16.32-3.83-19.81-11.82Z"/>
    <path class="cls-3" d="M704.18,224.42h14.2v57.46h-14.2v-57.46Z"/>
  </g>
  <g>
    <path class="cls-3" d="M386.86,326.8c0-5.25,3.73-9.06,8.9-9.06s8.9,3.81,8.9,9.06-3.76,9.08-8.93,9.08-8.88-3.81-8.88-9.08ZM402.42,326.8c0-4.07-2.79-7.02-6.66-7.02s-6.68,2.95-6.68,7.02,2.85,7.05,6.68,7.05,6.66-2.98,6.66-7.05Z"/>
    <path class="cls-3" d="M408.68,318h6.81c3.47,0,5.67,1.65,5.67,4.41,0,1.98-.97,3.58-2.69,4.15,2.14.44,3.47,2.12,3.47,4.41,0,2.85-2.32,4.65-6.14,4.65h-7.13v-17.62ZM415.2,325.76c2.53,0,3.86-1.07,3.86-2.92,0-1.96-1.41-2.95-3.99-2.95h-4.26v5.87h4.39ZM415.46,333.72c2.9,0,4.33-1.1,4.33-3.03s-1.54-3.05-4.31-3.05h-4.67v6.08h4.65Z"/>
    <path class="cls-3" d="M426.19,318h2.17v17.62h-2.17v-17.62Z"/>
    <path class="cls-3" d="M431.83,332.78l1.59-1.33c1.02,1.46,2.98,2.4,4.88,2.4,2.69,0,4.49-1.1,4.49-2.85,0-2.22-1.83-2.71-4.57-3.42-3.65-.94-5.74-2.3-5.74-4.99,0-3.08,2.4-4.86,6.19-4.86,2.4,0,4.46.89,5.9,2.45l-1.41,1.51c-1.15-1.25-2.77-1.96-4.46-1.96-2.4,0-3.94.97-3.94,2.77,0,1.65,1.41,2.27,4.2,3.03,3.92,1.07,6.06,2.4,6.06,5.38s-2.69,4.96-6.68,4.96c-2.71,0-5.17-1.2-6.5-3.11ZM434.67,314.03l1.04-1.46,3.03,1.72,3.16-1.72,1.04,1.46-4.2,2.71-4.07-2.71Z"/>
    <path class="cls-3" d="M447.93,326.8c0-5.25,3.66-9.06,8.72-9.06,3.39,0,6.34,1.83,7.7,4.67l-1.98.89c-1.04-2.19-3.24-3.52-5.72-3.52-3.79,0-6.5,2.87-6.5,7s2.74,7.05,6.5,7.05c2.45,0,4.83-1.38,5.77-3.65l1.96.94c-1.17,2.71-4.18,4.78-7.73,4.78-5.04,0-8.72-3.81-8.72-9.08ZM452.24,314.09l1.04-1.46,3.03,1.72,3.16-1.72,1.04,1.46-4.2,2.72-4.07-2.72Z"/>
    <path class="cls-3" d="M468.5,318h2.17v17.62h-2.17v-17.62Z"/>
    <path class="cls-3" d="M481.71,319.96v15.67h-2.14v-15.67h-5.95v-1.96h14.05v1.96h-5.95Z"/>
    <path class="cls-3" d="M492.75,325.65h9.29v1.91h-9.29v6.16h10.76v1.91h-12.9v-17.62h12.66v1.91h-10.52v5.74Z"/>
    <path class="cls-3" d="M516.58,325.65h9.29v1.91h-9.29v6.16h10.76v1.91h-12.9v-17.62h12.66v1.91h-10.52v5.74Z"/>
    <path class="cls-3" d="M529.69,318h2.27l5.87,15.3h.08l5.87-15.3h2.25l-6.81,17.62h-2.71l-6.81-17.62Z"/>
    <path class="cls-3" d="M549.26,318h6.37c3.71,0,6.11,2.04,6.11,5.14,0,2.85-2.06,4.8-5.27,5.09l5.25,7.39h-2.43l-5.22-7.34h-2.64v7.34h-2.17v-17.62ZM555.58,326.33c2.45,0,4.02-1.1,4.02-3.19s-1.57-3.21-3.99-3.21h-4.18v6.4h4.15Z"/>
  </g>
  <g>
    <path class="cls-3" d="M565.14,326.8c0-5.25,3.73-9.06,8.9-9.06s8.9,3.81,8.9,9.06-3.76,9.08-8.93,9.08-8.88-3.81-8.88-9.08ZM580.7,326.8c0-4.07-2.79-7.02-6.66-7.02s-6.68,2.95-6.68,7.02,2.85,7.05,6.68,7.05,6.66-2.98,6.66-7.05Z"/>
    <path class="cls-3" d="M587.04,318h6.19c3.68,0,6.06,2.01,6.06,5.14s-2.4,5.22-6.08,5.22h-4.02v7.26h-2.14v-17.62ZM593.15,326.46c2.45,0,4.02-1.33,4.02-3.34s-1.59-3.21-3.99-3.21h-3.99v6.55h3.97Z"/>
    <path class="cls-3" d="M601.63,332.78l1.59-1.33c1.02,1.46,2.98,2.4,4.88,2.4,2.69,0,4.49-1.1,4.49-2.85,0-2.22-1.83-2.71-4.57-3.42-3.65-.94-5.74-2.3-5.74-4.99,0-3.08,2.4-4.86,6.19-4.86,2.4,0,4.46.89,5.9,2.45l-1.41,1.51c-1.15-1.25-2.77-1.96-4.46-1.96-2.4,0-3.94.97-3.94,2.77,0,1.65,1.41,2.27,4.2,3.03,3.92,1.07,6.06,2.4,6.06,5.38s-2.69,4.96-6.68,4.96c-2.71,0-5.17-1.2-6.5-3.11Z"/>
    <path class="cls-3" d="M620.81,327.14v8.49h-2.17v-17.62h2.17v8.2l7.26-8.2h2.79l-7.7,8.62,8.07,9.01h-2.77l-7.65-8.49Z"/>
    <path class="cls-3" d="M634.67,318h2.17v17.62h-2.17v-17.62Z"/>
    <path class="cls-3" d="M648.82,318h6.19c3.68,0,6.06,2.01,6.06,5.14s-2.4,5.22-6.08,5.22h-4.02v7.26h-2.14v-17.62ZM654.93,326.46c2.45,0,4.02-1.33,4.02-3.34s-1.59-3.21-3.99-3.21h-3.99v6.55h3.97Z"/>
  </g>
  <g>
    <path class="cls-3" d="M668.28,318h2.66l7.1,17.62h-2.22l-1.98-4.91h-8.43l-1.98,4.91h-2.25l7.1-17.62ZM673.05,328.78l-3.45-8.54-3.45,8.54h6.89Z"/>
    <path class="cls-3" d="M681.19,318h6.37c3.71,0,6.11,2.04,6.11,5.14,0,2.85-2.06,4.8-5.27,5.09l5.25,7.39h-2.43l-5.22-7.34h-2.64v7.34h-2.17v-17.62ZM687.51,326.33c2.45,0,4.02-1.1,4.02-3.19s-1.57-3.21-3.99-3.21h-4.18v6.4h4.15Z"/>
  </g>
  <g>
    <path class="cls-3" d="M697.99,318h2.14v15.64h9.14v1.98h-11.28v-17.62Z"/>
    <path class="cls-3" d="M718.71,318h2.66l7.1,17.62h-2.22l-1.98-4.91h-8.43l-1.98,4.91h-2.25l7.1-17.62ZM723.49,328.78l-3.45-8.54-3.45,8.54h6.89Z"/>
  </g>
  <g>
    <path class="cls-3" d="M731.64,318h2.19l6.32,11.44,6.29-11.44h2.19v17.62h-2.14v-13.5l-5.72,10.34h-1.28l-5.72-10.34v13.5h-2.14v-17.62Z"/>
    <path class="cls-3" d="M755.78,325.65h9.29v1.91h-9.29v6.16h10.76v1.91h-12.9v-17.62h12.66v1.91h-10.52v5.74Z"/>
  </g>
  <g>
    <path class="cls-3" d="M770.1,318h2.01l10.7,13.94v-13.94h2.17v17.62h-1.96l-10.81-14.05v14.05h-2.12v-17.62Z"/>
    <path class="cls-3" d="M796.08,319.96v15.67h-2.14v-15.67h-5.95v-1.96h14.05v1.96h-5.95Z"/>
  </g>
</svg>