<?xml version="1.0" encoding="UTF-8"?>
<svg xmlns="http://www.w3.org/2000/svg" viewBox="0 0 1356 400">
  <defs>
    <style>
      .cls-1 {
        fill: #0c4da2;
      }

      .cls-2 {
        fill: #fff;
      }

      .cls-3 {
        fill: #fff200;
      }
    </style>
  </defs>
  <polygon class="cls-1" points="0 0 0 400 1356 400 1356 0 0 0 0 0"/>
  <polygon class="cls-3" points="186.77 1.45 174.2 40.63 132.92 40.36 166.38 64.51 153.44 103.61 186.77 79.22 220.04 103.61 207.1 64.51 240.48 40.36 199.3 40.63 186.77 1.45 186.77 1.45"/>
  <polygon class="cls-3" points="226.68 148.58 214.06 187.72 172.78 187.48 206.29 211.64 193.35 250.69 226.68 226.35 259.91 250.69 247.01 211.64 280.38 187.48 239.2 187.72 226.68 148.58 226.68 148.58"/>
  <polygon class="cls-3" points="187.05 295.67 174.62 335.05 133.34 334.72 166.9 358.83 153.9 397.92 187.05 373.45 220.46 397.92 207.52 358.83 240.99 334.77 199.76 335.05 187.05 295.67 187.05 295.67"/>
  <g>
    <path class="cls-2" d="M384.2,113.65l29.37-38.92h-28.46v-12.91h48.37v9.64l-29.28,39.01h29.82v12.82h-49.83v-9.64Z"/>
    <path class="cls-2" d="M460.31,61.91h18.19l23,61.38h-15.73l-4.46-12.37h-24.1l-4.46,12.37h-15.46l23-61.38ZM469.22,77.19l-7.55,21.1h15.18l-7.55-21.1h-.09Z"/>
    <path class="cls-2" d="M504.69,113.65l29.37-38.92h-28.46v-12.91h48.37v9.64l-29.28,39.01h29.82v12.82h-49.83v-9.64ZM512.96,49.18l3.46-7.27,13,5.36,13.28-5.36,3.46,7.27-16.73,9.46-16.46-9.46Z"/>
    <path class="cls-2" d="M563.34,61.82h15.18v61.47h-15.18v-61.47Z"/>
  </g>
  <g>
    <path class="cls-2" d="M584.29,111.74l12.09-6.64c1.45,3.36,4.36,5.18,8,5.18,4.73,0,7.73-3.36,7.73-8.64v-39.83h15.09v39.46c0,14.28-8.64,23.1-21.73,23.1-9.82,0-17.46-4.09-21.19-12.64Z"/>
    <path class="cls-2" d="M665.58,75.73v47.55h-15.09v-47.55h-18.09v-13.91h51.19v13.91h-18Z"/>
    <path class="cls-2" d="M704.41,85.55h26.91v13h-26.91v11.73h31.64v13h-46.37v-61.38h45.55v13.09h-30.82v10.55Z"/>
  </g>
  <g>
    <path class="cls-2" d="M387.93,142.15h25.64c17.64,0,30.46,12.91,30.46,30.46s-12.82,30.92-30.46,30.92h-25.64v-61.38ZM428.58,172.7c0-9.55-6.64-16.64-15.73-16.64h-9.82v33.64h9.82c9,0,15.73-7.18,15.73-17Z"/>
    <path class="cls-2" d="M467.22,165.79h26.91v13h-26.91v11.73h31.64v13h-46.37v-61.38h45.55v13.09h-30.82v10.55Z"/>
  </g>
  <g>
    <path class="cls-2" d="M508.24,142.06h14.82l17,31.01,17-31.01h14.73v61.47h-15.09v-35.55l-14.09,26.01h-5.09l-14.18-26.01v35.55h-15.09v-61.47Z"/>
    <path class="cls-2" d="M580.26,172.88c0-18.46,13.37-31.82,31.92-31.82s31.82,13.28,31.82,31.64-13.46,31.92-31.92,31.92-31.82-13.27-31.82-31.73ZM628.45,172.88c0-10.37-6.82-17.91-16.28-17.91s-16.46,7.46-16.46,17.82,7.09,17.91,16.46,17.91,16.28-7.55,16.28-17.82Z"/>
    <path class="cls-2" d="M667.56,175.52v28.01h-15.09v-61.38h15.09v26.91l19.55-26.91h17.55l-22.37,30.1,23.19,31.28h-17.55l-20.37-28.01Z"/>
  </g>
  <g>
    <path class="cls-2" d="M710.99,142.15h25.37c14.09,0,23.28,7.82,23.28,19.46,0,9.18-5.64,15.91-14.73,18.46l15.73,23.46h-17.19l-14.73-22.37h-2.64v22.37h-15.09v-61.38ZM736,169.33c5.18,0,8.55-2.91,8.55-7.46s-3.36-7.27-8.55-7.27h-9.91v14.73h9.91Z"/>
    <path class="cls-2" d="M787.38,142.15h18.19l23,61.38h-15.73l-4.46-12.37h-24.1l-4.46,12.37h-15.46l23-61.38ZM796.29,157.42l-7.55,21.1h15.18l-7.55-21.1h-.09Z"/>
  </g>
  <g>
    <path class="cls-2" d="M828.18,172.88c0-18.82,12.91-31.82,31.28-31.82,10.73,0,19.91,5,25.37,13.18l-10.73,8.27c-3.27-4.82-8.27-7.55-14.28-7.55-9.46,0-16.28,6.82-16.28,17.82s6.82,17.82,16.28,17.82c6.09,0,11.37-2.73,14.55-7.91l10.64,8.64c-5.18,7.91-14.28,13.27-25.55,13.27-18.09,0-31.28-12.91-31.28-31.73Z"/>
    <path class="cls-2" d="M891.57,142.06h15.19v61.47h-15.19v-61.47Z"/>
  </g>
  <path class="cls-2" d="M918.2,142.06h15.19v61.47h-15.19v-61.47Z"/>
  <path class="cls-2" d="M382.38,222.38h15.82l14.55,45.01h.09l14.64-45.01h15.73l-21.37,61.38h-18.09l-21.37-61.38Z"/>
  <g>
    <path class="cls-2" d="M489.95,222.38h18.19l23,61.38h-15.73l-4.46-12.37h-24.1l-4.46,12.37h-15.46l23-61.38ZM498.86,237.66l-7.55,21.09h15.18l-7.55-21.09h-.09Z"/>
    <path class="cls-2" d="M551.51,255.75v28.01h-15.09v-61.38h15.09v26.92l19.55-26.92h17.55l-22.37,30.1,23.19,31.28h-17.55l-20.37-28.01Z"/>
  </g>
  <g>
    <path class="cls-2" d="M588.76,253.11c0-18.82,12.91-31.82,31.28-31.82,10.73,0,19.91,5,25.37,13.18l-10.73,8.27c-3.27-4.82-8.27-7.55-14.28-7.55-9.46,0-16.28,6.82-16.28,17.82s6.82,17.82,16.28,17.82c6.09,0,11.37-2.73,14.55-7.91l10.64,8.64c-5.18,7.91-14.28,13.28-25.55,13.28-18.09,0-31.28-12.91-31.28-31.73Z"/>
    <path class="cls-2" d="M652.14,222.29h15.18v61.47h-15.18v-61.47Z"/>
  </g>
  <g>
    <path class="cls-2" d="M387.69,320.16h2.01l10.7,13.94v-13.94h2.17v17.62h-1.96l-10.81-14.05v14.05h-2.11v-17.62Z"/>
    <path class="cls-2" d="M412.83,320.16h2.66l7.1,17.62h-2.22l-1.98-4.91h-8.43l-1.98,4.91h-2.25l7.1-17.62ZM417.61,330.94l-3.45-8.54-3.45,8.54h6.89Z"/>
  </g>
  <g>
    <path class="cls-2" d="M422.52,320.16h2.27l5.87,15.3h.08l5.87-15.3h2.25l-6.81,17.62h-2.71l-6.81-17.62Z"/>
    <path class="cls-2" d="M440.37,334.94l1.59-1.33c1.02,1.46,2.98,2.4,4.88,2.4,2.69,0,4.49-1.1,4.49-2.85,0-2.22-1.83-2.71-4.57-3.42-3.65-.94-5.74-2.3-5.74-4.99,0-3.08,2.4-4.86,6.19-4.86,2.4,0,4.46.89,5.9,2.45l-1.41,1.51c-1.15-1.25-2.77-1.96-4.46-1.96-2.4,0-3.94.97-3.94,2.77,0,1.65,1.41,2.27,4.2,3.03,3.92,1.07,6.06,2.4,6.06,5.38s-2.69,4.96-6.68,4.96c-2.71,0-5.17-1.2-6.5-3.11ZM443.22,316.19l1.04-1.46,3.03,1.72,3.16-1.72,1.04,1.46-4.2,2.71-4.07-2.71Z"/>
  </g>
  <g>
    <path class="cls-2" d="M463.88,322.12v15.67h-2.14v-15.67h-5.95v-1.96h14.05v1.96h-5.95Z"/>
    <path class="cls-2" d="M472.83,320.16h2.17v17.62h-2.17v-17.62Z"/>
  </g>
  <g>
    <path class="cls-2" d="M478.1,320.16h2.27l5.87,15.3h.08l5.87-15.3h2.25l-6.81,17.62h-2.71l-6.81-17.62Z"/>
    <path class="cls-2" d="M504.76,322.12v15.67h-2.14v-15.67h-5.95v-1.96h14.05v1.96h-5.95Z"/>
  </g>
  <g>
    <path class="cls-2" d="M515.85,327.81h9.29v1.91h-9.29v6.16h10.76v1.91h-12.9v-17.62h12.66v1.91h-10.52v5.74Z"/>
    <path class="cls-2" d="M540.04,327.81h9.29v1.91h-9.29v6.16h10.76v1.91h-12.9v-17.62h12.66v1.91h-10.52v5.74Z"/>
    <path class="cls-2" d="M553.33,320.16h2.27l5.87,15.3h.08l5.87-15.3h2.25l-6.81,17.62h-2.71l-6.81-17.62Z"/>
  </g>
  <g>
    <path class="cls-2" d="M572.67,320.16h6.37c3.71,0,6.11,2.04,6.11,5.14,0,2.85-2.06,4.8-5.27,5.09l5.25,7.39h-2.43l-5.22-7.34h-2.64v7.34h-2.17v-17.62ZM578.99,328.49c2.45,0,4.02-1.1,4.02-3.19s-1.57-3.21-3.99-3.21h-4.18v6.4h4.15Z"/>
    <path class="cls-2" d="M588.39,328.96c0-5.25,3.73-9.06,8.9-9.06s8.9,3.81,8.9,9.06-3.76,9.08-8.93,9.08-8.88-3.81-8.88-9.08ZM603.95,328.96c0-4.07-2.79-7.02-6.66-7.02s-6.68,2.95-6.68,7.02,2.85,7.05,6.68,7.05,6.66-2.98,6.66-7.05Z"/>
  </g>
  <g>
    <path class="cls-2" d="M610.26,320.16h6.19c3.68,0,6.06,2.01,6.06,5.14s-2.4,5.22-6.08,5.22h-4.02v7.26h-2.14v-17.62ZM616.37,328.62c2.45,0,4.02-1.33,4.02-3.34s-1.59-3.21-3.99-3.21h-3.99v6.55h3.97Z"/>
    <path class="cls-2" d="M624.83,334.94l1.59-1.33c1.02,1.46,2.98,2.4,4.88,2.4,2.69,0,4.49-1.1,4.49-2.85,0-2.22-1.83-2.71-4.57-3.42-3.65-.94-5.74-2.3-5.74-4.99,0-3.08,2.4-4.86,6.19-4.86,2.4,0,4.46.89,5.9,2.45l-1.41,1.51c-1.15-1.25-2.77-1.96-4.46-1.96-2.4,0-3.94.97-3.94,2.77,0,1.65,1.41,2.27,4.2,3.03,3.92,1.07,6.06,2.4,6.06,5.38s-2.69,4.96-6.68,4.96c-2.71,0-5.17-1.2-6.5-3.11Z"/>
  </g>
  <g>
    <path class="cls-2" d="M644.04,329.3v8.49h-2.17v-17.62h2.17v8.2l7.26-8.2h2.79l-7.7,8.62,8.07,9.01h-2.77l-7.65-8.49Z"/>
    <path class="cls-2" d="M659.12,320.16l5.09,8.09,5.09-8.09h2.48l-6.5,10.26v7.36h-2.17v-7.36l-6.5-10.26h2.51ZM662.28,317.21l4.83-2.51.97,1.91-5.06,1.98-.73-1.38Z"/>
  </g>
  <g>
    <path class="cls-2" d="M682,320.16h6.19c3.68,0,6.06,2.01,6.06,5.14s-2.4,5.22-6.08,5.22h-4.02v7.26h-2.14v-17.62ZM688.11,328.62c2.45,0,4.02-1.33,4.02-3.34s-1.59-3.21-3.99-3.21h-4v6.55h3.97Z"/>
    <path class="cls-2" d="M701.74,320.16h2.66l7.1,17.62h-2.22l-1.98-4.91h-8.43l-1.98,4.91h-2.25l7.1-17.62ZM706.52,330.94l-3.45-8.54-3.45,8.54h6.89Z"/>
  </g>
  <g>
    <path class="cls-2" d="M714.65,320.16h6.37c3.71,0,6.11,2.04,6.11,5.14,0,2.85-2.06,4.8-5.27,5.09l5.25,7.39h-2.43l-5.22-7.34h-2.64v7.34h-2.17v-17.62ZM720.97,328.49c2.45,0,4.02-1.1,4.02-3.19s-1.57-3.21-3.99-3.21h-4.18v6.4h4.15Z"/>
    <path class="cls-2" d="M731.46,320.16h2.14v15.64h9.14v1.98h-11.28v-17.62Z"/>
  </g>
  <g>
    <path class="cls-2" d="M752.2,320.16h2.66l7.1,17.62h-2.22l-1.98-4.91h-8.43l-1.98,4.91h-2.25l7.1-17.62ZM756.97,330.94l-3.45-8.54-3.45,8.54h6.89Z"/>
    <path class="cls-2" d="M765.12,320.16h2.19l6.32,11.44,6.29-11.44h2.19v17.62h-2.14v-13.5l-5.72,10.34h-1.28l-5.72-10.34v13.5h-2.14v-17.62Z"/>
  </g>
  <g>
    <path class="cls-2" d="M789.24,327.81h9.29v1.91h-9.29v6.16h10.76v1.91h-12.9v-17.62h12.66v1.91h-10.52v5.74Z"/>
    <path class="cls-2" d="M803.57,320.16h2.01l10.7,13.94v-13.94h2.17v17.62h-1.96l-10.81-14.05v14.05h-2.12v-17.62Z"/>
  </g>
  <path class="cls-2" d="M829.56,322.12v15.67h-2.14v-15.67h-5.95v-1.96h14.05v1.96h-5.95Z"/>
</svg>