<?xml version="1.0" encoding="UTF-8"?>
<svg xmlns="http://www.w3.org/2000/svg" viewBox="0 0 1356 400">
  <defs>
    <style>
      .cls-1 {
        fill: #0c4da2;
      }

      .cls-2 {
        fill: #fff;
      }

      .cls-3 {
        fill: #fff200;
      }
    </style>
  </defs>
  <polygon class="cls-1" points="0 0 0 400 1356 400 1356 0 0 0 0 0"/>
  <polygon class="cls-3" points="186.77 1.45 174.2 40.63 132.92 40.36 166.38 64.51 153.44 103.61 186.77 79.22 220.04 103.61 207.1 64.51 240.48 40.36 199.3 40.63 186.77 1.45 186.77 1.45"/>
  <polygon class="cls-3" points="226.68 148.58 214.06 187.72 172.78 187.48 206.29 211.64 193.35 250.69 226.68 226.35 259.91 250.69 247.01 211.64 280.38 187.48 239.2 187.72 226.68 148.58 226.68 148.58"/>
  <polygon class="cls-3" points="187.05 295.67 174.62 335.05 133.34 334.72 166.9 358.83 153.9 397.92 187.05 373.45 220.46 397.92 207.52 358.83 240.99 334.77 199.76 335.05 187.05 295.67 187.05 295.67"/>
  <g>
    <path class="cls-2" d="M382.38,62.85h15.66l14.4,44.55h.09l14.49-44.55h15.57l-21.15,60.75h-17.91l-21.15-60.75Z"/>
    <path class="cls-2" d="M462.3,86.25h26.64v12.87h-26.64v11.61h31.32v12.87h-45.9v-60.75h45.09v12.96h-30.51v10.44Z"/>
  </g>
  <g>
    <path class="cls-2" d="M502.94,62.76h13.59l25.65,35.64v-35.64h14.94v60.84h-13.32l-26.1-36.27v36.27h-14.76v-60.84Z"/>
    <path class="cls-2" d="M568.64,62.76h15.03v60.84h-15.03v-60.84Z"/>
  </g>
  <g>
    <path class="cls-2" d="M621.48,76.53v47.07h-14.94v-47.07h-17.91v-13.77h50.67v13.77h-17.82Z"/>
    <path class="cls-2" d="M659.01,86.25h26.64v12.87h-26.64v11.61h31.32v12.87h-45.9v-60.75h45.09v12.96h-30.51v10.44Z"/>
  </g>
  <path class="cls-2" d="M739.29,62.85h18l22.77,60.75h-15.57l-4.41-12.24h-23.85l-4.41,12.24h-15.3l22.77-60.75ZM748.11,77.97l-7.47,20.88h15.03l-7.47-20.88h-.09Z"/>
  <g>
    <path class="cls-2" d="M803.55,62.85h15.66l14.4,44.55h.09l14.49-44.55h15.57l-21.15,60.75h-17.91l-21.15-60.75Z"/>
    <path class="cls-2" d="M883.47,86.25h26.64v12.87h-26.64v11.61h31.32v12.87h-45.9v-60.75h45.09v12.96h-30.51v10.44Z"/>
  </g>
  <g>
    <path class="cls-2" d="M924.12,62.85h25.38c17.46,0,30.15,12.78,30.15,30.15s-12.69,30.6-30.15,30.6h-25.38v-60.75ZM964.35,93.09c0-9.45-6.57-16.47-15.57-16.47h-9.72v33.3h9.72c8.91,0,15.57-7.11,15.57-16.83Z"/>
    <path class="cls-2" d="M1002.6,86.25h26.64v12.87h-26.64v11.61h31.32v12.87h-45.9v-60.75h45.09v12.96h-30.51v10.44Z"/>
  </g>
  <g>
    <path class="cls-2" d="M1043.19,62.85h25.11c13.95,0,23.04,7.74,23.04,19.26,0,9.09-5.58,15.75-14.58,18.27l15.57,23.22h-17.01l-14.58-22.14h-2.61v22.14h-14.94v-60.75ZM1067.94,89.76c5.13,0,8.46-2.88,8.46-7.38s-3.33-7.2-8.46-7.2h-9.81v14.58h9.81Z"/>
    <path class="cls-2" d="M1114.56,86.25h26.64v12.87h-26.64v11.61h31.32v12.87h-45.9v-60.75h45.09v12.96h-30.51v10.44Z"/>
  </g>
  <g>
    <path class="cls-2" d="M387.87,142.76h14.85v47.16h26.82v13.68h-41.67v-60.84Z"/>
    <path class="cls-2" d="M455.1,142.85h18l22.77,60.75h-15.57l-4.41-12.24h-23.85l-4.41,12.24h-15.3l22.77-60.75ZM463.92,157.97l-7.47,20.88h15.03l-7.47-20.88h-.09Z"/>
  </g>
  <g>
    <path class="cls-2" d="M524.83,142.85h25.38c17.46,0,30.15,12.78,30.15,30.15s-12.69,30.6-30.15,30.6h-25.38v-60.75ZM565.06,173.09c0-9.45-6.57-16.47-15.57-16.47h-9.72v33.3h9.72c8.91,0,15.57-7.11,15.57-16.83Z"/>
    <path class="cls-2" d="M603.31,166.25h26.64v12.87h-26.64v11.61h31.32v12.87h-45.9v-60.75h45.09v12.96h-30.51v10.44Z"/>
  </g>
  <g>
    <path class="cls-2" d="M643.9,142.76h14.67l16.83,30.69,16.83-30.69h14.58v60.84h-14.94v-35.19l-13.95,25.74h-5.04l-14.04-25.74v35.19h-14.94v-60.84Z"/>
    <path class="cls-2" d="M715,173.27c0-18.27,13.23-31.5,31.59-31.5s31.5,13.14,31.5,31.32-13.32,31.59-31.59,31.59-31.5-13.14-31.5-31.41ZM762.7,173.27c0-10.26-6.75-17.73-16.11-17.73s-16.29,7.38-16.29,17.64,7.02,17.73,16.29,17.73,16.11-7.47,16.11-17.64Z"/>
    <path class="cls-2" d="M783.67,173.27c0-18.63,12.78-31.5,30.96-31.5,10.62,0,19.71,4.95,25.11,13.05l-10.62,8.19c-3.24-4.77-8.19-7.47-14.13-7.47-9.36,0-16.11,6.75-16.11,17.64s6.75,17.64,16.11,17.64c6.03,0,11.25-2.7,14.4-7.83l10.53,8.55c-5.13,7.83-14.13,13.14-25.29,13.14-17.91,0-30.96-12.78-30.96-31.41Z"/>
    <path class="cls-2" d="M846.49,142.85h25.11c13.95,0,23.04,7.74,23.04,19.26,0,9.09-5.58,15.75-14.58,18.27l15.57,23.22h-17.01l-14.58-22.14h-2.61v22.14h-14.94v-60.75ZM871.24,169.76c5.13,0,8.46-2.88,8.46-7.38s-3.33-7.2-8.46-7.2h-9.81v14.58h9.81Z"/>
  </g>
  <g>
    <path class="cls-2" d="M922.04,142.85h18l22.77,60.75h-15.57l-4.41-12.24h-23.85l-4.41,12.24h-15.3l22.77-60.75ZM930.86,157.97l-7.47,20.88h15.03l-7.47-20.88h-.09Z"/>
    <path class="cls-2" d="M966.41,194.06l29.07-38.52h-28.17v-12.78h47.88v9.54l-28.98,38.61h29.52v12.69h-49.32v-9.54Z"/>
  </g>
  <g>
    <path class="cls-2" d="M1024.09,142.76h15.03v60.84h-15.03v-60.84Z"/>
    <path class="cls-2" d="M1066.93,142.85h18l22.77,60.75h-15.57l-4.41-12.24h-23.85l-4.41,12.24h-15.3l22.77-60.75ZM1075.75,157.97l-7.47,20.88h15.03l-7.47-20.88h-.09Z"/>
  </g>
  <g>
    <path class="cls-2" d="M387.87,222.76h15.03v60.84h-15.03v-60.84Z"/>
    <path class="cls-2" d="M414.24,222.76h13.59l25.65,35.64v-35.64h14.94v60.84h-13.32l-26.1-36.27v36.27h-14.76v-60.84Z"/>
  </g>
  <g>
    <path class="cls-2" d="M520.19,222.85h18l22.77,60.75h-15.57l-4.41-12.24h-23.85l-4.41,12.24h-15.3l22.77-60.75ZM529.01,237.97l-7.47,20.88h15.03l-7.47-20.88h-.09Z"/>
    <path class="cls-2" d="M564.56,274.06l29.07-38.52h-28.17v-12.78h47.88v9.54l-28.98,38.61h29.52v12.69h-49.32v-9.54Z"/>
  </g>
  <g>
    <path class="cls-2" d="M622.25,222.76h15.03v60.84h-15.03v-60.84Z"/>
    <path class="cls-2" d="M645.92,253.27c0-18.27,13.23-31.5,31.59-31.5s31.5,13.14,31.5,31.32-13.32,31.59-31.59,31.59-31.5-13.14-31.5-31.41ZM693.62,253.27c0-10.26-6.75-17.73-16.11-17.73s-16.29,7.38-16.29,17.64,7.02,17.73,16.29,17.73,16.11-7.47,16.11-17.64Z"/>
    <path class="cls-2" d="M717.65,222.76h13.59l25.65,35.64v-35.64h14.94v60.84h-13.32l-26.1-36.27v36.27h-14.76v-60.84Z"/>
    <path class="cls-2" d="M797.66,246.25h26.64v12.87h-26.64v11.61h31.32v12.87h-45.9v-60.75h45.09v12.96h-30.51v10.44Z"/>
  </g>
  <g>
    <path class="cls-2" d="M386.07,321.32h2.27l5.87,15.3h.08l5.87-15.3h2.25l-6.81,17.62h-2.71l-6.81-17.62Z"/>
    <path class="cls-2" d="M405.67,321.32h2.17v17.62h-2.17v-17.62Z"/>
    <path class="cls-2" d="M411.34,336.1l1.59-1.33c1.02,1.46,2.98,2.4,4.88,2.4,2.69,0,4.49-1.1,4.49-2.85,0-2.22-1.83-2.71-4.57-3.42-3.65-.94-5.74-2.3-5.74-4.99,0-3.08,2.4-4.86,6.19-4.86,2.4,0,4.46.89,5.9,2.45l-1.41,1.51c-1.15-1.25-2.77-1.96-4.46-1.96-2.4,0-3.94.97-3.94,2.77,0,1.65,1.41,2.27,4.2,3.03,3.92,1.07,6.06,2.4,6.06,5.38s-2.69,4.96-6.68,4.96c-2.71,0-5.17-1.2-6.5-3.11Z"/>
    <path class="cls-2" d="M428.31,321.32h2.17v17.62h-2.17v-17.62Z"/>
  </g>
  <g>
    <path class="cls-2" d="M441.59,323.28v15.67h-2.14v-15.67h-5.95v-1.96h14.05v1.96h-5.95Z"/>
    <path class="cls-2" d="M453.78,321.32h2.66l7.1,17.62h-2.22l-1.98-4.91h-8.43l-1.98,4.91h-2.25l7.1-17.62ZM458.56,332.1l-3.45-8.54-3.45,8.54h6.89Z"/>
  </g>
  <g>
    <path class="cls-2" d="M470.81,323.28v15.67h-2.14v-15.67h-5.95v-1.96h14.05v1.96h-5.95Z"/>
    <path class="cls-2" d="M481.93,328.97h9.29v1.91h-9.29v6.16h10.76v1.91h-12.9v-17.62h12.66v1.91h-10.52v5.74Z"/>
    <path class="cls-2" d="M503.77,321.32h2.17v17.62h-2.17v-17.62Z"/>
    <path class="cls-2" d="M510.87,321.32h2.14v15.64h9.14v1.98h-11.28v-17.62Z"/>
  </g>
  <g>
    <path class="cls-2" d="M532.52,321.32h6.19c3.68,0,6.06,2.01,6.06,5.14s-2.4,5.22-6.08,5.22h-4.02v7.26h-2.14v-17.62ZM538.63,329.78c2.45,0,4.02-1.33,4.02-3.34s-1.59-3.21-3.99-3.21h-3.99v6.55h3.97Z"/>
    <path class="cls-2" d="M552.25,321.32h2.66l7.1,17.62h-2.22l-1.98-4.91h-8.43l-1.98,4.91h-2.25l7.1-17.62ZM557.03,332.1l-3.45-8.54-3.45,8.54h6.89Z"/>
  </g>
  <g>
    <path class="cls-2" d="M565.17,321.32h6.37c3.71,0,6.11,2.04,6.11,5.14,0,2.85-2.06,4.8-5.27,5.09l5.25,7.39h-2.43l-5.22-7.34h-2.64v7.34h-2.17v-17.62ZM571.49,329.65c2.45,0,4.02-1.1,4.02-3.19s-1.57-3.21-3.99-3.21h-4.18v6.4h4.15Z"/>
    <path class="cls-2" d="M581.98,321.32h2.14v15.64h9.14v1.98h-11.28v-17.62Z"/>
  </g>
  <g>
    <path class="cls-2" d="M602.7,321.32h2.66l7.1,17.62h-2.22l-1.98-4.91h-8.43l-1.98,4.91h-2.25l7.1-17.62ZM607.48,332.1l-3.45-8.54-3.45,8.54h6.89Z"/>
    <path class="cls-2" d="M615.62,321.32h2.19l6.32,11.44,6.29-11.44h2.19v17.62h-2.14v-13.5l-5.72,10.34h-1.28l-5.72-10.34v13.5h-2.14v-17.62Z"/>
  </g>
  <g>
    <path class="cls-2" d="M639.75,328.97h9.29v1.91h-9.29v6.16h10.76v1.91h-12.9v-17.62h12.66v1.91h-10.52v5.74Z"/>
    <path class="cls-2" d="M654.08,321.32h2.01l10.7,13.94v-13.94h2.17v17.62h-1.96l-10.81-14.05v14.05h-2.11v-17.62Z"/>
  </g>
  <g>
    <path class="cls-2" d="M680.07,323.28v15.67h-2.14v-15.67h-5.95v-1.96h14.05v1.96h-5.95Z"/>
    <path class="cls-2" d="M687.35,330.12c0-5.25,3.73-9.06,8.9-9.06s8.9,3.81,8.9,9.06-3.76,9.08-8.93,9.08-8.88-3.81-8.88-9.08ZM702.91,330.12c0-4.07-2.79-7.02-6.66-7.02s-6.68,2.95-6.68,7.02,2.85,7.05,6.68,7.05,6.66-2.98,6.66-7.05Z"/>
  </g>
  <g>
    <path class="cls-2" d="M718.42,328.97h9.29v1.91h-9.29v6.16h10.76v1.91h-12.9v-17.62h12.66v1.91h-10.52v5.74Z"/>
    <path class="cls-2" d="M732.44,332.03v-10.7h2.14v10.65c0,3.26,1.91,5.14,4.96,5.14s4.93-1.91,4.93-5.14v-10.65h2.14v10.7c0,4.44-2.72,7.15-7.08,7.15s-7.1-2.72-7.1-7.15Z"/>
  </g>
  <g>
    <path class="cls-2" d="M751.42,321.32h6.37c3.71,0,6.11,2.04,6.11,5.14,0,2.85-2.06,4.8-5.27,5.09l5.25,7.39h-2.43l-5.22-7.34h-2.64v7.34h-2.17v-17.62ZM757.74,329.65c2.45,0,4.02-1.1,4.02-3.19s-1.57-3.21-3.99-3.21h-4.18v6.4h4.15Z"/>
    <path class="cls-2" d="M767.14,330.12c0-5.25,3.73-9.06,8.9-9.06s8.9,3.81,8.9,9.06-3.76,9.08-8.93,9.08-8.88-3.81-8.88-9.08ZM782.7,330.12c0-4.07-2.79-7.02-6.66-7.02s-6.68,2.95-6.68,7.02,2.85,7.05,6.68,7.05,6.66-2.98,6.66-7.05Z"/>
  </g>
  <g>
    <path class="cls-2" d="M789.02,321.32h6.19c3.68,0,6.06,2.01,6.06,5.14s-2.4,5.22-6.08,5.22h-4.02v7.26h-2.14v-17.62ZM795.13,329.78c2.45,0,4.02-1.33,4.02-3.34s-1.59-3.21-3.99-3.21h-4v6.55h3.97Z"/>
    <path class="cls-2" d="M806.74,328.97h9.29v1.91h-9.29v6.16h10.76v1.91h-12.9v-17.62h12.66v1.91h-10.52v5.74Z"/>
  </g>
  <path class="cls-2" d="M819.83,330.12c0-5.25,3.73-9.06,8.9-9.06s8.9,3.81,8.9,9.06-3.76,9.08-8.93,9.08-8.88-3.81-8.88-9.08ZM835.39,330.12c0-4.07-2.79-7.02-6.66-7.02s-6.68,2.95-6.68,7.02,2.85,7.05,6.68,7.05,6.66-2.98,6.66-7.05Z"/>
</svg>