<?xml version="1.0" encoding="UTF-8"?>
<svg xmlns="http://www.w3.org/2000/svg" viewBox="0 0 1356 400">
  <defs>
    <style>
      .cls-1 {
        fill: #0c4da2;
      }

      .cls-2 {
        fill: #fff;
      }

      .cls-3 {
        fill: #fff200;
      }
    </style>
  </defs>
  <polygon class="cls-1" points="0 0 0 400 1356 400 1356 0 0 0 0 0"/>
  <polygon class="cls-3" points="186.77 1.45 174.2 40.63 132.92 40.36 166.38 64.51 153.44 103.61 186.77 79.22 220.04 103.61 207.1 64.51 240.48 40.36 199.3 40.63 186.77 1.45 186.77 1.45"/>
  <polygon class="cls-3" points="226.68 148.58 214.06 187.72 172.78 187.48 206.29 211.64 193.35 250.69 226.68 226.35 259.91 250.69 247.01 211.64 280.38 187.48 239.2 187.72 226.68 148.58 226.68 148.58"/>
  <polygon class="cls-3" points="187.05 295.67 174.62 335.05 133.34 334.72 166.9 358.83 153.9 397.92 187.05 373.45 220.46 397.92 207.52 358.83 240.99 334.77 199.76 335.05 187.05 295.67 187.05 295.67"/>
  <g>
    <path class="cls-2" d="M400.29,109.54v24.4h-13.15v-53.47h13.15v23.45l17.03-23.45h15.29l-19.49,26.22,20.2,27.25h-15.29l-17.74-24.4Z"/>
    <path class="cls-2" d="M432.77,107.24c0-16.08,11.64-27.72,27.8-27.72s27.72,11.56,27.72,27.56-11.72,27.8-27.8,27.8-27.72-11.56-27.72-27.64ZM474.75,107.24c0-9.03-5.94-15.6-14.18-15.6s-14.34,6.5-14.34,15.52,6.18,15.6,14.34,15.6,14.18-6.57,14.18-15.52Z"/>
  </g>
  <g>
    <path class="cls-2" d="M495.67,80.39h12.91l14.81,27.01,14.81-27.01h12.83v53.54h-13.15v-30.97l-12.28,22.65h-4.44l-12.36-22.65v30.97h-13.15v-53.54Z"/>
    <path class="cls-2" d="M561.41,80.39h12.91l14.81,27.01,14.81-27.01h12.83v53.54h-13.15v-30.97l-12.28,22.65h-4.44l-12.36-22.65v30.97h-13.15v-53.54Z"/>
    <path class="cls-2" d="M639.99,101.07h23.45v11.33h-23.45v10.22h27.56v11.33h-40.4v-53.47h39.68v11.41h-26.85v9.19Z"/>
    <path class="cls-2" d="M675.48,80.39h11.96l22.57,31.37v-31.37h13.15v53.54h-11.72l-22.97-31.92v31.92h-12.99v-53.54Z"/>
    <path class="cls-2" d="M752.31,113.03v-32.63h13.15v32.63c0,5.86,3.8,9.58,9.66,9.58s9.66-3.72,9.66-9.58v-32.63h12.99v32.63c0,13.23-8.95,21.78-22.65,21.78s-22.81-8.55-22.81-21.78Z"/>
    <path class="cls-2" d="M807.44,80.39h11.96l22.57,31.37v-31.37h13.15v53.54h-11.72l-22.97-31.92v31.92h-12.99v-53.54Z"/>
    <path class="cls-2" d="M865.5,80.47h22.34c15.37,0,26.54,11.25,26.54,26.54s-11.17,26.93-26.54,26.93h-22.34v-53.47ZM900.91,107.09c0-8.32-5.78-14.5-13.7-14.5h-8.55v29.31h8.55c7.84,0,13.7-6.26,13.7-14.81Z"/>
    <path class="cls-2" d="M954.77,101.07h23.45v11.33h-23.45v10.22h27.56v11.33h-40.4v-53.47h39.68v11.41h-26.85v9.19Z"/>
    <path class="cls-2" d="M990.26,80.47h22.1c12.28,0,20.28,6.81,20.28,16.95,0,8-4.91,13.86-12.83,16.08l13.7,20.44h-14.97l-12.83-19.49h-2.3v19.49h-13.15v-53.47ZM1012.04,104.16c4.52,0,7.45-2.53,7.45-6.5s-2.93-6.34-7.45-6.34h-8.63v12.83h8.63Z"/>
  </g>
  <g>
    <path class="cls-2" d="M1041.03,80.39h13.07v41.51h23.6v12.04h-36.67v-53.54Z"/>
    <path class="cls-2" d="M1095.13,101.07h23.45v11.33h-23.45v10.22h27.56v11.33h-40.4v-53.47h39.68v11.41h-26.85v9.19Z"/>
  </g>
  <g>
    <path class="cls-2" d="M1130.88,80.47h24.16c11.25,0,18.3,4.99,18.3,13.54,0,5.62-2.93,10.14-8.24,12.12,6.1,1.74,10.22,6.34,10.22,13.15,0,9.11-7.29,14.65-19.64,14.65h-24.79v-53.47ZM1153.46,101.94c4.44,0,6.97-1.98,6.97-5.39s-2.61-5.47-7.13-5.47h-9.74v10.85h9.9ZM1154.57,123.32c5.07,0,7.76-2.14,7.76-5.78s-2.77-5.7-7.68-5.7h-11.09v11.49h11.01Z"/>
    <path class="cls-2" d="M1195.92,101.07h23.45v11.33h-23.45v10.22h27.56v11.33h-40.4v-53.47h39.68v11.41h-26.85v9.19Z"/>
    <path class="cls-2" d="M1231.4,80.39h11.96l22.57,31.37v-31.37h13.15v53.54h-11.72l-22.97-31.92v31.92h-12.99v-53.54Z"/>
  </g>
  <g>
    <path class="cls-2" d="M383.97,198.14l7.29-9.03c3.17,3.64,8.48,6.02,13.7,6.02,4.36,0,8-1.58,8-5.15,0-4.12-3.49-5.31-9.5-6.57-11.33-2.38-17.82-6.81-17.82-16.08,0-10.61,9.35-16.4,20.99-16.4,8,0,14.57,2.38,19.33,7.13l-7.05,8.79c-3.96-3.17-8-4.83-12.12-4.83s-7.29,1.43-7.29,4.67c0,3.01,2.53,4.44,9.11,5.94,11.88,2.61,18.3,7.76,18.3,17.27,0,10.61-9.43,16.4-22.18,16.4-8.63,0-16.24-3.41-20.75-8.16Z"/>
    <path class="cls-2" d="M433.4,151.8h13.23v53.54h-13.23v-53.54Z"/>
  </g>
  <path class="cls-2" d="M469.43,172.47h23.45v11.33h-23.45v10.22h27.56v11.33h-40.4v-53.47h39.68v11.41h-26.85v9.19Z"/>
  <g>
    <path class="cls-2" d="M524.88,151.88h22.34c15.37,0,26.54,11.25,26.54,26.54s-11.17,26.93-26.54,26.93h-22.34v-53.47ZM560.28,178.49c0-8.32-5.78-14.5-13.7-14.5h-8.55v29.31h8.55c7.84,0,13.7-6.26,13.7-14.81Z"/>
    <path class="cls-2" d="M593.95,172.47h23.45v11.33h-23.45v10.22h27.56v11.33h-40.4v-53.47h39.68v11.41h-26.85v9.19Z"/>
  </g>
  <g>
    <path class="cls-2" d="M629.68,151.8h12.91l14.81,27.01,14.81-27.01h12.83v53.54h-13.15v-30.97l-12.28,22.65h-4.44l-12.36-22.65v30.97h-13.15v-53.54Z"/>
    <path class="cls-2" d="M692.42,178.65c0-16.08,11.64-27.72,27.8-27.72s27.72,11.56,27.72,27.56-11.72,27.8-27.8,27.8-27.72-11.56-27.72-27.64ZM734.4,178.65c0-9.03-5.94-15.6-14.18-15.6s-14.34,6.5-14.34,15.52,6.18,15.6,14.34,15.6,14.18-6.57,14.18-15.52Z"/>
    <path class="cls-2" d="M768.46,180.95v24.4h-13.15v-53.47h13.15v23.45l17.03-23.45h15.29l-19.49,26.22,20.2,27.25h-15.29l-17.74-24.4Z"/>
  </g>
  <g>
    <path class="cls-2" d="M806.3,151.88h22.1c12.28,0,20.28,6.81,20.28,16.95,0,8-4.91,13.86-12.83,16.08l13.7,20.44h-14.97l-12.83-19.49h-2.3v19.49h-13.15v-53.47ZM828.08,175.56c4.52,0,7.45-2.53,7.45-6.5s-2.93-6.34-7.45-6.34h-8.63v12.83h8.63Z"/>
    <path class="cls-2" d="M872.84,151.88h15.84l20.04,53.47h-13.7l-3.88-10.77h-20.99l-3.88,10.77h-13.46l20.04-53.47ZM880.6,165.19l-6.57,18.38h13.23l-6.57-18.38h-.08Z"/>
  </g>
  <g>
    <path class="cls-2" d="M931.67,163.92v41.43h-13.15v-41.43h-15.76v-12.12h44.59v12.12h-15.68Z"/>
    <path class="cls-2" d="M951.87,151.8h13.23v53.54h-13.23v-53.54Z"/>
  </g>
  <path class="cls-2" d="M987.92,172.47h23.45v11.33h-23.45v10.22h27.56v11.33h-40.4v-53.47h39.68v11.41h-26.85v9.19Z"/>
  <g>
    <path class="cls-2" d="M387.14,223.21h13.23v53.54h-13.23v-53.54Z"/>
    <path class="cls-2" d="M410.04,223.21h11.96l22.57,31.37v-31.37h13.15v53.54h-11.72l-22.97-31.92v31.92h-12.99v-53.54Z"/>
    <path class="cls-2" d="M501.37,223.28h15.84l20.04,53.47h-13.7l-3.88-10.77h-20.99l-3.88,10.77h-13.47l20.04-53.47ZM509.13,236.59l-6.57,18.38h13.23l-6.57-18.38h-.08Z"/>
    <path class="cls-2" d="M555.23,252.35v24.4h-13.15v-53.47h13.15v23.45l17.03-23.45h15.29l-19.49,26.22,20.2,27.25h-15.29l-17.74-24.4Z"/>
  </g>
  <g>
    <path class="cls-2" d="M621.31,235.32v41.43h-13.15v-41.43h-15.76v-12.12h44.59v12.12h-15.68Z"/>
    <path class="cls-2" d="M641.59,223.21h13.23v53.54h-13.23v-53.54Z"/>
    <path class="cls-2" d="M662.02,250.06c0-16.08,11.64-27.72,27.8-27.72s27.72,11.56,27.72,27.56-11.72,27.8-27.8,27.8-27.72-11.56-27.72-27.64ZM704,250.06c0-9.03-5.94-15.6-14.18-15.6s-14.34,6.5-14.34,15.52,6.18,15.6,14.34,15.6,14.18-6.57,14.18-15.53Z"/>
    <path class="cls-2" d="M724.76,223.21h11.96l22.57,31.37v-31.37h13.15v53.54h-11.72l-22.97-31.92v31.92h-12.99v-53.54Z"/>
  </g>
  <g>
    <path class="cls-2" d="M388.37,305.81h7.6c3.87,0,6.32,1.83,6.32,4.92,0,2.21-1.08,3.99-3,4.63,2.39.5,3.87,2.36,3.87,4.92,0,3.17-2.59,5.18-6.85,5.18h-7.95v-19.66ZM395.65,314.46c2.83,0,4.31-1.19,4.31-3.26,0-2.18-1.57-3.29-4.46-3.29h-4.75v6.55h4.89ZM395.94,323.34c3.23,0,4.84-1.22,4.84-3.38s-1.72-3.41-4.81-3.41h-5.21v6.79h5.18Z"/>
    <path class="cls-2" d="M410.18,314.34h10.37v2.13h-10.37v6.88h12v2.13h-14.39v-19.66h14.13v2.13h-11.74v6.41Z"/>
    <path class="cls-2" d="M424.94,322.29l1.78-1.49c1.14,1.63,3.32,2.68,5.45,2.68,3,0,5.01-1.22,5.01-3.18,0-2.48-2.04-3.03-5.1-3.82-4.08-1.05-6.41-2.56-6.41-5.56,0-3.44,2.68-5.42,6.9-5.42,2.68,0,4.98.99,6.58,2.74l-1.57,1.69c-1.28-1.4-3.09-2.19-4.98-2.19-2.68,0-4.4,1.08-4.4,3.09,0,1.83,1.57,2.53,4.69,3.38,4.37,1.19,6.76,2.68,6.76,6s-3,5.53-7.46,5.53c-3.03,0-5.77-1.34-7.25-3.47Z"/>
    <path class="cls-2" d="M443.43,317.75v-11.94h2.39v11.88c0,3.64,2.13,5.74,5.53,5.74s5.51-2.13,5.51-5.74v-11.88h2.39v11.94c0,4.95-3.03,7.98-7.89,7.98s-7.92-3.03-7.92-7.98Z"/>
    <path class="cls-2" d="M463.32,315.62c0-5.85,4.08-10.11,9.73-10.11,3.79,0,7.08,2.04,8.59,5.21l-2.21.99c-1.17-2.45-3.61-3.93-6.38-3.93-4.22,0-7.25,3.2-7.25,7.81s3.06,7.87,7.25,7.87c2.74,0,5.39-1.54,6.44-4.08l2.18,1.05c-1.31,3.03-4.66,5.33-8.62,5.33-5.62,0-9.73-4.25-9.73-10.14Z"/>
    <path class="cls-2" d="M486.15,325.47v-19.66h2.39v8.71h11.24v-8.71h2.39v19.66h-2.39v-8.8h-11.24v8.8h-2.39Z"/>
  </g>
  <g>
    <path class="cls-2" d="M510.4,314.34h10.37v2.13h-10.37v6.88h12v2.13h-14.39v-19.66h14.13v2.13h-11.74v6.41Z"/>
    <path class="cls-2" d="M526.36,305.81h2.24l11.94,15.55v-15.55h2.42v19.66h-2.18l-12.06-15.67v15.67h-2.36v-19.66Z"/>
  </g>
  <g>
    <path class="cls-2" d="M554.81,322.29l1.78-1.49c1.14,1.63,3.32,2.68,5.45,2.68,3,0,5.01-1.22,5.01-3.18,0-2.48-2.04-3.03-5.1-3.82-4.08-1.05-6.41-2.56-6.41-5.56,0-3.44,2.68-5.42,6.9-5.42,2.68,0,4.98.99,6.58,2.74l-1.57,1.69c-1.28-1.4-3.09-2.19-4.98-2.19-2.68,0-4.4,1.08-4.4,3.09,0,1.83,1.57,2.53,4.69,3.38,4.37,1.19,6.76,2.68,6.76,6s-3,5.53-7.46,5.53c-3.03,0-5.77-1.34-7.25-3.47Z"/>
    <path class="cls-2" d="M573.83,305.81h2.42v19.66h-2.42v-19.66Z"/>
    <path class="cls-2" d="M584.17,314.34h10.37v2.13h-10.37v6.88h12v2.13h-14.39v-19.66h14.13v2.13h-11.74v6.41Z"/>
  </g>
  <g>
    <path class="cls-2" d="M608.47,305.81h7.49c5.56,0,9.61,4.14,9.61,9.79s-4.05,9.88-9.61,9.88h-7.49v-19.66ZM623.1,315.62c0-4.4-3.06-7.57-7.25-7.57h-4.98v15.18h4.98c4.17,0,7.25-3.17,7.25-7.6Z"/>
    <path class="cls-2" d="M635.06,305.81h2.97l7.92,19.66h-2.48l-2.21-5.48h-9.41l-2.21,5.48h-2.51l7.92-19.66ZM640.39,317.84l-3.85-9.53-3.85,9.53h7.69Z"/>
  </g>
  <path class="cls-2" d="M648.14,322.29l1.78-1.49c1.14,1.63,3.32,2.68,5.45,2.68,3,0,5.01-1.22,5.01-3.18,0-2.48-2.04-3.03-5.1-3.82-4.08-1.05-6.41-2.56-6.41-5.56,0-3.44,2.68-5.42,6.9-5.42,2.68,0,4.98.99,6.58,2.74l-1.57,1.69c-1.28-1.4-3.09-2.19-4.98-2.19-2.68,0-4.4,1.08-4.4,3.09,0,1.83,1.57,2.53,4.69,3.38,4.37,1.19,6.76,2.68,6.76,6s-3,5.53-7.46,5.53c-3.03,0-5.77-1.34-7.25-3.47Z"/>
  <g>
    <path class="cls-2" d="M677.38,314.34h10.37v2.13h-10.37v6.88h12v2.13h-14.39v-19.66h14.13v2.13h-11.74v6.41Z"/>
    <path class="cls-2" d="M692.99,317.75v-11.94h2.39v11.88c0,3.64,2.13,5.74,5.53,5.74s5.5-2.13,5.5-5.74v-11.88h2.39v11.94c0,4.95-3.03,7.98-7.89,7.98s-7.92-3.03-7.92-7.98Z"/>
  </g>
  <g>
    <path class="cls-2" d="M714.14,305.81h7.11c4.14,0,6.82,2.27,6.82,5.74,0,3.17-2.3,5.36-5.88,5.68l5.86,8.24h-2.71l-5.83-8.19h-2.94v8.19h-2.42v-19.66ZM721.19,315.1c2.74,0,4.49-1.22,4.49-3.55s-1.75-3.58-4.46-3.58h-4.66v7.14h4.63Z"/>
    <path class="cls-2" d="M731.64,315.62c0-5.85,4.17-10.11,9.93-10.11s9.93,4.25,9.93,10.11-4.19,10.14-9.96,10.14-9.9-4.25-9.9-10.14ZM749,315.62c0-4.54-3.12-7.84-7.43-7.84s-7.46,3.29-7.46,7.84,3.17,7.87,7.46,7.87,7.43-3.32,7.43-7.87Z"/>
  </g>
  <g>
    <path class="cls-2" d="M756.01,305.81h6.9c4.11,0,6.76,2.24,6.76,5.74s-2.68,5.83-6.79,5.83h-4.49v8.1h-2.39v-19.66ZM762.82,315.24c2.74,0,4.49-1.49,4.49-3.73s-1.78-3.58-4.46-3.58h-4.46v7.31h4.43Z"/>
    <path class="cls-2" d="M777.99,305.81h2.97l7.92,19.66h-2.48l-2.21-5.48h-9.41l-2.21,5.48h-2.5l7.92-19.66ZM775.34,302.28c0-.84.64-1.49,1.49-1.49s1.51.64,1.51,1.49-.67,1.51-1.51,1.51-1.49-.64-1.49-1.51ZM783.32,317.84l-3.84-9.53-3.84,9.53h7.69ZM780.67,302.28c0-.84.64-1.49,1.49-1.49s1.54.64,1.54,1.49-.67,1.51-1.54,1.51-1.49-.64-1.49-1.51Z"/>
  </g>
  <g>
    <path class="cls-2" d="M792.36,305.81h2.42v19.66h-2.42v-19.66Z"/>
    <path class="cls-2" d="M798.71,322.29l1.78-1.49c1.14,1.63,3.32,2.68,5.45,2.68,3,0,5.01-1.22,5.01-3.18,0-2.48-2.04-3.03-5.1-3.82-4.08-1.05-6.41-2.56-6.41-5.56,0-3.44,2.68-5.42,6.9-5.42,2.68,0,4.98.99,6.58,2.74l-1.57,1.69c-1.28-1.4-3.09-2.19-4.98-2.19-2.68,0-4.4,1.08-4.4,3.09,0,1.83,1.57,2.53,4.69,3.38,4.37,1.19,6.76,2.68,6.76,6s-3,5.53-7.46,5.53c-3.03,0-5.77-1.34-7.25-3.47Z"/>
  </g>
  <g>
    <path class="cls-2" d="M816.49,315.62c0-5.85,4.08-10.11,9.73-10.11,3.79,0,7.08,2.04,8.59,5.21l-2.21.99c-1.17-2.45-3.61-3.93-6.38-3.93-4.22,0-7.25,3.2-7.25,7.81s3.06,7.87,7.25,7.87c2.74,0,5.39-1.54,6.44-4.08l2.18,1.05c-1.31,3.03-4.66,5.33-8.62,5.33-5.62,0-9.73-4.25-9.73-10.14Z"/>
    <path class="cls-2" d="M839.17,325.47v-19.66h2.39v8.71h11.24v-8.71h2.39v19.66h-2.39v-8.8h-11.24v8.8h-2.39Z"/>
  </g>
  <path class="cls-2" d="M863.13,314.34h10.37v2.13h-10.37v6.88h12v2.13h-14.39v-19.66h14.13v2.13h-11.74v6.41Z"/>
  <g>
    <path class="cls-2" d="M887.5,305.81h6.9c4.11,0,6.76,2.24,6.76,5.74s-2.68,5.83-6.79,5.83h-4.49v8.1h-2.39v-19.66ZM894.31,315.24c2.74,0,4.49-1.49,4.49-3.73s-1.78-3.58-4.46-3.58h-4.46v7.31h4.43Z"/>
    <path class="cls-2" d="M909.49,305.81h2.97l7.92,19.66h-2.48l-2.21-5.48h-9.41l-2.21,5.48h-2.5l7.92-19.66ZM914.82,317.84l-3.84-9.53-3.84,9.53h7.69Z"/>
  </g>
  <g>
    <path class="cls-2" d="M923.86,305.81h7.11c4.14,0,6.82,2.27,6.82,5.74,0,3.17-2.3,5.36-5.88,5.68l5.86,8.24h-2.71l-5.83-8.19h-2.94v8.19h-2.42v-19.66ZM930.91,315.1c2.74,0,4.49-1.22,4.49-3.55s-1.75-3.58-4.46-3.58h-4.66v7.14h4.63Z"/>
    <path class="cls-2" d="M942.58,305.81h2.39v17.45h10.2v2.21h-12.58v-19.66Z"/>
  </g>
  <g>
    <path class="cls-2" d="M965.68,305.81h2.97l7.92,19.66h-2.48l-2.21-5.48h-9.41l-2.21,5.48h-2.5l7.92-19.66ZM971.01,317.84l-3.84-9.53-3.84,9.53h7.69Z"/>
    <path class="cls-2" d="M980.06,305.81h2.45l7.05,12.76,7.02-12.76h2.45v19.66h-2.39v-15.06l-6.38,11.54h-1.43l-6.38-11.54v15.06h-2.39v-19.66Z"/>
  </g>
  <g>
    <path class="cls-2" d="M1006.95,314.34h10.37v2.13h-10.37v6.88h12v2.13h-14.39v-19.66h14.13v2.13h-11.74v6.41Z"/>
    <path class="cls-2" d="M1022.91,305.81h2.24l11.94,15.55v-15.55h2.42v19.66h-2.18l-12.06-15.67v15.67h-2.36v-19.66Z"/>
  </g>
  <path class="cls-2" d="M1051.86,307.99v17.48h-2.39v-17.48h-6.64v-2.18h15.67v2.18h-6.64Z"/>
</svg>