<?xml version="1.0" encoding="UTF-8"?>
<svg xmlns="http://www.w3.org/2000/svg" viewBox="0 0 1356 400">
  <defs>
    <style>
      .cls-1 {
        fill: #0c4da2;
      }

      .cls-2 {
        fill: #fff;
      }

      .cls-3 {
        fill: #fff200;
      }
    </style>
  </defs>
  <polygon class="cls-1" points="0 0 0 400 1356 400 1356 0 0 0 0 0"/>
  <polygon class="cls-3" points="186.77 1.45 174.2 40.63 132.92 40.36 166.38 64.51 153.44 103.61 186.77 79.22 220.04 103.61 207.1 64.51 240.48 40.36 199.3 40.63 186.77 1.45 186.77 1.45"/>
  <polygon class="cls-3" points="226.68 148.58 214.06 187.72 172.78 187.48 206.29 211.64 193.35 250.69 226.68 226.35 259.91 250.69 247.01 211.64 280.38 187.48 239.2 187.72 226.68 148.58 226.68 148.58"/>
  <polygon class="cls-3" points="187.05 295.67 174.62 335.05 133.34 334.72 166.9 358.83 153.9 397.92 187.05 373.45 220.46 397.92 207.52 358.83 240.99 334.77 199.76 335.05 187.05 295.67 187.05 295.67"/>
  <g>
    <path class="cls-2" d="M387.94,62.92h25.66c17.65,0,30.49,12.92,30.49,30.49s-12.83,30.94-30.49,30.94h-25.66v-61.43ZM428.61,93.49c0-9.56-6.64-16.65-15.74-16.65h-9.83v33.67h9.83c9.01,0,15.74-7.19,15.74-17.02Z"/>
    <path class="cls-2" d="M449.45,93.68c0-18.47,13.38-31.85,31.94-31.85s31.85,13.29,31.85,31.67-13.47,31.94-31.94,31.94-31.85-13.29-31.85-31.76ZM497.68,93.68c0-10.37-6.83-17.93-16.29-17.93s-16.47,7.46-16.47,17.84,7.1,17.93,16.47,17.93,16.29-7.55,16.29-17.84Z"/>
  </g>
  <g>
    <path class="cls-2" d="M516.6,114.7l29.39-38.95h-28.48v-12.92h48.41v9.65l-29.3,39.04h29.85v12.83h-49.87v-9.65ZM524.88,50.18l3.46-7.28,13.01,5.37,13.29-5.37,3.46,7.28-16.74,9.46-16.47-9.46Z"/>
    <path class="cls-2" d="M574.93,62.83h15.2v61.52h-15.2v-61.52Z"/>
  </g>
  <g>
    <path class="cls-2" d="M595.24,62.92h15.83l14.56,45.05h.09l14.65-45.05h15.74l-21.39,61.43h-18.11l-21.39-61.43Z"/>
    <path class="cls-2" d="M661.3,62.83h15.2v61.52h-15.2v-61.52Z"/>
    <path class="cls-2" d="M714.81,76.75v47.59h-15.11v-47.59h-18.11v-13.92h51.23v13.92h-18.02Z"/>
    <path class="cls-2" d="M752.67,86.58h26.94v13.01h-26.94v11.74h31.67v13.01h-46.41v-61.43h45.59v13.1h-30.85v10.56Z"/>
  </g>
  <g>
    <path class="cls-2" d="M387.94,142.92h25.66c17.65,0,30.49,12.92,30.49,30.49s-12.83,30.94-30.49,30.94h-25.66v-61.43ZM428.61,173.49c0-9.56-6.64-16.65-15.74-16.65h-9.83v33.67h9.83c9.01,0,15.74-7.19,15.74-17.02Z"/>
    <path class="cls-2" d="M467.29,166.58h26.94v13.01h-26.94v11.74h31.67v13.01h-46.41v-61.43h45.59v13.1h-30.85v10.56Z"/>
  </g>
  <g>
    <path class="cls-2" d="M508.33,142.83h14.83l17.02,31.03,17.02-31.03h14.74v61.52h-15.11v-35.58l-14.11,26.03h-5.1l-14.2-26.03v35.58h-15.11v-61.52Z"/>
    <path class="cls-2" d="M580.41,173.68c0-18.47,13.38-31.85,31.94-31.85s31.85,13.29,31.85,31.67-13.47,31.94-31.94,31.94-31.85-13.29-31.85-31.76ZM628.64,173.68c0-10.37-6.83-17.93-16.29-17.93s-16.47,7.46-16.47,17.84,7.1,17.93,16.47,17.93,16.29-7.55,16.29-17.84Z"/>
    <path class="cls-2" d="M667.77,176.31v28.03h-15.11v-61.43h15.11v26.94l19.56-26.94h17.56l-22.39,30.12,23.21,31.3h-17.56l-20.38-28.03Z"/>
  </g>
  <g>
    <path class="cls-2" d="M711.23,142.92h25.39c14.11,0,23.3,7.83,23.3,19.47,0,9.19-5.64,15.93-14.74,18.47l15.74,23.48h-17.2l-14.74-22.39h-2.64v22.39h-15.11v-61.43ZM736.26,170.13c5.19,0,8.55-2.91,8.55-7.46s-3.37-7.28-8.55-7.28h-9.92v14.74h9.92Z"/>
    <path class="cls-2" d="M787.67,142.92h18.2l23.02,61.43h-15.74l-4.46-12.38h-24.12l-4.46,12.38h-15.47l23.02-61.43ZM796.59,158.2l-7.55,21.11h15.2l-7.55-21.11h-.09Z"/>
  </g>
  <g>
    <path class="cls-2" d="M828.51,173.68c0-18.84,12.92-31.85,31.31-31.85,10.74,0,19.93,5.01,25.39,13.2l-10.74,8.28c-3.28-4.82-8.28-7.55-14.29-7.55-9.46,0-16.29,6.83-16.29,17.84s6.83,17.84,16.29,17.84c6.1,0,11.38-2.73,14.56-7.92l10.65,8.65c-5.19,7.92-14.29,13.29-25.57,13.29-18.11,0-31.31-12.92-31.31-31.76Z"/>
    <path class="cls-2" d="M891.94,142.83h15.2v61.52h-15.2v-61.52Z"/>
  </g>
  <g>
    <path class="cls-2" d="M912.48,192.79l12.1-6.64c1.46,3.37,4.37,5.19,8.01,5.19,4.73,0,7.74-3.37,7.74-8.65v-39.86h15.11v39.5c0,14.29-8.65,23.11-21.75,23.11-9.83,0-17.47-4.09-21.2-12.65Z"/>
    <path class="cls-2" d="M965.81,180.32v-37.49h15.11v37.49c0,6.73,4.37,11.01,11.1,11.01s11.1-4.28,11.1-11.01v-37.49h14.92v37.49c0,15.2-10.28,25.03-26.03,25.03s-26.21-9.83-26.21-25.03Z"/>
  </g>
  <g>
    <path class="cls-2" d="M387.94,222.82h13.74l25.94,36.04v-36.04h15.11v61.52h-13.47l-26.39-36.67v36.67h-14.92v-61.52Z"/>
    <path class="cls-2" d="M470.93,222.92h18.2l23.02,61.43h-15.74l-4.46-12.38h-24.12l-4.46,12.38h-15.47l23.02-61.43ZM479.85,238.2l-7.55,21.11h15.2l-7.55-21.11h-.09Z"/>
  </g>
  <g>
    <path class="cls-2" d="M541.49,222.92h25.66c17.65,0,30.49,12.92,30.49,30.49s-12.83,30.94-30.49,30.94h-25.66v-61.43ZM582.17,253.49c0-9.55-6.64-16.65-15.74-16.65h-9.83v33.67h9.83c9.01,0,15.74-7.19,15.74-17.02Z"/>
    <path class="cls-2" d="M599.18,272.79l12.1-6.64c1.46,3.37,4.37,5.19,8.01,5.19,4.73,0,7.74-3.37,7.74-8.65v-39.86h15.11v39.5c0,14.29-8.65,23.11-21.75,23.11-9.83,0-17.47-4.09-21.2-12.65Z"/>
  </g>
  <g>
    <path class="cls-2" d="M667.91,246.58h26.94v13.01h-26.94v11.74h31.67v13.01h-46.41v-61.43h45.59v13.1h-30.85v10.56Z"/>
    <path class="cls-2" d="M708.94,222.82h15.01v47.69h27.12v13.83h-42.13v-61.52Z"/>
  </g>
  <path class="cls-2" d="M755.32,260.32v-37.49h15.11v37.49c0,6.73,4.37,11.01,11.1,11.01s11.1-4.28,11.1-11.01v-37.49h14.92v37.49c0,15.2-10.28,25.03-26.03,25.03s-26.21-9.83-26.21-25.03Z"/>
  <g>
    <path class="cls-2" d="M387.69,321.22h6.19c3.68,0,6.06,2.01,6.06,5.14s-2.4,5.22-6.08,5.22h-4.02v7.26h-2.14v-17.62ZM393.8,329.68c2.45,0,4.02-1.33,4.02-3.34s-1.59-3.21-3.99-3.21h-3.99v6.55h3.97Z"/>
    <path class="cls-2" d="M402.73,330.02c0-5.25,3.73-9.06,8.9-9.06s8.9,3.81,8.9,9.06-3.76,9.08-8.93,9.08-8.88-3.81-8.88-9.08ZM418.29,330.02c0-4.07-2.79-7.02-6.66-7.02s-6.68,2.95-6.68,7.02,2.85,7.05,6.68,7.05,6.66-2.98,6.66-7.05Z"/>
  </g>
  <g>
    <path class="cls-2" d="M422.99,336l1.59-1.33c1.02,1.46,2.98,2.4,4.88,2.4,2.69,0,4.49-1.1,4.49-2.85,0-2.22-1.83-2.71-4.57-3.42-3.65-.94-5.74-2.3-5.74-4.99,0-3.08,2.4-4.86,6.19-4.86,2.4,0,4.46.89,5.9,2.45l-1.41,1.51c-1.15-1.25-2.77-1.96-4.46-1.96-2.4,0-3.94.97-3.94,2.77,0,1.65,1.41,2.27,4.2,3.03,3.92,1.07,6.06,2.4,6.06,5.38s-2.69,4.96-6.68,4.96c-2.71,0-5.17-1.2-6.5-3.11Z"/>
    <path class="cls-2" d="M438.62,335.58l1.91-.99c.63,1.51,1.8,2.45,3.39,2.45,2.06,0,3.34-1.46,3.34-3.73v-12.09h2.14v12.09c0,3.84-2.66,5.8-5.48,5.8-2.19,0-4.33-1.15-5.3-3.52Z"/>
    <path class="cls-2" d="M456.58,328.87h9.29v1.91h-9.29v6.16h10.76v1.91h-12.9v-17.62h12.66v1.91h-10.52v5.74Z"/>
    <path class="cls-2" d="M477.93,323.18v15.67h-2.14v-15.67h-5.95v-1.96h14.05v1.96h-5.95Z"/>
  </g>
  <g>
    <path class="cls-2" d="M486.64,321.22h2.17v17.62h-2.17v-17.62Z"/>
    <path class="cls-2" d="M499.9,323.18v15.67h-2.14v-15.67h-5.95v-1.96h14.05v1.96h-5.95Z"/>
    <path class="cls-2" d="M510.99,328.87h9.29v1.91h-9.29v6.16h10.76v1.91h-12.9v-17.62h12.66v1.91h-10.52v5.74Z"/>
  </g>
  <g>
    <path class="cls-2" d="M534.94,328.87h9.29v1.91h-9.29v6.16h10.76v1.91h-12.9v-17.62h12.66v1.91h-10.52v5.74Z"/>
    <path class="cls-2" d="M548.96,331.92v-10.7h2.14v10.65c0,3.26,1.91,5.14,4.96,5.14s4.93-1.91,4.93-5.14v-10.65h2.14v10.7c0,4.44-2.71,7.15-7.08,7.15s-7.1-2.72-7.1-7.15Z"/>
  </g>
  <g>
    <path class="cls-2" d="M567.94,321.22h6.37c3.71,0,6.11,2.04,6.11,5.14,0,2.85-2.06,4.8-5.27,5.09l5.25,7.39h-2.43l-5.22-7.34h-2.64v7.34h-2.17v-17.62ZM574.26,329.55c2.45,0,4.02-1.1,4.02-3.19s-1.57-3.21-3.99-3.21h-4.18v6.4h4.15Z"/>
    <path class="cls-2" d="M583.65,330.02c0-5.25,3.73-9.06,8.9-9.06s8.9,3.81,8.9,9.06-3.76,9.08-8.93,9.08-8.88-3.81-8.88-9.08ZM599.21,330.02c0-4.07-2.79-7.02-6.66-7.02s-6.68,2.95-6.68,7.02,2.85,7.05,6.68,7.05,6.66-2.98,6.66-7.05Z"/>
  </g>
  <g>
    <path class="cls-2" d="M605.53,321.22h6.19c3.68,0,6.06,2.01,6.06,5.14s-2.4,5.22-6.08,5.22h-4.02v7.26h-2.14v-17.62ZM611.64,329.68c2.45,0,4.02-1.33,4.02-3.34s-1.59-3.21-3.99-3.21h-3.99v6.55h3.97Z"/>
    <path class="cls-2" d="M619.99,336l1.59-1.33c1.02,1.46,2.98,2.4,4.88,2.4,2.69,0,4.49-1.1,4.49-2.85,0-2.22-1.83-2.71-4.57-3.42-3.65-.94-5.74-2.3-5.74-4.99,0-3.08,2.4-4.86,6.19-4.86,2.4,0,4.46.89,5.9,2.45l-1.41,1.51c-1.15-1.25-2.77-1.96-4.46-1.96-2.4,0-3.94.97-3.94,2.77,0,1.65,1.41,2.27,4.2,3.03,3.92,1.07,6.06,2.4,6.06,5.38s-2.69,4.96-6.68,4.96c-2.71,0-5.17-1.2-6.5-3.11Z"/>
    <path class="cls-2" d="M639.05,330.36v8.49h-2.17v-17.62h2.17v8.2l7.26-8.2h2.79l-7.7,8.62,8.07,9.01h-2.77l-7.65-8.49Z"/>
    <path class="cls-2" d="M652.78,321.22h2.17v17.62h-2.17v-17.62Z"/>
  </g>
  <g>
    <path class="cls-2" d="M667.07,321.22h6.19c3.68,0,6.06,2.01,6.06,5.14s-2.4,5.22-6.08,5.22h-4.02v7.26h-2.14v-17.62ZM673.17,329.68c2.45,0,4.02-1.33,4.02-3.34s-1.59-3.21-3.99-3.21h-3.99v6.55h3.97Z"/>
    <path class="cls-2" d="M686.8,321.22h2.66l7.1,17.62h-2.22l-1.98-4.91h-8.43l-1.98,4.91h-2.25l7.1-17.62ZM691.58,332l-3.45-8.54-3.45,8.54h6.89Z"/>
  </g>
  <g>
    <path class="cls-2" d="M699.71,321.22h6.37c3.71,0,6.11,2.04,6.11,5.14,0,2.85-2.06,4.8-5.27,5.09l5.25,7.39h-2.43l-5.22-7.34h-2.64v7.34h-2.17v-17.62ZM706.02,329.55c2.45,0,4.02-1.1,4.02-3.19s-1.57-3.21-3.99-3.21h-4.18v6.4h4.15Z"/>
    <path class="cls-2" d="M716.52,321.22h2.14v15.64h9.14v1.98h-11.28v-17.62Z"/>
  </g>
  <g>
    <path class="cls-2" d="M737.25,321.22h2.66l7.1,17.62h-2.22l-1.98-4.91h-8.43l-1.98,4.91h-2.25l7.1-17.62ZM742.03,332l-3.45-8.54-3.45,8.54h6.89Z"/>
    <path class="cls-2" d="M750.17,321.22h2.19l6.32,11.44,6.29-11.44h2.19v17.62h-2.14v-13.5l-5.72,10.34h-1.28l-5.72-10.34v13.5h-2.14v-17.62Z"/>
  </g>
  <g>
    <path class="cls-2" d="M774.3,328.87h9.29v1.91h-9.29v6.16h10.76v1.91h-12.9v-17.62h12.66v1.91h-10.52v5.74Z"/>
    <path class="cls-2" d="M788.63,321.22h2.01l10.7,13.94v-13.94h2.17v17.62h-1.96l-10.81-14.05v14.05h-2.12v-17.62Z"/>
  </g>
  <path class="cls-2" d="M814.62,323.18v15.67h-2.14v-15.67h-5.95v-1.96h14.05v1.96h-5.95Z"/>
</svg>