<?xml version="1.0" encoding="UTF-8"?>
<svg xmlns="http://www.w3.org/2000/svg" viewBox="0 0 1356 400">
  <defs>
    <style>
      .cls-1 {
        fill: #0c4da2;
      }

      .cls-2 {
        fill: #fff;
      }

      .cls-3 {
        fill: #fff200;
      }
    </style>
  </defs>
  <polygon class="cls-1" points="0 0 0 400 1356 400 1356 0 0 0 0 0"/>
  <polygon class="cls-3" points="186.77 1.45 174.2 40.63 132.92 40.36 166.38 64.51 153.44 103.61 186.77 79.22 220.04 103.61 207.1 64.51 240.48 40.36 199.3 40.63 186.77 1.45 186.77 1.45"/>
  <polygon class="cls-3" points="226.68 148.58 214.06 187.72 172.78 187.48 206.29 211.64 193.35 250.69 226.68 226.35 259.91 250.69 247.01 211.64 280.38 187.48 239.2 187.72 226.68 148.58 226.68 148.58"/>
  <polygon class="cls-3" points="187.05 295.67 174.62 335.05 133.34 334.72 166.9 358.83 153.9 397.92 187.05 373.45 220.46 397.92 207.52 358.83 240.99 334.77 199.76 335.05 187.05 295.67 187.05 295.67"/>
  <g>
    <path class="cls-2" d="M385.29,94.44c0-18.82,12.91-31.82,31.28-31.82,10.73,0,19.91,5,25.37,13.18l-10.73,8.27c-3.27-4.82-8.27-7.55-14.28-7.55-9.46,0-16.28,6.82-16.28,17.82s6.82,17.82,16.28,17.82c6.09,0,11.37-2.73,14.55-7.91l10.64,8.64c-5.18,7.91-14.28,13.28-25.55,13.28-18.09,0-31.28-12.91-31.28-31.73Z"/>
    <path class="cls-2" d="M444.49,94.44c0-18.46,13.37-31.82,31.92-31.82s31.82,13.28,31.82,31.64-13.46,31.92-31.92,31.92-31.82-13.28-31.82-31.73ZM492.68,94.44c0-10.37-6.82-17.91-16.28-17.91s-16.46,7.46-16.46,17.82,7.09,17.91,16.46,17.91,16.28-7.55,16.28-17.82Z"/>
  </g>
  <g>
    <path class="cls-2" d="M516.77,63.62h14.82l17,31.01,17-31.01h14.73v61.47h-15.09v-35.55l-14.09,26.01h-5.09l-14.18-26.01v35.55h-15.09v-61.47Z"/>
    <path class="cls-2" d="M606.61,87.35h26.91v13h-26.91v11.73h31.64v13h-46.37v-61.38h45.55v13.09h-30.82v10.55Z"/>
    <path class="cls-2" d="M686.45,63.71h18.19l23,61.38h-15.73l-4.46-12.37h-24.1l-4.46,12.37h-15.46l23-61.38ZM695.36,78.99l-7.55,21.1h15.18l-7.55-21.1h-.09Z"/>
    <path class="cls-2" d="M733.65,63.62h13.73l25.91,36.01v-36.01h15.09v61.47h-13.46l-26.37-36.64v36.64h-14.91v-61.47Z"/>
    <path class="cls-2" d="M799.94,63.71h25.64c17.64,0,30.46,12.91,30.46,30.46s-12.82,30.92-30.46,30.92h-25.64v-61.38ZM840.58,94.26c0-9.55-6.64-16.64-15.73-16.64h-9.82v33.64h9.82c9,0,15.73-7.18,15.73-17Z"/>
  </g>
  <g>
    <path class="cls-2" d="M882.64,116.81l8.37-10.37c3.64,4.18,9.73,6.91,15.73,6.91,5,0,9.18-1.82,9.18-5.91,0-4.73-4-6.09-10.91-7.55-13-2.73-20.46-7.82-20.46-18.46,0-12.18,10.73-18.82,24.1-18.82,9.18,0,16.73,2.73,22.19,8.18l-8.09,10.09c-4.55-3.64-9.18-5.55-13.91-5.55s-8.37,1.64-8.37,5.36c0,3.46,2.91,5.09,10.46,6.82,13.64,3,21,8.91,21,19.82,0,12.18-10.82,18.82-25.46,18.82-9.91,0-18.64-3.91-23.82-9.37Z"/>
    <path class="cls-2" d="M953.75,87.35h26.91v13h-26.91v11.73h31.64v13h-46.37v-61.38h45.55v13.09h-30.82v10.55Z"/>
    <path class="cls-2" d="M1009.67,87.35h26.91v13h-26.91v11.73h31.64v13h-46.37v-61.38h45.55v13.09h-30.82v10.55Z"/>
  </g>
  <g>
    <path class="cls-2" d="M387.93,143.94h25.64c17.64,0,30.46,12.91,30.46,30.46s-12.82,30.92-30.46,30.92h-25.64v-61.38ZM428.57,174.5c0-9.55-6.64-16.64-15.73-16.64h-9.82v33.64h9.82c9,0,15.73-7.18,15.73-17Z"/>
    <path class="cls-2" d="M467.22,167.59h26.91v13h-26.91v11.73h31.64v13h-46.37v-61.38h45.55v13.09h-30.82v10.55Z"/>
  </g>
  <g>
    <path class="cls-2" d="M508.24,143.85h14.82l17,31.01,17-31.01h14.73v61.47h-15.09v-35.55l-14.09,26.01h-5.09l-14.18-26.01v35.55h-15.09v-61.47Z"/>
    <path class="cls-2" d="M580.08,174.68c0-18.46,13.37-31.82,31.92-31.82s31.82,13.28,31.82,31.64-13.46,31.92-31.92,31.92-31.82-13.27-31.82-31.73ZM628.27,174.68c0-10.37-6.82-17.91-16.28-17.91s-16.46,7.46-16.46,17.82,7.09,17.91,16.46,17.91,16.28-7.55,16.28-17.82Z"/>
    <path class="cls-2" d="M649.46,174.68c0-18.82,12.91-31.82,31.28-31.82,10.73,0,19.91,5,25.37,13.18l-10.73,8.27c-3.27-4.82-8.27-7.55-14.28-7.55-9.46,0-16.28,6.82-16.28,17.82s6.82,17.82,16.28,17.82c6.09,0,11.37-2.73,14.55-7.91l10.64,8.64c-5.18,7.91-14.28,13.27-25.55,13.27-18.09,0-31.28-12.91-31.28-31.73Z"/>
    <path class="cls-2" d="M712.93,143.94h25.37c14.09,0,23.28,7.82,23.28,19.46,0,9.18-5.64,15.91-14.73,18.46l15.73,23.46h-17.19l-14.73-22.37h-2.64v22.37h-15.09v-61.38ZM737.94,171.13c5.18,0,8.55-2.91,8.55-7.46s-3.36-7.27-8.55-7.27h-9.91v14.73h9.91Z"/>
  </g>
  <g>
    <path class="cls-2" d="M789.27,143.94h18.19l23,61.38h-15.73l-4.46-12.37h-24.1l-4.46,12.37h-15.46l23-61.38ZM798.18,159.22l-7.55,21.1h15.18l-7.55-21.1h-.09Z"/>
    <path class="cls-2" d="M830.01,174.68c0-18.82,12.91-31.82,31.28-31.82,10.73,0,19.91,5,25.37,13.18l-10.73,8.27c-3.27-4.82-8.27-7.55-14.28-7.55-9.46,0-16.28,6.82-16.28,17.82s6.82,17.82,16.28,17.82c6.09,0,11.37-2.73,14.55-7.91l10.64,8.64c-5.18,7.91-14.28,13.27-25.55,13.27-18.09,0-31.28-12.91-31.28-31.73Z"/>
  </g>
  <path class="cls-2" d="M903.72,143.85l12.18,23,11.91-23h17l-21.46,38.19v23.28h-15.18v-23.55l-21.55-37.92h17.09Z"/>
  <g>
    <path class="cls-2" d="M387.93,224.09h15.18v61.47h-15.18v-61.47Z"/>
    <path class="cls-2" d="M414.57,224.09h13.73l25.91,36.01v-36.01h15.09v61.47h-13.46l-26.37-36.64v36.64h-14.91v-61.47Z"/>
  </g>
  <g>
    <path class="cls-2" d="M521.63,224.18h18.19l23,61.38h-15.73l-4.46-12.37h-24.1l-4.46,12.37h-15.46l23-61.38ZM530.54,239.46l-7.55,21.09h15.18l-7.55-21.09h-.09Z"/>
    <path class="cls-2" d="M562.37,254.91c0-18.82,12.91-31.82,31.28-31.82,10.73,0,19.91,5,25.37,13.18l-10.73,8.27c-3.27-4.82-8.27-7.55-14.28-7.55-9.46,0-16.28,6.82-16.28,17.82s6.82,17.82,16.28,17.82c6.09,0,11.37-2.73,14.55-7.91l10.64,8.64c-5.18,7.91-14.28,13.28-25.55,13.28-18.09,0-31.28-12.91-31.28-31.73Z"/>
  </g>
  <g>
    <path class="cls-2" d="M655.59,238v47.55h-15.09v-47.55h-18.09v-13.91h51.19v13.91h-18Z"/>
    <path class="cls-2" d="M678.87,224.09h15.18v61.47h-15.18v-61.47Z"/>
    <path class="cls-2" d="M702.33,254.91c0-18.46,13.37-31.82,31.92-31.82s31.82,13.28,31.82,31.64-13.46,31.92-31.92,31.92-31.82-13.28-31.82-31.73ZM750.52,254.91c0-10.37-6.82-17.91-16.28-17.91s-16.46,7.46-16.46,17.82,7.09,17.91,16.46,17.91,16.28-7.55,16.28-17.82Z"/>
    <path class="cls-2" d="M774.35,224.09h13.73l25.91,36.01v-36.01h15.09v61.47h-13.46l-26.37-36.64v36.64h-14.91v-61.47Z"/>
  </g>
  <g>
    <path class="cls-2" d="M386.08,321.33h2.27l5.87,15.3h.08l5.87-15.3h2.25l-6.81,17.62h-2.71l-6.81-17.62Z"/>
    <path class="cls-2" d="M405.71,321.33h2.17v17.62h-2.17v-17.62Z"/>
    <path class="cls-2" d="M411.4,336.11l1.59-1.33c1.02,1.46,2.98,2.4,4.88,2.4,2.69,0,4.49-1.1,4.49-2.85,0-2.22-1.83-2.71-4.57-3.42-3.65-.94-5.74-2.3-5.74-4.99,0-3.08,2.4-4.86,6.19-4.86,2.4,0,4.46.89,5.9,2.45l-1.41,1.51c-1.15-1.25-2.77-1.96-4.46-1.96-2.4,0-3.94.97-3.94,2.77,0,1.65,1.41,2.27,4.2,3.03,3.92,1.07,6.06,2.4,6.06,5.38s-2.69,4.96-6.68,4.96c-2.71,0-5.17-1.2-6.5-3.11Z"/>
    <path class="cls-2" d="M428.39,321.33h2.17v17.62h-2.17v-17.62Z"/>
    <path class="cls-2" d="M441.65,323.29v15.67h-2.14v-15.67h-5.95v-1.96h14.05v1.96h-5.95Z"/>
    <path class="cls-2" d="M463.81,323.29v15.67h-2.14v-15.67h-5.95v-1.96h14.05v1.96h-5.95Z"/>
    <path class="cls-2" d="M472.76,338.95v-17.62h2.14v7.81h10.08v-7.81h2.14v17.62h-2.14v-7.88h-10.08v7.88h-2.14Z"/>
    <path class="cls-2" d="M494.17,328.98h9.29v1.91h-9.29v6.16h10.76v1.91h-12.9v-17.62h12.66v1.91h-10.52v5.74Z"/>
  </g>
  <g>
    <path class="cls-2" d="M518.23,328.98h9.29v1.91h-9.29v6.16h10.76v1.91h-12.9v-17.62h12.66v1.91h-10.52v5.74Z"/>
    <path class="cls-2" d="M532.24,332.03v-10.7h2.14v10.65c0,3.26,1.91,5.14,4.96,5.14s4.93-1.91,4.93-5.14v-10.65h2.14v10.7c0,4.44-2.71,7.15-7.08,7.15s-7.1-2.72-7.1-7.15Z"/>
  </g>
  <g>
    <path class="cls-2" d="M551.23,321.33h6.37c3.71,0,6.11,2.04,6.11,5.14,0,2.85-2.06,4.8-5.27,5.09l5.25,7.39h-2.43l-5.22-7.34h-2.64v7.34h-2.17v-17.62ZM557.54,329.66c2.45,0,4.02-1.1,4.02-3.19s-1.57-3.21-3.99-3.21h-4.18v6.4h4.15Z"/>
    <path class="cls-2" d="M566.94,330.13c0-5.25,3.73-9.06,8.9-9.06s8.9,3.81,8.9,9.06-3.76,9.08-8.93,9.08-8.88-3.81-8.88-9.08ZM582.5,330.13c0-4.07-2.79-7.02-6.66-7.02s-6.68,2.95-6.68,7.02,2.85,7.05,6.68,7.05,6.66-2.98,6.66-7.05Z"/>
  </g>
  <g>
    <path class="cls-2" d="M588.81,321.33h6.19c3.68,0,6.06,2.01,6.06,5.14s-2.4,5.22-6.08,5.22h-4.02v7.26h-2.14v-17.62ZM594.92,329.79c2.45,0,4.02-1.33,4.02-3.34s-1.59-3.21-3.99-3.21h-3.99v6.55h3.97Z"/>
    <path class="cls-2" d="M606.54,328.98h9.29v1.91h-9.29v6.16h10.76v1.91h-12.9v-17.62h12.66v1.91h-10.52v5.74Z"/>
  </g>
  <g>
    <path class="cls-2" d="M627.11,321.33h2.66l7.1,17.62h-2.22l-1.98-4.91h-8.43l-1.98,4.91h-2.25l7.1-17.62ZM631.89,332.11l-3.45-8.54-3.45,8.54h6.89Z"/>
    <path class="cls-2" d="M640.03,321.33h2.01l10.7,13.94v-13.94h2.17v17.62h-1.96l-10.81-14.05v14.05h-2.11v-17.62Z"/>
  </g>
  <g>
    <path class="cls-2" d="M666.88,321.33h6.19c3.68,0,6.06,2.01,6.06,5.14s-2.4,5.22-6.08,5.22h-4.02v7.26h-2.14v-17.62ZM672.98,329.79c2.45,0,4.02-1.33,4.02-3.34s-1.59-3.21-3.99-3.21h-3.99v6.55h3.97Z"/>
    <path class="cls-2" d="M686.61,321.33h2.66l7.1,17.62h-2.22l-1.98-4.91h-8.43l-1.98,4.91h-2.25l7.1-17.62ZM691.39,332.11l-3.45-8.54-3.45,8.54h6.89Z"/>
  </g>
  <g>
    <path class="cls-2" d="M699.52,321.33h6.37c3.71,0,6.11,2.04,6.11,5.14,0,2.85-2.06,4.8-5.27,5.09l5.25,7.39h-2.43l-5.22-7.34h-2.64v7.34h-2.17v-17.62ZM705.84,329.66c2.45,0,4.02-1.1,4.02-3.19s-1.57-3.21-3.99-3.21h-4.18v6.4h4.15Z"/>
    <path class="cls-2" d="M716.41,321.33h2.14v15.64h9.14v1.98h-11.28v-17.62Z"/>
    <path class="cls-2" d="M730.74,321.33h2.17v17.62h-2.17v-17.62Z"/>
    <path class="cls-2" d="M743.04,321.33h2.66l7.1,17.62h-2.22l-1.98-4.91h-8.43l-1.98,4.91h-2.25l7.1-17.62ZM747.81,332.11l-3.45-8.54-3.45,8.54h6.89Z"/>
  </g>
  <g>
    <path class="cls-2" d="M756.05,321.33h2.19l6.32,11.44,6.29-11.44h2.19v17.62h-2.14v-13.5l-5.72,10.34h-1.28l-5.72-10.34v13.5h-2.14v-17.62Z"/>
    <path class="cls-2" d="M780.19,328.98h9.29v1.91h-9.29v6.16h10.76v1.91h-12.9v-17.62h12.66v1.91h-10.52v5.74Z"/>
  </g>
  <g>
    <path class="cls-2" d="M794.52,321.33h2.01l10.7,13.94v-13.94h2.17v17.62h-1.96l-10.81-14.05v14.05h-2.12v-17.62Z"/>
    <path class="cls-2" d="M820.49,323.29v15.67h-2.14v-15.67h-5.95v-1.96h14.05v1.96h-5.95Z"/>
  </g>
</svg>