<?xml version="1.0" encoding="UTF-8"?>
<svg xmlns="http://www.w3.org/2000/svg" viewBox="0 0 1356 400">
  <defs>
    <style>
      .cls-1 {
        fill: #0c4da2;
      }

      .cls-2 {
        font-family: Europea-Regular, Europea;
        font-size: 26.1px;
        letter-spacing: .02em;
      }

      .cls-2, .cls-3 {
        fill: #fff;
      }

      .cls-4 {
        fill: #fff200;
      }
    </style>
  </defs>
  <polygon class="cls-1" points="0 0 0 400 1356 400 1356 0 0 0 0 0"/>
  <polygon class="cls-4" points="186.77 1.45 174.2 40.63 132.92 40.36 166.38 64.51 153.44 103.61 186.77 79.22 220.04 103.61 207.1 64.51 240.48 40.36 199.3 40.63 186.77 1.45 186.77 1.45"/>
  <polygon class="cls-4" points="226.68 148.58 214.06 187.72 172.78 187.48 206.29 211.64 193.35 250.69 226.68 226.35 259.91 250.69 247.01 211.64 280.38 187.48 239.2 187.72 226.68 148.58 226.68 148.58"/>
  <polygon class="cls-4" points="187.05 295.67 174.62 335.05 133.34 334.72 166.9 358.83 153.9 397.92 187.05 373.45 220.46 397.92 207.52 358.83 240.99 334.77 199.76 335.05 187.05 295.67 187.05 295.67"/>
  <g>
    <path class="cls-3" d="M402.66,86.64h26.91v13h-26.91v11.73h31.64v13h-46.37v-61.38h45.55v13.09h-30.82v10.55Z"/>
    <path class="cls-3" d="M438.58,112.83l12.09-6.64c1.45,3.36,4.36,5.18,8,5.18,4.73,0,7.73-3.36,7.73-8.64v-39.83h15.09v39.46c0,14.28-8.64,23.1-21.73,23.1-9.82,0-17.46-4.09-21.19-12.64Z"/>
  </g>
  <path class="cls-3" d="M485.71,112.83l12.09-6.64c1.45,3.36,4.36,5.18,8,5.18,4.73,0,7.73-3.36,7.73-8.64v-39.83h15.09v39.46c0,14.28-8.64,23.1-21.73,23.1-9.82,0-17.46-4.09-21.19-12.64Z"/>
  <g>
    <path class="cls-3" d="M553.83,63h18.19l23,61.38h-15.73l-4.46-12.37h-24.1l-4.46,12.37h-15.46l23-61.38ZM562.75,78.27l-7.55,21.1h15.18l-7.55-21.1h-.09Z"/>
    <path class="cls-3" d="M623.49,100.37v-37.46h15.09v37.46c0,6.73,4.36,11,11.09,11s11.09-4.27,11.09-11v-37.46h14.91v37.46c0,15.19-10.27,25-26,25s-26.19-9.82-26.19-25Z"/>
    <path class="cls-3" d="M727.15,63h18.19l23,61.38h-15.73l-4.46-12.37h-24.1l-4.46,12.37h-15.46l23-61.38ZM736.06,78.27l-7.55,21.1h15.18l-7.55-21.1h-.09Z"/>
  </g>
  <g>
    <path class="cls-3" d="M773.63,63h25.37c14.09,0,23.28,7.82,23.28,19.46,0,9.18-5.64,15.91-14.73,18.46l15.73,23.46h-17.19l-14.73-22.37h-2.64v22.37h-15.09v-61.38ZM798.63,90.19c5.18,0,8.55-2.91,8.55-7.46s-3.36-7.27-8.55-7.27h-9.91v14.73h9.91Z"/>
    <path class="cls-3" d="M850.01,63h18.19l23,61.38h-15.73l-4.46-12.37h-24.1l-4.46,12.37h-15.46l23-61.38ZM858.92,78.27l-7.55,21.1h15.18l-7.55-21.1h-.09Z"/>
  </g>
  <path class="cls-3" d="M387.93,204.61h25.64c17.64,0,30.46-13,30.46-30.92s-12.82-30.46-30.46-30.46h-25.64v61.38ZM412.84,190.79h-9.82v-33.64h9.82c9.09,0,15.73,7.09,15.73,16.64s-6.73,17-15.73,17h0ZM487.13,173.69v-11.37h-34.92v11.37h34.92Z"/>
  <g>
    <path class="cls-3" d="M496.91,143.23h25.64c17.64,0,30.46,12.91,30.46,30.46s-12.82,30.92-30.46,30.92h-25.64v-61.38ZM537.55,173.78c0-9.55-6.64-16.64-15.73-16.64h-9.82v33.64h9.82c9,0,15.73-7.18,15.73-17Z"/>
    <path class="cls-3" d="M576.2,166.87h26.91v13h-26.91v11.73h31.64v13h-46.37v-61.38h45.55v13.09h-30.82v10.55Z"/>
  </g>
  <g>
    <path class="cls-3" d="M617.22,143.14h14.82l17,31.01,17-31.01h14.73v61.47h-15.09v-35.55l-14.09,26.01h-5.09l-14.18-26.01v35.55h-15.09v-61.47Z"/>
    <path class="cls-3" d="M689.24,173.97c0-18.46,13.37-31.82,31.92-31.82s31.82,13.28,31.82,31.64-13.46,31.92-31.92,31.92-31.82-13.27-31.82-31.73ZM737.43,173.97c0-10.37-6.82-17.91-16.28-17.91s-16.46,7.46-16.46,17.82,7.09,17.91,16.46,17.91,16.28-7.55,16.28-17.82Z"/>
    <path class="cls-3" d="M776.53,176.6v28.01h-15.09v-61.38h15.09v26.91l19.55-26.91h17.55l-22.37,30.1,23.19,31.28h-17.55l-20.37-28.01Z"/>
  </g>
  <g>
    <path class="cls-3" d="M819.97,143.23h25.37c14.09,0,23.28,7.82,23.28,19.46,0,9.18-5.64,15.91-14.73,18.46l15.73,23.46h-17.19l-14.73-22.37h-2.64v22.37h-15.09v-61.38ZM844.97,170.42c5.18,0,8.55-2.91,8.55-7.46s-3.36-7.27-8.55-7.27h-9.91v14.73h9.91Z"/>
    <path class="cls-3" d="M896.17,143.23h18.19l23,61.38h-15.73l-4.46-12.37h-24.1l-4.46,12.37h-15.46l23-61.38ZM905.08,158.51l-7.55,21.1h15.18l-7.55-21.1h-.09Z"/>
    <path class="cls-3" d="M940.46,194.97l29.37-38.92h-28.46v-12.91h48.37v9.64l-29.28,39.01h29.82v12.82h-49.83v-9.64Z"/>
    <path class="cls-3" d="M999.02,143.14h15.19v61.47h-15.19v-61.47Z"/>
  </g>
  <g>
    <path class="cls-3" d="M1020.04,193.06l12.09-6.64c1.46,3.36,4.36,5.18,8,5.18,4.73,0,7.73-3.36,7.73-8.64v-39.83h15.09v39.46c0,14.28-8.64,23.1-21.73,23.1-9.82,0-17.46-4.09-21.19-12.64Z"/>
    <path class="cls-3" d="M1088.14,143.23h18.19l23,61.38h-15.73l-4.46-12.37h-24.1l-4.46,12.37h-15.46l23-61.38ZM1097.05,158.51l-7.55,21.1h15.18l-7.55-21.1h-.09Z"/>
  </g>
  <g>
    <path class="cls-3" d="M403.02,248.93h26.28v11.91h-26.28v24h-15.09v-61.47h45.01v12.55h-29.92v13Z"/>
    <path class="cls-3" d="M439.58,223.38h15v47.65h27.1v13.82h-42.1v-61.47Z"/>
  </g>
  <path class="cls-3" d="M513.05,253.93v-11.37h-34.92v11.37h34.92ZM544.79,238.74l7.55,21.1h-15.18l7.55-21.1h.09ZM512.78,284.85h15.46l4.46-12.37h24.1l4.46,12.37h15.73l-23-61.38h-18.19l-23,61.38Z"/>
  <g>
    <path class="cls-3" d="M580.55,275.2l29.37-38.92h-28.46v-12.91h48.37v9.64l-29.28,39.01h29.82v12.82h-49.83v-9.64Z"/>
    <path class="cls-3" d="M634.65,275.2l29.37-38.92h-28.46v-12.91h48.37v9.64l-29.28,39.01h29.82v12.82h-49.83v-9.64Z"/>
    <path class="cls-3" d="M687.58,273.3l12.09-6.64c1.46,3.36,4.36,5.18,8,5.18,4.73,0,7.73-3.36,7.73-8.64v-39.83h15.09v39.46c0,14.28-8.64,23.09-21.73,23.09-9.82,0-17.46-4.09-21.19-12.64Z"/>
    <path class="cls-3" d="M738.59,254.2c0-18.46,13.37-31.82,31.92-31.82s31.82,13.28,31.82,31.64-13.46,31.92-31.92,31.92-31.82-13.28-31.82-31.73ZM786.78,254.2c0-10.37-6.82-17.91-16.28-17.91s-16.46,7.46-16.46,17.82,7.09,17.91,16.46,17.91,16.28-7.55,16.28-17.82Z"/>
    <path class="cls-3" d="M811.34,223.38h13.73l25.91,36.01v-36.01h15.09v61.47h-13.46l-26.37-36.64v36.64h-14.91v-61.47Z"/>
    <path class="cls-3" d="M877.72,223.38h15.19v61.47h-15.19v-61.47Z"/>
  </g>
  <text class="cls-2" transform="translate(385.55 338.16)"><tspan x="0" y="0">ŻU</tspan></text>
  <g>
    <path class="cls-3" d="M422.46,320.54h6.37c3.71,0,6.11,2.04,6.11,5.14,0,2.85-2.06,4.8-5.27,5.09l5.25,7.39h-2.43l-5.22-7.34h-2.64v7.34h-2.17v-17.62ZM428.77,328.87c2.45,0,4.02-1.1,4.02-3.19s-1.57-3.21-3.99-3.21h-4.18v6.4h4.15Z"/>
    <path class="cls-3" d="M446.68,320.54h2.17v17.62h-2.17v-17.62Z"/>
  </g>
  <path class="cls-3" d="M453.8,338.16h11.28v-1.98h-9.14v-15.64h-2.14v17.62ZM473.24,328.29v-1.88h-9.63v1.88h9.63Z"/>
  <g>
    <path class="cls-3" d="M477.38,320.54h6.19c3.68,0,6.06,2.01,6.06,5.14s-2.4,5.22-6.08,5.22h-4.02v7.26h-2.14v-17.62ZM483.49,329c2.45,0,4.02-1.33,4.02-3.34s-1.59-3.21-3.99-3.21h-3.99v6.55h3.97Z"/>
    <path class="cls-3" d="M497.11,320.54h2.66l7.1,17.62h-2.22l-1.98-4.91h-8.43l-1.98,4.91h-2.25l7.1-17.62ZM501.89,331.32l-3.45-8.54-3.45,8.54h6.89Z"/>
  </g>
  <g>
    <path class="cls-3" d="M510.03,320.54h6.37c3.71,0,6.11,2.04,6.11,5.14,0,2.85-2.06,4.8-5.27,5.09l5.25,7.39h-2.43l-5.22-7.34h-2.64v7.34h-2.17v-17.62ZM516.34,328.87c2.45,0,4.02-1.1,4.02-3.19s-1.57-3.21-3.99-3.21h-4.18v6.4h4.15Z"/>
    <path class="cls-3" d="M526.84,320.54h2.14v15.64h9.14v1.98h-11.28v-17.62Z"/>
  </g>
  <g>
    <path class="cls-3" d="M547.57,320.54h2.66l7.1,17.62h-2.22l-1.98-4.91h-8.43l-1.98,4.91h-2.25l7.1-17.62ZM552.35,331.32l-3.45-8.54-3.45,8.54h6.89Z"/>
    <path class="cls-3" d="M560.49,320.54h2.19l6.32,11.44,6.29-11.44h2.19v17.62h-2.14v-13.5l-5.72,10.34h-1.28l-5.72-10.34v13.5h-2.14v-17.62Z"/>
  </g>
  <g>
    <path class="cls-3" d="M584.61,328.19h9.29v1.91h-9.29v6.16h10.76v1.91h-12.9v-17.62h12.66v1.91h-10.52v5.74Z"/>
    <path class="cls-3" d="M598.94,320.54h2.01l10.7,13.94v-13.94h2.17v17.62h-1.96l-10.81-14.05v14.05h-2.11v-17.62Z"/>
  </g>
  <g>
    <path class="cls-3" d="M624.93,322.5v15.67h-2.14v-15.67h-5.95v-1.96h14.05v1.96h-5.95Z"/>
    <path class="cls-3" d="M642.99,328.19h9.29v1.91h-9.29v6.16h10.76v1.91h-12.9v-17.62h12.66v1.91h-10.52v5.74Z"/>
    <path class="cls-3" d="M656.12,320.54h2.25l4.41,14.86,4.59-14.86h1.85l4.62,14.86,4.36-14.86h2.25l-5.38,17.62h-2.32l-4.46-13.84-4.46,13.84h-2.32l-5.38-17.62Z"/>
    <path class="cls-3" d="M683.71,320.54h6.37c3.71,0,6.11,2.04,6.11,5.14,0,2.85-2.06,4.8-5.27,5.09l5.25,7.39h-2.43l-5.22-7.34h-2.64v7.34h-2.17v-17.62ZM690.03,328.87c2.45,0,4.02-1.1,4.02-3.19s-1.57-3.21-3.99-3.21h-4.18v6.4h4.15Z"/>
  </g>
  <g>
    <path class="cls-3" d="M699.68,329.34c0-5.25,3.73-9.06,8.9-9.06s8.9,3.81,8.9,9.06-3.76,9.08-8.93,9.08-8.88-3.81-8.88-9.08ZM715.24,329.34c0-4.07-2.79-7.02-6.66-7.02s-6.68,2.95-6.68,7.02,2.85,7.05,6.68,7.05,6.66-2.98,6.66-7.05Z"/>
    <path class="cls-3" d="M721.55,320.54h6.19c3.68,0,6.06,2.01,6.06,5.14s-2.4,5.22-6.08,5.22h-4.02v7.26h-2.14v-17.62ZM727.66,329c2.45,0,4.02-1.33,4.02-3.34s-1.59-3.21-3.99-3.21h-4v6.55h3.97Z"/>
  </g>
  <g>
    <path class="cls-3" d="M739.26,328.19h9.29v1.91h-9.29v6.16h10.76v1.91h-12.9v-17.62h12.66v1.91h-10.52v5.74Z"/>
    <path class="cls-3" d="M752.62,320.54h2.25l4.41,14.86,4.59-14.86h1.85l4.62,14.86,4.36-14.86h2.25l-5.38,17.62h-2.32l-4.46-13.84-4.46,13.84h-2.32l-5.38-17.62Z"/>
  </g>
</svg>