<?xml version="1.0" encoding="UTF-8"?>
<svg xmlns="http://www.w3.org/2000/svg" viewBox="0 0 1356 400">
  <defs>
    <style>
      .cls-1 {
        fill: #0c4da2;
      }

      .cls-2 {
        fill: #fff;
      }

      .cls-3 {
        fill: #fff200;
      }
    </style>
  </defs>
  <polygon class="cls-1" points="0 0 0 400 1356 400 1356 0 0 0 0 0"/>
  <polygon class="cls-3" points="186.77 1.45 174.2 40.63 132.92 40.36 166.38 64.51 153.44 103.61 186.77 79.22 220.04 103.61 207.1 64.51 240.48 40.36 199.3 40.63 186.77 1.45 186.77 1.45"/>
  <polygon class="cls-3" points="226.68 148.58 214.06 187.72 172.78 187.48 206.29 211.64 193.35 250.69 226.68 226.35 259.91 250.69 247.01 211.64 280.38 187.48 239.2 187.72 226.68 148.58 226.68 148.58"/>
  <polygon class="cls-3" points="187.05 295.67 174.62 335.05 133.34 334.72 166.9 358.83 153.9 397.92 187.05 373.45 220.46 397.92 207.52 358.83 240.99 334.77 199.76 335.05 187.05 295.67 187.05 295.67"/>
  <g>
    <path class="cls-2" d="M382.34,56.22h14.41l13.25,41h.08l13.33-41h14.33l-19.46,55.91h-16.48l-19.46-55.91Z"/>
    <path class="cls-2" d="M455.88,77.75h24.52v11.84h-24.52v10.68h28.82v11.84h-42.24v-55.91h41.5v11.93h-28.08v9.61Z"/>
  </g>
  <g>
    <path class="cls-2" d="M493.28,56.14h12.51l23.6,32.8v-32.8h13.75v55.99h-12.26l-24.02-33.38v33.38h-13.58v-55.99Z"/>
    <path class="cls-2" d="M553.74,56.14h13.83v55.99h-13.83v-55.99Z"/>
  </g>
  <path class="cls-2" d="M602.37,68.81v43.32h-13.75v-43.32h-16.48v-12.67h46.63v12.67h-16.4ZM591.93,114.61l9.36,1.33c-1.49,5.96-2.9,9.61-5.14,14.91l-7.37-1.57c1.49-5.55,2.32-9.61,3.15-14.66Z"/>
  <g>
    <path class="cls-2" d="M623.48,56.14h13.83v55.99h-13.83v-55.99Z"/>
    <path class="cls-2" d="M665.72,104.59l7.62-9.44c3.31,3.81,8.86,6.29,14.33,6.29,4.56,0,8.37-1.66,8.37-5.38,0-4.31-3.64-5.55-9.94-6.87-11.84-2.48-18.64-7.12-18.64-16.81,0-11.1,9.77-17.14,21.95-17.14,8.37,0,15.24,2.48,20.21,7.45l-7.37,9.19c-4.14-3.31-8.37-5.05-12.67-5.05s-7.62,1.49-7.62,4.89c0,3.15,2.65,4.64,9.53,6.21,12.42,2.73,19.13,8.12,19.13,18.06,0,11.1-9.86,17.15-23.19,17.15-9.03,0-16.98-3.56-21.7-8.53Z"/>
  </g>
  <g>
    <path class="cls-2" d="M731.78,56.22h16.57l20.95,55.91h-14.33l-4.06-11.26h-21.95l-4.06,11.26h-14.08l20.95-55.91ZM726.32,39.07h8.95c.66,3.89,1.41,5.22,4.72,5.22s4.14-1.33,4.8-5.22h8.86c-.83,8.45-5.22,13.25-13.67,13.25s-12.84-4.8-13.67-13.25ZM739.9,70.13l-6.87,19.22h13.83l-6.87-19.22h-.08Z"/>
    <path class="cls-2" d="M790.91,56.22h14.41l13.25,41h.08l13.33-41h14.33l-19.46,55.91h-16.48l-19.46-55.91Z"/>
  </g>
  <g>
    <path class="cls-2" d="M864.49,77.75h24.52v11.84h-24.52v10.68h28.82v11.84h-42.24v-55.91h41.5v11.93h-28.08v9.61Z"/>
    <path class="cls-2" d="M901.84,56.22h23.36c16.07,0,27.75,11.76,27.75,27.75s-11.68,28.16-27.75,28.16h-23.36v-55.91ZM938.87,84.05c0-8.7-6.05-15.16-14.33-15.16h-8.95v30.65h8.95c8.2,0,14.33-6.54,14.33-15.49Z"/>
  </g>
  <g>
    <path class="cls-2" d="M974.07,77.75h24.52v11.84h-24.52v10.68h28.82v11.84h-42.24v-55.91h41.5v11.93h-28.08v9.61Z"/>
    <path class="cls-2" d="M1036.27,68.81v43.32h-13.75v-43.32h-16.48v-12.67h46.63v12.67h-16.4ZM1025.83,114.61l9.36,1.33c-1.49,5.96-2.9,9.61-5.13,14.91l-7.37-1.57c1.49-5.55,2.32-9.61,3.15-14.66Z"/>
  </g>
  <path class="cls-2" d="M1057.38,56.14h13.83v55.99h-13.83v-55.99Z"/>
  <g>
    <path class="cls-2" d="M387.39,145.11h23.36c16.07,0,27.75,11.76,27.75,27.75s-11.68,28.16-27.75,28.16h-23.36v-55.91ZM424.41,172.94c0-8.7-6.05-15.16-14.33-15.16h-8.94v30.65h8.94c8.2,0,14.33-6.54,14.33-15.49Z"/>
    <path class="cls-2" d="M459.61,166.64h24.52v11.84h-24.52v10.68h28.82v11.84h-42.24v-55.91h41.5v11.93h-28.08v9.61Z"/>
  </g>
  <g>
    <path class="cls-2" d="M496.96,145.03h13.5l15.49,28.24,15.49-28.24h13.42v55.99h-13.75v-32.38l-12.84,23.69h-4.64l-12.92-23.69v32.38h-13.75v-55.99Z"/>
    <path class="cls-2" d="M562.39,173.1c0-16.81,12.18-28.99,29.07-28.99s28.99,12.09,28.99,28.82-12.26,29.07-29.07,29.07-28.99-12.09-28.99-28.91ZM606.28,173.1c0-9.44-6.21-16.32-14.83-16.32s-14.99,6.79-14.99,16.23,6.46,16.32,14.99,16.32,14.83-6.87,14.83-16.23Z"/>
    <path class="cls-2" d="M625.58,173.1c0-17.14,11.76-28.99,28.49-28.99,9.77,0,18.14,4.56,23.11,12.01l-9.77,7.54c-2.98-4.39-7.54-6.87-13-6.87-8.61,0-14.83,6.21-14.83,16.23s6.21,16.23,14.83,16.23c5.55,0,10.35-2.48,13.25-7.21l9.69,7.87c-4.72,7.21-13,12.09-23.27,12.09-16.48,0-28.49-11.76-28.49-28.91Z"/>
    <path class="cls-2" d="M683.38,145.11h23.11c12.84,0,21.2,7.12,21.2,17.72,0,8.37-5.14,14.49-13.42,16.81l14.33,21.37h-15.65l-13.42-20.38h-2.4v20.38h-13.75v-55.91ZM706.16,169.87c4.72,0,7.79-2.65,7.79-6.79s-3.06-6.63-7.79-6.63h-9.03v13.42h9.03Z"/>
  </g>
  <g>
    <path class="cls-2" d="M752.91,145.11h16.57l20.95,55.91h-14.33l-4.06-11.26h-21.95l-4.06,11.26h-14.08l20.95-55.91ZM761.02,159.02l-6.87,19.22h13.83l-6.87-19.22h-.08Z"/>
    <path class="cls-2" d="M815.77,157.7v43.32h-13.75v-43.32h-16.48v-12.67h46.63v12.67h-16.4ZM805.33,203.5l9.36,1.33c-1.49,5.96-2.9,9.61-5.13,14.91l-7.37-1.57c1.49-5.55,2.32-9.61,3.15-14.66Z"/>
  </g>
  <g>
    <path class="cls-2" d="M836.89,145.03h13.83v55.99h-13.83v-55.99Z"/>
    <path class="cls-2" d="M876.31,145.11h16.57l20.96,55.91h-14.33l-4.06-11.26h-21.95l-4.06,11.26h-14.08l20.95-55.91ZM884.43,159.02l-6.87,19.22h13.83l-6.87-19.22h-.08Z"/>
  </g>
  <g>
    <path class="cls-2" d="M379.11,224.62l14.99-8.61,15.24,8.61-3.15,6.54-12.09-4.8-11.84,4.8-3.15-6.54ZM387.39,233.9h13.83v55.99h-13.83v-55.99Z"/>
    <path class="cls-2" d="M412.32,233.9h12.51l23.6,32.8v-32.8h13.75v55.99h-12.26l-24.02-33.38v33.38h-13.58v-55.99Z"/>
    <path class="cls-2" d="M509.8,233.98h16.56l20.95,55.91h-14.33l-4.06-11.26h-21.95l-4.06,11.26h-14.08l20.95-55.91ZM517.91,247.9l-6.87,19.22h13.83l-6.87-19.22h-.08Z"/>
  </g>
  <g>
    <path class="cls-2" d="M546.43,261.98c0-17.14,11.76-28.99,28.49-28.99,9.77,0,18.14,4.55,23.11,12.01l-9.77,7.54c-2.98-4.39-7.54-6.88-13-6.88-8.61,0-14.83,6.21-14.83,16.23s6.21,16.23,14.83,16.23c5.55,0,10.35-2.49,13.25-7.21l9.69,7.87c-4.72,7.21-13,12.09-23.27,12.09-16.48,0-28.49-11.76-28.49-28.91Z"/>
    <path class="cls-2" d="M631.32,246.57v43.32h-13.75v-43.32h-16.48v-12.67h46.63v12.67h-16.4ZM620.89,292.37l9.36,1.33c-1.49,5.96-2.9,9.61-5.14,14.91l-7.37-1.57c1.49-5.55,2.32-9.61,3.15-14.66Z"/>
  </g>
  <g>
    <path class="cls-2" d="M652.4,233.9h13.83v55.99h-13.83v-55.99Z"/>
    <path class="cls-2" d="M676.17,268.03v-34.12h13.75v34.12c0,6.13,3.98,10.02,10.11,10.02s10.1-3.89,10.1-10.02v-34.12h13.58v34.12c0,13.83-9.36,22.78-23.69,22.78s-23.85-8.95-23.85-22.78Z"/>
    <path class="cls-2" d="M733.65,233.9h12.51l23.61,32.8v-32.8h13.75v55.99h-12.26l-24.02-33.38v33.38h-13.58v-55.99Z"/>
    <path class="cls-2" d="M807.61,255.52h24.52v11.84h-24.52v10.68h28.82v11.84h-42.24v-55.91h41.5v11.93h-28.08v9.61Z"/>
  </g>
  <g>
    <path class="cls-2" d="M386.07,328.33h2.27l5.87,15.3h.08l5.87-15.3h2.25l-6.81,17.62h-2.71l-6.81-17.62Z"/>
    <path class="cls-2" d="M405.49,328.33h2.17v17.62h-2.17v-17.62Z"/>
    <path class="cls-2" d="M411.03,344.54l10.94-14.31h-10.65v-1.91h13.63v1.38l-10.94,14.33h11.04v1.91h-14.02v-1.41Z"/>
    <path class="cls-2" d="M428.41,328.33h2.17v17.62h-2.17v-17.62Z"/>
  </g>
  <g>
    <path class="cls-2" d="M441.52,330.29v15.67h-2.14v-15.67h-5.95v-1.96h14.05v1.96h-5.95Z"/>
    <path class="cls-2" d="M453.71,328.33h2.66l7.1,17.62h-2.22l-1.98-4.91h-8.43l-1.98,4.91h-2.25l7.1-17.62ZM458.49,339.11l-3.45-8.54-3.45,8.54h6.89Z"/>
    <path class="cls-2" d="M470.7,330.29v15.67h-2.14v-15.67h-5.95v-1.96h14.05v1.96h-5.95ZM469.11,346.79l1.91.37c-.34,1.44-.81,2.77-1.54,4.57l-1.46-.31c.55-1.98.86-3.32,1.1-4.62Z"/>
  </g>
  <g>
    <path class="cls-2" d="M479.68,328.33h2.17v17.62h-2.17v-17.62Z"/>
    <path class="cls-2" d="M493.83,328.33h6.19c3.68,0,6.06,2.01,6.06,5.14s-2.4,5.22-6.08,5.22h-4.02v7.26h-2.14v-17.62ZM499.94,336.79c2.45,0,4.02-1.33,4.02-3.34s-1.59-3.21-3.99-3.21h-3.99v6.55h3.97Z"/>
  </g>
  <g>
    <path class="cls-2" d="M513.56,328.33h2.66l7.1,17.62h-2.22l-1.98-4.91h-8.43l-1.98,4.91h-2.25l7.1-17.62ZM518.34,339.11l-3.45-8.54-3.45,8.54h6.89Z"/>
    <path class="cls-2" d="M526.48,328.33h6.37c3.71,0,6.11,2.04,6.11,5.14,0,2.85-2.06,4.8-5.27,5.09l5.25,7.39h-2.43l-5.22-7.34h-2.64v7.34h-2.17v-17.62ZM532.8,336.66c2.45,0,4.02-1.1,4.02-3.19s-1.57-3.21-3.99-3.21h-4.18v6.4h4.15Z"/>
  </g>
  <g>
    <path class="cls-2" d="M543.28,328.33h2.14v15.64h9.14v1.98h-11.28v-17.62Z"/>
    <path class="cls-2" d="M564,328.33h2.66l7.1,17.62h-2.22l-1.98-4.91h-8.43l-1.98,4.91h-2.25l7.1-17.62ZM568.78,339.11l-3.45-8.54-3.45,8.54h6.89Z"/>
  </g>
  <g>
    <path class="cls-2" d="M576.92,328.33h2.19l6.32,11.44,6.29-11.44h2.19v17.62h-2.14v-13.5l-5.72,10.34h-1.28l-5.72-10.34v13.5h-2.14v-17.62Z"/>
    <path class="cls-2" d="M601.07,335.98h9.29v1.91h-9.29v6.16h10.76v1.91h-12.9v-17.62h12.66v1.91h-10.52v5.74Z"/>
  </g>
  <g>
    <path class="cls-2" d="M615.39,328.33h2.01l10.7,13.94v-13.94h2.17v17.62h-1.96l-10.81-14.05v14.05h-2.11v-17.62Z"/>
    <path class="cls-2" d="M641.39,330.29v15.67h-2.14v-15.67h-5.95v-1.96h14.05v1.96h-5.95Z"/>
    <path class="cls-2" d="M650.11,339.03v-10.7h2.14v10.65c0,3.26,1.91,5.14,4.96,5.14s4.93-1.91,4.93-5.14v-10.65h2.14v10.7c0,4.44-2.71,7.15-7.08,7.15s-7.1-2.72-7.1-7.15Z"/>
    <path class="cls-2" d="M668.96,328.33h2.14v15.64h9.14v1.98h-11.28v-17.62Z"/>
    <path class="cls-2" d="M692.76,335.98h9.29v1.91h-9.29v6.16h10.76v1.91h-12.9v-17.62h12.66v1.91h-10.52v5.74Z"/>
  </g>
  <g>
    <path class="cls-2" d="M707.01,339.03v-10.7h2.14v10.65c0,3.26,1.91,5.14,4.96,5.14s4.93-1.91,4.93-5.14v-10.65h2.14v10.7c0,4.44-2.72,7.15-7.08,7.15s-7.1-2.72-7.1-7.15Z"/>
    <path class="cls-2" d="M725.98,328.33h6.37c3.71,0,6.11,2.04,6.11,5.14,0,2.85-2.06,4.8-5.27,5.09l5.25,7.39h-2.43l-5.22-7.34h-2.64v7.34h-2.17v-17.62ZM732.3,336.66c2.45,0,4.02-1.1,4.02-3.19s-1.57-3.21-3.99-3.21h-4.18v6.4h4.15Z"/>
  </g>
  <g>
    <path class="cls-2" d="M741.71,337.13c0-5.25,3.73-9.06,8.9-9.06s8.9,3.81,8.9,9.06-3.76,9.08-8.93,9.08-8.88-3.81-8.88-9.08ZM757.27,337.13c0-4.07-2.79-7.02-6.66-7.02s-6.68,2.95-6.68,7.02,2.85,7.05,6.68,7.05,6.66-2.98,6.66-7.05Z"/>
    <path class="cls-2" d="M763.59,328.33h6.19c3.68,0,6.06,2.01,6.06,5.14s-2.4,5.22-6.08,5.22h-4.02v7.26h-2.14v-17.62ZM769.7,336.79c2.45,0,4.02-1.33,4.02-3.34s-1.59-3.21-3.99-3.21h-4v6.55h3.97Z"/>
  </g>
  <g>
    <path class="cls-2" d="M781.3,335.98h9.29v1.91h-9.29v6.16h10.76v1.91h-12.9v-17.62h12.66v1.91h-10.52v5.74Z"/>
    <path class="cls-2" d="M801.87,328.33h2.66l7.1,17.62h-2.22l-1.98-4.91h-8.43l-1.98,4.91h-2.25l7.1-17.62ZM806.65,339.11l-3.45-8.54-3.45,8.54h6.89Z"/>
  </g>
  <path class="cls-2" d="M814.78,328.33h2.01l10.7,13.94v-13.94h2.17v17.62h-1.96l-10.81-14.05v14.05h-2.12v-17.62Z"/>
</svg>