<?xml version="1.0" encoding="UTF-8"?>
<svg xmlns="http://www.w3.org/2000/svg" viewBox="0 0 1356 400">
  <defs>
    <style>
      .cls-1 {
        fill: #0c4da2;
      }

      .cls-2 {
        font-family: Europea-Extrabold, Europea;
        font-size: 85.69px;
        font-weight: 700;
      }

      .cls-2, .cls-3 {
        fill: #fff;
      }

      .cls-4 {
        fill: #fff200;
      }
    </style>
  </defs>
  <polygon class="cls-1" points="0 0 0 400 1356 400 1356 0 0 0 0 0"/>
  <polygon class="cls-4" points="186.77 1.45 174.2 40.63 132.92 40.36 166.38 64.51 153.44 103.61 186.77 79.22 220.04 103.61 207.1 64.51 240.48 40.36 199.3 40.63 186.77 1.45 186.77 1.45"/>
  <polygon class="cls-4" points="226.68 148.58 214.06 187.72 172.78 187.48 206.29 211.64 193.35 250.69 226.68 226.35 259.91 250.69 247.01 211.64 280.38 187.48 239.2 187.72 226.68 148.58 226.68 148.58"/>
  <polygon class="cls-4" points="187.05 295.67 174.62 335.05 133.34 334.72 166.9 358.83 153.9 397.92 187.05 373.45 220.46 397.92 207.52 358.83 240.99 334.77 199.76 335.05 187.05 295.67 187.05 295.67"/>
  <g>
    <path class="cls-3" d="M413.54,68.5v44.82h-14.23v-44.82h-17.05v-13.11h48.25v13.11h-16.97Z"/>
    <path class="cls-3" d="M434.7,90.7v-35.31h14.23v35.31c0,6.34,4.11,10.37,10.45,10.37s10.45-4.03,10.45-10.37v-35.31h14.05v35.31c0,14.31-9.68,23.57-24.51,23.57s-24.68-9.25-24.68-23.57Z"/>
    <path class="cls-3" d="M493.4,55.39h14.14v44.9h25.54v13.03h-39.68v-57.93Z"/>
    <path class="cls-3" d="M552.26,77.76h25.37v12.25h-25.37v11.05h29.82v12.25h-43.7v-57.84h42.93v12.34h-29.05v9.94Z"/>
  </g>
  <g>
    <path class="cls-3" d="M639.09,68.5v44.82h-14.23v-44.82h-17.05v-13.11h48.25v13.11h-16.97Z"/>
    <path class="cls-3" d="M657.94,84.44c0-17.4,12.6-29.99,30.08-29.99s29.99,12.51,29.99,29.82-12.68,30.08-30.08,30.08-29.99-12.51-29.99-29.91ZM703.36,84.44c0-9.77-6.43-16.88-15.34-16.88s-15.51,7.03-15.51,16.8,6.68,16.88,15.51,16.88,15.34-7.11,15.34-16.8Z"/>
  </g>
  <g>
    <path class="cls-3" d="M726.06,55.48h24.17c16.62,0,28.71,12.17,28.71,28.71s-12.08,29.14-28.71,29.14h-24.17v-57.84ZM764.37,84.27c0-9-6.26-15.68-14.83-15.68h-9.25v31.71h9.25c8.48,0,14.83-6.77,14.83-16.02Z"/>
    <path class="cls-3" d="M787.07,55.39h14.31v57.93h-14.31v-57.93Z"/>
  </g>
  <g>
    <path class="cls-3" d="M808.31,105.52l7.88-9.77c3.43,3.94,9.17,6.51,14.83,6.51,4.71,0,8.66-1.71,8.66-5.57,0-4.46-3.77-5.74-10.28-7.11-12.25-2.57-19.28-7.37-19.28-17.4,0-11.48,10.11-17.74,22.71-17.74,8.65,0,15.77,2.57,20.91,7.71l-7.63,9.51c-4.28-3.43-8.66-5.23-13.11-5.23s-7.88,1.54-7.88,5.06c0,3.26,2.74,4.8,9.86,6.43,12.85,2.83,19.79,8.4,19.79,18.68,0,11.48-10.2,17.74-23.99,17.74-9.34,0-17.57-3.68-22.45-8.83Z"/>
    <path class="cls-3" d="M888.08,68.5v44.82h-14.22v-44.82h-17.05v-13.11h48.25v13.11h-16.97Z"/>
  </g>
  <g>
    <path class="cls-3" d="M920.24,55.48h17.14l21.68,57.84h-14.83l-4.2-11.65h-22.71l-4.2,11.65h-14.57l21.68-57.84ZM928.64,69.87l-7.11,19.88h14.31l-7.11-19.88h-.08Z"/>
    <path class="cls-3" d="M964.03,55.39h13.97l16.03,29.22,16.02-29.22h13.88v57.93h-14.22v-33.51l-13.28,24.51h-4.8l-13.37-24.51v33.51h-14.23v-57.93Z"/>
    <path class="cls-3" d="M1050.57,55.48h17.14l21.68,57.84h-14.83l-4.2-11.65h-22.71l-4.2,11.65h-14.57l21.68-57.84ZM1058.97,69.87l-7.11,19.88h14.31l-7.11-19.88h-.08Z"/>
  </g>
  <g>
    <path class="cls-3" d="M1113.68,55.48h17.14l21.68,57.84h-14.83l-4.2-11.65h-22.71l-4.2,11.65h-14.57l21.68-57.84ZM1122.08,69.87l-7.11,19.88h14.31l-7.11-19.88h-.08Z"/>
    <path class="cls-3" d="M1157.47,55.39h12.94l24.42,33.93v-33.93h14.23v57.93h-12.68l-24.85-34.53v34.53h-14.05v-57.93Z"/>
  </g>
  <text class="cls-2" transform="translate(1214.79 113.32)"><tspan x="0" y="0"> </tspan></text>
  <g>
    <path class="cls-3" d="M387.57,144.23h24.17c16.62,0,28.71,12.17,28.71,28.71s-12.08,29.14-28.71,29.14h-24.17v-57.84ZM425.88,173.02c0-9-6.26-15.68-14.82-15.68h-9.25v31.71h9.25c8.48,0,14.82-6.77,14.82-16.02Z"/>
    <path class="cls-3" d="M462.29,166.51h25.37v12.25h-25.37v11.05h29.82v12.25h-43.7v-57.84h42.93v12.34h-29.05v9.94Z"/>
  </g>
  <g>
    <path class="cls-3" d="M500.95,144.14h13.97l16.02,29.22,16.02-29.22h13.88v57.93h-14.23v-33.51l-13.28,24.51h-4.8l-13.37-24.51v33.51h-14.23v-57.93Z"/>
    <path class="cls-3" d="M568.81,173.19c0-17.4,12.6-29.99,30.08-29.99s29.99,12.51,29.99,29.82-12.68,30.08-30.08,30.08-29.99-12.51-29.99-29.91ZM614.23,173.19c0-9.77-6.43-16.88-15.34-16.88s-15.51,7.03-15.51,16.8,6.68,16.88,15.51,16.88,15.34-7.11,15.34-16.8Z"/>
    <path class="cls-3" d="M651.07,175.68v26.39h-14.23v-57.84h14.23v25.37l18.42-25.37h16.54l-21.08,28.36,21.85,29.48h-16.54l-19.2-26.39Z"/>
  </g>
  <g>
    <path class="cls-3" d="M692.01,144.23h23.91c13.28,0,21.94,7.37,21.94,18.34,0,8.66-5.31,15-13.88,17.4l14.83,22.11h-16.2l-13.88-21.08h-2.48v21.08h-14.23v-57.84ZM715.57,169.85c4.88,0,8.06-2.74,8.06-7.03s-3.17-6.86-8.06-6.86h-9.34v13.88h9.34Z"/>
    <path class="cls-3" d="M763.99,144.23h17.14l21.68,57.84h-14.83l-4.2-11.65h-22.71l-4.2,11.65h-14.57l21.68-57.84ZM772.39,158.62l-7.11,19.88h14.31l-7.11-19.88h-.08Z"/>
  </g>
  <g>
    <path class="cls-3" d="M827.62,157.25v44.82h-14.23v-44.82h-17.05v-13.11h48.25v13.11h-16.97Z"/>
    <path class="cls-3" d="M849.47,144.14h14.31v57.93h-14.31v-57.93Z"/>
  </g>
  <g>
    <path class="cls-3" d="M890.23,144.23h17.14l21.68,57.84h-14.83l-4.2-11.65h-22.71l-4.2,11.65h-14.57l21.68-57.84ZM898.63,158.62l-7.11,19.88h14.31l-7.11-19.88h-.08Z"/>
    <path class="cls-3" d="M953.38,144.23h17.14l21.68,57.84h-14.83l-4.2-11.65h-22.71l-4.2,11.65h-14.57l21.68-57.84ZM961.78,158.62l-7.11,19.88h14.31l-7.11-19.88h-.09Z"/>
  </g>
  <g>
    <path class="cls-3" d="M401.8,264.43v26.39h-14.23v-57.84h14.23v25.37l18.42-25.37h16.54l-21.08,28.36,21.85,29.48h-16.54l-19.2-26.39Z"/>
    <path class="cls-3" d="M461.95,232.98h17.14l21.68,57.84h-14.83l-4.2-11.65h-22.71l-4.2,11.65h-14.57l21.68-57.84ZM454.32,222.35c0-3.86,2.91-6.68,6.68-6.68s6.77,2.83,6.77,6.68-2.83,6.77-6.77,6.77-6.68-2.83-6.68-6.77ZM470.35,247.37l-7.11,19.88h14.31l-7.11-19.88h-.09ZM473.09,222.35c0-3.86,2.91-6.68,6.77-6.68s6.68,2.83,6.68,6.68-2.83,6.77-6.68,6.77-6.77-2.83-6.77-6.77Z"/>
  </g>
  <g>
    <path class="cls-3" d="M509.78,232.89l11.48,21.68,11.23-21.68h16.02l-20.22,35.99v21.94h-14.31v-22.19l-20.31-35.73h16.11Z"/>
    <path class="cls-3" d="M582.18,246v44.82h-14.23v-44.82h-17.05v-13.11h48.25v13.11h-16.97Z"/>
  </g>
  <g>
    <path class="cls-3" d="M614.33,232.98h17.14l21.68,57.84h-14.83l-4.2-11.65h-22.71l-4.2,11.65h-14.57l21.68-57.84ZM606.7,222.35c0-3.86,2.91-6.68,6.68-6.68s6.77,2.83,6.77,6.68-2.83,6.77-6.77,6.77-6.68-2.83-6.68-6.77ZM622.73,247.37l-7.11,19.88h14.31l-7.11-19.88h-.09ZM625.47,222.35c0-3.86,2.91-6.68,6.77-6.68s6.68,2.83,6.68,6.68-2.83,6.77-6.68,6.77-6.77-2.83-6.77-6.77Z"/>
    <path class="cls-3" d="M658.46,232.89h12.94l24.42,33.93v-33.93h14.22v57.93h-12.68l-24.85-34.53v34.53h-14.05v-57.93Z"/>
    <path class="cls-3" d="M720.58,232.89h12.94l24.42,33.93v-33.93h14.23v57.93h-12.68l-24.85-34.53v34.53h-14.05v-57.93Z"/>
    <path class="cls-3" d="M780.22,261.94c0-17.4,12.6-29.99,30.08-29.99s29.99,12.51,29.99,29.82-12.68,30.08-30.08,30.08-29.99-12.51-29.99-29.91ZM794.02,222.35c0-3.86,2.91-6.68,6.68-6.68s6.77,2.83,6.77,6.68-2.83,6.77-6.77,6.77-6.68-2.83-6.68-6.77ZM825.64,261.94c0-9.77-6.43-16.88-15.34-16.88s-15.51,7.03-15.51,16.79,6.68,16.88,15.51,16.88,15.34-7.11,15.34-16.8ZM812.78,222.35c0-3.86,2.91-6.68,6.77-6.68s6.68,2.83,6.68,6.68-2.83,6.77-6.68,6.77-6.77-2.83-6.77-6.77Z"/>
    <path class="cls-3" d="M844.91,283.02l7.88-9.77c3.43,3.94,9.17,6.51,14.83,6.51,4.71,0,8.66-1.71,8.66-5.57,0-4.46-3.77-5.74-10.28-7.11-12.25-2.57-19.28-7.37-19.28-17.4,0-11.48,10.11-17.74,22.71-17.74,8.66,0,15.77,2.57,20.91,7.71l-7.63,9.51c-4.29-3.43-8.66-5.23-13.11-5.23s-7.88,1.54-7.88,5.06c0,3.26,2.74,4.8,9.85,6.43,12.85,2.83,19.8,8.4,19.8,18.68,0,11.48-10.2,17.74-23.99,17.74-9.34,0-17.57-3.68-22.45-8.83Z"/>
    <path class="cls-3" d="M893.5,283.02l7.88-9.77c3.43,3.94,9.17,6.51,14.83,6.51,4.71,0,8.66-1.71,8.66-5.57,0-4.46-3.77-5.74-10.28-7.11-12.25-2.57-19.28-7.37-19.28-17.4,0-11.48,10.11-17.74,22.71-17.74,8.65,0,15.77,2.57,20.91,7.71l-7.63,9.51c-4.28-3.43-8.66-5.23-13.11-5.23s-7.88,1.54-7.88,5.06c0,3.26,2.74,4.8,9.86,6.43,12.85,2.83,19.79,8.4,19.79,18.68,0,11.48-10.2,17.74-23.99,17.74-9.34,0-17.57-3.68-22.45-8.83Z"/>
  </g>
  <path class="cls-3" d="M961.15,232.98h17.14l21.68,57.84h-14.83l-4.2-11.65h-22.71l-4.2,11.65h-14.57l21.68-57.84ZM953.52,222.35c0-3.86,2.91-6.68,6.68-6.68s6.77,2.83,6.77,6.68-2.83,6.77-6.77,6.77-6.68-2.83-6.68-6.77ZM969.55,247.37l-7.11,19.88h14.31l-7.11-19.88h-.08ZM972.29,222.35c0-3.86,2.91-6.68,6.77-6.68s6.68,2.83,6.68,6.68-2.83,6.77-6.68,6.77-6.77-2.83-6.77-6.77Z"/>
  <g>
    <path class="cls-3" d="M385.63,320.52h2.27l5.87,15.3h.08l5.87-15.3h2.25l-6.81,17.62h-2.71l-6.81-17.62Z"/>
    <path class="cls-3" d="M405.13,320.52h2.17v17.62h-2.17v-17.62Z"/>
  </g>
  <g>
    <path class="cls-3" d="M414.38,328.17h9.29v1.91h-9.29v6.16h10.76v1.91h-12.9v-17.62h12.66v1.91h-10.52v5.74Z"/>
    <path class="cls-3" d="M428.71,320.52h6.37c3.71,0,6.11,2.04,6.11,5.14,0,2.85-2.06,4.8-5.27,5.09l5.25,7.39h-2.43l-5.22-7.34h-2.64v7.34h-2.17v-17.62ZM435.03,328.85c2.45,0,4.02-1.1,4.02-3.19s-1.57-3.21-3.99-3.21h-4.18v6.4h4.15Z"/>
  </g>
  <g>
    <path class="cls-3" d="M451.3,320.52h2.66l7.1,17.62h-2.22l-1.98-4.91h-8.43l-1.98,4.91h-2.25l7.1-17.62ZM456.08,331.3l-3.45-8.54-3.45,8.54h6.89Z"/>
    <path class="cls-3" d="M464.22,320.52h2.17v17.62h-2.17v-17.62Z"/>
    <path class="cls-3" d="M471.16,320.52h2.14v15.64h9.14v1.98h-11.28v-17.62Z"/>
    <path class="cls-3" d="M487.76,328.17h9.29v1.91h-9.29v6.16h10.76v1.91h-12.9v-17.62h12.66v1.91h-10.52v5.74Z"/>
  </g>
  <g>
    <path class="cls-3" d="M511.88,328.17h9.29v1.91h-9.29v6.16h10.76v1.91h-12.9v-17.62h12.66v1.91h-10.52v5.74Z"/>
    <path class="cls-3" d="M525.89,331.22v-10.7h2.14v10.65c0,3.26,1.91,5.14,4.96,5.14s4.93-1.91,4.93-5.14v-10.65h2.14v10.7c0,4.44-2.71,7.15-7.08,7.15s-7.1-2.72-7.1-7.15Z"/>
  </g>
  <g>
    <path class="cls-3" d="M544.88,320.52h6.37c3.71,0,6.11,2.04,6.11,5.14,0,2.85-2.06,4.8-5.27,5.09l5.25,7.39h-2.43l-5.22-7.34h-2.64v7.34h-2.17v-17.62ZM551.2,328.85c2.45,0,4.02-1.1,4.02-3.19s-1.57-3.21-3.99-3.21h-4.18v6.4h4.15Z"/>
    <path class="cls-3" d="M560.59,329.32c0-5.25,3.73-9.06,8.9-9.06s8.9,3.81,8.9,9.06-3.76,9.08-8.93,9.08-8.88-3.81-8.88-9.08ZM576.15,329.32c0-4.07-2.79-7.02-6.66-7.02s-6.68,2.95-6.68,7.02,2.85,7.05,6.68,7.05,6.66-2.98,6.66-7.05Z"/>
  </g>
  <g>
    <path class="cls-3" d="M581.54,329.32c0-5.25,3.73-9.06,8.9-9.06s8.9,3.81,8.9,9.06-3.76,9.08-8.93,9.08-8.88-3.81-8.88-9.08ZM597.1,329.32c0-4.07-2.79-7.02-6.66-7.02s-6.68,2.95-6.68,7.02,2.85,7.05,6.68,7.05,6.66-2.98,6.66-7.05Z"/>
    <path class="cls-3" d="M603.42,320.52h6.19c3.68,0,6.06,2.01,6.06,5.14s-2.4,5.22-6.08,5.22h-4.02v7.26h-2.14v-17.62ZM609.53,328.98c2.45,0,4.02-1.33,4.02-3.34s-1.59-3.21-3.99-3.21h-3.99v6.55h3.97Z"/>
  </g>
  <g>
    <path class="cls-3" d="M623.14,320.52h2.66l7.1,17.62h-2.22l-1.98-4.91h-8.43l-1.98,4.91h-2.25l7.1-17.62ZM627.92,331.3l-3.45-8.54-3.45,8.54h6.89Z"/>
    <path class="cls-3" d="M636.06,320.52h2.01l10.7,13.94v-13.94h2.17v17.62h-1.96l-10.81-14.05v14.05h-2.11v-17.62Z"/>
  </g>
  <g>
    <path class="cls-3" d="M662.91,320.52h6.19c3.68,0,6.06,2.01,6.06,5.14s-2.4,5.22-6.08,5.22h-4.02v7.26h-2.14v-17.62ZM669.02,328.98c2.45,0,4.02-1.33,4.02-3.34s-1.59-3.21-3.99-3.21h-3.99v6.55h3.97Z"/>
    <path class="cls-3" d="M682.64,320.52h2.66l7.1,17.62h-2.22l-1.98-4.91h-8.43l-1.98,4.91h-2.25l7.1-17.62ZM687.42,331.3l-3.45-8.54-3.45,8.54h6.89Z"/>
  </g>
  <g>
    <path class="cls-3" d="M695.56,320.52h6.37c3.71,0,6.11,2.04,6.11,5.14,0,2.85-2.06,4.8-5.27,5.09l5.25,7.39h-2.43l-5.22-7.34h-2.64v7.34h-2.17v-17.62ZM701.88,328.85c2.45,0,4.02-1.1,4.02-3.19s-1.57-3.21-3.99-3.21h-4.18v6.4h4.15Z"/>
    <path class="cls-3" d="M712.37,320.52h2.14v15.64h9.14v1.98h-11.28v-17.62Z"/>
  </g>
  <g>
    <path class="cls-3" d="M733.09,320.52h2.66l7.1,17.62h-2.22l-1.98-4.91h-8.43l-1.98,4.91h-2.25l7.1-17.62ZM737.87,331.3l-3.45-8.54-3.45,8.54h6.89Z"/>
    <path class="cls-3" d="M746.01,320.52h2.19l6.32,11.44,6.29-11.44h2.19v17.62h-2.14v-13.5l-5.72,10.34h-1.28l-5.72-10.34v13.5h-2.14v-17.62Z"/>
  </g>
  <g>
    <path class="cls-3" d="M770.14,328.17h9.29v1.91h-9.29v6.16h10.76v1.91h-12.9v-17.62h12.66v1.91h-10.52v5.74Z"/>
    <path class="cls-3" d="M784.47,320.52h2.01l10.7,13.94v-13.94h2.17v17.62h-1.96l-10.81-14.05v14.05h-2.12v-17.62Z"/>
  </g>
  <g>
    <path class="cls-3" d="M810.46,322.47v15.67h-2.14v-15.67h-5.95v-1.96h14.05v1.96h-5.95Z"/>
    <path class="cls-3" d="M819.52,320.52h2.17v17.62h-2.17v-17.62Z"/>
    <path class="cls-3" d="M825.31,335.29l1.59-1.33c1.02,1.46,2.98,2.4,4.88,2.4,2.69,0,4.49-1.1,4.49-2.85,0-2.22-1.83-2.71-4.57-3.42-3.66-.94-5.74-2.3-5.74-4.99,0-3.08,2.4-4.86,6.19-4.86,2.4,0,4.46.89,5.9,2.45l-1.41,1.51c-1.15-1.25-2.77-1.96-4.46-1.96-2.4,0-3.94.97-3.94,2.77,0,1.65,1.41,2.27,4.2,3.03,3.92,1.07,6.06,2.4,6.06,5.38s-2.69,4.96-6.68,4.96c-2.71,0-5.17-1.2-6.5-3.11Z"/>
    <path class="cls-3" d="M841.03,335.29l1.59-1.33c1.02,1.46,2.98,2.4,4.88,2.4,2.69,0,4.49-1.1,4.49-2.85,0-2.22-1.83-2.71-4.57-3.42-3.66-.94-5.74-2.3-5.74-4.99,0-3.08,2.4-4.86,6.19-4.86,2.4,0,4.46.89,5.9,2.45l-1.41,1.51c-1.15-1.25-2.77-1.96-4.46-1.96-2.4,0-3.94.97-3.94,2.77,0,1.65,1.41,2.27,4.2,3.03,3.92,1.07,6.06,2.4,6.06,5.38s-2.69,4.96-6.68,4.96c-2.71,0-5.17-1.2-6.5-3.11Z"/>
  </g>
  <path class="cls-3" d="M863.15,320.52h2.66l7.1,17.62h-2.22l-1.98-4.91h-8.43l-1.98,4.91h-2.25l7.1-17.62ZM867.93,331.3l-3.45-8.54-3.45,8.54h6.89Z"/>
</svg>