<?xml version="1.0" encoding="UTF-8"?>
<svg xmlns="http://www.w3.org/2000/svg" viewBox="0 0 1356 400">
  <defs>
    <style>
      .cls-1 {
        fill: #0c4da2;
      }

      .cls-2 {
        fill: #fff;
      }

      .cls-3 {
        fill: #fff200;
      }
    </style>
  </defs>
  <polygon class="cls-1" points="0 0 0 400 1356 400 1356 0 0 0 0 0"/>
  <polygon class="cls-3" points="186.77 1.45 174.2 40.63 132.92 40.36 166.38 64.51 153.44 103.61 186.77 79.22 220.04 103.61 207.1 64.51 240.48 40.36 199.3 40.63 186.77 1.45 186.77 1.45"/>
  <polygon class="cls-3" points="226.68 148.58 214.06 187.72 172.78 187.48 206.29 211.64 193.35 250.69 226.68 226.35 259.91 250.69 247.01 211.64 280.38 187.48 239.2 187.72 226.68 148.58 226.68 148.58"/>
  <polygon class="cls-3" points="187.05 295.67 174.62 335.05 133.34 334.72 166.9 358.83 153.9 397.92 187.05 373.45 220.46 397.92 207.52 358.83 240.99 334.77 199.76 335.05 187.05 295.67 187.05 295.67"/>
  <g>
    <path class="cls-2" d="M388,62.76h25.94c17.85,0,30.82,13.06,30.82,30.82s-12.97,31.28-30.82,31.28h-25.94v-62.1ZM429.12,93.67c0-9.66-6.72-16.83-15.92-16.83h-9.94v34.04h9.94c9.11,0,15.92-7.27,15.92-17.2Z"/>
    <path class="cls-2" d="M468.22,86.68h27.23v13.16h-27.23v11.87h32.01v13.16h-46.92v-62.1h46.09v13.25h-31.19v10.67Z"/>
  </g>
  <g>
    <path class="cls-2" d="M509.72,62.67h15l17.2,31.37,17.2-31.37h14.9v62.19h-15.27v-35.97l-14.26,26.31h-5.15l-14.35-26.31v35.97h-15.27v-62.19Z"/>
    <path class="cls-2" d="M582.58,93.86c0-18.67,13.52-32.2,32.29-32.2s32.2,13.43,32.2,32.01-13.62,32.29-32.29,32.29-32.2-13.43-32.2-32.11ZM631.34,93.86c0-10.49-6.9-18.12-16.47-18.12s-16.65,7.54-16.65,18.03,7.18,18.12,16.65,18.12,16.47-7.64,16.47-18.03Z"/>
    <path class="cls-2" d="M670.9,96.52v28.33h-15.27v-62.1h15.27v27.23l19.78-27.23h17.75l-22.63,30.45,23.46,31.65h-17.76l-20.61-28.33Z"/>
  </g>
  <g>
    <path class="cls-2" d="M714.85,62.76h25.67c14.26,0,23.55,7.91,23.55,19.69,0,9.29-5.7,16.1-14.9,18.67l15.92,23.73h-17.39l-14.9-22.63h-2.67v22.63h-15.27v-62.1ZM740.15,90.27c5.24,0,8.65-2.94,8.65-7.54s-3.4-7.36-8.65-7.36h-10.03v14.9h10.03Z"/>
    <path class="cls-2" d="M792.13,62.76h18.4l23.28,62.1h-15.92l-4.51-12.51h-24.38l-4.51,12.51h-15.64l23.28-62.1ZM801.15,78.22l-7.64,21.34h15.36l-7.64-21.34h-.09Z"/>
  </g>
  <g>
    <path class="cls-2" d="M859.91,62.76h18.4l23.28,62.1h-15.92l-4.51-12.51h-24.38l-4.51,12.51h-15.64l23.28-62.1ZM868.92,78.22l-7.64,21.34h15.36l-7.64-21.34h-.09Z"/>
    <path class="cls-2" d="M928.17,76.75v48.11h-15.27v-48.11h-18.31v-14.08h51.79v14.08h-18.21Z"/>
  </g>
  <g>
    <path class="cls-2" d="M951.67,62.67h15.36v62.19h-15.36v-62.19Z"/>
    <path class="cls-2" d="M995.46,62.76h18.4l23.28,62.1h-15.92l-4.51-12.51h-24.38l-4.51,12.51h-15.64l23.28-62.1ZM1004.47,78.22l-7.64,21.34h15.36l-7.64-21.34h-.09Z"/>
  </g>
  <path class="cls-2" d="M385.33,173.86c0-18.67,13.52-32.2,32.29-32.2s32.2,13.43,32.2,32.01-13.62,32.29-32.29,32.29-32.2-13.43-32.2-32.11ZM434.09,173.86c0-10.49-6.9-18.12-16.47-18.12s-16.65,7.54-16.65,18.03,7.18,18.12,16.65,18.12,16.47-7.64,16.47-18.03Z"/>
  <g>
    <path class="cls-2" d="M458.42,142.67h13.89l26.22,36.43v-36.43h15.27v62.19h-13.62l-26.68-37.07v37.07h-15.09v-62.19Z"/>
    <path class="cls-2" d="M576.92,156.75v48.11h-15.27v-48.11h-18.31v-14.08h51.79v14.08h-18.22Z"/>
  </g>
  <g>
    <path class="cls-2" d="M615.28,166.68h27.23v13.16h-27.23v11.87h32.01v13.16h-46.92v-62.1h46.09v13.25h-31.19v10.67Z"/>
    <path class="cls-2" d="M652.63,173.86c0-19.96,14.81-32.2,31.65-32.2,10.4,0,19.87,4.88,25.3,12.7l-10.76,8.56c-2.94-4.23-8.92-7.27-14.35-7.27-8.65,0-16.47,6.16-16.47,18.31,0,11.5,7.27,18.21,16.19,18.21,7.64,0,13.43-4.23,15.46-10.67h-16.47v-12.05h32.01v4.51c0,18.58-12.51,32.01-30.91,32.01s-31.65-12.97-31.65-32.11Z"/>
  </g>
  <path class="cls-2" d="M749.01,205.87c15.92,0,26.31-9.94,26.31-25.3v-37.9h-15.09v37.9c0,6.81-4.42,11.13-11.22,11.13s-11.22-4.32-11.22-11.13v-37.9h-15.27v37.9c0,15.36,10.3,25.3,26.49,25.3h0ZM786.73,204.86h25.94c17.85,0,30.82-13.16,30.82-31.28s-12.97-30.82-30.82-30.82h-25.94v62.1ZM811.94,190.88h-9.94v-34.04h9.94c9.2,0,15.92,7.18,15.92,16.84s-6.81,17.2-15.92,17.2h0ZM867.97,156.01h31.19v-13.25h-46.09v62.1h46.92v-13.16h-32.01v-11.87h27.23v-13.16h-27.23v-10.67ZM929.79,205.96c14.81,0,25.76-6.72,25.76-19.04,0-11.04-7.45-17.02-21.25-20.05-7.64-1.75-10.58-3.4-10.58-6.9,0-3.77,3.5-5.43,8.46-5.43s9.48,1.93,14.08,5.61l8.19-10.21c-5.52-5.52-13.16-8.28-22.45-8.28-13.52,0-24.38,6.72-24.38,19.04,0,10.76,7.54,15.92,20.7,18.68,6.99,1.47,11.04,2.85,11.04,7.64,0,4.14-4.23,5.98-9.29,5.98-6.07,0-12.24-2.76-15.92-6.99l-8.46,10.49c5.24,5.52,14.08,9.48,24.1,9.48h0ZM1034.48,173.58v-11.5h-52.99v11.5h52.99Z"/>
  <g>
    <path class="cls-2" d="M415.88,236.75v48.11h-15.27v-48.11h-18.31v-14.08h51.79v14.08h-18.22Z"/>
    <path class="cls-2" d="M439.61,260.57v-37.9h15.27v37.9c0,6.81,4.42,11.13,11.22,11.13s11.22-4.32,11.22-11.13v-37.9h15.09v37.9c0,15.36-10.4,25.3-26.31,25.3s-26.49-9.94-26.49-25.3Z"/>
    <path class="cls-2" d="M503.64,222.67h15.18v48.21h27.41v13.98h-42.59v-62.19Z"/>
    <path class="cls-2" d="M567.86,246.68h27.23v13.16h-27.23v11.87h32.01v13.16h-46.92v-62.1h46.09v13.25h-31.19v10.67Z"/>
    <path class="cls-2" d="M626.09,222.76h16.01l14.72,45.54h.09l14.81-45.54h15.92l-21.62,62.1h-18.31l-21.62-62.1Z"/>
  </g>
  <path class="cls-2" d="M703.95,222.76h18.4l23.28,62.1h-15.92l-4.51-12.51h-24.38l-4.51,12.51h-15.64l23.28-62.1ZM712.96,238.22l-7.64,21.34h15.36l-7.64-21.34h-.09Z"/>
  <g>
    <path class="cls-2" d="M771.71,222.76h18.4l23.28,62.1h-15.92l-4.51-12.51h-24.38l-4.51,12.51h-15.64l23.28-62.1ZM780.72,238.22l-7.64,21.34h15.36l-7.64-21.34h-.09Z"/>
    <path class="cls-2" d="M839.97,236.75v48.11h-15.27v-48.11h-18.31v-14.08h51.79v14.08h-18.21Z"/>
  </g>
  <g>
    <path class="cls-2" d="M874.56,222.76h18.4l23.28,62.1h-15.92l-4.51-12.51h-24.38l-4.51,12.51h-15.64l23.28-62.1ZM883.58,238.22l-7.64,21.34h15.36l-7.64-21.34h-.09Z"/>
    <path class="cls-2" d="M921.58,222.67h15l17.2,31.37,17.2-31.37h14.9v62.19h-15.27v-35.97l-14.26,26.31h-5.15l-14.35-26.31v35.97h-15.27v-62.19Z"/>
    <path class="cls-2" d="M1014.49,222.76h18.4l23.28,62.1h-15.92l-4.51-12.51h-24.38l-4.51,12.51h-15.64l23.28-62.1ZM1023.51,238.22l-7.64,21.34h15.36l-7.64-21.34h-.09Z"/>
  </g>
  <g>
    <path class="cls-2" d="M389.86,329.92v8.49h-2.17v-17.62h2.17v8.2l7.26-8.2h2.79l-7.7,8.62,8.07,9.01h-2.77l-7.65-8.49Z"/>
    <path class="cls-2" d="M403.17,331.49v-10.7h2.14v10.65c0,3.26,1.91,5.14,4.96,5.14s4.93-1.91,4.93-5.14v-10.65h2.14v10.7c0,4.44-2.71,7.15-7.08,7.15s-7.1-2.72-7.1-7.15ZM406.56,317.62c0-.76.57-1.33,1.33-1.33s1.36.57,1.36,1.33-.6,1.36-1.36,1.36-1.33-.58-1.33-1.36ZM411.34,317.62c0-.76.57-1.33,1.33-1.33s1.38.57,1.38,1.33-.6,1.36-1.38,1.36-1.33-.58-1.33-1.36Z"/>
  </g>
  <g>
    <path class="cls-2" d="M422.14,320.78h2.14v15.64h9.14v1.98h-11.28v-17.62Z"/>
    <path class="cls-2" d="M442.87,320.78h2.66l7.1,17.62h-2.22l-1.98-4.91h-8.43l-1.98,4.91h-2.25l7.1-17.62ZM447.65,331.57l-3.45-8.54-3.45,8.54h6.89Z"/>
  </g>
  <g>
    <path class="cls-2" d="M454.64,335.56l1.59-1.33c1.02,1.46,2.98,2.4,4.88,2.4,2.69,0,4.49-1.1,4.49-2.85,0-2.22-1.83-2.71-4.57-3.42-3.65-.94-5.74-2.3-5.74-4.99,0-3.08,2.4-4.86,6.19-4.86,2.4,0,4.46.89,5.9,2.45l-1.41,1.51c-1.15-1.25-2.77-1.96-4.46-1.96-2.4,0-3.94.97-3.94,2.77,0,1.65,1.41,2.27,4.2,3.03,3.92,1.07,6.06,2.4,6.06,5.38s-2.69,4.96-6.68,4.96c-2.71,0-5.17-1.2-6.5-3.11Z"/>
    <path class="cls-2" d="M478.16,322.74v15.67h-2.14v-15.67h-5.95v-1.96h14.05v1.96h-5.95Z"/>
  </g>
  <path class="cls-2" d="M490.34,320.78h2.66l7.1,17.62h-2.22l-1.98-4.91h-8.43l-1.98,4.91h-2.25l7.1-17.62ZM495.12,331.57l-3.45-8.54-3.45,8.54h6.89Z"/>
  <g>
    <path class="cls-2" d="M512.61,328.43h9.29v1.91h-9.29v6.16h10.76v1.91h-12.9v-17.62h12.66v1.91h-10.52v5.74Z"/>
    <path class="cls-2" d="M526.63,331.49v-10.7h2.14v10.65c0,3.26,1.91,5.14,4.96,5.14s4.93-1.91,4.93-5.14v-10.65h2.14v10.7c0,4.44-2.71,7.15-7.08,7.15s-7.1-2.72-7.1-7.15Z"/>
  </g>
  <g>
    <path class="cls-2" d="M545.61,320.78h6.37c3.71,0,6.11,2.04,6.11,5.14,0,2.85-2.06,4.8-5.27,5.09l5.25,7.39h-2.43l-5.22-7.34h-2.64v7.34h-2.17v-17.62ZM551.93,329.11c2.45,0,4.02-1.1,4.02-3.19s-1.57-3.21-3.99-3.21h-4.18v6.4h4.15Z"/>
    <path class="cls-2" d="M561.33,329.58c0-5.25,3.73-9.06,8.9-9.06s8.9,3.81,8.9,9.06-3.76,9.08-8.93,9.08-8.88-3.81-8.88-9.08ZM576.89,329.58c0-4.07-2.79-7.02-6.66-7.02s-6.68,2.95-6.68,7.02,2.85,7.05,6.68,7.05,6.66-2.98,6.66-7.05Z"/>
  </g>
  <g>
    <path class="cls-2" d="M582.28,329.58c0-5.25,3.73-9.06,8.9-9.06s8.9,3.81,8.9,9.06-3.76,9.08-8.93,9.08-8.88-3.81-8.88-9.08ZM597.84,329.58c0-4.07-2.79-7.02-6.66-7.02s-6.68,2.95-6.68,7.02,2.85,7.05,6.68,7.05,6.66-2.98,6.66-7.05Z"/>
    <path class="cls-2" d="M604.15,320.78h6.19c3.68,0,6.06,2.01,6.06,5.14s-2.4,5.22-6.08,5.22h-4.02v7.26h-2.14v-17.62ZM610.26,329.24c2.45,0,4.02-1.33,4.02-3.34s-1.59-3.21-3.99-3.21h-3.99v6.55h3.97Z"/>
  </g>
  <path class="cls-2" d="M623.88,320.78h2.66l7.1,17.62h-2.22l-1.98-4.91h-8.43l-1.98,4.91h-2.25l7.1-17.62ZM628.65,331.57l-3.45-8.54-3.45,8.54h6.89Z"/>
  <g>
    <path class="cls-2" d="M643.99,320.78h6.19c3.68,0,6.06,2.01,6.06,5.14s-2.4,5.22-6.08,5.22h-4.02v7.26h-2.14v-17.62ZM650.1,329.24c2.45,0,4.02-1.33,4.02-3.34s-1.59-3.21-3.99-3.21h-3.99v6.55h3.97Z"/>
    <path class="cls-2" d="M663.73,320.78h2.66l7.1,17.62h-2.22l-1.98-4.91h-8.43l-1.98,4.91h-2.25l7.1-17.62ZM668.51,331.57l-3.45-8.54-3.45,8.54h6.89Z"/>
  </g>
  <g>
    <path class="cls-2" d="M676.64,320.78h6.37c3.71,0,6.11,2.04,6.11,5.14,0,2.85-2.06,4.8-5.27,5.09l5.25,7.39h-2.43l-5.22-7.34h-2.64v7.34h-2.17v-17.62ZM682.96,329.11c2.45,0,4.02-1.1,4.02-3.19s-1.57-3.21-3.99-3.21h-4.18v6.4h4.15Z"/>
    <path class="cls-2" d="M693.45,320.78h2.14v15.64h9.14v1.98h-11.28v-17.62Z"/>
  </g>
  <g>
    <path class="cls-2" d="M714.19,320.78h2.66l7.1,17.62h-2.22l-1.98-4.91h-8.43l-1.98,4.91h-2.25l7.1-17.62ZM718.97,331.57l-3.45-8.54-3.45,8.54h6.89Z"/>
    <path class="cls-2" d="M727.11,320.78h2.19l6.32,11.44,6.29-11.44h2.19v17.62h-2.14v-13.5l-5.72,10.34h-1.28l-5.72-10.34v13.5h-2.14v-17.62Z"/>
  </g>
  <g>
    <path class="cls-2" d="M751.23,328.43h9.29v1.91h-9.29v6.16h10.76v1.91h-12.9v-17.62h12.66v1.91h-10.52v5.74Z"/>
    <path class="cls-2" d="M765.56,320.78h2.01l10.7,13.94v-13.94h2.17v17.62h-1.96l-10.81-14.05v14.05h-2.12v-17.62Z"/>
  </g>
  <g>
    <path class="cls-2" d="M791.55,322.74v15.67h-2.14v-15.67h-5.95v-1.96h14.05v1.96h-5.95Z"/>
    <path class="cls-2" d="M800.5,320.78h2.17v17.62h-2.17v-17.62Z"/>
  </g>
</svg>