<?xml version="1.0" encoding="UTF-8"?>
<svg xmlns="http://www.w3.org/2000/svg" viewBox="0 0 1356 400">
  <defs>
    <style>
      .cls-1 {
        fill: #0c4da2;
      }

      .cls-2 {
        fill: #fff;
      }

      .cls-3 {
        fill: #fff200;
      }
    </style>
  </defs>
  <polygon class="cls-1" points="0 0 0 400 1356 400 1356 0 0 0 0 0"/>
  <polygon class="cls-3" points="186.77 1.45 174.2 40.63 132.92 40.36 166.38 64.51 153.44 103.61 186.77 79.22 220.04 103.61 207.1 64.51 240.48 40.36 199.3 40.63 186.77 1.45 186.77 1.45"/>
  <polygon class="cls-3" points="226.68 148.58 214.06 187.72 172.78 187.48 206.29 211.64 193.35 250.69 226.68 226.35 259.91 250.69 247.01 211.64 280.38 187.48 239.2 187.72 226.68 148.58 226.68 148.58"/>
  <polygon class="cls-3" points="187.05 295.67 174.62 335.05 133.34 334.72 166.9 358.83 153.9 397.92 187.05 373.45 220.46 397.92 207.52 358.83 240.99 334.77 199.76 335.05 187.05 295.67 187.05 295.67"/>
  <g>
    <path class="cls-2" d="M412.54,78.5v43.41h-13.78v-43.41h-16.52v-12.7h46.72v12.7h-16.43Z"/>
    <path class="cls-2" d="M443.67,65.89h16.6l21,56.02h-14.36l-4.07-11.29h-21.99l-4.07,11.29h-14.11l21-56.02ZM451.8,79.83l-6.89,19.25h13.86l-6.89-19.25h-.08Z"/>
  </g>
  <g>
    <path class="cls-2" d="M486.12,65.89h23.15c12.86,0,21.25,7.14,21.25,17.76,0,8.38-5.15,14.52-13.44,16.85l14.36,21.41h-15.69l-13.44-20.42h-2.41v20.42h-13.78v-56.02ZM508.95,90.7c4.73,0,7.8-2.66,7.8-6.81s-3.07-6.64-7.8-6.64h-9.05v13.44h9.05Z"/>
    <path class="cls-2" d="M576.18,65.89h16.6l21,56.02h-14.36l-4.07-11.29h-21.99l-4.07,11.29h-14.11l21-56.02ZM584.31,79.83l-6.89,19.25h13.86l-6.89-19.25h-.08Z"/>
  </g>
  <g>
    <path class="cls-2" d="M613.4,93.94c0-18.01,13.36-29.05,28.55-29.05,9.38,0,17.93,4.4,22.82,11.45l-9.71,7.72c-2.66-3.82-8.05-6.56-12.95-6.56-7.8,0-14.86,5.56-14.86,16.52,0,10.37,6.56,16.43,14.61,16.43,6.89,0,12.12-3.82,13.94-9.63h-14.86v-10.87h28.88v4.07c0,16.76-11.29,28.88-27.89,28.88s-28.55-11.7-28.55-28.96Z"/>
    <path class="cls-2" d="M676.48,100v-34.19h13.78v34.19c0,6.14,3.98,10.04,10.13,10.04s10.12-3.9,10.12-10.04v-34.19h13.61v34.19c0,13.86-9.38,22.82-23.74,22.82s-23.9-8.96-23.9-22.82Z"/>
    <path class="cls-2" d="M729.85,114.35l7.63-9.46c3.32,3.82,8.88,6.31,14.36,6.31,4.57,0,8.38-1.66,8.38-5.39,0-4.32-3.65-5.56-9.96-6.89-11.87-2.49-18.67-7.14-18.67-16.85,0-11.12,9.79-17.18,21.99-17.18,8.38,0,15.27,2.49,20.25,7.47l-7.39,9.21c-4.15-3.32-8.38-5.06-12.7-5.06s-7.63,1.49-7.63,4.9c0,3.15,2.66,4.65,9.54,6.22,12.45,2.74,19.17,8.13,19.17,18.09,0,11.12-9.88,17.18-23.24,17.18-9.05,0-17.01-3.57-21.74-8.55Z"/>
  </g>
  <g>
    <path class="cls-2" d="M815.53,89.12h23.99v10.87h-23.99v21.91h-13.78v-56.1h41.08v11.45h-27.3v11.87Z"/>
    <path class="cls-2" d="M862.34,87.46h24.57v11.87h-24.57v10.71h28.88v11.87h-42.33v-56.02h41.58v11.95h-28.13v9.63ZM859.85,55.18l17.84-9.79,6.06,9.21-19.34,7.97-4.56-7.39Z"/>
  </g>
  <g>
    <path class="cls-2" d="M915.85,65.89h16.6l21,56.02h-14.36l-4.07-11.29h-21.99l-4.07,11.29h-14.11l21-56.02ZM923.99,79.83l-6.89,19.25h13.86l-6.89-19.25h-.08Z"/>
    <path class="cls-2" d="M953.04,93.94c0-17.18,11.79-29.05,28.55-29.05,9.79,0,18.18,4.56,23.16,12.03l-9.79,7.55c-2.99-4.4-7.55-6.89-13.03-6.89-8.63,0-14.86,6.22-14.86,16.27s6.22,16.27,14.86,16.27c5.56,0,10.37-2.49,13.28-7.22l9.71,7.88c-4.73,7.22-13.03,12.12-23.32,12.12-16.52,0-28.55-11.79-28.55-28.96Z"/>
  </g>
  <path class="cls-2" d="M1010.97,121.91v-56.02h13.69v21.58h21.16v-21.58h13.69v56.02h-13.69v-22.16h-21.16v22.16h-13.69Z"/>
  <g>
    <path class="cls-2" d="M403.33,151.88h16.6l21,56.02h-14.36l-4.07-11.29h-21.99l-4.07,11.29h-14.11l21-56.02ZM411.46,165.82l-6.89,19.25h13.86l-6.89-19.25h-.08Z"/>
    <path class="cls-2" d="M445.74,151.88h23.15c12.86,0,21.25,7.14,21.25,17.76,0,8.38-5.15,14.52-13.44,16.85l14.36,21.41h-15.69l-13.44-20.42h-2.41v20.42h-13.78v-56.02ZM468.57,176.69c4.73,0,7.8-2.66,7.8-6.81s-3.07-6.64-7.8-6.64h-9.05v13.44h9.05Z"/>
  </g>
  <g>
    <path class="cls-2" d="M535.79,151.88h16.6l21,56.02h-14.36l-4.07-11.29h-21.99l-4.07,11.29h-14.11l21-56.02ZM543.93,165.82l-6.89,19.25h13.86l-6.89-19.25h-.08Z"/>
    <path class="cls-2" d="M578.21,151.8h12.53l23.65,32.87v-32.87h13.78v56.1h-12.28l-24.07-33.45v33.45h-13.61v-56.1Z"/>
  </g>
  <g>
    <path class="cls-2" d="M659.96,151.88h23.4c16.1,0,27.8,11.79,27.8,27.8s-11.7,28.22-27.8,28.22h-23.4v-56.02ZM697.06,179.76c0-8.71-6.06-15.19-14.36-15.19h-8.96v30.71h8.96c8.22,0,14.36-6.56,14.36-15.52Z"/>
    <path class="cls-2" d="M731.75,151.88h16.6l21,56.02h-14.36l-4.07-11.29h-21.99l-4.07,11.29h-14.11l21-56.02ZM739.88,165.82l-6.89,19.25h13.86l-6.89-19.25h-.08Z"/>
  </g>
  <g>
    <path class="cls-2" d="M768.98,179.93c0-16.85,12.2-29.05,29.13-29.05s29.05,12.12,29.05,28.88-12.28,29.13-29.13,29.13-29.05-12.12-29.05-28.96ZM812.97,179.93c0-9.46-6.22-16.35-14.86-16.35s-15.02,6.81-15.02,16.27,6.47,16.35,15.02,16.35,14.86-6.89,14.86-16.27Z"/>
    <path class="cls-2" d="M834.88,151.8h12.53l23.65,32.87v-32.87h13.78v56.1h-12.28l-24.07-33.45v33.45h-13.61v-56.1Z"/>
  </g>
  <g>
    <path class="cls-2" d="M895.51,151.8h13.69v43.49h24.73v12.61h-38.43v-56.1Z"/>
    <path class="cls-2" d="M957.51,151.88h16.6l21,56.02h-14.36l-4.07-11.29h-21.99l-4.07,11.29h-14.11l21-56.02ZM965.64,165.82l-6.89,19.25h13.86l-6.89-19.25h-.08Z"/>
  </g>
  <g>
    <path class="cls-2" d="M1019.12,164.49v43.41h-13.78v-43.41h-16.52v-12.7h46.72v12.7h-16.43Z"/>
    <path class="cls-2" d="M1040.54,207.9v-56.02h13.69v21.58h21.16v-21.58h13.69v56.02h-13.69v-22.16h-21.16v22.16h-13.69Z"/>
    <path class="cls-2" d="M1115.15,151.88h16.6l21,56.02h-14.36l-4.07-11.29h-21.99l-4.07,11.29h-14.11l21-56.02ZM1123.29,165.82l-6.89,19.25h13.86l-6.89-19.25h-.08Z"/>
    <path class="cls-2" d="M1154.5,200.35l7.63-9.46c3.32,3.82,8.88,6.31,14.36,6.31,4.57,0,8.38-1.66,8.38-5.39,0-4.32-3.65-5.56-9.96-6.89-11.87-2.49-18.67-7.14-18.67-16.85,0-11.12,9.79-17.18,21.99-17.18,8.38,0,15.27,2.49,20.25,7.47l-7.39,9.21c-4.15-3.32-8.38-5.06-12.7-5.06s-7.63,1.49-7.63,4.9c0,3.15,2.66,4.65,9.54,6.22,12.45,2.74,19.17,8.13,19.17,18.09,0,11.12-9.88,17.18-23.24,17.18-9.05,0-17.01-3.57-21.74-8.55Z"/>
  </g>
  <path class="cls-2" d="M387.4,237.8h13.86v56.1h-13.86v-56.1Z"/>
  <g>
    <path class="cls-2" d="M452.3,263.78c-4.07,0-6.89,2.82-6.89,7.22v22.91h-13.2v-40.83h12.61l.33,4.56c2.74-3.4,6.97-5.56,11.37-5.56,8.71,0,14.77,6.64,14.77,16.18v25.64h-13.11v-23.07c0-4.23-2.32-7.05-5.89-7.05Z"/>
    <path class="cls-2" d="M477.53,265.94c0-18.01,13.36-29.05,28.55-29.05,9.38,0,17.93,4.4,22.82,11.45l-9.71,7.72c-2.66-3.82-8.05-6.56-12.95-6.56-7.8,0-14.86,5.56-14.86,16.52,0,10.37,6.56,16.43,14.61,16.43,6.89,0,12.12-3.82,13.94-9.63h-14.86v-10.87h28.88v4.07c0,16.76-11.29,28.88-27.89,28.88s-28.55-11.7-28.55-28.96Z"/>
    <path class="cls-2" d="M541.94,237.8h12.53l23.65,32.86v-32.86h13.78v56.1h-12.28l-24.07-33.45v33.45h-13.61v-56.1Z"/>
    <path class="cls-2" d="M598.63,227.1l17.84-9.79,6.06,9.21-19.34,7.97-4.56-7.39ZM602.28,237.8h13.86v56.1h-13.86v-56.1Z"/>
    <path class="cls-2" d="M624.11,265.94c0-16.85,12.2-29.05,29.13-29.05s29.05,12.12,29.05,28.88-12.28,29.13-29.13,29.13-29.05-12.12-29.05-28.96ZM668.09,265.94c0-9.46-6.22-16.35-14.86-16.35s-15.02,6.81-15.02,16.27,6.47,16.35,15.02,16.35,14.86-6.89,14.86-16.27Z"/>
    <path class="cls-2" d="M690.26,237.8h13.53l15.52,28.3,15.52-28.3h13.44v56.1h-13.78v-32.45l-12.86,23.74h-4.65l-12.95-23.74v32.45h-13.78v-56.1Z"/>
  </g>
  <path class="cls-2" d="M757.48,293.91v-56.02h13.69v21.58h21.16v-21.58h13.69v56.02h-13.69v-22.16h-21.16v22.16h-13.69Z"/>
  <g>
    <path class="cls-2" d="M393.88,333.19v15.67h-2.14v-15.67h-5.95v-1.96h14.05v1.96h-5.95Z"/>
    <path class="cls-2" d="M406.07,331.24h2.66l7.1,17.62h-2.22l-1.98-4.91h-8.43l-1.98,4.91h-2.25l7.1-17.62ZM410.85,342.02l-3.45-8.54-3.45,8.54h6.89Z"/>
  </g>
  <path class="cls-2" d="M418.99,331.24h6.81c3.47,0,5.67,1.65,5.67,4.41,0,1.98-.97,3.58-2.69,4.15,2.14.44,3.47,2.12,3.47,4.41,0,2.85-2.32,4.65-6.14,4.65h-7.13v-17.62ZM425.52,338.99c2.53,0,3.86-1.07,3.86-2.92,0-1.96-1.41-2.95-3.99-2.95h-4.26v5.87h4.39ZM425.78,346.95c2.9,0,4.33-1.1,4.33-3.03s-1.54-3.05-4.31-3.05h-4.67v6.08h4.65Z"/>
  <g>
    <path class="cls-2" d="M436.52,348.86v-17.62h2.14v7.81h10.08v-7.81h2.14v17.62h-2.14v-7.88h-10.08v7.88h-2.14Z"/>
    <path class="cls-2" d="M461.13,331.24h2.66l7.1,17.62h-2.22l-1.98-4.91h-8.43l-1.98,4.91h-2.25l7.1-17.62ZM465.91,342.02l-3.45-8.54-3.45,8.54h6.89Z"/>
    <path class="cls-2" d="M474.05,331.24h2.17v17.62h-2.17v-17.62Z"/>
    <path class="cls-2" d="M480.99,331.24h6.37c3.71,0,6.11,2.04,6.11,5.14,0,2.85-2.06,4.8-5.27,5.09l5.25,7.39h-2.43l-5.22-7.34h-2.64v7.34h-2.17v-17.62ZM487.31,339.57c2.45,0,4.02-1.1,4.02-3.19s-1.57-3.21-3.99-3.21h-4.18v6.4h4.15Z"/>
    <path class="cls-2" d="M504.07,340.04c0-5.25,3.66-9.06,8.72-9.06,3.39,0,6.34,1.83,7.7,4.67l-1.98.89c-1.04-2.19-3.24-3.52-5.72-3.52-3.79,0-6.5,2.87-6.5,7s2.74,7.05,6.5,7.05c2.45,0,4.83-1.38,5.77-3.65l1.96.94c-1.17,2.71-4.18,4.78-7.73,4.78-5.04,0-8.72-3.81-8.72-9.08Z"/>
    <path class="cls-2" d="M524.3,341.94v-10.7h2.14v10.65c0,3.26,1.91,5.14,4.96,5.14s4.93-1.91,4.93-5.14v-10.65h2.14v10.7c0,4.44-2.71,7.15-7.08,7.15s-7.1-2.72-7.1-7.15Z"/>
  </g>
  <g>
    <path class="cls-2" d="M548.09,331.24h2.66l7.1,17.62h-2.22l-1.98-4.91h-8.43l-1.98,4.91h-2.25l7.1-17.62ZM552.87,342.02l-3.45-8.54-3.45,8.54h6.89Z"/>
    <path class="cls-2" d="M560.99,331.24h2.17v17.62h-2.17v-17.62Z"/>
    <path class="cls-2" d="M567.9,331.24h6.37c3.71,0,6.11,2.04,6.11,5.14,0,2.85-2.06,4.8-5.27,5.09l5.25,7.39h-2.43l-5.22-7.34h-2.64v7.34h-2.17v-17.62ZM574.22,339.57c2.45,0,4.02-1.1,4.02-3.19s-1.57-3.21-3.99-3.21h-4.18v6.4h4.15Z"/>
    <path class="cls-2" d="M591.08,333.19v15.67h-2.14v-15.67h-5.95v-1.96h14.05v1.96h-5.95Z"/>
    <path class="cls-2" d="M612.23,331.24h2.66l7.1,17.62h-2.22l-1.98-4.91h-8.43l-1.98,4.91h-2.25l7.1-17.62ZM617,342.02l-3.45-8.54-3.45,8.54h6.89Z"/>
    <path class="cls-2" d="M625.12,331.24h6.37c3.71,0,6.11,2.04,6.11,5.14,0,2.85-2.06,4.8-5.27,5.09l5.25,7.39h-2.43l-5.22-7.34h-2.64v7.34h-2.17v-17.62ZM631.44,339.57c2.45,0,4.02-1.1,4.02-3.19s-1.57-3.21-3.99-3.21h-4.18v6.4h4.15Z"/>
    <path class="cls-2" d="M648.98,331.24h6.19c3.68,0,6.06,2.01,6.06,5.14s-2.4,5.22-6.08,5.22h-4.02v7.26h-2.14v-17.62ZM655.08,339.7c2.45,0,4.02-1.33,4.02-3.34s-1.59-3.21-3.99-3.21h-3.99v6.55h3.97Z"/>
    <path class="cls-2" d="M664.77,348.86v-17.62h2.14v7.81h10.08v-7.81h2.14v17.62h-2.14v-7.88h-10.08v7.88h-2.14Z"/>
    <path class="cls-2" d="M689.36,331.24h2.66l7.1,17.62h-2.22l-1.98-4.91h-8.43l-1.98,4.91h-2.25l7.1-17.62ZM694.13,342.02l-3.45-8.54-3.45,8.54h6.89Z"/>
    <path class="cls-2" d="M702.25,331.24h6.37c3.71,0,6.11,2.04,6.11,5.14,0,2.85-2.06,4.8-5.27,5.09l5.25,7.39h-2.43l-5.22-7.34h-2.64v7.34h-2.17v-17.62ZM708.57,339.57c2.45,0,4.02-1.1,4.02-3.19s-1.57-3.21-3.99-3.21h-4.18v6.4h4.15Z"/>
  </g>
  <g>
    <path class="cls-2" d="M719.7,331.24h2.14v15.64h9.14v1.98h-11.28v-17.62Z"/>
    <path class="cls-2" d="M740.43,331.24h2.66l7.1,17.62h-2.22l-1.98-4.91h-8.43l-1.98,4.91h-2.25l7.1-17.62ZM745.21,342.02l-3.45-8.54-3.45,8.54h6.89Z"/>
  </g>
  <g>
    <path class="cls-2" d="M753.35,331.24h2.17v17.62h-2.17v-17.62Z"/>
    <path class="cls-2" d="M760.42,331.24h2.19l6.32,11.44,6.29-11.44h2.19v17.62h-2.14v-13.5l-5.72,10.34h-1.28l-5.72-10.34v13.5h-2.14v-17.62Z"/>
    <path class="cls-2" d="M782.33,331.24h2.17v17.62h-2.17v-17.62Z"/>
    <path class="cls-2" d="M789.4,331.24h2.01l10.7,13.94v-13.94h2.17v17.62h-1.96l-10.81-14.05v14.05h-2.12v-17.62Z"/>
    <path class="cls-2" d="M815.37,333.19v15.67h-2.14v-15.67h-5.95v-1.96h14.05v1.96h-5.95Z"/>
    <path class="cls-2" d="M831.34,331.24h2.01l10.7,13.94v-13.94h2.17v17.62h-1.96l-10.81-14.05v14.05h-2.12v-17.62Z"/>
    <path class="cls-2" d="M856.61,331.24h2.66l7.1,17.62h-2.22l-1.98-4.91h-8.43l-1.98,4.91h-2.25l7.1-17.62ZM861.39,342.02l-3.45-8.54-3.45,8.54h6.89Z"/>
    <path class="cls-2" d="M882.4,338.1c-2.19,0-3.76,1.44-3.76,3.47v7.28h-2.04v-18.8h2.04v8.07c.89-1.2,2.4-1.96,3.97-1.96,2.95,0,4.86,2.04,4.86,5.14v7.54h-2.04v-7.26c0-2.12-1.2-3.5-3.03-3.5Z"/>
    <path class="cls-2" d="M894.02,338.89h9.29v1.91h-9.29v6.16h10.76v1.91h-12.9v-17.62h12.66v1.91h-10.52v5.74Z"/>
  </g>
  <g>
    <path class="cls-2" d="M907.28,340.04c0-5.25,3.73-9.06,8.9-9.06s8.9,3.81,8.9,9.06-3.76,9.08-8.93,9.08-8.88-3.81-8.88-9.08ZM922.84,340.04c0-4.07-2.79-7.02-6.66-7.02s-6.68,2.95-6.68,7.02,2.85,7.05,6.68,7.05,6.66-2.98,6.66-7.05Z"/>
    <path class="cls-2" d="M929.16,331.24h6.37c3.71,0,6.11,2.04,6.11,5.14,0,2.85-2.06,4.8-5.27,5.09l5.25,7.39h-2.43l-5.22-7.34h-2.64v7.34h-2.17v-17.62ZM935.47,339.57c2.45,0,4.02-1.1,4.02-3.19s-1.57-3.21-3.99-3.21h-4.18v6.4h4.15Z"/>
  </g>
  <g>
    <path class="cls-2" d="M945.95,331.24h6.19c3.68,0,6.06,2.01,6.06,5.14s-2.4,5.22-6.08,5.22h-4.02v7.26h-2.14v-17.62ZM952.06,339.7c2.45,0,4.02-1.33,4.02-3.34s-1.59-3.21-3.99-3.21h-4v6.55h3.97Z"/>
    <path class="cls-2" d="M965.69,331.24h2.66l7.1,17.62h-2.22l-1.98-4.91h-8.43l-1.98,4.91h-2.25l7.1-17.62ZM970.47,342.02l-3.45-8.54-3.45,8.54h6.89Z"/>
  </g>
</svg>