<?xml version="1.0" encoding="UTF-8"?>
<svg xmlns="http://www.w3.org/2000/svg" viewBox="0 0 1356 400">
  <defs>
    <style>
      .cls-1 {
        fill: #0c4da2;
      }

      .cls-2 {
        fill: #fff;
      }

      .cls-3 {
        fill: #fff200;
      }
    </style>
  </defs>
  <polygon class="cls-1" points="0 0 0 400 1356 400 1356 0 0 0 0 0"/>
  <polygon class="cls-3" points="186.77 1.45 174.2 40.63 132.92 40.36 166.38 64.51 153.44 103.61 186.77 79.22 220.04 103.61 207.1 64.51 240.48 40.36 199.3 40.63 186.77 1.45 186.77 1.45"/>
  <polygon class="cls-3" points="226.68 148.58 214.06 187.72 172.78 187.48 206.29 211.64 193.35 250.69 226.68 226.35 259.91 250.69 247.01 211.64 280.38 187.48 239.2 187.72 226.68 148.58 226.68 148.58"/>
  <polygon class="cls-3" points="187.05 295.67 174.62 335.05 133.34 334.72 166.9 358.83 153.9 397.92 187.05 373.45 220.46 397.92 207.52 358.83 240.99 334.77 199.76 335.05 187.05 295.67 187.05 295.67"/>
  <g>
    <path class="cls-2" d="M387,67.85h12.55l14.4,26.26,14.4-26.26h12.47v52.05h-12.78v-30.11l-11.93,22.02h-4.31l-12.01-22.02v30.11h-12.78v-52.05Z"/>
    <path class="cls-2" d="M450.21,99.57v-31.72h12.78v31.72c0,5.7,3.7,9.32,9.39,9.32s9.39-3.62,9.39-9.32v-31.72h12.63v31.72c0,12.86-8.7,21.17-22.02,21.17s-22.17-8.32-22.17-21.17ZM457.45,59.69l14.01-12.32,6.85,7.47-15.55,10.93-5.31-6.08ZM475.08,59.3l15.78-10.24,6.16,8.08-17.17,8.7-4.77-6.54Z"/>
  </g>
  <g>
    <path class="cls-2" d="M516.29,96.18v23.71h-12.78v-51.97h12.78v22.79l16.55-22.79h14.86l-18.94,25.49,19.63,26.49h-14.86l-17.25-23.71Z"/>
    <path class="cls-2" d="M547.86,93.95c0-15.63,11.32-26.95,27.03-26.95s26.95,11.24,26.95,26.79-11.4,27.03-27.03,27.03-26.95-11.24-26.95-26.87ZM560.25,58.38c0-3.46,2.62-6.01,6.01-6.01s6.08,2.54,6.08,6.01-2.54,6.08-6.08,6.08-6.01-2.54-6.01-6.08ZM588.67,93.95c0-8.78-5.77-15.17-13.78-15.17s-13.94,6.31-13.94,15.09,6.01,15.17,13.94,15.17,13.78-6.39,13.78-15.09ZM577.12,58.38c0-3.46,2.62-6.01,6.08-6.01s6.01,2.54,6.01,6.01-2.54,6.08-6.01,6.08-6.08-2.54-6.08-6.08Z"/>
  </g>
  <g>
    <path class="cls-2" d="M609.01,67.93h21.71c14.94,0,25.79,10.93,25.79,25.79s-10.86,26.18-25.79,26.18h-21.71v-51.97ZM643.42,93.8c0-8.08-5.62-14.09-13.32-14.09h-8.32v28.49h8.32c7.62,0,13.32-6.08,13.32-14.4Z"/>
    <path class="cls-2" d="M676.15,87.95h22.79v11.01h-22.79v9.93h26.79v11.01h-39.27v-51.97h38.57v11.09h-26.1v8.93ZM673.84,57.99l16.55-9.09,5.62,8.55-17.94,7.39-4.23-6.85Z"/>
  </g>
  <g>
    <path class="cls-2" d="M707.01,112.89l7.08-8.78c3.08,3.54,8.24,5.85,13.32,5.85,4.24,0,7.78-1.54,7.78-5,0-4-3.39-5.16-9.24-6.39-11.01-2.31-17.32-6.62-17.32-15.63,0-10.32,9.09-15.94,20.4-15.94,7.78,0,14.17,2.31,18.79,6.93l-6.85,8.55c-3.85-3.08-7.78-4.7-11.78-4.7s-7.08,1.39-7.08,4.54c0,2.93,2.46,4.31,8.85,5.77,11.55,2.54,17.79,7.55,17.79,16.79,0,10.32-9.16,15.94-21.56,15.94-8.39,0-15.78-3.31-20.17-7.93Z"/>
    <path class="cls-2" d="M754.75,67.93h23.48c10.93,0,17.79,4.85,17.79,13.17,0,5.47-2.85,9.86-8.01,11.78,5.93,1.69,9.93,6.16,9.93,12.78,0,8.85-7.08,14.24-19.09,14.24h-24.1v-51.97ZM776.69,88.79c4.31,0,6.78-1.92,6.78-5.24s-2.54-5.31-6.93-5.31h-9.47v10.55h9.62ZM777.77,109.58c4.93,0,7.54-2.08,7.54-5.62s-2.69-5.54-7.47-5.54h-10.78v11.16h10.7Z"/>
    <path class="cls-2" d="M818.35,87.95h22.79v11.01h-22.79v9.93h26.79v11.01h-39.27v-51.97h38.57v11.09h-26.1v8.93Z"/>
    <path class="cls-2" d="M853.23,67.85h11.63l21.94,30.49v-30.49h12.78v52.05h-11.39l-22.33-31.03v31.03h-12.63v-52.05Z"/>
  </g>
  <g>
    <path class="cls-2" d="M401.78,148.93h15.4l19.48,51.97h-13.32l-3.77-10.47h-20.4l-3.77,10.47h-13.09l19.48-51.97ZM409.33,161.87l-6.39,17.86h12.86l-6.39-17.86h-.08Z"/>
    <path class="cls-2" d="M461.46,148.93h21.71c14.94,0,25.79,10.93,25.79,25.79s-10.86,26.18-25.79,26.18h-21.71v-51.97ZM495.87,174.8c0-8.08-5.62-14.09-13.32-14.09h-8.32v28.49h8.32c7.62,0,13.32-6.08,13.32-14.4Z"/>
  </g>
  <path class="cls-2" d="M528.59,168.95h22.79v11.01h-22.79v9.93h26.79v11.01h-39.27v-51.97h38.57v11.09h-26.1v8.93Z"/>
  <g>
    <path class="cls-2" d="M563.33,148.86h12.55l14.4,26.26,14.4-26.26h12.47v52.05h-12.78v-30.1l-11.93,22.02h-4.31l-12.01-22.02v30.1h-12.78v-52.05Z"/>
    <path class="cls-2" d="M624.31,174.96c0-15.63,11.32-26.95,27.03-26.95s26.95,11.24,26.95,26.79-11.4,27.02-27.02,27.02-26.95-11.24-26.95-26.87ZM665.12,174.96c0-8.78-5.77-15.17-13.78-15.17s-13.94,6.31-13.94,15.09,6.01,15.17,13.94,15.17,13.78-6.39,13.78-15.09Z"/>
    <path class="cls-2" d="M698.23,177.19v23.71h-12.78v-51.97h12.78v22.79l16.55-22.79h14.86l-18.94,25.49,19.63,26.49h-14.86l-17.25-23.71Z"/>
  </g>
  <g>
    <path class="cls-2" d="M735.01,148.93h21.48c11.93,0,19.71,6.62,19.71,16.48,0,7.78-4.77,13.47-12.47,15.63l13.32,19.86h-14.55l-12.47-18.94h-2.23v18.94h-12.78v-51.97ZM756.19,171.96c4.39,0,7.24-2.46,7.24-6.31s-2.85-6.16-7.24-6.16h-8.39v12.47h8.39Z"/>
    <path class="cls-2" d="M799.69,148.93h15.4l19.48,51.97h-13.32l-3.77-10.47h-20.4l-3.77,10.47h-13.09l19.48-51.97ZM797.61,138.92l16.55-9.09,5.62,8.55-17.94,7.39-4.23-6.85ZM807.24,161.87l-6.39,17.86h12.86l-6.39-17.86h-.08Z"/>
  </g>
  <g>
    <path class="cls-2" d="M834.24,174.96c0-15.94,10.93-26.95,26.49-26.95,9.09,0,16.86,4.23,21.48,11.16l-9.09,7.01c-2.77-4.08-7.01-6.39-12.09-6.39-8.01,0-13.78,5.77-13.78,15.09s5.77,15.09,13.78,15.09c5.16,0,9.62-2.31,12.32-6.7l9.01,7.31c-4.39,6.7-12.09,11.24-21.64,11.24-15.32,0-26.49-10.93-26.49-26.87Z"/>
    <path class="cls-2" d="M887.91,148.86h12.86v52.05h-12.86v-52.05Z"/>
  </g>
  <path class="cls-2" d="M932.15,161.87l6.39,17.86h-12.86l6.39-17.86h.08ZM905.05,200.9h13.09l3.77-10.47h20.4l3.77,10.47h13.32l-19.48-51.97h-15.4l-19.48,51.97ZM1025.4,174.72v-9.62h-44.35v9.62h44.35Z"/>
  <g>
    <path class="cls-2" d="M382.84,272.12l10.24-5.62c1.23,2.85,3.7,4.39,6.78,4.39,4,0,6.54-2.85,6.54-7.31v-33.72h12.78v33.42c0,12.09-7.31,19.56-18.4,19.56-8.32,0-14.78-3.46-17.94-10.7Z"/>
    <path class="cls-2" d="M425.81,255.95c0-15.63,11.32-26.95,27.03-26.95s26.95,11.24,26.95,26.79-11.4,27.03-27.03,27.03-26.95-11.24-26.95-26.87ZM438.2,220.38c0-3.46,2.62-6.01,6.01-6.01s6.08,2.54,6.08,6.01-2.54,6.08-6.08,6.08-6.01-2.54-6.01-6.08ZM466.61,255.95c0-8.78-5.77-15.17-13.78-15.17s-13.94,6.31-13.94,15.09,6.01,15.17,13.94,15.17,13.78-6.39,13.78-15.09ZM455.06,220.38c0-3.46,2.62-6.01,6.08-6.01s6.01,2.54,6.01,6.01-2.54,6.08-6.01,6.08-6.08-2.54-6.08-6.08Z"/>
  </g>
  <g>
    <path class="cls-2" d="M481.18,272.12l10.24-5.62c1.23,2.85,3.7,4.39,6.78,4.39,4,0,6.54-2.85,6.54-7.31v-33.72h12.78v33.42c0,12.09-7.31,19.56-18.4,19.56-8.32,0-14.78-3.46-17.94-10.7Z"/>
    <path class="cls-2" d="M521.14,272.12l10.24-5.62c1.23,2.85,3.7,4.39,6.78,4.39,4,0,6.54-2.85,6.54-7.31v-33.72h12.78v33.42c0,12.09-7.31,19.56-18.4,19.56-8.32,0-14.78-3.46-17.94-10.7Z"/>
  </g>
  <path class="cls-2" d="M564.05,255.95c0-15.63,11.32-26.95,27.03-26.95s26.95,11.24,26.95,26.79-11.4,27.03-27.03,27.03-26.95-11.24-26.95-26.87ZM576.45,220.38c0-3.46,2.62-6.01,6.01-6.01s6.08,2.54,6.08,6.01-2.54,6.08-6.08,6.08-6.01-2.54-6.01-6.08ZM604.86,255.95c0-8.78-5.77-15.17-13.78-15.17s-13.94,6.31-13.94,15.09,6.01,15.17,13.94,15.17,13.78-6.39,13.78-15.09ZM593.31,220.38c0-3.46,2.62-6.01,6.08-6.01s6.01,2.54,6.01,6.01-2.54,6.08-6.01,6.08-6.08-2.54-6.08-6.08Z"/>
  <g>
    <path class="cls-2" d="M625.22,229.85h11.63l21.94,30.49v-30.49h12.78v52.05h-11.4l-22.33-31.03v31.03h-12.63v-52.05Z"/>
    <path class="cls-2" d="M713.54,249.94h22.79v11.01h-22.79v9.93h26.79v11.01h-39.27v-51.97h38.57v11.09h-26.1v8.93ZM711.23,219.99l16.55-9.09,5.62,8.55-17.94,7.39-4.23-6.85Z"/>
    <path class="cls-2" d="M745.19,274.89l7.08-8.78c3.08,3.54,8.24,5.85,13.32,5.85,4.24,0,7.78-1.54,7.78-5,0-4-3.39-5.16-9.24-6.39-11.01-2.31-17.32-6.62-17.32-15.63,0-10.32,9.08-15.94,20.4-15.94,7.78,0,14.17,2.31,18.79,6.93l-6.85,8.55c-3.85-3.08-7.78-4.7-11.78-4.7s-7.08,1.39-7.08,4.54c0,2.93,2.46,4.31,8.85,5.78,11.55,2.54,17.79,7.54,17.79,16.78,0,10.32-9.16,15.94-21.56,15.94-8.39,0-15.78-3.31-20.17-7.93Z"/>
    <path class="cls-2" d="M811.95,229.85h11.63l21.94,30.49v-30.49h12.78v52.05h-11.39l-22.33-31.03v31.03h-12.63v-52.05Z"/>
    <path class="cls-2" d="M881.09,249.94h22.79v11.01h-22.79v9.93h26.79v11.01h-39.27v-51.97h38.57v11.09h-26.1v8.93ZM878.78,219.99l16.55-9.09,5.62,8.55-17.94,7.39-4.23-6.85Z"/>
    <path class="cls-2" d="M912.66,273.74l24.87-32.96h-24.1v-10.93h40.96v8.16l-24.79,33.03h25.25v10.86h-42.19v-8.16Z"/>
    <path class="cls-2" d="M958.94,273.74l24.87-32.96h-24.1v-10.93h40.96v8.16l-24.79,33.03h25.25v10.86h-42.19v-8.16Z"/>
    <path class="cls-2" d="M1020.84,249.94h22.79v11.01h-22.79v9.93h26.79v11.01h-39.27v-51.97h38.57v11.09h-26.1v8.93Z"/>
    <path class="cls-2" d="M1074.74,229.85h12.55l14.4,26.25,14.4-26.25h12.47v52.05h-12.78v-30.11l-11.93,22.02h-4.31l-12.01-22.02v30.11h-12.78v-52.05Z"/>
  </g>
  <g>
    <path class="cls-2" d="M1149.59,249.94h22.79v11.01h-22.79v9.93h26.79v11.01h-39.27v-51.97h38.57v11.09h-26.1v8.93Z"/>
    <path class="cls-2" d="M1180.85,255.95c0-16.71,12.4-26.95,26.49-26.95,8.7,0,16.63,4.08,21.17,10.63l-9.01,7.16c-2.46-3.54-7.47-6.08-12.01-6.08-7.24,0-13.78,5.16-13.78,15.32,0,9.62,6.08,15.25,13.55,15.25,6.39,0,11.24-3.54,12.94-8.93h-13.78v-10.09h26.79v3.77c0,15.55-10.47,26.79-25.87,26.79s-26.49-10.86-26.49-26.87Z"/>
  </g>
  <g>
    <path class="cls-2" d="M387.69,320.23h2.14v15.64h9.14v1.98h-11.28v-17.62Z"/>
    <path class="cls-2" d="M408.42,320.23h2.66l7.1,17.62h-2.22l-1.98-4.91h-8.43l-1.98,4.91h-2.25l7.1-17.62ZM413.19,331.01l-3.45-8.54-3.45,8.54h6.89ZM407.5,317.28l4.83-2.51.97,1.91-5.06,1.98-.73-1.38Z"/>
  </g>
  <g>
    <path class="cls-2" d="M425.44,322.19v15.67h-2.14v-15.67h-5.95v-1.96h14.05v1.96h-5.95Z"/>
    <path class="cls-2" d="M432.72,329.03c0-5.25,3.73-9.06,8.9-9.06s8.9,3.81,8.9,9.06-3.76,9.08-8.93,9.08-8.88-3.81-8.88-9.08ZM448.28,329.03c0-4.07-2.79-7.02-6.66-7.02s-6.68,2.95-6.68,7.02,2.85,7.05,6.68,7.05,6.66-2.98,6.66-7.05Z"/>
  </g>
  <g>
    <path class="cls-2" d="M453.65,329.05c0-5.27,3.66-9.09,8.72-9.09,2.95,0,6.03,1.67,7.34,3.97l-1.85,1.07c-.99-1.75-3.29-3-5.46-3-3.79,0-6.53,2.95-6.53,7.05s2.66,7.02,6.37,7.02,5.93-2.35,6.24-5.69h-6.16v-1.83h8.41v.81c0,5.07-3.39,8.75-8.46,8.75s-8.62-3.81-8.62-9.06Z"/>
    <path class="cls-2" d="M479.34,320.23h2.66l7.1,17.62h-2.22l-1.98-4.91h-8.43l-1.98,4.91h-2.25l7.1-17.62ZM484.12,331.01l-3.45-8.54-3.45,8.54h6.89Z"/>
  </g>
  <g>
    <path class="cls-2" d="M491.1,335.01l1.59-1.33c1.02,1.46,2.98,2.4,4.88,2.4,2.69,0,4.49-1.1,4.49-2.85,0-2.22-1.83-2.71-4.57-3.42-3.65-.94-5.74-2.3-5.74-4.99,0-3.08,2.4-4.86,6.19-4.86,2.4,0,4.46.89,5.9,2.45l-1.41,1.51c-1.15-1.25-2.77-1.96-4.46-1.96-2.4,0-3.94.97-3.94,2.77,0,1.65,1.41,2.27,4.2,3.03,3.92,1.07,6.06,2.4,6.06,5.38s-2.69,4.96-6.68,4.96c-2.71,0-5.17-1.2-6.5-3.11Z"/>
    <path class="cls-2" d="M506.92,335.01l1.59-1.33c1.02,1.46,2.98,2.4,4.88,2.4,2.69,0,4.49-1.1,4.49-2.85,0-2.22-1.83-2.71-4.57-3.42-3.65-.94-5.74-2.3-5.74-4.99,0-3.08,2.4-4.86,6.19-4.86,2.4,0,4.46.89,5.9,2.45l-1.41,1.51c-1.15-1.25-2.77-1.96-4.46-1.96-2.4,0-3.94.97-3.94,2.77,0,1.65,1.41,2.27,4.2,3.03,3.92,1.07,6.06,2.4,6.06,5.38s-2.69,4.96-6.68,4.96c-2.71,0-5.17-1.2-6.5-3.11Z"/>
  </g>
  <g>
    <path class="cls-2" d="M522.87,329.03c0-5.25,3.73-9.06,8.9-9.06s8.9,3.81,8.9,9.06-3.76,9.08-8.93,9.08-8.88-3.81-8.88-9.08ZM538.43,329.03c0-4.07-2.79-7.02-6.66-7.02s-6.68,2.95-6.68,7.02,2.85,7.05,6.68,7.05,6.66-2.98,6.66-7.05Z"/>
    <path class="cls-2" d="M544.74,320.23h2.01l10.7,13.94v-13.94h2.17v17.62h-1.96l-10.81-14.05v14.05h-2.11v-17.62Z"/>
  </g>
  <g>
    <path class="cls-2" d="M573.73,327.88h9.29v1.91h-9.29v6.16h10.76v1.91h-12.9v-17.62h12.66v1.91h-10.52v5.74Z"/>
    <path class="cls-2" d="M588.06,320.23h2.14v15.64h9.14v1.98h-11.28v-17.62Z"/>
  </g>
  <g>
    <path class="cls-2" d="M615.22,320.23h2.66l7.1,17.62h-2.22l-1.98-4.91h-8.43l-1.98,4.91h-2.25l7.1-17.62ZM620,331.01l-3.45-8.54-3.45,8.54h6.89Z"/>
    <path class="cls-2" d="M627.49,336.44l10.94-14.31h-10.65v-1.91h13.63v1.38l-10.94,14.33h11.04v1.91h-14.02v-1.41Z"/>
  </g>
  <g>
    <path class="cls-2" d="M654.28,327.88h9.29v1.91h-9.29v6.16h10.76v1.91h-12.9v-17.62h12.66v1.91h-10.52v5.74Z"/>
    <path class="cls-2" d="M668.3,330.93v-10.7h2.14v10.65c0,3.26,1.91,5.14,4.96,5.14s4.93-1.91,4.93-5.14v-10.65h2.14v10.7c0,4.44-2.71,7.15-7.07,7.15s-7.1-2.72-7.1-7.15Z"/>
  </g>
  <g>
    <path class="cls-2" d="M687.28,320.23h6.37c3.71,0,6.11,2.04,6.11,5.14,0,2.85-2.06,4.8-5.27,5.09l5.25,7.39h-2.43l-5.22-7.34h-2.64v7.34h-2.17v-17.62ZM693.6,328.56c2.45,0,4.02-1.1,4.02-3.19s-1.57-3.21-3.99-3.21h-4.18v6.4h4.15Z"/>
    <path class="cls-2" d="M703,329.03c0-5.25,3.73-9.06,8.9-9.06s8.9,3.81,8.9,9.06-3.76,9.08-8.93,9.08-8.88-3.81-8.88-9.08ZM718.56,329.03c0-4.07-2.79-7.02-6.66-7.02s-6.68,2.95-6.68,7.02,2.85,7.05,6.68,7.05,6.66-2.98,6.66-7.05ZM709.47,317.28l4.83-2.51.97,1.91-5.07,1.98-.73-1.38Z"/>
  </g>
  <g>
    <path class="cls-2" d="M724.87,320.23h6.19c3.68,0,6.06,2.01,6.06,5.14s-2.4,5.22-6.08,5.22h-4.02v7.26h-2.14v-17.62ZM730.98,328.69c2.45,0,4.02-1.33,4.02-3.34s-1.59-3.21-3.99-3.21h-4v6.55h3.97Z"/>
    <path class="cls-2" d="M744.6,320.23h2.66l7.1,17.62h-2.22l-1.98-4.91h-8.43l-1.98,4.91h-2.25l7.1-17.62ZM749.38,331.01l-3.45-8.54-3.45,8.54h6.89Z"/>
  </g>
  <path class="cls-2" d="M757.52,320.23h2.17v17.62h-2.17v-17.62Z"/>
  <g>
    <path class="cls-2" d="M771.66,320.23h6.19c3.68,0,6.06,2.01,6.06,5.14s-2.4,5.22-6.08,5.22h-4.02v7.26h-2.14v-17.62ZM777.77,328.69c2.45,0,4.02-1.33,4.02-3.34s-1.59-3.21-3.99-3.21h-4v6.55h3.97Z"/>
    <path class="cls-2" d="M791.39,320.23h2.66l7.1,17.62h-2.22l-1.98-4.91h-8.43l-1.98,4.91h-2.25l7.1-17.62ZM796.17,331.01l-3.45-8.54-3.45,8.54h6.89Z"/>
  </g>
  <g>
    <path class="cls-2" d="M804.31,320.23h6.37c3.71,0,6.11,2.04,6.11,5.14,0,2.85-2.06,4.8-5.27,5.09l5.25,7.39h-2.43l-5.22-7.34h-2.64v7.34h-2.17v-17.62ZM810.63,328.56c2.45,0,4.02-1.1,4.02-3.19s-1.57-3.21-3.99-3.21h-4.18v6.4h4.15Z"/>
    <path class="cls-2" d="M821.12,320.23h2.14v15.64h9.14v1.98h-11.28v-17.62Z"/>
  </g>
  <g>
    <path class="cls-2" d="M841.85,320.23h2.66l7.1,17.62h-2.22l-1.98-4.91h-8.43l-1.98,4.91h-2.25l7.1-17.62ZM846.63,331.01l-3.45-8.54-3.45,8.54h6.89Z"/>
    <path class="cls-2" d="M854.77,320.23h2.19l6.32,11.44,6.29-11.44h2.19v17.62h-2.14v-13.5l-5.72,10.34h-1.28l-5.72-10.34v13.5h-2.14v-17.62Z"/>
  </g>
  <g>
    <path class="cls-2" d="M878.89,327.88h9.29v1.91h-9.29v6.16h10.76v1.91h-12.9v-17.62h12.66v1.91h-10.52v5.74Z"/>
    <path class="cls-2" d="M893.22,320.23h2.01l10.7,13.94v-13.94h2.17v17.62h-1.96l-10.81-14.05v14.05h-2.12v-17.62Z"/>
  </g>
  <g>
    <path class="cls-2" d="M919.22,322.19v15.67h-2.14v-15.67h-5.95v-1.96h14.05v1.96h-5.95Z"/>
    <path class="cls-2" d="M928.17,320.23h6.81c3.47,0,5.67,1.65,5.67,4.41,0,1.98-.97,3.58-2.69,4.15,2.14.44,3.47,2.12,3.47,4.41,0,2.85-2.32,4.65-6.13,4.65h-7.13v-17.62ZM934.7,327.98c2.53,0,3.86-1.07,3.86-2.92,0-1.96-1.41-2.95-4-2.95h-4.26v5.87h4.39ZM934.96,335.94c2.9,0,4.33-1.1,4.33-3.03s-1.54-3.05-4.31-3.05h-4.67v6.08h4.65Z"/>
  </g>
  <path class="cls-2" d="M947.83,327.88h9.29v1.91h-9.29v6.16h10.76v1.91h-12.9v-17.62h12.66v1.91h-10.52v5.74Z"/>
</svg>