<?xml version="1.0" encoding="UTF-8"?>
<svg xmlns="http://www.w3.org/2000/svg" viewBox="0 0 1356 400">
  <defs>
    <style>
      .cls-1 {
        fill: #0c4da2;
      }

      .cls-2 {
        fill: #fff;
      }

      .cls-3 {
        fill: #fff200;
      }
    </style>
  </defs>
  <polygon class="cls-1" points=".15 .15 .15 400.15 1356.15 400.15 1356.15 .15 .15 .15 .15 .15"/>
  <polygon class="cls-3" points="186.93 1.6 174.36 40.79 133.08 40.51 166.54 64.66 153.6 103.76 186.93 79.37 220.2 103.76 207.26 64.66 240.63 40.51 199.45 40.79 186.93 1.6 186.93 1.6"/>
  <polygon class="cls-3" points="226.83 148.73 214.22 187.87 172.94 187.63 206.44 211.79 193.5 250.85 226.83 226.5 260.06 250.85 247.16 211.79 280.53 187.63 239.36 187.87 226.83 148.73 226.83 148.73"/>
  <polygon class="cls-3" points="187.2 295.83 174.77 335.2 133.49 334.87 167.05 358.98 154.05 398.07 187.2 373.6 220.61 398.07 207.67 358.98 241.15 334.93 199.91 335.2 187.2 295.83 187.2 295.83"/>
  <g>
    <path class="cls-2" d="M382.52,54.91h15.44l14.2,43.93h.09l14.29-43.93h15.35l-20.86,59.9h-17.66l-20.86-59.9Z"/>
    <path class="cls-2" d="M461.33,77.98h26.27v12.69h-26.27v11.45h30.88v12.69h-45.26v-59.9h44.46v12.78h-30.08v10.29Z"/>
  </g>
  <g>
    <path class="cls-2" d="M501.41,54.82h13.4l25.29,35.14v-35.14h14.73v59.99h-13.13l-25.74-35.76v35.76h-14.55v-59.99Z"/>
    <path class="cls-2" d="M566.19,114.81v-59.9h14.64v23.07h22.63v-23.07h14.64v59.9h-14.64v-23.69h-22.63v23.69h-14.64Z"/>
    <path class="cls-2" d="M646.51,54.91h17.75l22.45,59.9h-15.35l-4.35-12.07h-23.52l-4.35,12.07h-15.09l22.45-59.9ZM655.21,69.82l-7.37,20.59h14.82l-7.37-20.59h-.09Z"/>
    <path class="cls-2" d="M708.81,54.91h15.44l14.2,43.93h.09l14.29-43.93h15.35l-20.86,59.9h-17.66l-20.86-59.9Z"/>
    <path class="cls-2" d="M788.5,77.98h26.27v12.69h-26.27v11.45h30.88v12.69h-45.26v-59.9h44.46v12.78h-30.08v10.29Z"/>
    <path class="cls-2" d="M828,54.91h24.76c13.75,0,22.72,7.63,22.72,18.99,0,8.96-5.5,15.53-14.38,18.02l15.35,22.9h-16.77l-14.38-21.83h-2.57v21.83h-14.73v-59.9ZM852.4,81.44c5.06,0,8.34-2.84,8.34-7.28s-3.28-7.1-8.34-7.1h-9.67v14.38h9.67Z"/>
  </g>
  <path class="cls-2" d="M404.97,143.65h17.75l22.45,59.9h-15.35l-4.35-12.07h-23.52l-4.35,12.07h-15.09l22.45-59.9ZM413.67,158.56l-7.37,20.59h14.82l-7.37-20.59h-.09Z"/>
  <g>
    <path class="cls-2" d="M473.75,143.65h25.03c17.22,0,29.73,12.6,29.73,29.73s-12.51,30.17-29.73,30.17h-25.03v-59.9ZM513.42,173.47c0-9.32-6.48-16.24-15.35-16.24h-9.58v32.84h9.58c8.79,0,15.35-7.01,15.35-16.6Z"/>
    <path class="cls-2" d="M551.14,166.72h26.27v12.69h-26.27v11.45h30.88v12.69h-45.26v-59.9h44.46v12.78h-30.08v10.29Z"/>
  </g>
  <g>
    <path class="cls-2" d="M591.17,143.56h14.46l16.6,30.26,16.6-30.26h14.38v59.99h-14.73v-34.7l-13.75,25.38h-4.97l-13.84-25.38v34.7h-14.73v-59.99Z"/>
    <path class="cls-2" d="M661.28,173.64c0-18.02,13.05-31.06,31.15-31.06s31.06,12.96,31.06,30.88-13.13,31.15-31.15,31.15-31.06-12.96-31.06-30.97ZM708.32,173.64c0-10.12-6.66-17.48-15.89-17.48s-16.06,7.28-16.06,17.39,6.92,17.48,16.06,17.48,15.89-7.37,15.89-17.39Z"/>
    <path class="cls-2" d="M729,173.64c0-18.37,12.6-31.06,30.53-31.06,10.47,0,19.44,4.88,24.76,12.87l-10.47,8.08c-3.19-4.7-8.08-7.37-13.93-7.37-9.23,0-15.89,6.66-15.89,17.39s6.66,17.39,15.89,17.39c5.95,0,11.09-2.66,14.2-7.72l10.38,8.43c-5.06,7.72-13.93,12.96-24.94,12.96-17.66,0-30.53-12.6-30.53-30.97Z"/>
    <path class="cls-2" d="M790.94,143.65h24.76c13.75,0,22.72,7.63,22.72,18.99,0,8.96-5.5,15.53-14.38,18.02l15.35,22.9h-16.77l-14.38-21.83h-2.57v21.83h-14.73v-59.9ZM815.35,170.18c5.06,0,8.34-2.84,8.34-7.28s-3.28-7.1-8.34-7.1h-9.67v14.38h9.67Z"/>
  </g>
  <g>
    <path class="cls-2" d="M865.44,143.65h17.75l22.45,59.9h-15.35l-4.35-12.07h-23.52l-4.35,12.07h-15.09l22.45-59.9ZM874.13,158.56l-7.37,20.59h14.82l-7.37-20.59h-.09Z"/>
    <path class="cls-2" d="M905.2,173.64c0-18.37,12.6-31.06,30.53-31.06,10.47,0,19.44,4.88,24.76,12.87l-10.47,8.08c-3.19-4.7-8.08-7.37-13.93-7.37-9.23,0-15.89,6.66-15.89,17.39s6.66,17.39,15.89,17.39c5.95,0,11.09-2.66,14.2-7.72l10.38,8.43c-5.06,7.72-13.93,12.96-24.94,12.96-17.66,0-30.53-12.6-30.53-30.97Z"/>
  </g>
  <g>
    <path class="cls-2" d="M967.09,143.56h14.82v59.99h-14.82v-59.99Z"/>
    <path class="cls-2" d="M1009.34,143.65h17.75l22.45,59.9h-15.35l-4.35-12.07h-23.52l-4.35,12.07h-15.09l22.45-59.9ZM1018.03,158.56l-7.37,20.59h14.82l-7.37-20.59h-.09Z"/>
  </g>
  <g>
    <path class="cls-2" d="M402.31,255.47h26.27v12.69h-26.27v11.45h30.88v12.69h-45.26v-59.9h44.46v12.78h-30.08v10.29Z"/>
    <path class="cls-2" d="M442.33,232.31h14.46l16.6,30.26,16.6-30.26h14.38v59.99h-14.73v-34.7l-13.75,25.38h-4.97l-13.84-25.38v34.7h-14.73v-59.99Z"/>
  </g>
  <g>
    <path class="cls-2" d="M555.42,232.4h17.75l22.45,59.9h-15.35l-4.35-12.07h-23.52l-4.35,12.07h-15.09l22.45-59.9ZM564.12,247.31l-7.37,20.59h14.82l-7.37-20.59h-.09Z"/>
    <path class="cls-2" d="M614.53,306.94l2.04-5.32c1.15.71,2.75,1.33,4.7,1.33,1.78,0,3.11-.53,3.11-1.95,0-1.15-1.42-2.13-3.91-1.86l-.89-1.33,1.33-4.79c-15.18-2.04-25.74-13.93-25.74-30.62,0-18.37,12.6-31.06,30.53-31.06,10.47,0,19.44,4.88,24.76,12.87l-10.47,8.08c-3.2-4.7-8.08-7.37-13.93-7.37-9.23,0-15.88,6.66-15.88,17.39s6.66,17.39,15.88,17.39c5.95,0,11.09-2.66,14.2-7.72l10.38,8.43c-4.53,6.92-12.16,11.89-21.65,12.78l-.53,2.31c3.55.53,6.48,2.48,6.48,6.39,0,5.24-5.5,7.54-11.45,7.54-3.46,0-7.01-.89-8.96-2.49Z"/>
  </g>
  <g>
    <path class="cls-2" d="M674.21,232.4h17.75l22.45,59.9h-15.35l-4.35-12.07h-23.52l-4.35,12.07h-15.09l22.45-59.9ZM676.34,214.38c5.5,0,9.58,4.53,11.71,4.53.98,0,1.86-.71,1.86-4.26h7.19c0,10.38-1.95,13.67-7.37,13.67s-9.58-4.44-11.8-4.44c-.98,0-1.78.62-1.78,4.17h-7.28c0-10.38,2.04-13.67,7.46-13.67ZM682.91,247.31l-7.37,20.59h14.82l-7.37-20.59h-.09Z"/>
    <path class="cls-2" d="M713.97,262.39c0-18.01,13.05-31.06,31.15-31.06s31.06,12.96,31.06,30.88-13.13,31.15-31.15,31.15-31.06-12.96-31.06-30.97ZM761.01,262.39c0-10.12-6.66-17.48-15.89-17.48s-16.06,7.28-16.06,17.39,6.92,17.48,16.06,17.48,15.89-7.37,15.89-17.39Z"/>
  </g>
  <g>
    <path class="cls-2" d="M386.23,327.07h2.27l5.87,15.3h.08l5.87-15.3h2.25l-6.81,17.62h-2.71l-6.81-17.62Z"/>
    <path class="cls-2" d="M405.85,327.07h2.17v17.62h-2.17v-17.62Z"/>
    <path class="cls-2" d="M411.54,341.85l1.59-1.33c1.02,1.46,2.98,2.4,4.88,2.4,2.69,0,4.49-1.1,4.49-2.85,0-2.22-1.83-2.71-4.57-3.42-3.65-.94-5.74-2.3-5.74-4.99,0-3.08,2.4-4.86,6.19-4.86,2.4,0,4.46.89,5.9,2.45l-1.41,1.51c-1.15-1.25-2.77-1.96-4.46-1.96-2.4,0-3.94.97-3.94,2.77,0,1.65,1.41,2.27,4.2,3.03,3.92,1.07,6.06,2.4,6.06,5.38s-2.69,4.96-6.68,4.96c-2.71,0-5.17-1.2-6.5-3.11Z"/>
    <path class="cls-2" d="M428.54,327.07h2.17v17.62h-2.17v-17.62Z"/>
    <path class="cls-2" d="M441.8,329.03v15.67h-2.14v-15.67h-5.95v-1.96h14.05v1.96h-5.95Z"/>
    <path class="cls-2" d="M452.89,334.72h9.29v1.91h-9.29v6.16h10.76v1.91h-12.9v-17.62h12.66v1.91h-10.52v5.74Z"/>
    <path class="cls-2" d="M473.85,335.87c0-5.25,3.73-9.06,8.9-9.06s8.9,3.81,8.9,9.06-3.76,9.08-8.93,9.08-8.88-3.81-8.88-9.08ZM489.41,335.87c0-4.07-2.79-7.02-6.66-7.02s-6.68,2.95-6.68,7.02,2.85,7.05,6.68,7.05,6.66-2.98,6.66-7.05Z"/>
  </g>
  <g>
    <path class="cls-2" d="M502.79,327.07h6.19c3.68,0,6.06,2.01,6.06,5.14s-2.4,5.22-6.08,5.22h-4.02v7.26h-2.14v-17.62ZM508.9,335.53c2.45,0,4.02-1.33,4.02-3.34s-1.59-3.21-3.99-3.21h-3.99v6.55h3.97Z"/>
    <path class="cls-2" d="M522.52,327.07h2.66l7.1,17.62h-2.22l-1.98-4.91h-8.43l-1.98,4.91h-2.25l7.1-17.62ZM527.3,337.85l-3.45-8.54-3.45,8.54h6.89Z"/>
  </g>
  <g>
    <path class="cls-2" d="M535.44,327.07h6.37c3.71,0,6.11,2.04,6.11,5.14,0,2.85-2.06,4.8-5.27,5.09l5.25,7.39h-2.43l-5.22-7.34h-2.64v7.34h-2.17v-17.62ZM541.76,335.4c2.45,0,4.02-1.1,4.02-3.19s-1.57-3.21-3.99-3.21h-4.18v6.4h4.15Z"/>
    <path class="cls-2" d="M552.25,327.07h2.14v15.64h9.14v1.98h-11.28v-17.62Z"/>
  </g>
  <g>
    <path class="cls-2" d="M572.98,327.07h2.66l7.1,17.62h-2.22l-1.98-4.91h-8.43l-1.98,4.91h-2.25l7.1-17.62ZM577.75,337.85l-3.45-8.54-3.45,8.54h6.89Z"/>
    <path class="cls-2" d="M585.89,327.07h2.19l6.32,11.44,6.29-11.44h2.19v17.62h-2.14v-13.5l-5.72,10.34h-1.28l-5.72-10.34v13.5h-2.14v-17.62Z"/>
  </g>
  <g>
    <path class="cls-2" d="M610.02,334.72h9.29v1.91h-9.29v6.16h10.76v1.91h-12.9v-17.62h12.66v1.91h-10.52v5.74Z"/>
    <path class="cls-2" d="M624.35,327.07h2.01l10.7,13.94v-13.94h2.17v17.62h-1.96l-10.81-14.05v14.05h-2.11v-17.62Z"/>
  </g>
  <g>
    <path class="cls-2" d="M650.34,329.03v15.67h-2.14v-15.67h-5.95v-1.96h14.05v1.96h-5.95Z"/>
    <path class="cls-2" d="M657.62,335.87c0-5.25,3.73-9.06,8.9-9.06s8.9,3.81,8.9,9.06-3.76,9.08-8.93,9.08-8.88-3.81-8.88-9.08ZM673.18,335.87c0-4.07-2.79-7.02-6.66-7.02s-6.68,2.95-6.68,7.02,2.85,7.05,6.68,7.05,6.66-2.98,6.66-7.05Z"/>
  </g>
  <g>
    <path class="cls-2" d="M688.7,334.72h9.29v1.91h-9.29v6.16h10.76v1.91h-12.9v-17.62h12.66v1.91h-10.52v5.74Z"/>
    <path class="cls-2" d="M702.71,337.77v-10.7h2.14v10.65c0,3.26,1.91,5.14,4.96,5.14s4.93-1.91,4.93-5.14v-10.65h2.14v10.7c0,4.44-2.72,7.15-7.08,7.15s-7.1-2.72-7.1-7.15Z"/>
  </g>
  <g>
    <path class="cls-2" d="M721.7,327.07h6.37c3.71,0,6.11,2.04,6.11,5.14,0,2.85-2.06,4.8-5.27,5.09l5.25,7.39h-2.43l-5.22-7.34h-2.64v7.34h-2.17v-17.62ZM728.02,335.4c2.45,0,4.02-1.1,4.02-3.19s-1.57-3.21-3.99-3.21h-4.18v6.4h4.15Z"/>
    <path class="cls-2" d="M737.42,335.87c0-5.25,3.73-9.06,8.9-9.06s8.9,3.81,8.9,9.06-3.76,9.08-8.93,9.08-8.88-3.81-8.88-9.08ZM752.98,335.87c0-4.07-2.79-7.02-6.66-7.02s-6.68,2.95-6.68,7.02,2.85,7.05,6.68,7.05,6.66-2.98,6.66-7.05Z"/>
  </g>
  <g>
    <path class="cls-2" d="M759.29,327.07h6.19c3.68,0,6.06,2.01,6.06,5.14s-2.4,5.22-6.08,5.22h-4.02v7.26h-2.14v-17.62ZM765.4,335.53c2.45,0,4.02-1.33,4.02-3.34s-1.59-3.21-3.99-3.21h-4v6.55h3.97Z"/>
    <path class="cls-2" d="M777.01,334.72h9.29v1.91h-9.29v6.16h10.76v1.91h-12.9v-17.62h12.66v1.91h-10.52v5.74Z"/>
  </g>
  <path class="cls-2" d="M791.02,337.77v-10.7h2.14v10.65c0,3.26,1.91,5.14,4.96,5.14s4.93-1.91,4.93-5.14v-10.65h2.14v10.7c0,4.44-2.72,7.15-7.08,7.15s-7.1-2.72-7.1-7.15Z"/>
</svg>