<?xml version="1.0" encoding="UTF-8"?>
<svg xmlns="http://www.w3.org/2000/svg" viewBox="0 0 1356 400">
  <defs>
    <style>
      .cls-1 {
        fill: #0c4da2;
      }

      .cls-2 {
        font-family: Europea-Extrabold, Europea;
        font-size: 87px;
        font-weight: 700;
      }

      .cls-2, .cls-3 {
        fill: #fff;
      }

      .cls-4 {
        fill: #fff200;
      }
    </style>
  </defs>
  <polygon class="cls-1" points="0 0 0 400 1356 400 1356 0 0 0 0 0"/>
  <polygon class="cls-4" points="186.77 1.45 174.2 40.63 132.92 40.36 166.38 64.51 153.44 103.61 186.77 79.22 220.04 103.61 207.1 64.51 240.48 40.36 199.3 40.63 186.77 1.45 186.77 1.45"/>
  <polygon class="cls-4" points="226.68 148.58 214.06 187.72 172.78 187.48 206.29 211.64 193.35 250.69 226.68 226.35 259.91 250.69 247.01 211.64 280.38 187.48 239.2 187.72 226.68 148.58 226.68 148.58"/>
  <polygon class="cls-4" points="187.05 295.67 174.62 335.05 133.34 334.72 166.9 358.83 153.9 397.92 187.05 373.45 220.46 397.92 207.52 358.83 240.99 334.77 199.76 335.05 187.05 295.67 187.05 295.67"/>
  <g>
    <path class="cls-3" d="M402.11,145.99v26.8h-14.44v-58.73h14.44v25.75l18.71-25.75h16.79l-21.4,28.8,22.19,29.93h-16.79l-19.49-26.8Z"/>
    <path class="cls-3" d="M437.78,143.47c0-17.66,12.79-30.45,30.54-30.45s30.45,12.7,30.45,30.28-12.88,30.54-30.54,30.54-30.45-12.7-30.45-30.36ZM483.89,143.47c0-9.92-6.53-17.14-15.57-17.14s-15.75,7.13-15.75,17.05,6.79,17.14,15.75,17.14,15.57-7.22,15.57-17.05Z"/>
  </g>
  <path class="cls-3" d="M506.86,113.97h14.18l16.27,29.67,16.27-29.67h14.1v58.82h-14.44v-34.02l-13.49,24.88h-4.87l-13.57-24.88v34.02h-14.44v-58.82Z"/>
  <g>
    <path class="cls-3" d="M601,114.06h24.54c16.88,0,29.15,12.35,29.15,29.15s-12.27,29.58-29.15,29.58h-24.54v-58.73ZM639.89,143.29c0-9.14-6.35-15.92-15.05-15.92h-9.4v32.19h9.4c8.61,0,15.05-6.87,15.05-16.27Z"/>
    <path class="cls-3" d="M676.86,136.68h25.75v12.44h-25.75v11.22h30.28v12.44h-44.37v-58.73h43.59v12.53h-29.49v10.09Z"/>
  </g>
  <g>
    <path class="cls-3" d="M737.75,114.06h24.54c16.88,0,29.15,12.35,29.15,29.15s-12.27,29.58-29.15,29.58h-24.54v-58.73ZM776.64,143.29c0-9.14-6.35-15.92-15.05-15.92h-9.4v32.19h9.4c8.61,0,15.05-6.87,15.05-16.27Z"/>
    <path class="cls-3" d="M813.61,136.68h25.75v12.44h-25.75v11.22h30.28v12.44h-44.37v-58.73h43.59v12.53h-29.5v10.09Z"/>
  </g>
  <g>
    <path class="cls-3" d="M852.86,113.97h14.18l16.27,29.67,16.27-29.67h14.09v58.82h-14.44v-34.02l-13.49,24.88h-4.87l-13.57-24.88v34.02h-14.44v-58.82Z"/>
    <path class="cls-3" d="M921.58,143.47c0-17.66,12.79-30.45,30.54-30.45s30.45,12.7,30.45,30.28-12.88,30.54-30.54,30.54-30.45-12.7-30.45-30.36ZM967.7,143.47c0-9.92-6.53-17.14-15.57-17.14s-15.75,7.13-15.75,17.05,6.79,17.14,15.75,17.14,15.57-7.22,15.57-17.05Z"/>
    <path class="cls-3" d="M987.97,143.47c0-18.01,12.35-30.45,29.93-30.45,10.27,0,19.05,4.79,24.27,12.62l-10.27,7.92c-3.13-4.61-7.92-7.22-13.66-7.22-9.05,0-15.57,6.53-15.57,17.05s6.53,17.05,15.57,17.05c5.83,0,10.88-2.61,13.92-7.57l10.18,8.27c-4.96,7.57-13.66,12.7-24.45,12.7-17.31,0-29.93-12.35-29.93-30.36Z"/>
    <path class="cls-3" d="M1048.69,114.06h24.27c13.49,0,22.27,7.48,22.27,18.62,0,8.79-5.39,15.23-14.09,17.66l15.05,22.45h-16.44l-14.09-21.4h-2.52v21.4h-14.44v-58.73ZM1072.62,140.07c4.96,0,8.18-2.78,8.18-7.13s-3.22-6.96-8.18-6.96h-9.48v14.1h9.48Z"/>
  </g>
  <g>
    <path class="cls-3" d="M1121.72,114.06h17.4l22.01,58.73h-15.05l-4.26-11.83h-23.06l-4.26,11.83h-14.79l22.01-58.73ZM1130.24,128.68l-7.22,20.19h14.53l-7.22-20.19h-.09Z"/>
    <path class="cls-3" d="M1186.27,127.28v45.5h-14.44v-45.5h-17.31v-13.31h48.98v13.31h-17.23Z"/>
  </g>
  <g>
    <path class="cls-3" d="M1208.49,113.97h14.53v58.82h-14.53v-58.82Z"/>
    <path class="cls-3" d="M1248.07,136.68h25.75v12.44h-25.75v11.22h30.28v12.44h-44.37v-58.73h43.59v12.53h-29.5v10.09Z"/>
  </g>
  <text class="cls-2" transform="translate(1281.51 172.79)"><tspan x="0" y="0"> </tspan></text>
  <g>
    <path class="cls-3" d="M387.67,189.97h14.53v58.82h-14.53v-58.82Z"/>
    <path class="cls-3" d="M413.16,189.97h13.14l24.8,34.45v-34.45h14.44v58.82h-12.88l-25.23-35.06v35.06h-14.27v-58.82Z"/>
  </g>
  <g>
    <path class="cls-3" d="M515.58,190.06h17.4l22.01,58.73h-15.05l-4.26-11.83h-23.06l-4.26,11.83h-14.79l22.01-58.73ZM524.11,204.68l-7.22,20.19h14.53l-7.22-20.19h-.09Z"/>
    <path class="cls-3" d="M554.56,219.47c0-18.01,12.35-30.45,29.93-30.45,10.27,0,19.05,4.79,24.27,12.62l-10.27,7.92c-3.13-4.61-7.92-7.22-13.66-7.22-9.05,0-15.57,6.53-15.57,17.05s6.53,17.05,15.57,17.05c5.83,0,10.88-2.61,13.92-7.57l10.18,8.26c-4.96,7.57-13.66,12.7-24.45,12.7-17.31,0-29.93-12.35-29.93-30.37Z"/>
  </g>
  <g>
    <path class="cls-3" d="M643.75,203.28v45.5h-14.44v-45.5h-17.31v-13.31h48.98v13.31h-17.23Z"/>
    <path class="cls-3" d="M665.93,189.97h14.53v58.82h-14.53v-58.82Z"/>
  </g>
  <g>
    <path class="cls-3" d="M705.54,212.68h25.75v12.44h-25.75v11.22h30.28v12.44h-44.37v-58.73h43.59v12.53h-29.5v10.09Z"/>
    <path class="cls-3" d="M765.91,190.06h26.54c12.35,0,20.1,5.48,20.1,14.88,0,6.18-3.22,11.14-9.05,13.31,6.7,1.91,11.22,6.96,11.22,14.44,0,10-8,16.1-21.58,16.1h-27.23v-58.73ZM790.71,213.64c4.87,0,7.66-2.17,7.66-5.92s-2.87-6-7.83-6h-10.7v11.92h10.88ZM791.93,237.13c5.57,0,8.53-2.35,8.53-6.35s-3.05-6.26-8.44-6.26h-12.18v12.62h12.09Z"/>
    <path class="cls-3" d="M837.34,212.68h25.75v12.44h-25.75v11.22h30.28v12.44h-44.37v-58.73h43.59v12.53h-29.5v10.09Z"/>
  </g>
  <g>
    <path class="cls-3" d="M876.88,189.97h14.36v45.59h25.93v13.22h-40.28v-58.82Z"/>
    <path class="cls-3" d="M936.3,212.68h25.75v12.44h-25.75v11.22h30.28v12.44h-44.37v-58.73h43.59v12.53h-29.5v10.09Z"/>
  </g>
  <g>
    <path class="cls-3" d="M969.95,190.06h15.14l13.92,43.07h.09l14.01-43.07h15.05l-20.45,58.73h-17.31l-20.45-58.73Z"/>
    <path class="cls-3" d="M1047.21,212.68h25.75v12.44h-25.75v11.22h30.28v12.44h-44.37v-58.73h43.59v12.53h-29.5v10.09Z"/>
  </g>
  <path class="cls-3" d="M1086.5,189.97h13.14l24.8,34.45v-34.45h14.44v58.82h-12.88l-25.23-35.06v35.06h-14.27v-58.82Z"/>
  <g>
    <path class="cls-3" d="M387.69,274.84h6.81c3.47,0,5.67,1.65,5.67,4.41,0,1.98-.97,3.58-2.69,4.15,2.14.44,3.47,2.12,3.47,4.41,0,2.85-2.32,4.65-6.14,4.65h-7.13v-17.62ZM394.22,282.59c2.53,0,3.86-1.07,3.86-2.92,0-1.96-1.41-2.95-3.99-2.95h-4.26v5.87h4.39ZM394.48,290.55c2.9,0,4.33-1.1,4.33-3.03s-1.54-3.05-4.31-3.05h-4.67v6.08h4.65Z"/>
    <path class="cls-3" d="M407.35,282.49h9.29v1.91h-9.29v6.16h10.76v1.91h-12.9v-17.62h12.66v1.91h-10.52v5.74Z"/>
  </g>
  <g>
    <path class="cls-3" d="M420.97,291.05l10.94-14.31h-10.65v-1.91h13.63v1.38l-10.94,14.33h11.04v1.91h-14.02v-1.41Z"/>
    <path class="cls-3" d="M436.6,283.64c0-5.25,3.73-9.06,8.9-9.06s8.9,3.81,8.9,9.06-3.76,9.08-8.93,9.08-8.88-3.81-8.88-9.08ZM452.16,283.64c0-4.07-2.79-7.02-6.66-7.02s-6.68,2.95-6.68,7.02,2.85,7.05,6.68,7.05,6.66-2.98,6.66-7.05Z"/>
  </g>
  <g>
    <path class="cls-3" d="M460.6,282.49h9.29v1.91h-9.29v6.16h10.76v1.91h-12.9v-17.62h12.66v1.91h-10.52v5.74Z"/>
    <path class="cls-3" d="M477.1,283.98v8.49h-2.17v-17.62h2.17v8.2l7.26-8.2h2.79l-7.7,8.62,8.07,9.01h-2.77l-7.65-8.49Z"/>
  </g>
  <g>
    <path class="cls-3" d="M498.06,292.46v-17.62h2.14v7.81h10.08v-7.81h2.14v17.62h-2.14v-7.88h-10.08v7.88h-2.14Z"/>
    <path class="cls-3" d="M519.55,282.49h9.29v1.91h-9.29v6.16h10.76v1.91h-12.9v-17.62h12.66v1.91h-10.52v5.74Z"/>
  </g>
  <path class="cls-3" d="M540.81,276.8v15.67h-2.14v-15.67h-5.95v-1.96h14.05v1.96h-5.95Z"/>
  <g>
    <path class="cls-3" d="M558.97,282.49h9.29v1.91h-9.29v6.16h10.76v1.91h-12.9v-17.62h12.66v1.91h-10.52v5.74Z"/>
    <path class="cls-3" d="M572.99,285.54v-10.7h2.14v10.65c0,3.26,1.91,5.14,4.96,5.14s4.93-1.91,4.93-5.14v-10.65h2.14v10.7c0,4.44-2.71,7.15-7.08,7.15s-7.1-2.72-7.1-7.15Z"/>
  </g>
  <g>
    <path class="cls-3" d="M591.97,274.84h6.37c3.71,0,6.11,2.04,6.11,5.14,0,2.85-2.06,4.8-5.27,5.09l5.25,7.39h-2.43l-5.22-7.34h-2.64v7.34h-2.17v-17.62ZM598.29,283.17c2.45,0,4.02-1.1,4.02-3.19s-1.57-3.21-3.99-3.21h-4.18v6.4h4.15Z"/>
    <path class="cls-3" d="M607.68,283.64c0-5.25,3.73-9.06,8.9-9.06s8.9,3.81,8.9,9.06-3.76,9.08-8.93,9.08-8.88-3.81-8.88-9.08ZM623.25,283.64c0-4.07-2.79-7.02-6.66-7.02s-6.68,2.95-6.68,7.02,2.85,7.05,6.68,7.05,6.66-2.98,6.66-7.05Z"/>
  </g>
  <g>
    <path class="cls-3" d="M629.56,274.84h6.19c3.68,0,6.06,2.01,6.06,5.14s-2.4,5.22-6.08,5.22h-4.02v7.26h-2.14v-17.62ZM635.67,283.3c2.45,0,4.02-1.33,4.02-3.34s-1.59-3.21-3.99-3.21h-3.99v6.55h3.97Z"/>
    <path class="cls-3" d="M647.28,282.49h9.29v1.91h-9.29v6.16h10.76v1.91h-12.9v-17.62h12.66v1.91h-10.52v5.74Z"/>
  </g>
  <g>
    <path class="cls-3" d="M663.75,282.49h9.29v1.91h-9.29v6.16h10.76v1.91h-12.9v-17.62h12.66v1.91h-10.52v5.74Z"/>
    <path class="cls-3" d="M677.14,289.61l1.59-1.33c1.02,1.46,2.98,2.4,4.88,2.4,2.69,0,4.49-1.1,4.49-2.85,0-2.22-1.83-2.71-4.57-3.42-3.66-.94-5.74-2.3-5.74-4.99,0-3.08,2.4-4.86,6.19-4.86,2.4,0,4.46.89,5.9,2.45l-1.41,1.51c-1.15-1.25-2.77-1.96-4.46-1.96-2.4,0-3.94.97-3.94,2.77,0,1.65,1.41,2.27,4.2,3.03,3.92,1.07,6.06,2.4,6.06,5.38s-2.69,4.96-6.68,4.96c-2.71,0-5.17-1.2-6.5-3.11Z"/>
  </g>
  <g>
    <path class="cls-3" d="M701.21,274.84h6.19c3.68,0,6.06,2.01,6.06,5.14s-2.4,5.22-6.08,5.22h-4.02v7.26h-2.14v-17.62ZM707.32,283.3c2.45,0,4.02-1.33,4.02-3.34s-1.59-3.21-3.99-3.21h-4v6.55h3.97Z"/>
    <path class="cls-3" d="M720.94,274.84h2.66l7.1,17.62h-2.22l-1.98-4.91h-8.43l-1.98,4.91h-2.25l7.1-17.62ZM725.72,285.62l-3.45-8.54-3.45,8.54h6.89Z"/>
  </g>
  <g>
    <path class="cls-3" d="M733.85,274.84h6.37c3.71,0,6.11,2.04,6.11,5.14,0,2.85-2.06,4.8-5.27,5.09l5.25,7.39h-2.43l-5.22-7.34h-2.64v7.34h-2.17v-17.62ZM740.17,283.17c2.45,0,4.02-1.1,4.02-3.19s-1.57-3.21-3.99-3.21h-4.18v6.4h4.15Z"/>
    <path class="cls-3" d="M750.61,274.84h2.14v15.64h9.14v1.98h-11.28v-17.62Z"/>
    <path class="cls-3" d="M766.95,282.49h9.29v1.91h-9.29v6.16h10.76v1.91h-12.9v-17.62h12.66v1.91h-10.52v5.74Z"/>
    <path class="cls-3" d="M781.33,274.84h2.19l6.32,11.44,6.29-11.44h2.19v17.62h-2.14v-13.5l-5.72,10.34h-1.28l-5.72-10.34v13.5h-2.14v-17.62Z"/>
  </g>
  <g>
    <path class="cls-3" d="M805.69,282.49h9.29v1.91h-9.29v6.16h10.76v1.91h-12.9v-17.62h12.66v1.91h-10.52v5.74Z"/>
    <path class="cls-3" d="M820.02,274.84h2.01l10.7,13.94v-13.94h2.17v17.62h-1.96l-10.81-14.05v14.05h-2.12v-17.62Z"/>
  </g>
  <path class="cls-3" d="M846.02,276.8v15.67h-2.14v-15.67h-5.95v-1.96h14.05v1.96h-5.95Z"/>
</svg>