<?xml version="1.0" encoding="UTF-8"?>
<svg xmlns="http://www.w3.org/2000/svg" viewBox="0 0 1356 400">
  <defs>
    <style>
      .cls-1 {
        fill: #0c4da2;
      }

      .cls-2 {
        fill: #fff;
      }

      .cls-3 {
        fill: #fff200;
      }
    </style>
  </defs>
  <polygon class="cls-1" points="0 0 0 400 1356 400 1356 0 0 0 0 0"/>
  <polygon class="cls-3" points="186.77 1.45 174.2 40.63 132.92 40.36 166.38 64.51 153.44 103.61 186.77 79.22 220.04 103.61 207.1 64.51 240.48 40.36 199.3 40.63 186.77 1.45 186.77 1.45"/>
  <polygon class="cls-3" points="226.68 148.58 214.06 187.72 172.78 187.48 206.29 211.64 193.35 250.69 226.68 226.35 259.91 250.69 247.01 211.64 280.38 187.48 239.2 187.72 226.68 148.58 226.68 148.58"/>
  <polygon class="cls-3" points="187.05 295.67 174.62 335.05 133.34 334.72 166.9 358.83 153.9 397.92 187.05 373.45 220.46 397.92 207.52 358.83 240.99 334.77 199.76 335.05 187.05 295.67 187.05 295.67"/>
  <g>
    <path class="cls-2" d="M387,71.67h11.63l21.94,30.49v-30.49h12.78v52.05h-11.4l-22.33-31.03v31.03h-12.63v-52.05Z"/>
    <path class="cls-2" d="M457.22,71.75h15.4l19.48,51.97h-13.32l-3.77-10.47h-20.4l-3.77,10.47h-13.09l19.48-51.97ZM453.99,58.89h21.64v8.01h-21.64v-8.01ZM464.77,84.68l-6.39,17.86h12.86l-6.39-17.86h-.08Z"/>
  </g>
  <g>
    <path class="cls-2" d="M491.79,97.77c0-15.94,10.93-26.95,26.49-26.95,9.09,0,16.86,4.23,21.48,11.16l-9.09,7.01c-2.77-4.08-7.01-6.39-12.09-6.39-8.01,0-13.78,5.77-13.78,15.09s5.77,15.09,13.78,15.09c5.16,0,9.62-2.31,12.32-6.7l9.01,7.31c-4.39,6.7-12.09,11.24-21.64,11.24-15.32,0-26.49-10.93-26.49-26.87Z"/>
    <path class="cls-2" d="M545.46,71.67h12.86v52.05h-12.86v-52.05Z"/>
    <path class="cls-2" d="M579.95,91.77h22.79v11.01h-22.79v9.93h26.79v11.01h-39.27v-51.97h38.58v11.09h-26.1v8.93Z"/>
  </g>
  <g>
    <path class="cls-2" d="M638.33,83.45v40.27h-12.78v-40.27h-15.32v-11.78h43.35v11.78h-15.25Z"/>
    <path class="cls-2" d="M677.61,103.39v-31.72h12.78v31.72c0,5.7,3.7,9.32,9.39,9.32s9.39-3.62,9.39-9.32v-31.72h12.63v31.72c0,12.86-8.7,21.17-22.02,21.17s-22.17-8.32-22.17-21.17Z"/>
    <path class="cls-2" d="M731.43,71.67h11.63l21.94,30.49v-30.49h12.78v52.05h-11.39l-22.33-31.03v31.03h-12.63v-52.05Z"/>
    <path class="cls-2" d="M807.27,71.67h12.86v52.05h-12.86v-52.05Z"/>
    <path class="cls-2" d="M842.92,91.77h22.79v11.01h-22.79v9.93h26.79v11.01h-39.27v-51.97h38.57v11.09h-26.1v8.93Z"/>
    <path class="cls-2" d="M877.65,71.67h20.25c11.93,0,19.79,6.62,19.79,16.86s-7.78,17.4-19.79,17.4h-7.47v17.79h-12.78v-52.05ZM897.51,95.15c4.47,0,7.39-2.54,7.39-6.47s-3-6.16-7.31-6.16h-7.16v12.63h7.08Z"/>
  </g>
  <g>
    <path class="cls-2" d="M933.44,71.75h15.4l19.48,51.97h-13.32l-3.77-10.47h-20.4l-3.77,10.47h-13.09l19.48-51.97ZM940.98,84.68l-6.39,17.86h12.86l-6.39-17.86h-.08Z"/>
    <path class="cls-2" d="M971.4,115.56l24.87-32.95h-24.1v-10.93h40.96v8.16l-24.79,33.03h25.25v10.86h-42.19v-8.16Z"/>
  </g>
  <g>
    <path class="cls-2" d="M1016.29,58.89h20.1v8.01h-20.1v-8.01ZM1019.98,71.67h12.86v52.05h-12.86v-52.05Z"/>
    <path class="cls-2" d="M1039.08,116.71l7.08-8.78c3.08,3.54,8.24,5.85,13.32,5.85,4.24,0,7.78-1.54,7.78-5,0-4-3.39-5.16-9.24-6.39-11.01-2.31-17.32-6.62-17.32-15.63,0-10.32,9.09-15.94,20.4-15.94,7.78,0,14.17,2.31,18.79,6.93l-6.85,8.55c-3.85-3.08-7.78-4.7-11.78-4.7s-7.08,1.39-7.08,4.54c0,2.93,2.46,4.31,8.85,5.77,11.55,2.54,17.79,7.55,17.79,16.79,0,10.32-9.16,15.94-21.56,15.94-8.39,0-15.78-3.31-20.17-7.93Z"/>
  </g>
  <g>
    <path class="cls-2" d="M1110.72,83.45v40.27h-12.78v-40.27h-15.32v-11.78h43.35v11.78h-15.25Z"/>
    <path class="cls-2" d="M1130.35,71.67h12.86v52.05h-12.86v-52.05Z"/>
  </g>
  <g>
    <path class="cls-2" d="M1165.41,91.77h22.79v11.01h-22.79v9.93h26.79v11.01h-39.27v-51.97h38.57v11.09h-26.1v8.93Z"/>
    <path class="cls-2" d="M1223.23,83.45v40.27h-12.78v-40.27h-15.32v-11.78h43.35v11.78h-15.25Z"/>
  </g>
  <g>
    <path class="cls-2" d="M387,152.75h21.71c14.94,0,25.79,10.93,25.79,25.79s-10.86,26.18-25.79,26.18h-21.71v-51.97ZM421.41,178.62c0-8.08-5.62-14.09-13.32-14.09h-8.32v28.49h8.32c7.62,0,13.32-6.08,13.32-14.4Z"/>
    <path class="cls-2" d="M454.14,172.77h22.79v11.01h-22.79v9.93h26.79v11.01h-39.27v-51.97h38.57v11.09h-26.1v8.93Z"/>
  </g>
  <g>
    <path class="cls-2" d="M488.87,152.68h12.55l14.4,26.26,14.4-26.26h12.47v52.05h-12.78v-30.11l-11.93,22.02h-4.31l-12.01-22.02v30.11h-12.78v-52.05Z"/>
    <path class="cls-2" d="M549.86,178.78c0-15.63,11.32-26.95,27.03-26.95s26.95,11.24,26.95,26.79-11.4,27.03-27.03,27.03-26.95-11.24-26.95-26.87ZM590.66,178.78c0-8.78-5.77-15.17-13.78-15.17s-13.94,6.31-13.94,15.09,6.01,15.17,13.94,15.17,13.78-6.39,13.78-15.09Z"/>
    <path class="cls-2" d="M623.77,181.01v23.71h-12.78v-51.97h12.78v22.79l16.55-22.79h14.86l-18.94,25.49,19.63,26.49h-14.86l-17.25-23.71Z"/>
  </g>
  <g>
    <path class="cls-2" d="M660.55,152.75h21.48c11.93,0,19.71,6.62,19.71,16.48,0,7.78-4.77,13.47-12.47,15.63l13.32,19.86h-14.55l-12.47-18.94h-2.23v18.94h-12.78v-51.97ZM681.73,175.78c4.39,0,7.24-2.46,7.24-6.31s-2.85-6.16-7.24-6.16h-8.39v12.47h8.39Z"/>
    <path class="cls-2" d="M725.23,152.75h15.4l19.48,51.97h-13.32l-3.77-10.47h-20.4l-3.77,10.47h-13.09l19.48-51.97ZM722,139.9h21.64v8.01h-21.64v-8.01ZM732.78,165.69l-6.39,17.86h12.86l-6.39-17.86h-.08Z"/>
  </g>
  <g>
    <path class="cls-2" d="M782.43,164.46v40.27h-12.78v-40.27h-15.32v-11.78h43.35v11.78h-15.25Z"/>
    <path class="cls-2" d="M802.07,152.68h12.86v52.05h-12.86v-52.05Z"/>
  </g>
  <g>
    <path class="cls-2" d="M819.44,194.95l10.24-5.62c1.23,2.85,3.7,4.39,6.78,4.39,4,0,6.54-2.85,6.54-7.31v-33.72h12.78v33.42c0,12.09-7.31,19.56-18.4,19.56-8.32,0-14.78-3.46-17.94-10.7Z"/>
    <path class="cls-2" d="M864.56,184.4v-31.72h12.78v31.72c0,5.7,3.7,9.32,9.39,9.32s9.39-3.62,9.39-9.32v-31.72h12.63v31.72c0,12.86-8.7,21.17-22.02,21.17s-22.17-8.32-22.17-21.17Z"/>
  </g>
  <g>
    <path class="cls-2" d="M387,233.75h21.71c14.94,0,25.79,10.93,25.79,25.79s-10.86,26.18-25.79,26.18h-21.71v-51.97ZM421.41,259.62c0-8.08-5.62-14.09-13.32-14.09h-8.32v28.49h8.32c7.62,0,13.32-6.08,13.32-14.4Z"/>
    <path class="cls-2" d="M453.6,233.75h15.4l19.48,51.97h-13.32l-3.77-10.47h-20.4l-3.77,10.47h-13.09l19.48-51.97ZM461.15,246.68l-6.39,17.86h12.86l-6.39-17.86h-.08Z"/>
  </g>
  <g>
    <path class="cls-2" d="M492.94,233.75h21.48c11.93,0,19.71,6.62,19.71,16.48,0,7.78-4.77,13.47-12.47,15.63l13.32,19.87h-14.55l-12.47-18.94h-2.23v18.94h-12.78v-51.97ZM514.12,256.77c4.39,0,7.24-2.46,7.24-6.31s-2.85-6.16-7.24-6.16h-8.39v12.47h8.39Z"/>
    <path class="cls-2" d="M541.76,233.75h23.48c10.93,0,17.79,4.85,17.79,13.17,0,5.47-2.85,9.86-8.01,11.78,5.93,1.69,9.93,6.16,9.93,12.78,0,8.85-7.08,14.24-19.1,14.24h-24.1v-51.97ZM563.7,254.61c4.31,0,6.78-1.92,6.78-5.24s-2.54-5.31-6.93-5.31h-9.47v10.55h9.62ZM564.78,275.4c4.93,0,7.55-2.08,7.55-5.62s-2.69-5.54-7.47-5.54h-10.78v11.16h10.7Z"/>
    <path class="cls-2" d="M588.27,220.89h20.1v8.01h-20.1v-8.01ZM591.96,233.67h12.86v52.05h-12.86v-52.05Z"/>
    <path class="cls-2" d="M614.37,233.75h23.48c10.93,0,17.79,4.85,17.79,13.17,0,5.47-2.85,9.86-8.01,11.78,5.93,1.69,9.93,6.16,9.93,12.78,0,8.85-7.08,14.24-19.1,14.24h-24.1v-51.97ZM636.31,254.61c4.31,0,6.78-1.92,6.78-5.24s-2.54-5.31-6.93-5.31h-9.47v10.55h9.62ZM637.39,275.4c4.93,0,7.55-2.08,7.55-5.62s-2.69-5.54-7.47-5.54h-10.78v11.16h10.7Z"/>
  </g>
  <g>
    <path class="cls-2" d="M678.48,233.75h15.4l19.48,51.97h-13.32l-3.77-10.47h-20.4l-3.77,10.47h-13.09l19.48-51.97ZM675.24,220.89h21.64v8.01h-21.64v-8.01ZM686.02,246.68l-6.39,17.86h12.86l-6.39-17.86h-.08Z"/>
    <path class="cls-2" d="M716.67,279.33c0-4.23,3.08-7.39,7.24-7.39s7.39,3.16,7.39,7.39-3.16,7.31-7.39,7.31-7.24-3.16-7.24-7.31ZM730.06,230.28l-1.15,36.96-9.93.08-1.16-37.04h12.24Z"/>
  </g>
  <g>
    <path class="cls-2" d="M393.17,319.81h2.66l7.1,17.62h-2.22l-1.98-4.91h-8.43l-1.98,4.91h-2.25l7.1-17.62ZM397.95,330.59l-3.45-8.54-3.45,8.54h6.89Z"/>
    <path class="cls-2" d="M406.22,319.81h6.19c3.68,0,6.06,2.01,6.06,5.14s-2.4,5.22-6.08,5.22h-4.02v7.26h-2.14v-17.62ZM412.33,328.27c2.45,0,4.02-1.33,4.02-3.34s-1.59-3.21-3.99-3.21h-3.99v6.55h3.97Z"/>
    <path class="cls-2" d="M422.17,319.81h2.19l6.32,11.44,6.29-11.44h2.19v17.62h-2.14v-13.5l-5.72,10.34h-1.28l-5.72-10.34v13.5h-2.14v-17.62Z"/>
    <path class="cls-2" d="M446.21,327.46h9.29v1.91h-9.29v6.16h10.76v1.91h-12.9v-17.62h12.66v1.91h-10.52v5.74Z"/>
  </g>
  <g>
    <path class="cls-2" d="M462.31,328.94v8.49h-2.17v-17.62h2.17v8.2l7.26-8.2h2.79l-7.7,8.62,8.07,9.01h-2.77l-7.65-8.49Z"/>
    <path class="cls-2" d="M475.93,319.81h2.14v15.64h9.14v1.98h-11.28v-17.62Z"/>
  </g>
  <g>
    <path class="cls-2" d="M492.49,327.46h9.29v1.91h-9.29v6.16h10.76v1.91h-12.9v-17.62h12.66v1.91h-10.52v5.74ZM492.57,316.05h8.64v1.88h-8.64v-1.88Z"/>
    <path class="cls-2" d="M505.59,334.17l1.91-.99c.63,1.51,1.8,2.45,3.39,2.45,2.06,0,3.34-1.46,3.34-3.73v-12.09h2.14v12.09c0,3.84-2.66,5.8-5.48,5.8-2.19,0-4.33-1.15-5.3-3.52Z"/>
    <path class="cls-2" d="M521.1,319.81h2.17v17.62h-2.17v-17.62Z"/>
    <path class="cls-2" d="M530.39,327.46h9.29v1.91h-9.29v6.16h10.76v1.91h-12.9v-17.62h12.66v1.91h-10.52v5.74Z"/>
    <path class="cls-2" d="M551.43,321.76v15.67h-2.14v-15.67h-5.95v-1.96h14.05v1.96h-5.95Z"/>
    <path class="cls-2" d="M569.7,327.46h9.29v1.91h-9.29v6.16h10.76v1.91h-12.9v-17.62h12.66v1.91h-10.52v5.74Z"/>
  </g>
  <g>
    <path class="cls-2" d="M584.39,319.81h2.17v17.62h-2.17v-17.62Z"/>
    <path class="cls-2" d="M591.51,319.81h6.37c3.71,0,6.11,2.04,6.11,5.14,0,2.85-2.06,4.8-5.27,5.09l5.25,7.39h-2.43l-5.22-7.34h-2.64v7.34h-2.17v-17.62ZM597.83,328.14c2.45,0,4.02-1.1,4.02-3.19s-1.57-3.21-3.99-3.21h-4.18v6.4h4.15Z"/>
  </g>
  <g>
    <path class="cls-2" d="M607.22,328.61c0-5.25,3.73-9.06,8.9-9.06s8.9,3.81,8.9,9.06-3.76,9.08-8.93,9.08-8.88-3.81-8.88-9.08ZM622.78,328.61c0-4.07-2.79-7.02-6.66-7.02s-6.68,2.95-6.68,7.02,2.85,7.05,6.68,7.05,6.66-2.98,6.66-7.05Z"/>
    <path class="cls-2" d="M629.1,319.81h6.19c3.68,0,6.06,2.01,6.06,5.14s-2.4,5.22-6.08,5.22h-4.02v7.26h-2.14v-17.62ZM635.21,328.27c2.45,0,4.02-1.33,4.02-3.34s-1.59-3.21-3.99-3.21h-3.99v6.55h3.97Z"/>
  </g>
  <path class="cls-2" d="M648.81,319.81h2.66l7.1,17.62h-2.22l-1.98-4.91h-8.43l-1.98,4.91h-2.25l7.1-17.62ZM653.59,330.59l-3.45-8.54-3.45,8.54h6.89Z"/>
  <g>
    <path class="cls-2" d="M660.57,334.58l1.59-1.33c1.02,1.46,2.98,2.4,4.88,2.4,2.69,0,4.49-1.1,4.49-2.85,0-2.22-1.83-2.71-4.57-3.42-3.65-.94-5.74-2.3-5.74-4.99,0-3.08,2.4-4.86,6.19-4.86,2.4,0,4.46.89,5.9,2.45l-1.41,1.51c-1.15-1.25-2.77-1.96-4.46-1.96-2.4,0-3.94.97-3.94,2.77,0,1.65,1.41,2.27,4.2,3.03,3.92,1.07,6.06,2.4,6.06,5.38s-2.69,4.96-6.68,4.96c-2.71,0-5.17-1.2-6.5-3.11Z"/>
    <path class="cls-2" d="M684.64,319.81h6.19c3.68,0,6.06,2.01,6.06,5.14s-2.4,5.22-6.08,5.22h-4.02v7.26h-2.14v-17.62ZM690.75,328.27c2.45,0,4.02-1.33,4.02-3.34s-1.59-3.21-3.99-3.21h-4v6.55h3.97Z"/>
  </g>
  <g>
    <path class="cls-2" d="M704.38,319.81h2.66l7.1,17.62h-2.22l-1.98-4.91h-8.43l-1.98,4.91h-2.25l7.1-17.62ZM709.15,330.59l-3.45-8.54-3.45,8.54h6.89Z"/>
    <path class="cls-2" d="M717.3,319.81h6.37c3.71,0,6.11,2.04,6.11,5.14,0,2.85-2.06,4.8-5.27,5.09l5.25,7.39h-2.43l-5.22-7.34h-2.64v7.34h-2.17v-17.62ZM723.61,328.14c2.45,0,4.02-1.1,4.02-3.19s-1.57-3.21-3.99-3.21h-4.18v6.4h4.15Z"/>
  </g>
  <g>
    <path class="cls-2" d="M734.09,319.81h2.14v15.64h9.14v1.98h-11.28v-17.62Z"/>
    <path class="cls-2" d="M754.81,319.81h2.66l7.1,17.62h-2.22l-1.98-4.91h-8.43l-1.98,4.91h-2.25l7.1-17.62ZM759.59,330.59l-3.45-8.54-3.45,8.54h6.89Z"/>
  </g>
  <g>
    <path class="cls-2" d="M767.74,319.81h2.19l6.32,11.44,6.29-11.44h2.19v17.62h-2.14v-13.5l-5.72,10.34h-1.28l-5.72-10.34v13.5h-2.14v-17.62Z"/>
    <path class="cls-2" d="M791.88,327.46h9.29v1.91h-9.29v6.16h10.76v1.91h-12.9v-17.62h12.66v1.91h-10.52v5.74Z"/>
  </g>
  <g>
    <path class="cls-2" d="M806.21,319.81h2.01l10.7,13.94v-13.94h2.17v17.62h-1.96l-10.81-14.05v14.05h-2.12v-17.62Z"/>
    <path class="cls-2" d="M832.15,321.76v15.67h-2.14v-15.67h-5.95v-1.96h14.05v1.96h-5.95Z"/>
    <path class="cls-2" d="M840.82,330.51v-10.7h2.14v10.65c0,3.26,1.91,5.14,4.96,5.14s4.93-1.91,4.93-5.14v-10.65h2.14v10.7c0,4.44-2.72,7.15-7.08,7.15s-7.1-2.72-7.1-7.15Z"/>
    <path class="cls-2" d="M859.17,336.02c0-.94.71-1.67,1.64-1.67s1.64.73,1.64,1.67-.71,1.65-1.64,1.65-1.64-.71-1.64-1.65ZM861.83,318.63v13.32l-2.04.03v-13.34h2.04Z"/>
  </g>
</svg>