<?xml version="1.0" encoding="UTF-8"?>
<svg xmlns="http://www.w3.org/2000/svg" viewBox="0 0 1356 400">
  <defs>
    <style>
      .cls-1 {
        fill: #0c4da2;
      }

      .cls-2 {
        fill: #fff;
      }

      .cls-3 {
        fill: #fff200;
      }
    </style>
  </defs>
  <polygon class="cls-1" points="0 0 0 400 1356 400 1356 0 0 0 0 0"/>
  <polygon class="cls-3" points="186.77 1.45 174.2 40.63 132.92 40.36 166.38 64.51 153.44 103.61 186.77 79.22 220.04 103.61 207.1 64.51 240.48 40.36 199.3 40.63 186.77 1.45 186.77 1.45"/>
  <polygon class="cls-3" points="226.68 148.58 214.06 187.72 172.78 187.48 206.29 211.64 193.35 250.69 226.68 226.35 259.91 250.69 247.01 211.64 280.38 187.48 239.2 187.72 226.68 148.58 226.68 148.58"/>
  <polygon class="cls-3" points="187.05 295.67 174.62 335.05 133.34 334.72 166.9 358.83 153.9 397.92 187.05 373.45 220.46 397.92 207.52 358.83 240.99 334.77 199.76 335.05 187.05 295.67 187.05 295.67"/>
  <g>
    <path class="cls-2" d="M409.13,96.23v28.01h-15.09v-61.38h15.09v26.91l19.55-26.91h17.55l-22.37,30.1,23.19,31.28h-17.55l-20.37-28.01Z"/>
    <path class="cls-2" d="M446.41,93.59c0-18.46,13.37-31.82,31.92-31.82s31.82,13.28,31.82,31.64-13.46,31.92-31.92,31.92-31.82-13.28-31.82-31.73ZM494.6,93.59c0-10.37-6.82-17.91-16.28-17.91s-16.46,7.46-16.46,17.82,7.09,17.91,16.46,17.91,16.28-7.55,16.28-17.82Z"/>
  </g>
  <path class="cls-2" d="M518.63,62.77h14.82l17,31.01,17-31.01h14.73v61.47h-15.09v-35.55l-14.09,26.01h-5.09l-14.18-26.01v35.55h-15.09v-61.47Z"/>
  <g>
    <path class="cls-2" d="M614.37,93.59c0-18.46,13.37-31.82,31.92-31.82s31.82,13.28,31.82,31.64-13.46,31.92-31.92,31.92-31.82-13.28-31.82-31.73ZM662.56,93.59c0-10.37-6.82-17.91-16.28-17.91s-16.46,7.46-16.46,17.82,7.09,17.91,16.46,17.91,16.28-7.55,16.28-17.82Z"/>
    <path class="cls-2" d="M683.48,93.59c0-18.82,12.91-31.82,31.28-31.82,10.73,0,19.91,5,25.37,13.18l-10.73,8.27c-3.27-4.82-8.27-7.55-14.28-7.55-9.46,0-16.28,6.82-16.28,17.82s6.82,17.82,16.28,17.82c6.09,0,11.37-2.73,14.55-7.91l10.64,8.64c-5.18,7.91-14.28,13.28-25.55,13.28-18.09,0-31.28-12.91-31.28-31.73Z"/>
  </g>
  <path class="cls-2" d="M746.93,124.23v-61.38h15v23.64h23.19v-23.64h15v61.38h-15v-24.28h-23.19v24.28h-15Z"/>
  <path class="cls-2" d="M393.21,180.46v-37.46h15.09v37.46c0,6.73,4.36,11,11.09,11s11.09-4.27,11.09-11v-37.46h14.91v37.46c0,15.19-10.27,25-26,25s-26.19-9.82-26.19-25Z"/>
  <g>
    <path class="cls-2" d="M456.44,143h23.91c14.09,0,23.37,7.82,23.37,19.91s-9.18,20.55-23.37,20.55h-8.82v21h-15.09v-61.47ZM479.9,170.73c5.27,0,8.73-3,8.73-7.64s-3.55-7.27-8.64-7.27h-8.46v14.91h8.37Z"/>
    <path class="cls-2" d="M510.27,143h23.91c14.09,0,23.37,7.82,23.37,19.91s-9.18,20.55-23.37,20.55h-8.82v21h-15.09v-61.47ZM533.73,170.73c5.27,0,8.73-3,8.73-7.64s-3.55-7.27-8.64-7.27h-8.46v14.91h8.37Z"/>
    <path class="cls-2" d="M564.1,143h15v47.65h27.1v13.82h-42.1v-61.47Z"/>
  </g>
  <g>
    <path class="cls-2" d="M626.17,166.73h26.91v13h-26.91v11.73h31.64v13h-46.37v-61.38h45.55v13.09h-30.82v10.55Z"/>
    <path class="cls-2" d="M661.36,143.09h15.82l14.55,45.01h.09l14.64-45.01h15.73l-21.37,61.38h-18.09l-21.37-61.38Z"/>
  </g>
  <g>
    <path class="cls-2" d="M751.44,143h15v47.65h27.1v13.82h-42.1v-61.47Z"/>
    <path class="cls-2" d="M813.54,166.73h26.91v13h-26.91v11.73h31.64v13h-46.37v-61.38h45.55v13.09h-30.82v10.55Z"/>
  </g>
  <g>
    <path class="cls-2" d="M848.72,143.09h15.82l14.55,45.01h.09l14.64-45.01h15.73l-21.37,61.38h-18.09l-21.37-61.38Z"/>
    <path class="cls-2" d="M927.19,143.09h18.19l23,61.38h-15.73l-4.46-12.37h-24.1l-4.46,12.37h-15.46l23-61.38ZM936.11,158.37l-7.55,21.1h15.18l-7.55-21.1h-.09Z"/>
  </g>
  <g>
    <path class="cls-2" d="M973.66,143h13.73l25.91,36.01v-36.01h15.09v61.47h-13.46l-26.37-36.64v36.64h-14.91v-61.47Z"/>
    <path class="cls-2" d="M1040.31,143.09h25.64c17.64,0,30.46,12.91,30.46,30.46s-12.82,30.92-30.46,30.92h-25.64v-61.38ZM1080.96,173.64c0-9.55-6.64-16.64-15.73-16.64h-9.82v33.64h9.82c9,0,15.73-7.18,15.73-17Z"/>
    <path class="cls-2" d="M1120.42,166.73h26.91v13h-26.91v11.73h31.64v13h-46.37v-61.38h45.55v13.09h-30.82v10.55Z"/>
  </g>
  <g>
    <path class="cls-2" d="M394.03,223.33h25.64c17.64,0,30.46,12.91,30.46,30.46s-12.82,30.92-30.46,30.92h-25.64v-61.38ZM434.68,253.88c0-9.55-6.64-16.64-15.73-16.64h-9.82v33.64h9.82c9,0,15.73-7.18,15.73-17Z"/>
    <path class="cls-2" d="M473.33,246.97h26.91v13h-26.91v11.73h31.64v13h-46.37v-61.38h45.55v13.09h-30.82v10.55Z"/>
  </g>
  <g>
    <path class="cls-2" d="M514.35,223.24h14.82l17,31.01,17-31.01h14.73v61.47h-15.09v-35.55l-14.09,26.01h-5.09l-14.18-26.01v35.55h-15.09v-61.47Z"/>
    <path class="cls-2" d="M586.37,254.06c0-18.46,13.37-31.82,31.92-31.82s31.82,13.28,31.82,31.64-13.46,31.92-31.92,31.92-31.82-13.28-31.82-31.73ZM634.56,254.06c0-10.37-6.82-17.91-16.28-17.91s-16.46,7.46-16.46,17.82,7.09,17.91,16.46,17.91,16.28-7.55,16.28-17.82Z"/>
    <path class="cls-2" d="M673.67,256.7v28.01h-15.09v-61.38h15.09v26.92l19.55-26.92h17.55l-22.37,30.1,23.19,31.28h-17.55l-20.37-28.01Z"/>
  </g>
  <g>
    <path class="cls-2" d="M717.1,223.33h25.37c14.09,0,23.28,7.82,23.28,19.46,0,9.18-5.64,15.91-14.73,18.46l15.73,23.46h-17.19l-14.73-22.37h-2.64v22.37h-15.09v-61.38ZM742.11,250.51c5.18,0,8.55-2.91,8.55-7.46s-3.36-7.27-8.55-7.27h-9.91v14.73h9.91Z"/>
    <path class="cls-2" d="M793.49,223.33h18.19l23,61.38h-15.73l-4.46-12.37h-24.1l-4.46,12.37h-15.46l23-61.38ZM802.4,238.6l-7.55,21.09h15.18l-7.55-21.09h-.09Z"/>
  </g>
  <g>
    <path class="cls-2" d="M861.02,237.15v47.55h-15.09v-47.55h-18.09v-13.91h51.19v13.91h-18Z"/>
    <path class="cls-2" d="M884.21,223.24h15.19v61.47h-15.19v-61.47Z"/>
  </g>
  <g>
    <path class="cls-2" d="M393.8,322.09h6.81c3.47,0,5.67,1.65,5.67,4.41,0,1.98-.97,3.58-2.69,4.15,2.14.44,3.47,2.12,3.47,4.41,0,2.85-2.32,4.65-6.14,4.65h-7.13v-17.62ZM400.33,329.84c2.53,0,3.86-1.07,3.86-2.92,0-1.96-1.41-2.95-3.99-2.95h-4.26v5.87h4.39ZM400.59,337.8c2.9,0,4.33-1.1,4.33-3.03s-1.54-3.05-4.31-3.05h-4.67v6.08h4.65Z"/>
    <path class="cls-2" d="M413.43,329.74h9.29v1.91h-9.29v6.16h10.76v1.91h-12.9v-17.62h12.66v1.91h-10.52v5.74Z"/>
    <path class="cls-2" d="M426.74,336.86l1.59-1.33c1.02,1.46,2.98,2.4,4.88,2.4,2.69,0,4.49-1.1,4.49-2.85,0-2.22-1.83-2.71-4.57-3.42-3.65-.94-5.74-2.3-5.74-4.99,0-3.08,2.4-4.86,6.19-4.86,2.4,0,4.46.89,5.9,2.45l-1.41,1.51c-1.15-1.25-2.77-1.96-4.46-1.96-2.4,0-3.94.97-3.94,2.77,0,1.65,1.41,2.27,4.2,3.03,3.92,1.07,6.06,2.4,6.06,5.38s-2.69,4.96-6.68,4.96c-2.71,0-5.17-1.2-6.5-3.11Z"/>
    <path class="cls-2" d="M442.82,330.89c0-5.25,3.73-9.06,8.9-9.06s8.9,3.81,8.9,9.06-3.76,9.08-8.93,9.08-8.88-3.81-8.88-9.08ZM458.38,330.89c0-4.07-2.79-7.02-6.66-7.02s-6.68,2.95-6.68,7.02,2.85,7.05,6.68,7.05,6.66-2.98,6.66-7.05ZM447.83,318.93c0-.76.57-1.33,1.33-1.33s1.36.57,1.36,1.33-.6,1.36-1.36,1.36-1.33-.58-1.33-1.36ZM452.61,318.93c0-.76.57-1.33,1.33-1.33s1.38.57,1.38,1.33-.6,1.36-1.38,1.36-1.33-.58-1.33-1.36Z"/>
    <path class="cls-2" d="M466.78,331.23v8.49h-2.17v-17.62h2.17v8.2l7.26-8.2h2.79l-7.7,8.62,8.07,9.01h-2.77l-7.65-8.49Z"/>
  </g>
  <g>
    <path class="cls-2" d="M489.89,329.74h9.29v1.91h-9.29v6.16h10.76v1.91h-12.9v-17.62h12.66v1.91h-10.52v5.74Z"/>
    <path class="cls-2" d="M503.91,332.79v-10.7h2.14v10.65c0,3.26,1.91,5.14,4.96,5.14s4.93-1.91,4.93-5.14v-10.65h2.14v10.7c0,4.44-2.71,7.15-7.08,7.15s-7.1-2.72-7.1-7.15Z"/>
  </g>
  <g>
    <path class="cls-2" d="M522.89,322.09h6.37c3.71,0,6.11,2.04,6.11,5.14,0,2.85-2.06,4.8-5.27,5.09l5.25,7.39h-2.43l-5.22-7.34h-2.64v7.34h-2.17v-17.62ZM529.2,330.42c2.45,0,4.02-1.1,4.02-3.19s-1.57-3.21-3.99-3.21h-4.18v6.4h4.15Z"/>
    <path class="cls-2" d="M538.6,330.89c0-5.25,3.73-9.06,8.9-9.06s8.9,3.81,8.9,9.06-3.76,9.08-8.93,9.08-8.88-3.81-8.88-9.08ZM554.16,330.89c0-4.07-2.79-7.02-6.66-7.02s-6.68,2.95-6.68,7.02,2.85,7.05,6.68,7.05,6.66-2.98,6.66-7.05Z"/>
  </g>
  <g>
    <path class="cls-2" d="M560.48,322.09h6.19c3.68,0,6.06,2.01,6.06,5.14s-2.4,5.22-6.08,5.22h-4.02v7.26h-2.14v-17.62ZM566.59,330.55c2.45,0,4.02-1.33,4.02-3.34s-1.59-3.21-3.99-3.21h-3.99v6.55h3.97Z"/>
    <path class="cls-2" d="M580.21,322.09h2.66l7.1,17.62h-2.22l-1.98-4.91h-8.43l-1.98,4.91h-2.25l7.1-17.62ZM584.99,332.87l-3.45-8.54-3.45,8.54h6.89Z"/>
  </g>
  <g>
    <path class="cls-2" d="M593.12,322.09h6.19c3.68,0,6.06,2.01,6.06,5.14s-2.4,5.22-6.08,5.22h-4.02v7.26h-2.14v-17.62ZM599.23,330.55c2.45,0,4.02-1.33,4.02-3.34s-1.59-3.21-3.99-3.21h-3.99v6.55h3.97Z"/>
    <path class="cls-2" d="M612.85,322.09h2.66l7.1,17.62h-2.22l-1.98-4.91h-8.43l-1.98,4.91h-2.25l7.1-17.62ZM617.63,332.87l-3.45-8.54-3.45,8.54h6.89Z"/>
  </g>
  <g>
    <path class="cls-2" d="M625.77,322.09h6.37c3.71,0,6.11,2.04,6.11,5.14,0,2.85-2.06,4.8-5.27,5.09l5.25,7.39h-2.43l-5.22-7.34h-2.64v7.34h-2.17v-17.62ZM632.09,330.42c2.45,0,4.02-1.1,4.02-3.19s-1.57-3.21-3.99-3.21h-4.18v6.4h4.15Z"/>
    <path class="cls-2" d="M642.58,322.09h2.14v15.64h9.14v1.98h-11.28v-17.62Z"/>
  </g>
  <g>
    <path class="cls-2" d="M663.31,322.09h2.66l7.1,17.62h-2.22l-1.98-4.91h-8.43l-1.98,4.91h-2.25l7.1-17.62ZM668.09,332.87l-3.45-8.54-3.45,8.54h6.89Z"/>
    <path class="cls-2" d="M676.23,322.09h2.19l6.32,11.44,6.29-11.44h2.19v17.62h-2.14v-13.5l-5.72,10.34h-1.28l-5.72-10.34v13.5h-2.14v-17.62Z"/>
  </g>
  <g>
    <path class="cls-2" d="M700.35,329.74h9.29v1.91h-9.29v6.16h10.76v1.91h-12.9v-17.62h12.66v1.91h-10.52v5.74Z"/>
    <path class="cls-2" d="M714.68,322.09h2.01l10.7,13.94v-13.94h2.17v17.62h-1.96l-10.81-14.05v14.05h-2.12v-17.62Z"/>
  </g>
  <g>
    <path class="cls-2" d="M740.67,324.05v15.67h-2.14v-15.67h-5.95v-1.96h14.05v1.96h-5.95Z"/>
    <path class="cls-2" d="M751.77,329.74h9.29v1.91h-9.29v6.16h10.76v1.91h-12.9v-17.62h12.66v1.91h-10.52v5.74Z"/>
  </g>
  <path class="cls-2" d="M773.07,324.05v15.67h-2.14v-15.67h-5.95v-1.96h14.05v1.96h-5.95Z"/>
</svg>