<?xml version="1.0" encoding="UTF-8"?>
<svg id="Layer_1" xmlns="http://www.w3.org/2000/svg" version="1.1" viewBox="0 0 1356 400">
  <!-- Generator: Adobe Illustrator 29.1.0, SVG Export Plug-In . SVG Version: 2.1.0 Build 142)  -->
  <defs>
    <style>
      .st0 {
        fill: #0c4da2;
      }

      .st1 {
        fill: #fff;
      }

      .st2 {
        fill: #fff200;
      }
    </style>
  </defs>
  <polygon class="st0" points="0 0 0 400 1356 400 1356 0 0 0 0 0"/>
  <polygon class="st2" points="186.8 1.5 174.2 40.6 132.9 40.4 166.4 64.5 153.4 103.6 186.8 79.2 220 103.6 207.1 64.5 240.5 40.4 199.3 40.6 186.8 1.5 186.8 1.5"/>
  <polygon class="st2" points="226.7 148.6 214.1 187.7 172.8 187.5 206.3 211.6 193.4 250.7 226.7 226.3 259.9 250.7 247 211.6 280.4 187.5 239.2 187.7 226.7 148.6 226.7 148.6"/>
  <polygon class="st2" points="187 295.7 174.6 335 133.3 334.7 166.9 358.8 153.9 397.9 187 373.5 220.5 397.9 207.5 358.8 241 334.8 199.8 335 187 295.7 187 295.7"/>
  <g>
    <path class="st1" d="M382.3,62.2h14.8l13.6,42.1h0l13.7-42.1h14.7l-20,57.4h-16.9l-20-57.4h0Z"/>
    <path class="st1" d="M457.8,84.3h25.2v12.2h-25.2v11h29.6v12.2h-43.3v-57.4h42.6v12.2h-28.8v9.9h0Z"/>
  </g>
  <g>
    <path class="st1" d="M496.2,62.1h12.8l24.2,33.7v-33.7h14.1v57.5h-12.6l-24.7-34.3v34.3h-13.9v-57.5h0Z"/>
    <path class="st1" d="M572,84.3h25.2v12.2h-25.2v11h29.6v12.2h-43.3v-57.4h42.6v12.2h-28.8v9.9h0Z"/>
    <path class="st1" d="M606.4,110.5l27.5-36.4h-26.6v-12.1h45.2v9l-27.4,36.5h27.9v12h-46.6v-9h0Z"/>
    <path class="st1" d="M681.1,62.2h24c16.5,0,28.5,12.1,28.5,28.5s-12,28.9-28.5,28.9h-24v-57.4ZM719.1,90.8c0-8.9-6.2-15.6-14.7-15.6h-9.2v31.5h9.2c8.4,0,14.7-6.7,14.7-15.9h0Z"/>
    <path class="st1" d="M755.7,84.3h25.2v12.2h-25.2v11h29.6v12.2h-43.3v-57.4h42.6v12.2h-28.8v9.9h0ZM753.2,51.2l18.3-10,6.2,9.4-19.8,8.2-4.7-7.6h0Z"/>
  </g>
  <g>
    <path class="st1" d="M791.4,90.9c0-17.6,12.1-29.8,29.2-29.8s18.6,4.7,23.7,12.3l-10,7.7c-3.1-4.5-7.7-7.1-13.3-7.1-8.8,0-15.2,6.4-15.2,16.7s6.4,16.7,15.2,16.7,10.6-2.5,13.6-7.4l9.9,8.1c-4.8,7.4-13.3,12.4-23.9,12.4-16.9,0-29.2-12.1-29.2-29.7h0Z"/>
    <path class="st1" d="M846.7,90.9c0-17.3,12.5-29.8,29.8-29.8s29.8,12.4,29.8,29.6-12.6,29.8-29.8,29.8-29.8-12.4-29.8-29.7h0ZM891.8,90.9c0-9.7-6.4-16.8-15.2-16.8s-15.4,7-15.4,16.7,6.6,16.8,15.4,16.8,15.2-7.1,15.2-16.7Z"/>
  </g>
  <g>
    <path class="st1" d="M913.6,97.1v-35h14.1v35c0,6.3,4.1,10.3,10.4,10.3s10.4-4,10.4-10.3v-35h13.9v35c0,14.2-9.6,23.4-24.3,23.4s-24.5-9.2-24.5-23.4h0Z"/>
    <path class="st1" d="M966.8,62.2h14.8l13.6,42.1h0l13.7-42.1h14.7l-20,57.4h-16.9l-20-57.4h0Z"/>
    <path class="st1" d="M1028.8,62.2h23.7c13.2,0,21.8,7.3,21.8,18.2s-5.3,14.9-13.8,17.3l14.7,21.9h-16.1l-13.8-20.9h-2.5v20.9h-14.1v-57.4h0ZM1052.2,87.6c4.8,0,8-2.7,8-7s-3.1-6.8-8-6.8h-9.3v13.8h9.3Z"/>
    <path class="st1" d="M1082.5,62.1h14.2v57.5h-14.2v-57.5Z"/>
  </g>
  <path class="st1" d="M1107.2,62.2h23.7c13.2,0,21.8,7.3,21.8,18.2s-5.3,14.9-13.8,17.3l14.7,21.9h-16.1l-13.8-20.9h-2.5v20.9h-14.1v-57.4h0ZM1130.5,87.6c4.8,0,8-2.7,8-7s-3.1-6.8-8-6.8h-9.3v13.8h9.3Z"/>
  <g>
    <path class="st1" d="M387.5,149.1h14v44.5h25.3v12.9h-39.4v-57.5h0Z"/>
    <path class="st1" d="M451,149.2h17l21.5,57.4h-14.7l-4.2-11.6h-22.5l-4.2,11.6h-14.5l21.5-57.4h0ZM459.4,163.5l-7.1,19.7h14.2l-7.1-19.7h0,0Z"/>
  </g>
  <g>
    <path class="st1" d="M516.9,149.2h24c16.5,0,28.5,12.1,28.5,28.5s-12,28.9-28.5,28.9h-24v-57.4ZM554.9,177.8c0-8.9-6.2-15.6-14.7-15.6h-9.2v31.5h9.2c8.4,0,14.7-6.7,14.7-15.9h0Z"/>
    <path class="st1" d="M591,171.3h25.2v12.2h-25.2v11h29.6v12.2h-43.3v-57.4h42.6v12.2h-28.8v9.9h0ZM588.5,138.2l18.3-10,6.2,9.4-19.8,8.2-4.7-7.6h0Z"/>
  </g>
  <g>
    <path class="st1" d="M629.3,149.1h13.9l15.9,29,15.9-29h13.8v57.5h-14.1v-33.2l-13.2,24.3h-4.8l-13.3-24.3v33.2h-14.1v-57.5h0Z"/>
    <path class="st1" d="M696.5,177.9c0-17.3,12.5-29.8,29.8-29.8s29.8,12.4,29.8,29.6-12.6,29.8-29.8,29.8-29.8-12.4-29.8-29.7h0ZM741.5,177.9c0-9.7-6.4-16.8-15.2-16.8s-15.4,7-15.4,16.7,6.6,16.8,15.4,16.8,15.2-7.1,15.2-16.7Z"/>
    <path class="st1" d="M761.3,177.9c0-17.6,12.1-29.8,29.2-29.8s18.6,4.7,23.7,12.3l-10,7.7c-3.1-4.5-7.7-7.1-13.3-7.1-8.8,0-15.2,6.4-15.2,16.7s6.4,16.7,15.2,16.7,10.6-2.5,13.6-7.4l9.9,8.1c-4.8,7.4-13.3,12.4-23.9,12.4-16.9,0-29.2-12.1-29.2-29.7h0Z"/>
    <path class="st1" d="M820.7,149.2h23.7c13.2,0,21.8,7.3,21.8,18.2s-5.3,14.9-13.8,17.3l14.7,21.9h-16.1l-13.8-20.9h-2.5v20.9h-14.1v-57.4h0ZM844.1,174.6c4.8,0,8-2.7,8-7s-3.1-6.8-8-6.8h-9.3v13.8h9.3Z"/>
  </g>
  <g>
    <path class="st1" d="M892,149.2h17l21.5,57.4h-14.7l-4.2-11.6h-22.5l-4.2,11.6h-14.4l21.5-57.4h0ZM900.4,163.5l-7.1,19.7h14.2l-7.1-19.7h0,0Z"/>
    <path class="st1" d="M955.1,162.1v44.5h-14.1v-44.5h-16.9v-13h47.9v13h-16.8Z"/>
  </g>
  <g>
    <path class="st1" d="M976.8,149.1h14.2v57.5h-14.2v-57.5Z"/>
    <path class="st1" d="M1015.5,171.3h25.2v12.2h-25.2v11h29.6v12.2h-43.3v-57.4h42.6v12.2h-28.8v9.9h0Z"/>
  </g>
  <g>
    <path class="st1" d="M401.3,258.3h25.2v12.2h-25.2v11h29.6v12.2h-43.3v-57.4h42.6v12.2h-28.8v9.9h0Z"/>
    <path class="st1" d="M439.6,236.1h12.8l24.2,33.7v-33.7h14.1v57.5h-12.6l-24.7-34.3v34.3h-13.9v-57.5h0Z"/>
  </g>
  <g>
    <path class="st1" d="M539.7,236.2h17l21.5,57.4h-14.7l-4.2-11.6h-22.5l-4.2,11.6h-14.5l21.5-57.4h0ZM548,250.5l-7.1,19.7h14.2l-7.1-19.7h0,0Z"/>
    <path class="st1" d="M577.8,264.9c0-17.6,12.1-29.8,29.2-29.8s18.6,4.7,23.7,12.3l-10,7.7c-3.1-4.5-7.7-7.1-13.3-7.1-8.8,0-15.2,6.4-15.2,16.7s6.4,16.7,15.2,16.7,10.6-2.5,13.6-7.4l10,8.1c-4.8,7.4-13.3,12.4-23.9,12.4-16.9,0-29.2-12.1-29.2-29.7h0Z"/>
  </g>
  <g>
    <path class="st1" d="M664.9,249.1v44.5h-14.1v-44.5h-16.9v-13h47.9v13h-16.8Z"/>
    <path class="st1" d="M686.7,236.1h14.2v57.5h-14.2v-57.5Z"/>
    <path class="st1" d="M708.6,264.9c0-17.3,12.5-29.8,29.8-29.8s29.7,12.4,29.7,29.6-12.6,29.8-29.8,29.8-29.8-12.4-29.8-29.7h0ZM753.7,264.9c0-9.7-6.4-16.8-15.2-16.8s-15.4,7-15.4,16.7,6.6,16.8,15.4,16.8,15.2-7,15.2-16.7Z"/>
    <path class="st1" d="M775.9,236.1h12.8l24.2,33.7v-33.7h14.1v57.5h-12.6l-24.7-34.3v34.3h-13.9v-57.5h0Z"/>
  </g>
  <g>
    <path class="st1" d="M386.1,326.6h2.3l5.9,15.3h0l5.9-15.3h2.2l-6.8,17.6h-2.7l-6.8-17.6h0Z"/>
    <path class="st1" d="M405.7,326.6h2.2v17.6h-2.2v-17.6Z"/>
    <path class="st1" d="M411.3,341.3l1.6-1.3c1,1.5,3,2.4,4.9,2.4,2.7,0,4.5-1.1,4.5-2.8s-1.8-2.7-4.6-3.4c-3.7-.9-5.7-2.3-5.7-5s2.4-4.9,6.2-4.9,4.5.9,5.9,2.5l-1.4,1.5c-1.2-1.2-2.8-2-4.5-2-2.4,0-3.9,1-3.9,2.8s1.4,2.3,4.2,3c3.9,1.1,6.1,2.4,6.1,5.4s-2.7,5-6.7,5-5.2-1.2-6.5-3.1h0Z"/>
    <path class="st1" d="M428.3,326.6h2.2v17.6h-2.2v-17.6Z"/>
    <path class="st1" d="M441.5,328.5v15.7h-2.1v-15.7h-6v-2h14v2h-6Z"/>
    <path class="st1" d="M452.6,334.2h9.3v1.9h-9.3v6.2h10.8v1.9h-12.9v-17.6h12.7v1.9h-10.5v5.7h0Z"/>
  </g>
  <g>
    <path class="st1" d="M466.3,342.8l10.9-14.3h-10.7v-1.9h13.6v1.4l-10.9,14.3h11v1.9h-14v-1.4h0Z"/>
    <path class="st1" d="M490.8,326.6h2.1v15.6h9.1v2h-11.3v-17.6Z"/>
    <path class="st1" d="M507.5,334.2h9.3v1.9h-9.3v6.2h10.8v1.9h-12.9v-17.6h12.7v1.9h-10.5v5.7h0Z"/>
  </g>
  <g>
    <path class="st1" d="M529.4,326.6h6.2c3.7,0,6.1,2,6.1,5.1s-2.4,5.2-6.1,5.2h-4v7.3h-2.1v-17.6h0ZM535.5,335c2.5,0,4-1.3,4-3.3s-1.6-3.2-4-3.2h-4v6.5h4,0Z"/>
    <path class="st1" d="M549.1,326.6h2.7l7.1,17.6h-2.2l-2-4.9h-8.4l-2,4.9h-2.2l7.1-17.6ZM553.9,337.3l-3.5-8.5-3.5,8.5h6.9Z"/>
  </g>
  <g>
    <path class="st1" d="M562,326.6h6.4c3.7,0,6.1,2,6.1,5.1s-2.1,4.8-5.3,5.1l5.2,7.4h-2.4l-5.2-7.3h-2.6v7.3h-2.2v-17.6h0ZM568.3,334.9c2.5,0,4-1.1,4-3.2s-1.6-3.2-4-3.2h-4.2v6.4h4.2,0Z"/>
    <path class="st1" d="M578.8,326.6h2.1v15.6h9.1v2h-11.3v-17.6Z"/>
    <path class="st1" d="M595.1,334.2h9.3v1.9h-9.3v6.2h10.8v1.9h-12.9v-17.6h12.7v1.9h-10.5v5.7h0Z"/>
    <path class="st1" d="M609.5,326.6h2.2l6.3,11.4,6.3-11.4h2.2v17.6h-2.1v-13.5l-5.7,10.3h-1.3l-5.7-10.3v13.5h-2.1v-17.6h0Z"/>
  </g>
  <g>
    <path class="st1" d="M633.9,334.2h9.3v1.9h-9.3v6.2h10.8v1.9h-12.9v-17.6h12.7v1.9h-10.5v5.7h0Z"/>
    <path class="st1" d="M648.2,326.6h2l10.7,13.9v-13.9h2.2v17.6h-2l-10.8-14v14h-2.1v-17.6Z"/>
  </g>
  <path class="st1" d="M674.2,328.5v15.7h-2.1v-15.7h-6v-2h14v2h-6Z"/>
  <g>
    <path class="st1" d="M692.3,334.2h9.3v1.9h-9.3v6.2h10.8v1.9h-12.9v-17.6h12.7v1.9h-10.5v5.7h0Z"/>
    <path class="st1" d="M706.4,337.3v-10.7h2.1v10.7c0,3.3,1.9,5.1,5,5.1s4.9-1.9,4.9-5.1v-10.7h2.1v10.7c0,4.4-2.7,7.2-7.1,7.2s-7.1-2.7-7.1-7.2h0Z"/>
  </g>
  <g>
    <path class="st1" d="M725.3,326.6h6.4c3.7,0,6.1,2,6.1,5.1s-2.1,4.8-5.3,5.1l5.2,7.4h-2.4l-5.2-7.3h-2.6v7.3h-2.2v-17.6h0ZM731.7,334.9c2.5,0,4-1.1,4-3.2s-1.6-3.2-4-3.2h-4.2v6.4h4.2,0Z"/>
    <path class="st1" d="M741.1,335.4c0-5.2,3.7-9.1,8.9-9.1s8.9,3.8,8.9,9.1-3.8,9.1-8.9,9.1-8.9-3.8-8.9-9.1h0ZM756.6,335.4c0-4.1-2.8-7-6.7-7s-6.7,3-6.7,7,2.8,7,6.7,7,6.7-3,6.7-7Z"/>
  </g>
  <g>
    <path class="st1" d="M762.9,326.6h6.2c3.7,0,6.1,2,6.1,5.1s-2.4,5.2-6.1,5.2h-4v7.3h-2.1v-17.6h0ZM769,335c2.4,0,4-1.3,4-3.3s-1.6-3.2-4-3.2h-4v6.5h4Z"/>
    <path class="st1" d="M780.6,334.2h9.3v1.9h-9.3v6.2h10.8v1.9h-12.9v-17.6h12.7v1.9h-10.5v5.7h0ZM782.7,323.6l4.8-2.5,1,1.9-5.1,2-.7-1.4h0Z"/>
    <path class="st1" d="M797,334.2h9.3v1.9h-9.3v6.2h10.8v1.9h-12.9v-17.6h12.7v1.9h-10.5v5.7h0Z"/>
    <path class="st1" d="M811.4,326.6h2l10.7,13.9v-13.9h2.2v17.6h-2l-10.8-14v14h-2.1v-17.6h0Z"/>
  </g>
</svg>