<?xml version="1.0" encoding="UTF-8"?>
<svg xmlns="http://www.w3.org/2000/svg" viewBox="0 0 1356 400">
  <defs>
    <style>
      .cls-1 {
        fill: #0c4da2;
      }

      .cls-2 {
        font-family: Europea-Extrabold, Europea;
        font-size: 73px;
        font-weight: 700;
      }

      .cls-2, .cls-3 {
        fill: #fff;
      }

      .cls-4 {
        fill: #fff200;
      }
    </style>
  </defs>
  <polygon class="cls-1" points="0 0 0 400 1356 400 1356 0 0 0 0 0"/>
  <polygon class="cls-4" points="186.77 1.45 174.2 40.63 132.92 40.36 166.38 64.51 153.44 103.61 186.77 79.22 220.04 103.61 207.1 64.51 240.48 40.36 199.3 40.63 186.77 1.45 186.77 1.45"/>
  <polygon class="cls-4" points="226.68 148.58 214.06 187.72 172.78 187.48 206.29 211.64 193.35 250.69 226.68 226.35 259.91 250.69 247.01 211.64 280.38 187.48 239.2 187.72 226.68 148.58 226.68 148.58"/>
  <polygon class="cls-4" points="187.05 295.67 174.62 335.05 133.34 334.72 166.9 358.83 153.9 397.92 187.05 373.45 220.46 397.92 207.52 358.83 240.99 334.77 199.76 335.05 187.05 295.67 187.05 295.67"/>
  <g>
    <path class="cls-3" d="M398.56,102.28h21.61v10.44h-21.61v9.42h25.4v10.44h-37.23v-49.27h36.57v10.51h-24.75v8.47Z"/>
    <path class="cls-3" d="M445.42,83.23h12.56l18.32,49.35h-12.56l-11.97-35.11h-.15l-11.75,35.11h-12.7l18.25-49.35Z"/>
  </g>
  <g>
    <path class="cls-3" d="M496.88,83.3h14.6l18.47,49.27h-12.63l-3.58-9.93h-19.34l-3.58,9.93h-12.41l18.47-49.27ZM504.03,95.57l-6.06,16.94h12.19l-6.06-16.94h-.07Z"/>
    <path class="cls-3" d="M551.26,94.4v38.18h-12.12v-38.18h-14.53v-11.17h41.1v11.17h-14.45Z"/>
  </g>
  <g>
    <path class="cls-3" d="M581.71,102.28h21.61v10.44h-21.61v9.42h25.4v10.44h-37.23v-49.27h36.57v10.51h-24.75v8.47Z"/>
    <path class="cls-3" d="M632.81,83.23h10.29l20.44,28.47v-28.47h12.12v49.35h-10.15l-20.73-28.91v28.91h-11.97v-49.35Z"/>
  </g>
  <g>
    <path class="cls-3" d="M698.32,83.3h14.6l18.47,49.27h-12.63l-3.58-9.93h-19.34l-3.58,9.93h-12.41l18.47-49.27ZM705.48,95.57l-6.06,16.94h12.19l-6.06-16.94h-.07Z"/>
    <path class="cls-3" d="M768.91,83.3h14.6l18.47,49.27h-12.63l-3.58-9.93h-19.34l-3.58,9.93h-12.41l18.47-49.27ZM776.07,95.57l-6.06,16.94h12.19l-6.06-16.94h-.07Z"/>
  </g>
  <g>
    <path class="cls-3" d="M806.21,83.23h10.29l20.44,28.47v-28.47h12.12v49.35h-10.15l-20.73-28.91v28.91h-11.97v-49.35Z"/>
    <path class="cls-3" d="M871.69,83.3h14.6l18.47,49.27h-12.63l-3.58-9.93h-19.34l-3.58,9.93h-12.41l18.47-49.27ZM878.85,95.57l-6.06,16.94h12.19l-6.06-16.94h-.07Z"/>
  </g>
  <g>
    <path class="cls-3" d="M921.14,110.09v22.48h-12.12v-49.27h12.12v21.61l15.69-21.61h14.09l-17.96,24.16,18.62,25.11h-14.09l-16.35-22.48Z"/>
    <path class="cls-3" d="M972.39,83.3h14.6l18.47,49.27h-12.63l-3.58-9.93h-19.34l-3.58,9.93h-12.41l18.47-49.27ZM979.54,95.57l-6.06,16.94h12.19l-6.06-16.94h-.07Z"/>
  </g>
  <g>
    <path class="cls-3" d="M1025.95,83.23h12.56l18.32,49.35h-12.56l-11.97-35.11h-.15l-11.75,35.11h-12.7l18.25-49.35Z"/>
    <path class="cls-3" d="M1063.4,83.23l9.78,18.47,9.56-18.47h13.65l-17.23,30.66v18.69h-12.19v-18.91l-17.3-30.44h13.72Z"/>
  </g>
  <g>
    <path class="cls-3" d="M1099.95,101.04v-17.81h11.97v18.4c0,6.21,3.14,8.83,8.18,8.83h1.02v-27.23h11.97v27.23h.95c4.96,0,8.18-2.48,8.18-8.76v-18.47h11.9v17.81c0,12.12-6.64,19.93-19.86,19.93h-1.17v11.61h-11.97v-11.61h-1.24c-13.36,0-19.93-7.96-19.93-19.93Z"/>
    <path class="cls-3" d="M1172.51,102.28h21.61v10.44h-21.61v9.42h25.4v10.44h-37.23v-49.27h36.57v10.51h-24.75v8.47Z"/>
  </g>
  <g>
    <path class="cls-3" d="M1227.36,94.4v38.18h-12.12v-38.18h-14.53v-11.17h41.1v11.17h-14.45Z"/>
    <path class="cls-3" d="M1257.8,102.28h21.61v10.44h-21.61v9.42h25.4v10.44h-37.23v-49.27h36.57v10.51h-24.75v8.47Z"/>
  </g>
  <text class="cls-2" transform="translate(1285.84 132.58)"><tspan x="0" y="0"> </tspan></text>
  <path class="cls-3" d="M408.85,162.41v38.18h-12.12v-38.18h-14.53v-11.17h41.1v11.17h-14.45Z"/>
  <g>
    <path class="cls-3" d="M427.46,200.59v-49.27h12.04v18.98h18.61v-18.98h12.04v49.27h-12.04v-19.49h-18.61v19.49h-12.04Z"/>
    <path class="cls-3" d="M494.1,193.21l16.28-41.9h12.7l16.21,41.9v7.37h-45.19v-7.37ZM526.52,190.8l-9.78-27.67-9.93,27.67h19.71Z"/>
  </g>
  <path class="cls-3" d="M543.68,200.59v-49.27h12.04v18.98h18.61v-18.98h12.04v49.27h-12.04v-19.49h-18.61v19.49h-12.04Z"/>
  <g>
    <path class="cls-3" d="M594.71,151.24h11.9l13.65,24.89,13.65-24.89h11.83v49.35h-12.12v-28.54l-11.31,20.88h-4.09l-11.39-20.88v28.54h-12.12v-49.35Z"/>
    <path class="cls-3" d="M651.51,175.99c0-14.82,10.73-25.55,25.62-25.55s25.55,10.66,25.55,25.4-10.8,25.62-25.62,25.62-25.55-10.66-25.55-25.48ZM690.2,175.99c0-8.32-5.47-14.38-13.07-14.38s-13.21,5.99-13.21,14.31,5.69,14.38,13.21,14.38,13.07-6.06,13.07-14.31Z"/>
    <path class="cls-3" d="M720.57,178.1v22.48h-12.12v-49.27h12.12v21.61l15.69-21.61h14.09l-17.96,24.16,18.61,25.11h-14.09l-16.35-22.48Z"/>
  </g>
  <g>
    <path class="cls-3" d="M755.43,151.24h18.4c11.53,0,19.64,6.5,19.64,16.94s-8.1,17.37-19.64,17.37h-6.28v15.04h-12.12v-49.35ZM773.61,175.33c4.53,0,7.67-2.63,7.67-7.01s-3.21-6.79-7.59-6.79h-6.13v13.8h6.06Z"/>
    <path class="cls-3" d="M809.23,151.31h14.6l18.47,49.27h-12.63l-3.58-9.93h-19.34l-3.58,9.93h-12.41l18.47-49.27ZM816.39,163.58l-6.06,16.94h12.19l-6.06-16.94h-.07Z"/>
  </g>
  <g>
    <path class="cls-3" d="M863.63,162.41v38.18h-12.12v-38.18h-14.53v-11.17h41.1v11.17h-14.45Z"/>
    <path class="cls-3" d="M882.24,151.24h12.19v49.35h-12.19v-49.35Z"/>
  </g>
  <path class="cls-3" d="M916.96,151.31h14.6l18.47,49.27h-12.63l-3.58-9.93h-19.34l-3.58,9.93h-12.41l18.47-49.27ZM924.12,163.58l-6.06,16.94h12.19l-6.06-16.94h-.07Z"/>
  <g>
    <path class="cls-3" d="M384.54,259.9l13.87-16.57-13.43-15.55v-8.47h34.75v10.73h-19.64l9.34,11.02v5.33l-9.34,11.46h19.93v10.73h-35.48v-8.69Z"/>
    <path class="cls-3" d="M449.65,230.41v38.18h-12.12v-38.18h-14.53v-11.17h41.1v11.17h-14.45Z"/>
  </g>
  <path class="cls-3" d="M468.25,268.59v-49.27h12.04v18.98h18.61v-18.98h12.04v49.27h-12.04v-19.49h-18.61v19.49h-12.04Z"/>
  <g>
    <path class="cls-3" d="M519.27,219.24h10.29l20.44,28.47v-28.47h12.12v49.35h-10.15l-20.73-28.91v28.91h-11.97v-49.35Z"/>
    <path class="cls-3" d="M619.93,229.68h-17.88v38.91h-11.97v-49.27h41.83v49.27h-11.97v-38.91Z"/>
  </g>
  <g>
    <path class="cls-3" d="M640.21,219.24h18.4c11.53,0,19.64,6.5,19.64,16.94s-8.1,17.37-19.64,17.37h-6.28v15.04h-12.12v-49.35ZM658.38,243.33c4.53,0,7.67-2.63,7.67-7.01s-3.21-6.79-7.59-6.79h-6.13v13.8h6.06Z"/>
    <path class="cls-3" d="M694.01,219.31h14.6l18.47,49.27h-12.63l-3.58-9.93h-19.34l-3.58,9.93h-12.41l18.47-49.27ZM701.16,231.58l-6.06,16.94h12.19l-6.06-16.94h-.07Z"/>
  </g>
  <g>
    <path class="cls-3" d="M730.07,257.85h38.47v10.73h-38.47v-10.73ZM730.43,219.24h37.81v10.73h-37.81v-10.73ZM735.03,238.66h28.54v10.15h-28.54v-10.15Z"/>
    <path class="cls-3" d="M774.74,268.59v-49.27h12.04v18.98h18.61v-18.98h12.04v49.27h-12.04v-19.49h-18.61v19.49h-12.04Z"/>
  </g>
  <g>
    <path class="cls-3" d="M389.83,312.21h9.29v1.91h-9.29v6.16h10.76v1.91h-12.9v-17.62h12.66v1.91h-10.52v5.74Z"/>
    <path class="cls-3" d="M415.81,306.46h-9.61v15.72h-2.11v-17.62h13.84v17.62h-2.11v-15.72Z"/>
    <path class="cls-3" d="M422.3,304.56h2.17v17.62h-2.17v-17.62Z"/>
    <path class="cls-3" d="M427.99,320.43l5.69-7.26-5.72-6.87v-1.75h12.38v1.93h-9.66l5.09,6.13v1.2l-4.99,6.42h9.61v1.93h-12.4v-1.75Z"/>
  </g>
  <g>
    <path class="cls-3" d="M446.3,313.69v8.49h-2.17v-17.62h2.17v8.2l7.26-8.2h2.79l-7.7,8.62,8.07,9.01h-2.77l-7.65-8.49Z"/>
    <path class="cls-3" d="M462.06,312.21h9.29v1.91h-9.29v6.16h10.76v1.91h-12.9v-17.62h12.66v1.91h-10.52v5.74Z"/>
  </g>
  <g>
    <path class="cls-3" d="M483.77,321.06c-5.06-.1-8.69-2.92-8.69-7.7,0-4.44,3.21-7.57,8.69-7.65v-1.67h2.11v1.67c5.2.08,8.69,3,8.69,7.65s-3.21,7.6-8.69,7.7v1.65h-2.11v-1.65ZM483.77,319.23v-11.75c-3.86.1-6.47,2.3-6.47,5.87s2.58,5.8,6.47,5.87ZM492.36,313.35c0-3.42-2.45-5.74-6.47-5.87v11.75c3.99-.1,6.47-2.38,6.47-5.87Z"/>
    <path class="cls-3" d="M497.65,313.35c0-5.25,3.73-9.06,8.9-9.06s8.9,3.81,8.9,9.06-3.76,9.08-8.93,9.08-8.88-3.81-8.88-9.08ZM513.21,313.35c0-4.07-2.79-7.02-6.66-7.02s-6.68,2.95-6.68,7.02,2.85,7.05,6.68,7.05,6.66-2.98,6.66-7.05ZM510.73,312.31v1.93h-8.41v-1.93h8.41Z"/>
  </g>
  <g>
    <path class="cls-3" d="M521.32,312.21h9.29v1.91h-9.29v6.16h10.76v1.91h-12.9v-17.62h12.66v1.91h-10.52v5.74Z"/>
    <path class="cls-3" d="M535.57,304.56h2.17v17.62h-2.17v-17.62Z"/>
  </g>
  <path class="cls-3" d="M548.8,306.51v15.67h-2.14v-15.67h-5.95v-1.96h14.05v1.96h-5.95Z"/>
  <g>
    <path class="cls-3" d="M559.89,312.21h9.29v1.91h-9.29v6.16h10.76v1.91h-12.9v-17.62h12.66v1.91h-10.52v5.74Z"/>
    <path class="cls-3" d="M587.93,306.51v15.67h-2.14v-15.67h-5.95v-1.96h14.05v1.96h-5.95Z"/>
  </g>
  <g>
    <path class="cls-3" d="M595.2,313.35c0-5.25,3.73-9.06,8.9-9.06s8.9,3.81,8.9,9.06-3.76,9.08-8.93,9.08-8.88-3.81-8.88-9.08ZM610.76,313.35c0-4.07-2.79-7.02-6.66-7.02s-6.68,2.95-6.68,7.02,2.85,7.05,6.68,7.05,6.66-2.98,6.66-7.05Z"/>
    <path class="cls-3" d="M626.13,312.21h9.29v1.91h-9.29v6.16h10.76v1.91h-12.9v-17.62h12.66v1.91h-10.52v5.74Z"/>
    <path class="cls-3" d="M641.61,304.56l5.09,8.09,5.09-8.09h2.48l-6.5,10.26v7.36h-2.17v-7.36l-6.5-10.26h2.51Z"/>
    <path class="cls-3" d="M657.37,304.56h5.93c3.94,0,6.32,2.27,6.32,5.67s-2.4,5.74-6.34,5.74h-3.76v6.21h-2.14v-17.62ZM663.27,314.06c2.85,0,4.23-1.59,4.23-3.86s-1.41-3.73-4.2-3.73h-3.79v7.6h3.76Z"/>
    <path class="cls-3" d="M672.3,320.19l4.15.13c-2.3-1.36-3.71-4.07-3.71-7.21,0-5.12,3.76-8.82,8.85-8.82s8.85,3.71,8.85,8.82c0,3.13-1.41,5.85-3.71,7.21l4.15-.13v1.98h-7.54v-1.8c3.5-1.3,4.91-4.02,4.91-7,0-4.18-2.82-7.05-6.66-7.05s-6.68,2.87-6.68,7.05c0,2.98,1.44,5.69,4.93,7v1.8h-7.54v-1.98Z"/>
    <path class="cls-3" d="M706.5,306.46h-9.61v15.72h-2.12v-17.62h13.84v17.62h-2.11v-15.72Z"/>
    <path class="cls-3" d="M718.95,304.56h2.66l7.1,17.62h-2.22l-1.98-4.91h-8.43l-1.98,4.91h-2.25l7.1-17.62ZM723.73,315.34l-3.45-8.54-3.45,8.54h6.89Z"/>
    <path class="cls-3" d="M729.94,300.77c0-.71.55-1.25,1.28-1.25s1.28.55,1.28,1.25c0,.76-.58,1.31-1.28,1.31s-1.28-.55-1.28-1.31ZM731.95,304.56h2.17v17.62h-2.17v-17.62ZM733.54,300.77c0-.71.55-1.25,1.25-1.25.76,0,1.33.55,1.33,1.25,0,.76-.57,1.31-1.33,1.31-.71,0-1.25-.55-1.25-1.31Z"/>
    <path class="cls-3" d="M741.14,313.69v8.49h-2.17v-17.62h2.17v8.2l7.26-8.2h2.79l-7.7,8.62,8.07,9.01h-2.77l-7.65-8.49Z"/>
  </g>
  <g>
    <path class="cls-3" d="M752.11,313.35c0-5.25,3.73-9.06,8.9-9.06s8.9,3.81,8.9,9.06-3.76,9.08-8.93,9.08-8.88-3.81-8.88-9.08ZM767.66,313.35c0-4.07-2.79-7.02-6.66-7.02s-6.68,2.95-6.68,7.02,2.85,7.05,6.68,7.05,6.66-2.98,6.66-7.05Z"/>
    <path class="cls-3" d="M783.22,313.69v8.49h-2.17v-17.62h2.17v8.2l7.26-8.2h2.79l-7.7,8.62,8.07,9.01h-2.77l-7.65-8.49Z"/>
  </g>
  <g>
    <path class="cls-3" d="M794.43,313.35c0-5.25,3.73-9.06,8.9-9.06s8.9,3.81,8.9,9.06-3.76,9.08-8.93,9.08-8.88-3.81-8.88-9.08ZM809.99,313.35c0-4.07-2.79-7.02-6.66-7.02s-6.68,2.95-6.68,7.02,2.85,7.05,6.68,7.05,6.66-2.98,6.66-7.05Z"/>
    <path class="cls-3" d="M815.94,304.56h2.17v17.62h-2.17v-17.62Z"/>
    <path class="cls-3" d="M822.65,304.56h1.85l10.42,13.79v-13.79h2.14v17.62h-1.78l-10.52-13.89v13.89h-2.12v-17.62Z"/>
    <path class="cls-3" d="M840.76,313.35c0-5.25,3.73-9.06,8.9-9.06s8.9,3.81,8.9,9.06-3.76,9.08-8.93,9.08-8.88-3.81-8.88-9.08ZM856.32,313.35c0-4.07-2.79-7.02-6.66-7.02s-6.68,2.95-6.68,7.02,2.85,7.05,6.68,7.05,6.66-2.98,6.66-7.05Z"/>
    <path class="cls-3" d="M862.27,304.56h6.81c3.47,0,5.67,1.65,5.67,4.41,0,1.98-.97,3.58-2.69,4.15,2.14.44,3.47,2.12,3.47,4.41,0,2.85-2.32,4.65-6.13,4.65h-7.13v-17.62ZM868.8,312.31c2.53,0,3.86-1.07,3.86-2.92,0-1.96-1.41-2.95-3.99-2.95h-4.26v5.87h4.39ZM869.06,320.27c2.9,0,4.33-1.1,4.33-3.03s-1.54-3.05-4.31-3.05h-4.67v6.08h4.65Z"/>
    <path class="cls-3" d="M878.64,313.35c0-5.25,3.73-9.06,8.9-9.06s8.9,3.81,8.9,9.06-3.76,9.08-8.93,9.08-8.88-3.81-8.88-9.08ZM894.2,313.35c0-4.07-2.79-7.02-6.66-7.02s-6.68,2.95-6.68,7.02,2.85,7.05,6.68,7.05,6.66-2.98,6.66-7.05Z"/>
  </g>
  <g>
    <path class="cls-3" d="M899.93,304.56l5.09,8.09,5.09-8.09h2.48l-6.5,10.26v7.36h-2.17v-7.36l-6.5-10.26h2.51Z"/>
    <path class="cls-3" d="M918.91,304.56h2.14l7.36,17.62h-2.25l-6.14-14.99h-.08l-6.13,14.99h-2.27l7.36-17.62Z"/>
  </g>
  <g>
    <path class="cls-3" d="M931.57,304.56h2.17v17.62h-2.17v-17.62Z"/>
    <path class="cls-3" d="M937.44,313.35c0-5.25,3.73-9.06,8.9-9.06s8.9,3.81,8.9,9.06-3.76,9.08-8.93,9.08-8.88-3.81-8.88-9.08ZM953,313.35c0-4.07-2.79-7.02-6.66-7.02s-6.68,2.95-6.68,7.02,2.85,7.05,6.68,7.05,6.66-2.98,6.66-7.05Z"/>
  </g>
</svg>