<?xml version="1.0" encoding="UTF-8"?>
<svg xmlns="http://www.w3.org/2000/svg" viewBox="0 0 1356 400">
  <defs>
    <style>
      .cls-1 {
        font-family: Europea-Extrabold, Europea;
        font-size: 80.8px;
        font-weight: 700;
      }

      .cls-1, .cls-2 {
        fill: #fff;
      }

      .cls-3 {
        fill: #0c4da2;
      }

      .cls-4 {
        fill: #fff200;
      }
    </style>
  </defs>
  <polygon class="cls-3" points="0 0 0 400 1356 400 1356 0 0 0 0 0"/>
  <polygon class="cls-4" points="186.77 1.45 174.2 40.63 132.92 40.36 166.38 64.51 153.44 103.61 186.77 79.22 220.04 103.61 207.1 64.51 240.48 40.36 199.3 40.63 186.77 1.45 186.77 1.45"/>
  <polygon class="cls-4" points="226.68 148.58 214.06 187.72 172.78 187.48 206.29 211.64 193.35 250.69 226.68 226.35 259.91 250.69 247.01 211.64 280.38 187.48 239.2 187.72 226.68 148.58 226.68 148.58"/>
  <polygon class="cls-4" points="187.05 295.67 174.62 335.05 133.34 334.72 166.9 358.83 153.9 397.92 187.05 373.45 220.46 397.92 207.52 358.83 240.99 334.77 199.76 335.05 187.05 295.67 187.05 295.67"/>
  <g>
    <path class="cls-2" d="M400.66,93.94v24.88h-13.41v-54.54h13.41v23.92l17.37-23.92h15.59l-19.88,26.74,20.6,27.79h-15.59l-18.1-24.88Z"/>
    <path class="cls-2" d="M436.53,64.29h14.06l12.93,39.99h.08l13.01-39.99h13.98l-18.99,54.54h-16.08l-18.99-54.54Z"/>
  </g>
  <g>
    <path class="cls-2" d="M495.25,64.21h13.49v54.62h-13.49v-54.62Z"/>
    <path class="cls-2" d="M532.01,85.3h23.92v11.55h-23.92v10.42h28.12v11.55h-41.21v-54.54h40.48v11.63h-27.39v9.37Z"/>
    <path class="cls-2" d="M565.47,91.6c0-16.72,11.47-28.28,27.79-28.28,9.53,0,17.69,4.44,22.54,11.72l-9.53,7.35c-2.91-4.28-7.35-6.71-12.69-6.71-8.4,0-14.46,6.06-14.46,15.84s6.06,15.84,14.46,15.84c5.41,0,10.1-2.42,12.93-7.03l9.45,7.68c-4.61,7.03-12.69,11.8-22.7,11.8-16.08,0-27.79-11.47-27.79-28.2ZM577.34,53.06l3.07-6.46,11.55,4.77,11.8-4.77,3.07,6.46-14.87,8.4-14.62-8.4Z"/>
    <path class="cls-2" d="M622.35,64.21h13.49v54.62h-13.49v-54.62Z"/>
    <path class="cls-2" d="M661.54,64.29h16.16l20.44,54.54h-13.98l-3.96-10.99h-21.41l-3.96,10.99h-13.74l20.44-54.54ZM669.45,77.86l-6.71,18.74h13.49l-6.71-18.74h-.08Z"/>
    <path class="cls-2" d="M703.39,64.21h13.17l15.11,27.55,15.11-27.55h13.09v54.62h-13.41v-31.59l-12.52,23.11h-4.52l-12.6-23.11v31.59h-13.41v-54.62Z"/>
    <path class="cls-2" d="M783.14,85.3h23.92v11.55h-23.92v10.42h28.12v11.55h-41.21v-54.54h40.48v11.63h-27.39v9.37Z"/>
    <path class="cls-2" d="M838.4,64.21h21.25c12.52,0,20.76,6.95,20.76,17.69s-8.16,18.26-20.76,18.26h-7.84v18.66h-13.41v-54.62ZM859.25,88.85c4.69,0,7.76-2.67,7.76-6.79s-3.15-6.46-7.68-6.46h-7.51v13.25h7.43Z"/>
  </g>
  <g>
    <path class="cls-2" d="M896.83,64.29h16.16l20.44,54.54h-13.98l-3.96-10.99h-21.41l-3.96,10.99h-13.74l20.44-54.54ZM904.74,77.86l-6.71,18.74h13.49l-6.71-18.74h-.08Z"/>
    <path class="cls-2" d="M938.12,64.21h13.17l15.11,27.55,15.11-27.55h13.09v54.62h-13.41v-31.59l-12.52,23.11h-4.52l-12.6-23.11v31.59h-13.41v-54.62Z"/>
    <path class="cls-2" d="M1019.72,64.29h16.16l20.44,54.54h-13.98l-3.96-10.99h-21.41l-3.96,10.99h-13.74l20.44-54.54ZM1027.64,77.86l-6.71,18.74h13.49l-6.71-18.74h-.08Z"/>
  </g>
  <g>
    <path class="cls-2" d="M1079.72,76.57v42.26h-13.41v-42.26h-16.08v-12.36h45.49v12.36h-16Z"/>
    <path class="cls-2" d="M1113.09,64.21l10.83,20.44,10.58-20.44h15.11l-19.07,33.93v20.68h-13.49v-20.93l-19.15-33.69h15.19Z"/>
  </g>
  <g>
    <path class="cls-2" d="M1181.37,76.57v42.26h-13.41v-42.26h-16.08v-12.36h45.49v12.36h-16Z"/>
    <path class="cls-2" d="M1201.97,64.21h13.49v54.62h-13.49v-54.62Z"/>
  </g>
  <text class="cls-1" transform="translate(1220.87 118.83)"><tspan x="0" y="0"> </tspan></text>
  <g>
    <path class="cls-2" d="M382.32,147.1h14.06l12.93,39.99h.08l13.01-39.99h13.98l-18.99,54.54h-16.08l-18.99-54.54Z"/>
    <path class="cls-2" d="M454.07,168.11h23.92v11.55h-23.92v10.42h28.12v11.55h-41.21v-54.54h40.48v11.63h-27.39v9.37Z"/>
  </g>
  <g>
    <path class="cls-2" d="M490.63,147.02h13.49v54.62h-13.49v-54.62Z"/>
    <path class="cls-2" d="M527.32,176.76v24.88h-13.41v-54.54h13.41v23.92l17.37-23.92h15.59l-19.88,26.74,20.6,27.79h-15.59l-18.1-24.88Z"/>
    <path class="cls-2" d="M566.26,147.02h13.49v54.62h-13.49v-54.62Z"/>
    <path class="cls-2" d="M605.05,147.1h16.16l20.44,54.54h-13.98l-3.96-10.99h-21.41l-3.96,10.99h-13.74l20.44-54.54ZM612.96,160.68l-6.71,18.74h13.49l-6.71-18.74h-.08Z"/>
    <path class="cls-2" d="M646.5,147.02h12.2l23.03,32v-32h13.41v54.62h-11.96l-23.43-32.56v32.56h-13.25v-54.62Z"/>
    <path class="cls-2" d="M702.57,174.41c0-16.72,11.47-28.28,27.79-28.28,9.53,0,17.69,4.44,22.54,11.72l-9.53,7.35c-2.91-4.28-7.35-6.71-12.69-6.71-8.4,0-14.46,6.06-14.46,15.84s6.06,15.84,14.46,15.84c5.41,0,10.1-2.42,12.93-7.03l9.45,7.68c-4.61,7.03-12.68,11.8-22.7,11.8-16.08,0-27.79-11.47-27.79-28.2ZM714.45,135.87l3.07-6.46,11.55,4.77,11.8-4.77,3.07,6.46-14.87,8.4-14.62-8.4Z"/>
    <path class="cls-2" d="M759.05,147.02h13.49v54.62h-13.49v-54.62Z"/>
    <path class="cls-2" d="M817.14,209.88c0-2.83,1.45-5.82,3.88-8.24h-.57l-3.96-10.99h-21.41l-3.96,10.99h-13.74l20.44-54.54h16.16l20.44,54.46.08.08c-4.93,2.02-7.03,3.64-7.03,5.82,0,1.05.65,1.54,1.62,1.54,1.13,0,2.42-.65,3.88-1.62l2.83,5.49c-2.91,2.42-6.38,3.88-10.1,3.88-5.98,0-8.56-3.23-8.56-6.87ZM805.75,160.68l-6.71,18.74h13.49l-6.71-18.74h-.08Z"/>
  </g>
  <g>
    <path class="cls-2" d="M387.24,229.92h22.78c15.67,0,27.07,11.47,27.07,27.07s-11.39,27.47-27.07,27.47h-22.78v-54.54ZM423.36,257.07c0-8.48-5.9-14.79-13.98-14.79h-8.73v29.89h8.73c8,0,13.98-6.38,13.98-15.11Z"/>
    <path class="cls-2" d="M457.7,250.93h23.92v11.55h-23.92v10.42h28.12v11.55h-41.21v-54.54h40.48v11.63h-27.39v9.37Z"/>
  </g>
  <g>
    <path class="cls-2" d="M494.15,229.84h13.17l15.11,27.55,15.11-27.55h13.09v54.62h-13.41v-31.59l-12.52,23.11h-4.52l-12.6-23.11v31.59h-13.41v-54.62Z"/>
    <path class="cls-2" d="M558.14,257.23c0-16.4,11.88-28.28,28.36-28.28s28.28,11.8,28.28,28.12-11.96,28.36-28.36,28.36-28.28-11.8-28.28-28.2ZM600.97,257.23c0-9.21-6.06-15.92-14.46-15.92s-14.62,6.62-14.62,15.84,6.3,15.92,14.62,15.92,14.46-6.71,14.46-15.83Z"/>
    <path class="cls-2" d="M635.71,259.58v24.88h-13.41v-54.54h13.41v23.92l17.37-23.92h15.59l-19.88,26.74,20.6,27.79h-15.59l-18.1-24.88Z"/>
  </g>
  <g>
    <path class="cls-2" d="M674.31,229.92h22.54c12.52,0,20.68,6.95,20.68,17.29,0,8.16-5.01,14.14-13.09,16.4l13.98,20.84h-15.27l-13.09-19.88h-2.34v19.88h-13.41v-54.54ZM696.53,254.08c4.61,0,7.59-2.59,7.59-6.62s-2.99-6.46-7.59-6.46h-8.81v13.09h8.81Z"/>
    <path class="cls-2" d="M742.18,229.92h16.16l20.44,54.54h-13.98l-3.96-10.99h-21.41l-3.96,10.99h-13.74l20.44-54.54ZM750.1,243.5l-6.71,18.74h13.49l-6.71-18.74h-.08Z"/>
  </g>
  <g>
    <path class="cls-2" d="M802.19,242.2v42.26h-13.41v-42.26h-16.08v-12.36h45.49v12.36h-16Z"/>
    <path class="cls-2" d="M822.8,229.84h13.49v54.62h-13.49v-54.62Z"/>
  </g>
  <g>
    <path class="cls-2" d="M841.04,274.2l10.75-5.9c1.29,2.99,3.88,4.61,7.11,4.61,4.2,0,6.87-2.99,6.87-7.68v-35.39h13.41v35.06c0,12.69-7.68,20.52-19.31,20.52-8.73,0-15.51-3.64-18.83-11.23Z"/>
    <path class="cls-2" d="M920.86,292.7c0-2.83,1.45-5.82,3.88-8.24h-.57l-3.96-10.99h-21.41l-3.96,10.99h-13.74l20.44-54.54h16.16l20.44,54.46.08.08c-4.93,2.02-7.03,3.64-7.03,5.82,0,1.05.65,1.54,1.62,1.54,1.13,0,2.42-.65,3.88-1.62l2.83,5.49c-2.91,2.42-6.38,3.88-10.1,3.88-5.98,0-8.56-3.23-8.56-6.87ZM909.47,243.5l-6.71,18.74h13.49l-6.71-18.74h-.08Z"/>
  </g>
  <g>
    <path class="cls-2" d="M393.17,319.81h2.66l7.1,17.62h-2.22l-1.98-4.91h-8.43l-1.98,4.91h-2.25l7.1-17.62ZM397.95,330.59l-3.45-8.54-3.45,8.54h6.89Z"/>
    <path class="cls-2" d="M406.2,319.81h6.19c3.68,0,6.06,2.01,6.06,5.14s-2.4,5.22-6.08,5.22h-4.02v7.26h-2.14v-17.62ZM412.31,328.26c2.45,0,4.02-1.33,4.02-3.34s-1.59-3.21-3.99-3.21h-3.99v6.55h3.97Z"/>
    <path class="cls-2" d="M420.74,334.58l1.59-1.33c1.02,1.46,2.98,2.4,4.88,2.4,2.69,0,4.49-1.1,4.49-2.85,0-2.22-1.83-2.71-4.57-3.42-3.65-.94-5.74-2.3-5.74-4.99,0-3.08,2.4-4.86,6.19-4.86,2.4,0,4.46.89,5.9,2.45l-1.41,1.51c-1.15-1.25-2.77-1.96-4.46-1.96-2.4,0-3.94.97-3.94,2.77,0,1.65,1.41,2.27,4.2,3.03,3.92,1.07,6.06,2.4,6.06,5.38s-2.69,4.96-6.68,4.96c-2.71,0-5.17-1.2-6.5-3.11Z"/>
    <path class="cls-2" d="M437.7,319.81h2.17v17.62h-2.17v-17.62Z"/>
  </g>
  <g>
    <path class="cls-2" d="M444.85,319.81h2.14v15.64h9.14v1.98h-11.28v-17.62Z"/>
    <path class="cls-2" d="M465.57,319.81h2.66l7.1,17.62h-2.22l-1.98-4.91h-8.43l-1.98,4.91h-2.25l7.1-17.62ZM470.35,330.59l-3.45-8.54-3.45,8.54h6.89Z"/>
  </g>
  <g>
    <path class="cls-2" d="M478.5,319.81h2.01l10.7,13.94v-13.94h2.17v17.62h-1.96l-10.81-14.05v14.05h-2.11v-17.62Z"/>
    <path class="cls-2" d="M500.53,328.94v8.49h-2.17v-17.62h2.17v8.2l7.26-8.2h2.79l-7.7,8.62,8.07,9.01h-2.77l-7.65-8.49Z"/>
  </g>
  <g>
    <path class="cls-2" d="M515.61,319.81l5.09,8.09,5.09-8.09h2.48l-6.5,10.26v7.36h-2.17v-7.36l-6.5-10.26h2.51Z"/>
    <path class="cls-2" d="M533.57,328.94v8.49h-2.17v-17.62h2.17v8.2l7.26-8.2h2.79l-7.7,8.62,8.07,9.01h-2.77l-7.65-8.49Z"/>
    <path class="cls-2" d="M547.38,319.81h2.17v17.62h-2.17v-17.62Z"/>
    <path class="cls-2" d="M560.61,321.76v15.67h-2.14v-15.67h-5.95v-1.96h14.05v1.96h-5.95Z"/>
    <path class="cls-2" d="M571.68,327.46h9.29v1.91h-9.29v6.16h10.76v1.91h-12.9v-17.62h12.66v1.91h-10.52v5.74Z"/>
  </g>
  <g>
    <path class="cls-2" d="M595.44,327.46h9.29v1.91h-9.29v6.16h10.76v1.91h-12.9v-17.62h12.66v1.91h-10.52v5.74Z"/>
    <path class="cls-2" d="M609.46,330.51v-10.7h2.14v10.65c0,3.26,1.91,5.14,4.96,5.14s4.93-1.91,4.93-5.14v-10.65h2.14v10.7c0,4.44-2.71,7.15-7.08,7.15s-7.1-2.72-7.1-7.15Z"/>
  </g>
  <g>
    <path class="cls-2" d="M628.44,319.81h6.37c3.71,0,6.11,2.04,6.11,5.14,0,2.85-2.06,4.8-5.27,5.09l5.25,7.39h-2.43l-5.22-7.34h-2.64v7.34h-2.17v-17.62ZM634.76,328.14c2.45,0,4.02-1.1,4.02-3.19s-1.57-3.21-3.99-3.21h-4.18v6.4h4.15Z"/>
    <path class="cls-2" d="M644.15,328.6c0-5.25,3.73-9.06,8.9-9.06s8.9,3.81,8.9,9.06-3.76,9.08-8.93,9.08-8.88-3.81-8.88-9.08ZM659.71,328.6c0-4.07-2.79-7.02-6.66-7.02s-6.68,2.95-6.68,7.02,2.85,7.05,6.68,7.05,6.66-2.98,6.66-7.05Z"/>
  </g>
  <g>
    <path class="cls-2" d="M666.03,319.81h6.19c3.68,0,6.06,2.01,6.06,5.14s-2.4,5.22-6.08,5.22h-4.02v7.26h-2.14v-17.62ZM672.14,328.26c2.45,0,4.02-1.33,4.02-3.34s-1.59-3.21-3.99-3.21h-3.99v6.55h3.97Z"/>
    <path class="cls-2" d="M681.11,328.6c0-5.25,3.73-9.06,8.9-9.06s8.9,3.81,8.9,9.06-3.76,9.08-8.93,9.08-8.88-3.81-8.88-9.08ZM696.67,328.6c0-4.07-2.79-7.02-6.66-7.02s-6.68,2.95-6.68,7.02,2.85,7.05,6.68,7.05,6.66-2.98,6.66-7.05Z"/>
    <path class="cls-2" d="M701.58,334.58l1.59-1.33c1.02,1.46,2.98,2.4,4.88,2.4,2.69,0,4.49-1.1,4.49-2.85,0-2.22-1.83-2.71-4.57-3.42-3.66-.94-5.74-2.3-5.74-4.99,0-3.08,2.4-4.86,6.19-4.86,2.4,0,4.46.89,5.9,2.45l-1.41,1.51c-1.15-1.25-2.77-1.96-4.46-1.96-2.4,0-3.94.97-3.94,2.77,0,1.65,1.41,2.27,4.2,3.03,3.92,1.07,6.06,2.4,6.06,5.38s-2.69,4.96-6.68,4.96c-2.71,0-5.17-1.2-6.5-3.11Z"/>
  </g>
  <g>
    <path class="cls-2" d="M725.39,319.81h6.19c3.68,0,6.06,2.01,6.06,5.14s-2.4,5.22-6.08,5.22h-4.02v7.26h-2.14v-17.62ZM731.49,328.26c2.45,0,4.02-1.33,4.02-3.34s-1.59-3.21-3.99-3.21h-4v6.55h3.97Z"/>
    <path class="cls-2" d="M745.12,319.81h2.66l7.1,17.62h-2.22l-1.98-4.91h-8.43l-1.98,4.91h-2.25l7.1-17.62ZM749.9,330.59l-3.45-8.54-3.45,8.54h6.89Z"/>
  </g>
  <g>
    <path class="cls-2" d="M758.03,319.81h6.37c3.71,0,6.11,2.04,6.11,5.14,0,2.85-2.06,4.8-5.27,5.09l5.25,7.39h-2.43l-5.22-7.34h-2.64v7.34h-2.17v-17.62ZM764.35,328.14c2.45,0,4.02-1.1,4.02-3.19s-1.57-3.21-3.99-3.21h-4.18v6.4h4.15Z"/>
    <path class="cls-2" d="M774.84,319.81h2.14v15.64h9.14v1.98h-11.28v-17.62Z"/>
  </g>
  <g>
    <path class="cls-2" d="M795.57,319.81h2.66l7.1,17.62h-2.22l-1.98-4.91h-8.43l-1.98,4.91h-2.25l7.1-17.62ZM800.35,330.59l-3.45-8.54-3.45,8.54h6.89Z"/>
    <path class="cls-2" d="M808.49,319.81h2.19l6.32,11.44,6.29-11.44h2.19v17.62h-2.14v-13.5l-5.72,10.34h-1.28l-5.72-10.34v13.5h-2.14v-17.62Z"/>
  </g>
  <g>
    <path class="cls-2" d="M832.62,327.46h9.29v1.91h-9.29v6.16h10.76v1.91h-12.9v-17.62h12.66v1.91h-10.52v5.74Z"/>
    <path class="cls-2" d="M846.95,319.81h2.01l10.7,13.94v-13.94h2.17v17.62h-1.96l-10.81-14.05v14.05h-2.12v-17.62Z"/>
  </g>
  <g>
    <path class="cls-2" d="M872.94,321.76v15.67h-2.14v-15.67h-5.95v-1.96h14.05v1.96h-5.95Z"/>
    <path class="cls-2" d="M884.03,327.46h9.29v1.91h-9.29v6.16h10.76v1.91h-12.9v-17.62h12.66v1.91h-10.52v5.74Z"/>
  </g>
</svg>