<?xml version="1.0" encoding="UTF-8"?>
<svg xmlns="http://www.w3.org/2000/svg" viewBox="0 0 1356 400">
  <defs>
    <style>
      .cls-1 {
        fill: #0c4da2;
      }

      .cls-2 {
        fill: #fff;
      }

      .cls-3 {
        fill: #fff200;
      }
    </style>
  </defs>
  <polygon class="cls-1" points="0 0 0 400 1356 400 1356 0 0 0 0 0"/>
  <polygon class="cls-3" points="186.77 1.45 174.2 40.63 132.92 40.36 166.38 64.51 153.44 103.61 186.77 79.22 220.04 103.61 207.1 64.51 240.48 40.36 199.3 40.63 186.77 1.45 186.77 1.45"/>
  <polygon class="cls-3" points="226.68 148.58 214.06 187.72 172.78 187.48 206.29 211.64 193.35 250.69 226.68 226.35 259.91 250.69 247.01 211.64 280.38 187.48 239.2 187.72 226.68 148.58 226.68 148.58"/>
  <polygon class="cls-3" points="187.05 295.67 174.62 335.05 133.34 334.72 166.9 358.83 153.9 397.92 187.05 373.45 220.46 397.92 207.52 358.83 240.99 334.77 199.76 335.05 187.05 295.67 187.05 295.67"/>
  <path class="cls-2" d="M400.61,74.1h27.8v-11.81h-41.08v55.35h41.82v-11.73h-28.54v-10.58h24.27v-11.73h-24.27v-9.51ZM432.76,117.64h14.1l13.45-40.34h.08l13.28,40.34h14.27l-19.68-55.35h-15.83l-19.68,55.35Z"/>
  <g>
    <path class="cls-2" d="M511.07,62.3h16.4l20.75,55.35h-14.19l-4.02-11.15h-21.73l-4.02,11.15h-13.94l20.75-55.35ZM519.11,76.07l-6.81,19.02h13.69l-6.81-19.02h-.08Z"/>
    <path class="cls-2" d="M572.16,74.76v42.89h-13.61v-42.89h-16.32v-12.55h46.17v12.55h-16.24Z"/>
  </g>
  <g>
    <path class="cls-2" d="M606.36,83.62h24.27v11.73h-24.27v10.58h28.54v11.73h-41.82v-55.35h41.08v11.81h-27.8v9.51Z"/>
    <path class="cls-2" d="M663.76,62.3h13.53v31.9l23.7-31.9h11.73v55.35h-13.53v-32.47l-24.19,32.47h-11.23v-55.35Z"/>
    <path class="cls-2" d="M744.12,62.3h25.01c11.64,0,18.94,5.17,18.94,14.02,0,5.82-3.03,10.5-8.53,12.55,6.31,1.8,10.58,6.56,10.58,13.61,0,9.43-7.54,15.17-20.34,15.17h-25.67v-55.35ZM767.49,84.52c4.59,0,7.22-2.05,7.22-5.58s-2.71-5.66-7.38-5.66h-10.09v11.23h10.25ZM768.63,106.66c5.25,0,8.04-2.21,8.04-5.99s-2.87-5.9-7.95-5.9h-11.48v11.89h11.4Z"/>
  </g>
  <g>
    <path class="cls-2" d="M796.79,62.3h13.53v31.9l23.7-31.9h11.73v55.35h-13.53v-32.47l-24.19,32.47h-11.23v-55.35Z"/>
    <path class="cls-2" d="M898.38,92.39v25.26h-13.61v-25.5l-18.29,25.5h-15.83l20.66-28.21-19.93-27.14h15.83l17.55,24.52v-24.52h13.61v24.27l17.38-24.27h15.83l-19.93,27.14,20.67,28.21h-15.83l-18.12-25.26Z"/>
  </g>
  <g>
    <path class="cls-2" d="M964.57,74.76v42.89h-13.61v-42.89h-16.32v-12.55h46.17v12.55h-16.24Z"/>
    <path class="cls-2" d="M998.76,83.62h24.27v11.73h-24.27v10.58h28.54v11.73h-41.82v-55.35h41.08v11.81h-27.8v9.51Z"/>
  </g>
  <path class="cls-2" d="M382.25,215.21h13.12v-11.56h36.16v11.56h13.28v-23.21h-8.12l-15.42-43.71h-16.24l-15.17,43.71h-7.63v23.21ZM403.65,192l9.59-28.86,9.51,28.86h-19.11ZM462.77,160.1h27.8v-11.81h-41.08v55.35h41.82v-11.73h-28.54v-10.58h24.27v-11.73h-24.27v-9.51Z"/>
  <g>
    <path class="cls-2" d="M498.66,148.21h13.37l15.33,27.96,15.33-27.96h13.28v55.43h-13.61v-32.06l-12.71,23.45h-4.59l-12.79-23.45v32.06h-13.61v-55.43Z"/>
    <path class="cls-2" d="M562.46,176.01c0-16.65,12.05-28.7,28.78-28.7s28.7,11.97,28.7,28.54-12.14,28.78-28.78,28.78-28.7-11.97-28.7-28.62ZM605.92,176.01c0-9.35-6.15-16.15-14.68-16.15s-14.84,6.72-14.84,16.07,6.4,16.15,14.84,16.15,14.68-6.81,14.68-16.07Z"/>
    <path class="cls-2" d="M640.03,178.38v25.26h-13.61v-55.35h13.61v24.27l17.63-24.27h15.83l-20.17,27.14,20.91,28.21h-15.83l-18.37-25.26Z"/>
  </g>
  <g>
    <path class="cls-2" d="M679.2,148.21h21.57c12.71,0,21.07,7.05,21.07,17.96s-8.28,18.53-21.07,18.53h-7.95v18.94h-13.61v-55.43ZM700.36,173.22c4.76,0,7.87-2.71,7.87-6.89s-3.2-6.56-7.79-6.56h-7.63v13.45h7.54Z"/>
    <path class="cls-2" d="M739.31,148.29h16.4l20.75,55.35h-14.19l-4.02-11.15h-21.73l-4.02,11.15h-13.94l20.75-55.35ZM747.34,162.07l-6.81,19.02h13.69l-6.81-19.02h-.08Z"/>
  </g>
  <g>
    <path class="cls-2" d="M820.71,203.64h-39.52v-55.35h13.45v43.79h19.27v-43.79h13.45v43.79h6.64v23.12h-13.28v-11.56Z"/>
    <path class="cls-2" d="M839.32,148.29h13.53v31.9l23.7-31.9h11.73v55.35h-13.53v-32.47l-24.19,32.47h-11.23v-55.35Z"/>
  </g>
  <g>
    <path class="cls-2" d="M925.78,203.64v-20.17h-2.38l-14.02,20.17h-15.5l14.92-21.16c-8.2-2.3-13.2-8.36-13.2-16.65,0-10.5,8.28-17.55,20.91-17.55h22.96v55.35h-13.69ZM916.84,172.81h8.94v-13.28h-8.94c-4.67,0-7.63,2.54-7.63,6.56s2.95,6.72,7.63,6.72Z"/>
    <path class="cls-2" d="M973.99,160.75v42.89h-13.61v-42.89h-16.32v-12.55h46.17v12.55h-16.24Z"/>
  </g>
  <path class="cls-2" d="M1004.99,148.29h16.4l20.75,55.35h-14.19l-4.02-11.15h-21.73l-4.02,11.15h-13.94l20.75-55.35ZM1013.03,162.07l-6.81,19.02h13.69l-6.81-19.02h-.08Z"/>
  <path class="cls-2" d="M387.33,289.65h25.67c12.79,0,20.34-5.74,20.34-15.17,0-7.05-4.26-11.81-10.58-13.61,5.49-2.05,8.53-6.72,8.53-12.55,0-8.86-7.3-14.02-18.94-14.02h-25.01v55.35ZM400.45,278.66v-11.89h11.48c5.08,0,7.95,2.13,7.95,5.9s-2.79,5.99-8.04,5.99h-11.4ZM400.45,256.52v-11.23h10.09c4.67,0,7.38,1.97,7.38,5.66s-2.62,5.58-7.22,5.58h-10.25ZM456.95,301.21h13.12v-11.56h36.16v11.56h13.28v-23.21h-8.12l-15.42-43.71h-16.24l-15.17,43.71h-7.63v23.21ZM478.35,278l9.59-28.86,9.51,28.86h-19.11Z"/>
  <g>
    <path class="cls-2" d="M537.51,255.62h24.27v11.73h-24.27v10.58h28.54v11.73h-41.82v-55.35h41.08v11.81h-27.8v9.51Z"/>
    <path class="cls-2" d="M573.34,234.3h13.53v31.9l23.7-31.9h11.73v55.35h-13.53v-32.47l-24.19,32.47h-11.23v-55.35ZM584.25,217.41h8.86c.66,3.85,1.39,5.17,4.67,5.17s4.1-1.31,4.76-5.17h8.77c-.82,8.36-5.17,13.12-13.53,13.12s-12.71-4.76-13.53-13.12Z"/>
  </g>
  <g>
    <path class="cls-2" d="M628.78,262.01c0-16.97,11.64-28.7,28.21-28.7,9.68,0,17.96,4.51,22.88,11.89l-9.68,7.46c-2.95-4.35-7.46-6.81-12.87-6.81-8.53,0-14.68,6.15-14.68,16.07s6.15,16.07,14.68,16.07c5.49,0,10.25-2.46,13.12-7.13l9.59,7.79c-4.67,7.13-12.87,11.97-23.04,11.97-16.32,0-28.21-11.64-28.21-28.62Z"/>
    <path class="cls-2" d="M712.83,246.76v42.89h-13.61v-42.89h-16.32v-12.55h46.17v12.55h-16.24Z"/>
  </g>
  <g>
    <path class="cls-2" d="M733.72,234.3h25.01c11.64,0,18.94,5.17,18.94,14.02,0,5.82-3.03,10.5-8.53,12.55,6.31,1.8,10.58,6.56,10.58,13.61,0,9.43-7.54,15.17-20.34,15.17h-25.67v-55.35ZM757.09,256.52c4.59,0,7.22-2.05,7.22-5.58s-2.71-5.66-7.38-5.66h-10.09v11.23h10.25ZM758.23,278.66c5.25,0,8.04-2.21,8.04-5.99s-2.87-5.9-7.95-5.9h-11.48v11.89h11.4Z"/>
    <path class="cls-2" d="M786.36,234.3h13.53v31.9l23.7-31.9h11.73v55.35h-13.53v-32.47l-24.19,32.47h-11.23v-55.35Z"/>
  </g>
  <path class="cls-2" d="M857.98,255.62h24.27v11.73h-24.27v10.58h28.54v11.73h-41.82v-55.35h41.08v11.81h-27.8v9.51Z"/>
  <g>
    <path class="cls-2" d="M399.41,328.13h-9.61v15.72h-2.11v-17.62h13.84v17.62h-2.11v-15.72Z"/>
    <path class="cls-2" d="M405.28,335.03c0-5.25,3.73-9.06,8.9-9.06s8.9,3.81,8.9,9.06-3.76,9.08-8.93,9.08-8.88-3.81-8.88-9.08ZM420.84,335.03c0-4.07-2.79-7.02-6.66-7.02s-6.68,2.95-6.68,7.02,2.85,7.05,6.68,7.05,6.66-2.98,6.66-7.05Z"/>
  </g>
  <g>
    <path class="cls-2" d="M426.21,335.03c0-5.25,3.66-9.06,8.72-9.06,3.39,0,6.34,1.83,7.7,4.67l-1.98.89c-1.04-2.19-3.24-3.52-5.72-3.52-3.79,0-6.5,2.87-6.5,7s2.74,7.05,6.5,7.05c2.45,0,4.83-1.38,5.77-3.65l1.96.94c-1.17,2.71-4.18,4.78-7.73,4.78-5.04,0-8.72-3.81-8.72-9.08Z"/>
    <path class="cls-2" d="M448.38,333.88h9.29v1.91h-9.29v6.16h10.76v1.91h-12.9v-17.62h12.66v1.91h-10.52v5.74Z"/>
  </g>
  <g>
    <path class="cls-2" d="M469.69,328.19v15.67h-2.14v-15.67h-5.95v-1.96h14.05v1.96h-5.95Z"/>
    <path class="cls-2" d="M480.78,333.88h9.29v1.91h-9.29v6.16h10.76v1.91h-12.9v-17.62h12.66v1.91h-10.52v5.74Z"/>
  </g>
  <path class="cls-2" d="M502.08,328.19v15.67h-2.14v-15.67h-5.95v-1.96h14.05v1.96h-5.95Z"/>
  <g>
    <path class="cls-2" d="M513.17,333.88h9.29v1.91h-9.29v6.16h10.76v1.91h-12.9v-17.62h12.66v1.91h-10.52v5.74Z"/>
    <path class="cls-2" d="M537.16,333.88h9.29v1.91h-9.29v6.16h10.76v1.91h-12.9v-17.62h12.66v1.91h-10.52v5.74Z"/>
  </g>
  <g>
    <path class="cls-2" d="M551.42,326.23h6.81c3.47,0,5.67,1.65,5.67,4.41,0,1.98-.97,3.58-2.69,4.15,2.14.44,3.47,2.12,3.47,4.41,0,2.85-2.32,4.65-6.14,4.65h-7.13v-17.62ZM557.94,333.98c2.53,0,3.86-1.07,3.86-2.92,0-1.96-1.41-2.95-3.99-2.95h-4.26v5.87h4.39ZM558.21,341.94c2.9,0,4.33-1.1,4.33-3.03s-1.54-3.05-4.31-3.05h-4.67v6.08h4.65Z"/>
    <path class="cls-2" d="M568.54,326.23h6.19c3.68,0,6.06,2.01,6.06,5.14s-2.4,5.22-6.08,5.22h-4.02v7.26h-2.14v-17.62ZM574.65,334.69c2.45,0,4.02-1.33,4.02-3.34s-1.59-3.21-3.99-3.21h-3.99v6.55h3.97Z"/>
  </g>
  <g>
    <path class="cls-2" d="M583.58,335.03c0-5.25,3.73-9.06,8.9-9.06s8.9,3.81,8.9,9.06-3.76,9.08-8.93,9.08-8.88-3.81-8.88-9.08ZM599.14,335.03c0-4.07-2.79-7.02-6.66-7.02s-6.68,2.95-6.68,7.02,2.85,7.05,6.68,7.05,6.66-2.98,6.66-7.05Z"/>
    <path class="cls-2" d="M616.76,328.13h-9.61v15.72h-2.11v-17.62h13.84v17.62h-2.11v-15.72Z"/>
    <path class="cls-2" d="M625.5,333.88h9.29v1.91h-9.29v6.16h10.76v1.91h-12.9v-17.62h12.66v1.91h-10.52v5.74Z"/>
    <path class="cls-2" d="M639.86,326.23h2.14v13.79l10.68-13.79h1.85v17.62h-2.11v-13.89l-10.76,13.89h-1.8v-17.62ZM643.44,321.22h1.88c.26,1.15.52,1.72,1.88,1.72s1.62-.57,1.88-1.72h1.88c-.26,2.01-1.57,3.55-3.76,3.55s-3.5-1.54-3.76-3.55Z"/>
  </g>
  <g>
    <path class="cls-2" d="M658.39,335.03c0-5.25,3.66-9.06,8.72-9.06,3.39,0,6.34,1.83,7.7,4.67l-1.98.89c-1.04-2.19-3.24-3.52-5.72-3.52-3.79,0-6.5,2.87-6.5,7s2.74,7.05,6.5,7.05c2.45,0,4.83-1.38,5.77-3.65l1.96.94c-1.17,2.71-4.18,4.78-7.73,4.78-5.04,0-8.72-3.81-8.72-9.08Z"/>
    <path class="cls-2" d="M680.58,335.37v8.49h-2.17v-17.62h2.17v8.2l7.26-8.2h2.79l-7.7,8.62,8.07,9.01h-2.77l-7.65-8.49Z"/>
  </g>
  <path class="cls-2" d="M694.21,326.23h2.14v13.79l10.68-13.79h1.85v17.62h-2.12v-13.89l-10.76,13.89h-1.8v-17.62Z"/>
  <g>
    <path class="cls-2" d="M723.31,343.85v-7.34h-2.64l-5.48,7.34h-2.43l5.48-7.39c-3.21-.29-5.25-2.25-5.25-5.09,0-3.11,2.4-5.14,6.11-5.14h6.37v17.62h-2.17ZM719.16,334.56h4.15v-6.4h-4.18c-2.43,0-4,1.17-4,3.21s1.57,3.19,4.02,3.19Z"/>
    <path class="cls-2" d="M748.97,328.13h-9.61v15.72h-2.12v-17.62h13.84v17.62h-2.11v-15.72Z"/>
    <path class="cls-2" d="M761.39,326.23h2.66l7.1,17.62h-2.22l-1.98-4.91h-8.43l-1.98,4.91h-2.25l7.1-17.62ZM766.17,337.01l-3.45-8.54-3.45,8.54h6.89Z"/>
    <path class="cls-2" d="M774.36,326.23h6.19c3.68,0,6.06,2.01,6.06,5.14s-2.4,5.22-6.08,5.22h-4.02v7.26h-2.14v-17.62ZM780.47,334.69c2.45,0,4.02-1.33,4.02-3.34s-1.59-3.21-3.99-3.21h-4v6.55h3.97Z"/>
  </g>
  <path class="cls-2" d="M786.93,343.86h2.27l6.14-14.99h.08l6.11,14.99h2.27l-7.36-17.62h-2.14l-7.36,17.62ZM806.16,343.86h2.25l1.98-4.91h8.43l1.98,4.91h2.22l-7.1-17.62h-2.66l-7.1,17.62ZM811.15,337.01l3.45-8.54,3.45,8.54h-6.89Z"/>
  <g>
    <path class="cls-2" d="M826.16,326.23h2.19l6.32,11.44,6.29-11.44h2.19v17.62h-2.14v-13.5l-5.72,10.34h-1.28l-5.72-10.34v13.5h-2.14v-17.62Z"/>
    <path class="cls-2" d="M849.96,333.88h9.29v1.91h-9.29v6.16h10.76v1.91h-12.9v-17.62h12.66v1.91h-10.52v5.74Z"/>
  </g>
  <g>
    <path class="cls-2" d="M864.21,343.85v-17.62h2.14v7.81h10.08v-7.81h2.14v17.62h-2.14v-7.88h-10.08v7.88h-2.14Z"/>
    <path class="cls-2" d="M889.66,328.19v15.67h-2.14v-15.67h-5.95v-1.96h14.05v1.96h-5.95Z"/>
  </g>
</svg>