<?xml version="1.0" encoding="UTF-8"?>
<svg xmlns="http://www.w3.org/2000/svg" viewBox="0 0 1356 400">
  <defs>
    <style>
      .cls-1 {
        fill: #0c4da2;
      }

      .cls-2 {
        fill: #fff;
      }

      .cls-3 {
        fill: #fff200;
      }
    </style>
  </defs>
  <polygon class="cls-1" points="0 0 0 400 1356 400 1356 0 0 0 0 0"/>
  <polygon class="cls-3" points="186.77 1.45 174.2 40.63 132.92 40.36 166.38 64.51 153.44 103.61 186.77 79.22 220.04 103.61 207.1 64.51 240.48 40.36 199.3 40.63 186.77 1.45 186.77 1.45"/>
  <polygon class="cls-3" points="226.68 148.58 214.06 187.72 172.78 187.48 206.29 211.64 193.35 250.69 226.68 226.35 259.91 250.69 247.01 211.64 280.38 187.48 239.2 187.72 226.68 148.58 226.68 148.58"/>
  <polygon class="cls-3" points="187.05 295.67 174.62 335.05 133.34 334.72 166.9 358.83 153.9 397.92 187.05 373.45 220.46 397.92 207.52 358.83 240.99 334.77 199.76 335.05 187.05 295.67 187.05 295.67"/>
  <g>
    <path class="cls-2" d="M403.02,97.07v28.01h-15.09v-61.38h15.09v26.91l19.55-26.91h17.55l-22.37,30.1,23.19,31.28h-17.55l-20.37-28.01Z"/>
    <path class="cls-2" d="M440.31,94.44c0-18.46,13.37-31.82,31.92-31.82s31.82,13.28,31.82,31.64-13.46,31.92-31.92,31.92-31.82-13.28-31.82-31.73ZM488.5,94.44c0-10.37-6.82-17.91-16.28-17.91s-16.46,7.46-16.46,17.82,7.09,17.91,16.46,17.91,16.28-7.55,16.28-17.82Z"/>
  </g>
  <path class="cls-2" d="M512.52,63.61h14.82l17,31.01,17-31.01h14.73v61.47h-15.09v-35.55l-14.09,26.01h-5.09l-14.18-26.01v35.55h-15.09v-61.47Z"/>
  <g>
    <path class="cls-2" d="M608.27,94.44c0-18.46,13.37-31.82,31.92-31.82s31.82,13.28,31.82,31.64-13.46,31.92-31.92,31.92-31.82-13.28-31.82-31.73ZM656.46,94.44c0-10.37-6.82-17.91-16.28-17.91s-16.46,7.46-16.46,17.82,7.09,17.91,16.46,17.91,16.28-7.55,16.28-17.82Z"/>
    <path class="cls-2" d="M677.38,94.44c0-19.73,14.64-31.82,31.28-31.82,10.28,0,19.64,4.82,25,12.55l-10.64,8.46c-2.91-4.18-8.82-7.18-14.19-7.18-8.55,0-16.28,6.09-16.28,18.09,0,11.37,7.18,18,16,18,7.55,0,13.28-4.18,15.28-10.55h-16.28v-11.91h31.64v4.46c0,18.37-12.37,31.64-30.55,31.64s-31.28-12.82-31.28-31.73Z"/>
  </g>
  <g>
    <path class="cls-2" d="M768.16,116.8l8.37-10.37c3.64,4.18,9.73,6.91,15.73,6.91,5,0,9.18-1.82,9.18-5.91,0-4.73-4-6.09-10.91-7.55-13-2.73-20.46-7.82-20.46-18.46,0-12.18,10.73-18.82,24.1-18.82,9.18,0,16.73,2.73,22.19,8.18l-8.09,10.09c-4.55-3.64-9.18-5.55-13.91-5.55s-8.37,1.64-8.37,5.36c0,3.46,2.91,5.09,10.46,6.82,13.64,3,21,8.91,21,19.82,0,12.18-10.82,18.82-25.46,18.82-9.91,0-18.64-3.91-23.82-9.37Z"/>
    <path class="cls-2" d="M839.45,87.34h26.91v13h-26.91v11.73h31.64v13h-46.37v-61.38h45.55v13.09h-30.82v10.55Z"/>
  </g>
  <g>
    <path class="cls-2" d="M387.93,143.94h25.64c17.64,0,30.46,12.91,30.46,30.46s-12.82,30.92-30.46,30.92h-25.64v-61.38ZM428.58,174.5c0-9.55-6.64-16.64-15.73-16.64h-9.82v33.64h9.82c9,0,15.73-7.18,15.73-17Z"/>
    <path class="cls-2" d="M467.22,167.59h26.91v13h-26.91v11.73h31.64v13h-46.37v-61.38h45.55v13.09h-30.82v10.55Z"/>
  </g>
  <g>
    <path class="cls-2" d="M508.24,143.85h14.82l17,31.01,17-31.01h14.73v61.47h-15.09v-35.55l-14.09,26.01h-5.09l-14.18-26.01v35.55h-15.09v-61.47Z"/>
    <path class="cls-2" d="M580.26,174.68c0-18.46,13.37-31.82,31.92-31.82s31.82,13.28,31.82,31.64-13.46,31.92-31.92,31.92-31.82-13.27-31.82-31.73ZM628.45,174.68c0-10.37-6.82-17.91-16.28-17.91s-16.46,7.46-16.46,17.82,7.09,17.91,16.46,17.91,16.28-7.55,16.28-17.82Z"/>
    <path class="cls-2" d="M667.56,177.31v28.01h-15.09v-61.38h15.09v26.91l19.55-26.91h17.55l-22.37,30.1,23.19,31.28h-17.55l-20.37-28.01Z"/>
  </g>
  <g>
    <path class="cls-2" d="M710.99,143.94h25.37c14.09,0,23.28,7.82,23.28,19.46,0,9.18-5.64,15.91-14.73,18.46l15.73,23.46h-17.19l-14.73-22.37h-2.64v22.37h-15.09v-61.38ZM736,171.13c5.18,0,8.55-2.91,8.55-7.46s-3.36-7.27-8.55-7.27h-9.91v14.73h9.91Z"/>
    <path class="cls-2" d="M787.38,143.94h18.19l23,61.38h-15.73l-4.46-12.37h-24.1l-4.46,12.37h-15.46l23-61.38ZM796.29,159.22l-7.55,21.1h15.18l-7.55-21.1h-.09Z"/>
  </g>
  <g>
    <path class="cls-2" d="M854.92,157.77v47.55h-15.09v-47.55h-18.09v-13.91h51.19v13.91h-18Z"/>
    <path class="cls-2" d="M878.11,143.85h15.19v61.47h-15.19v-61.47Z"/>
  </g>
  <g>
    <path class="cls-2" d="M919.5,167.59h26.91v13h-26.91v11.73h31.64v13h-46.37v-61.38h45.55v13.09h-30.82v10.55Z"/>
    <path class="cls-2" d="M987.79,157.77v47.55h-15.09v-47.55h-18.09v-13.91h51.19v13.91h-18Z"/>
  </g>
  <path class="cls-2" d="M387.93,224.09h15.18v61.47h-15.18v-61.47Z"/>
  <g>
    <path class="cls-2" d="M455.4,224.18h18.19l23,61.38h-15.73l-4.46-12.37h-24.1l-4.46,12.37h-15.46l23-61.38ZM464.32,239.45l-7.55,21.09h15.18l-7.55-21.09h-.09Z"/>
    <path class="cls-2" d="M516.97,257.55v28.01h-15.09v-61.38h15.09v26.92l19.55-26.92h17.55l-22.37,30.1,23.19,31.28h-17.55l-20.37-28.01Z"/>
  </g>
  <g>
    <path class="cls-2" d="M590.52,238v47.55h-15.09v-47.55h-18.09v-13.91h51.19v13.91h-18Z"/>
    <path class="cls-2" d="M613.8,224.09h15.18v61.47h-15.18v-61.47Z"/>
    <path class="cls-2" d="M637.26,254.91c0-18.46,13.37-31.82,31.92-31.82s31.82,13.28,31.82,31.64-13.46,31.92-31.92,31.92-31.82-13.28-31.82-31.73ZM685.45,254.91c0-10.37-6.82-17.91-16.28-17.91s-16.46,7.46-16.46,17.82,7.09,17.91,16.46,17.91,16.28-7.55,16.28-17.82Z"/>
    <path class="cls-2" d="M709.28,224.09h13.73l25.91,36.01v-36.01h15.09v61.47h-13.46l-26.37-36.64v36.64h-14.91v-61.47Z"/>
  </g>
  <g>
    <path class="cls-2" d="M387.69,321.95h6.81c3.47,0,5.67,1.65,5.67,4.41,0,1.98-.97,3.58-2.69,4.15,2.14.44,3.47,2.12,3.47,4.41,0,2.85-2.32,4.65-6.14,4.65h-7.13v-17.62ZM394.22,329.71c2.53,0,3.86-1.07,3.86-2.92,0-1.96-1.41-2.95-3.99-2.95h-4.26v5.87h4.39ZM394.48,337.67c2.9,0,4.33-1.1,4.33-3.03s-1.54-3.05-4.31-3.05h-4.67v6.08h4.65Z"/>
    <path class="cls-2" d="M407.37,329.6h9.29v1.91h-9.29v6.16h10.76v1.91h-12.9v-17.62h12.66v1.91h-10.52v5.74Z"/>
    <path class="cls-2" d="M420.74,336.73l1.59-1.33c1.02,1.46,2.98,2.4,4.88,2.4,2.69,0,4.49-1.1,4.49-2.85,0-2.22-1.83-2.71-4.57-3.42-3.65-.94-5.74-2.3-5.74-4.99,0-3.08,2.4-4.86,6.19-4.86,2.4,0,4.46.89,5.9,2.45l-1.41,1.51c-1.15-1.25-2.77-1.96-4.46-1.96-2.4,0-3.94.97-3.94,2.77,0,1.65,1.41,2.27,4.2,3.03,3.92,1.07,6.06,2.4,6.06,5.38s-2.69,4.96-6.68,4.96c-2.71,0-5.17-1.2-6.5-3.11Z"/>
    <path class="cls-2" d="M440.57,338.3l-2.19,2.56-1.44-1.33,2.17-2.53c-1.41-1.59-2.25-3.76-2.25-6.24,0-5.25,3.73-9.06,8.9-9.06,1.98,0,3.76.55,5.2,1.54l2.19-2.56,1.44,1.33-2.17,2.53c1.41,1.59,2.25,3.73,2.25,6.21,0,5.27-3.76,9.08-8.93,9.08-1.96,0-3.73-.55-5.17-1.54ZM440.57,335.32l8.98-10.47c-1.04-.71-2.35-1.12-3.79-1.12-3.86,0-6.68,2.95-6.68,7.02,0,1.8.55,3.37,1.49,4.57ZM452.43,330.75c0-1.78-.52-3.34-1.46-4.54l-8.98,10.44c1.07.73,2.35,1.15,3.79,1.15,3.86,0,6.66-2.98,6.66-7.05Z"/>
    <path class="cls-2" d="M457.88,330.78c0-5.27,3.66-9.09,8.72-9.09,2.95,0,6.03,1.67,7.34,3.97l-1.85,1.07c-.99-1.75-3.29-3-5.46-3-3.79,0-6.53,2.95-6.53,7.05s2.66,7.02,6.37,7.02,5.93-2.35,6.24-5.69h-6.16v-1.83h8.41v.81c0,5.07-3.39,8.75-8.46,8.75s-8.62-3.81-8.62-9.06Z"/>
    <path class="cls-2" d="M488.13,329.6h9.29v1.91h-9.29v6.16h10.76v1.91h-12.9v-17.62h12.66v1.91h-10.52v5.74Z"/>
  </g>
  <g>
    <path class="cls-2" d="M502.13,332.66v-10.7h2.14v10.65c0,3.26,1.91,5.14,4.96,5.14s4.93-1.91,4.93-5.14v-10.65h2.14v10.7c0,4.44-2.71,7.15-7.08,7.15s-7.1-2.72-7.1-7.15Z"/>
    <path class="cls-2" d="M521.11,321.95h6.37c3.71,0,6.11,2.04,6.11,5.14,0,2.85-2.06,4.8-5.27,5.09l5.25,7.39h-2.43l-5.22-7.34h-2.64v7.34h-2.17v-17.62ZM527.43,330.28c2.45,0,4.02-1.1,4.02-3.19s-1.57-3.21-3.99-3.21h-4.18v6.4h4.15Z"/>
  </g>
  <g>
    <path class="cls-2" d="M536.85,330.75c0-5.25,3.73-9.06,8.9-9.06s8.9,3.81,8.9,9.06-3.76,9.08-8.93,9.08-8.88-3.81-8.88-9.08ZM552.41,330.75c0-4.07-2.79-7.02-6.66-7.02s-6.68,2.95-6.68,7.02,2.85,7.05,6.68,7.05,6.66-2.98,6.66-7.05Z"/>
    <path class="cls-2" d="M558.72,321.95h6.19c3.68,0,6.06,2.01,6.06,5.14s-2.4,5.22-6.08,5.22h-4.02v7.26h-2.14v-17.62ZM564.83,330.41c2.45,0,4.02-1.33,4.02-3.34s-1.59-3.21-3.99-3.21h-3.99v6.55h3.97Z"/>
  </g>
  <path class="cls-2" d="M571.34,339.58h2.25l1.98-4.91h8.43l1.98,4.91h2.22l-7.1-17.62h-2.66l-7.1,17.62ZM576.33,332.74l3.45-8.54,3.45,8.54h-6.89ZM598.81,329.71v-1.88h-9.63v1.88h9.63Z"/>
  <g>
    <path class="cls-2" d="M602.94,321.95h6.19c3.68,0,6.06,2.01,6.06,5.14s-2.4,5.22-6.08,5.22h-4.02v7.26h-2.14v-17.62ZM609.05,330.41c2.45,0,4.02-1.33,4.02-3.34s-1.59-3.21-3.99-3.21h-3.99v6.55h3.97Z"/>
    <path class="cls-2" d="M622.67,321.95h2.66l7.1,17.62h-2.22l-1.98-4.91h-8.43l-1.98,4.91h-2.25l7.1-17.62ZM627.45,332.74l-3.45-8.54-3.45,8.54h6.89Z"/>
  </g>
  <g>
    <path class="cls-2" d="M635.59,321.95h6.37c3.71,0,6.11,2.04,6.11,5.14,0,2.85-2.06,4.8-5.27,5.09l5.25,7.39h-2.43l-5.22-7.34h-2.64v7.34h-2.17v-17.62ZM641.91,330.28c2.45,0,4.02-1.1,4.02-3.19s-1.57-3.21-3.99-3.21h-4.18v6.4h4.15Z"/>
    <path class="cls-2" d="M652.4,321.95h2.14v15.64h9.14v1.98h-11.28v-17.62Z"/>
  </g>
  <g>
    <path class="cls-2" d="M673.13,321.95h2.66l7.1,17.62h-2.22l-1.98-4.91h-8.43l-1.98,4.91h-2.25l7.1-17.62ZM677.91,332.74l-3.45-8.54-3.45,8.54h6.89Z"/>
    <path class="cls-2" d="M686.05,321.95h2.19l6.32,11.44,6.29-11.44h2.19v17.62h-2.14v-13.5l-5.72,10.34h-1.28l-5.72-10.34v13.5h-2.14v-17.62Z"/>
  </g>
  <g>
    <path class="cls-2" d="M710.17,329.6h9.29v1.91h-9.29v6.16h10.76v1.91h-12.9v-17.62h12.66v1.91h-10.52v5.74Z"/>
    <path class="cls-2" d="M724.5,321.95h2.01l10.7,13.94v-13.94h2.17v17.62h-1.96l-10.81-14.05v14.05h-2.12v-17.62Z"/>
  </g>
  <g>
    <path class="cls-2" d="M750.5,323.91v15.67h-2.14v-15.67h-5.95v-1.96h14.05v1.96h-5.95Z"/>
    <path class="cls-2" d="M761.59,329.6h9.29v1.91h-9.29v6.16h10.76v1.91h-12.9v-17.62h12.66v1.91h-10.52v5.74Z"/>
  </g>
  <path class="cls-2" d="M782.89,323.91v15.67h-2.14v-15.67h-5.95v-1.96h14.05v1.96h-5.95Z"/>
</svg>