<?xml version="1.0" encoding="UTF-8"?>
<svg xmlns="http://www.w3.org/2000/svg" viewBox="0 0 1356 400">
  <defs>
    <style>
      .cls-1 {
        fill: #0c4da2;
      }

      .cls-2 {
        fill: #fff;
      }

      .cls-3 {
        fill: #fff200;
      }
    </style>
  </defs>
  <polygon class="cls-1" points="0 0 0 400 1356 400 1356 0 0 0 0 0"/>
  <polygon class="cls-3" points="186.77 1.45 174.2 40.63 132.92 40.36 166.38 64.51 153.44 103.61 186.77 79.22 220.04 103.61 207.1 64.51 240.48 40.36 199.3 40.63 186.77 1.45 186.77 1.45"/>
  <polygon class="cls-3" points="226.68 148.58 214.06 187.72 172.78 187.48 206.29 211.64 193.35 250.69 226.68 226.35 259.91 250.69 247.01 211.64 280.38 187.48 239.2 187.72 226.68 148.58 226.68 148.58"/>
  <polygon class="cls-3" points="187.05 295.67 174.62 335.05 133.34 334.72 166.9 358.83 153.9 397.92 187.05 373.45 220.46 397.92 207.52 358.83 240.99 334.77 199.76 335.05 187.05 295.67 187.05 295.67"/>
  <g>
    <path class="cls-2" d="M382.35,63.82h14.7l13.52,41.81h.08l13.6-41.81h14.61l-19.85,57.02h-16.81l-19.85-57.02Z"/>
    <path class="cls-2" d="M457.36,85.78h25v12.08h-25v10.9h29.4v12.08h-43.08v-57.02h42.32v12.16h-28.64v9.8Z"/>
  </g>
  <g>
    <path class="cls-2" d="M495.51,63.73h12.76l24.07,33.45v-33.45h14.02v57.1h-12.5l-24.5-34.04v34.04h-13.85v-57.1Z"/>
    <path class="cls-2" d="M594.93,63.82h16.89l21.37,57.02h-14.61l-4.14-11.49h-22.39l-4.14,11.49h-14.36l21.37-57.02ZM603.21,78.01l-7.01,19.6h14.11l-7.01-19.6h-.08Z"/>
  </g>
  <g>
    <path class="cls-2" d="M655.25,63.82h14.7l13.52,41.81h.08l13.6-41.81h14.61l-19.85,57.02h-16.81l-19.85-57.02Z"/>
    <path class="cls-2" d="M730.27,85.78h25v12.08h-25v10.9h29.4v12.08h-43.08v-57.02h42.32v12.16h-28.64v9.8Z"/>
  </g>
  <path class="cls-2" d="M768.42,63.82h23.57c13.09,0,21.62,7.26,21.62,18.08,0,8.53-5.24,14.78-13.68,17.15l14.61,21.79h-15.96l-13.68-20.78h-2.45v20.78h-14.02v-57.02ZM791.65,89.07c4.82,0,7.94-2.7,7.94-6.93s-3.12-6.76-7.94-6.76h-9.21v13.68h9.21Z"/>
  <g>
    <path class="cls-2" d="M387.5,145.96h13.94v44.26h25.17v12.84h-39.11v-57.1Z"/>
    <path class="cls-2" d="M450.6,146.04h16.89l21.37,57.02h-14.61l-4.14-11.49h-22.39l-4.14,11.49h-14.36l21.37-57.02ZM458.88,160.23l-7.01,19.6h14.11l-7.01-19.6h-.08Z"/>
  </g>
  <g>
    <path class="cls-2" d="M516.05,146.04h23.82c16.39,0,28.3,12,28.3,28.3s-11.91,28.72-28.3,28.72h-23.82v-57.02ZM553.81,174.43c0-8.87-6.17-15.46-14.61-15.46h-9.12v31.25h9.12c8.36,0,14.61-6.67,14.61-15.8Z"/>
    <path class="cls-2" d="M589.72,168.01h25v12.08h-25v10.9h29.4v12.08h-43.08v-57.02h42.32v12.16h-28.64v9.8Z"/>
  </g>
  <g>
    <path class="cls-2" d="M627.83,145.96h13.77l15.8,28.81,15.8-28.81h13.69v57.1h-14.02v-33.03l-13.09,24.16h-4.73l-13.18-24.16v33.03h-14.02v-57.1Z"/>
    <path class="cls-2" d="M694.56,174.6c0-17.15,12.42-29.57,29.65-29.57s29.56,12.33,29.56,29.4-12.5,29.65-29.65,29.65-29.57-12.33-29.57-29.48ZM739.33,174.6c0-9.63-6.33-16.64-15.12-16.64s-15.29,6.93-15.29,16.56,6.59,16.64,15.29,16.64,15.12-7.01,15.12-16.56Z"/>
    <path class="cls-2" d="M759.02,174.6c0-17.49,12-29.57,29.06-29.57,9.97,0,18.5,4.65,23.57,12.25l-9.97,7.69c-3.04-4.48-7.69-7.01-13.26-7.01-8.79,0-15.12,6.34-15.12,16.56s6.34,16.56,15.12,16.56c5.66,0,10.56-2.53,13.52-7.35l9.88,8.02c-4.81,7.35-13.26,12.33-23.74,12.33-16.81,0-29.06-12-29.06-29.48Z"/>
    <path class="cls-2" d="M817.99,146.04h23.57c13.09,0,21.62,7.26,21.62,18.08,0,8.53-5.24,14.78-13.68,17.15l14.61,21.79h-15.97l-13.68-20.78h-2.45v20.78h-14.02v-57.02ZM841.22,171.3c4.81,0,7.94-2.7,7.94-6.93s-3.13-6.76-7.94-6.76h-9.21v13.68h9.21Z"/>
  </g>
  <g>
    <path class="cls-2" d="M888.89,146.04h16.89l21.37,57.02h-14.61l-4.14-11.49h-22.39l-4.14,11.49h-14.36l21.37-57.02ZM897.17,160.23l-7.01,19.6h14.11l-7.01-19.6h-.08Z"/>
    <path class="cls-2" d="M926.74,174.6c0-17.49,12-29.57,29.06-29.57,9.97,0,18.5,4.65,23.57,12.25l-9.97,7.69c-3.04-4.48-7.69-7.01-13.26-7.01-8.79,0-15.12,6.34-15.12,16.56s6.34,16.56,15.12,16.56c5.66,0,10.56-2.53,13.52-7.35l9.88,8.02c-4.81,7.35-13.26,12.33-23.74,12.33-16.81,0-29.06-12-29.06-29.48Z"/>
  </g>
  <g>
    <path class="cls-2" d="M985.66,145.96h14.11v57.1h-14.11v-57.1Z"/>
    <path class="cls-2" d="M1025.86,146.04h16.89l21.37,57.02h-14.61l-4.14-11.49h-22.38l-4.14,11.49h-14.36l21.37-57.02ZM1034.14,160.23l-7.01,19.6h14.11l-7.01-19.6h-.08Z"/>
  </g>
  <g>
    <path class="cls-2" d="M401.18,250.22h25v12.08h-25v10.9h29.4v12.08h-43.08v-57.02h42.32v12.16h-28.64v9.8Z"/>
    <path class="cls-2" d="M439.28,228.18h12.76l24.07,33.45v-33.45h14.02v57.1h-12.5l-24.5-34.04v34.04h-13.85v-57.1Z"/>
  </g>
  <g>
    <path class="cls-2" d="M538.72,228.26h16.89l21.37,57.02h-14.61l-4.14-11.49h-22.39l-4.14,11.49h-14.36l21.37-57.02ZM547,242.45l-7.01,19.6h14.11l-7.01-19.6h-.08Z"/>
    <path class="cls-2" d="M576.57,256.81c0-17.49,12-29.57,29.06-29.57,9.97,0,18.5,4.65,23.57,12.25l-9.97,7.69c-3.04-4.48-7.69-7.01-13.26-7.01-8.79,0-15.12,6.33-15.12,16.56s6.34,16.56,15.12,16.56c5.66,0,10.56-2.53,13.52-7.35l9.88,8.02c-4.81,7.35-13.26,12.33-23.74,12.33-16.81,0-29.06-12-29.06-29.48Z"/>
  </g>
  <g>
    <path class="cls-2" d="M631.64,256.81c0-17.49,12-29.57,29.06-29.57,9.97,0,18.5,4.65,23.57,12.25l-9.97,7.69c-3.04-4.48-7.69-7.01-13.26-7.01-8.79,0-15.12,6.33-15.12,16.56s6.34,16.56,15.12,16.56c5.66,0,10.56-2.53,13.52-7.35l9.88,8.02c-4.82,7.35-13.26,12.33-23.74,12.33-16.81,0-29.06-12-29.06-29.48Z"/>
    <path class="cls-2" d="M690.61,228.18h14.11v57.1h-14.11v-57.1Z"/>
    <path class="cls-2" d="M712.4,256.81c0-17.15,12.42-29.57,29.65-29.57s29.56,12.33,29.56,29.4-12.5,29.65-29.65,29.65-29.57-12.33-29.57-29.48ZM757.17,256.81c0-9.63-6.33-16.64-15.12-16.64s-15.29,6.93-15.29,16.56,6.59,16.64,15.29,16.64,15.12-7.01,15.12-16.56ZM731.24,217.28l18.16-9.97,6.17,9.38-19.68,8.11-4.65-7.52Z"/>
    <path class="cls-2" d="M779.31,228.18h12.75l24.08,33.45v-33.45h14.02v57.1h-12.5l-24.5-34.04v34.04h-13.85v-57.1Z"/>
  </g>
  <g>
    <path class="cls-2" d="M385.88,319.98h2.29l5.92,15.42h.08l5.92-15.42h2.26l-6.87,17.77h-2.74l-6.87-17.77Z"/>
    <path class="cls-2" d="M405.65,319.98h2.19v17.77h-2.19v-17.77Z"/>
    <path class="cls-2" d="M411.36,334.87l1.61-1.34c1.03,1.47,3,2.42,4.92,2.42,2.71,0,4.53-1.11,4.53-2.87,0-2.24-1.84-2.74-4.61-3.45-3.69-.95-5.79-2.32-5.79-5.03,0-3.11,2.42-4.9,6.24-4.9,2.42,0,4.5.9,5.95,2.47l-1.42,1.53c-1.16-1.26-2.79-1.97-4.5-1.97-2.42,0-3.97.97-3.97,2.79,0,1.66,1.42,2.29,4.24,3.05,3.95,1.08,6.11,2.42,6.11,5.42s-2.71,5-6.74,5c-2.74,0-5.21-1.21-6.55-3.13Z"/>
    <path class="cls-2" d="M428.47,319.98h2.19v17.77h-2.19v-17.77Z"/>
  </g>
  <g>
    <path class="cls-2" d="M441.87,321.95v15.79h-2.16v-15.79h-6v-1.97h14.16v1.97h-6Z"/>
    <path class="cls-2" d="M454.16,319.98h2.68l7.16,17.77h-2.24l-2-4.95h-8.5l-2,4.95h-2.26l7.16-17.77ZM458.98,330.85l-3.47-8.61-3.47,8.61h6.95Z"/>
  </g>
  <g>
    <path class="cls-2" d="M476.62,327.69h9.37v1.92h-9.37v6.21h10.84v1.92h-13v-17.77h12.77v1.92h-10.61v5.79Z"/>
    <path class="cls-2" d="M491.08,319.98h2.16v15.77h9.21v2h-11.37v-17.77Z"/>
  </g>
  <g>
    <path class="cls-2" d="M512.93,319.98h6.24c3.71,0,6.11,2.03,6.11,5.18s-2.42,5.26-6.13,5.26h-4.05v7.32h-2.16v-17.77ZM519.09,328.5c2.47,0,4.05-1.34,4.05-3.37s-1.61-3.24-4.03-3.24h-4.03v6.61h4Z"/>
    <path class="cls-2" d="M532.83,319.98h2.68l7.16,17.77h-2.24l-2-4.95h-8.5l-2,4.95h-2.26l7.16-17.77ZM537.64,330.85l-3.47-8.61-3.47,8.61h6.95Z"/>
  </g>
  <g>
    <path class="cls-2" d="M545.85,319.98h6.42c3.74,0,6.16,2.05,6.16,5.18,0,2.87-2.08,4.84-5.32,5.13l5.29,7.45h-2.45l-5.26-7.4h-2.66v7.4h-2.19v-17.77ZM552.22,328.37c2.47,0,4.05-1.11,4.05-3.21s-1.58-3.24-4.03-3.24h-4.21v6.45h4.19Z"/>
    <path class="cls-2" d="M562.8,319.98h2.16v15.77h9.21v2h-11.37v-17.77Z"/>
  </g>
  <g>
    <path class="cls-2" d="M583.7,319.98h2.68l7.16,17.77h-2.24l-2-4.95h-8.5l-2,4.95h-2.26l7.16-17.77ZM588.52,330.85l-3.47-8.61-3.47,8.61h6.95Z"/>
    <path class="cls-2" d="M596.73,319.98h2.21l6.37,11.53,6.34-11.53h2.21v17.77h-2.16v-13.61l-5.76,10.42h-1.29l-5.76-10.42v13.61h-2.16v-17.77Z"/>
  </g>
  <g>
    <path class="cls-2" d="M621.07,327.69h9.37v1.92h-9.37v6.21h10.84v1.92h-13v-17.77h12.77v1.92h-10.61v5.79Z"/>
    <path class="cls-2" d="M635.52,319.98h2.03l10.79,14.06v-14.06h2.18v17.77h-1.97l-10.9-14.16v14.16h-2.13v-17.77Z"/>
  </g>
  <g>
    <path class="cls-2" d="M661.73,321.95v15.79h-2.16v-15.79h-6v-1.97h14.16v1.97h-6Z"/>
    <path class="cls-2" d="M669.07,328.85c0-5.29,3.76-9.13,8.98-9.13s8.98,3.84,8.98,9.13-3.79,9.16-9,9.16-8.95-3.84-8.95-9.16ZM684.76,328.85c0-4.11-2.82-7.08-6.71-7.08s-6.74,2.97-6.74,7.08,2.87,7.11,6.74,7.11,6.71-3,6.71-7.11Z"/>
  </g>
  <g>
    <path class="cls-2" d="M700.41,327.69h9.37v1.92h-9.37v6.21h10.84v1.92h-13v-17.77h12.77v1.92h-10.61v5.79Z"/>
    <path class="cls-2" d="M714.55,330.77v-10.79h2.16v10.74c0,3.29,1.92,5.18,5,5.18s4.97-1.92,4.97-5.18v-10.74h2.16v10.79c0,4.47-2.74,7.21-7.13,7.21s-7.16-2.74-7.16-7.21Z"/>
  </g>
  <g>
    <path class="cls-2" d="M733.69,319.98h6.42c3.74,0,6.16,2.05,6.16,5.18,0,2.87-2.08,4.84-5.32,5.13l5.29,7.45h-2.45l-5.26-7.4h-2.66v7.4h-2.18v-17.77ZM740.06,328.37c2.47,0,4.05-1.11,4.05-3.21s-1.58-3.24-4.03-3.24h-4.21v6.45h4.19Z"/>
    <path class="cls-2" d="M749.54,328.85c0-5.29,3.76-9.13,8.98-9.13s8.98,3.84,8.98,9.13-3.79,9.16-9,9.16-8.95-3.84-8.95-9.16ZM765.23,328.85c0-4.11-2.82-7.08-6.71-7.08s-6.74,2.97-6.74,7.08,2.87,7.11,6.74,7.11,6.71-3,6.71-7.11Z"/>
  </g>
  <g>
    <path class="cls-2" d="M771.6,319.98h6.24c3.71,0,6.11,2.03,6.11,5.18s-2.42,5.26-6.13,5.26h-4.05v7.32h-2.16v-17.77ZM777.76,328.5c2.47,0,4.05-1.34,4.05-3.37s-1.61-3.24-4.03-3.24h-4.03v6.61h4Z"/>
    <path class="cls-2" d="M789.47,327.69h9.37v1.92h-9.37v6.21h10.84v1.92h-13v-17.77h12.77v1.92h-10.61v5.79Z"/>
  </g>
  <path class="cls-2" d="M802.68,328.85c0-5.29,3.76-9.13,8.98-9.13s8.98,3.84,8.98,9.13-3.79,9.16-9,9.16-8.95-3.84-8.95-9.16ZM818.37,328.85c0-4.11-2.82-7.08-6.71-7.08s-6.74,2.97-6.74,7.08,2.87,7.11,6.74,7.11,6.71-3,6.71-7.11Z"/>
</svg>