<svg xmlns="http://www.w3.org/2000/svg" viewBox="0 0 14.5 14.9"><path d="M7.25-.04A7.34 7.34 0 0 0 0 7.41a7.44 7.44 0 0 0 4.34 6.82 6.7 6.7 0 0 1 .12-1.71l.94-4.06a2.87 2.87 0 0 1-.24-1.18c0-1.1.63-1.93 1.4-1.93a1 1 0 0 1 1 1.12 16 16 0 0 1-.64 2.64 1.15 1.15 0 0 0 1.14 1.44c1.38 0 2.3-1.81 2.3-4a2.75 2.75 0 0 0-3-2.86A3.48 3.48 0 0 0 3.8 7.26a2.13 2.13 0 0 0 .48 1.46.38.38 0 0 1 .1.42c0 .13-.12.46-.15.59a.25.25 0 0 1-.36.19 2.88 2.88 0 0 1-1.49-2.84 4.86 4.86 0 0 1 5.18-4.66 4.38 4.38 0 0 1 4.59 4.27c0 2.92-1.58 5.1-3.91 5.1a2.07 2.07 0 0 1-1.81-.83s-.42 1.71-.51 2a6 6 0 0 1-.73 1.6 7 7 0 0 0 2.06.3 7.34 7.34 0 0 0 7.24-7.44A7.34 7.34 0 0 0 7.25-.04" fill="#bd071e"/></svg>