<svg xmlns="http://www.w3.org/2000/svg" width="45.003" height="45" viewBox="0 0 45.003 45">
  <g id="ep-EE24-elections-campaign-Telegram-icon" transform="translate(0.5 0.5)">
    <path id="Path" d="M5.02,10.039a22,22,0,0,0,22-22,22,22,0,0,0-22-22,22,22,0,0,0-22,22,22,22,0,0,0,22,22" transform="translate(16.982 33.961)" fill="#fff200" stroke="#1e1e1e" stroke-width="1"/>
    <g id="Grupo_" data-name="Grupo " transform="translate(3.064 -6.565)">
      <path id="telegram" d="M-19034.787,18820a.681.681,0,0,1-.152-.094l-4.156-3.184-2.469,2.246a.947.947,0,0,1-.781.307,1.352,1.352,0,0,1-.354-.041c-.613-.062-.875-.725-1.068-1.342-.227-.73-1.221-3.982-1.557-5.07l-4.236-1.426h-.014a1.891,1.891,0,0,1-1.244-1.383,1.62,1.62,0,0,1,1.258-1.6l18.242-7.154a2.2,2.2,0,0,1,1.936-.033,1.265,1.265,0,0,1,.555,1.123.479.479,0,0,1-.014.143l-3.248,16.4c-.012.039-.025.086-.039.125a2.05,2.05,0,0,1-1.049,1.063,1.906,1.906,0,0,1-.686.131A2.374,2.374,0,0,1-19034.787,18820Zm.645-1.287a.583.583,0,0,0,.424.035.675.675,0,0,0,.242-.23l3.188-16.074a1.806,1.806,0,0,0-.463.131c-.014,0-.018.006-.025.006l-18.273,7.166c-.006.008-.014.008-.027.014a1.234,1.234,0,0,0-.262.137,1.143,1.143,0,0,0,.248.15l4.248,1.428,10.746-6.828c.008,0,.014,0,.014-.006a1.266,1.266,0,0,1,1.3-.15.835.835,0,0,1,.393.594.458.458,0,0,1,.025.131,1.193,1.193,0,0,1-.463.953c-.293.27-6.2,5.58-8.107,7.291l2.252,1.758c.021.02.043.039.061.057Zm-7.576-1.537,1.465-1.34-1.207-.928Z" transform="translate(19058.766 -18782.039)" fill="#1e1e1e"/>
    </g>
  </g>
</svg>
