<svg xmlns="http://www.w3.org/2000/svg" width="45.003" height="45" viewBox="0 0 45.003 45">
  <g id="ep-EE24-elections-camapign-signal-icon" transform="translate(0.5 0.5)">
    <g id="Group">
      <path id="Path" d="M5.02,10.039a22,22,0,0,0,22-22,22,22,0,0,0-22-22,22,22,0,0,0-22,22,22,22,0,0,0,22,22" transform="translate(16.982 33.961)" fill="#fff200" stroke="#1e1e1e" stroke-width="1"/>
    </g>
    <path id="signal" d="M15,2h-.119l.009,1.091H15a11.473,11.473,0,0,1,2.473.268l.237-1.065A12.586,12.586,0,0,0,15,2Zm-1.257.062a12.426,12.426,0,0,0-2.781.605L11.314,3.7a11.341,11.341,0,0,1,2.538-.552Zm5.067.531-.331,1.039A11.124,11.124,0,0,1,20.839,4.7l.565-.933A12.217,12.217,0,0,0,18.81,2.592ZM9.9,3.087A12.135,12.135,0,0,0,7.457,4.551l.667.863a11.042,11.042,0,0,1,2.223-1.334Zm12.452,1.32-.65.877a10.78,10.78,0,0,1,1.88,1.78l.841-.695A11.876,11.876,0,0,0,22.351,4.407ZM15,4.727a9.023,9.023,0,0,0-9.273,8.727,8.572,8.572,0,0,0,3.818,7.057v2.761a.547.547,0,0,0,.545.545.538.538,0,0,0,.272-.074l2.963-1.706A9.889,9.889,0,0,0,15,22.182a9.023,9.023,0,0,0,9.273-8.727A9.023,9.023,0,0,0,15,4.727Zm-8.412.566A11.652,11.652,0,0,0,4.761,7.485l.918.589A10.55,10.55,0,0,1,7.335,6.088ZM15,5.818a7.932,7.932,0,0,1,8.182,7.636A7.932,7.932,0,0,1,15,21.091a8.831,8.831,0,0,1-1.67-.16.549.549,0,0,0-.376.063l-2.317,1.335v-2.11a.545.545,0,0,0-.252-.459,7.511,7.511,0,0,1-3.566-6.3A7.932,7.932,0,0,1,15,5.818ZM25.107,7.285l-.906.608A10.14,10.14,0,0,1,25.357,10.2l1.031-.36A11.28,11.28,0,0,0,25.107,7.285ZM4.192,8.479a11.014,11.014,0,0,0-.953,2.7l1.067.227a9.906,9.906,0,0,1,.859-2.43Zm22.517,2.462-1.062.249a9.881,9.881,0,0,1,.262,2.264c0,.1,0,.2-.005.3l1.091.033c0-.11.005-.221.005-.332A11,11,0,0,0,26.709,10.941ZM3.06,12.309A11.151,11.151,0,0,0,3,13.455a10.967,10.967,0,0,0,.134,1.714L4.212,15a9.924,9.924,0,0,1-.121-1.544,10.19,10.19,0,0,1,.053-1.032Zm22.76,2.475a9.843,9.843,0,0,1-.676,2.485l1.007.422A10.926,10.926,0,0,0,26.9,14.93ZM4.426,16.009l-1.054.281a11.114,11.114,0,0,0,1.088,2.645l.947-.541A10.068,10.068,0,0,1,4.426,16.009ZM24.7,18.2a10.4,10.4,0,0,1-1.511,2.1l.8.741a11.541,11.541,0,0,0,1.668-2.317ZM5.966,19.267l-.887.634a11.6,11.6,0,0,0,1.765,1.956l.224,2.195,1.087-.111-.247-2.41a.548.548,0,0,0-.19-.36A10.544,10.544,0,0,1,5.966,19.267Zm16.478,1.757A11,11,0,0,1,20.316,22.5l.513.962a12.115,12.115,0,0,0,2.338-1.626Zm-3.067,1.923a11.308,11.308,0,0,1-2.494.717l.179,1.076a12.394,12.394,0,0,0,2.736-.786Zm-5.55.812a.567.567,0,0,0-.277.044L13,24.047l.443,1,.421-.187a12.748,12.748,0,0,0,2.07.018l-.08-1.088A11.8,11.8,0,0,1,13.826,23.759ZM12,24.49,9.506,25.6l.442,1,2.494-1.106Zm-3.735.535-1.086.112.188,1.82a.545.545,0,0,0,.542.489A.527.527,0,0,0,8.13,27.4l.821-.364-.442-1-.134.06Z" transform="translate(7.002 7.277)" fill="#1e1e1e"/>
  </g>
</svg>
