<?xml version="1.0" encoding="utf-8"?>
<!-- Generator: Adobe Illustrator 28.2.0, SVG Export Plug-In . SVG Version: 6.00 Build 0)  -->
<svg version="1.1" id="Calque_1" xmlns="http://www.w3.org/2000/svg" xmlns:xlink="http://www.w3.org/1999/xlink" x="0px" y="0px"
	 viewBox="0 0 65.01 64.59" style="enable-background:new 0 0 65.01 64.59;" xml:space="preserve">
<style type="text/css">
	.st0{fill:#FAEA26;}
</style>
<path id="Tracé_205461" class="st0" d="M32.49,0l1.18,3.66l3.84-0.02l-3.12,2.25l1.21,3.65l-3.11-2.27L29.4,9.54l1.2-3.65
	l-3.12-2.25l3.84,0.02L32.49,0z"/>
<path id="Tracé_205462" class="st0" d="M32.49,55.05l1.18,3.65l3.84-0.02l-3.12,2.25l1.21,3.65l-3.1-2.27l-3.1,2.27l1.2-3.65
	l-3.12-2.25l3.84,0.02L32.49,55.05z"/>
<path id="Tracé_205463" class="st0" d="M18.8,3.66l1.17,3.66l3.84-0.01l-3.11,2.24l1.2,3.65l-3.1-2.27l-3.09,2.27l1.2-3.65
	L13.8,7.31l3.84,0.01L18.8,3.66z"/>
<path id="Tracé_205464" class="st0" d="M8.73,13.77l1.17,3.66l3.84-0.03l-3.12,2.25l1.2,3.65l-3.09-2.27l-3.1,2.27l1.2-3.65
	L3.7,17.4l3.85,0.03L8.73,13.77z"/>
<path id="Tracé_205465" class="st0" d="M5.02,27.5l1.16,3.65l3.85-0.02l-3.12,2.25l1.19,3.64l-3.08-2.27l-3.1,2.27l1.21-3.64
	L0,31.12l3.84,0.02L5.02,27.5z"/>
<path id="Tracé_205466" class="st0" d="M8.69,41.22l1.18,3.67l3.83-0.03l-3.11,2.25l1.21,3.65l-3.1-2.28l-3.1,2.28l1.21-3.65
	l-3.12-2.24l3.84,0.02L8.69,41.22z"/>
<path id="Tracé_205467" class="st0" d="M18.8,51.32l1.17,3.66l3.84-0.02L20.7,57.2l1.2,3.65l-3.1-2.27l-3.09,2.27l1.2-3.65
	l-3.11-2.24l3.84,0.02L18.8,51.32z"/>
<path id="Tracé_205468" class="st0" d="M46.21,3.66l-1.17,3.66l-3.85-0.01l3.12,2.24l-1.2,3.65l3.1-2.27l3.09,2.27l-1.2-3.65
	l3.11-2.24l-3.83,0.01L46.21,3.66z"/>
<path id="Tracé_205469" class="st0" d="M56.29,13.77l-1.17,3.66l-3.85-0.03l3.12,2.25l-1.21,3.65l3.11-2.27l3.1,2.27l-1.21-3.65
	l3.11-2.25l-3.84,0.03L56.29,13.77z"/>
<path id="Tracé_205470" class="st0" d="M60.01,27.5l-1.17,3.65l-3.85-0.02l3.12,2.25l-1.2,3.64l3.1-2.27l3.1,2.27l-1.2-3.64
	l3.11-2.25l-3.84,0.02L60.01,27.5z"/>
<path id="Tracé_205471" class="st0" d="M56.31,41.22l-1.16,3.67l-3.85-0.03l3.12,2.25l-1.21,3.65l3.09-2.28l3.11,2.28l-1.2-3.65
	l3.12-2.24l-3.85,0.02L56.31,41.22z"/>
<path id="Tracé_205472" class="st0" d="M46.21,51.32l-1.17,3.66l-3.85-0.02l3.12,2.24l-1.2,3.65l3.1-2.27l3.09,2.27l-1.2-3.65
	l3.11-2.24l-3.83,0.02L46.21,51.32z"/>
</svg>
